<svg id="Capa_1" data-name="Capa 1" xmlns="http://www.w3.org/2000/svg" viewBox="0 0 540 540"><defs><style>.cls-1{fill:#1e1e1c;}.cls-2{fill:#d4212a;}.cls-3{fill:#f7e30b;}.cls-4{fill:#fff;}</style></defs><circle class="cls-1" cx="270" cy="270" r="270"/><path class="cls-2" d="M245.78,85.79C147.84,199.22,150.41,272.52,225.08,317c-49.38-63,118.56-103.78,4.14-170.9,63.57,61.2-13.6,81-26,129.5-29.86-26.9-32.68-101.12,45.53-179.47,174.75,107.92-117.08,171.48,14.54,252.21C185.13,240,459.84,209.68,245.78,85.79Z"/><path class="cls-3" d="M296.77,85.79c97.94,113.43,95.37,186.73,20.7,231.22,49.38-63-118.56-103.78-4.14-170.9-63.57,61.2,13.6,81,26,129.5,29.86-26.9,32.68-101.12-45.53-179.47C119.07,204.06,410.9,267.62,279.28,348.35,357.42,240,82.71,209.68,296.77,85.79Z"/><path class="cls-4" d="M182.9,413.52c-2.88,5.4-1.06,9.26,3.55,12.22l11.82,6.11c5.86,3.23,11.25,3.64,15-5.52l33.05-93.23c2-9.12-5.91-11.63-10.64-6.11Z"/><path class="cls-4" d="M143.88,358.49c-4.37,2.25-5,5.63-3.45,9.68l2.26,5.48c2.24,4.79,5.5,7.52,12.23,3.21l67.32-42.55c5.53-5.12,1.66-10.37-4-8.88Z"/><path class="cls-4" d="M365.85,409c2.88,5.4,1.06,9.27-3.54,12.23l-11.83,6.11c-5.86,3.22-11.24,3.64-15.05-5.52l-33.05-93.24c-2-9.12,5.92-11.63,10.65-6.11Z"/><path class="cls-4" d="M407.63,354.74c4.38,2.26,5,5.64,3.46,9.68l-2.27,5.48c-2.23,4.8-5.49,7.52-12.22,3.21l-67.32-42.55c-5.54-5.12-1.66-10.36,4-8.87Z"/><path class="cls-4" d="M254.25,429.83c-.41,5.29,2.45,7.63,7.25,8.22l22.72-.25c5.91.34,10.45-1.34,10.27-9.91L278.06,343.1c-1.65-7.85-12.85-7.17-14.73-1.1Z"/><polygon class="cls-4" points="126.57 224.88 128.88 239.44 142.18 245.79 129.04 252.48 127.11 267.1 116.69 256.67 102.19 259.35 108.89 246.22 101.86 233.26 116.42 235.56 126.57 224.88"/><polygon class="cls-4" points="396.25 152.73 398.56 167.29 411.86 173.65 398.73 180.34 396.79 194.95 386.37 184.53 371.88 187.21 378.57 174.07 371.54 161.11 386.1 163.42 396.25 152.73"/><path class="cls-3" d="M270,71C160.07,71,71,160.06,71,270S160.07,469.05,270,469.05s199.05-89.12,199.05-199S379.93,71,270,71Zm0,391.59c-106.34,0-192.54-86.2-192.54-192.54S163.66,77.46,270,77.46,462.54,163.66,462.54,270,376.34,462.54,270,462.54Z"/><path class="cls-3" d="M270,0C120.88,0,0,120.88,0,270S120.88,540,270,540,540,419.12,540,270,419.12,0,270,0Zm0,531.16C125.76,531.16,8.84,414.24,8.84,270S125.76,8.84,270,8.84,531.16,125.76,531.16,270,414.24,531.16,270,531.16Z"/><path class="cls-4" d="M206.29,491.08a7.94,7.94,0,0,0-5.07-4.95,8.11,8.11,0,0,0-3.13-.38,7.66,7.66,0,0,0-2.83.81,8.16,8.16,0,0,0-2.3,1.87,8.58,8.58,0,0,0-1.92,5.95,7.7,7.7,0,0,0,.78,2.87,7.27,7.27,0,0,0,1.8,2.33,7.58,7.58,0,0,0,2.69,1.52,8.7,8.7,0,0,0,7-.9l-2.71,8.34-.8,0a21.53,21.53,0,0,1-3.3-.14,14.91,14.91,0,0,1-11.46-7.89,15.45,15.45,0,0,1-1.66-5.59,15.44,15.44,0,0,1,3.72-11.53,15.2,15.2,0,0,1,19-2.87,18.92,18.92,0,0,1,2.94,2.12Z"/><path class="cls-4" d="M238,511.27l-10.5-1.46-2.37,4.69-7.83-1.1L232,486.63l8,1.12,6.81,29.76L239,516.42Zm-1.17-5.85-2-9.87-4.61,9Z"/><path class="cls-4" d="M264.05,518.44l3-28.78,7.33-.47L281.07,504l4.72-15.53,7.32-.46,6.64,28.17-7.38.47-3.48-16.24-5.7,16.81-2.94.18-7.42-16L271.41,518Z"/><path class="cls-4" d="M319.46,482.83l6.39,27.81-7.23,1.66-6.39-27.8Z"/><path class="cls-4" d="M345.42,505.38l-10.6-26.5,6.88-2.76,19.21,11.12L354.42,471l6.85-2.74,10.61,26.5L365,497.53l-19.2-11.11,6.48,16.2Z"/><path class="cls-4" d="M402.64,471.19l-8.9,5.76L395,482l-6.65,4.29L382,456.47l6.81-4.4,24.61,18.07-6.64,4.29Zm-4.71-3.67-8-6.17,2.37,9.79Z"/><path class="cls-4" d="M427.72,458.71,408,438.13,413.3,433l22,3.1L423.18,423.5l5.32-5.11L448.27,439l-5.33,5.11L421,441l12.09,12.59Z"/><path class="cls-4" d="M450,401.11l17.89,13.24-4.41,6-17.9-13.24L442,412l-5.05-3.72,11.66-15.77,5.05,3.74Z"/><path class="cls-4" d="M468.92,369.82l-4.21,7.76,4.2,2.27,4-7.32,5.52,3-4,7.31,4.33,2.36,4.2-7.76,5.53,3-7.74,14.27-25.09-13.59,7.73-14.27Z"/><path class="cls-4" d="M481.84,340.82a9.27,9.27,0,0,0-2.2,1.77,6.43,6.43,0,0,0-1.24,2.05,3.79,3.79,0,0,0-.15,2.44,2.12,2.12,0,0,0,1.36,1.46,1.75,1.75,0,0,0,1.33,0,4,4,0,0,0,1.2-.82,8.94,8.94,0,0,0,1.15-1.37c.38-.51.77-1,1.16-1.52a11.39,11.39,0,0,1,4.85-3.9,8,8,0,0,1,5.54.21,10.18,10.18,0,0,1,3.49,2,8.3,8.3,0,0,1,2.13,3.06,10.22,10.22,0,0,1,.67,3.95,14.7,14.7,0,0,1-.93,4.64,17.15,17.15,0,0,1-6.44,8.33l-4.54-5a12.69,12.69,0,0,0,3.18-2.35,8,8,0,0,0,1.78-2.78,3.9,3.9,0,0,0,.13-2.83,2.52,2.52,0,0,0-1.48-1.47,2.73,2.73,0,0,0-1.12-.18,2.43,2.43,0,0,0-1.08.43,5.53,5.53,0,0,0-1.17,1l-1.41,1.68q-.92,1.21-1.89,2.31a8.79,8.79,0,0,1-2.21,1.82,6.49,6.49,0,0,1-2.75.86,8.12,8.12,0,0,1-3.52-.55,10.57,10.57,0,0,1-3.38-2,8.78,8.78,0,0,1-2.1-2.85,9.07,9.07,0,0,1-.74-3.57,11.89,11.89,0,0,1,.75-4.1,18.08,18.08,0,0,1,2.06-4,19.38,19.38,0,0,1,3.13-3.58Z"/><path class="cls-4" d="M68.45,380.59l-7.32-13q2-1.12,3.75-1.89a14.47,14.47,0,0,1,3.42-1,13.58,13.58,0,0,1,4.58-.06A12.54,12.54,0,0,1,77,366a15.14,15.14,0,0,1,3.55,2.68,17.71,17.71,0,0,1,2.84,3.79,16.57,16.57,0,0,1,2,5.93,13.8,13.8,0,0,1-3.08,10.79,18.13,18.13,0,0,1-10.85,6.11,13.75,13.75,0,0,1-5.74-.36,14.21,14.21,0,0,1-5.09-2.71,17.72,17.72,0,0,1-4.08-5,15.86,15.86,0,0,1-2.18-7.89,13.59,13.59,0,0,1,2.65-7.7l6.08,4.79a7.26,7.26,0,0,0-1.72,3.93,6.47,6.47,0,0,0,.88,3.67,7.16,7.16,0,0,0,2.06,2.38,6.55,6.55,0,0,0,2.72,1.17,8.74,8.74,0,0,0,3.22,0,12.42,12.42,0,0,0,6.23-3.41,7.67,7.67,0,0,0,1.69-2.59,6.53,6.53,0,0,0,.38-3,8,8,0,0,0-1.06-3.2,8.9,8.9,0,0,0-1.27-1.75,5.44,5.44,0,0,0-1.62-1.23,4.47,4.47,0,0,0-1.92-.48,5.74,5.74,0,0,0-2.24.41l3,5.4Z"/><path class="cls-4" d="M40.43,349.56l15-4.92c.8-.26,1.61-.56,2.43-.89a7.11,7.11,0,0,0,2.1-1.3,4,4,0,0,0,1.19-2,5.39,5.39,0,0,0-.27-3,5.19,5.19,0,0,0-1.55-2.54,4.07,4.07,0,0,0-2.13-.89,6.76,6.76,0,0,0-2.47.17q-1.29.33-2.49.72l-15,4.92-2.34-7.13,16-5.23c4.29-1.41,7.73-1.46,10.35-.14s4.59,4,5.92,8.06,1.34,7.41,0,10-4.12,4.63-8.41,6l-16,5.24Z"/><path class="cls-4" d="M22,305.2l6.25,6.41L26,315l-7-5.16Zm7.82,2,28.56-4.92,1.28,7.42-28.55,4.92Z"/><path class="cls-4" d="M50.82,270.53l.29,10.76,5.08,1.59.21,8L27.14,280.67l-.22-8.23,28.67-11.8.22,8Zm-5.67,2.15-9.56,3.64,9.74,3.13Z"/><path class="cls-4" d="M37.63,230.38a9,9,0,0,0-1.81,2.21,6.34,6.34,0,0,0-.82,2.29,3.85,3.85,0,0,0,.35,2.46A2.15,2.15,0,0,0,37,238.52a1.77,1.77,0,0,0,1.31-.28,4.14,4.14,0,0,0,1-1.08,11.09,11.09,0,0,0,.86-1.58c.26-.6.55-1.19.84-1.77a11.55,11.55,0,0,1,4-4.88,8.15,8.15,0,0,1,5.55-.93,10.46,10.46,0,0,1,3.89,1.31,8.48,8.48,0,0,1,2.75,2.61,10.33,10.33,0,0,1,1.48,3.79,14.73,14.73,0,0,1,0,4.79,17.43,17.43,0,0,1-4.68,9.62l-5.55-4.06a12.84,12.84,0,0,0,2.68-3,7.92,7.92,0,0,0,1.18-3.13A3.9,3.9,0,0,0,52,237.1a2.56,2.56,0,0,0-1.78-1.16A2.42,2.42,0,0,0,49,236a2.51,2.51,0,0,0-1,.64,5.51,5.51,0,0,0-.94,1.28c-.32.54-.67,1.2-1.07,2-.44.93-.91,1.82-1.41,2.69a9,9,0,0,1-1.82,2.27,7,7,0,0,1-2.55,1.42,8.28,8.28,0,0,1-3.61.16,10.31,10.31,0,0,1-3.76-1.26,8.5,8.5,0,0,1-2.68-2.4,8.91,8.91,0,0,1-1.48-3.39,11.9,11.9,0,0,1-.09-4.23,17.89,17.89,0,0,1,1.23-4.37,20,20,0,0,1,2.36-4.2Z"/><path class="cls-4" d="M58.92,184.28,40.9,188l3.57-8.25,9.41-1.78-5.14-8.05,3.58-8.25,9.6,15.73,12.76,5.53-3,6.91Z"/><path class="cls-4" d="M89.47,119.69a9.47,9.47,0,0,0-2.69,1,6.52,6.52,0,0,0-1.86,1.55,3.86,3.86,0,0,0-1,2.3,2.13,2.13,0,0,0,.84,1.84,1.74,1.74,0,0,0,1.27.44,4.13,4.13,0,0,0,1.43-.4,10.9,10.9,0,0,0,1.56-.92c.53-.38,1.07-.74,1.61-1.09a11.58,11.58,0,0,1,5.94-2.16,8.05,8.05,0,0,1,5.25,2,10.23,10.23,0,0,1,2.68,3.1,8.47,8.47,0,0,1,1,3.65,10.13,10.13,0,0,1-.65,4,14.72,14.72,0,0,1-2.42,4.14,17.48,17.48,0,0,1-8.92,5.9l-2.71-6.32a12.87,12.87,0,0,0,3.83-1.22,8,8,0,0,0,2.61-2.08,3.91,3.91,0,0,0,1.06-2.67,2.64,2.64,0,0,0-2-2.44,2.47,2.47,0,0,0-1.17,0,6.24,6.24,0,0,0-1.46.63c-.54.31-1.18.69-1.92,1.16s-1.71,1.09-2.58,1.59a9,9,0,0,1-2.72,1,6.73,6.73,0,0,1-2.92-.08,8.12,8.12,0,0,1-3.19-1.7,10.22,10.22,0,0,1-2.59-3,8.46,8.46,0,0,1-1.09-3.43,8.74,8.74,0,0,1,.46-3.67,11.8,11.8,0,0,1,2.07-3.69,17.87,17.87,0,0,1,3.28-3.13,19.86,19.86,0,0,1,4.17-2.41Z"/><path class="cls-4" d="M120.11,92.43a8,8,0,0,0-6.92,2,7.88,7.88,0,0,0-1.9,2.56,7.6,7.6,0,0,0-.72,2.9,7.82,7.82,0,0,0,.48,3,8.49,8.49,0,0,0,1.69,2.74,8.26,8.26,0,0,0,2.58,2,7.78,7.78,0,0,0,5.91.35,8,8,0,0,0,2.69-1.61,8.77,8.77,0,0,0,2.73-6.64l6,6.59-.39.71a22.32,22.32,0,0,1-1.78,2.85,16.2,16.2,0,0,1-2,2.2,15.2,15.2,0,0,1-10.74,3.92,15.87,15.87,0,0,1-5.77-1.35,15.63,15.63,0,0,1-8.29-9.09,15.3,15.3,0,0,1-.76-5.8,15.37,15.37,0,0,1,5-10.35,16.69,16.69,0,0,1,2.75-2,20,20,0,0,1,3.38-1.52Z"/><path class="cls-4" d="M134.8,86.78a15.06,15.06,0,0,1-1.88-11.61,15.13,15.13,0,0,1,2.59-5.42,17.11,17.11,0,0,1,4.9-4.39,17.31,17.31,0,0,1,6.11-2.4,15.31,15.31,0,0,1,6,.09,14.72,14.72,0,0,1,5.38,2.4,15,15,0,0,1,4.17,4.49,15.27,15.27,0,0,1,2.15,5.75A14.9,14.9,0,0,1,161.35,87a18.39,18.39,0,0,1-11,6.79,15,15,0,0,1-15.54-7Zm6.71-4.13A7.69,7.69,0,0,0,143.74,85a8,8,0,0,0,2.83,1.23,8.18,8.18,0,0,0,6.06-1.08A8.12,8.12,0,0,0,155,83a8.21,8.21,0,0,0,1.35-2.79,7.87,7.87,0,0,0,.18-3.1,7.57,7.57,0,0,0-1.11-3,7.73,7.73,0,0,0-2.23-2.38,8.12,8.12,0,0,0-2.86-1.22,8.28,8.28,0,0,0-3.1,0,8.46,8.46,0,0,0-3,1.13,8.83,8.83,0,0,0-2.35,2.16,8.06,8.06,0,0,0-1.33,2.79,8,8,0,0,0-.17,3.08A7.69,7.69,0,0,0,141.51,82.65Z"/><path class="cls-4" d="M178.29,47.18,183.78,62c.3.78.63,1.58,1,2.39a7.23,7.23,0,0,0,1.38,2.05,4,4,0,0,0,2,1.11,5.32,5.32,0,0,0,3-.39,5.18,5.18,0,0,0,2.49-1.64,4.12,4.12,0,0,0,.81-2.17,6.59,6.59,0,0,0-.28-2.45c-.24-.85-.51-1.68-.81-2.47l-5.49-14.77,7-2.61,5.84,15.74c1.57,4.24,1.76,7.67.55,10.34s-3.83,4.74-7.84,6.23-7.34,1.63-10,.4-4.79-4-6.36-8.17l-5.85-15.74Z"/><path class="cls-4" d="M225.15,40.49l4.34,22.18-7.39,1.45-4.35-22.18-6.07,1.19-1.22-6.26L230,33l1.22,6.27Z"/><path class="cls-4" d="M262,37.85a9.52,9.52,0,0,0-2.53-1.36,6.25,6.25,0,0,0-2.4-.37,3.9,3.9,0,0,0-2.35.81,2.16,2.16,0,0,0-.84,1.84,1.85,1.85,0,0,0,.52,1.25,4.07,4.07,0,0,0,1.26.8,9.38,9.38,0,0,0,1.72.56c.62.15,1.26.31,1.88.49a11.49,11.49,0,0,1,5.54,3,8,8,0,0,1,2,5.27,10.34,10.34,0,0,1-.55,4.07,8.52,8.52,0,0,1-2,3.19,10.3,10.3,0,0,1-3.44,2.16,14.71,14.71,0,0,1-4.71.93,17.27,17.27,0,0,1-10.32-2.79l2.93-6.21a12.88,12.88,0,0,0,3.45,2.07,7.93,7.93,0,0,0,3.29.58,3.94,3.94,0,0,0,2.71-1,2.59,2.59,0,0,0,.81-2,2.41,2.41,0,0,0-.29-1.12,2.45,2.45,0,0,0-.8-.85,6.47,6.47,0,0,0-1.44-.68c-.58-.21-1.29-.43-2.13-.67s-2-.55-2.91-.89a8.82,8.82,0,0,1-2.56-1.35,7.09,7.09,0,0,1-1.87-2.24,8.29,8.29,0,0,1-.84-3.52,10.49,10.49,0,0,1,.52-3.94,9.07,9.07,0,0,1,1.86-3.08,9,9,0,0,1,3.06-2.08,11.63,11.63,0,0,1,4.13-.89,18.33,18.33,0,0,1,4.53.38,19.77,19.77,0,0,1,4.56,1.54Z"/><path class="cls-4" d="M390.77,76.34a8.14,8.14,0,0,0-7-7,7.47,7.47,0,0,0-5.65,1.58,8.63,8.63,0,0,0-3.17,5.49,7.64,7.64,0,0,0,.16,3,8.08,8.08,0,0,0,1.3,2.71,7.77,7.77,0,0,0,2.36,2.07,8.75,8.75,0,0,0,7.16.58l-4.46,7.72-.8-.15a22.38,22.38,0,0,1-3.24-.84,15.15,15.15,0,0,1-2.71-1.23,15.11,15.11,0,0,1-7-9,15.94,15.94,0,0,1-.47-5.91,15.64,15.64,0,0,1,6.13-10.66,15.22,15.22,0,0,1,11.08-2.79A15.24,15.24,0,0,1,390,63.8a15.78,15.78,0,0,1,2.76,2,20.92,20.92,0,0,1,2.49,2.73Z"/><path class="cls-4" d="M409.92,92.28l8.3,7,7.22-8.53,5.75,4.88-18.74,22.09-5.74-4.87,7.73-9.11-8.3-7-7.73,9.12L392.67,101l18.74-22.1,5.75,4.87Z"/><path class="cls-4" d="M448.85,114.71l-21.76,19.14-5-5.66,21.76-19.13Z"/><path class="cls-4" d="M464.31,135l-18.63,12.78,5.11,7.45-5.27,3.61-9.36-13.66,23.9-16.38Z"/><path class="cls-4" d="M479.15,174l-4-8-4.33,2.15,3.76,7.58-5.71,2.84L465.12,171l-4.47,2.23,4,8-5.72,2.83-7.34-14.76,26-12.89,7.33,14.76Z"/><path class="cls-4" d="M504.19,253.66a8.87,8.87,0,1,1-8.87-8.87A8.87,8.87,0,0,1,504.19,253.66Z"/><circle class="cls-4" cx="120.75" cy="448.29" r="8.87"/><circle class="cls-4" cx="314.59" cy="45.22" r="8.87"/></svg>