<svg id="Capa_1" data-name="Capa 1" xmlns="http://www.w3.org/2000/svg" viewBox="0 0 540 540"><defs><style>.cls-1{fill:#d4212a;}.cls-1,.cls-2,.cls-3{stroke:#1e1f1c;stroke-miterlimit:10;}.cls-2{fill:#f7e30b;}.cls-3{fill:#fff;}</style></defs><path class="cls-1" d="M253.14,2C104.12,174.59,108,286.12,221.65,353.82c-75.14-95.83,180.4-157.92,6.29-260,96.73,93.13-20.69,123.27-39.59,197C142.91,249.89,138.63,137,257.64,17.75,523.52,182,79.48,278.67,279.75,401.51,160.85,236.64,578.86,190.51,253.14,2Z"/><path class="cls-2" d="M330.73,2c149,172.59,145.12,284.12,31.49,351.82,75.14-95.83-180.4-157.92-6.3-260-96.72,93.13,20.7,123.27,39.6,197C441,249.89,445.24,137,326.23,17.75,60.34,182,504.39,278.67,304.12,401.51,423,236.64,5,190.51,330.73,2Z"/><path class="cls-3" d="M157.46,500.67c-4.38,8.21-1.61,14.1,5.4,18.6l18,9.29c8.9,4.92,17.1,5.54,22.89-8.39L254,378.3c3-13.88-9-17.7-16.2-9.3Z"/><path class="cls-3" d="M98.09,416.94c-6.66,3.42-7.64,8.57-5.26,14.72L96.28,440c3.4,7.3,8.36,11.45,18.6,4.88l102.44-64.74c8.42-7.79,2.52-15.77-6-13.5Z"/><path class="cls-3" d="M435.85,493.77c4.38,8.22,1.6,14.1-5.4,18.6l-18,9.29c-8.91,4.92-17.1,5.55-22.89-8.39L339.27,371.4c-3-13.88,9-17.7,16.2-9.3Z"/><path class="cls-3" d="M499.42,411.24c6.65,3.43,7.63,8.57,5.25,14.73l-3.44,8.34c-3.4,7.29-8.36,11.44-18.61,4.87L380.19,374.44c-8.43-7.79-2.53-15.77,6-13.5Z"/><path class="cls-3" d="M266,525.49c-.63,8,3.73,11.61,11,12.51l34.55-.38c9,.52,15.91-2,15.64-15.08l-25-129c-2.51-11.94-19.56-10.9-22.42-1.67Z"/><polygon class="cls-3" points="71.75 213.63 75.26 235.78 95.5 245.45 75.51 255.64 72.57 277.87 56.71 262.01 34.66 266.08 44.84 246.1 34.15 226.38 56.3 229.89 71.75 213.63"/><polygon class="cls-3" points="482.1 103.86 485.61 126.01 505.85 135.68 485.87 145.86 482.93 168.1 467.06 152.24 445.01 156.31 455.19 136.33 444.5 116.61 466.65 120.12 482.1 103.86"/></svg>