<svg id="Capa_1" data-name="Capa 1" xmlns="http://www.w3.org/2000/svg" viewBox="0 0 540 540"><defs><style>.cls-1{fill:#e20e17;}.cls-2{fill:#f8e92a;}</style></defs><path class="cls-1" d="M86.67,289.26s26-1.4,28.68-11.26c0,0,.45-54.7,84.35-34.54,0,0,48,9.45,44.84,71.33,0,0,1.79,21.08-79.37,71.32,0,0-29.19,12.11-26,47.56,0,0,86.14-58.77,100.93-90.64,0,0,45.29-57-4.47-98.23,0,0-74-67.71-134.57-3.13C101,241.67,84.41,261.41,86.67,289.26Z"/><polygon class="cls-2" points="199.48 299.28 191.54 289.57 179.04 290.3 185.78 280.15 180.96 268.71 193.09 272.12 202.58 264.3 203.31 276.58 213.99 283.16 202.33 287.37 199.48 299.28"/><polygon class="cls-2" points="416.35 350.98 408.44 341.32 395.96 342.09 402.75 331.87 397.9 320.48 410 323.84 419.5 316.06 420.22 328.33 430.93 334.9 419.26 339.11 416.35 350.98"/><path class="cls-1" d="M404.44,444.92s44.49,31.81,19.09,49.94c0,0-151.59-92.59-113.48-172.46,0,0,83.53-98,152.5-10,0,0,21.77,37.22,16.33,69,0,0-7.24,9.05-8.16-7.28,0,0,10-90.76-89-70.8,0,0-114.34,18.17-44.46,90.77C337.3,394.12,367.26,425,404.44,444.92Z"/><path class="cls-2" d="M261.47,350.23s75.43-28.42,23-95.91c0,0-42.66-56-56.85-79,0,0-45.8-50,53-115.24,0,0,93.59,125.75,53.11,202.25-4.33-19.28-27.73-37.74-49.39-67.09-23.21-31.45,16.77-81.09,16.77-81.09s-81.08,47.53-18.63,109c0,0,55.9,49.42,27,82,0,0,58.72-28.87,56.88-84.83,0,0,0-82-83-175.21,0,0-134.22,72.71-74.57,153.78,0,0,54.05,64.34,65.26,81.09C274.14,280,296.46,309.55,261.47,350.23Z"/><path class="cls-1" d="M384.83,239.68S484.29,198,529.2,255.56c0,0,16.12,33.86-43.4,78.73,0,0-7.14,15.94,10.12,11.69,0,0,84.33-77.41,19.71-113.72,0,0-39.23-26-106.48-8,0,0,72.82-74.95-14.55-115.75,0,0-30.18-10.45-53.91-13.09l-.41,2.17s70.86,10.19,83.63,37.82C423.91,135.4,445.76,158.92,384.83,239.68Z"/><path class="cls-1" d="M203.57,98.25l-6.06,7.87S-2.76,141.21,74.09,206.57L105,228.36l-6.69,5.42s-70.76-41.73-39.93-79.89C58.34,153.89,82.55,117,203.57,98.25Z"/><path class="cls-1" d="M89.83,249.52l-3.64,9.66S-36.66,275.56,15.4,316.7c0,0,56.27,36.9,59.9,37.51,0,0,12.71,12.69-7.26,9.07,0,0-92.59-48.38-61.75-82.31C6.29,281,20.24,259.18,89.83,249.52Z"/><polygon class="cls-1" points="136.4 249.52 163.06 265.86 123.09 261.61 129.77 254.36 146.08 260.4 133.99 251.92 136.4 249.52"/></svg>