<svg id="Capa_1" data-name="Capa 1" xmlns="http://www.w3.org/2000/svg" viewBox="0 0 540 540"><defs><style>.cls-1{fill:#e20e17;}.cls-2{fill:#f0be20;}.cls-3{fill:#fff;}.cls-4{fill:#f8e92a;}</style></defs><circle class="cls-1" cx="270" cy="270" r="264.71"/><path class="cls-2" d="M270,0C120.88,0,0,120.88,0,270S120.88,540,270,540,540,419.12,540,270,419.12,0,270,0Zm0,526.05c-141.41,0-256-114.64-256-256S128.59,14,270,14s256,114.64,256,256.05S411.41,526.05,270,526.05Z"/><path class="cls-3" d="M124.18,265.88s21-1.13,23.21-9.11c0,0,.36-44.27,68.27-28,0,0,38.84,7.65,36.3,57.73,0,0,1.45,17.07-64.24,57.74,0,0-23.63,9.8-21.08,38.49,0,0,69.72-47.57,81.69-73.36,0,0,36.66-46.11-3.62-79.52,0,0-59.93-54.8-108.92-2.53C135.79,227.36,122.34,243.34,124.18,265.88Z"/><polygon class="cls-4" points="215.48 273.99 209.06 266.14 198.94 266.73 204.4 258.51 200.49 249.25 210.31 252.01 217.99 245.68 218.58 255.62 227.22 260.94 217.79 264.35 215.48 273.99"/><polygon class="cls-4" points="391.02 315.84 384.62 308.02 374.52 308.64 380.01 300.37 376.09 291.15 385.88 293.87 393.56 287.58 394.15 297.5 402.82 302.83 393.37 306.24 391.02 315.84"/><path class="cls-3" d="M381.38,391.88s36,25.74,15.45,40.42c0,0-122.7-74.94-91.85-139.59,0,0,67.61-79.34,123.43-8.06,0,0,17.62,30.12,13.23,55.84,0,0-5.87,7.32-6.62-5.9,0,0,8.07-73.45-72-57.3,0,0-92.55,14.7-36,73.47C327,350.76,351.28,375.76,381.38,391.88Z"/><path class="cls-4" d="M265.66,315.24s61-23,18.63-77.63c0,0-34.52-45.33-46-64,0,0-37.07-40.48,42.93-93.27,0,0,75.75,101.78,43,163.7-3.5-15.61-22.44-30.55-40-54.3-18.79-25.46,13.57-65.64,13.57-65.64s-65.63,38.47-15.08,88.26c0,0,45.25,40,21.87,66.38,0,0,47.53-23.37,46-68.66,0,0,0-66.37-67.17-141.82,0,0-108.64,58.85-60.36,124.47,0,0,43.75,52.08,52.83,65.64C275.92,258.4,294,282.31,265.66,315.24Z"/><path class="cls-3" d="M365.51,225.75S446,192,482.36,238.61c0,0,13.05,27.4-35.12,63.72,0,0-5.79,12.91,8.18,9.46,0,0,68.26-62.65,16-92,0,0-31.75-21.05-86.19-6.49,0,0,58.94-60.66-11.78-93.69,0,0-24.42-8.46-43.63-10.59l-.33,1.75s57.35,8.25,67.69,30.62C397.14,141.35,414.82,160.39,365.51,225.75Z"/><path class="cls-3" d="M218.8,111.27l-4.91,6.38S51.79,146.05,114,199l25,17.63L133.57,221s-57.28-33.77-32.33-64.66C101.24,156.31,120.84,126.47,218.8,111.27Z"/><path class="cls-3" d="M126.73,233.72l-2.94,7.82s-99.44,13.25-57.3,46.55c0,0,45.55,29.87,48.48,30.36,0,0,10.29,10.28-5.87,7.35,0,0-74.95-39.16-50-66.62C59.11,259.18,70.4,241.54,126.73,233.72Z"/><polygon class="cls-3" points="164.43 233.72 186 246.94 153.66 243.5 159.06 237.64 172.26 242.53 162.47 235.66 164.43 233.72"/></svg>