<svg xmlns="http://www.w3.org/2000/svg" width="135" height="135" version="1.0" viewBox="0 0 101.25 101.25"><defs><clipPath id="a"><path d="M1.09 44H92v56.504H1.09Zm0 0"/></clipPath><clipPath id="b"><path d="M1.09 44H65v45H1.09Zm0 0"/></clipPath><clipPath id="c"><path d="M1.09 19H49v57H1.09Zm0 0"/></clipPath><clipPath id="d"><path d="M73 0h26.36v20H73Zm0 0"/></clipPath></defs><g clip-path="url(#a)"><path fill="#1d1d1d" d="M90.563 100.504H2.438a1.31 1.31 0 0 1-1.31-1.305V87.211c0-.719.59-1.305 1.31-1.305h19.656V73.984a1.31 1.31 0 0 1 1.304-1.308h19.68V60.93c0-.72.59-1.305 1.309-1.305h17.738V45.762c0-.719.59-1.305 1.309-1.305h27.152a1.31 1.31 0 0 1 1.309 1.305v53.414c-.024.742-.59 1.328-1.332 1.328M3.743 97.89h85.534V47.07H64.738V60.93a1.31 1.31 0 0 1-1.304 1.308H45.695v11.746c0 .72-.59 1.309-1.308 1.309h-19.68v11.918c0 .719-.586 1.309-1.309 1.309H3.742Zm0 0"/></g><g clip-path="url(#b)"><path fill="#1d1d1d" d="M23.398 88.52H2.438c-.72 0-1.31-.59-1.31-1.31 0-.718.59-1.304 1.31-1.304h19.656V73.984a1.31 1.31 0 0 1 1.304-1.308h19.68V60.93c0-.72.59-1.305 1.309-1.305h17.738V45.762a1.307 1.307 0 0 1 2.613 0V60.93a1.31 1.31 0 0 1-1.304 1.308H45.695v11.746c0 .72-.59 1.309-1.308 1.309h-19.68v11.918c0 .719-.586 1.309-1.309 1.309m0 0"/></g><path fill="#1d1d1d" d="M27.586 19.023c-4.906 0-8.895-3.988-8.895-8.89s3.989-8.89 8.895-8.89c4.902 0 8.89 3.987 8.89 8.89 0 4.902-3.988 8.89-8.89 8.89m0-15.168a6.28 6.28 0 0 0-6.277 6.278 6.28 6.28 0 0 0 6.277 6.277 6.277 6.277 0 0 0 6.273-6.277c0-3.465-2.832-6.278-6.273-6.278m0 0"/><g clip-path="url(#c)"><path fill="#1d1d1d" d="M7.82 75.27q-.819.001-1.636-.262a5 5 0 0 1-2.985-2.703 5.07 5.07 0 0 1-.043-4.032L8.06 56.637l5.687-25.844-2.613 1.46-1.875 7.321c-.504 1.918-2.442 3.16-4.383 2.813-1.043-.176-1.96-.809-2.547-1.68-.59-.871-.765-1.98-.523-3.008l2.332-9.566a5.78 5.78 0 0 1 3.008-3.79l8.695-4.382a6.06 6.06 0 0 1 3.66-.566l6.887 1.066a6.05 6.05 0 0 1 3.812 2.227l5.23 6.578 6.255-4.336c1.832-1.262 4.359-.914 5.773.785.766.914 1.09 2.113.961 3.289a4.34 4.34 0 0 1-1.742 2.945l-6.473 4.684c-2.941 2.137-7.062 1.742-9.547-.938l-2.242-2.398-1.441 8.086 8.718 2.484c1.918.547 3.227 2.399 3.07 4.403l-1.023 14.273a4.51 4.51 0 0 1-4.488 4.164 4.42 4.42 0 0 1-3.227-1.375c-.847-.89-1.304-2.047-1.261-3.27l.37-10.718-8.304-1.461L12.528 72a5.02 5.02 0 0 1-4.708 3.27m7.868-48.38q.422.002.78.262c.415.305.614.828.505 1.328l-6.364 28.833c-.023.09-.043.152-.066.218L5.574 69.277a2.4 2.4 0 0 0 .024 1.942 2.37 2.37 0 0 0 1.437 1.304c1.242.415 2.594-.218 3.05-1.437l8.696-23.145a1.314 1.314 0 0 1 1.461-.828l10.48 1.856c.633.105 1.11.672 1.09 1.328l-.414 11.855c-.023.524.172 1 .524 1.371.348.372.828.567 1.351.567.98 0 1.809-.762 1.872-1.742l1.027-14.274a1.644 1.644 0 0 0-1.2-1.699l-9.85-2.812a1.31 1.31 0 0 1-.938-1.481l2.113-11.812c.09-.48.437-.895.918-1.024.476-.133.98 0 1.328.371l4.012 4.293a4.633 4.633 0 0 0 6.101.586l6.469-4.684c.395-.285.633-.675.676-1.156a1.64 1.64 0 0 0-.367-1.285c-.547-.676-1.547-.805-2.27-.305l-7.254 5.036c-.566.39-1.351.28-1.765-.262l-5.993-7.543a3.45 3.45 0 0 0-2.18-1.262l-6.886-1.07a3.4 3.4 0 0 0-2.07.328L8.32 26.672a3.13 3.13 0 0 0-1.633 2.07l-2.332 9.57a1.15 1.15 0 0 0 .172.958c.196.285.48.48.809.542a1.22 1.22 0 0 0 1.394-.89l2.047-7.867a1.24 1.24 0 0 1 .633-.809l5.645-3.18c.172-.109.39-.175.633-.175m0 0"/></g><path fill="#1d1d1d" d="M73.914 22.664a3.9 3.9 0 0 1-3.902-3.902 3.9 3.9 0 0 1 3.902-3.899 3.9 3.9 0 0 1 3.902 3.899 3.91 3.91 0 0 1-3.902 3.902m0-5.164c-.695 0-1.285.566-1.285 1.285s.566 1.285 1.285 1.285a1.286 1.286 0 0 0 0-2.57m0 0"/><path fill="#1d1d1d" d="M73.914 29.723c-6.035 0-10.937-4.903-10.937-10.938S67.879 7.844 73.914 7.844s10.941 4.883 10.941 10.918c0 6.039-4.906 10.96-10.94 10.96m0-19.285a8.324 8.324 0 0 0-8.324 8.324 8.324 8.324 0 0 0 8.324 8.324 8.324 8.324 0 0 0 8.324-8.324 8.324 8.324 0 0 0-8.324-8.324m0 0"/><path fill="#1d1d1d" d="M73.914 35.762c-9.371 0-16.996-7.63-16.996-17S64.543 1.766 73.914 1.766s17 7.625 17 16.996-7.629 17-17 17m0-31.383c-7.934 0-14.383 6.453-14.383 14.383 0 7.933 6.45 14.383 14.383 14.383 7.934 0 14.383-6.45 14.383-14.383 0-7.93-6.45-14.383-14.383-14.383m0 0"/><g clip-path="url(#d)"><path fill="#1d1d1d" d="M74.676 19.723c-.434 0-.871-.22-1.11-.61A1.32 1.32 0 0 1 74 17.305l13.969-8.633.613-3.246c.043-.219.152-.434.281-.61L92.57.457a1.29 1.29 0 0 1 1.438-.371c.523.2.847.676.847 1.223V4.25l3.227.043c.523 0 1.004.328 1.2.828s.066 1.066-.329 1.418l-4.512 4.27a1.28 1.28 0 0 1-.87.347l-3.29.09c-.37 0-.699-.133-.937-.371l-13.969 8.652a1.37 1.37 0 0 1-.7.196m16.39-13.47-.437 2.4 2.398-.067 1.809-1.7-1.285-.023c-.723 0-1.29-.586-1.29-1.304v-.676Zm0 0"/></g></svg>