<svg xmlns="http://www.w3.org/2000/svg" width="135" height="135" version="1.0" viewBox="0 0 101.25 101.25"><defs><clipPath id="a"><path d="M5.023 0h90.829v100.504H5.023Zm0 0"/></clipPath></defs><g clip-path="url(#a)"><path fill="#1d1d1d" d="M49.738 48.71c-13.46 0-24.41-10.952-24.41-24.413 0-13.457 10.95-24.41 24.41-24.41s24.414 10.953 24.414 24.41c0 13.46-10.953 24.414-24.414 24.414m0-41.116c-9.21 0-16.703 7.496-16.703 16.703 0 9.21 7.492 16.703 16.703 16.703s16.703-7.492 16.703-16.703c0-9.207-7.492-16.703-16.703-16.703M38.176 96.25a3.855 3.855 0 0 0-3.856-3.852H18.902c-3.543 0-6.425-2.886-6.425-6.425 0-12.047 9.8-21.844 21.843-21.844h10.278a3.856 3.856 0 0 0 3.855-3.856 3.855 3.855 0 0 0-3.855-3.851H34.32c-16.293 0-29.55 13.254-29.55 29.55 0 7.798 6.335 14.133 14.132 14.133H34.32a3.856 3.856 0 0 0 3.856-3.855M92.44 60.813l-7.265-7.266c-3.39-3.387-9.317-3.399-12.719 0L48.52 77.48a8.94 8.94 0 0 0-2.637 6.36v7.265c0 4.961 4.035 8.997 8.996 8.997h7.266a8.93 8.93 0 0 0 6.359-2.637L92.437 73.53a8.93 8.93 0 0 0 2.637-6.36 8.95 8.95 0 0 0-2.633-6.359M63.055 92.016c-.242.242-.57.375-.91.375h-7.266c-.711 0-1.285-.575-1.285-1.286V83.84c0-.34.133-.668.375-.91l14.199-14.2 9.086 9.086Zm23.933-23.934-4.285 4.285-9.086-9.086 4.285-4.285a1.295 1.295 0 0 1 1.82 0l7.266 7.266c.332.324.375.715.375.91 0 .2-.043.582-.375.91m0 0"/></g></svg>