<svg xmlns="http://www.w3.org/2000/svg" width="135" height="135" version="1.0" viewBox="0 0 101.25 101.25"><defs><clipPath id="a"><path d="M5.34 0H84v100.504H5.34Zm0 0"/></clipPath><clipPath id="b"><path d="M5.34 0H29v23H5.34Zm0 0"/></clipPath><clipPath id="c"><path d="M63 69h32.422v25H63Zm0 0"/></clipPath><clipPath id="d"><path d="M39 92h24v8.504H39Zm0 0"/></clipPath></defs><g clip-path="url(#a)"><path fill="#1d1d1d" fill-rule="evenodd" d="M82.7 100.504H6.522c-.648 0-1.175-.527-1.175-1.117V21.68c0-.649.527-1.18 1.175-1.18.649 0 1.18.531 1.18 1.18v76.527H81.52V88.016c0-.649.53-1.18 1.18-1.18.648 0 1.179.531 1.179 1.18v11.312a1.18 1.18 0 0 1-1.18 1.176m0-19.086c-.65 0-1.18-.531-1.18-1.18V2.355H27.617a1.18 1.18 0 0 1-1.18-1.175c0-.649.532-1.18 1.18-1.18H82.7c.649 0 1.18.531 1.18 1.18v79.058c0 .649-.531 1.18-1.18 1.18m0 0"/></g><g clip-path="url(#b)"><path fill="#1d1d1d" fill-rule="evenodd" d="M27.617 22.86H6.523c-.468 0-.882-.297-1.058-.766-.176-.414-.059-.946.234-1.297L26.79.352c.356-.352.828-.41 1.297-.235.414.176.707.59.707 1.063v20.5c0 .648-.531 1.18-1.176 1.18M9.41 20.5h17.028V3.945Zm0 0"/></g><path fill="#1d1d1d" fill-rule="evenodd" d="M37.043 89.785H13.121a1.183 1.183 0 0 1-1.176-1.18c0-.648.532-1.18 1.176-1.18h23.922a1.18 1.18 0 0 1 0 2.36m-1.653-8.133H13.122a1.18 1.18 0 0 1-1.176-1.175c0-.649.532-1.18 1.176-1.18h22.27c.648 0 1.18.531 1.18 1.18a1.18 1.18 0 0 1-1.18 1.175m4.772-8.187H13.121a1.183 1.183 0 0 1-1.176-1.18 1.18 1.18 0 0 1 1.176-1.176h27.043c.648 0 1.121.528 1.121 1.176 0 .649-.472 1.18-1.12 1.18m4.475-8.188H13.122a1.183 1.183 0 0 1-1.176-1.18c0-.648.532-1.12 1.176-1.12h31.52c.648 0 1.18.472 1.18 1.12 0 .65-.532 1.18-1.18 1.18m9.898-7.187H13.12a1.183 1.183 0 0 1-1.176-1.18c0-.648.532-1.18 1.176-1.18h41.42c.648 0 1.18.532 1.18 1.18 0 .649-.532 1.18-1.18 1.18m-.884-8.192H13.121a1.18 1.18 0 0 1-1.176-1.175c0-.649.532-1.18 1.176-1.18h40.535a1.18 1.18 0 0 1 1.176 1.18 1.18 1.18 0 0 1-1.176 1.175m10.957-8.188H13.121c-.644 0-1.176-.472-1.176-1.12a1.18 1.18 0 0 1 1.176-1.176h51.492c.649 0 1.18.527 1.18 1.176s-.531 1.12-1.18 1.12m11.489-8.128h-62.98a1.183 1.183 0 0 1-1.177-1.18c0-.648.532-1.18 1.176-1.18h62.98a1.18 1.18 0 0 1 0 2.36M74.57 19.027H35.805a1.18 1.18 0 0 1-1.18-1.175V9.426c0-.649.531-1.18 1.18-1.18H74.57a1.18 1.18 0 0 1 1.176 1.18v8.426c0 .648-.527 1.175-1.176 1.175m-37.586-2.355h36.407v-6.067H36.984Zm23.621 66.512c-.234 0-.41-.059-.648-.176-.527-.352-.645-1.117-.352-1.649L70.68 64.215c.355-.531 1.12-.707 1.652-.352a1.21 1.21 0 0 1 .352 1.649L61.609 82.656c-.238.352-.59.528-1.004.528m-10.308-6.715a1.2 1.2 0 0 1-.649-.176c-.53-.356-.707-1.063-.351-1.59L60.37 57.56c.352-.532 1.059-.707 1.59-.356.59.356.707 1.063.355 1.594l-11.02 17.14a1.22 1.22 0 0 1-1 .532m0 0"/><path fill="#1d1d1d" fill-rule="evenodd" d="M73.566 67.277c-.234 0-.41-.117-.648-.234L58.84 57.969a1.14 1.14 0 0 1-.531-.766q-.088-.438.175-.883l3.536-5.476c.18-.297.414-.473.765-.532q.444-.088.887.176l14.078 9.133c.297.117.473.41.531.707.059.293 0 .649-.176.883l-3.535 5.48c-.238.352-.59.586-1.004.586m-12.488-10.66 12.137 7.832 2.297-3.535-12.137-7.832Zm-2.121 33.285c-.234 0-.473-.058-.648-.18L44.23 80.595a1.15 1.15 0 0 1-.53-.766q-.089-.445.175-.883l3.535-5.48a1.21 1.21 0 0 1 1.649-.356l14.082 9.133c.53.356.707 1.063.351 1.59l-3.535 5.54a1.3 1.3 0 0 1-.766.472c-.058.058-.175.058-.234.058M46.469 79.238l12.136 7.836 2.297-3.535-12.136-7.836Zm0 0"/><g clip-path="url(#c)"><path fill="#1d1d1d" fill-rule="evenodd" d="M90.71 93.73a4.57 4.57 0 0 1-2.413-.707L63.73 77.176c-.53-.352-.707-1.121-.355-1.649.355-.53 1.121-.707 1.648-.355l24.57 15.848c.942.648 2.239.355 2.887-.59.293-.47.41-1.059.293-1.59s-.472-1-.941-1.297L67.266 71.637c-.532-.352-.649-1.059-.356-1.59.356-.531 1.121-.707 1.649-.352l24.566 15.848c1.004.648 1.652 1.648 1.945 2.828.235 1.117 0 2.356-.648 3.297-.824 1.355-2.238 2.062-3.711 2.062m0 0"/></g><g clip-path="url(#d)"><path fill="#1d1d1d" fill-rule="evenodd" d="M60.96 100.504c-.648 0-1.179-.527-1.179-1.117v-3.77c0-.297-.234-.59-.531-.59H41.988c-.293 0-.527.293-.527.59v3.77c0 .59-.531 1.117-1.18 1.117s-1.18-.527-1.18-1.117v-3.77c0-1.594 1.297-2.945 2.887-2.945H59.25c1.594 0 2.887 1.351 2.887 2.945v3.77c0 .59-.528 1.117-1.176 1.117m0 0"/></g></svg>