<svg xmlns="http://www.w3.org/2000/svg" width="135" height="135" version="1.0" viewBox="0 0 101.25 101.25"><defs><clipPath id="a"><path d="M0 .629h100.504v99.016H0Zm0 0"/></clipPath><clipPath id="c"><path d="M29 .629h71.504V88H29Zm0 0"/></clipPath><clipPath id="d"><path d="M50 .629h50.504v99.016H50Zm0 0"/></clipPath><clipPath id="e"><path d="M0 25h48v37H0Zm0 0"/></clipPath><clipPath id="b"><path d="M0 0h101v100H0z"/></clipPath></defs><g clip-path="url(#a)"><g clip-path="url(#b)"><g clip-path="url(#c)"><path fill="#1d1d1d" fill-rule="evenodd" d="M30.793 37.703c.605 0 1.098-.488 1.098-1.098l-.004-30.378a3.3 3.3 0 0 1 3.293-3.293h64.203a1.095 1.095 0 1 0 0-2.192H35.18a5.49 5.49 0 0 0-5.485 5.485v30.378c0 .61.492 1.098 1.098 1.098m4.387 49.309h16.554c.61 0 1.098-.492 1.098-1.098 0-.605-.488-1.098-1.094-1.098H35.18a3.294 3.294 0 0 1-3.29-3.289l-.003-30.379a1.095 1.095 0 1 0-2.192 0v30.38a5.49 5.49 0 0 0 5.485 5.484m0 0"/></g><g clip-path="url(#d)"><path fill="#1d1d1d" fill-rule="evenodd" d="M98.285 3.309v79.746c0 1.242-.77 2.273-1.96 2.629L57.065 97.422c-1.035.308-2.039.129-2.91-.516-.863-.648-1.32-1.558-1.32-2.64l-.004-74.918c0-1.489.922-2.727 2.352-3.153ZM56.082 99.766a5.7 5.7 0 0 0 1.613-.243l39.258-11.738a4.91 4.91 0 0 0 3.527-4.73V1.84A1.1 1.1 0 0 0 99.066.785L54.555 14.094a5.45 5.45 0 0 0-3.914 5.254v74.918c0 1.777.78 3.34 2.207 4.402.972.723 2.086 1.098 3.234 1.098m0 0"/></g><g clip-path="url(#e)"><path fill="#1d1d1d" fill-rule="evenodd" d="M43.8 37.703c.606 0 1.098.492 1.098 1.098v10.152c0 .602-.492 1.098-1.097 1.098H24.254a3.295 3.295 0 0 0-3.29 3.293v5.261c0 .45-.234.813-.64 1-.414.188-.84.13-1.172-.164L2.543 44.711a1.04 1.04 0 0 1-.387-.832c0-.34.121-.606.387-.836l16.61-14.73c.331-.293.757-.352 1.171-.165.406.184.64.551.64 1v5.262a3.296 3.296 0 0 0 3.294 3.293ZM19.849 61.906a3.3 3.3 0 0 0 1.382-.304 3.26 3.26 0 0 0 1.93-2.997v-5.261c0-.61.492-1.098 1.098-1.098H43.8a3.296 3.296 0 0 0 3.293-3.293V38.801a3.296 3.296 0 0 0-3.293-3.293H24.254a1.095 1.095 0 0 1-1.094-1.098v-5.262a3.26 3.26 0 0 0-1.93-2.996 3.23 3.23 0 0 0-3.53.516L1.085 41.398a3.24 3.24 0 0 0-1.121 2.48c-.004.966.387 1.825 1.12 2.477L17.7 61.085c.61.54 1.371.821 2.149.821m0 0"/></g><path fill="#1d1d1d" fill-rule="evenodd" d="M59.625 61.473c.605 0 1.098-.493 1.098-1.098V48.852a1.099 1.099 0 0 0-2.196 0v11.523c0 .605.493 1.098 1.098 1.098m0 0"/></g></g></svg>