<svg xmlns="http://www.w3.org/2000/svg" width="135" height="135" version="1.0" viewBox="0 0 101.25 101.25"><defs><clipPath id="a"><path d="M0 1.695h100.504V98.48H0Zm0 0"/></clipPath></defs><g clip-path="url(#a)"><path fill="#1d1d1d" d="M95.457 95.457H5.047a1.68 1.68 0 0 1-1.676-1.676V18.438h93.762V93.78c0 .922-.75 1.676-1.676 1.676M5.047 5.043h90.41c.926 0 1.676.754 1.676 1.676v8.37H3.37V6.72a1.68 1.68 0 0 1 1.676-1.676m90.41-3.348H5.047A5.03 5.03 0 0 0 .023 6.72V93.78a5.03 5.03 0 0 0 5.024 5.024h90.41a5.03 5.03 0 0 0 5.023-5.024V6.72a5.03 5.03 0 0 0-5.023-5.024"/></g><path fill="#1d1d1d" d="M21.79 11.742a1.675 1.675 0 1 0 .002-3.346 1.675 1.675 0 0 0-.003 3.346M15.094 11.742a1.675 1.675 0 1 0-.006-3.349 1.675 1.675 0 0 0 .006 3.35M8.395 11.742a1.675 1.675 0 1 0 .002-3.346 1.675 1.675 0 0 0-.002 3.346M11.742 61.969h13.395c.925 0 1.675-.746 1.675-1.672s-.75-1.676-1.675-1.676H11.742a1.675 1.675 0 0 0 0 3.348M30.16 60.297c0 .926.75 1.672 1.676 1.672h26.789a1.675 1.675 0 0 0 0-3.348h-26.79c-.925 0-1.675.75-1.675 1.676M11.742 68.668h36.836a1.675 1.675 0 1 0 0-3.348H11.742a1.674 1.674 0 0 0 0 3.348M11.742 75.363H21.79a1.675 1.675 0 1 0 0-3.347H11.742a1.675 1.675 0 0 0 0 3.347M11.742 82.063h26.79a1.675 1.675 0 1 0 0-3.348h-26.79a1.674 1.674 0 0 0 0 3.347M88.762 85.41h-77.02a1.675 1.675 0 0 0 0 3.348h77.02a1.675 1.675 0 1 0 0-3.348M88.762 58.621H65.32a1.675 1.675 0 0 0 0 3.348h23.442c.925 0 1.675-.746 1.675-1.672s-.75-1.676-1.675-1.676M88.762 65.32H55.277a1.675 1.675 0 1 0 0 3.348h33.485a1.675 1.675 0 1 0 0-3.348M26.813 73.691c0 .922.75 1.672 1.675 1.672h46.88a1.675 1.675 0 1 0 0-3.347h-46.88c-.925 0-1.675.75-1.675 1.675M88.762 72.016h-6.7a1.675 1.675 0 0 0 0 3.347h6.7a1.675 1.675 0 1 0 0-3.347M88.762 78.715H45.23a1.675 1.675 0 1 0 0 3.347h43.532a1.675 1.675 0 1 0 0-3.348M13.418 28.484h36.836v23.442h-.98l-9.56-9.555a1.67 1.67 0 0 0-2.366 0l-4.852 4.852-6.02-8.024a1.67 1.67 0 0 0-1.34-.668 1.66 1.66 0 0 0-1.335.668l-9.547 12.727h-.836Zm18.418 23.442H18.44l6.696-8.93Zm2.687-1.996 4.008-4.008 6.004 6.004H36.02Zm-22.78 5.343h40.183c.926 0 1.676-.75 1.676-1.675v-26.79c0-.921-.75-1.671-1.676-1.671H11.742c-.922 0-1.672.75-1.672 1.672v26.789c0 .925.75 1.675 1.672 1.675"/><path fill="#1d1d1d" d="M33.512 38.531a1.675 1.675 0 1 0-.006-3.349 1.675 1.675 0 0 0 .006 3.35M58.625 48.574h20.09c.926 0 1.676-.746 1.676-1.672s-.75-1.675-1.676-1.675h-20.09c-.926 0-1.676.75-1.676 1.675 0 .926.75 1.672 1.676 1.672M88.762 45.227h-3.348c-.926 0-1.676.75-1.676 1.675 0 .926.75 1.672 1.676 1.672h3.348c.925 0 1.675-.746 1.675-1.672s-.75-1.675-1.675-1.675M88.762 51.926H58.625a1.675 1.675 0 1 0 0 3.347h30.137a1.675 1.675 0 1 0 0-3.348M58.625 35.184h6.695a1.675 1.675 0 1 0 0-3.352h-6.695a1.675 1.675 0 1 0 0 3.352M58.625 28.484h16.742a1.675 1.675 0 1 0 0-3.348H58.625a1.675 1.675 0 1 0 0 3.348M88.762 38.531H58.625a1.675 1.675 0 1 0 0 3.348h30.137a1.675 1.675 0 1 0 0-3.348M88.762 31.832H72.02a1.675 1.675 0 1 0 0 3.352h16.742a1.675 1.675 0 1 0 0-3.352"/></svg>