<svg xmlns="http://www.w3.org/2000/svg" width="135" height="135" version="1.0" viewBox="0 0 101.25 101.25"><defs><clipPath id="a"><path d="M10 8.23h30V38H10Zm0 0"/></clipPath><clipPath id="b"><path d="M60 8.23h30V38H60Zm0 0"/></clipPath><clipPath id="c"><path d="M61 38h39.504v39H61Zm0 0"/></clipPath><clipPath id="d"><path d="M25 53h52v39.355H25Zm0 0"/></clipPath></defs><g clip-path="url(#a)"><path fill="#1d1d1d" d="M25.336 37.277a14.2 14.2 0 0 0 4.578-.738 14.3 14.3 0 0 0 4.113-2.148 17 17 0 0 1 2.04-5.239 17 17 0 0 1 3.632-4.293 14.5 14.5 0 0 0-.953-7.652 14.369 14.369 0 0 0-3.148-4.707 14 14 0 0 0-2.2-1.805 14.5 14.5 0 0 0-2.507-1.343 14.7 14.7 0 0 0-2.723-.825 14.4 14.4 0 0 0-2.832-.277q-1.428-.002-2.832.277-1.4.28-2.723.825a14.6 14.6 0 0 0-4.707 3.148 14.604 14.604 0 0 0-3.148 4.707 14.5 14.5 0 0 0-1.102 5.555c0 .953.09 1.898.278 2.832a14.4 14.4 0 0 0 2.168 5.234 14.5 14.5 0 0 0 9.234 6.168q1.404.281 2.832.281m0 0"/></g><path fill="#1d1d1d" d="M40.563 51.586a17.064 17.064 0 0 1-4.867-5.64 16.6 16.6 0 0 1-1.4-3.477 17 17 0 0 1-.608-3.7 19 19 0 0 0-2.133-.117H19.293q-.949 0-1.89.094a18 18 0 0 0-1.876.277 20 20 0 0 0-1.836.457 19.54 19.54 0 0 0-5.117 2.422 19.4 19.4 0 0 0-4.195 3.805c-.402.488-.777.992-1.129 1.52a19.4 19.4 0 0 0-2.418 5.117 19.029 19.029 0 0 0-.738 3.71A19 19 0 0 0 0 57.946v14.551s11.305 4.02 22.848 4.574v-4.015q0-1.887.328-3.75c.219-1.243.539-2.453.965-3.64a22 22 0 0 1 6.351-9.208 21.95 21.95 0 0 1 10.07-4.871m0 0"/><g clip-path="url(#b)"><path fill="#1d1d1d" d="M67.652 35.297a14.5 14.5 0 0 0 4.422 1.687q.778.159 1.567.235.79.07 1.582.058a15 15 0 0 0 1.582-.113 15 15 0 0 0 1.558-.285 14.7 14.7 0 0 0 2.977-1.07q.714-.347 1.383-.77.673-.427 1.293-.918t1.183-1.055q.56-.556 1.063-1.171a14.53 14.53 0 0 0 1.707-2.664 14.452 14.452 0 0 0 1.516-6.102q.023-.796-.047-1.586a14.706 14.706 0 0 0-.605-3.102q-.24-.76-.556-1.484a14.5 14.5 0 0 0-9.21-8.117 13 13 0 0 0-1.544-.363 15 15 0 0 0-1.574-.196 15 15 0 0 0-1.582-.02q-.792.036-1.578.153a14.39 14.39 0 0 0-3.055.816 14.506 14.506 0 0 0-8.926 10.387 14.2 14.2 0 0 0-.304 4.23 17.2 17.2 0 0 1 2.629 2.255q1.201 1.259 2.12 2.734a16.8 16.8 0 0 1 1.528 3.11q.609 1.628.871 3.35m0 0"/></g><g clip-path="url(#c)"><path fill="#1d1d1d" d="M81.191 38.652H68.934q-.552-.002-1.102.032A17.05 17.05 0 0 1 61 51.559q1.868.351 3.645 1.02a21.9 21.9 0 0 1 11.316 9.624 22 22 0 0 1 1.59 3.434 22 22 0 0 1 1.304 7.426V77c11.106-.758 21.641-4.5 21.641-4.5V57.95q0-.95-.09-1.891a20 20 0 0 0-.277-1.875 18.95 18.95 0 0 0-1.102-3.621 20 20 0 0 0-.808-1.715 20 20 0 0 0-.973-1.625 20 20 0 0 0-1.129-1.52 19.7 19.7 0 0 0-2.676-2.676 19.4 19.4 0 0 0-3.148-2.101 19.6 19.6 0 0 0-3.496-1.446 20 20 0 0 0-1.84-.46 20 20 0 0 0-1.871-.278 20 20 0 0 0-1.895-.09m0 0"/></g><path fill="#1d1d1d" d="M36.309 39.242q.123 1.295.468 2.543.345 1.25.914 2.418c.375.777.817 1.52 1.325 2.219q.766 1.05 1.703 1.945a14.4 14.4 0 0 0 2.02 1.613q1.077.72 2.273 1.23c.793.345 1.613.61 2.457.806q1.262.294 2.558.359.213.011.426.016h.305q1.36.001 2.691-.25 1.335-.253 2.602-.746a14.6 14.6 0 0 0 4.566-2.86 14.7 14.7 0 0 0 1.805-2.015 14.4 14.4 0 0 0 2.348-4.852c.234-.871.386-1.762.457-2.664a14.426 14.426 0 0 0-3.758-10.922 15 15 0 0 0-1.586-1.492 14 14 0 0 0-1.79-1.235 14.4 14.4 0 0 0-4.03-1.609 14.449 14.449 0 0 0-8.559.602 15 15 0 0 0-1.965.937q-.944.544-1.8 1.223-.855.68-1.598 1.476-.745.797-1.36 1.7-.615.897-1.09 1.882a14.637 14.637 0 0 0-1.285 4.145 15 15 0 0 0-.097 3.531m0 0"/><g clip-path="url(#d)"><path fill="#1d1d1d" d="M57.055 53.77H44.469a20 20 0 0 0-1.875.113q-.933.104-1.856.297a19.4 19.4 0 0 0-3.578 1.129 19 19 0 0 0-3.293 1.796q-.773.529-1.5 1.13a19.3 19.3 0 0 0-2.633 2.671c-.394.485-.765.992-1.113 1.512a19.8 19.8 0 0 0-1.754 3.316 21 21 0 0 0-.629 1.77 20 20 0 0 0-.449 1.824 18 18 0 0 0-.273 1.86 19 19 0 0 0-.094 1.874v14.551s13.055 4.64 25.422 4.64c12.37 0 25.426-4.636 25.426-4.636v-14.55c0-.633-.032-1.258-.094-1.887a19 19 0 0 0-.278-1.868 19 19 0 0 0-.457-1.835q-.27-.904-.632-1.778a19.4 19.4 0 0 0-1.774-3.328 20 20 0 0 0-1.12-1.52 21 21 0 0 0-1.267-1.402c-.445-.449-.91-.87-1.398-1.273a20 20 0 0 0-1.516-1.13 19 19 0 0 0-1.617-.972 19.309 19.309 0 0 0-5.309-1.922 19.073 19.073 0 0 0-3.754-.383m0 0"/></g></svg>