<svg xmlns="http://www.w3.org/2000/svg" width="135" height="135" version="1.0" viewBox="0 0 101.25 101.25"><defs><clipPath id="a"><path d="M0 0h100.504v100.504H0Zm0 0"/></clipPath></defs><path fill="#1d1d1d" d="M20.25 33.203H9.484c-.925 0-1.675.75-1.675 1.676v10.766c0 .925.75 1.675 1.675 1.675H20.25c.926 0 1.676-.75 1.676-1.675V34.879a1.675 1.675 0 0 0-1.676-1.676m-1.676 10.77H11.16v-7.418h7.418v7.418ZM37.125 33.203H26.352c-.922 0-1.676.75-1.676 1.676v10.766c0 .925.754 1.675 1.676 1.675h10.77c.921 0 1.675-.75 1.675-1.675V34.879c0-.93-.75-1.676-1.672-1.676m-1.676 10.77h-7.422v-7.418h7.418v7.418ZM53.992 33.203h-10.77c-.921 0-1.671.75-1.671 1.676v10.766c0 .925.75 1.675 1.672 1.675h10.77c.925 0 1.675-.75 1.675-1.675V34.879c0-.93-.75-1.676-1.676-1.676m-1.676 10.77h-7.418v-7.418h7.418ZM60.094 47.32h10.77c.925 0 1.675-.75 1.675-1.675V34.879c0-.926-.75-1.676-1.676-1.676h-10.77c-.921 0-1.671.75-1.671 1.676v10.766c0 .925.746 1.675 1.672 1.675m1.676-10.765h7.417v7.418H61.77ZM20.25 51.152H9.484c-.925 0-1.675.75-1.675 1.672v10.77c0 .926.75 1.676 1.675 1.676H20.25c.926 0 1.676-.75 1.676-1.676v-10.77a1.677 1.677 0 0 0-1.676-1.672m-1.676 10.766H11.16V54.5h7.418v7.418ZM37.125 51.152H26.352c-.922 0-1.676.75-1.676 1.672v10.77c0 .926.754 1.676 1.676 1.676h10.77c.921 0 1.675-.75 1.675-1.676v-10.77c0-.922-.75-1.672-1.672-1.672m-1.676 10.766h-7.422V54.5h7.418v7.418ZM53.992 51.152h-10.77c-.921 0-1.671.75-1.671 1.672v10.77c0 .926.75 1.676 1.672 1.676h10.77c.925 0 1.675-.75 1.675-1.676v-10.77c0-.922-.75-1.672-1.676-1.672m-1.676 10.766h-7.418V54.5h7.418Zm0 0"/><g clip-path="url(#a)"><path fill="#1d1d1d" d="M80.336 57.172V27.734c0-.011.008-.023.008-.035s-.008-.02-.008-.035V15.11a6.407 6.407 0 0 0-6.398-6.398h-3.614V5.625A5.63 5.63 0 0 0 64.7 0a5.63 5.63 0 0 0-5.625 5.625v3.086H21.266V5.625A5.63 5.63 0 0 0 15.64 0a5.63 5.63 0 0 0-5.621 5.625v3.086H6.398A6.407 6.407 0 0 0 0 15.109v69.684a6.407 6.407 0 0 0 6.398 6.398H61.2c4.059 5.75 10.574 9.18 17.664 9.18 11.934 0 21.64-9.707 21.64-21.64 0-11.372-8.82-20.704-20.167-21.56m-13.043 3.277c-.703.446-1.395.93-2.063 1.461h-3.453v-7.402h7.403v4.863c-.496.254-.985.547-1.47.84-.136.082-.28.152-.417.238M62.426 5.625a2.276 2.276 0 0 1 2.273-2.273 2.276 2.276 0 0 1 2.274 2.273v3.086h-4.547Zm0 6.438h4.547v2.714a2.276 2.276 0 0 1-2.274 2.274 2.276 2.276 0 0 1-2.273-2.274ZM13.37 5.625a2.275 2.275 0 0 1 2.27-2.273 2.28 2.28 0 0 1 2.277 2.273v3.086h-4.547Zm0 6.438h4.547v2.714a2.28 2.28 0 0 1-2.277 2.274c-1.25 0-2.27-1.02-2.27-2.274Zm-6.973 0h3.622v2.714a5.63 5.63 0 0 0 5.62 5.625 5.63 5.63 0 0 0 5.626-5.625v-2.714h37.812v2.714a5.63 5.63 0 0 0 5.625 5.625 5.63 5.63 0 0 0 5.625-5.625v-2.714h3.613a3.05 3.05 0 0 1 3.051 3.046v10.914H3.352V15.11a3.05 3.05 0 0 1 3.046-3.046m0 75.78a3.05 3.05 0 0 1-3.046-3.05V29.375h73.636v27.793c-.062.008-.12.023-.183.031-1.02.094-2.028.27-3.024.512q-.304.076-.601.16c-.215.059-.434.106-.649.176v-5.215c0-.926-.75-1.676-1.676-1.676H60.102c-.926 0-1.676.75-1.676 1.676v10.754c0 .926.75 1.676 1.676 1.676h1.828c-3.035 3.8-4.742 8.527-4.742 13.468 0 .938.082 1.864.199 2.786.039.277.093.55.14.828.114.664.254 1.32.43 1.969.078.28.148.562.234.84q.358 1.143.844 2.245c.05.118.09.243.14.36.016.027.024.055.036.082H6.398Zm72.465 9.177c-6.265 0-12.027-3.141-15.41-8.41a18.2 18.2 0 0 1-2.914-9.88c0-5.335 2.328-10.39 6.371-13.863a19 19 0 0 1 4.613-2.894l.004-.004c2.266-.989 4.672-1.504 7.336-1.535 10.086 0 18.293 8.203 18.293 18.293 0 10.085-8.207 18.293-18.293 18.293m0 0"/></g><path fill="#1d1d1d" d="M20.25 69.098H9.484c-.925 0-1.675.75-1.675 1.675V81.54c0 .926.75 1.676 1.675 1.676H20.25c.926 0 1.676-.75 1.676-1.676V70.773a1.68 1.68 0 0 0-1.676-1.675m-1.676 10.765H11.16V72.45h7.418v7.414ZM37.125 69.098H26.352c-.922 0-1.676.75-1.676 1.675V81.54c0 .926.754 1.676 1.676 1.676h10.77c.921 0 1.675-.75 1.675-1.676V70.773c0-.925-.75-1.675-1.672-1.675m-1.676 10.765h-7.422V72.45h7.418v7.414ZM53.992 69.098h-10.77c-.921 0-1.671.75-1.671 1.675V81.54c0 .926.75 1.676 1.672 1.676h10.77c.925 0 1.675-.75 1.675-1.676V70.773c0-.925-.75-1.675-1.676-1.675m-1.676 10.765h-7.418V72.45h7.418ZM78.664 67.152c.922 0 1.672-.75 1.672-1.675v-1.891a1.675 1.675 0 1 0-3.348 0v1.89c0 .926.75 1.676 1.676 1.676M78.664 90.715c-.926 0-1.676.75-1.676 1.676v1.894c0 .922.75 1.676 1.676 1.676.922 0 1.672-.754 1.672-1.676v-1.894c0-.926-.75-1.676-1.672-1.676M94.012 77.262h-1.89a1.675 1.675 0 1 0 0 3.351h1.89a1.675 1.675 0 1 0 0-3.351M65.203 77.262h-1.89a1.675 1.675 0 1 0 0 3.351h1.89a1.675 1.675 0 1 0 0-3.351M80.336 78.027v-6.804a1.675 1.675 0 1 0-3.348 0v7.507c0 .45.18.875.5 1.192l4.672 4.605a1.668 1.668 0 0 0 2.367-.016 1.67 1.67 0 0 0-.015-2.366Zm0 0"/></svg>