<svg xmlns="http://www.w3.org/2000/svg" xmlns:xlink="http://www.w3.org/1999/xlink" width="135" zoomAndPan="magnify" viewBox="0 0 101.25 101.249999" height="135" preserveAspectRatio="xMidYMid meet" version="1.0"><defs><clipPath id="ab8b6b7243"><path d="M 13.421875 0 L 87.125 0 L 87.125 100.503906 L 13.421875 100.503906 Z M 13.421875 0 " clip-rule="nonzero"/></clipPath></defs><g clip-path="url(#ab8b6b7243)"><path fill="#1d1d1d" d="M 15.96875 86.742188 C 16.113281 87.71875 16.46875 88.671875 17.039062 89.554688 C 18.632812 92.015625 21.535156 93.464844 24.777344 93.441406 C 26.6875 93.425781 30.015625 93.421875 31.96875 93.425781 C 31.976562 95.304688 31.929688 97.1875 31.820312 99.058594 C 31.800781 99.425781 31.980469 99.773438 32.292969 99.96875 C 32.601562 100.160156 32.996094 100.167969 33.3125 99.988281 C 35.898438 98.527344 37.644531 96.675781 38.621094 95.441406 C 39.460938 96.859375 40.753906 99.019531 41.464844 100.054688 C 41.644531 100.3125 41.9375 100.472656 42.25 100.488281 C 42.265625 100.488281 42.277344 100.488281 42.289062 100.488281 C 42.589844 100.488281 42.875 100.351562 43.066406 100.117188 C 46.496094 95.890625 46.097656 88.988281 44.640625 84 C 55.832031 83.574219 67.078125 83.339844 78.246094 83.3125 C 78.796875 83.3125 79.246094 82.863281 79.246094 82.308594 C 79.242188 81.757812 78.796875 81.3125 78.242188 81.3125 C 61.109375 81.351562 43.792969 81.867188 26.765625 82.84375 C 26.214844 82.878906 25.792969 83.347656 25.824219 83.902344 C 25.851562 84.433594 26.296875 84.84375 26.820312 84.84375 C 26.84375 84.84375 26.859375 84.84375 26.878906 84.84375 C 28.410156 84.753906 29.941406 84.675781 31.476562 84.59375 C 31.714844 86.859375 31.867188 89.140625 31.929688 91.421875 C 29.972656 91.421875 26.660156 91.425781 24.757812 91.441406 C 24.734375 91.441406 24.710938 91.441406 24.691406 91.441406 C 22.191406 91.441406 19.90625 90.304688 18.714844 88.46875 C 17.761719 86.992188 17.632812 85.308594 18.355469 83.726562 C 20.515625 79.007812 25.378906 78.804688 54.339844 78.390625 C 61.847656 78.285156 71.113281 78.152344 82.292969 77.894531 C 81.121094 81.863281 81.851562 86.355469 84.316406 90.398438 C 72.273438 91.40625 60.125 91.53125 49.746094 91.515625 C 49.191406 91.515625 48.746094 91.960938 48.746094 92.511719 C 48.746094 93.066406 49.191406 93.515625 49.742188 93.515625 C 50.308594 93.515625 50.878906 93.519531 51.453125 93.519531 C 61.984375 93.519531 74.167969 93.339844 86.183594 92.246094 C 86.542969 92.214844 86.855469 91.992188 87.003906 91.660156 C 87.152344 91.328125 87.113281 90.949219 86.898438 90.65625 C 82.34375 84.460938 83.804688 79.21875 84.648438 77.253906 C 84.722656 77.078125 84.742188 76.890625 84.714844 76.707031 C 84.796875 76.554688 84.847656 76.378906 84.839844 76.195312 C 84.710938 72.382812 84.511719 68.097656 84.296875 63.566406 L 83.296875 63.597656 L 82.296875 63.660156 C 82.503906 68.039062 82.695312 72.175781 82.824219 75.878906 C 71.394531 76.144531 61.941406 76.28125 54.3125 76.386719 C 41.71875 76.570312 33.492188 76.683594 28.035156 77.21875 C 27.066406 55.886719 26.207031 31.277344 27.871094 7.6875 C 27.910156 7.136719 27.496094 6.65625 26.941406 6.617188 C 26.390625 6.582031 25.910156 6.992188 25.871094 7.546875 C 24.195312 31.292969 25.0625 56.03125 26.039062 77.453125 C 25.980469 77.460938 25.917969 77.46875 25.859375 77.476562 C 21.367188 78.109375 18.925781 79.195312 17.378906 81.398438 C 15.367188 56.121094 14.898438 32.523438 16.046875 12.894531 C 16.332031 7.992188 20.222656 4.074219 25.296875 3.585938 C 47.390625 1.46875 65.410156 1.523438 81.898438 3.765625 C 80.597656 24.722656 81.535156 48.75 82.003906 58.207031 C 82.019531 58.476562 82.027344 58.671875 82.03125 58.785156 C 82.054688 59.335938 82.523438 59.761719 83.078125 59.738281 C 83.628906 59.714844 84.054688 59.246094 84.03125 58.695312 C 84.027344 58.578125 84.019531 58.382812 84.003906 58.105469 C 83.527344 48.546875 82.574219 24.035156 83.957031 2.96875 C 83.988281 2.445312 83.617188 1.984375 83.097656 1.910156 C 66.195312 -0.480469 47.769531 -0.578125 25.105469 1.59375 C 22.199219 1.875 19.484375 3.152344 17.460938 5.195312 C 15.425781 7.246094 14.210938 9.941406 14.046875 12.78125 C 12.824219 33.703125 13.421875 59.105469 15.777344 86.238281 C 15.796875 86.429688 15.867188 86.601562 15.96875 86.742188 Z M 42.582031 84.082031 C 43.957031 88.445312 44.308594 94.015625 42.3125 97.664062 C 41.148438 95.796875 39.589844 93.125 39.570312 93.09375 C 39.390625 92.785156 39.0625 92.59375 38.707031 92.59375 C 38.351562 92.59375 38.019531 92.785156 37.839844 93.09375 C 37.828125 93.117188 36.550781 95.28125 33.917969 97.21875 C 34.070312 92.976562 33.921875 88.707031 33.488281 84.488281 C 36.511719 84.335938 39.542969 84.203125 42.582031 84.082031 Z M 42.582031 84.082031 " fill-opacity="1" fill-rule="nonzero"/></g><path fill="#1d1d1d" d="M 70.703125 14.835938 C 60.484375 13.746094 49.269531 13.082031 36.53125 15.617188 C 36.0625 15.707031 35.726562 16.117188 35.726562 16.59375 L 35.636719 33.886719 C 35.636719 34.167969 35.753906 34.441406 35.964844 34.628906 C 36.148438 34.796875 36.390625 34.890625 36.636719 34.890625 C 36.671875 34.890625 36.703125 34.886719 36.734375 34.886719 C 47.664062 33.8125 57.675781 34.070312 68.277344 34.339844 L 70.53125 34.394531 C 70.820312 34.402344 71.09375 34.285156 71.289062 34.074219 C 71.648438 33.683594 71.960938 33.347656 71.816406 24.335938 C 71.746094 20.070312 71.597656 15.835938 71.597656 15.792969 C 71.578125 15.296875 71.195312 14.890625 70.703125 14.835938 Z M 69.746094 32.375 L 68.328125 32.339844 C 58.472656 32.085938 48.292969 31.828125 37.644531 32.792969 L 37.722656 17.425781 C 49.515625 15.195312 60.015625 15.742188 69.625 16.738281 C 69.839844 23.273438 69.929688 30.203125 69.746094 32.375 Z M 69.746094 32.375 " fill-opacity="1" fill-rule="nonzero"/><path fill="#1d1d1d" d="M 49.332031 88.605469 C 58.503906 88.253906 67.808594 88.113281 76.988281 88.179688 C 76.988281 88.179688 76.992188 88.179688 76.996094 88.179688 C 77.542969 88.179688 77.992188 87.738281 77.996094 87.1875 C 78 86.636719 77.554688 86.183594 77.003906 86.179688 C 67.792969 86.109375 58.460938 86.253906 49.257812 86.601562 C 48.703125 86.625 48.273438 87.089844 48.292969 87.640625 C 48.3125 88.179688 48.757812 88.605469 49.292969 88.605469 C 49.308594 88.605469 49.320312 88.605469 49.332031 88.605469 Z M 49.332031 88.605469 " fill-opacity="1" fill-rule="nonzero"/></svg>