<svg xmlns="http://www.w3.org/2000/svg" xml:space="preserve" viewBox="0 0 512 512"><path d="M74.2 296c.4-1.8.6-3.2 1.1-4.6 1.1-3.4.6-6.4-1.2-9.6-3.9-7-5-14.7-4-22.7.9-7.2 2.2-14.3 3.3-21.4.6-4.4 1.1-8.7 1.6-13.1.8-8.2 6.9-14.3 15.2-14.4.2 0 .4-.1 1-.3.5-2.8 1.1-5.8 1.5-8.8 1.2-8.2 2.4-16.3 3.7-24.5 1.1-7.3 5.4-12.1 11.9-13 2.7-.3 5.5.4 8.7.8 3.3-5.2 8.3-8.4 15.1-7.1s10.3 6.1 11.5 12.5c2 .3 3.8.4 5.5.9 6.8 1.9 10.9 8.4 9.8 15.3-3.2 19.3-6.3 38.6-9.5 57.8-.4 2.6-.4 5.1.5 7.6 2.1 5.7 1.9 11.5-.5 17.2-4.4 10.2-10.2 19.5-19.1 26.4-3.8 3-4.6 7.1-5.5 11.2-.1.6.2 1.6.7 2.1 1.9 1.9 1.9 4.1 1.5 6.6-1.9 11.9-3.8 23.9-5.6 35.8-.1.6 0 1.3 0 2.4.9-.7 1.6-1.2 2.2-1.8 4.9-4.9 9.8-9.7 14.6-14.7 10.6-11.2 23.5-19 38-24.1 5.6-2 11.3-4 16.8-6.2 2-.8 4.1-2.1 5.5-3.7 3.5-4.1 7.6-7.5 12.5-9.6 6.6-2.8 12.2-6.6 17-11.9 4.4-4.7 9.8-8 16.7-7.9.2-.7.5-1.2.5-1.7.2-3.8.4-7.7.6-11.5.1-2.7-.8-5-2.8-7-10.8-10.5-17.7-23.3-21.2-37.9-.1-.4-.2-.9-.3-1.4-.8-.2-1.5-.4-2.3-.5-5.3-.7-9.7-3.4-12.9-7.5-7.7-9.9-10.6-21.1-8.4-33.5 1-5.5 4.1-9.7 8.9-12.6.7-.4 1.3-.8 2.2-1.4-.3-2.2-.6-4.4-1-6.9-4.4-.7-8.7-1.5-13-2.2-10.7-1.9-21.3-3.9-31.6-7.5-4.2-1.5-8.2-3.7-12.2-5.7-1.4-.7-2.6-1.8-3.7-2.9-4.9-4.7-5-10.6-.5-15.7 2.5-2.8 5.8-4.7 9.2-6.3 8.2-3.8 16.9-6.3 25.8-8.1 7.7-1.6 15.5-2.8 23.3-4.2.9-.2 1.7-.4 2.9-.6.4-3.7.9-7.4 1.3-11.1 1.1-7.8 1.9-15.7 3.3-23.5 1.6-8.9 6.4-16.1 13.9-21.3 4.5-3.1 9.1-6 13.8-8.6 8.8-4.9 16.5-11 22.9-18.8 1.7-2 3.5-3.9 5.3-5.7 12.7-12 30.7-12.5 43.9-.9 3 2.6 5.6 5.6 8.2 8.5 5.5 6.3 11.8 11.4 19.1 15.5 4.1 2.3 8.1 4.9 12.2 7.3 11.1 6.6 17 16.5 18.5 29.2 1.1 9.3 2.3 18.6 3.5 27.9 0 .3.2.6.4 1.3 4.2.7 8.5 1.3 12.8 2.1 11 1.9 22 4.1 32.4 8.2 3.9 1.5 7.6 3.4 11.2 5.5 2 1.2 3.8 2.9 5.3 4.7 3.4 4.2 3.3 9.7-.6 13.6-2.1 2.1-4.7 3.9-7.3 5.4-6.4 3.7-13.5 5.8-20.7 7.3-9.5 2.1-19 3.7-28.6 5.5-1.4.3-2.9.5-4.7.8-.4 2.3-.7 4.6-1.1 6.9.8.5 1.4 1 2.1 1.4 5 2.9 8.1 7.2 9.1 12.9 2 11.9-.5 22.9-7.9 32.6-3.5 4.6-8 7.6-13.9 8.3-.7.1-1.3.3-1.6.4-2 5.6-3.5 11-5.7 16.2-3.7 8.7-9.1 16.4-15.8 23.1-2.2 2.2-3.1 4.6-3 7.6.2 4.2.3 8.3.4 12.5 1.7.3 3 .5 4.4.7 3.9.7 7.3 2.3 10.3 4.9 1.8 1.6 3.7 3.1 5.2 4.9 3.1 3.6 6.8 6.1 11.2 7.9 6.4 2.7 12.2 6.3 16.7 11.9 1.3 1.6 3.4 2.6 5.3 3.3 7.7 3 15.5 5.7 23.1 8.7 8.1 3.1 15.4 7.6 22 13.2 10.4 8.8 16.6 20.1 20 33.1 2.4 9.3 4.4 18.7 6.1 28.1 5.8 31.1 11.4 62.2 17.1 93.3 1.9 10.6 3.8 21.1 5.7 31.7.1.8.3 1.6.3 2.3 0 3.1-1.8 5.2-4.8 5.6-.9.1-1.8.1-2.7.1h-57.3c-3.6-.2-5.2-1.5-5.8-5-1.2-6.3-2.2-12.7-3.3-19-.3-1.5-.6-3-1.3-4.5L407 516c-.4 5.1-1.9 6.6-7 6.6H181.1c-3.9-.2-5.6-1.7-5.9-5.5-1.6-16.9-3.2-33.8-4.8-50.6-.9-9.5-1.8-18.9-2.7-28.3 0-.4-.2-.8-.4-1.7-1.2.8-2.2 1.5-3.2 2.2-18.4 12.8-36.7 25.5-56.3 36.4-9.7 5.4-19.7 10.1-30.6 12.4-8.3 1.7-16.6 1.5-24.7-1.3-11-3.9-18-11.6-21.5-22.7-3.9-12.5-4.5-25.3-2.4-38.2 2.4-15.6 7.5-30.4 12.5-45.3 8.6-25.7 17.2-51.4 25.9-77.1.1-.2.2-.4.2-.6 1-3.8 2.9-6.2 7-6.3m2.2 11.5c-.4 1.1-.7 1.7-.9 2.4l-27.6 82.5c-4.3 12.9-8.3 25.8-9.7 39.4-1.2 11-.2 21.7 4.3 31.9 3.5 8 9.6 12.6 18.2 14 7 1.1 13.7.1 20.4-1.8 8.5-2.5 16.3-6.5 24-10.9 20.4-11.7 39.7-25 58.9-38.7 1.7-1.2 3.4-2.6 5.3-3.7 3.4-2.1 6.8-.6 7.8 3.3.2.9.3 1.8.4 2.7l.9 10.8c2 21.2 4 42.3 6.1 63.4.3 3.2.7 6.4 1.1 9.5 7.4.8 209.3.4 211.8-.4.1-.6.3-1.3.3-1.9.7-7.4 1.4-14.9 2.1-22.3 1.9-20.1 3.7-40.3 5.6-60.4.1-1.2.5-2.4 1.1-3.5 1.1-1.9 3.2-2.6 5.3-2.1 2.3.6 3.6 2.2 3.7 4.6 0 1 0 2-.1 3-.6 6-1.2 11.9-1.7 17.9-.2 2-.3 4.1 0 6.1 2.6 16.2 5.3 32.3 7.9 48.5.6 3.5 1.3 7.1 1.9 10.5h49.3c.1-.5.2-.7.2-.9-1.6-9.6-3.2-19.2-4.9-28.7-3-17-5.9-34-9.1-51-4-21.1-7.9-42.2-12.3-63.2-4.1-19.7-15.3-34-33.9-42-8.2-3.5-16.6-6.5-24.9-9.6-7.3-2.7-7.3-2.6-13.9 1.7-8.2 5.4-16.3 11-24.6 16.2-10.4 6.5-21 12.9-31.7 18.9-4.6 2.6-6.8 5.6-6 11 .4 2.9.1 6-1.7 8.5-1.4 1.9-1.2 3.6-.3 5.6 4.3 10.1 8.2 20.3 11.4 30.8 5.5 17.5 7 35.2 2.9 53.2-2.1 9.3-5.2 18.4-7.9 27.7-.8 2.6-1.6 5.2-2.5 7.7-1 2.8-3 4-5.7 3.8-2.6-.2-4.1-1.6-4.8-4.4-.2-.8-.4-1.5-.5-2.3l-10.2-50.1c-.2-.8-.5-1.6-1-3.2-.5 2-.8 3.3-1.1 4.6-3.4 16.8-6.7 33.7-10.1 50.5-.7 3.2-2.4 4.8-5.1 5-2.8.2-4.8-1.2-5.8-4.2-3.1-10-6.4-20-9.1-30.1-4.4-16.6-4.6-33.3-.4-50 3.3-13.3 7.9-26.1 13.5-38.6.5-1.1.9-2.3 1.5-3.5-3.1-3.2-3.7-7-3.5-11.1.1-1.4-.1-2.7 0-4.1.2-1.6-.4-2.8-1.8-3.7-3.5-2.2-7-4.6-10.6-6.7-16.8-9.8-33.4-19.8-49.3-31-1.8-1.2-3.7-2.2-5.4-3.4-1.4-.9-2.6-.9-4.1-.4-6.6 2.4-13.2 4.6-19.8 6.9-13.4 4.8-25.2 12.1-35 22.4-8 8.4-16.3 16.6-24.5 24.9-1.5 1.5-2.2 3.2-2.6 5.3-2.2 13.5-4.3 27-6.8 40.4-1 5.3-2.7 10.5-4.4 15.6-1.2 3.6-4.6 4.6-7.6 2.7-2.1-1.3-2.8-3.5-2-6.2.8-2.8 1.9-5.6 2.6-8.4 3.6-13.5 5.4-27.2 7.5-41 2.2-14.5 4.3-29 6.5-43.6.9-5.8 1.8-11.6 2.8-17.8-13.8-3-26.9-6-40.4-9m160.1-179.8c-.1.7-.2 1.3-.2 1.8-.1 8.7-2.6 16.6-6.8 24.2-2.7 4.9-3.3 10.3-2.8 15.8 1.2 11.6 2.4 23.1 3.7 34.7 1.6 13.7 6.7 26 15.4 36.7 5.8 7 12.6 12.9 20 18.1 14.8 10.3 34.3 10.6 49.4.8 8-5.2 15-11.6 21.1-18.9 7.4-8.7 12.4-18.7 14.2-30 2.1-13.7 3.5-27.6 5.1-41.4.7-6.1-.6-11.9-3.5-17.3-.6-1.1-1.1-2.3-1.6-3.3-2.9-5.4-4-11.2-4.3-17.3-.1-1.2-.1-2.4-.2-3.6-22.2-7.4-81.6-7.7-109.5-.3m-16.5-45c47.8-9 94.7-9.5 142.1 0-.6-4.5-1.1-8.5-1.5-12.5-.9-9.4-5.4-16.6-13.5-21.5-4.3-2.6-8.6-5.3-13-7.9-8.5-4.9-15.9-11.1-22.3-18.5-1.6-1.8-3.1-3.6-4.8-5.2-9.7-9.2-22.2-9.1-31.7.2-2 2-3.9 4.1-5.7 6.2-5.7 6.6-12.3 12.2-19.9 16.6-3.1 1.8-6.2 3.6-9.3 5.5-2.9 1.8-5.8 3.6-8.5 5.6-4.3 3.1-7.4 7.1-8.6 12.2-1.5 6.3-2.3 12.5-3.3 19.3m-66 42.4c1.5 1.1 2.6 2.3 4 2.9 3.9 1.7 7.8 3.5 11.9 4.8 11.1 3.6 22.6 5.4 34.1 7.3.8.1 1.7 0 2.7 0-.1-1.6-.1-2.8-.3-4-.6-5 1.4-8.6 5.7-10.9 2.9-1.5 5.9-2.9 9-3.9 16.8-5.7 34.3-7.7 51.9-8.8 12.5-.8 25.1-.8 37.6-.1 15.2.9 30.4 2.7 45.1 7 5 1.4 9.8 3.4 14.5 5.6 4.3 2 6.4 5.6 5.9 10.5-.1 1.5-.2 3-.3 4.7.8 0 1.2.1 1.7 0 12.2-1.8 24.3-3.8 36.1-7.6 3.8-1.2 7.5-3 11.2-4.7 1.4-.6 2.8-1.5 3.2-3.7-1.8-1.1-3.6-2.5-5.6-3.4-3.6-1.6-7.3-3.1-11.1-4.2-18.8-5.6-38.1-8.4-57.6-10.1-13.5-1.2-27-1.8-40.6-2.3-29.6-.9-59.2-.4-88.7 2.7-15.5 1.6-30.9 3.8-46 7.8-6.3 1.6-12.5 3.9-18.6 6.1-2.1.7-4.2 1.8-5.8 4.3m137.2 217.1c1.1-1.5 1.9-2.6 2.7-3.8 10.7-16 21.2-32 32-47.9 1.7-2.6 2.2-5 1.9-7.9-.5-4.7-.9-9.4-1.3-14.2-.1-.9-.2-1.7-.4-2.8-23.5 15.8-46.7 15.9-69.9-.2-.1.6-.3 1.1-.3 1.5-.5 6.2-1.1 12.4-1.4 18.6-.1 1.2.5 2.6 1.2 3.7q15.45 23.4 31.2 46.8c1.3 2 2.7 3.9 4.3 6.2m-177-36.6c.8-2.8 1.6-5.2 2.1-7.6.8-3.5 2.5-6.2 5.1-8.6 2-1.8 4-3.6 5.9-5.5 5.8-5.7 9.9-12.6 12.9-20.1 1-2.6 1.2-5.3 0-7.9-2.5-5.6-5-11.1-7.6-16.6-1.1-2.3-2.9-4.1-5.3-4.9-5.3-1.9-10.6-3.7-16-5.5-2.1-.7-3.3.2-3.2 2.4.1 1.4.5 3 1.4 4 1.2 1.5 2.9 2.9 4.6 3.9 2.2 1.4 4.7 2.2 6.9 3.5 1.2.7 2.6 1.6 3.2 2.8 1.3 2.8 2.3 5.9 3.3 8.9 1.3 3.6-2.4 8-6.4 6.1-1.6-.8-2.8-.3-4.1.6-4.1 2.8-7.1 6.6-8.8 11.3-.3.7-.4 1.5-.7 2.3-1 2.3-3.1 3.4-5.5 2.9-2.4-.4-3.8-2.2-3.8-4.9 0-1 .2-2 .5-3 2.3-7.2 6.6-12.8 12.9-16.9.8-.5 1.6-1.1 2.8-1.8-2.8-1.5-5.2-2.8-7.7-4.1-3.4 4-7.3 6.4-12.5 6.1-5.1-.3-8.8-2.9-11.9-7.5-.6 3.5-1.1 6.4-1.5 9.2-1.5 9.2-.8 18 4.3 26.1 1.6 2.5 1.9 5.2 1.2 8.2-.7 3.2-1.2 6.4-1.8 9.7 10 2.3 19.8 4.6 29.7 6.9m10.1-83c.3-1.1.5-1.9.6-2.6 2.6-15.6 5.2-31.1 7.8-46.7.1-.8.2-1.6.2-2.4-.1-1.7-1.2-3-2.9-3.3-1.6-.3-2.9.3-3.8 1.7-.5.8-.8 1.9-.9 2.9-2 12.9-4.1 25.8-6.1 38.8-.5 3.1-.8 6.2-1.3 9.6 2.3.7 4.2 1.3 6.4 2m16.4 9.2c.3-1.3.6-2.3.8-3.4 1.6-9.4 3.1-18.9 4.7-28.4.8-5 1.7-10 2.4-15 .3-2.3-.8-3.9-2.8-4.3s-3.6.7-4.3 2.9c-.3 1.1-.5 2.2-.7 3.3-1.1 6.2-2.1 12.4-3.2 18.7-1.1 6.9-2.3 13.8-3.4 20.6 2.2 1.8 4.2 3.6 6.5 5.6m-37.3-11.3c.7-.3 1.1-.5 1.5-.6 2.4-.6 3.4-1.9 3.6-4.5.3-3.8 1.1-7.6 1.7-11.4 1.2-8.3 2.3-16.6 3.5-24.8.4-2.9-.6-4.6-2.8-5-2.3-.4-3.8 1-4.4 4 0 .1 0 .2-.1.3-1.7 10.9-3.2 21.9-5.1 32.8-.6 3.5.3 6.2 2.1 9.2m259.3-18.7c2.5-.1 3.4-.3 4.9-2.1 6.1-7.3 8.7-15.7 7-25.1-.3-1.9-1.7-3.7-2.9-5.2-1.1-1.4-2.8-1.1-4.4-.6-1.3.5-1.3 1.7-1.4 2.8-.9 7.6-1.7 15.2-2.6 22.8-.2 2.5-.4 4.9-.6 7.4m-143.1.1c-.2-2.4-.5-4.7-.7-7-.8-7.9-1.7-15.7-2.6-23.6-.3-2.6-2.1-3.6-4.5-2.6-1 .4-2.1 1.2-2.5 2.2-.9 2-1.8 4.2-2 6.4-.6 5.5.7 10.8 3.1 15.8 1.1 2.4 2.8 4.6 4.5 6.7 1 1.3 2.4 2.2 4.7 2.1M98.4 238.8c0-.2 0-.5-.1-.7-1.9-5.3-3.6-10.7-5.7-15.9-.8-2.1-3.2-2.5-5.2-1.3-1.9 1.1-2.5 2.8-1.7 5.2 1.6 4.5 3.3 8.9 4.9 13.3.2.5.5 1 .8 1.5 1.1 1.6 2.7 2.1 4.4 1.5 1.7-.5 2.6-1.8 2.6-3.6"/></svg>