<svg xmlns="http://www.w3.org/2000/svg" width="135" height="135" version="1.0" viewBox="0 0 101.25 101.25"><defs><clipPath id="a"><path d="M69 76h28.504v24H69Zm0 0"/></clipPath><clipPath id="b"><path d="M69 50h28.504v25H69Zm0 0"/></clipPath><clipPath id="c"><path d="M6 41h26v59.504H6Zm0 0"/></clipPath></defs><path fill="#1d1d1d" d="M45.164 44.418c.574.55 1.324.883 2.121.934l16.156 1.043q.112.006.223.007a3.375 3.375 0 0 0 .215-6.742l-14.93-.965-1.008-.965-3.644 5.856ZM55.203 86.914l-1.11.836-1.034-.836-1.184.836-1.16-.836-.797.836V76.512H39.105v23.39h28.137v-23.39H56.426V87.75Zm0 0"/><g clip-path="url(#a)"><path fill="#1d1d1d" d="m86.691 87.75-1.222-.836-1.11.836-1.035-.836-1.183.836-1.16-.836-.797.836V76.512H69.37v23.39h28.137v-23.39H86.69Zm0 0"/></g><path fill="#1d1d1d" d="M67.242 50.82H56.426V62.06l-1.223-.836-1.11.836-1.034-.836-1.184.836-1.16-.836-.797.836V50.82H39.105v23.39h28.137Zm0 0"/><g clip-path="url(#b)"><path fill="#1d1d1d" d="m86.691 62.059-1.222-.836-1.11.836-1.035-.836-1.183.836-1.16-.836-.797.836V50.82H69.37v23.39h28.137V50.82H86.69Zm0 0"/></g><path fill="#1d1d1d" d="M28.59 1.035C23.453-.004 18.445 3.316 17.406 8.453c-1.043 5.137 2.282 10.145 7.418 11.184s10.145-2.282 11.184-7.418S33.727 2.074 28.59 1.035m0 0"/><g clip-path="url(#c)"><path fill="#1d1d1d" d="M29.469 95.273v-41.09l2.086-10.308-4.762-1.785a3 3 0 0 1-.344-.16L8.391 43.32l-1.594 7.875q-.046.237-.059.473a5.4 5.4 0 0 0-.086.914v42.691a5.216 5.216 0 0 0 5.215 5.215 5.214 5.214 0 0 0 5.215-5.215V56.602l1.957.398v38.273a5.216 5.216 0 0 0 5.215 5.215 5.216 5.216 0 0 0 5.215-5.215m0 0"/></g><path fill="#1d1d1d" d="M40.457 46.18a1.14 1.14 0 0 0 1.371-.465l10.883-17.48a1.142 1.142 0 0 0-.57-1.672l-13.598-5.106a1.88 1.88 0 0 0-2.254.766l-6.691 10.75 4.441-.344q.17-.012.34-.012c2.254 0 4.152 1.762 4.328 4.012a4.32 4.32 0 0 1-1.035 3.16 4.33 4.33 0 0 1-2.965 1.504l-6.035.465Zm-2.934-21.977a.913.913 0 0 1 1.243-.344.907.907 0 0 1 .32 1.246.91.91 0 0 1-1.242.348.915.915 0 0 1-.32-1.25m0 0"/><path fill="#1d1d1d" d="M3.953 41.254a3.37 3.37 0 0 0 2.863 1.215l27.817-2.145a3.37 3.37 0 0 0 3.105-3.62 3.367 3.367 0 0 0-3.625-3.106l-22.867 1.761c.828-2.336 1.61-4.027 2.293-5.246l1.004.192c-.543.933-1.176 2.215-1.86 3.972l15.715-1.21 5.446-8.75a3 3 0 0 0-.192-.11 3.2 3.2 0 0 0-1.32-.598l-15.973-3.234a3.2 3.2 0 0 0-1-.047c-2.07.09-5.418 1.535-8.707 8.48-1.14 2.415-2.277 5.489-3.351 9.407a3.38 3.38 0 0 0 .652 3.039m0 0"/></svg>