<svg xmlns="http://www.w3.org/2000/svg" width="135" height="135" version="1.0" viewBox="0 0 101.25 101.25"><defs><clipPath id="a"><path d="M3.14 0h94.551v100.504H3.141Zm0 0"/></clipPath></defs><g clip-path="url(#a)"><path fill="#1d1d1d" d="M78.137 50.598c.675 0 1.226-.551 1.226-1.227v-35.36c0-.323-.129-.636-.36-.866L66.22.359C65.989.13 65.676 0 65.352 0H4.434C3.758 0 3.21.55 3.21 1.227V90.75c0 .676.547 1.227 1.223 1.227h7.234c.676 0 1.223-.551 1.223-1.227s-.547-1.227-1.223-1.227H5.66V2.453h58.465v11.559c0 .675.55 1.226 1.227 1.226H76.91v34.13c0 .679.55 1.23 1.227 1.23M66.578 4.188l8.598 8.597h-8.598Zm-8.535 74.308H34.18c-.676 0-1.227-.55-1.227-1.226s.55-1.227 1.227-1.227h23.863c.676 0 1.227.55 1.227 1.227 0 .675-.551 1.226-1.227 1.226m-20.781-53.82a1.225 1.225 0 1 1 0-2.45h32.992a1.224 1.224 0 1 1 0 2.45ZM70.27 42.617H12.078c-.676 0-1.226-.55-1.226-1.226s.55-1.227 1.226-1.227H70.27c.675 0 1.222.55 1.222 1.227 0 .675-.547 1.226-1.222 1.226m1.222-10.195c0 .676-.547 1.226-1.222 1.226H31.133c-.676 0-1.223-.55-1.223-1.226s.547-1.227 1.223-1.227H70.27c.675 0 1.222.547 1.222 1.227M36.145 68.297c0-.676.55-1.223 1.226-1.223h28.352c.675 0 1.222.547 1.222 1.223 0 .68-.547 1.226-1.222 1.226H37.37a1.226 1.226 0 0 1-1.226-1.226m.152-8.969c0-.676.55-1.226 1.226-1.226h26.895c.676 0 1.227.55 1.227 1.226s-.551 1.227-1.227 1.227H37.523a1.226 1.226 0 0 1-1.226-1.227m32.133-7.742H12.078c-.676 0-1.226-.55-1.226-1.227 0-.675.55-1.226 1.226-1.226h56.356c.675 0 1.226.55 1.226 1.226a1.23 1.23 0 0 1-1.23 1.227m-7.606 43.91h34.633c1.016 0 1.84-.828 1.84-1.844v-5.336a1.847 1.847 0 0 0-1.805-1.843v-.317c0-3.449-2.805-6.25-6.254-6.25h-2.304l-2.723-8.082c-.715-2.129-.402-4.226.902-6.058a8.5 8.5 0 0 0 1.59-4.97c0-4.722-3.84-8.566-8.562-8.566-4.727 0-8.567 3.844-8.567 8.567 0 1.793.551 3.512 1.59 4.969 1.309 1.828 1.621 3.925.902 6.058l-2.726 8.082h-2.305a6.26 6.26 0 0 0-6.25 6.25v.317c-.996.02-1.8.84-1.8 1.843v5.332c0 1.02.824 1.848 1.84 1.848m34.02-2.45h-33.41v-4.124h33.41Zm-20.457-20.44c.965-2.868.531-5.805-1.227-8.27a6.04 6.04 0 0 1-1.133-3.543 6.12 6.12 0 0 1 6.114-6.113 6.12 6.12 0 0 1 6.109 6.113c0 1.285-.39 2.508-1.133 3.547-1.754 2.469-2.191 5.402-1.226 8.265l2.457 7.301H71.93Zm-7.352 9.75h22.203a3.804 3.804 0 0 1 3.797 3.8v.317H63.238v-.317c0-2.094 1.703-3.8 3.797-3.8m-45.984-2.528c.172.086.363.133.55.133.192 0 .383-.047.555-.133 3.809-1.93 10.203-6.101 10.203-12.363v-7.09c0-.613-.453-1.137-1.066-1.215-3.27-.43-6.316-1.476-9.063-3.117a1.23 1.23 0 0 0-1.257 0c-2.746 1.637-5.79 2.684-9.059 3.117a1.226 1.226 0 0 0-1.066 1.215v7.09c.004 6.258 6.394 10.433 10.203 12.363M13.305 61.43a25.9 25.9 0 0 0 8.3-2.914 25.9 25.9 0 0 0 8.305 2.918v6.035c0 4.683-4.969 8.113-8.305 9.886-3.335-1.777-8.3-5.207-8.3-9.886ZM24.91 12h-6.605c-.676 0-1.227.55-1.227 1.227v4.992h-5c-.676 0-1.226.547-1.226 1.222v6.614c0 .675.55 1.226 1.226 1.226h5v4.996c0 .676.55 1.223 1.227 1.223h6.605c.676 0 1.227-.547 1.227-1.223v-4.992h4.996c.676 0 1.226-.55 1.226-1.226v-6.614c0-.675-.55-1.226-1.226-1.226h-4.996v-4.992c0-.68-.551-1.227-1.227-1.227m5 8.668v4.164h-5c-.676 0-1.226.547-1.226 1.223v4.996h-4.157v-4.992c0-.676-.547-1.227-1.222-1.227h-5v-4.16h5c.675 0 1.222-.55 1.222-1.227V14.45h4.157v4.992c0 .68.55 1.227 1.226 1.227ZM16.594 67.434a1.22 1.22 0 0 1 .273-1.711 1.224 1.224 0 0 1 1.711.27l1.883 2.597 4.324-4.09a1.223 1.223 0 0 1 1.73.05 1.22 1.22 0 0 1-.046 1.731l-5.34 5.051a1.22 1.22 0 0 1-.844.336q-.054-.001-.113-.008a1.22 1.22 0 0 1-.879-.5Zm13.55 27.257 1.036-1.308 1.039 1.308c.234.293.586.461.96.461h5.278a9.7 9.7 0 0 0 8.703 5.352c5.38 0 9.758-4.375 9.758-9.754s-4.379-9.754-9.758-9.754c-3.722 0-7.058 2.07-8.703 5.348H20.844a1.24 1.24 0 0 0-.852.344l-3.293 3.18c-.242.23-.375.55-.375.882s.133.652.375.883l3.293 3.176c.23.222.535.343.852.343h.343c.372 0 .727-.168.958-.46l1.046-1.313 1.036 1.308c.234.293.585.465.96.465s.727-.172.961-.465l1.036-1.308 1.039 1.308a1.23 1.23 0 0 0 1.922.004m-2-4.043a1.222 1.222 0 0 0-1.918 0l-1.039 1.305-1.039-1.305a1.222 1.222 0 0 0-1.918 0l-1.312 1.649-1.602-1.547 2.024-1.953h17.906c.5 0 .953-.305 1.137-.77a7.265 7.265 0 0 1 6.777-4.578c4.028 0 7.305 3.278 7.305 7.301 0 4.027-3.278 7.305-7.305 7.305-3 0-5.664-1.797-6.777-4.582a1.22 1.22 0 0 0-1.137-.77H33.77l-1.63-2.055a1.23 1.23 0 0 0-.96-.464 1.23 1.23 0 0 0-.961.464l-1.04 1.309Zm19.704 4.38a4.28 4.28 0 0 0 4.277-4.278 4.28 4.28 0 0 0-4.277-4.277 4.28 4.28 0 0 0-4.274 4.277 4.28 4.28 0 0 0 4.274 4.277m0-6.106a1.826 1.826 0 0 1 0 3.652 1.826 1.826 0 0 1 0-3.652m0 0"/></g></svg>