<svg xmlns="http://www.w3.org/2000/svg" width="135" height="135" version="1.0" viewBox="0 0 101.25 101.25"><defs><clipPath id="a"><path d="M8 0h84.66v100H8Zm0 0"/></clipPath></defs><g clip-path="url(#a)"><path fill="#1d1d1d" d="M46.07 25.328c-1.457 1.438-2.484 3.203-3.144 5.422-.598 2.012 1.426 2.79 2.16.828.687-1.844 3.066-4.96 5.227-5.539 1.898.512 4.511 3.914 5.093 5.563.703 1.996 2.84 1.218 2.301-.829-.445-1.656-.918-3.07-1.82-4.347 5.597.922 10.582 4.996 14.265 8.34 11.953 10.882 18.66 26.472 18.422 41.64-.09 5.617-1.804 10.364-5.3 13.27-3.137 2.597-7.364 3.875-14.13 2.754 1.68-2.317 2.56-5.008 2.56-7.766.093-2.113-3.556-2.113-3.454 0 0 3.95-2.715 7.852-8.309 10.063-5.605 2.21-12.668 2.21-18.273 0s-7.969-6.153-8.508-10.063c-.34-2.477-3.246-1.988-3.246 0 0 2.824.836 5.574 2.5 7.934-5.516.605-9.617-1.383-13.168-3.918-4.238-3.012-6.746-7.832-6.824-13.282-.238-15.082 6.254-29.957 17.937-40.597 4.746-4.332 9.598-8.496 15.711-9.473m5.336-5.758c5.016 0 5.778 3.727-.168 2.91a11 11 0 0 0-3.933.165c-1.77.406-2.723-.754-1.242-1.668 1.398-.872 3.355-1.442 5.343-1.407m4.532-16.316c1.968.016 4.624.656 7.78 1.059 4.274.554 4.946 2 3.364 5.019-1.855 3.52-5.738 7.43-9.879 8.637-1.742-.942-3.746-1.399-5.734-1.434-2.45-.047-4.895.531-6.887 1.79-4.848-2.403-7.8-5.837-9.613-10.16-1.446-3.454 1.52-3.81 3.922-3.419 2.976.488 5.351.363 8.59.363-.77 2.868 1.519 8.075 2.378 4.57.618-3.011 1.786-5.34 4.356-6.199.496-.167 1.074-.238 1.722-.226m.074-3.18a10 10 0 0 0-2.328.223c-1.211.266-2.852 1.16-3.86 2.156-3.77-.062-7.164-.344-10.511-.906-2.508-.422-4.704-.305-6.262 1.144-.785.727-1.297 1.852-1.387 3.055-.078 1.195.188 2.45.727 3.785 2.004 4.93 5.082 8.953 9.34 11.817a7.1 7.1 0 0 0-.79 2.476C20.695 34.31 8.066 55.57 8.391 76.457c.097 6.36 3.07 12.125 8.09 15.707 4.62 3.29 12.453 5.582 19.894 4.219a17 17 0 0 0 3.121 1.605c6.387 2.52 15.875 2.52 22.27 0A18 18 0 0 0 65.484 96c8.309 1.508 16.215-.555 20.356-3.984 4.367-3.633 6.305-9.34 6.402-15.559.313-20.102-11.37-40.547-30.297-51.406a8.9 8.9 0 0 0-1.488-4.2c3.785-2.538 6.781-5.89 9-9.73.672-1.18 1.145-2.312 1.34-3.476.183-1.153.039-2.387-.512-3.395-1.11-2.004-3.3-2.816-6.285-3.156-3.012-.348-5.598-.996-7.988-1.02m0 0"/></g><path fill="#1d1d1d" d="M52.281 64.383c5.797-.051 4.696 6.797 0 7.293Zm-4.015-12.5v7.523c-5.73-.687-4.524-7.59 0-7.523m2.004-9.453c-.489 0-.97.164-1.356.511-.39.34-.648.891-.648 1.493v3.386c-.414.059-.82.106-1.22.207-4.054 1.051-7.425 4.059-7.425 7.957 0 2.407 1.29 4.309 2.856 5.426 1.53 1.11 3.277 1.617 4.707 1.895.379.07.726.129 1.082.195v8.082c-1.7-.289-3.52-.844-4.778-1.574-1.254-.735-1.867-.805-2.379-.653-.52.165-.91.52-1.16.957a2.08 2.08 0 0 0-.238 1.485c.117.523.512 1.02 1.074 1.308 2.578 1.48 5.106 2.235 7.48 2.543v3.387c-.035.637.208 1.223.598 1.59.399.371.903.527 1.407.527.496 0 1.011-.156 1.402-.527.398-.367.644-.953.61-1.59v-3.324c.644-.078 1.292-.137 1.886-.29 3.71-.976 6.64-3.566 6.64-6.944 0-3.489-2.058-5.907-4.617-7.075-1.218-.554-2.562-.863-3.91-1.16v-8.289c1.73.371 3.52 1.168 5.207 2.856.418.457.992.703 1.52.68a2.1 2.1 0 0 0 1.387-.614c.355-.355.597-.844.613-1.39.015-.547-.238-1.13-.735-1.551-2.453-2.426-5.261-3.676-7.988-4.098v-3.402c0-.614-.254-1.157-.644-1.508-.395-.348-.891-.5-1.371-.496m0 0"/></svg>