<svg xmlns="http://www.w3.org/2000/svg" width="135" height="135" version="1.0" viewBox="0 0 101.25 101.25"><defs><clipPath id="a"><path d="M0 0h75v100.504H0Zm0 0"/></clipPath><clipPath id="b"><path d="M26 11h74.504v76H26Zm0 0"/></clipPath></defs><path fill="#1d1d1d" d="M21.832 45.516c-.574-.461-1.5-.348-2.078.23l-4.852 6.008-1.5-1.387a1.466 1.466 0 0 0-2.082 0 1.466 1.466 0 0 0 0 2.082l2.774 2.54c.691.577 1.734.347 2.078-.114l5.777-7.277c.578-.696.809-1.387-.117-2.082m0 0"/><g clip-path="url(#a)"><path fill="#1d1d1d" d="M72.895 59.379c-.81 0-1.387.691-1.387 1.387v36.851H3.004V2.887h47.71v19.18c0 .808.579 1.5 1.388 1.5h19.175v1.847c0 .809.696 1.387 1.387 1.387.695 0 1.387-.692 1.387-1.387v-3.348c0-.347-.117-.695-.461-1.043L53.258.461C53.023.117 52.562 0 52.215 0H1.617C.81 0 .23.691.23 1.387V99.12c0 .809.696 1.383 1.387 1.383h71.278c.808 0 1.386-.692 1.386-1.383V60.766c0-.809-.578-1.387-1.386-1.387m0 0"/></g><path fill="#1d1d1d" d="M64.117 29.922c0-.809-.695-1.387-1.387-1.387H28.305c-.809 0-1.387.692-1.387 1.387 0 .691.691 1.387 1.387 1.387H62.73c.81.113 1.387-.579 1.387-1.387M28.305 35.93c-.809 0-1.387.691-1.387 1.383 0 .695.691 1.386 1.387 1.386h24.718c.813 0 1.387-.691 1.387-1.386 0-.692-.574-1.383-1.387-1.383ZM21.832 26.453c-.574-.46-1.5-.344-2.078.235l-4.852 6.003-1.5-1.382a1.466 1.466 0 0 0-2.082 0 1.46 1.46 0 0 0 0 2.078l2.774 2.543c.691.574 1.734.343 2.078-.117l5.777-7.278c.578-.695.696-1.387-.117-2.082M21.832 63.883c-.574-.461-1.5-.344-2.078.234l-4.852 6.004-1.5-1.383a1.466 1.466 0 0 0-2.082 0 1.46 1.46 0 0 0 0 2.078l2.774 2.543c.691.575 1.734.344 2.078-.117l5.777-7.277c.578-.578.696-1.387-.117-2.082m0 0"/><g clip-path="url(#b)"><path fill="#1d1d1d" d="m99.465 26.223-4.156-3.235 2.77-3.582c.577-.691 1.155-1.847-.114-2.886l-6.008-4.735c-.926-.808-2.426-.808-3.234.23l-2.774 3.579c-.23-.114-.578-.23-.808-.114-.348 0-.692.23-.926.579l-4.852 6.238c-.343.578-.343 1.27 0 1.73L61.113 47.25H28.305c-.809 0-1.387.691-1.387 1.387 0 .691.691 1.386 1.387 1.386H58.8l-3.465 4.504H28.305c-.809 0-1.387.692-1.387 1.387 0 .691.691 1.387 1.387 1.387H53.14l-6.586 8.664h-18.25c-.809 0-1.387.691-1.387 1.387 0 .691.691 1.386 1.387 1.386h15.941l-2.887 3.696s-.117.347-.234.808h-12.82c-.809 0-1.387.692-1.387 1.387 0 .691.691 1.387 1.387 1.387h11.898c-1.156 3.695-2.656 8.894-2.656 8.894-.234.578 0 1.27.46 1.617.462.348 1.157.348 1.618.118 0 0 10.973-6.586 11.207-6.817l37.773-48.637c.23.118.465.23.81.23.464 0 .925-.23 1.155-.577l3.93-5.082 2.078 1.617-11.785 15.363c-.461.696-.344 1.504.23 2.082.579.578 1.504.344 2.082-.23l12.707-16.29c.461-.695.231-1.616-.347-2.081M41.359 82.367l2.078-6.93c.81.461 1.5.922 2.196 1.387.691.578 1.387 1.153 1.965 1.73Zm47.825-54.18-6.817-5.312 2.89-3.7 6.817 5.317Zm0 0"/></g></svg>