<svg xmlns="http://www.w3.org/2000/svg" xmlns:xlink="http://www.w3.org/1999/xlink" width="135" zoomAndPan="magnify" viewBox="0 0 101.25 101.249999" height="135" preserveAspectRatio="xMidYMid meet" version="1.0"><defs><clipPath id="340999125d"><path d="M 16 0.859375 L 62 0.859375 L 62 27 L 16 27 Z M 16 0.859375 " clip-rule="nonzero"/></clipPath><clipPath id="9a458b47f6"><path d="M 69 12 L 100.503906 12 L 100.503906 53 L 69 53 Z M 69 12 " clip-rule="nonzero"/></clipPath><clipPath id="f7a5452a29"><path d="M 18 78 L 61 78 L 61 99.875 L 18 99.875 Z M 18 78 " clip-rule="nonzero"/></clipPath></defs><g clip-path="url(#340999125d)"><path fill="#1d1d1d" d="M 45.042969 26.257812 C 44.941406 26.257812 44.84375 26.234375 44.75 26.191406 C 44.519531 26.078125 44.375 25.84375 44.375 25.585938 C 44.382812 24.347656 44.398438 23.109375 44.414062 21.882812 C 44.429688 20.714844 44.445312 19.554688 44.449219 18.421875 C 36.132812 19.210938 27.5625 21.40625 17.5625 25.300781 C 17.277344 25.410156 16.953125 25.3125 16.777344 25.066406 C 16.597656 24.816406 16.613281 24.480469 16.808594 24.246094 C 23.882812 15.851562 33.671875 10.316406 44.433594 8.617188 C 44.425781 6.242188 44.425781 3.8125 44.554688 1.527344 C 44.566406 1.28125 44.714844 1.058594 44.941406 0.957031 C 45.167969 0.855469 45.433594 0.882812 45.628906 1.035156 C 50.664062 4.929688 55.871094 8.957031 60.871094 13.050781 C 61.027344 13.179688 61.117188 13.371094 61.117188 13.574219 C 61.113281 13.777344 61.019531 13.96875 60.859375 14.09375 C 55.722656 18.089844 50.589844 22.085938 45.457031 26.113281 C 45.335938 26.207031 45.191406 26.257812 45.046875 26.257812 Z M 45.042969 26.257812 " fill-opacity="1" fill-rule="nonzero"/></g><g clip-path="url(#9a458b47f6)"><path fill="#1d1d1d" d="M 92.378906 52.738281 C 92.238281 52.738281 92.097656 52.695312 91.980469 52.609375 C 86.742188 48.75 81.5 44.894531 76.230469 41.046875 C 76.023438 40.894531 75.921875 40.636719 75.96875 40.386719 C 76.015625 40.132812 76.199219 39.929688 76.445312 39.863281 C 77.636719 39.53125 78.828125 39.214844 80.007812 38.898438 C 81.144531 38.59375 82.265625 38.296875 83.363281 37.992188 C 80.34375 30.199219 75.910156 22.550781 69.445312 13.976562 C 69.261719 13.734375 69.265625 13.398438 69.457031 13.15625 C 69.648438 12.917969 69.972656 12.84375 70.253906 12.96875 C 80.253906 17.496094 88.238281 25.417969 92.796875 35.3125 C 95.089844 34.660156 97.433594 34 99.652344 33.503906 C 99.894531 33.449219 100.144531 33.535156 100.304688 33.722656 C 100.46875 33.910156 100.507812 34.175781 100.417969 34.402344 C 98.023438 40.332031 95.5625 46.433594 92.988281 52.335938 C 92.90625 52.523438 92.746094 52.660156 92.550781 52.714844 C 92.492188 52.726562 92.4375 52.734375 92.378906 52.734375 Z M 92.378906 52.738281 " fill-opacity="1" fill-rule="nonzero"/></g><path fill="#1d1d1d" d="M 85.273438 94.695312 C 85.257812 94.695312 85.238281 94.695312 85.21875 94.695312 C 78.867188 94.179688 72.296875 93.648438 65.890625 92.953125 C 65.6875 92.929688 65.507812 92.816406 65.398438 92.644531 C 65.289062 92.476562 65.261719 92.261719 65.332031 92.070312 L 65.386719 91.90625 C 67.488281 85.808594 69.589844 79.710938 71.667969 73.589844 C 71.753906 73.347656 71.964844 73.175781 72.21875 73.140625 C 72.476562 73.113281 72.722656 73.226562 72.863281 73.441406 C 73.535156 74.480469 74.195312 75.523438 74.847656 76.558594 C 75.472656 77.546875 76.09375 78.527344 76.710938 79.480469 C 83.246094 74.277344 89.226562 67.761719 95.480469 59.035156 C 95.65625 58.785156 95.984375 58.695312 96.265625 58.800781 C 96.550781 58.914062 96.722656 59.203125 96.683594 59.503906 C 95.34375 70.402344 90.164062 80.386719 82.078125 87.6875 C 83.382812 89.671875 84.710938 91.710938 85.851562 93.691406 C 85.976562 93.90625 85.96875 94.171875 85.835938 94.382812 C 85.714844 94.578125 85.5 94.695312 85.273438 94.695312 Z M 85.273438 94.695312 " fill-opacity="1" fill-rule="nonzero"/><g clip-path="url(#f7a5452a29)"><path fill="#1d1d1d" d="M 23.761719 99.019531 C 23.714844 99.019531 23.667969 99.015625 23.621094 99.007812 C 23.378906 98.953125 23.183594 98.773438 23.117188 98.53125 C 21.40625 92.394531 19.632812 86.046875 18.066406 79.792969 C 18.019531 79.597656 18.0625 79.386719 18.183594 79.226562 C 18.308594 79.0625 18.496094 78.96875 18.699219 78.960938 C 25.207031 78.824219 31.714844 78.683594 38.234375 78.519531 C 38.480469 78.503906 38.726562 78.652344 38.84375 78.878906 C 38.960938 79.105469 38.9375 79.382812 38.785156 79.585938 C 38.042969 80.574219 37.292969 81.554688 36.550781 82.519531 C 35.835938 83.453125 35.128906 84.378906 34.445312 85.285156 C 41.589844 89.617188 49.769531 92.976562 60.117188 95.828125 C 60.410156 95.910156 60.613281 96.179688 60.609375 96.484375 C 60.601562 96.789062 60.390625 97.054688 60.09375 97.125 C 49.40625 99.636719 38.246094 98.230469 28.597656 93.164062 C 27.1875 95.074219 25.734375 97.027344 24.269531 98.78125 C 24.140625 98.9375 23.953125 99.023438 23.753906 99.023438 Z M 23.761719 99.019531 " fill-opacity="1" fill-rule="nonzero"/></g><path fill="#1d1d1d" d="M 12.859375 76.367188 C 12.625 76.367188 12.402344 76.242188 12.28125 76.03125 C 6.8125 66.511719 4.960938 55.417969 7.046875 44.726562 C 4.8125 43.921875 2.527344 43.089844 0.425781 42.1875 C 0.195312 42.089844 0.0429688 41.875 0.0234375 41.625 C 0.00390625 41.378906 0.121094 41.140625 0.332031 41.007812 C 5.722656 37.605469 11.292969 34.085938 16.835938 30.796875 C 17.011719 30.695312 17.222656 30.675781 17.414062 30.746094 C 17.605469 30.816406 17.75 30.972656 17.8125 31.164062 C 19.8125 37.359375 21.8125 43.554688 23.835938 49.753906 C 23.917969 49.996094 23.851562 50.261719 23.667969 50.441406 C 23.480469 50.617188 23.210938 50.671875 22.972656 50.585938 C 21.8125 50.15625 20.652344 49.71875 19.507812 49.285156 C 18.414062 48.867188 17.332031 48.457031 16.265625 48.066406 C 14.160156 56.152344 13.289062 64.953125 13.527344 75.683594 C 13.535156 75.992188 13.332031 76.261719 13.039062 76.34375 C 12.980469 76.359375 12.917969 76.367188 12.859375 76.367188 Z M 12.859375 76.367188 " fill-opacity="1" fill-rule="nonzero"/></svg>