<svg xmlns="http://www.w3.org/2000/svg" width="135" height="135" version="1.0" viewBox="0 0 101.25 101.25"><defs><clipPath id="a"><path d="M0 0h100.504v100.504H0Zm0 0"/></clipPath></defs><g clip-path="url(#a)"><path fill="#1d1d1d" fill-rule="evenodd" d="m65.934 48.727-4.09-4.086-1.457 2.382q-.405.664-.492 1.368c-.06.472-.008.96.148 1.453l2.5 7.816c.14.45.012.914-.297 1.227l.004.004-7.906 7.902 11.93 11.93 11.105-11.106c.183-.183.41-.297.648-.336l6.29-1.379q.508-.11.906-.328.39-.216.765-.59L97.09 53.883c.722-.723.8-1.559.512-2.242a2.5 2.5 0 0 0-.532-.77 2.4 2.4 0 0 0-.773-.531c-.68-.29-1.516-.211-2.238.512l-2.871 2.87a1.224 1.224 0 0 1-1.723 0 1.217 1.217 0 0 1 0-1.722l2.867-2.871h.004v-.004l1.504-1.5c.722-.723.8-1.562.512-2.242a2.5 2.5 0 0 0-.532-.77 2.4 2.4 0 0 0-.773-.531c-.68-.289-1.516-.21-2.238.512l-4.16 4.16a1.217 1.217 0 0 1-1.723 0 1.217 1.217 0 0 1 0-1.723l4.37-4.375c.724-.722.802-1.558.513-2.242a2.4 2.4 0 0 0-.532-.77 2.5 2.5 0 0 0-.77-.53c-.679-.29-1.519-.212-2.241.511l-4.16 4.16a1.217 1.217 0 0 1-1.723 0 1.217 1.217 0 0 1 0-1.722l4.16-4.16.215-.212c.722-.726.8-1.562.512-2.242a2.56 2.56 0 0 0-1.305-1.304c-.68-.29-1.516-.211-2.238.515l-.418.414-13.653 13.653a1.217 1.217 0 0 1-1.722 0M48.727 34.55a1.217 1.217 0 0 0 0-1.723L35.074 19.176l-.414-.414c-.726-.727-.805-1.563-.512-2.242.118-.282.301-.543.528-.774.23-.226.492-.41.773-.527.68-.293 1.516-.215 2.242.511l4.371 4.372c.477.476 1.25.476 1.723 0a1.217 1.217 0 0 0 0-1.723l-4.16-4.16c-.723-.723-.8-1.559-.512-2.242.121-.278.305-.543.532-.77.226-.227.492-.41.77-.531.683-.29 1.519-.211 2.241.511l4.375 4.376a1.224 1.224 0 0 0 1.723 0 1.217 1.217 0 0 0 0-1.723l-4.16-4.16c-.727-.727-.805-1.563-.512-2.242.117-.282.3-.543.531-.774.227-.226.489-.41.77-.531.68-.29 1.52-.211 2.242.512l4.371 4.375c.477.476 1.25.476 1.727 0a1.224 1.224 0 0 0 0-1.723L50.852 6.43v-.004c-.723-.723-.801-1.559-.512-2.238.12-.282.3-.543.531-.774.227-.227.492-.41.77-.531.683-.29 1.52-.211 2.242.512l11.101 11.101q.374.374.59.766.217.397.328.906l1.38 6.289c.038.238.152.465.335.648l11.106 11.106-11.93 11.93-7.902-7.903h-.004a1.22 1.22 0 0 0-1.227-.297l-7.816 2.5c-.492.157-.98.207-1.453.149a3.3 3.3 0 0 1-1.368-.492l-2.382-1.457Zm-8.32 23.062 1.769-2.886a5.76 5.76 0 0 0 .832-2.348 5.7 5.7 0 0 0-.254-2.469l-2.274-7.113 2.391-2.39 2.887 1.769a5.76 5.76 0 0 0 2.347.832 5.7 5.7 0 0 0 2.47-.254l7.112-2.274 2.391 2.391-1.77 2.887a5.8 5.8 0 0 0-.831 2.347 5.8 5.8 0 0 0 .253 2.47l2.274 7.112-2.39 2.391-2.887-1.77a5.8 5.8 0 0 0-2.348-.831 5.8 5.8 0 0 0-2.469.253l-7.113 2.274Zm-5.856-5.855 4.09 4.09 1.46-2.387a3.4 3.4 0 0 0 .489-1.367c.058-.473.008-.961-.149-1.453l-2.5-7.817a1.22 1.22 0 0 1 .301-1.226h-.004l7.903-7.907-11.926-11.93-11.11 11.106a1.2 1.2 0 0 1-.648.34l-6.285 1.375a3.4 3.4 0 0 0-.91.332c-.262.14-.512.336-.766.586L3.395 46.602c-.723.722-.801 1.562-.512 2.242.12.281.305.543.531.77.23.23.492.413.773.53.68.29 1.516.211 2.239-.511l2.87-2.867a1.217 1.217 0 0 1 1.724 0 1.217 1.217 0 0 1 0 1.722l-2.868 2.867-1.507 1.504c-.723.727-.801 1.563-.512 2.243a2.56 2.56 0 0 0 1.305 1.3c.68.293 1.515.215 2.238-.511l4.164-4.16a1.224 1.224 0 0 1 1.723 0c.472.476.472 1.25 0 1.722l-4.16 4.164-.216.211c-.722.723-.8 1.563-.511 2.242.12.282.3.543.531.77.227.23.488.41.77.531.68.29 1.515.211 2.238-.508l4.164-4.164a1.217 1.217 0 0 1 1.723 0 1.217 1.217 0 0 1 0 1.723l-4.164 4.164-.208.21c-.726.724-.804 1.56-.511 2.24a2.558 2.558 0 0 0 1.3 1.305c.68.288 1.516.21 2.243-.513l.414-.418 13.652-13.652a1.217 1.217 0 0 1 1.723 0m33.418 28.715c1.14 1.433 1.195 3.066.605 4.445a4.92 4.92 0 0 1-2.586 2.586 4.44 4.44 0 0 1-2.015.363 4.5 4.5 0 0 1-.364 1.594 4.98 4.98 0 0 1-2.59 2.586 4.4 4.4 0 0 1-2.011.36A4.6 4.6 0 0 1 58.64 94a4.92 4.92 0 0 1-2.586 2.586c-1.067.457-2.285.527-3.446.008a4.862 4.862 0 0 1-1.273 2.2c-.438.436-.961.796-1.54 1.042-1.53.656-3.378.516-4.917-1.023L33.777 87.71a5.8 5.8 0 0 1-.996-1.324c-.265-.485-.453-1-.578-1.559l-1.308-5.976-10.883-10.883c-1.434 1.14-3.067 1.195-4.446.605a4.92 4.92 0 0 1-2.586-2.586 4.44 4.44 0 0 1-.363-2.015 4.5 4.5 0 0 1-1.59-.364 4.95 4.95 0 0 1-2.59-2.59 4.4 4.4 0 0 1-.359-2.011 4.6 4.6 0 0 1-1.594-.367 4.92 4.92 0 0 1-2.586-2.586c-.457-1.067-.527-2.285-.007-3.446a4.862 4.862 0 0 1-2.2-1.273 4.9 4.9 0 0 1-1.043-1.54c-.656-1.53-.515-3.378 1.024-4.917l11.101-11.102a5.796 5.796 0 0 1 2.883-1.574l5.977-1.308 10.883-10.883c-1.141-1.434-1.196-3.067-.606-4.446a4.92 4.92 0 0 1 2.586-2.586 4.4 4.4 0 0 1 2.016-.359c.02-.55.148-1.09.363-1.594a4.95 4.95 0 0 1 2.59-2.59 4.4 4.4 0 0 1 2.012-.359c.023-.55.152-1.09.367-1.594a4.92 4.92 0 0 1 2.586-2.586c1.066-.457 2.285-.527 3.449-.007q.088-.335.223-.657c.25-.578.609-1.105 1.046-1.543S50.11.895 50.691.648c1.528-.656 3.375-.515 4.914 1.024l11.102 11.101a5.796 5.796 0 0 1 1.574 2.883l1.309 5.977 10.883 10.883c1.433-1.141 3.066-1.196 4.445-.606a4.92 4.92 0 0 1 2.586 2.586c.27.633.406 1.32.363 2.016a4.5 4.5 0 0 1 1.59.363 4.95 4.95 0 0 1 2.59 2.59c.27.633.402 1.316.36 2.012.55.023 1.09.152 1.593.367a4.92 4.92 0 0 1 2.586 2.586c.457 1.066.527 2.285.008 3.449q.333.088.656.223a4.93 4.93 0 0 1 2.586 2.59c.656 1.527.516 3.374-1.023 4.913L87.71 66.707c-.402.402-.836.73-1.328.996q-.718.398-1.555.578l-5.976 1.309Zm-2.14 1.254c.722.722.8 1.558.51 2.238a2.56 2.56 0 0 1-1.304 1.305c-.68.289-1.515.21-2.238-.512l-4.375-4.375a1.217 1.217 0 0 0-1.723 0 1.217 1.217 0 0 0 0 1.722l4.16 4.16c.723.723.801 1.563.512 2.243a2.4 2.4 0 0 1-.531.77 2.4 2.4 0 0 1-.77.53c-.683.29-1.52.212-2.242-.511l-.215-.211-4.16-4.16a1.217 1.217 0 0 0-1.723 0 1.217 1.217 0 0 0 0 1.722l4.16 4.16c.727.723.805 1.56.512 2.239a2.558 2.558 0 0 1-1.3 1.305c-.68.289-1.516.21-2.243-.512l-4.37-4.375a1.217 1.217 0 0 0-1.723 0 1.217 1.217 0 0 0 0 1.722l2.863 2.868.004.004c.722.722.8 1.558.512 2.238-.118.281-.301.547-.532.773-.226.227-.488.41-.77.532-.679.289-1.519.21-2.241-.512L35.5 85.988a3.3 3.3 0 0 1-.586-.765 3.4 3.4 0 0 1-.332-.907l-1.375-6.289a1.2 1.2 0 0 0-.34-.648L21.762 66.273l11.93-11.93 7.906 7.907v-.004c.312.309.78.438 1.226.297l7.817-2.5c.492-.156.98-.207 1.453-.148q.704.087 1.367.492l2.387 1.457-4.09 4.09a1.217 1.217 0 0 0 0 1.722L65.41 81.31c.07.07.153.132.235.183q.073.123.183.235m0 0"/></g></svg>