<svg xmlns="http://www.w3.org/2000/svg" width="135" height="135" version="1.0" viewBox="0 0 101.25 101.25"><defs><clipPath id="a"><path d="M.313 0h99.761v100.504H.313Zm0 0"/></clipPath></defs><g clip-path="url(#a)"><path fill="#1d1d1d" d="M8.43 86.96h51.699c1.621 2.165 3.351 3.985 5.309 5.247l.046 6.836a1.419 1.419 0 0 0 1.418 1.41h.04l23.374-.629c.387-.011.75-.176 1.012-.46.258-.286.39-.665.367-1.052l-.453-7.05c1.692-1.98 3.922-4.797 3.836-7.864l-.363-13.437a4.79 4.79 0 0 0-1.5-3.375 4.8 4.8 0 0 0-3.45-1.324 4.8 4.8 0 0 0-2.355.691c-.472-1.281-1.297-2.27-2.398-2.836a4.48 4.48 0 0 0-4.235.094c-.578-2.086-2.53-3.645-4.742-3.582a4.23 4.23 0 0 0-2.008.562l-.05-1.793h20.136a6.09 6.09 0 0 0 6.082-6.086v-9.68a6.09 6.09 0 0 0-6.082-6.085H68.664V35.52c0-4.477-3.644-8.118-8.121-8.118h-4.578v-7.14c0-5.813-2.211-11.063-6.23-14.782C45.48 1.543 39.683-.36 33.417.13c-5.344.41-10.23 2.578-13.762 6.101-3.718 3.715-5.687 8.567-5.687 14.032v7.14h-5.54c-4.476 0-8.12 3.641-8.12 8.118v43.324c0 4.476 3.644 8.117 8.12 8.117m67.683-24.495c.922-.02 1.961.773 1.992 1.957l.09 3.367q-.015.465.028.953l.109 3.942c.02.773.652 1.382 1.418 1.382h.04a1.425 1.425 0 0 0 1.382-1.46l-.11-3.946-.023-.832c.055-.926.402-1.656.996-2.058.52-.352 1.145-.399 1.68-.125.797.41 1.277 1.468 1.316 2.902l.04 1.652q.002.007.003.008v.004l.11 4.035c.02.77.652 1.379 1.418 1.379h.039a1.413 1.413 0 0 0 1.379-1.457l-.11-4.027v-.004a1.995 1.995 0 0 1 1.934-2.035 1.96 1.96 0 0 1 1.414.546c.387.364.605.856.617 1.387l.363 13.442c.063 2.203-2.097 4.71-3.527 6.375a1.42 1.42 0 0 0-.34 1.015l.395 6.156-20.454.551-.039-6.183a1.43 1.43 0 0 0-.73-1.235c-1.984-1.101-3.766-2.996-5.465-5.344a1.3 1.3 0 0 0-.152-.207c-1.805-2.527-3.52-5.554-5.285-8.671-.961-1.696-1.953-3.45-2.973-5.137-.828-1.367-1.094-2.524-.727-3.176.297-.531 1.11-.867 2.121-.875h.032c1.55 0 3.054.742 3.672 1.809l6.3 10.925a1.423 1.423 0 0 0 2.652-.75l-.808-29.964a1.98 1.98 0 0 1 .547-1.418 1.985 1.985 0 0 1 3.418 1.309l.48 17.85v.013l.125 4.695c.024.77.653 1.383 1.418 1.383q.023.001.04-.004a1.42 1.42 0 0 0 1.382-1.457l-.125-4.696c-.066-2.418.668-3.941 1.918-3.976m21.242-19.832v9.68a3.25 3.25 0 0 1-3.242 3.246h-20.21l-.188-6.977a4.83 4.83 0 0 0-4.95-4.687 4.76 4.76 0 0 0-3.367 1.5 4.78 4.78 0 0 0-1.328 3.449l.184 6.715h-9.871a3.247 3.247 0 0 1-3.238-3.246v-9.68a3.247 3.247 0 0 1 3.238-3.246h39.73a3.25 3.25 0 0 1 3.242 3.246M16.81 20.262c0-9.426 6.921-16.543 16.828-17.301 5.468-.426 10.504 1.21 14.168 4.605 3.43 3.172 5.32 7.684 5.32 12.696v7.14h-3.578v-7.14c0-4.297-1.563-7.89-4.516-10.399-2.574-2.187-6.054-3.39-9.8-3.39-7.376 0-14.844 4.734-14.844 13.789v7.14h-3.578Zm6.421 7.14v-7.14c0-7.188 6.036-10.95 12-10.95 3.075 0 5.903.965 7.965 2.715 2.297 1.95 3.512 4.797 3.512 8.235v7.14ZM3.148 35.52a5.286 5.286 0 0 1 5.282-5.278h52.113a5.286 5.286 0 0 1 5.281 5.278v1.027H54.383c-3.352 0-6.082 2.73-6.082 6.086v9.68c0 3.355 2.73 6.085 6.082 6.085h9.945l.399 14.809-3.5-6.07c-1.141-1.977-3.559-3.242-6.18-3.23-2.063.011-3.777.882-4.586 2.327-.629 1.125-1.008 3.086.777 6.036.996 1.648 1.98 3.382 2.93 5.062 1.336 2.36 2.648 4.672 4.004 6.79H8.43a5.286 5.286 0 0 1-5.282-5.278Zm25.836 21.5v9.214a5.383 5.383 0 0 0 5.38 5.375c2.96 0 5.37-2.41 5.37-5.375v-9.21a9.35 9.35 0 0 0 3.938-7.602c0-5.137-4.176-9.313-9.309-9.313s-9.308 4.176-9.308 9.313a9.35 9.35 0 0 0 3.93 7.598m5.38-14.07c3.566 0 6.464 2.902 6.464 6.472 0 2.3-1.234 4.445-3.226 5.598a1.42 1.42 0 0 0-.707 1.23v9.984a2.536 2.536 0 0 1-2.532 2.536 2.54 2.54 0 0 1-2.539-2.536V56.25c0-.508-.27-.977-.707-1.23a6.49 6.49 0 0 1-3.222-5.598c0-3.57 2.902-6.473 6.468-6.473m26.98 4.14-.664.383.664.382a1.42 1.42 0 0 1-1.418 2.461l-.664-.382v.765c0 .785-.637 1.422-1.422 1.422a1.42 1.42 0 0 1-1.418-1.422v-.77l-.672.387c-.68.391-1.547.16-1.941-.52a1.424 1.424 0 0 1 .523-1.94l.664-.383-.664-.383a1.42 1.42 0 1 1 1.418-2.461l.672.387v-.77c0-.785.633-1.418 1.418-1.418s1.422.633 1.422 1.418v.766l.664-.383a1.42 1.42 0 0 1 1.937.523c.395.676.16 1.547-.52 1.938m25.808.765.664-.382-.664-.383a1.42 1.42 0 0 1-.52-1.938 1.424 1.424 0 0 1 1.942-.523l.664.383v-.766c0-.785.637-1.418 1.418-1.418.785 0 1.422.633 1.422 1.418v.77l.668-.387c.68-.39 1.55-.156 1.942.523.39.676.16 1.547-.52 1.938l-.664.383.664.382a1.422 1.422 0 0 1-1.422 2.46l-.668-.385v.77a1.421 1.421 0 1 1-2.84 0v-.766l-.664.382c-.68.391-1.547.16-1.941-.52-.39-.679-.16-1.546.52-1.94m-10.941 0 .664-.382-.664-.383a1.422 1.422 0 0 1 1.422-2.461l.664.383v-.766c0-.785.637-1.418 1.418-1.418.785 0 1.422.633 1.422 1.418v.77l.672-.387a1.42 1.42 0 0 1 1.937.523c.395.676.16 1.547-.52 1.938l-.663.383.664.382a1.42 1.42 0 0 1-1.418 2.461l-.672-.386v.77a1.421 1.421 0 1 1-2.84 0v-.766l-.664.382c-.68.391-1.547.16-1.942-.52a1.427 1.427 0 0 1 .52-1.94m0 0"/></g></svg>