<svg id="Capa_1" data-name="Capa 1" xmlns="http://www.w3.org/2000/svg" viewBox="0 0 512 512"><defs><style>.cls-1{fill:#e83876;}.cls-2{fill:#dd0162;}.cls-3,.cls-4{fill-rule:evenodd;}.cls-4{fill:#fff;}</style></defs><rect class="cls-1" x="85.04" y="85.04" width="341.92" height="341.92" transform="translate(-106.04 256) rotate(-45)"/><path class="cls-2" d="M256,0,0,256,256,512,512,256Zm0,14.22L497.78,256,256,497.78,14.22,256Z"/><path class="cls-3" d="M86.58,200.84c4.08.37,8.17.94,12.28,1.09,6.66.27,13.35.42,20,.36,12.25-.12,24.16-2.65,35.94-5.75a167.94,167.94,0,0,0,58.63-28c5.9-4.42,11.13-9.72,16.68-14.61l1.59-1.39c1,3.21,1.93,6.23,2.84,9.27a396.37,396.37,0,0,1,11.22,47.45A229.32,229.32,0,0,1,249,257.05c-.59,13.32-2.69,26.35-7.56,38.84-5.37,13.71-13.39,25.34-26,33.41a20.09,20.09,0,0,1-10.58,3.24c-15.18.43-28.72-4.31-41.28-12.42-14.06-9.1-25.46-20.94-35.38-34.27-13.56-18.2-23.71-38.27-32.18-59.23-3.3-8.18-6.3-16.46-9.44-24.69ZM152,287.57c-.08.18-.14.36-.22.54a49.76,49.76,0,0,0,15.32,8.9,48.49,48.49,0,0,0,30.42.69C217.27,292,229,273.72,230.8,261c-1.25,1.09-2.26,2-3.31,2.89-4.83,4-9.5,8.11-14.54,11.79-6.33,4.61-13,8.79-20.75,10.54a122,122,0,0,1-18.32,2.32,117.22,117.22,0,0,1-13.64-.26c-2.76-.12-5.52-.48-8.27-.74m75-57.76c-4.27-6-14.2-9.35-20.74-6.9s-12.61,11.55-12,18c2.14-2,4.2-3.76,6.08-5.7,4-4.09,8.56-6.41,14.4-6,4.15.3,8.28.39,12.22.57m-58.47,19.48c-4.56-6-13.94-9.31-20.62-7.15-6.51,2.1-12.18,10.35-12.39,18.38,1.93-1.86,3.61-3.58,5.4-5.19,4-3.61,8.09-7.14,13.9-7,4.58.11,9.16.63,13.71,1"/><path class="cls-3" d="M300.13,387.43c-2.27-.29-4.56-.5-6.82-.88-5.08-.85-8.92-4-12.62-7.22-11.16-9.81-18.05-22.34-22.4-36.34-3.59-11.56-5.77-23.39-5.45-35.57.24-9.52.16-19.07.78-28.56A185.31,185.31,0,0,1,259,245.6c3.06-12.12,6.49-24.15,9.76-36.21.22-.81.54-1.6.92-2.74,1.52,1.27,3,2.27,4.17,3.5,18.38,18.54,40.71,30.43,65.2,38.6A155.59,155.59,0,0,0,370.84,256a190.94,190.94,0,0,0,23.81.83c6.64-.08,13.28-.88,19.92-1.35v1.09c-1.21,3.27-2.41,6.55-3.63,9.82-9.17,24.49-19.95,48.19-34.83,69.82-8.64,12.56-18.42,24.09-30.46,33.55-10.16,8-21.33,14-34.18,16.4-3.61.67-7.31.85-11,1.24Zm44.41-31.11a48.94,48.94,0,0,0-36.77-37.59C292,315.06,278,319,265.55,329.06c4.76-.09,9.47-.52,14.18-.57,7.51-.09,15-.05,22.43,1.57,11.27,2.47,20.87,8.28,29.73,15.38,4.3,3.45,8.37,7.18,12.65,10.88M273.3,284.18c6.27-1.11,12.37-2.68,18.59-.62s10.24,7.05,14.66,11.78c-.28-7.44-4.24-16.36-13.31-18.9-5.74-1.61-16.42,2.34-19.94,7.74M365,314.37c-.52-8.33-5.88-16.18-12.18-17.87-8.25-2.22-17.13,2-20.54,7.36,2.59-.4,5.19-.94,7.83-1.21,5.87-.6,11.54,0,16.31,3.9,2.23,1.85,4.26,4,6.39,5.93.6.57,1.24,1.08,2.19,1.89"/><path class="cls-4" d="M152,287.57c2.75.26,5.51.62,8.27.73a119.48,119.48,0,0,0,13.64.27,122.34,122.34,0,0,0,18.33-2.33c7.69-1.74,14.42-5.92,20.74-10.53,5-3.68,9.72-7.84,14.54-11.8,1.05-.87,2.06-1.79,3.31-2.88C229,273.72,217.26,292,197.48,297.7a48.56,48.56,0,0,1-30.42-.69,50.08,50.08,0,0,1-15.32-8.9c.08-.18.15-.36.22-.54"/><path class="cls-4" d="M227,229.8c-3.94-.17-8.08-.27-12.22-.57-5.85-.41-10.45,1.92-14.4,6-1.89,1.93-3.94,3.71-6.08,5.69-.65-6.48,5.54-15.64,11.95-18s16.47.95,20.75,6.9"/><path class="cls-4" d="M168.54,249.29c-4.55-.33-9.13-.85-13.71-1-5.81-.14-9.92,3.39-13.9,7-1.79,1.61-3.47,3.33-5.4,5.19.21-8,5.88-16.28,12.39-18.38,6.68-2.16,16.06,1.12,20.62,7.15"/><path class="cls-4" d="M344.54,356.32c-4.28-3.7-8.34-7.43-12.64-10.88-8.87-7.1-18.46-12.91-29.73-15.38-7.4-1.62-14.93-1.66-22.44-1.57-4.71.05-9.42.48-14.18.57,12.41-10.1,26.49-14,42.22-10.33a48.93,48.93,0,0,1,36.77,37.59"/><path class="cls-4" d="M273.3,284.18c3.51-5.4,14.19-9.35,19.94-7.74,9.06,2.54,13,11.46,13.31,18.9-4.43-4.73-8.4-9.71-14.67-11.78s-12.31-.49-18.58.62"/><path class="cls-4" d="M365,314.37c-.95-.81-1.59-1.32-2.19-1.89-2.13-2-4.16-4.08-6.39-5.93-4.77-3.95-10.44-4.5-16.31-3.9-2.64.27-5.24.81-7.83,1.21,3.41-5.33,12.29-9.58,20.54-7.36,6.3,1.69,11.66,9.54,12.18,17.87"/></svg>