<svg xmlns="http://www.w3.org/2000/svg" viewBox="0 0 512 512"><path fill="#319fd9" d="M5.937 258.688 253.343 5.957l252.724 247.399-247.406 252.731z"/><g fill="#2d3071"><path d="M258.74 512 0 258.74 253.26 0 512 253.26zM11.88 258.61l246.74 241.52 241.5-246.74L253.39 11.87zm346.18 42.87-3.12 7.06a69 69 0 0 1-3.73 6.95l-2.23 3.87c-.81 1.28-1.77 2.5-2.65 3.76l-2.65 3.77-2.89 3.39a68 68 0 0 1-5.32 5.86l-5.58 5.33 4.78 5.51 6-5.72a72 72 0 0 0 5.69-6.27l3.1-3.64 2.84-4 2.84-4 2.39-4.13a76 76 0 0 0 4-7.47l3.33-7.56zM324.08 346l4.36 5.82c.17.25-8.74 5.93-8.74 5.94l-3.78-6.23s8.32-5.29 8.16-5.53m-14.92 9.25 3.32 6.49-1.47.75-3.26 1.62-4.91 2-2.66-6.76 4.58-1.84c1.14-.46 2.2-1.11 3-1.51l1.36-.71m53.66-70.45 7.13 1.46-1.13 5.16-.42 1.89c-.13.6-.37 1.14-.52 1.61l-.52 1.57-7-2.13.49-1.47.49-1.5c.19-.55.25-1.17.38-1.76l1.06-4.83m-69.56 76.99-2 .6-5.39 1.49-7.79 1.46c-2.85.48-5.95.57-9 .89l-2.31.2h-2.3l-4.45-.07c-1.44-.05-2.86.05-4.16-.12l-3.72-.43-5.56-.63-2.08-.43-1.32 7.17s.81.21 2.23.44l5.95.69 4 .46c1.4.17 2.92.09 4.46.14l4.78.07h2.45l2.47-.19 9.66-1 8.33-1.56c2.43-.51 4.38-1.22 5.78-1.59l2.18-.64zm-55.97 1.3-1.83 7.05s-.65-.11-1.6-.37l-3.45-1.13-5-1.64 2.5-6.85 4.69 1.53 3.22 1.06 1.5.35m-31.66-14.29-1.74-1.22c-1.08-.81-2.74-1.8-4.51-3.3l-6-5.16-6.34-6.49a102 102 0 0 1-10.21-13.52 48 48 0 0 1-2.92-4.77l-1-1.89-6.42 3.45 1.05 2a59 59 0 0 0 3.12 5.11 108.5 108.5 0 0 0 11 14.48l6.78 6.95 6.42 5.53c1.89 1.59 3.68 2.66 4.84 3.53l1.85 1.32z"/><path d="m220.68 357.24-3 6.63-1.51-.68a35 35 0 0 1-3.28-1.54l-4.6-2.61 3.63-6.3 4.3 2.43a32 32 0 0 0 3.06 1.44l1.41.63m-51.05-51.35-6.66 3-2-4.9-1.35-3.38a7.3 7.3 0 0 1-.39-1.13l-.13-.44 6.9-2.32.13.42a6.6 6.6 0 0 0 .36 1.05l1.26 3.15 1.84 4.58m-8.47-33.69-.18-2.1a38 38 0 0 1-.12-5.59l.24-7.91 1-9 1.94-8.85c.62-2.85 1.66-5.34 2.32-7.56a38 38 0 0 1 1.92-5.25l.85-1.94-6.69-2.88-.92 2.08a46 46 0 0 0-2.06 5.63l-2.48 8.09-2.06 9.49-1.12 9.65c-.36 3.08-.16 6-.26 8.46a43 43 0 0 0 .12 6l.19 2.27zM163.9 289.29l-7.06 1.78a16 16 0 0 1-.44-1.59l-.67-3.56-1-5.21 7.21-1.08.91 4.84.62 3.34a13 13 0 0 0 .41 1.48m8.4-71.93-6.47-3.36 2.6-4.61 1.8-3.15a11 11 0 0 1 .91-1.39l6.12 4a9 9 0 0 0-.86 1.28l-4.1 7.24m21.01-27.65 1.54-1.47a48 48 0 0 1 4.31-3.55 100 100 0 0 1 14-9.51l8.09-4.09 7.34-2.94c2.15-.84 4-1.23 5.33-1.66l2-.59-1.93-7-2.18.64-5.71 1.78-7.88 3.15-8.65 4.39a108 108 0 0 0-15 10.16 53 53 0 0 0-4.6 3.82l-1.65 1.57zM181.67 202.52l-5.79-4.41a12 12 0 0 1 1-1.33l2.37-2.75 3.45-4 5.34 5-3.22 3.73-2.22 2.57a10 10 0 0 0-.92 1.23m61.47-38.27-1.41-7.14 5.2-1a31 31 0 0 1 3.61-.42l1.65-.15.7 7.26-1.53.13a28 28 0 0 0-3.37.38l-4.85.92m34.71-.87a30 30 0 0 0 2.1.27l5.47 1.21 3.65.79c1.31.26 2.61.81 4 1.23l4.24 1.38 2.19.71 2.1.92 8.25 3.77 6.87 3.9c2 1.18 3.49 2.4 4.62 3.15l1.74 1.21 4.3-5.88-1.86-1.3-4.95-3.37-7.38-4.18c-2.72-1.47-5.82-2.66-8.83-4l-2.27-1-2.33-.77-4.54-1.48-4.27-1.31-3.91-.86-5.85-1.28a20 20 0 0 0-2.26-.29zM260.6 162.34l-.16-7.28 5.29.07 3.63.05a16 16 0 0 1 1.64.16l-.55 7.26a14 14 0 0 0-1.53-.14h-3.39l-4.93-.08m68.22 24.17 4.7-5.55 4 3.45c1 .86 1.86 1.88 2.57 2.57l1.15 1.2-5.24 5.07-1-1.12c-.66-.64-1.44-1.61-2.4-2.4l-3.73-3.22m22.36 26.54s.1.16.26.49l.72 1.39 2.57 5a65 65 0 0 1 3.14 7.25l1.63 4.15c.52 1.42.86 2.94 1.29 4.42l1.3 4.43c.43 1.43.58 2.95.86 4.37.46 2.85 1.21 5.47 1.27 7.79l.67 7.69 7.28-.3-.72-8.24c-.08-2.49-.85-5.29-1.35-8.36l-.93-4.69c-.38-1.58-.93-3.14-1.39-4.73l-1.38-4.74c-.45-1.57-1.19-3-1.75-4.45a75 75 0 0 0-3.36-7.77l-2.76-5.32-.77-1.49a5 5 0 0 0-.28-.52zM341.2 199l5.58-4.67s6.62 8.26 6.38 8.42l-6 4.11c.24-.16-5.94-7.86-5.94-7.86m23.61 68.41 7.28.22v1.65a23 23 0 0 1-.22 3.63l-.6 5.25-7.22-.92.56-4.91a21 21 0 0 0 .21-3.38v-1.54"/></g><g fill-rule="evenodd"><path d="M147.43 248.1h12.07l.13 4.67c-.1 1.55.35 2.2 2 2.47A47 47 0 0 1 166 347c-2.85.77-5.78 1.18-8.68 1.77h-7.61a7 7 0 0 0-1.25-.37 47.06 47.06 0 0 1-7.23-92.22c1.93-.52 4.66-.35 5.61-1.58s.41-4 .52-6a2 2 0 0 1 .12-.43M194 298.41c-.69-18.87-17.62-38.3-41.44-37.72-24.41.6-39.34 21.22-39.5 37.86h5.62v6.12H113c.16 18.75 18.46 37.07 37.45 37.4v-5.75h6.19v5.8c22.41-1.35 37.25-21.24 37.29-37.59h-5.61v-6.12z"/><path fill="#fff" d="M194 298.41h-5.68v6.12h5.6c0 16.34-14.88 36.24-37.28 37.59v-5.81h-6.24v5.76c-19-.33-37.28-18.65-37.44-37.4h5.69v-6.12H113c.16-16.64 15.1-37.27 39.5-37.86 23.82-.58 40.75 18.85 41.44 37.72m-58.35-15.13c-.14.15-.28.3-.43.44l10.91 14.11a6.74 6.74 0 0 1 1.17 3.56c.12 3.31 2.13 6.28 5.2 6.11 2.92-.16 4.69 1.33 6.66 2.85l7 5.5 5.17 3.94a3.06 3.06 0 0 0-.75-1.91l-9.82-12.72a6.23 6.23 0 0 1-1.11-3.35 6.12 6.12 0 0 0-6.43-6.45 7.64 7.64 0 0 1-3.37-1.11 24.5 24.5 0 0 1-3-2.29l-11.21-8.68m21.16-9.47h-.45l-3.86-7.51c-1.51-2.91-1.62-2.95-5.08-2.21v15.16h2.85v-10.42a48.3 48.3 0 0 1 4.6 8.17c1 2.34 2.39 2.91 4.67 2.21V264h-2.69z"/><path d="m135.63 283.28 11.2 8.68a23.4 23.4 0 0 0 3 2.28 7.7 7.7 0 0 0 3.38 1.12 6.13 6.13 0 0 1 6.44 6.45 6 6 0 0 0 1.11 3.35c3.18 4.3 6.53 8.49 9.81 12.72a3.05 3.05 0 0 1 .74 1.91l-5.15-3.94-7-5.5c-2-1.52-3.74-3-6.66-2.85s-5.08-2.8-5.2-6.11a6.7 6.7 0 0 0-1.18-3.56c-3.54-4.77-7.25-9.42-10.89-14.11l.43-.44m21.12-9.47V264h2.69v15.26c-2.28.7-3.7.13-4.67-2.21a48.3 48.3 0 0 0-4.56-8.18v10.46h-2.85v-15.2c3.46-.74 3.57-.7 5.08 2.21l3.86 7.51h.45"/><path fill="#fff" d="M284.89 185.35a23.33 23.33 0 1 1 0-.03"/></g><path d="m299.72 161.3-1.88-1.81c-8.52-13.34-19.94-24.21-34.6-24.46-20.44-1.13-35.1 11.65-45.24 26.97a12.8 12.8 0 0 1-2.88 4.23 13 13 0 0 1-.76 1.18c-.11.25-.2.52-.32.76l.35-.31c-11.42 19.86-15.86 41.36-15.86 41.36h119.29s-5.1-23.17-16.38-43.6a13.8 13.8 0 0 1-1.72-4.26m-52.66 41.13 14.83-30.36 13.82 30.36z"/><path fill="#fff" d="M283.06 308.31s7.16-3.75 11.42.4 2.63 60.1 2.63 60.1-17.39 2.51-17.7-8.56 3.65-51.94 3.65-51.94m82.65.8s10.82-4.55 15.08-.4.42 55 .42 55-15.17 7.58-15.49-3.48 0-51.15 0-51.15"/><path fill="#1e1e1c" d="M379.82 308v51.52a5.73 5.73 0 1 1-11.42 0v-51.34a21 21 0 0 0-5.55 2.4 11 11 0 0 0 .13-1.29V299a6 6 0 0 0-.06-.61 39 39 0 0 0 5.48-1.25c10.28-3.42 9.71-14.27 9.71-14.27v-21.1H353.3a18.38 18.38 0 0 0-3.3-11.06c-3.24-4.41-8.49-6.63-15.59-6.63-7.87 0-13.94 2.2-18 6.53a19 19 0 0 0-5 11.16h-29.78V280c0 13.82 16 16.93 17 17.12a9.6 9.6 0 0 0-.18 1.87v10.27c0 .22 0 .43.06.64-1.16-.41-2.54-.84-4.06-1.22v50.76a5.73 5.73 0 1 1-11.42 0v-51.13c-4.17 1-7.95 3.66-10 9.4-6.27 17.69-5.71 65.08 48.52 66.22s60.51-16.56 63.94-24.55c3-7.09 15.5-46.42-5.71-51.43m-56.71-51.13c2.32-2.4 6.13-3.62 11.33-3.62 4 0 6.79 1 8.23 2.9a9.57 9.57 0 0 1 1.49 5.67h-23.48a9.67 9.67 0 0 1 2.47-4.95m-4.42 53.79a13 13 0 0 0-1.27.39 8.7 8.7 0 0 0 .18-1.71v-8.71a235 235 0 0 0 26.25-.19v8.9c0 .25.06.49.08.74-6.17-1-20.95-.46-25.24.58"/><path fill="#fff" d="M318.76 310.61a11 11 0 0 0-1.27.4 9.6 9.6 0 0 0 .17-1.71v-8.72a233 233 0 0 0 26.26-.18v8.9a6 6 0 0 0 .08.73c-6.18-1-20.95-.45-25.24.58"/></svg>