<svg id="Capa_1" data-name="Capa 1" xmlns="http://www.w3.org/2000/svg" viewBox="0 0 512 512"><defs><style>.cls-1{fill:#319fd9;}.cls-2{fill:#2d3071;}.cls-3,.cls-4{fill-rule:evenodd;}.cls-4,.cls-5{fill:#fff;}.cls-6{fill:#1e1e1c;}</style></defs><rect class="cls-1" x="79.17" y="79.17" width="353.67" height="353.66" transform="translate(-106.02 259.88) rotate(-45.61)"/><path class="cls-2" d="M258.74,512,0,258.74,253.26,0,512,253.26ZM11.88,258.61,258.62,500.13l241.5-246.74L253.39,11.87Z"/><path class="cls-2" d="M358.06,301.48s-1.26,2.82-3.12,7.06a68.78,68.78,0,0,1-3.73,6.95c-.74,1.26-1.42,2.59-2.23,3.87s-1.77,2.5-2.65,3.76l-2.65,3.77c-.95,1.18-2,2.29-2.89,3.39a68.32,68.32,0,0,1-5.32,5.86l-5.58,5.33,4.78,5.51s2.39-2.3,6-5.72a72.16,72.16,0,0,0,5.69-6.27c1-1.18,2.08-2.37,3.1-3.64l2.84-4,2.84-4c.87-1.37,1.62-2.8,2.39-4.13a76.13,76.13,0,0,0,4-7.47l3.33-7.56Z"/><path class="cls-2" d="M324.08,346l4.36,5.82c.17.25-8.74,5.93-8.74,5.94l-3.78-6.23s8.32-5.29,8.16-5.53"/><path class="cls-2" d="M309.16,355.25l3.32,6.49-1.47.75c-.89.44-2,1.12-3.26,1.62-2.45,1-4.91,2-4.91,2l-2.66-6.76,4.58-1.84c1.14-.46,2.2-1.11,3-1.51l1.36-.71"/><path class="cls-2" d="M362.78,284.84l7.13,1.46s-.56,2.58-1.13,5.16c-.13.64-.29,1.29-.42,1.89s-.37,1.14-.52,1.61l-.52,1.57-7-2.13s.19-.59.49-1.47c.13-.44.3-.95.49-1.5s.25-1.17.38-1.76c.53-2.43,1.06-4.83,1.06-4.83"/><path class="cls-2" d="M293.18,361.83s-.74.23-2,.6-3.13,1-5.39,1.49L278,365.38c-2.85.48-5.95.57-9,.89l-2.31.2-2.3,0-4.45-.07c-1.44-.05-2.86.05-4.16-.12l-3.72-.43-5.56-.63c-1.33-.22-2.08-.43-2.08-.43l-1.32,7.17s.81.21,2.23.44l5.95.69,4,.46c1.4.17,2.92.09,4.46.14l4.78.07h2.45l2.47-.19c3.29-.34,6.61-.45,9.66-1l8.33-1.56c2.43-.51,4.38-1.22,5.78-1.59l2.18-.64Z"/><path class="cls-2" d="M237.21,363.13l-1.83,7.05s-.65-.11-1.6-.37l-3.45-1.13-5-1.64,2.5-6.85,4.69,1.53,3.22,1.06c.89.24,1.5.35,1.5.35"/><path class="cls-2" d="M205.58,348.84l-1.74-1.22c-1.08-.81-2.74-1.8-4.51-3.3l-6-5.16c-2.13-2-4.17-4.29-6.34-6.49a101.82,101.82,0,0,1-10.21-13.52,48.25,48.25,0,0,1-2.92-4.77c-.63-1.2-1-1.89-1-1.89l-6.42,3.45,1.05,2a58.92,58.92,0,0,0,3.12,5.11,108.51,108.51,0,0,0,11,14.48c2.31,2.36,4.51,4.85,6.78,6.95l6.42,5.53c1.89,1.59,3.68,2.66,4.84,3.53l1.85,1.32Z"/><path class="cls-2" d="M220.68,357.24l-3,6.63-1.51-.68a35.08,35.08,0,0,1-3.28-1.54l-4.6-2.61,3.63-6.3,4.3,2.43a31.85,31.85,0,0,0,3.06,1.44l1.41.63"/><path class="cls-2" d="M169.64,305.89l-6.66,3-2-4.9c-.5-1.23-1-2.46-1.35-3.38a7.3,7.3,0,0,1-.39-1.13c-.09-.28-.13-.44-.13-.44l6.9-2.32.13.42a6.57,6.57,0,0,0,.36,1.05c.34.86.81,2,1.26,3.15l1.84,4.58"/><path class="cls-2" d="M161.13,272.23s-.07-.76-.18-2.1a37.94,37.94,0,0,1-.12-5.59c.1-2.31-.08-5,.24-7.91s.68-5.94,1-9c.65-3,1.32-6,1.94-8.85s1.66-5.34,2.32-7.56a37.72,37.72,0,0,1,1.92-5.25l.85-1.94-6.69-2.88-.92,2.08a46.23,46.23,0,0,0-2.06,5.63c-.71,2.37-1.8,5.06-2.48,8.09s-1.36,6.26-2.06,9.49c-.39,3.28-.76,6.57-1.12,9.65s-.16,6-.26,8.46a43.3,43.3,0,0,0,.12,6c.12,1.45.19,2.27.19,2.27Z"/><path class="cls-2" d="M163.9,289.29l-7.06,1.78a15.49,15.49,0,0,1-.44-1.59c-.17-1-.43-2.27-.67-3.56l-1-5.21,7.21-1.08s.45,2.42.91,4.84c.23,1.22.45,2.43.62,3.34a13.21,13.21,0,0,0,.41,1.48"/><path class="cls-2" d="M172.28,217.36,165.81,214l2.6-4.61,1.8-3.15a11,11,0,0,1,.91-1.39l6.12,4a9,9,0,0,0-.86,1.28c-.46.8-1.06,1.88-1.67,2.95-1.22,2.14-2.43,4.29-2.43,4.29"/><path class="cls-2" d="M193.29,189.72l1.54-1.47a48.21,48.21,0,0,1,4.31-3.55,100.14,100.14,0,0,1,14-9.51c2.75-1.38,5.44-2.92,8.09-4.09l7.34-2.94c2.15-.84,4-1.23,5.33-1.66l2-.59-1.93-7-2.18.64c-1.37.45-3.41.88-5.71,1.78l-7.88,3.15c-2.82,1.26-5.71,2.9-8.65,4.39a108.13,108.13,0,0,0-15,10.16,52.45,52.45,0,0,0-4.6,3.82l-1.65,1.57Z"/><path class="cls-2" d="M181.67,202.52l-5.79-4.41a12.3,12.3,0,0,1,1-1.33l2.37-2.75,3.45-4,5.34,5-3.22,3.73-2.22,2.57a10.28,10.28,0,0,0-.92,1.23"/><path class="cls-2" d="M243.15,164.29l-1.41-7.14,5.2-1a30.92,30.92,0,0,1,3.61-.42l1.65-.15.7,7.26-1.53.13a28,28,0,0,0-3.37.38l-4.85.92"/><path class="cls-2" d="M277.86,163.4s.77.06,2.1.27l5.47,1.21,3.65.79c1.31.26,2.61.81,4,1.23s2.8.9,4.24,1.38l2.19.71c.71.29,1.4.62,2.1.92,2.8,1.3,5.7,2.4,8.25,3.77l6.87,3.9c2,1.18,3.49,2.4,4.62,3.15l1.74,1.21,4.3-5.88-1.86-1.3c-1.2-.8-2.82-2.1-4.95-3.37l-7.38-4.18c-2.72-1.47-5.82-2.66-8.83-4-.75-.33-1.5-.68-2.27-1l-2.33-.77-4.54-1.48c-1.48-.45-2.87-1-4.27-1.31l-3.91-.86-5.85-1.28a20,20,0,0,0-2.26-.29Z"/><path class="cls-2" d="M260.6,162.34l-.16-7.28,5.29.07,3.63.05a15.57,15.57,0,0,1,1.64.16l-.55,7.26a14.29,14.29,0,0,0-1.53-.14l-3.39,0-4.93-.08"/><path class="cls-2" d="M328.82,186.55l4.7-5.55,4,3.45c1,.86,1.86,1.88,2.57,2.57l1.15,1.2L336,193.29,335,192.17c-.66-.64-1.44-1.61-2.4-2.4l-3.73-3.22"/><path class="cls-2" d="M351.23,213.09s.1.16.26.49.42.79.72,1.39l2.57,5a65.42,65.42,0,0,1,3.14,7.25c.52,1.35,1.11,2.73,1.63,4.15s.86,2.94,1.29,4.42.87,3,1.3,4.43.58,2.95.86,4.37c.46,2.85,1.21,5.47,1.27,7.79.4,4.61.67,7.69.67,7.69l7.28-.3s-.29-3.3-.72-8.24c-.08-2.49-.85-5.29-1.35-8.36-.31-1.52-.55-3.11-.93-4.69s-.93-3.14-1.39-4.73-.93-3.17-1.38-4.74-1.19-3-1.75-4.45a74.54,74.54,0,0,0-3.36-7.77l-2.76-5.32c-.33-.64-.58-1.14-.77-1.49a5.41,5.41,0,0,0-.28-.52Z"/><path class="cls-2" d="M341.2,199l5.58-4.67s6.62,8.26,6.38,8.42l-6,4.11c.24-.16-5.94-7.86-5.94-7.86"/><path class="cls-2" d="M364.83,267.41l7.28.22s0,.66,0,1.65a23,23,0,0,1-.22,3.63l-.6,5.25-7.22-.92.56-4.91a21.05,21.05,0,0,0,.21-3.38c0-.93,0-1.54,0-1.54"/><path class="cls-3" d="M147.43,248.1H159.5c.05,1.56.23,3.12.13,4.67s.35,2.2,2,2.47A47,47,0,0,1,166,347c-2.85.77-5.78,1.18-8.68,1.77h-7.61a6.89,6.89,0,0,0-1.25-.37,47.06,47.06,0,0,1-7.23-92.22c1.93-.52,4.66-.35,5.61-1.58s.41-4,.52-6a2.11,2.11,0,0,1,.12-.43M194,298.41c-.69-18.87-17.62-38.3-41.44-37.72-24.41.6-39.34,21.22-39.5,37.86h5.62v6.12H113c.16,18.75,18.46,37.07,37.45,37.4v-5.75h6.19v5.8c22.41-1.35,37.25-21.24,37.29-37.59h-5.61v-6.12Z"/><path class="cls-4" d="M194,298.41h-5.68v6.12h5.6c0,16.34-14.88,36.24-37.28,37.59v-5.81H150.4v5.76c-19-.33-37.28-18.65-37.44-37.4h5.69v-6.12H113c.16-16.64,15.1-37.27,39.5-37.86,23.82-.58,40.75,18.85,41.44,37.72m-58.35-15.13c-.14.15-.28.3-.43.44,3.65,4.69,7.35,9.35,10.91,14.11a6.74,6.74,0,0,1,1.17,3.56c.12,3.31,2.13,6.28,5.2,6.11,2.92-.16,4.69,1.33,6.66,2.85,2.34,1.84,4.67,3.69,7,5.5,1.71,1.33,3.44,2.62,5.17,3.94a3.06,3.06,0,0,0-.75-1.91c-3.29-4.23-6.62-8.42-9.82-12.72a6.23,6.23,0,0,1-1.11-3.35,6.12,6.12,0,0,0-6.43-6.45,7.64,7.64,0,0,1-3.37-1.11,24.48,24.48,0,0,1-3-2.29l-11.21-8.68m21.16-9.47-.45,0-3.86-7.51c-1.51-2.91-1.62-2.95-5.08-2.21v15.16h2.85V268.83A48.28,48.28,0,0,1,154.8,277c1,2.34,2.39,2.91,4.67,2.21V264h-2.69Z"/><path class="cls-3" d="M135.63,283.28l11.2,8.68a23.35,23.35,0,0,0,3,2.28,7.69,7.69,0,0,0,3.38,1.12,6.13,6.13,0,0,1,6.44,6.45,6,6,0,0,0,1.11,3.35c3.18,4.3,6.53,8.49,9.81,12.72a3.05,3.05,0,0,1,.74,1.91c-1.71-1.32-3.45-2.61-5.15-3.94-2.36-1.82-4.69-3.67-7-5.5-2-1.52-3.74-3-6.66-2.85s-5.08-2.8-5.2-6.11a6.69,6.69,0,0,0-1.18-3.56c-3.54-4.77-7.25-9.42-10.89-14.11l.43-.44"/><path class="cls-3" d="M156.78,273.81V264h2.69v15.26c-2.28.7-3.7.13-4.67-2.21a48.28,48.28,0,0,0-4.56-8.18v10.46h-2.85V264.13c3.46-.74,3.57-.7,5.08,2.21l3.86,7.51.45,0"/><path class="cls-4" d="M284.89,185.35A23.33,23.33,0,1,1,261.57,162a23.33,23.33,0,0,1,23.32,23.32"/><path d="M299.72,161.3l-1.88-1.81c-8.52-13.34-19.94-24.21-34.6-24.46C242.8,133.9,228.14,146.68,218,162h0a12.77,12.77,0,0,1-2.88,4.23,13.18,13.18,0,0,1-.76,1.18c-.11.25-.2.52-.32.76l.35-.31,0,0c-11.42,19.86-15.86,41.36-15.86,41.36H317.82s-5.1-23.17-16.38-43.6a13.77,13.77,0,0,1-1.72-4.26m-52.66,41.13,14.83-30.36,13.82,30.36Z"/><path class="cls-5" d="M283.06,308.31s7.16-3.75,11.42.4,2.63,60.1,2.63,60.1-17.39,2.51-17.7-8.56,3.65-51.94,3.65-51.94"/><path class="cls-5" d="M365.71,309.11s10.82-4.55,15.08-.4.42,55,.42,55-15.17,7.58-15.49-3.48,0-51.15,0-51.15"/><path class="cls-6" d="M379.82,308v51.52a5.73,5.73,0,1,1-11.42,0V308.18a21,21,0,0,0-5.55,2.4,11.05,11.05,0,0,0,.13-1.29V299a5.73,5.73,0,0,0-.06-.61,39,39,0,0,0,5.48-1.25c10.28-3.42,9.71-14.27,9.71-14.27V261.77H353.3A18.38,18.38,0,0,0,350,250.71c-3.24-4.41-8.49-6.63-15.59-6.63-7.87,0-13.94,2.2-18,6.53a19,19,0,0,0-5,11.16H281.63V280c0,13.82,16,16.93,17,17.12a9.56,9.56,0,0,0-.18,1.87v10.27c0,.22,0,.43.06.64-1.16-.41-2.54-.84-4.06-1.22v50.76a5.73,5.73,0,1,1-11.42,0V308.31c-4.17,1-7.95,3.66-10,9.4-6.27,17.69-5.71,65.08,48.52,66.22s60.51-16.56,63.94-24.55c3-7.09,15.5-46.42-5.71-51.43m-56.71-51.13c2.32-2.4,6.13-3.62,11.33-3.62,4,0,6.79,1,8.23,2.9a9.57,9.57,0,0,1,1.49,5.67H320.64a9.67,9.67,0,0,1,2.47-4.95m-4.42,53.79a13.12,13.12,0,0,0-1.27.39,8.7,8.7,0,0,0,.18-1.71v-8.71a235.19,235.19,0,0,0,26.25-.19v8.9c0,.25.06.49.08.74-6.17-1-20.95-.46-25.24.58"/><path class="cls-5" d="M318.76,310.61a10.91,10.91,0,0,0-1.27.4,9.62,9.62,0,0,0,.17-1.71v-8.72a233,233,0,0,0,26.26-.18v8.9a5.82,5.82,0,0,0,.08.73c-6.18-1-20.95-.45-25.24.58"/></svg>