<svg xmlns="http://www.w3.org/2000/svg" id="Capa_1" data-name="Capa 1" viewBox="0 0 512 512"><defs><style>.cls-3{fill-rule:evenodd}</style></defs><path d="M85.04 85.04h341.92v341.92H85.04z" style="fill:#ded300" transform="rotate(-45 256 256.002)"/><path d="M256 0 0 256l256 256 256-256Zm0 14.22L497.78 256 256 497.78 14.22 256Z" style="fill:#b9870f"/><path d="M185.49 228.12c-8 5.49-15.11 4.58-23.19 2.25-4.19-1.22-10 1.34-14.53 3.52-6.44 3.11-8 3.13-11.79-2.85a18.3 18.3 0 0 0-4.35-4.29c-5.33-4.08-5.49-9-.14-12.93 4.6-3.4 9.34-6.61 14.11-9.79s9-6.21 11.07-12.32c1.06-3.15 5.54-5.54 9-7.42a126 126 0 0 1 16.16-7.29c4.16-1.58 6.06-3.78 5.37-8.51-.56-3.91-.12-8-.12-12.52 9.17 2.11 16.67 6.12 21.54 14.38 1.14 1.91 2.53 4.09 4.39 5.17 22.72 13 33.84 32.83 36 58.59 1.66 20.17 0 39.75-7.06 58.83-1.76 4.79-4.27 6.8-9.74 6.69-21.84-.3-43.71-.17-65.56.13-4.75.07-6.73-1.28-7.33-6.11-1.61-12.77 1.61-24.55 7.59-35.47 5.44-10 11.94-19.39 18.62-30.06M281.91 293.5c1.18-3 1.44-5.8 2.94-7.26 19.77-19.19 21.95-43.48 20.39-68.91-.13-2.09-.62-4.17-1.1-7.09h-15.82v-21c3.28-.17 6.56-.36 10.43-.55-5.53-15.3-17.87-22.36-31.64-28.66 10.43-12.22 23.6-12.15 36.35-9.74 3.8-6.71 7.3-12.86 11-19.4-7.38-8.7-8.08-16.14-1.32-22.12a13.93 13.93 0 0 1 19.48 1c5.81 6.25 4.76 13.76-2.48 21.08 3.64 6.25 7.18 12.33 11.28 19.35 12.23-2.21 25.57-2.64 36.2 9.68-13.45 6.3-25.79 13.43-31.72 28.51 4.68 0 6.23 2.17 5.79 6.58-.49 4.79-.13 9.65-.13 14.78-4 .26-7.31.44-11.3.68-5.62 26.57-3.61 51.4 13.27 73.79 1.83 2.44 2.74 5.57 4.52 9.31ZM363.5 327c11.66 1.32 14.54 4.61 14.54 16.42v20.19h-110.7c0-9.66-.49-19.55.21-29.35.39-5.51 5.25-7.2 9.69-7-1.58-3.93-4.08-7.77-4.56-11.88-1.12-9.16 4-14.33 13.28-14.34 22.71 0 45.4.08 68.12-.06 6.11-.05 11.63.55 14.17 7.07s1.72 12.47-3.7 17.38a7.6 7.6 0 0 0-1.05 1.57M244.62 326.88c7.51 1.48 9.4 6.8 8.95 14-.4 7-.08 13.95-.08 21.4h-111c0-9.25-.67-18.55.35-27.68.37-3.34 4.72-6.25 7.29-9.36l1.35.78a60 60 0 0 1-1.35-6.68c-.74-7.08 3.46-12.14 10.41-12.16q36.91-.13 73.78 0c7 0 10.94 4 11.15 11.1a72 72 0 0 1-.8 8.57" class="cls-3"/></svg>