<svg xmlns="http://www.w3.org/2000/svg" id="Capa_1" data-name="Capa 1" viewBox="0 0 512 512"><defs><style>.cls-3{fill-rule:evenodd}</style></defs><path d="M85.04 85.04h341.92v341.92H85.04z" style="fill:#dcecf4" transform="rotate(-45 256 256.002)"/><path d="M256 0 0 256l256 256 256-256Zm0 14.22L497.78 256 256 497.78 14.22 256Z" style="fill:#0093c4"/><path d="M249.26 162.52c2.78-7.24.57-10.37-6.13-12.69-14.24-4.94-20.27-16.05-14.54-29.82s14-26.45 21.6-39.35c2.84-4.82 7.42-5 10.32-.14 7.63 12.87 15.94 25.57 21.68 39.32s-.24 25.06-14.27 29.93c-6.57 2.26-9.14 5.22-6.48 12.51 6.52 1.15 13.63 1.7 20.25 3.79a117.3 117.3 0 0 1 23.66 9.82c8.68 5 13.51 12.9 13.48 23.59-.12 61.83 0 123.65-.12 185.49 0 15-8.59 23.46-23.5 23.55q-39.69.24-79.38 0c-15-.09-23.67-8.4-23.69-23.35-.16-62.15 0-124.27-.1-186.41 0-10.73 5.18-18.83 14.08-23.18 10.07-4.91 21.11-7.86 31.85-11.3 3.71-1.19 7.78-1.25 11.29-1.76m1.19 10.87c-14.79 1-27.58 3.43-39 10.82-5.73 3.73-8.91 8.54-8.89 16 .2 61.45.09 122.9.15 184.35 0 9.46 3.93 13.8 13.16 13.88q39.65.27 79.27 0c8.85-.07 12.93-4.36 13-13.17q.12-93.08-.13-186.18c0-3.61-1.48-8.3-4-10.67C292 177 277 174.26 260.39 173.85c0 6 .48 10.91-.25 15.71-.31 2-3.13 3.69-4.83 5.52-1.61-1.91-4.32-3.65-4.64-5.73-.71-4.77-.22-9.73-.22-16M257 91.59h-3.3c-5.29 10.91-11.45 21.5-15.66 32.84-3.39 9.07 1.84 14.75 9.86 15.08l7.09-12.1c2.65 4 5.29 8 8.22 12.35 9.07-2.19 13-7.11 9.38-16.29-4.28-11-10.3-21.27-15.59-31.85" class="cls-3"/><path d="M250.45 173.4c0 6.23-.49 11.18.22 15.95.32 2.08 3 3.83 4.65 5.74 1.69-1.83 4.52-3.51 4.81-5.53.73-4.79.25-9.74.25-15.7C277 174.27 292 177 304 188.38c2.52 2.38 4 7.07 4 10.68q.39 93.07.13 186.18c0 8.81-4.1 13.1-13 13.16q-39.63.3-79.28 0c-9.22-.08-13.13-4.43-13.16-13.89-.05-61.44.06-122.9-.14-184.35 0-7.42 3.16-12.24 8.9-16 11.41-7.4 24.19-9.87 39-10.82m4.38 52.17c11.52-2.84 22.42-4.65 32.58-8.43 5-1.84 9.2-6.92 12.36-11.51 1.31-1.85-1.07-6.28-1.79-9.54-2.39 1.58-5.75 2.64-7.06 4.87-9.28 15.84-60.94 16.68-70.41.91-.46-.77-.37-2.13-1-2.51-2.07-1.3-4.34-2.26-6.54-3.38-1 2.34-3.51 5.68-2.71 6.86 3.19 4.91 6.52 11.21 11.38 13.23 10.53 4.39 22 6.48 33.16 9.5" style="fill-rule:evenodd;fill:#fff"/><path d="M257 91.59c5.29 10.58 11.31 20.86 15.59 31.85 3.61 9.18-.31 14.1-9.38 16.29-2.93-4.38-5.57-8.37-8.22-12.35l-7.09 12.1c-8-.33-13.25-6-9.86-15.08 4.21-11.34 10.37-21.93 15.66-32.84h3.3" style="fill-rule:evenodd;fill:#f9e927"/><path d="M254.83 225.57c-11.12-3-22.63-5.11-33.16-9.5-4.86-2-8.19-8.32-11.38-13.23-.8-1.18 1.7-4.52 2.71-6.86 2.2 1.12 4.47 2.08 6.54 3.38.6.38.51 1.74 1 2.51 9.47 15.77 61.13 14.93 70.41-.91 1.31-2.23 4.67-3.29 7.06-4.87.72 3.26 3.1 7.69 1.79 9.54-3.16 4.59-7.4 9.67-12.36 11.51-10.16 3.78-21.06 5.59-32.58 8.43" class="cls-3"/></svg>