<svg xmlns="http://www.w3.org/2000/svg" id="Capa_1" data-name="Capa 1" viewBox="0 0 512 512"><defs><style>.cls-4{fill-rule:evenodd}.cls-4,.cls-5{fill:#f9e927}</style></defs><path d="M85.04 85.04h341.92v341.92H85.04z" style="fill:#7dba32" transform="rotate(-45 256 256.002)"/><path d="M256 0 0 256l256 256 256-256Zm0 14.22L497.78 256 256 497.78 14.22 256Z" style="fill:#13a646"/><path d="M365.07 373H144c-.62-1.86-1.77-3.72-1.78-5.57q-.16-45.81 0-91.62a8.07 8.07 0 0 1 2.08-5 66 66 0 0 0 14-22.23c4.72-12.09 5.83-24.69 5.59-37.55a301.4 301.4 0 0 0-6.72-58.83c-1.19-5.46-.9-6.26 4.15-8.66 12.66-6 25.33-12 38-18.12a17 17 0 0 0 2.84-2.2h5.75c.84 2 1.75 4 2.51 6 8 21.3 16.3 42.47 28.19 62A88 88 0 0 0 249.2 205c4.15 4.48 6.49 4.42 10.56-.22a104 104 0 0 0 10.76-14.58c12.8-21.15 21.36-44.28 30.65-67.05h5.75a16.3 16.3 0 0 0 2.64 2q19.24 9.24 38.52 18.38c4.13 2 4.81 3.32 4.21 7.08-2.09 13.2-4.63 26.37-6 39.65-1.5 14.26-2.3 28.66.26 42.93 2.46 13.64 7.46 26.16 17.29 36.26a10.34 10.34 0 0 1 3.16 7.95q-.15 42.28-.05 84.58c0 3.77.35 7.6-1.88 11m-7.56-64c0-8.82-.14-17.31.06-25.81a15 15 0 0 0-3.66-10.85c-12.32-14.81-17.42-32.44-18-51.37a293 293 0 0 1 5.63-65.33c.9-4.65.91-4.64-4-6.5L298.11 309Zm-190.8-157.51c.21 1.19.36 2.13.55 3.06 4.65 23.68 7.24 47.54 5.52 71.68-1.31 18.29-7.34 34.83-19.65 48.8a7 7 0 0 0-1.5 4.22c-.13 8.83-.08 17.67-.06 26.5 0 1 .11 2.07.18 3.21h59.18c-13.16-53.39-26.25-106.54-39.39-159.87-1.38.62-2.36 1-3.31 1.49a17 17 0 0 0-1.52.91m141.2-17-1.29.16c-.36.87-.73 1.73-1.08 2.61-8.28 20.85-16.88 41.57-28.76 60.71-4 6.52-8.42 12.87-15 17.17a4.48 4.48 0 0 0-2.32 4.33q.1 43 .05 85.91c0 1.14.1 2.28.15 3.37 6.34 1 6.33 1 7.71-4.63q8.83-35.72 17.65-71.45 11.72-47.49 23.34-95c.23-1-.28-2.12-.45-3.19m-58.35 174.16v-3.57c0-27.47-.05-54.94.08-82.41 0-3.72-.47-6.26-4-8.56-6.94-4.47-11.14-11.61-15.31-18.54-10.48-17.36-18.21-36-25.54-54.84q-1.19-3.06-2.36-6.12h-1.21c-.18 1.05-.71 2.17-.48 3.12 3 12.5 6.1 25 9.17 37.45q15.9 64.5 31.83 129c1.32 5.38 1.4 5.36 6.95 4.89a4.8 4.8 0 0 0 .92-.41m-.15 42.24h-97.7v12.53h97.65Zm10.21 12.37h97.61v-12.35h-97.66Z" style="fill-rule:evenodd"/><path d="M301.17 123.16c-9.29 22.77-17.85 45.9-30.66 67.05a103.7 103.7 0 0 1-10.76 14.58c-4.07 4.65-6.4 4.7-10.56.22a87 87 0 0 1-10.59-13.89c-11.89-19.5-20.23-40.66-28.2-62-.75-2-1.67-4-2.51-6ZM357.51 309h-59.4q19.74-80.11 39.4-159.86c4.9 1.86 4.9 1.86 4 6.5a293.2 293.2 0 0 0-5.64 65.36c.62 18.92 5.73 36.55 18 51.36a15 15 0 0 1 3.67 10.86c-.21 8.49-.07 17-.07 25.8M166.71 151.47a16 16 0 0 1 1.52-.9c1-.47 1.93-.88 3.31-1.5 13.14 53.33 26.23 106.48 39.39 159.87h-59.18c-.07-1.14-.18-2.17-.18-3.21 0-8.83-.07-17.66.07-26.49a6.92 6.92 0 0 1 1.5-4.23c12.31-14 18.33-30.51 19.64-48.8 1.72-24.14-.86-48-5.52-71.68-.19-.93-.34-1.87-.55-3.06M307.91 134.49c.17 1.06.68 2.21.45 3.18q-11.6 47.52-23.35 95-8.79 35.72-17.65 71.45c-1.38 5.6-1.37 5.6-7.7 4.63-.05-1.1-.16-2.23-.16-3.37v-85.91a4.46 4.46 0 0 1 2.32-4.33c6.58-4.3 11-10.65 15-17.18 11.87-19.14 20.47-39.85 28.76-60.71.34-.87.72-1.73 1.08-2.61.43 0 .86-.09 1.29-.15M249.56 308.63a4.8 4.8 0 0 1-.92.41c-5.56.47-5.63.48-7-4.9q-15.93-64.5-31.82-129c-3.07-12.47-6.18-24.95-9.17-37.45-.23-.94.29-2.07.47-3.12h1.21l2.37 6.11c7.33 18.84 15.06 37.49 25.54 54.85 4.17 6.92 8.36 14.06 15.3 18.54 3.58 2.29 4.07 4.84 4.06 8.56-.13 27.46-.08 54.93-.08 82.4Z" class="cls-4"/><path d="M151.76 350.86h97.64v12.53h-97.64zM259.62 350.89h97.61v12.34h-97.61z" class="cls-5"/></svg>