<svg xmlns="http://www.w3.org/2000/svg" id="Capa_1" data-name="Capa 1" viewBox="0 0 512 512"><defs><style>.cls-4{fill-rule:evenodd}</style></defs><path d="M85.04 85.04h341.92v341.92H85.04z" style="fill:#e83876" transform="rotate(-45 256 256.002)"/><path d="M256 0 0 256l256 256 256-256Zm0 14.22L497.78 256 256 497.78 14.22 256Z" style="fill:#dd0162"/><path d="M439.92 254.54c0 12.27-7.66 22.21-17.13 22.21H94.25c-9.46 0-17.13-9.94-17.13-22.21s7.67-22.21 17.13-22.21h328.54c9.47 0 17.13 9.94 17.13 22.21" style="fill:#fff"/><path d="M87.35 225.49v-23.4l339 .67c0 7.86-.06 15.5-.1 23.48l-338.89-.75M418.11 284.09c-.74 1.13-1.24 1.91-1.76 2.66-2.36 3.38-4.89 6.65-7 10.15-5.19 8.49-13.17 12.29-22.63 12.7-11.37.49-22.77.22-34.15.2q-111-.19-221.92-.53a52.2 52.2 0 0 1-13.05-2 21.44 21.44 0 0 1-12.64-9.46c-3-4.71-6.31-9.28-9.79-14.39l323 .66" class="cls-4"/><path d="m446.3 223.61-14-10.1-.41 19.21-351-.8c0-8.06 0-15.7.07-23.73-.85.7-1.4 1.11-1.89 1.57-4.11 3.84-8.18 7.7-12.34 11.49a4.78 4.78 0 0 0-1.72 3.89c.07 11.39 0 22.78 0 34.17v16.81l366 .7h9v-.08h7.24ZM118.61 266a5 5 0 0 1-.29 1c-9.45-.05-18.95-.08-28.84-.12v-26.21h6.74l20.16.06c1.23 0 2.28 0 2.24 1.82-.09 7.82 0 15.64-.06 23.46m50.91 1.22c-9.84-.06-19.29-.1-29.12-.14v-26.22l29.12.11zm50.87-18.14v16.11c0 1.23 0 2.11-1.7 2.09-8.77-.11-17.54-.11-26.31-.16a6.4 6.4 0 0 1-1.14-.26c0-8.59.05-17.16.06-26l29.12.13v8m51 18.33-29.13-.12v-26.25l29.11.15v26.22m50.84.06-29.12-.13v-26.23l29.11.12v26.24m50.9.22-29.08-.08v-26.21l29.12.11v26.25m50.85-2c0 1 .23 2.08-1.45 2.07-9.07-.1-18.15-.12-27.65-.16v-24.2c0-1-.16-2 1.48-2 9.08.08 18.15.09 27.4.13a17 17 0 0 1 .24 1.93v22.27" class="cls-4"/></svg>