<svg id="Capa_1" data-name="Capa 1" xmlns="http://www.w3.org/2000/svg" viewBox="0 0 512 512"><defs><style>.cls-1{fill:#e83876;}.cls-2{fill:#dd0162;}.cls-3{fill:#fff;}.cls-4{fill-rule:evenodd;}</style></defs><rect class="cls-1" x="85.04" y="85.04" width="341.92" height="341.92" transform="translate(-106.04 256) rotate(-45)"/><path class="cls-2" d="M256,0,0,256,256,512,512,256Zm0,14.22L497.78,256,256,497.78,14.22,256Z"/><path class="cls-3" d="M439.92,254.54c0,12.27-7.66,22.21-17.13,22.21H94.25c-9.46,0-17.13-9.94-17.13-22.21s7.67-22.21,17.13-22.21H422.79c9.47,0,17.13,9.94,17.13,22.21"/><path class="cls-4" d="M87.35,225.49c0-7.93,0-15.5,0-23.4l339,.67c0,7.86-.06,15.5-.1,23.48l-338.89-.75"/><path class="cls-4" d="M418.11,284.09c-.74,1.13-1.24,1.91-1.76,2.66-2.36,3.38-4.89,6.65-7,10.15-5.19,8.49-13.17,12.29-22.63,12.7-11.37.49-22.77.22-34.15.2q-111-.19-221.92-.53a52.22,52.22,0,0,1-13.05-2,21.44,21.44,0,0,1-12.64-9.46c-3-4.71-6.31-9.28-9.79-14.39l323,.66"/><path class="cls-4" d="M446.3,223.61l-14-10.1-.41,19.21-351-.8c0-8.06,0-15.7.07-23.73-.85.7-1.4,1.11-1.89,1.57-4.11,3.84-8.18,7.7-12.34,11.49a4.78,4.78,0,0,0-1.72,3.89c.07,11.39,0,22.78,0,34.17,0,5.52,0,11,0,16.81l366,.7h9s0,0,0-.08l7.24,0ZM118.61,266a5,5,0,0,1-.29,1c-9.45-.05-18.95-.08-28.84-.12,0-8.89,0-17.4,0-26.21,2.39,0,4.56,0,6.74,0l20.16.06c1.23,0,2.28,0,2.24,1.82-.09,7.82,0,15.64-.06,23.46m50.91,1.22c-9.84-.06-19.29-.1-29.12-.14,0-8.75,0-17.3,0-26.22l29.12.11c0,8.75,0,17.3,0,26.25m50.87-18.14c0,5.37,0,10.74,0,16.11,0,1.23,0,2.11-1.7,2.09-8.77-.11-17.54-.11-26.31-.16a6.41,6.41,0,0,1-1.14-.26c0-8.59.05-17.16.06-26l29.12.13c0,2.88,0,5.46,0,8m51,18.33-29.13-.12c0-8.81,0-17.38,0-26.25l29.11.15c0,8.79,0,17.35,0,26.22m50.84.06-29.12-.13c0-8.84,0-17.39,0-26.23l29.11.12c0,8.83,0,17.4,0,26.24m50.9.22L344,267.53c0-8.8,0-17.31,0-26.21l29.12.11c0,8.8,0,17.42,0,26.25m50.85-2c0,1,.23,2.08-1.45,2.07-9.07-.1-18.15-.12-27.65-.16,0-3.14,0-6,0-8.78,0-5.15,0-10.27,0-15.42,0-1-.16-2,1.48-2,9.08.08,18.15.09,27.4.13a17.17,17.17,0,0,1,.24,1.93q0,11.13,0,22.27"/></svg>