<svg xmlns="http://www.w3.org/2000/svg" id="Capa_1" data-name="Capa 1" viewBox="0 0 512 512"><defs><style>.cls-3{fill:#1e1e1c}.cls-4{fill:#f7fbfd}</style></defs><path d="M85.04 85.04h341.92v341.92H85.04z" style="fill:#ab7cb1" transform="rotate(-45 256 256.002)"/><path d="M256 0 0 256l256 256 256-256Zm0 14.22L497.78 256 256 497.78 14.22 256Z" style="fill:#25204d"/><path d="m19.32 254.36 117.32.56s29.44 43.82 42.7 43.69 22.18 2.55 28 9.92 24.14 27.12 38.93 20.6 5.94 10.91 25.83-21.93 25.77-43.57 49.33-40.22 59.64 2.68 59.64 2.68l20.47-20.44 96.24 6.78-92 92L256 497.78 14.22 256Z" class="cls-3"/><path d="M198.25 235.6 177.19 248l18.59 34.58s23.14 38.55 60.73 27.68c18.62-19.36 7.47-56.83 7.47-56.83l-22.74-40.52L220 224.23l2.21 10.88-8.67-8.41-10.84-16.37-7.41 4.67 9.8 14.68 2.55 11.87ZM191.83 207.92l6.42-4.93-3.22-7.92-3.2-12.85-24.1-44.97-17.57 11.37 24.05 42.01 11.09 8.53z" class="cls-3"/><path d="m192.33 400 28.32-7s8.25 10.45 30.94 15.18S298 409.57 297.3 415s-8.81 9.81-21 12-19.29-9.64-48.75 1.87c-5.42.34-48.77-5.32-35.22-28.9" class="cls-4"/><path d="M302.38 362.85c-2.64-3.32-7.35-5.37-12.39-6.68l-.14-.06h-.14a4 4 0 0 0-.38-.1 1 1 0 0 1 .19.07c-9.14-1.35-13.85-1.93-18.66-2h-2s-15.52-9.82-26.05-12.52-53.53 10.83-55.54 26.41a38.1 38.1 0 0 1-5.77 15.24c-4.74 6.77 1 19.64 15.58 16.25s31.49-12.19 47.07-3.72c13.08 7.11 58.24-17.95 58.24-17.95s7.78-5.08 0-14.9m-53.85 13.23-25.05 3.71s-7.45-9.15-4.74-16.6 13.54-7.11 24.78 0 5 12.89 5 12.89m41-2.05c-6.77 2.36-12.88-1.7-18.62-7.11-4.15-3.9-2.32-8.86-1-11.34 5.23.47 15.38 1.53 22.68 2.31a10.94 10.94 0 0 1 3 6.48s.67 7.29-6.1 9.66M329.67 346.52s-9.77-3.61-5.47-13.32 12.74-6.88 14.9-.81 4.29 3.2 7.81 2.09 25.22-10.35 25.22-10.35 7.64 4.9 11.15 4.57c-8.92 4.11-32.59 13.38-32.59 13.38a9.64 9.64 0 0 0-5.4 8.62c-.06 6.32-.21 8.37-7.53 10.71s-11.28-9-8.09-14.89M381.13 312.16l23.36-27a4.57 4.57 0 0 0 1.06-6c-2.11-3.55-6.38-10.18 3.5-16.22s12.76 10.65 12.76 10.65 16.36-3.18 13.19 12.24-16.7 5.58-16.7 5.58l-21.95 23.39s-3.21-6.71-15.22-2.66" class="cls-4"/></svg>