<svg id="Capa_1" data-name="Capa 1" xmlns="http://www.w3.org/2000/svg" viewBox="0 0 512 512"><defs><style>.cls-1{fill:#ab7cb1;}.cls-2{fill:#25204d;}.cls-3{fill:#1e1e1c;}.cls-4{fill:#f7fbfd;}</style></defs><rect class="cls-1" x="85.04" y="85.04" width="341.92" height="341.92" transform="translate(-106.04 256) rotate(-45)"/><path class="cls-2" d="M256,0,0,256,256,512,512,256Zm0,14.22L497.78,256,256,497.78,14.22,256Z"/><path class="cls-3" d="M19.32,254.36l117.32.56s29.44,43.82,42.7,43.69,22.18,2.55,28,9.92,24.14,27.12,38.93,20.6,5.94,10.91,25.83-21.93,25.77-43.57,49.33-40.22,59.64,2.68,59.64,2.68l20.47-20.44L497.78,256l-92,92L256,497.78,14.22,256Z"/><path class="cls-3" d="M198.25,235.6,177.19,248l18.59,34.58s23.14,38.55,60.73,27.68c18.62-19.36,7.47-56.83,7.47-56.83l-22.74-40.52L220,224.23l2.21,10.88-8.67-8.41L202.7,210.33,195.29,215l9.8,14.68,2.55,11.87Z"/><polygon class="cls-3" points="191.83 207.92 198.25 202.99 195.03 195.07 191.83 182.22 167.73 137.25 150.16 148.62 174.21 190.63 185.3 199.16 191.83 207.92"/><path class="cls-4" d="M192.33,400,220.65,393s8.25,10.45,30.94,15.18S298,409.57,297.3,415s-8.81,9.81-21,12-19.29-9.64-48.75,1.87c-5.42.34-48.77-5.32-35.22-28.9"/><path class="cls-4" d="M302.38,362.85c-2.64-3.32-7.35-5.37-12.39-6.68l-.14-.06-.14,0a3.49,3.49,0,0,0-.38-.1,1.07,1.07,0,0,1,.19.07c-9.14-1.35-13.85-1.93-18.66-2l0,0c-1.27,0-2,0-2,0s-15.52-9.82-26.05-12.52-53.53,10.83-55.54,26.41a38.12,38.12,0,0,1-5.77,15.24c-4.74,6.77,1,19.64,15.58,16.25s31.49-12.19,47.07-3.72c13.08,7.11,58.24-17.95,58.24-17.95s7.78-5.08,0-14.9m-53.85,13.23-25.05,3.71s-7.45-9.15-4.74-16.6,13.54-7.11,24.78,0,5,12.89,5,12.89m41-2.05c-6.77,2.36-12.88-1.7-18.62-7.11-4.15-3.9-2.32-8.86-1-11.34,5.23.47,15.38,1.53,22.68,2.31a10.94,10.94,0,0,1,3,6.48s.67,7.29-6.1,9.66"/><path class="cls-4" d="M329.67,346.52s-9.77-3.61-5.47-13.32,12.74-6.88,14.9-.81,4.29,3.2,7.81,2.09,25.22-10.35,25.22-10.35,7.64,4.9,11.15,4.57c-8.92,4.11-32.59,13.38-32.59,13.38a9.64,9.64,0,0,0-5.4,8.62c-.06,6.32-.21,8.37-7.53,10.71s-11.28-9-8.09-14.89"/><path class="cls-4" d="M381.13,312.16l23.36-27a4.57,4.57,0,0,0,1.06-6c-2.11-3.55-6.38-10.18,3.5-16.22s12.76,10.65,12.76,10.65,16.36-3.18,13.19,12.24-16.7,5.58-16.7,5.58l-21.95,23.39s-3.21-6.71-15.22-2.66"/></svg>