<svg id="Capa_1" data-name="Capa 1" xmlns="http://www.w3.org/2000/svg" viewBox="0 0 512 512"><defs><style>.cls-1,.cls-5{fill:#e72a71;}.cls-1,.cls-6,.cls-7{fill-rule:evenodd;}.cls-2{fill:#db0357;}.cls-3,.cls-6{fill:#fff;}.cls-4{fill:#1e1e1c;}</style></defs><polygon class="cls-1" points="258.72 505.64 5.98 258.26 253.37 5.52 506.1 252.91 258.72 505.64"/><path class="cls-2" d="M258.74,512l-3-2.93L0,258.74l2.94-3L253.26,0l3,2.94L512,253.26l-2.94,3ZM11.88,258.62l246.73,241.5L500.13,253.4,253.39,11.88Z"/><path class="cls-2" d="M361.33,280.29s-.77,2.94-1.9,7.36a66.7,66.7,0,0,1-2.49,7.36c-.51,1.33-1,2.74-1.55,4.11s-1.31,2.72-2,4.09l-2,4.08c-.72,1.31-1.53,2.54-2.26,3.76A63,63,0,0,1,345,317.6c-2.74,3.64-4.56,6.08-4.56,6.08l5.53,4.58,4.89-6.52a72,72,0,0,0,4.51-7c.78-1.31,1.64-2.64,2.41-4s1.42-2.91,2.12-4.38,1.41-2.94,2.11-4.38,1.11-3,1.65-4.4a70.67,70.67,0,0,0,2.66-7.9c1.22-4.73,2-7.89,2-7.89Z"/><path class="cls-2" d="M335.51,329l5.19,5c.2.2-7.55,7.16-7.55,7.16l-4.68-5.42s7.23-6.51,7-6.7"/><path class="cls-2" d="M322.52,340.43l4.27,5.75-1.31,1c-.79.56-1.79,1.4-2.9,2.09L318.13,352l-3.68-6.16,4.14-2.52c1-.64,2-1.43,2.72-2l1.21-.9"/><path class="cls-2" d="M363.22,263.35l7.16.27s-.12,2.6-.26,5.2c0,.65-.07,1.3-.11,1.91s-.17,1.16-.24,1.64c-.15,1-.25,1.61-.25,1.61l-7.11-1s.09-.59.24-1.5c.06-.45.14-1,.24-1.53s.06-1.18.08-1.78c.13-2.43.25-4.87.25-4.87"/><path class="cls-2" d="M308.06,349.41l-1.88.91c-1.22.53-2.87,1.48-5,2.31l-7.33,2.67c-2.68.93-5.68,1.52-8.6,2.33l-2.21.56-2.23.34-4.34.66c-1.41.19-2.76.5-4.07.55l-3.68.19c-2.27.1-4.18.2-5.5.27a20.13,20.13,0,0,1-2.08-.07l-.13,7.19s.81.07,2.23.07l5.9-.3,3.93-.2c1.4-.06,2.85-.4,4.36-.58l4.65-.71,2.39-.37,2.37-.6c3.14-.86,6.34-1.51,9.23-2.51l7.83-2.86c2.28-.89,4.07-1.89,5.37-2.47s2-1,2-1Z"/><path class="cls-2" d="M253.9,359.71l-.64,7.14s-.65,0-1.62-.1l-3.53-.53-5.16-.79,1.32-7.05,4.81.73,3.3.52c.91.07,1.52.08,1.52.08"/><path class="cls-2" d="M220.85,350.94,219,350c-1.17-.62-2.95-1.31-4.91-2.47l-6.66-4c-2.38-1.57-4.74-3.5-7.2-5.28a98.07,98.07,0,0,1-12.1-11.49,52.17,52.17,0,0,1-3.63-4.15l-1.24-1.68-5.68,4.38,1.34,1.79a55.11,55.11,0,0,0,3.87,4.46,105.83,105.83,0,0,0,13,12.3c2.63,1.91,5.16,4,7.7,5.65l7.14,4.33c2.1,1.24,4,2,5.27,2.65l2,1Z"/><path class="cls-2" d="M236.89,356.65,235,363.59l-1.57-.41c-.93-.29-2.23-.49-3.44-1l-4.89-1.79,2.51-6.71,4.56,1.66a29.14,29.14,0,0,0,3.22.92l1.47.37"/><path class="cls-2" d="M179,315l-6,4-2.71-4.44-1.85-3.06a7.77,7.77,0,0,1-.57-1c-.13-.26-.19-.4-.19-.4l6.33-3.36s.07.13.18.37a8.55,8.55,0,0,0,.53,1l1.74,2.86L179,315"/><path class="cls-2" d="M165.29,283.71s-.19-.73-.52-2a36.61,36.61,0,0,1-1-5.4c-.28-2.27-.89-4.87-1-7.72s-.3-5.88-.45-8.92c.15-3,.3-6.07.45-8.92s.76-5.46,1-7.71a39.91,39.91,0,0,1,1-5.41l.53-2-7-1.72s-.2.8-.55,2.17a43.18,43.18,0,0,0-1.09,5.8c-.3,2.42-.93,5.22-1.1,8.27s-.32,6.29-.48,9.55c.16,3.24.33,6.5.49,9.55s.79,5.84,1.11,8.26a44.13,44.13,0,0,0,1.07,5.79l.57,2.17Z"/><path class="cls-2" d="M170.74,299.84l-6.57,2.87a12.46,12.46,0,0,1-.67-1.48c-.35-.92-.79-2.14-1.24-3.36L160.47,293l6.82-2.23s.83,2.28,1.68,4.57c.41,1.14.83,2.28,1.13,3.13a12.22,12.22,0,0,0,.64,1.39"/><path class="cls-2" d="M167.24,228.61l-6.82-2.21s.9-2.45,1.79-4.9c.46-1.22.9-2.44,1.23-3.36a10.59,10.59,0,0,1,.67-1.49l6.58,2.87a9.33,9.33,0,0,0-.62,1.38c-.31.86-.74,2-1.15,3.15l-1.68,4.56"/><path class="cls-2" d="M183.2,198.36l1.25-1.68a49.7,49.7,0,0,1,3.61-4.14A99.55,99.55,0,0,1,200.16,181c2.47-1.78,4.82-3.71,7.21-5.28l6.65-4c2-1.17,3.74-1.86,4.92-2.47l1.88-.91-3-6.52-2,1c-1.27.65-3.18,1.4-5.27,2.65l-7.13,4.34c-2.55,1.68-5.09,3.73-7.71,5.65a105.66,105.66,0,0,0-13,12.31,53.59,53.59,0,0,0-3.87,4.45l-1.34,1.8Z"/><path class="cls-2" d="M174,212.68l-6.34-3.36a12.65,12.65,0,0,1,.75-1.44l1.86-3.06c1.34-2.23,2.7-4.46,2.7-4.46l6,3.95s-1.26,2.09-2.53,4.16l-1.73,2.86a10.6,10.6,0,0,0-.7,1.35"/><path class="cls-2" d="M227.52,165.59,225,158.87l4.89-1.78a28.86,28.86,0,0,1,3.44-1c.95-.26,1.57-.41,1.57-.41l1.87,6.93-1.47.37a28.54,28.54,0,0,0-3.22.92l-4.56,1.67"/><path class="cls-2" d="M261.1,159.11s.75-.08,2.09-.08,3.22.17,5.5.29l3.68.18c1.31,0,2.66.37,4.07.54s2.86.43,4.34.67c.74.11,1.48.23,2.23.33s1.47.38,2.2.56c2.93.81,5.92,1.4,8.62,2.33l7.32,2.67c2.12.83,3.78,1.78,5,2.31l1.88.91,3.24-6.41-2-1c-1.3-.57-3.09-1.58-5.37-2.46L296,157.11c-2.89-1-6.09-1.65-9.23-2.5-.79-.2-1.58-.43-2.37-.6l-2.39-.36-4.65-.71c-1.51-.2-3-.54-4.36-.58s-2.72-.15-3.93-.2l-5.91-.3c-1.42,0-2.22.08-2.22.08Z"/><path class="cls-2" d="M244.15,160.88l-1.32-7,5.14-.78c1.29-.21,2.58-.4,3.55-.54a14.37,14.37,0,0,1,1.61-.12l.64,7.14a13.78,13.78,0,0,0-1.51.11c-.9.14-2.1.33-3.3.5l-4.81.74"/><path class="cls-2" d="M314.33,173.37l3.7-6.16,4.44,2.71c1.12.66,2.11,1.52,2.91,2.08l1.3,1-4.26,5.78s-.49-.36-1.21-.92-1.67-1.33-2.71-1.94l-4.17-2.52"/><path class="cls-2" d="M340.4,195.53a3.36,3.36,0,0,1,.34.43l.92,1.24,3.3,4.41a63,63,0,0,1,4.22,6.53c.73,1.23,1.52,2.47,2.26,3.77s1.31,2.72,2,4.09,1.33,2.73,2,4.08,1,2.79,1.54,4.12c.91,2.69,2.06,5.11,2.49,7.36l1.9,7.35,7-1.47s-.81-3.14-2-7.88a72.78,72.78,0,0,0-2.66-7.9c-.55-1.42-1-2.93-1.67-4.4s-1.39-2.91-2.11-4.38-1.41-2.94-2.11-4.37-1.63-2.74-2.41-4a69.89,69.89,0,0,0-4.52-7c-1.46-2-2.69-3.58-3.54-4.73-.42-.57-.76-1-1-1.33l-.37-.46Z"/><path class="cls-2" d="M328.38,183.45l4.68-5.43s7.75,7,7.54,7.16l-5.17,4.95c.19-.19-7.05-6.68-7.05-6.68"/><path class="cls-2" d="M362.4,246.09l7.09-1s.11.65.25,1.62a21.92,21.92,0,0,1,.37,3.56c.14,2.59.27,5.19.27,5.19l-7.17.27-.24-4.85a21.57,21.57,0,0,0-.35-3.32c-.14-.91-.22-1.5-.22-1.5"/><path class="cls-3" d="M331.61,119.1c-4.06-4.07-13.18-9.6-28.78-1a76,76,0,0,0-14.6,11l-.76-.56v-19.9s10.38-.24,10.16-7.76c-.18-6.22-8.71-5.34-8.71-5.34l-48.38-1.34s-9.2-.11-8.71,8.13S242,108.66,242,108.66v19.9s-29,16.49-28.54,44.64,21.29,34,21.29,34,.24,20.37,23.46,19.89,34.39-4.75,35.84-19.31c9.61-6.55,21.61-19.91,22.75-34.37l.09.44c9.79-4.62,19.69-16.44,21.84-28.83,1.8-10.3-.73-19.5-7.1-25.89m-2,24.3c-1.55,8.89-7.07,17.31-13.64,21-.21-.81-.45-1.6-.74-2.4-4.05-11-13.21-20.86-19.91-27,2.22-2.1,20.44-18.75,29.75-9.42,5.65,5.67,5.27,13.55,4.54,17.75"/><path class="cls-4" d="M257.39,229.43c-7.63,0-13.73-2.16-18.13-6.42a23.82,23.82,0,0,1-6.76-14.13,32.31,32.31,0,0,1-9.86-6.42c-5.13-4.86-11.3-13.86-11.57-29.22-.45-26.21,22.86-42.45,28.55-46v-16a11.35,11.35,0,0,1-6.9-2,8.71,8.71,0,0,1-3.26-6.7,9.43,9.43,0,0,1,2.43-7.28c3.17-3.32,8.13-3.38,8.68-3.34l48.28,1.32c1.07-.09,5.76-.29,8.75,2.33a7.12,7.12,0,0,1,2.4,5.32,8.57,8.57,0,0,1-2.33,6.28c-2.26,2.38-5.59,3.31-7.83,3.68v13.66A72.94,72.94,0,0,1,301.69,116c17-9.33,27.07-3.12,31.59,1.42,6.94,7,9.7,16.89,7.77,28-2.36,13.54-12.72,25.14-22.12,30-1.87,13.48-12.41,26.33-22.68,33.65-2.2,16.29-16.21,19.89-38,20.35h-.85m-13-123.66v24.15l-1.19.69c-.28.16-27.8,16.17-27.35,42.54.44,25.93,18.79,31.51,19.57,31.73l1.69.49,0,1.77c0,.06.19,7.42,5.49,12.5,3.62,3.5,8.86,5.24,15.56,5.05,23.53-.49,32.31-5,33.52-17.18l.11-1.1.91-.62c10.08-6.88,20.71-19.62,21.72-32.59l.43-5.4-.36.21-.78-3a22.5,22.5,0,0,0-.67-2.17c-3.86-10.52-12.61-20-19.29-26.05l-1.88-1.72,1.85-1.74c3.64-3.45,22.34-20.12,33.05-9.38,6.41,6.43,6,15.19,5.2,19.83-1.62,9.3-7.36,18.24-14.35,22.43l.89,4c7.7-4.75,16-14.59,17.88-25.64,1.66-9.52-.63-18-6.45-23.81-3.59-3.6-11.72-8.46-25.95-.62a73.7,73.7,0,0,0-14.11,10.67l-1.45,1.41-3.32-2.47V106.35l2.31-.07c.33,0,8-.28,7.86-5.32a2.37,2.37,0,0,0-.79-1.89c-1.39-1.23-4.39-1.25-5.32-1.16h-.3l-48.39-1.33h0c-.92,0-3.68.34-5.16,1.89a4.76,4.76,0,0,0-1.11,3.73,4.13,4.13,0,0,0,1.42,3.22c1.77,1.35,4.94,1.1,5.91.9Zm54.5,29.33c6.63,6.33,14.54,15.42,18.43,25.6,4.9-3.92,8.79-10.68,10-17.71.66-3.74,1-10.76-3.88-15.68-6.48-6.5-19.64,3.58-24.56,7.79"/><path class="cls-5" d="M241.46,171.21s-4.5-16.28-8.32-17-3.12,7.28-2.42,13.17.84,23.57,5.1,28.41,18.81,9.36,27.48,6.94,21.82-22.53,21.82-22.53,12.13-14.55,10.05-18-14.2,9-14.2,9-12.83,10.4-2.78-4.85,12.48-20.44,10.4-22.87-15.94,17.15-15.94,17.15-13.52,11.61-6.24-2.95,10.06-20.44,10.06-20.44,2.76-5.2-1.74-6.24-7.28,9.16-7.28,9.16l-10.4,20.47s-3.8,3-2.08-10.22,6.24-21.14,1.4-21.14-6.94,12.47-8.33,19.4-5.54,34.66-6.58,22.53"/><path class="cls-6" d="M238.16,334.41a10.5,10.5,0,0,1-10.5,10.5H127.21a10.5,10.5,0,0,1-10.5-10.5v-57.2a10.5,10.5,0,0,1,10.5-10.5H227.66a10.5,10.5,0,0,1,10.5,10.5Z"/><path class="cls-7" d="M116.52,327.85v-45.5a55.33,55.33,0,0,1,7.75.12c1,.14,2,1.48,2.64,2.49a5.1,5.1,0,0,1,.36,2.62q0,17.69,0,35.36c0,3.74-1.13,4.86-4.8,4.91-1.87,0-3.75,0-6,0"/><path class="cls-6" d="M148.83,282.62c-1-1.71-2.14-2.75-2.09-3.74,0-.84,1.45-1.61,2.25-2.39.86.88,2.23,1.68,2.39,2.68.12.79-1.26,1.8-2.55,3.45"/><path class="cls-6" d="M152.13,269.12c1.3,1.67,2.4,2.49,2.58,3.49a2,2,0,0,1-2.33,2.48,3.45,3.45,0,0,1-2.32-2.19c-.06-1,1.05-2,2.07-3.78"/><path class="cls-6" d="M159.67,278.78c-1.61,1.3-2.57,2.65-3.34,2.55a3.72,3.72,0,0,1-2.53-2.28c-.18-.58,1.26-2.28,2.06-2.35,1-.08,2,1,3.81,2.08"/><path class="cls-6" d="M145.49,276.24c-1.22-1.49-2.56-2.41-2.48-3.18.11-1,1.35-1.88,2.12-2.82.85.84,2.18,1.56,2.44,2.55.18.74-1,1.82-2.08,3.45"/><path class="cls-6" d="M159.81,269.85c.68,1,1.89,1.94,1.89,2.92a2.3,2.3,0,0,1-4.59.22c-.1-1,1-2.06,1.56-3.09.38,0,.75,0,1.14,0"/><path class="cls-6" d="M166.28,276.2c-1.06-1.58-2.32-2.65-2.15-3.4.23-1,1.6-1.7,2.46-2.54.77.92,2,1.78,2.13,2.77.1.77-1.25,1.71-2.44,3.17"/><path class="cls-7" d="M204.08,308.29a11.24,11.24,0,0,1-11.6,11.24,11.41,11.41,0,1,1,11.6-11.24m-4.5-.1a6.86,6.86,0,1,0-13.72-.13,6.86,6.86,0,1,0,13.72.13"/><path class="cls-7" d="M241.79,268.89c0-2.59-1-4.72-3.31-5.72a19.07,19.07,0,0,0-6.67-1.65c-4.47-.26-9-.07-13.37-.07-1.92-6.44-4-7.95-10.57-7.95-11.07,0-22.15,0-33.22,0-3.21,0-6.24,1.24-6.92,4.13-1.08,4.49-4,3.86-7.07,3.84-3.51,0-7,.12-10.53.13-1.13,0-2.26-.2-3.33-.3-.63-4.6-.63-4.6-5.06-4.58l-6.49,0c-4,0-4,0-4.35,4,0,.16-.16.31-.42.76-1.89,0-3.94-.09-6,0-3.72.2-7.47,2.38-7.79,5.21-.43,3.76-.1,7.62-.1,11.56,3,0,5.81-.06,8.59,0,3.94.09,5.93,1.94,5.95,5.79q.11,20.93,0,41.85c0,3.77-1.91,5.58-5.68,5.69-2.88.09-5.75,0-9.07,0,0,2.63.09,4.88,0,7.1A6.15,6.15,0,0,0,120.2,345a14.92,14.92,0,0,0,5.93,1.38q52.92.12,105.84,0a15.91,15.91,0,0,0,6.19-1.47c2.48-1.08,3.65-3.23,3.65-6.09q-.06-34.95,0-69.93m-49.15,73.55a34.26,34.26,0,1,1,34.42-34.28,34.26,34.26,0,0,1-34.42,34.28"/><path class="cls-7" d="M357.81,237.26c12.08,0,24.16,0,36.24,0a12.16,12.16,0,0,1,11.22,6.81,11.36,11.36,0,0,1,1.39,5.56q0,36.5,0,73a12.51,12.51,0,0,1-11,12.28,16.74,16.74,0,0,1-1.73.11H321.65a12.57,12.57,0,0,1-12.58-10.48,11.48,11.48,0,0,1-.17-2.11q0-36.3,0-72.6a12.53,12.53,0,0,1,11-12.47,16.48,16.48,0,0,1,2-.11h35.89m25,87.13h.72c3.4,0,6.8,0,10.19,0a5.69,5.69,0,0,0,3.16-.89,12.47,12.47,0,0,0,4.6-5.31,8.07,8.07,0,0,0,.95-3.56q0-30.81,0-61.66c0-1.11,0-2.22,0-3.33a8.06,8.06,0,0,0-7.06-8c-2.1-.23-4.24-.1-6.38-.12,0,0-.07,0-.15.1v.88q0,22.79,0,45.55c0,1.82-.77,2.59-2.6,2.58h-3.41Zm-50,0V290.67H329.4c-1.87,0-2.63-.75-2.63-2.62V241.53h-5.13a8.24,8.24,0,0,0-8.47,8.5v64.39a4.81,4.81,0,0,0,.07,1,12.59,12.59,0,0,0,4.55,7.43,6.26,6.26,0,0,0,4.47,1.57c1.33-.07,2.66,0,4,0h6.52m32.58-82.84V288c0,2-.73,2.69-2.69,2.68h-3.31v33.68h20.32V290.74a.88.88,0,0,0-.17-.06h-3.26c-1.82,0-2.58-.75-2.58-2.59V241.56Zm-29.46,82.78H356.2V290.67h-3.51a2.17,2.17,0,0,1-2.47-2.5V241.58H341.9v46.64a2.17,2.17,0,0,1-2.46,2.45h-3.55Z"/><path class="cls-6" d="M382.78,324.38V290.67h3.41c1.83,0,2.6-.77,2.6-2.58V241.65c.1-.05.13-.1.17-.1,2.12,0,4.27-.1,6.37.13a8.05,8.05,0,0,1,7.06,8c0,1.11,0,2.22,0,3.33q0,30.83,0,61.66a7.87,7.87,0,0,1-1,3.56,12.47,12.47,0,0,1-4.6,5.31,5.57,5.57,0,0,1-3.14.88c-3.4,0-6.8,0-10.19,0h-.73"/><path class="cls-6" d="M332.77,324.4h-6.52c-1.33,0-2.66,0-4,0a6.21,6.21,0,0,1-4.47-1.56,12.59,12.59,0,0,1-4.55-7.44,5.5,5.5,0,0,1-.07-1V250a8.24,8.24,0,0,1,8.48-8.5h5.12v46.52c0,1.86.76,2.62,2.63,2.62h3.37Z"/><path class="cls-6" d="M365.35,241.56h8.31v46.52c0,1.84.76,2.59,2.58,2.59h3.26a.88.88,0,0,1,.17.06v33.61H359.35V290.67h3.31c2,0,2.69-.73,2.69-2.68V241.56Z"/><path class="cls-6" d="M335.89,324.34V290.68h3.55a2.17,2.17,0,0,0,2.46-2.45V241.58h8.32v46.59a2.17,2.17,0,0,0,2.47,2.5h3.51v33.67Z"/></svg>