<svg xmlns="http://www.w3.org/2000/svg" data-name="Capa 1" viewBox="0 0 512 512"><path d="M85.04 85.04h341.92v341.92H85.04z" style="fill:#e83876" transform="rotate(-45 256 256.002)"/><path d="M256 0 0 256l256 256 256-256Zm0 14.22L497.78 256 256 497.78 14.22 256Z" style="fill:#dd0162"/><path d="M405 172c-9.67-9.7-31.44-22.91-68.64-2.42-16.26 8.95-30.7 22.34-34.84 26.33l-1.82-1.35V147.1s24.75-.57 24.25-18.52c-.42-14.83-20.78-12.74-20.78-12.74l-115.45-3.18s-21.94-.28-20.78 19.39 24.25 15 24.25 15v47.47s-69.27 39.36-68.13 106.52 50.81 81 50.81 81 .57 48.62 56 47.47 82-11.34 85.48-46.08c22.94-15.63 51.56-47.49 54.28-82l.22 1c23.35-11 47-39.2 52.13-68.76 4.27-24.58-1.75-46.53-17-61.78m-4.72 58c-3.69 21.2-16.85 41.31-32.52 50.19-.51-1.91-1.07-3.81-1.78-5.72-9.67-26.35-31.52-49.78-47.51-64.34 5.3-5 48.77-44.75 71-22.5C402.94 201.16 402 220 400.28 230" style="fill:#fff"/><path d="M227.92 433.42c-17.7 0-31.81-5-42-14.8-12.35-12-15.09-27.55-15.7-33.75-10.6-4.14-49.94-23.56-51-83.71-.48-28.47 11.51-56.51 34.67-81.11a173.4 173.4 0 0 1 33.46-27.62v-41.09c-4.59.21-11.76-.28-17.17-4.46-4.32-3.33-6.7-8.24-7.07-14.6-.39-6.54 1.39-11.92 5.28-16 7.17-7.5 18.87-7.45 19.33-7.42L303 112.05c2.15-.19 12.91-.79 19.61 5.08a15.24 15.24 0 0 1 5.1 11.35 18.45 18.45 0 0 1-5.07 13.67c-5.53 5.82-14.24 7.77-19.17 8.42v38.33c6.64-6 18.29-15.63 31-22.64 39.38-21.68 62.74-7.38 73.16 3.07 16.11 16.16 22.51 39.28 18 65.12-5.59 32.09-30.43 59.56-52.67 70.77-4.06 32.24-29.52 63.16-54.12 80.44-4.76 38.25-37.65 46.66-89 47.74h-2M195 142.47v54.31l-1.92 1.1c-.67.38-67.29 39.08-66.19 103.14 1.08 63.35 46.12 76.91 48 77.46l2.72.78v2.83c0 .18.45 18.42 13.63 31.13 9 8.69 21.93 12.93 38.48 12.59 57.37-1.21 78.76-12.36 81.78-42.65l.18-1.77 1.46-1c24.41-16.64 50.15-47.57 52.63-79.15l1.29-16.33-1.78 1-1.25-4.76c-.57-2.11-1.09-3.81-1.67-5.38-9.34-25.45-30.45-48.22-46.5-62.86l-3-2.75 3-2.8c5.19-4.92 51.42-47.34 76.26-22.43 14.72 14.76 13.77 35 11.89 45.71-3.85 22.13-17.67 43.37-34.39 52.84l-.18.1 3 13.34c22.18-12.47 41.45-39 45.75-63.79 4.06-23.34-1.59-44.09-15.91-58.44-8.91-8.95-29.09-21.06-64.12-1.78-15.87 8.73-30.06 21.91-34 25.74l-2.33 2.25-2.6-2c-1.09-.83-1.72-1.28-1.74-1.29l-1.57-1.14v-53.06l3.7-.1c.11 0 11.89-.39 17.58-6.41a10.85 10.85 0 0 0 3-8.2 7.65 7.65 0 0 0-2.5-5.85c-3.87-3.4-11.49-3.47-14.1-3.22h-.49l-115.45-3.18s-8.87 0-13.71 5.1c-2.4 2.52-3.42 5.88-3.17 10.28.24 4.12 1.59 7.07 4.12 9 5.66 4.35 15.48 2.54 15.59 2.52Zm129.1 67.68c16.22 15.23 36.17 37.74 45.45 63 .14.37.26.74.4 1.13 13-9.36 23.43-26.77 26.59-44.94 1.62-9.28 2.51-26.7-9.79-39-17.31-17.34-52.14 10.63-62.65 19.85" style="fill:#1e1e1c"/><path d="M189.93 296.35s-10.75-38.86-19.84-40.51-7.45 17.36-5.79 31.42 2 56.22 12.16 67.8 44.89 22.32 65.56 16.53 52.08-53.74 52.08-53.74 28.94-34.73 24-43-33.89 21.49-33.89 21.49-30.6 24.8-6.62-11.57 29.76-48.78 24.82-54.57-38.05 40.94-38.05 40.94-32.24 27.68-14.88-7 24-48.79 24-48.79 6.6-12.4-4.14-14.88-17.37 21.83-17.37 21.83l-24.8 48.88s-9.09 7-4.95-24.4 14.88-50.44 3.3-50.44-16.53 29.76-19.84 46.3-13.23 82.68-15.71 53.74" style="fill:#e72a71"/></svg>