<svg xmlns="http://www.w3.org/2000/svg" viewBox="0 0 512 512"><path fill="#e72a71" fill-rule="evenodd" d="M258.72 505.64 5.98 258.26 253.37 5.52 506.1 252.91z"/><g fill="#db0357"><path d="m258.74 512-3-2.93L0 258.74l2.94-3L253.26 0l3 2.94L512 253.26l-2.94 3zM11.88 258.62l246.73 241.5L500.13 253.4 253.39 11.88zm349.45 21.67-1.9 7.36a67 67 0 0 1-2.49 7.36l-1.55 4.11c-.55 1.37-1.31 2.72-2 4.09l-2 4.08-2.26 3.76a63 63 0 0 1-4.13 6.55l-4.56 6.08 5.53 4.58 4.89-6.52a72 72 0 0 0 4.51-7l2.41-4c.77-1.36 1.42-2.91 2.12-4.38l2.11-4.38c.7-1.44 1.11-3 1.65-4.4a71 71 0 0 0 2.66-7.9l2-7.89zM335.51 329l5.19 5c.2.2-7.55 7.16-7.55 7.16l-4.68-5.42s7.23-6.51 7-6.7m-12.95 11.39 4.27 5.75-1.31 1-2.9 2.09-4.45 2.73-3.68-6.16 4.14-2.52c1-.64 2-1.43 2.72-2l1.21-.9m40.7-77.07 7.16.27-.26 5.2c0 .65-.07 1.3-.11 1.91s-.17 1.16-.24 1.64l-.25 1.61-7.11-1 .24-1.5.24-1.53c.1-.53.06-1.18.08-1.78l.25-4.87m-55.16 86.11-1.88.91-5 2.31-7.33 2.67c-2.68.93-5.68 1.52-8.6 2.33l-2.21.56-2.23.34-4.34.66-4.07.55-3.68.19-5.5.27a20 20 0 0 1-2.08-.07l-.13 7.19s.81.07 2.23.07l5.9-.3 3.93-.2c1.4-.06 2.85-.4 4.36-.58l4.65-.71 2.39-.37 2.37-.6 9.23-2.51 7.83-2.86c2.28-.89 4.07-1.89 5.37-2.47l2-1zm-54.16 10.3-.64 7.14s-.65 0-1.62-.1l-3.53-.53-5.16-.79 1.32-7.05 4.81.73 3.3.52zm-33.05-8.77L219 350l-4.91-2.47-6.66-4-7.2-5.28a98 98 0 0 1-12.1-11.49 52 52 0 0 1-3.63-4.15l-1.24-1.68-5.68 4.38 1.34 1.79a55 55 0 0 0 3.87 4.46 106 106 0 0 0 13 12.3l7.7 5.65 7.14 4.33c2.1 1.24 4 2 5.27 2.65l2 1z"/><path d="m236.89 356.65-1.89 6.94-1.57-.41c-.93-.29-2.23-.49-3.44-1l-4.89-1.79 2.51-6.71 4.56 1.66a29 29 0 0 0 3.22.92l1.47.37M179 315l-6 4-2.71-4.44-1.85-3.06a8 8 0 0 1-.57-1l-.19-.4 6.33-3.36.18.37a9 9 0 0 0 .53 1l1.74 2.86zm-13.71-31.29-.52-2a36.6 36.6 0 0 1-1-5.4c-.28-2.27-.89-4.87-1-7.72l-.45-8.92.45-8.92c.15-2.85.76-5.46 1-7.71a40 40 0 0 1 1-5.41l.53-2-7-1.72-.55 2.17a43 43 0 0 0-1.09 5.8l-1.1 8.27-.48 9.55.49 9.55c.16 3.05.79 5.84 1.11 8.26a44 44 0 0 0 1.07 5.79l.57 2.17zM170.74 299.84l-6.57 2.87a12.5 12.5 0 0 1-.67-1.48l-1.24-3.36-1.79-4.87 6.82-2.23 1.68 4.57 1.13 3.13a12 12 0 0 0 .64 1.39m-3.5-71.25-6.82-2.21 1.79-4.9 1.23-3.36a10.6 10.6 0 0 1 .67-1.49l6.58 2.87a9.3 9.3 0 0 0-.62 1.38l-1.15 3.15zm15.96-30.25 1.25-1.68a50 50 0 0 1 3.61-4.14 99.6 99.6 0 0 1 12.1-11.54l7.21-5.28 6.65-4c2-1.17 3.74-1.86 4.92-2.47l1.88-.91-3-6.52-2 1c-1.27.65-3.18 1.4-5.27 2.65l-7.13 4.34c-2.55 1.68-5.09 3.73-7.71 5.65a105.7 105.7 0 0 0-13 12.31 54 54 0 0 0-3.87 4.45l-1.34 1.8zM174 212.68l-6.34-3.36a13 13 0 0 1 .75-1.44l1.86-3.06 2.7-4.46 6 3.95-2.53 4.16-1.73 2.86a11 11 0 0 0-.7 1.35m53.51-47.09-2.52-6.72 4.89-1.78a29 29 0 0 1 3.44-1l1.57-.41 1.87 6.93-1.47.37a29 29 0 0 0-3.22.92l-4.56 1.67m33.58-6.46s.75-.08 2.09-.08 3.22.17 5.5.29l3.68.18c1.31 0 2.66.37 4.07.54l4.34.67 2.23.33c.75.1 1.47.38 2.2.56l8.62 2.33 7.32 2.67c2.12.83 3.78 1.78 5 2.31l1.88.91 3.24-6.41-2-1-5.37-2.46-7.9-2.84c-2.89-1-6.09-1.65-9.23-2.5l-2.37-.6-2.39-.36-4.65-.71-4.36-.58-3.93-.2-5.91-.3-2.22.08zM244.15 160.88l-1.32-7 5.14-.78 3.55-.54a14 14 0 0 1 1.61-.12l.64 7.14a14 14 0 0 0-1.51.11l-3.3.5-4.81.74m70.18 12.44 3.7-6.16 4.44 2.71c1.12.66 2.11 1.52 2.91 2.08l1.3 1-4.26 5.78-1.21-.92c-.72-.56-1.67-1.33-2.71-1.94l-4.17-2.52m26.07 22.13a3.4 3.4 0 0 1 .34.43l.92 1.24 3.3 4.41a63 63 0 0 1 4.22 6.53l2.26 3.77c.74 1.3 1.31 2.72 2 4.09l2 4.08c.67 1.35 1 2.79 1.54 4.12.91 2.69 2.06 5.11 2.49 7.36l1.9 7.35 7-1.47-2-7.88a73 73 0 0 0-2.66-7.9l-1.67-4.4-2.11-4.38-2.11-4.37c-.7-1.43-1.63-2.74-2.41-4a70 70 0 0 0-4.52-7l-3.54-4.73-1-1.33-.37-.46zM328.38 183.45l4.68-5.43s7.75 7 7.54 7.16l-5.17 4.95c.19-.19-7.05-6.68-7.05-6.68m34.02 62.64 7.09-1 .25 1.62a22 22 0 0 1 .37 3.56l.27 5.19-7.17.27-.24-4.85a21.6 21.6 0 0 0-.35-3.32l-.22-1.5"/></g><path fill="#fff" d="M331.61 119.1c-4.06-4.07-13.18-9.6-28.78-1a76 76 0 0 0-14.6 11l-.76-.56v-19.9s10.38-.24 10.16-7.76c-.18-6.22-8.71-5.34-8.71-5.34l-48.38-1.34s-9.2-.11-8.71 8.13 10.17 6.33 10.17 6.33v19.9s-29 16.49-28.54 44.64 21.29 34 21.29 34 .24 20.37 23.46 19.89 34.39-4.75 35.84-19.31c9.61-6.55 21.61-19.91 22.75-34.37l.09.44c9.79-4.62 19.69-16.44 21.84-28.83 1.8-10.3-.73-19.5-7.1-25.89m-2 24.3c-1.55 8.89-7.07 17.31-13.64 21-.21-.81-.45-1.6-.74-2.4-4.05-11-13.21-20.86-19.91-27 2.22-2.1 20.44-18.75 29.75-9.42 5.65 5.67 5.27 13.55 4.54 17.75"/><path fill="#1e1e1c" d="M257.39 229.43c-7.63 0-13.73-2.16-18.13-6.42a23.82 23.82 0 0 1-6.76-14.13 32.3 32.3 0 0 1-9.86-6.42c-5.13-4.86-11.3-13.86-11.57-29.22-.45-26.21 22.86-42.45 28.55-46v-16a11.35 11.35 0 0 1-6.9-2 8.71 8.71 0 0 1-3.26-6.7 9.43 9.43 0 0 1 2.43-7.28c3.17-3.32 8.13-3.38 8.68-3.34l48.28 1.32c1.07-.09 5.76-.29 8.75 2.33a7.12 7.12 0 0 1 2.4 5.32 8.57 8.57 0 0 1-2.33 6.28c-2.26 2.38-5.59 3.31-7.83 3.68v13.66a73 73 0 0 1 11.85-8.51c17-9.33 27.07-3.12 31.59 1.42 6.94 7 9.7 16.89 7.77 28-2.36 13.54-12.72 25.14-22.12 30-1.87 13.48-12.41 26.33-22.68 33.65-2.2 16.29-16.21 19.89-38 20.35h-.85m-13-123.66v24.15l-1.19.69c-.28.16-27.8 16.17-27.35 42.54.44 25.93 18.79 31.51 19.57 31.73l1.69.49v1.77c0 .06.19 7.42 5.49 12.5 3.62 3.5 8.86 5.24 15.56 5.05 23.53-.49 32.31-5 33.52-17.18l.11-1.1.91-.62c10.08-6.88 20.71-19.62 21.72-32.59l.43-5.4-.36.21-.78-3a23 23 0 0 0-.67-2.17c-3.86-10.52-12.61-20-19.29-26.05l-1.88-1.72 1.85-1.74c3.64-3.45 22.34-20.12 33.05-9.38 6.41 6.43 6 15.19 5.2 19.83-1.62 9.3-7.36 18.24-14.35 22.43l.89 4c7.7-4.75 16-14.59 17.88-25.64 1.66-9.52-.63-18-6.45-23.81-3.59-3.6-11.72-8.46-25.95-.62a73.7 73.7 0 0 0-14.11 10.67l-1.45 1.41-3.32-2.47v-23.39l2.31-.07c.33 0 8-.28 7.86-5.32a2.37 2.37 0 0 0-.79-1.89c-1.39-1.23-4.39-1.25-5.32-1.16h-.3l-48.39-1.33c-.92 0-3.68.34-5.16 1.89a4.76 4.76 0 0 0-1.11 3.73 4.13 4.13 0 0 0 1.42 3.22c1.77 1.35 4.94 1.1 5.91.9zm54.5 29.33c6.63 6.33 14.54 15.42 18.43 25.6 4.9-3.92 8.79-10.68 10-17.71.66-3.74 1-10.76-3.88-15.68-6.48-6.5-19.64 3.58-24.56 7.79"/><path fill="#e72a71" d="M241.46 171.21s-4.5-16.28-8.32-17-3.12 7.28-2.42 13.17.84 23.57 5.1 28.41 18.81 9.36 27.48 6.94 21.82-22.53 21.82-22.53 12.13-14.55 10.05-18-14.2 9-14.2 9-12.83 10.4-2.78-4.85 12.48-20.44 10.4-22.87-15.94 17.15-15.94 17.15-13.52 11.61-6.24-2.95l10.06-20.44s2.76-5.2-1.74-6.24-7.28 9.16-7.28 9.16l-10.4 20.47s-3.8 3-2.08-10.22 6.24-21.14 1.4-21.14-6.94 12.47-8.33 19.4-5.54 34.66-6.58 22.53"/><g fill-rule="evenodd"><path fill="#fff" d="M238.16 334.41a10.5 10.5 0 0 1-10.5 10.5H127.21a10.5 10.5 0 0 1-10.5-10.5v-57.2a10.5 10.5 0 0 1 10.5-10.5h100.45a10.5 10.5 0 0 1 10.5 10.5Z"/><path d="M116.52 327.85v-45.5a55 55 0 0 1 7.75.12c1 .14 2 1.48 2.64 2.49a5.1 5.1 0 0 1 .36 2.62v35.36c0 3.74-1.13 4.86-4.8 4.91h-6"/><path fill="#fff" d="M148.83 282.62c-1-1.71-2.14-2.75-2.09-3.74 0-.84 1.45-1.61 2.25-2.39.86.88 2.23 1.68 2.39 2.68.12.79-1.26 1.8-2.55 3.45m3.3-13.5c1.3 1.67 2.4 2.49 2.58 3.49a2 2 0 0 1-2.33 2.48 3.45 3.45 0 0 1-2.32-2.19c-.06-1 1.05-2 2.07-3.78m7.54 9.66c-1.61 1.3-2.57 2.65-3.34 2.55a3.72 3.72 0 0 1-2.53-2.28c-.18-.58 1.26-2.28 2.06-2.35 1-.08 2 1 3.81 2.08m-14.18-2.54c-1.22-1.49-2.56-2.41-2.48-3.18.11-1 1.35-1.88 2.12-2.82.85.84 2.18 1.56 2.44 2.55.18.74-1 1.82-2.08 3.45m14.32-6.39c.68 1 1.89 1.94 1.89 2.92a2.3 2.3 0 0 1-4.59.22c-.1-1 1-2.06 1.56-3.09h1.14m6.47 6.3c-1.06-1.58-2.32-2.65-2.15-3.4.23-1 1.6-1.7 2.46-2.54.77.92 2 1.78 2.13 2.77.1.77-1.25 1.71-2.44 3.17"/><path d="M204.08 308.29a11.24 11.24 0 0 1-11.6 11.24 11.41 11.41 0 1 1 11.6-11.24m-4.5-.1a6.86 6.86 0 1 0-13.72-.13 6.86 6.86 0 1 0 13.72.13"/><path d="M241.79 268.89c0-2.59-1-4.72-3.31-5.72a19.1 19.1 0 0 0-6.67-1.65c-4.47-.26-9-.07-13.37-.07-1.92-6.44-4-7.95-10.57-7.95h-33.22c-3.21 0-6.24 1.24-6.92 4.13-1.08 4.49-4 3.86-7.07 3.84l-10.53.13c-1.13 0-2.26-.2-3.33-.3-.63-4.6-.63-4.6-5.06-4.58h-6.49c-4 0-4 0-4.35 4 0 .16-.16.31-.42.76-1.89 0-3.94-.09-6 0-3.72.2-7.47 2.38-7.79 5.21-.43 3.76-.1 7.62-.1 11.56h8.59c3.94.09 5.93 1.94 5.95 5.79q.11 20.93 0 41.85c0 3.77-1.91 5.58-5.68 5.69-2.88.09-5.75 0-9.07 0 0 2.63.09 4.88 0 7.1a6.15 6.15 0 0 0 3.82 6.32 14.9 14.9 0 0 0 5.93 1.38q52.92.12 105.84 0a15.9 15.9 0 0 0 6.19-1.47c2.48-1.08 3.65-3.23 3.65-6.09q-.06-34.95 0-69.93m-49.15 73.55a34.26 34.26 0 1 1 34.42-34.28 34.26 34.26 0 0 1-34.42 34.28m165.15-105.18h36.24a12.16 12.16 0 0 1 11.22 6.81 11.36 11.36 0 0 1 1.39 5.56v73a12.51 12.51 0 0 1-11 12.28 17 17 0 0 1-1.73.11h-72.28a12.57 12.57 0 0 1-12.58-10.48 11.5 11.5 0 0 1-.17-2.11v-72.6a12.53 12.53 0 0 1 11-12.47 17 17 0 0 1 2-.11h35.89m25 87.13h10.91a5.7 5.7 0 0 0 3.16-.89 12.47 12.47 0 0 0 4.6-5.31 8.1 8.1 0 0 0 .95-3.56v-64.99a8.06 8.06 0 0 0-7.06-8c-2.1-.23-4.24-.1-6.38-.12 0 0-.07 0-.15.1v46.43c0 1.82-.77 2.59-2.6 2.58h-3.41zm-50 0v-33.71h-3.39c-1.87 0-2.63-.75-2.63-2.62v-46.52h-5.13a8.24 8.24 0 0 0-8.47 8.5v64.39a4.8 4.8 0 0 0 .07 1 12.6 12.6 0 0 0 4.55 7.43 6.26 6.26 0 0 0 4.47 1.57c1.33-.07 2.66 0 4 0h6.52m32.58-82.84V288c0 2-.73 2.69-2.69 2.68h-3.31v33.68h20.32v-33.62a1 1 0 0 0-.17-.06h-3.26c-1.82 0-2.58-.75-2.58-2.59v-46.53zm-29.46 82.78h20.3v-33.69h-3.51a2.17 2.17 0 0 1-2.47-2.5v-46.59h-8.32v46.64a2.17 2.17 0 0 1-2.46 2.45h-3.55z"/><g fill="#fff"><path d="M382.78 324.38v-33.71h3.41c1.83 0 2.6-.77 2.6-2.58v-46.44c.1-.05.13-.1.17-.1l6.37.13a8.05 8.05 0 0 1 7.06 8v64.99a7.9 7.9 0 0 1-1 3.56 12.47 12.47 0 0 1-4.6 5.31 5.57 5.57 0 0 1-3.14.88h-10.92m-49.96-.02h-10.52a6.2 6.2 0 0 1-4.47-1.56 12.6 12.6 0 0 1-4.55-7.44 5.5 5.5 0 0 1-.07-1V250a8.24 8.24 0 0 1 8.48-8.5h5.12v46.52c0 1.86.76 2.62 2.63 2.62h3.37zM365.35 241.56h8.31v46.52c0 1.84.76 2.59 2.58 2.59h3.26a1 1 0 0 1 .17.06v33.61h-20.32v-33.67h3.31c2 0 2.69-.73 2.69-2.68zm-29.46 82.78v-33.66h3.55a2.17 2.17 0 0 0 2.46-2.45v-46.65h8.32v46.59a2.17 2.17 0 0 0 2.47 2.5h3.51v33.67z"/></g></g></svg>