<svg id="Capa_1" data-name="Capa 1" xmlns="http://www.w3.org/2000/svg" viewBox="0 0 512 512"><defs><style>.cls-1{fill:#ded300;fill-rule:evenodd;}.cls-2{fill:#ba870e;}.cls-3{fill:#fff;}.cls-4{fill:#1e1e1c;}</style></defs><polygon class="cls-1" points="258.7 505.63 5.97 258.25 253.35 5.51 506.09 252.9 258.7 505.63"/><path class="cls-2" d="M258.74,512l-3-2.94L0,258.74l2.94-3L253.25,0l3,2.94L512,253.26l-2.93,3ZM11.87,258.61,258.6,500.12,500.11,253.4,253.38,11.88Z"/><path class="cls-3" d="M234.61,147.83l39.53,44.39a6,6,0,0,1,1.51,4V328.47a6,6,0,0,1-6.2,6L201.25,332a6,6,0,0,1-5.68-6.83c1.65-11.38,5.15-34,7.34-38.36,2-3.92,5.75-41,8.07-65.43a6,6,0,0,0-10.75-4.07l-27,36.85a6.45,6.45,0,0,0-.82,1.53L163,282.32a6,6,0,0,1-10.53,1.4l-21.83-31.31a6,6,0,0,1-.31-6.33l23.36-41.85a8.87,8.87,0,0,1,.55-.81l40.79-51a6.05,6.05,0,0,1,3.82-2.18l30.42-4.36a6,6,0,0,1,5.31,2"/><path class="cls-4" d="M269.69,337.69h-.34l-68.2-2.5a9.2,9.2,0,0,1-8.79-10.52c3.28-22.51,5.85-35.75,7.65-39.36.49-1.09,2.5-9.06,7.75-64.27a2.72,2.72,0,0,0-4.93-1.84l-26.94,36.86a2,2,0,0,0-.37.68l-9.43,26.65a9.21,9.21,0,0,1-16.25,2.2L128,254.26a9.31,9.31,0,0,1-.48-9.76l23.36-41.84a13.34,13.34,0,0,1,.86-1.26l40.79-51a9.23,9.23,0,0,1,5.89-3.37l30.43-4.36a9.18,9.18,0,0,1,8.19,3l39.51,44.39a9.17,9.17,0,0,1,2.34,6.12V328.48a9.21,9.21,0,0,1-9.2,9.21M205,211.57a9.21,9.21,0,0,1,3.33.61,9.1,9.1,0,0,1,5.89,9.47c-5.85,61.44-7.69,65.16-8.39,66.57-1.1,2.17-3.51,13.13-7,37.38a2.71,2.71,0,0,0,2.6,3.11l68.2,2.49a2.66,2.66,0,0,0,2-.76,2.74,2.74,0,0,0,.83-2V196.2a2.79,2.79,0,0,0-.69-1.82L232.19,150a2.8,2.8,0,0,0-2.43-.88l-30.42,4.37a2.77,2.77,0,0,0-1.75,1l-40.78,51a2.68,2.68,0,0,0-.25.37l-23.37,41.84a2.78,2.78,0,0,0,.14,2.9l21.83,31.32a2.74,2.74,0,0,0,4.82-.65l9.43-26.64a8.48,8.48,0,0,1,1.25-2.38l26.94-36.85a9.13,9.13,0,0,1,7.39-3.79"/><path class="cls-3" d="M292.14,148.17l-39.22,44.06a6,6,0,0,0-1.51,4V328.48a6,6,0,0,0,6.18,6l68.2-2.47a6,6,0,0,0,5.7-6.84c-1.67-11.38-5.16-34-7.35-38.35-2-3.93-5.75-41-8.08-65.43a6,6,0,0,1,10.77-4.07l26.95,36.84a6.68,6.68,0,0,1,.81,1.54l9.83,27.79a6,6,0,0,0,10.2,1.86l23.62-28a5.94,5.94,0,0,0,.64-6.75L375.72,209a6.48,6.48,0,0,0-.56-.81l-41-51.28a6.11,6.11,0,0,0-3.17-2.06l-32.88-8.51a6,6,0,0,0-6,1.81"/><path class="cls-4" d="M257.37,337.69a9.22,9.22,0,0,1-9.2-9.21V196.2a9.22,9.22,0,0,1,2.32-6.13L289.72,146a9.17,9.17,0,0,1,9.19-2.8l32.88,8.51a9.37,9.37,0,0,1,4.89,3.16l41,51.29a9.59,9.59,0,0,1,.85,1.26l23.18,41.51a9.27,9.27,0,0,1-1,10.43l-23.62,28a9.08,9.08,0,0,1-8.7,3.14,9.2,9.2,0,0,1-7-6l-9.82-27.79a3.24,3.24,0,0,0-.38-.71l-27-36.85a2.73,2.73,0,0,0-4.92,1.86c5.25,55.21,7.28,63.18,7.77,64.3,1.78,3.58,4.36,16.81,7.64,39.33a9.21,9.21,0,0,1-8.8,10.52l-68.19,2.49h-.34M296.61,149.4a2.72,2.72,0,0,0-2,.91l-39.23,44.07a2.73,2.73,0,0,0-.69,1.82V328.48a2.68,2.68,0,0,0,.83,1.95,2.63,2.63,0,0,0,2,.77l68.2-2.49a2.73,2.73,0,0,0,2-1,2.67,2.67,0,0,0,.58-2.13c-3.53-24.25-5.94-35.21-7-37.38-.64-1.27-2.56-5.13-8.4-66.57a9.21,9.21,0,0,1,16.61-6.29l27,36.85a9.73,9.73,0,0,1,1.24,2.37l9.83,27.79a2.74,2.74,0,0,0,2.08,1.78,2.71,2.71,0,0,0,2.58-.94l23.62-28a2.72,2.72,0,0,0,.3-3.09L372.89,210.6a2,2,0,0,0-.26-.38l-41-51.27a2.74,2.74,0,0,0-1.44-.95l-32.88-8.51a2.71,2.71,0,0,0-.68-.09"/><path class="cls-4" d="M207.17,268.46c1.3,0,48.22,4.78,48.22,4.78l65.15-5.65,1.3,13.46-63.42,10-51.25-7.82Z"/><path class="cls-4" d="M267.54,279.76l12.18,22.58,3,27.8H267.11s3-23,1.3-24.32-10-23.9-10-23.9Z"/><path class="cls-4" d="M246.25,281.92,234.1,304.51l-3,27.8h15.63s-3-23-1.29-24.32,10-23.9,10-23.9Z"/></svg>