<svg xmlns="http://www.w3.org/2000/svg" id="Capa_1" data-name="Capa 1" viewBox="0 0 512 512"><defs><style>.cls-3{fill:#fefefc}.cls-4{fill:#1e1e1c}</style></defs><path d="M85.04 85.04h341.92v341.92H85.04z" style="fill:#ab7cb1" transform="rotate(-45 256 256.002)"/><path d="M256 0 0 256l256 256 256-256Zm0 14.22L497.78 256 256 497.78 14.22 256Z" style="fill:#25204d"/><path d="m96.59 258.37 9.14 18.52 20.42 2.97-14.78 14.4 3.49 20.34-18.27-9.6-18.27 9.6 3.49-20.34-14.78-14.4 20.42-2.97zM348.2 321.66l10.72 21.74 24 3.49-17.37 16.93 4.11 23.9-21.46-11.28-21.47 11.28 4.1-23.9-17.37-16.93 24-3.49zM165.76 196.27l7.68 15.57 17.17 2.5-12.43 12.12 2.94 17.11-15.36-8.08-15.37 8.08 2.93-17.11-12.43-12.12 17.17-2.5zM171.74 269.04l5.66 11.49 12.69 1.83-9.16 8.94 2.15 12.63-11.34-5.97-11.33 5.97 2.17-12.63-9.17-8.94 12.67-1.83zM291.36 218.71l12.25 12.3 17.07-3.11-7.91 15.45 8.24 15.27-17.14-2.75-11.99 12.55-2.66-17.14-15.65-7.52 15.48-7.85zM324.86 180.96l2.11 11.04 10.31 4.52-9.86 5.44-1.11 11.2-8.21-7.7-11 2.41 4.79-10.19-5.69-9.72 11.17 1.4zM417.07 204.66l2.71 12.53 11.86 4.87-11.08 6.45-.97 12.78-9.57-8.54-12.45 3.03 5.18-11.73-6.73-10.91 12.74 1.3zM359.08 145.22l7.5 7.54 10.45-1.9-4.84 9.45 5.03 9.35-10.48-1.69-7.34 7.69-1.63-10.5-9.59-4.6 9.48-4.81z" class="cls-3"/><path d="m188.56 293.85 133.37 50.63 1.51-7.1-133.36-50.64zM124.69 282.34h26.16v5.61h-26.16zM102.79 266.973l37.681-26.541 3.231 4.586-37.68 26.542zM272.27 237.37l-78.84-10.66-.75 5.55 78.85 10.66zM310.27 269.12l26.15 54.63 5.65-3.39-26.16-54.65zM305.102 225.629l8.685-16.245 4.947 2.645-8.684 16.244zM327.86 180.3l2.09 4.26 22.54-13.54-2.09-4.26zM381.35 173.62l-4.54 3.27 21.5 29.95 4.56-3.27z" class="cls-4"/></svg>