<svg id="Capa_1" data-name="Capa 1" xmlns="http://www.w3.org/2000/svg" viewBox="0 0 512 512"><defs><style>.cls-1{fill:#ded300;fill-rule:evenodd;}.cls-2{fill:#ba870e;}.cls-3{fill:#231812;}.cls-4{fill:#221410;}</style></defs><polygon class="cls-1" points="258.71 505.64 5.96 258.26 253.35 5.51 506.09 252.9 258.71 505.64"/><path class="cls-2" d="M258.74,512l-3-2.94L0,258.74l2.94-3L253.26,0l3,2.94L512,253.26l-2.95,3ZM11.87,258.62,258.6,500.12,500.13,253.39,253.39,11.88Z"/><path class="cls-3" d="M319.67,135.87c18.19-11.59,34.15,4.85,32.17,23.12-1.31,12.11-12.53,32.32-30.36,31.84-7.84-.21-12.81-3.8-15.43-10.41C300.87,167.34,306.05,144.56,319.67,135.87Z"/><path class="cls-4" d="M341.19,228.41c-8.59-2-13.13-11.71-17.6-18.71L318,202.47s-61.41-66.58-95.62-41.93c-13.71,9.88-12.6,39.77-11,64.14,5-12.76,9-27,15.91-39.63,6-11.14,21.85-7.11,25.27-4.44,4.15,3.23,15.53,10,6.26,17.67-44.63,36.71-50.2,99.5-93.69,137-11.11,9.57-18.64,23.27-35.36,44.76l58.88-42.17h0C207.79,322,227.27,306.5,245.8,290c6.66-5.94,12.27-8.81,18.79-2,7.89,8.27.75,13.35-5.46,17.52C244.6,315.28,229.85,324.7,215,334c-4.39,2.76-11.33,4.16-2.55,9.89l.05,0c12.16-3.72,24.4-7.22,36.48-11.21,54.33-17.93,60.19-34.87,25.39-77-7.19-8.7.45-14.67,3.61-18,2.68-2.87,18.14-20.27,32-6.08,12,12.28,21.21,29.84,40.74,20,22.12-11.16,31.73-31.9,31.4-57.83C372.14,211.92,361.2,233.05,341.19,228.41Z"/></svg>