<svg xmlns="http://www.w3.org/2000/svg" id="Capa_1" data-name="Capa 1" viewBox="0 0 512 512"><defs><style>.cls-3{fill:#fff}.cls-4{fill-rule:evenodd}.cls-5{fill:none}</style></defs><path d="M85.04 85.04h341.92v341.92H85.04z" style="fill:#ab7cb1" transform="rotate(-45 256 256.002)"/><path d="M256 0 0 256l256 256 256-256Zm0 14.22L497.78 256 256 497.78 14.22 256Z" style="fill:#25204d"/><path d="M274.9 132.93c-24-15-55.3-7.91-70 15.78-15 24.08-7.7 54.93 16.57 70.07 23.27 14.51 54.51 7.08 69.12-16.46s7.54-54.87-15.69-69.39m-3 57.47a28.38 28.38 0 1 1-48.31-29.81 28.38 28.38 0 0 1 48.31 29.81" class="cls-3"/><path d="M339.09 179.08c-10.5.59-14.51-2.2-17.4-12.28A52.6 52.6 0 0 1 320 159c-1.66-12.06.92-16.23 12.32-20.31 4.77-1.7 6-3.81 3.7-8.43a111.7 111.7 0 0 0-9.41-15.44c-4.65-6.39-7.25-6.31-12.52-.59-6 6.47-10 7.4-18.13 3.9a33.6 33.6 0 0 1-5.82-3.2c-11-7.55-16.24-14.65-8.3-26.31a4.3 4.3 0 0 0-1.9-6.75 51.5 51.5 0 0 0-24.47-5.1c-3 .16-4.45 2.07-4.44 5 0 1.78.23 3.54.28 5.3.25 6-2.29 10.5-7.82 12.67a55.6 55.6 0 0 1-13.19 3.55c-9.43 1.24-16.29-.16-19.44-11.81-1.46-5.5-4.21-6.71-9.3-4a109.4 109.4 0 0 0-15.9 10.34c-5 3.91-4.71 6.61-.11 10.77 7.61 6.91 8.52 11.52 3.78 20.64a52.3 52.3 0 0 1-4.66 7c-6.88 9.18-13 11.54-23.09 5.57-4.07-2.43-6.94-1.64-8.3 3a172 172 0 0 0-4.43 22c-.54 3.56 1.75 5.45 5.38 5.41 1.5 0 3-.13 4.44-.17 7.09-.21 10.76 2 13.49 8.47a46.2 46.2 0 0 1 2.78 9.31c2.26 12.41.29 20.23-12.59 23-3.71.78-5.37 3.92-3.5 7.13a237 237 0 0 0 13.18 19.75c1.87 2.52 4.73 2.06 7-.2 1.45-1.48 2.74-3.11 4.2-4.58 3.41-3.39 7.47-4.79 12.14-3.23 2.94 1 5.74 2.33 8.57 3.53 13.5 8.58 15.18 13.3 9.36 27.55-1.45 3.56-.11 6 3.06 7a116 116 0 0 0 18 4.49c8.9 1.25 10.17-.16 9.68-9.11-.36-6.51 1.83-11.47 8-13.84a58.7 58.7 0 0 1 13.24-3.45c11.53-1.47 15.33 1.11 19.17 12.1 1.82 5.21 4 6.49 9 3.86a108 108 0 0 0 16-10.21c5.3-4.07 5-6.86-.11-11.41-6.94-6.17-7.94-10.87-3.78-19.19a48.4 48.4 0 0 1 4.67-7.5c7.88-10.36 12.07-11.38 23.72-6.05 4.28 1.94 6.62 1.56 8-2.93a115.5 115.5 0 0 0 4.52-20.21c.82-6.1-1.21-7.6-7.38-7.24m-48.52 23.24c-14.61 23.54-45.85 31-69.12 16.46-24.27-15.14-31.57-46-16.57-70.07 14.72-23.69 46.05-30.76 70-15.78 23.25 14.52 30.33 45.85 15.69 69.39"/><path d="M262.82 151.5a28.4 28.4 0 1 0-30 48.22 28.09 28.09 0 0 0 39.08-9.32 28.43 28.43 0 0 0-9.08-38.9"/><path d="M383.74 228.31a28.42 28.42 0 1 0-29.4 48.69c13.13 7.9 30.93 3.57 38.85-9.43 8.13-13.42 3.81-31.39-9.45-39.26" class="cls-3"/><path d="M421.2 270.14c-4.5-1.42-6.91-4.91-7.28-9.42a69 69 0 0 1 .17-13.09c.54-4.78 2.91-8.72 8-10.11 3.67-1 4.44-3.35 2.93-6.37a147 147 0 0 0-8.29-14.61c-.75-1.1-4.23-1.82-5.13-1.11-6.63 5.44-12.91 3.21-19-.52-6.32-3.85-12-8.22-10.07-17.22.26-1.11-2-3.87-3.28-4a147 147 0 0 0-17.35-.69c-3.29 0-4.22 2.06-4.06 5.35.15 2.66 0 6-1.49 7.95a26.8 26.8 0 0 1-19.27 10.59 11.2 11.2 0 0 1-6.38-1.79c-5.62-3.59-6.35-3.58-10.19 2-1 1.46-1.83 3-2.75 4.49h.09c-1 1.65-2 3.29-3 5-2.31 4-2.53 6.82 2.75 9 2.47 1 4.85 4.19 5.67 6.88 1.15 3.74 1.15 8 1 11.94-.29 6.13-2.26 11.43-9 13.36-3.12.88-3.78 3.1-2.5 5.72q3.63 7.29 7.67 14.37c1.89 3.24 4.47 3.64 7.38 1.05 3.61-3.22 7.78-3.17 11.83-1.36a61 61 0 0 1 10.06 5.69c4.69 3.24 7.11 7.72 5.6 13.64-.87 3.38 1.11 4.67 3.82 4.86 5.25.38 10.51.54 15.78.51 3.76 0 5.14-1.68 5.16-6a17.06 17.06 0 0 1 4.39-10.47c2.75-2.92 7-4.66 10.75-6.39 4.79-2.17 9.61-2.08 13.67 1.93 2.26 2.25 4.47 2 6.17-.49 3.08-4.66 6.09-9.4 8.87-14.24 1.66-3.01.91-5.29-2.72-6.45m-28-2.61c-7.92 13-25.72 17.33-38.85 9.43a28.42 28.42 0 1 1 29.4-48.65c13.25 7.87 17.57 25.84 9.44 39.22Z"/><path d="M380 234.64a21.41 21.41 0 0 1 6.73 29.16c-5.9 9.53-19 12.62-28.73 6.74a21.05 21.05 0 1 1 22-35.9" class="cls-4"/><path d="M229 364.25a41.53 41.53 0 0 0 21 24.74c.79.4 1.6.76 2.4 1.11a47.62 47.62 0 0 1-23.4-25.85M287.4 314.74a42.1 42.1 0 0 0-28.1-3.38 48.24 48.24 0 0 1 28.1 3.38" class="cls-5"/><path d="M252.34 390.1c19.63 8.33 43.52 0 53.27-19.06 10.42-20.39 2.17-46.13-18-56.22l-.18-.08a48.24 48.24 0 0 0-28.1-3.38A41.51 41.51 0 0 0 229 364.25a47.62 47.62 0 0 0 23.34 25.85" class="cls-3"/><path d="M346.78 371.84c-6.72-1.6-10.63-6.41-11.65-12.95a98 98 0 0 1-1.13-19.13c.3-7 3.33-13 10.54-15.6 5.24-1.88 6.11-5.38 3.57-9.61a200 200 0 0 0-13.69-20.41c-1.17-1.52-6.34-2.23-7.55-1.07-9.09 8.64-18.51 6.07-27.82 1.3-9.65-4.93-18.39-10.72-16.53-24 .22-1.66-3.35-5.46-5.26-5.52a220 220 0 0 0-25.28.83c-4.8.38-5.94 3.45-5.33 8.24.48 3.86.64 8.81-1.33 11.75a39.13 39.13 0 0 1-27 17.54 16.4 16.4 0 0 1-9.52-1.92c-8.58-4.62-9.64-4.54-14.61 4.08-1.29 2.22-2.39 4.56-3.55 6.85a.4.4 0 0 1 .13.07c-1.27 2.52-2.63 5-3.86 7.55-3 6-3 10.2 4.94 12.79 3.74 1.22 7.58 5.59 9 9.43 2.07 5.33 2.54 11.49 2.71 17.33.24 9-2.05 16.91-11.71 20.44-4.46 1.65-5.18 4.94-3 8.62 4 6.84 8.28 13.58 12.74 20.13 3.08 4.54 6.91 4.84 10.86.75 4.92-5.09 11-5.44 17.14-3.27a90.7 90.7 0 0 1 15.24 7.21c7.23 4.26 11.26 10.53 9.66 19.31-.9 5 2.13 6.68 6.11 6.67 7.69 0 15.39-.33 23.06-.95 5.5-.42 7.31-3 6.89-9.3-.34-5.18 2-11.62 5.28-15.74 3.7-4.57 9.62-7.57 15-10.48 6.74-3.69 13.77-4.09 20.14 1.35 3.56 3 6.75 2.48 8.92-1.4 4-7.13 7.9-14.36 11.44-21.74 2.22-4.6.85-7.85-4.55-9.15M229 364.25a41.51 41.51 0 0 1 30.32-52.89 42.1 42.1 0 0 1 28.1 3.38l.18.08c20.2 10.09 28.45 35.83 18 56.22-9.75 19.06-33.64 27.39-53.27 19.06-.8-.35-1.61-.71-2.4-1.11A41.53 41.53 0 0 1 229 364.25"/><path d="M282.91 324.5c14.84 7.73 20.76 26.82 12.95 41.82-7.56 14.54-26.41 20.45-41.19 12.94a30.81 30.81 0 1 1 28.24-54.76" class="cls-4"/></svg>