<svg xmlns="http://www.w3.org/2000/svg" data-name="Capa 1" viewBox="0 0 512 512"><path d="M85.04 85.04h341.92v341.92H85.04z" style="fill:#e83876" transform="rotate(-45 256 256.002)"/><path d="M256 0 0 256l256 256 256-256Zm0 14.22L497.78 256 256 497.78 14.22 256Z" style="fill:#dd0162"/><path d="M223.54 350.32s13.18-10.34 2.33-37.27-16.57-61.05-2.48-63.7c7.14 2.55 4.86 18.12 6.54 25s10.86 31.35 22.55 17.7c-.76-18.4-2.59-171.52-2.59-171.52s2-15.43-6.63-21.18-4-10.95-2.64-14.66c0 0 5.67-23.95 5.19-27.82s6.95-10.52 13.92-11.17 4.74 5.71 6.63 16.25 3.41 19.29 5.17 22.83-3.24 6.92-4.2 13-1 23.69 1.19 39.92 8.63 168.08 8.63 168.08 9.4 33.49 22 3.44c2-6.08-1.45-12.12 5.77-13s4.61 22.33 2.53 26.87-5.48 13.3-1.2 20.58 28.26 31.15 19.82 52.14-30.36 28.45-52.95 28.41-48.2-2.75-59.41-31.48c-8.53-22.37 9.83-42.36 9.83-42.36" style="fill:#1e1e1c"/><path d="M300 390.34a6.79 6.79 0 0 1-6.58 7l-39 1.22A6.8 6.8 0 0 1 254 385l39-1.21a6.78 6.78 0 0 1 7 6.58" style="fill:#fff"/></svg>