<svg xmlns="http://www.w3.org/2000/svg" id="Capa_1" data-name="Capa 1" viewBox="0 0 512 512"><defs><style>.cls-4{fill:#e95019}</style></defs><path d="M85.04 85.04h341.92v341.92H85.04z" style="fill:#ded300" transform="rotate(-45 256 256.002)"/><path d="M256 0 0 256l256 256 256-256Zm0 14.22L497.78 256 256 497.78 14.22 256Z" style="fill:#b9870f"/><path d="M254.16 125.52c-70.6 0-128.08 57.46-128.08 128.08 0 2.69.09 5.35.26 8 .12 2 .28 4 .5 5.95 7 64.08 61.43 114.13 127.32 114.13a127.1 127.1 0 0 0 61.6-15.82c1.27-.67 2.51-1.39 3.74-2.14a128.6 128.6 0 0 0 56.13-69.44c.19-.58.38-1.15.55-1.72a128.08 128.08 0 0 0-122-167" style="fill:#1c1514"/><path d="M368.12 213.17c-13.88-10.5-35.68-19.33-60.41-24.18-23.17-4.52-46.2-5.22-67.33-2.2-5.51-33.11 23.4-49.36 29.55-52.41l.09-.06-.33-.64a121.24 121.24 0 0 1 98.43 79.49" class="cls-4"/><path d="M254.16 132.69c1.51 0 3 0 4.49.08A69 69 0 0 0 245.11 145a51.68 51.68 0 0 0-11.81 43 148.7 148.7 0 0 0-22.89 6.16C208 150 223 137.61 223.18 137.48l-.47-.64a120.4 120.4 0 0 1 31.45-4.15M212.26 140.18c-5.07 8.95-10.87 26.16-8.87 56.66a170 170 0 0 0-17.72 8.45c-1.81-8.6-5.65-15.27-11.43-19.87a31.33 31.33 0 0 0-15.24-6.34 121.4 121.4 0 0 1 53.24-38.9M154 185.91c3.16 0 10.06.57 15.79 5.16 4.9 3.93 8 10 9.23 18a157.8 157.8 0 0 0-45.76 41.8 120.2 120.2 0 0 1 20.74-65M133.67 263.42c5.87-9.62 20.17-29.47 46.06-46.19.31 14.8-3.82 30.55-7.84 45.84-4.12 15.76-8 30.65-7.08 43.94a132.6 132.6 0 0 0 7.41 35.4 120.5 120.5 0 0 1-38.55-79" class="cls-4"/><path d="M254.16 374.52a120.32 120.32 0 0 1-72.32-24.07l1.33-.75c-.1-.16-9.35-17.2-11.23-43.2-.85-12.11 2.91-26.44 6.89-41.61 4.48-17.15 9.14-34.87 7.88-51.9a166 166 0 0 1 17.29-8.65c2.26 22.73 8.68 54.59 25.93 85.74 18.17 32.74 44.14 57 77.29 72.16a120.1 120.1 0 0 1-53.06 12.28" class="cls-4"/><path d="M315.26 357.92C231.51 322.8 214.36 239.29 211 201.56a139 139 0 0 1 23.88-6.56c12.35 44.12 34 64.87 77.27 74 30.29 6.4 48.52 19.53 55.74 25.69a121.47 121.47 0 0 1-52.63 63.22" class="cls-4"/><path d="M370.3 287.33c-9-7.22-27.44-19.17-56.68-25.34-39.93-8.46-60.09-27.61-71.62-68.18 53.53-7.44 112.19 11.07 130 32.74a121.1 121.1 0 0 1-1.73 60.78" class="cls-4"/></svg>