<svg id="Capa_1" data-name="Capa 1" xmlns="http://www.w3.org/2000/svg" viewBox="0 0 512 512"><defs><style>.cls-1{fill:#ded300;}.cls-2{fill:#b9870f;}.cls-3{fill:#1c1514;}.cls-4{fill:#e95019;}</style></defs><rect class="cls-1" x="85.04" y="85.04" width="341.92" height="341.92" transform="translate(-106.04 256) rotate(-45)"/><path class="cls-2" d="M256,0,0,256,256,512,512,256Zm0,14.22L497.78,256,256,497.78,14.22,256Z"/><path class="cls-3" d="M254.16,125.52c-70.6,0-128.08,57.46-128.08,128.08,0,2.69.09,5.35.26,8,.12,2,.28,4,.5,5.95,7,64.08,61.43,114.13,127.32,114.13a127.09,127.09,0,0,0,61.6-15.82c1.27-.67,2.51-1.39,3.74-2.14a128.59,128.59,0,0,0,56.13-69.44c.19-.58.38-1.15.55-1.72a128.08,128.08,0,0,0-122-167"/><path class="cls-4" d="M368.12,213.17c-13.88-10.5-35.68-19.33-60.41-24.18-23.17-4.52-46.2-5.22-67.33-2.2-5.51-33.11,23.4-49.36,29.55-52.41l.09-.06-.33-.64a121.24,121.24,0,0,1,98.43,79.49"/><path class="cls-4" d="M254.16,132.69c1.51,0,3,0,4.49.08A69,69,0,0,0,245.11,145a51.68,51.68,0,0,0-11.81,43,148.68,148.68,0,0,0-22.89,6.16C208,150,223,137.61,223.18,137.48l-.47-.64a120.4,120.4,0,0,1,31.45-4.15"/><path class="cls-4" d="M212.26,140.18c-5.07,8.95-10.87,26.16-8.87,56.66a169.56,169.56,0,0,0-17.72,8.45c-1.81-8.6-5.65-15.27-11.43-19.87A31.33,31.33,0,0,0,159,179.08a121.4,121.4,0,0,1,53.24-38.9"/><path class="cls-4" d="M154,185.91c3.16,0,10.06.57,15.79,5.16,4.9,3.93,8,10,9.23,18a157.84,157.84,0,0,0-45.76,41.8,120.19,120.19,0,0,1,20.74-65"/><path class="cls-4" d="M133.67,263.42c5.87-9.62,20.17-29.47,46.06-46.19.31,14.8-3.82,30.55-7.84,45.84-4.12,15.76-8,30.65-7.08,43.94a132.59,132.59,0,0,0,7.41,35.4,120.51,120.51,0,0,1-38.55-79"/><path class="cls-4" d="M254.16,374.52a120.32,120.32,0,0,1-72.32-24.07l1.33-.75c-.1-.16-9.35-17.2-11.23-43.2-.85-12.11,2.91-26.44,6.89-41.61,4.48-17.15,9.14-34.87,7.88-51.9A165.85,165.85,0,0,1,204,204.34c2.26,22.73,8.68,54.59,25.93,85.74,18.17,32.74,44.14,57,77.29,72.16a120.11,120.11,0,0,1-53.06,12.28"/><path class="cls-4" d="M315.26,357.92C231.51,322.8,214.36,239.29,211,201.56A139.2,139.2,0,0,1,234.88,195c12.35,44.12,34,64.87,77.27,74,30.29,6.4,48.52,19.53,55.74,25.69a121.47,121.47,0,0,1-52.63,63.22"/><path class="cls-4" d="M370.3,287.33c-9-7.22-27.44-19.17-56.68-25.34-39.93-8.46-60.09-27.61-71.62-68.18,53.53-7.44,112.19,11.07,130,32.74a121.13,121.13,0,0,1-1.73,60.78"/></svg>