<svg xmlns="http://www.w3.org/2000/svg" id="Capa_1" data-name="Capa 1" viewBox="0 0 512 512"><defs><style>.cls-3{fill:#1e1e1c}</style></defs><path d="M85.04 85.04h341.92v341.92H85.04z" style="fill:#e83876" transform="rotate(-45 256 256.002)"/><path d="M256 0 0 256l256 256 256-256Zm0 14.22L497.78 256 256 497.78 14.22 256Z" style="fill:#dd0162"/><path d="m283 256.44 76.36-24.13 22.35 56.1L319 309.53s6.38-21.83-11.17-38.62S283 256.44 283 256.44M238.9 255.22 165 232.3l-20.49 57.92 60.85 19.31s-8.08-35 33.52-54.31" class="cls-3"/><path d="m211.16 368.48-24.53-21c.08-1.93-.1-3.9-.07-5.48l.9-64.92 2-144v-2.74c.07-5.83-9.23-5.83-9.31 0q-.88 62.85-1.78 125.7-.54 37.68-1.07 75.38-.1 7.89-.22 15.78a16.6 16.6 0 0 1-1.65 1.77l-15.64 14.79-5 4.72c-4.31 4.08 2.27 10.47 6.59 6.4q10.22-9.69 20.46-19.36l22.62 19.36c4.48 3.84 11.09-2.54 6.58-6.4M364.63 366.71l-22.48-19.23c.07-1.77-.08-3.59-.06-5q.41-29.74.84-59.48l1.86-131.91v-2.5c.07-5.35-8.46-5.35-8.54 0q-.81 57.59-1.63 115.15-.48 34.51-1 69c-.06 4.81-.14 9.64-.2 14.46a17 17 0 0 1-1.51 1.62l-14.32 13.54-4.56 4.32c-4 3.73 2.09 9.59 6 5.86l18.73-17.74 20.72 17.74c4.11 3.52 10.17-2.32 6-5.86" class="cls-3"/><path d="M248.62 185.07c-3.73 12-33.9 13.84-67.39 4s-57.59-27.52-53.86-39.56 33.9-13.83 67.38-4 57.6 27.52 53.87 39.55M378.48 160c1.55 7.84-14.92 17.51-36.78 21.56s-40.82 1-42.36-6.86 14.92-17.51 36.77-21.58 40.82-1 42.37 6.88" class="cls-3"/><path d="M323.57 309.53c0 31.9-26.6 57.76-59.42 57.76s-59.43-25.86-59.43-57.76 26.6-57.75 59.43-57.75 59.42 25.86 59.42 57.75" style="fill:#fff"/><path d="M327.3 309.53c0-33.84-28.34-61.37-63.15-61.37S201 275.69 201 309.53c0 23.41 13.57 43.8 33.47 54.14-2.9 2.73-5.77 5.45-8.64 8.18-1.68 1.57-3.34 3.14-5 4.71-4.3 4.08 2.29 10.47 6.58 6.41q8.15-7.71 16.27-15.4a64.66 64.66 0 0 0 40.2.25l14.82 16.73c3.6 4.07 9.14-2.32 5.53-6.4-1.4-1.58-2.8-3.14-4.18-4.72-2.65-3-5.27-5.94-7.91-8.91 20.82-10 35.17-30.92 35.17-55m-63.15 54.13c-30.72 0-55.71-24.28-55.71-54.13s25-54.13 55.71-54.13 55.7 24.29 55.7 54.13-25 54.13-55.7 54.13" class="cls-3"/></svg>