<svg id="Capa_1" data-name="Capa 1" xmlns="http://www.w3.org/2000/svg" viewBox="0 0 512 512"><defs><style>.cls-1{fill:#e83876;}.cls-2{fill:#dd0162;}.cls-3{fill:#fff;}.cls-3,.cls-4{fill-rule:evenodd;}.cls-4{fill:#1c1514;}</style></defs><rect class="cls-1" x="85.04" y="85.04" width="341.92" height="341.92" transform="translate(-106.04 256) rotate(-45)"/><path class="cls-2" d="M256,0,0,256,256,512,512,256Zm0,14.22L497.78,256,256,497.78,14.22,256Z"/><path class="cls-3" d="M269.78,139.27c-3.63,1.58-6.83,4.12-10.19,6.19l0-.29A17.46,17.46,0,0,1,256,149.7a17.21,17.21,0,0,1-2.59,3.2,16.76,16.76,0,0,1-1.13,1.53,3,3,0,0,1-.27.94c-6,9.71-12.12,19.37-18.2,29q-20.32,32.31-40.64,64.64-27.12,43.15-54.24,86.3c-1.69,2.7-2.47,5.15-.65,8h3.21a41.06,41.06,0,0,0,3.92-3.76q30.21-37.81,60.35-75.67l27.66-34.72q14-17.62,28.07-35.28c2.74-3.44,5.5-6.84,7.9-9.82l.05,0a17,17,0,0,1,2-2.39,16.42,16.42,0,0,1,3-3.51c3-4.92,5.84-9.18,8.34-13.6A30.66,30.66,0,0,0,287,151.7a12.3,12.3,0,0,0-17.21-12.43m8.53,15.6c-1.7,5.48-5.58,9.51-9.16,13.73-.54.64-1.17,1.21-1.92,2l0,0-5.4,5.17a1.4,1.4,0,0,0,.1.16l-2.3,2-.1.09h0l-9.8,8.32-.46-.41c2.18-6.31,4.36-12.62,6.68-19.37a.54.54,0,0,1,.07.13,63.41,63.41,0,0,1,4.8-8.43,2,2,0,0,1,.15-1.49c2.53-3.09,4.85-6.42,7.76-9.1,2.44-2.24,5.24-1.83,7.71.07a6.45,6.45,0,0,1,1.9,7.22"/><path class="cls-4" d="M336.58,262.69a184.09,184.09,0,0,0-19.83-40c-5.42-8.16-11.9-15.28-21-19.58a2.23,2.23,0,0,1-.65-1.91c1.42-6.47,3.16-12.88,4.39-19.4,2.05-11,2.38-21.94,0-32.93-2.26-10.39-7.85-18.51-16.93-23.93-3.5-2.08-7.7-3-11.59-4.44h-5.5a2.64,2.64,0,0,1-.79.39c-7.86.91-13.27,5.37-17,12-4.6,8.11-5.65,16.95-5,26.1a5.48,5.48,0,0,1-.33,2.35c0,.17,0,.33.06.49a18.9,18.9,0,0,1,.59,1.89,20,20,0,0,1,1.47,3.94,19.49,19.49,0,0,1,3.15,7.62l4.48,7,0,0a2,2,0,0,1,.2.31,10.76,10.76,0,0,1,.77,1,17.42,17.42,0,0,1,3.77,4,16.56,16.56,0,0,1,4.75,4.06l24.6,15.17c-3.37,8.92-6.7,18.08-10.28,27.13-4.74,11.94-10,23.68-12.39,36.41-2.51,13.44-3.15,26.84.78,40.11,1.68,5.69,4.18,11,9.07,14.74,1.79,1.36,4.09,1.26,5.31-.26s.86-3.45-.75-5.09a26.91,26.91,0,0,1-3.61-4.09c-3.69-5.8-4.95-12.42-5.44-19.1a97.83,97.83,0,0,1,6.61-42.27c4.18-11,8.64-22,12.91-33,1.53-3.95,2.86-7.95,4.29-11.92A35.1,35.1,0,0,1,304.06,218c7,7.41,12,16.16,16.35,25.24,3.41,7.11,6.31,14.48,9.44,21.72,1,2.31,2.7,3.27,4.64,2.61a3.64,3.64,0,0,0,2.09-4.89M292.27,182.3c-1.12,5.64-2.54,11.22-4,17.57-8.17-5-16-9.84-23.78-14.68a15.93,15.93,0,0,1-3.33-2,17.87,17.87,0,0,1-7.54-10.74,18,18,0,0,1-.78-2.05,21,21,0,0,1-2.28-9.91c0-.23-.12-.47-.16-.69a21.78,21.78,0,0,1-.52-4.57,18.2,18.2,0,0,1,0-3.54l-.19.12a35.2,35.2,0,0,1,4-15.26c4.51-8.22,13.2-11.11,21.94-7.3,10.05,4.37,15.32,12.43,17.3,22.84,1.93,10.08,1.34,20.18-.65,30.19"/></svg>