<svg xmlns="http://www.w3.org/2000/svg" id="Capa_1" data-name="Capa 1" viewBox="0 0 512 512"><defs><style>.cls-3{fill:#fff;fill-rule:evenodd}</style></defs><path d="M85.04 85.04h341.92v341.92H85.04z" style="fill:#ab7cb1" transform="rotate(-45 256 256.002)"/><path d="M256 0 0 256l256 256 256-256Zm0 14.22L497.78 256 256 497.78 14.22 256Z" style="fill:#25204d"/><path d="M300.42 416.17a93 93 0 0 1-21.07 5.43 186 186 0 0 1-41.17 1.61c-11.79-.79-23.4-2.5-34.59-6.48-4.75-1.68-8.15-4.59-9.23-9.68a11.74 11.74 0 0 1 .53-6.73c3-8 6.07-16.06 9.08-24 5.67-15 11.41-30 16.94-45.1a144.4 144.4 0 0 0 8.09-33.5 94 94 0 0 0 .39-18.07v-1.61h44.23c-.08 1.06-.17 2.06-.22 3.07a110.3 110.3 0 0 0 1.36 23c2.14 12.87 6.17 25.18 10.79 37.35q11.06 29.13 22 58.32c2.65 7-.26 13.65-7.17 16.43M243 202.79c-7-1.48-13.47-3-20-4.15-2.88-.51-5.86 0-6 3.79s2.57 4.32 5.61 4.4a35.27 35.27 0 0 1 17.68 5.52c-1.91 9.16-16.25 21-28.2 19-8.19-1.37-14.16-5.56-20-10.45-10.41-8.71-17.57-19.9-23-32.21-.44-1 .16-3.42 1-3.84 12.83-6.51 26.12-11.58 40.86-10.81 10.1.54 19 4.23 25.88 11.84a22.84 22.84 0 0 1 6.19 16.9M365.69 159.56c-5.22 16.19-12 31.61-24.42 43.74-10.33 10.09-22.71 15.16-37.35 13.55a26.67 26.67 0 0 1-18.11-10.45 102.66 102.66 0 0 1 39.61-26.78c5.62-2.16 11.45-3.81 17.25-5.46 2.83-.8 5.1-1.91 4.36-5.23-.82-3.62-3.66-3.55-6.56-2.83-21.59 5.37-40.85 15.05-56.76 30.87-.74.73-1.6 1.36-2.43 2.05-11.17-17.77-.66-43.42 20-49.07 15.8-4.31 31.55-3 47.17 1.08a134 134 0 0 1 15.19 5.15c1 .4 2.3 2.52 2 3.38" class="cls-3"/><path d="M368.64 152.15c-18.31-8.21-37.44-12.31-57.57-10.53-12.59 1.11-24.4 4.34-33.28 14.26-11.29 12.66-13.57 32.19-5.77 48.62.64 1.35 1.43 3.44.85 4.4-3.08 5-6.58 9.81-9.93 14.67-3.38-3.66-6.75-7-9.74-10.67a8 8 0 0 1-1.89-5.18c1.12-10.6-2-19.67-9.51-27.12a44.35 44.35 0 0 0-30.44-13c-17.93-.67-33.8 6-49.17 14.16-2.63 1.41-3 3.62-2 6.27 7.26 19.18 18.22 35.54 35.77 46.81 15 9.6 33.59 7 45.14-6 2.47-2.8 4.59-5.91 7.41-9.59 3.24 4.31 6.3 8.24 9.14 12.33a3.9 3.9 0 0 1 .15 3c-2.62 8.68-5.57 17.26-7.93 26 0 0-.11 1.64-.26 4.09l-19.14.07c-4.69 0-9.36-.11-14.08-.14a47 47 0 0 0-5 .1 5.68 5.68 0 0 0-.4 11.2 26 26 0 0 0 4 .19h6.58a93.8 93.8 0 0 1-1.11 25.09 168 168 0 0 1-8.72 30.71q-11.79 31.11-23.62 62.2a20 20 0 0 0-1 12c1.8 7.45 6.72 11.93 13.76 14.54a106.6 106.6 0 0 0 28.97 6.37q9.93.82 19.91 1a183.4 183.4 0 0 0 29.14-1.76 97.2 97.2 0 0 0 24.38-6.63c.43-.2.86-.39 1.27-.61l.16-.08-.14.06c4-1.67 6.8-5.86 8.1-8.22a5 5 0 0 0 .42-.76c.08-.15.14-.3.21-.46l.21-.49a19 19 0 0 0 .2-14.31q-9.42-25.08-18.92-50.12C290 331.94 285 319.34 282.27 306a105.7 105.7 0 0 1-2.19-26.67c.07-1 .21-2.07.32-3.2h8.63a5.87 5.87 0 0 0 4.9-2.18 5.51 5.51 0 0 0 .71-6.1c-1.11-2.34-3.12-3.26-5.62-3.26h-19.94l-11.81.05c0-.45.08-.89.12-1.3l.19-.13c.19-1.68.45-3.35.74-5a2.3 2.3 0 0 0 .16-.81c3.06-16 10.72-29.64 20.1-42.91 6.53 6.42 13.49 10.79 22.06 11.81 20.85 2.49 37.08-6 50-21.71 10.67-12.92 16.92-28.12 21.82-44 1.61-5.02 1.14-6.23-3.82-8.44m-125.39 52.22c-6.94-1.46-13.35-3-19.82-4.11-2.84-.51-5.8 0-5.94 3.76s2.55 4.29 5.58 4.36a34.86 34.86 0 0 1 17.5 5.47c-1.89 9.08-16.09 20.82-27.95 18.84-8.11-1.36-14-5.53-19.85-10.37-10.31-8.62-17.41-19.7-22.76-31.92-.43-1 .17-3.4 1-3.8 12.71-6.45 25.9-11.49 40.51-10.72 10 .54 18.8 4.19 25.65 11.74a22.45 22.45 0 0 1 6.08 16.75m-9.51 216.15v-.1l.08.1Zm71.11-1.72h-.08a.3.3 0 0 0 .08 0m-32-142.63c-.07 1.07-.17 2.06-.22 3.05A108.3 108.3 0 0 0 274 302c2.12 12.77 6.12 25 10.68 37q10.95 28.89 21.84 57.81c2.62 6.94-.26 13.53-7.12 16.31a92.8 92.8 0 0 1-20.89 5.37 186.2 186.2 0 0 1-40.79 1.61c-11.69-.79-23.2-2.49-34.3-6.43-4.69-1.66-8.07-4.56-9.15-9.61a11.93 11.93 0 0 1 .54-6.68c3-7.92 6-15.88 9-23.82 5.61-14.89 11.3-29.75 16.77-44.7a142.7 142.7 0 0 0 8-33.16 94 94 0 0 0 .41-17.91v-1.61h19.86c-.15 2.79-.27 5.4-.32 7.29v1.65q-.06 26.36-.1 52.72v33.03c.19 2.55 1.69 4.45 4.15 3.88a6.37 6.37 0 0 0 3.78-3.83c.65-2.12.19-4.58.19-6.88v-80.86c0-2.09 0-4.51.1-7Zm90.56-114.65c-5.15 16.06-11.86 31.34-24.17 43.37-10.28 10-22.52 15-37 13.43a26.6 26.6 0 0 1-18-10.36 101.8 101.8 0 0 1 39.27-26.55c5.57-2.14 11.36-3.78 17.11-5.41 2.8-.8 5.05-1.9 4.31-5.19-.83-3.59-3.62-3.51-6.51-2.79-21.4 5.31-40.48 14.91-56.25 30.58-.74.74-1.59 1.34-2.41 2-11.09-17.6-.66-43 19.85-48.63 15.67-4.28 31.28-3 46.77 1.08a139 139 0 0 1 15 5.09c1.08.42 2.37 2.52 2.08 3.38Z" style="fill-rule:evenodd"/></svg>