<svg xmlns="http://www.w3.org/2000/svg" id="Capa_1" data-name="Capa 1" viewBox="0 0 512 512"><defs><style>.cls-3{fill:#e41f1a}.cls-4{fill:#1e1e1c}</style></defs><path d="M85.04 85.04h341.92v341.92H85.04z" style="fill:#ded300" transform="rotate(-45 256 256.002)"/><path d="M256 0 0 256l256 256 256-256Zm0 14.22L497.78 256 256 497.78 14.22 256Z" style="fill:#b9870f"/><path d="M389.66 164.28c-21.81-32.42-41.07-34.68-58.06-40.55s-45.92-.43-47.47 30.1 41 48.45 66.08 36.72c0 0-26.4 26.66-63.66-15.58l-8.2 22.38s9.16-45.1-7.23-47.75c-11.76-2-16.79.13-18.35 30.66s8.29 71.05 11.82 73.27 20.67 6.16 20.67 6.16 7.92-42.17 22.12-38.16-7.76 40.35-4.67 43.27 32.9 14.83 32.9 14.83c.62-2.52 75.86-82.95 54.05-115.35M334.55 269c-.45.59-.94 1.08-1.36 1.61-8.75-3.57-17.83-7.45-22.44-9.65a75 75 0 0 1 2.1-5.55c5.36-14.22 9.14-25.82 5-34.13a13.53 13.53 0 0 0-8.47-6.92 14.25 14.25 0 0 0-11.79 1.8c-9.58 5.85-15.29 23.71-18.05 34.48-4.13-1.11-7.93-2.19-9.94-2.92-3.34-7.66-10.78-40.68-9.44-67.11 1-19.81 3.51-23.3 4.27-24 .15-.09 1-.53 5.4.24.11 0 .23 0 .37.13a3.5 3.5 0 0 1 .57.63c4.18 6.06 2.63 26.39.25 38.26l14.29 4 4.14-11.29c12.35 11.39 25 17.33 37.62 17.64 17.29.5 28-10 28.38-10.54l10.1-10.17-4.8-8.14-13.72 6.4c-11.47 5.36-28.88 3.1-41.5-5.38-5.52-3.66-14.58-11.75-13.95-24.2.45-9.22 3.87-16 10.17-20.33 8.34-5.68 20.06-5.58 27.44-3 2.2.68 4.42 1.37 6.68 2.1 7.21 2.25 14.57 4.52 22.33 9.4 6.55 4.13 13.44 10.23 20.66 19.71a.13.13 0 0 1 .14.08c2.15 2.15 7.56 8.38 7.12 14.09C387.68 190 377.74 217 334.55 269" class="cls-3"/><path d="M346 278.51c30.72-37 69.25-89.49 49.8-118.38-20.53-30.54-39.87-36.57-55.49-41.4-2.14-.64-4.2-1.32-6.3-2-10.29-3.5-27.11-4.32-40.62 4.84A37.34 37.34 0 0 0 278 144.31a15.9 15.9 0 0 0-5.6-2.13c-5.89-1-12.05-1.25-17.21 2.88-6.11 5-8.83 14.42-9.8 34.83-1.34 26.26 6.71 74.64 15.21 80 4 2.5 16.14 5.51 23 7.1l7.56 1.68 1.41-7.56c2.77-14.61 8.67-29.55 12.2-32.08.44 4.49-4.09 16.42-5.83 21.14-3.88 10.06-6 15.6-1.34 20 1 1 4.12 3.92 35.23 16.4l8 3.22 1.71-7 3.46-4.25m-28.1-57.21a13.58 13.58 0 0 0-8.47-6.93 14.26 14.26 0 0 0-11.79 1.81c-9.58 5.85-15.3 23.71-18 34.48-4.14-1.11-7.94-2.19-9.95-2.92-3.36-7.66-10.78-40.69-9.44-67.11.95-19.81 3.51-23.3 4.27-24 .15-.09 1-.53 5.4.23.1 0 .23.06.37.14a3.2 3.2 0 0 1 .56.63c4.19 6.07 2.64 26.38.26 38.26l14.28 4 4.14-11.3c12.36 11.4 25 17.33 37.63 17.65 17.28.5 28-10 28.38-10.54l10.1-10.17-4.81-8.14-13.72 6.4c-11.46 5.35-28.87 3.09-41.48-5.38-5.53-3.66-14.59-11.75-14-24.21.44-9.21 3.85-16 10.17-20.32 8.34-5.68 20-5.58 27.43-3 2.21.68 4.43 1.37 6.69 2.09 7.21 2.26 14.57 4.53 22.33 9.41 6.55 4.13 13.44 10.22 20.65 19.71a.12.12 0 0 1 .15.08c2.14 2.15 7.56 8.38 7.11 14.08 1.53 13.81-8.4 40.72-51.6 92.79-.46.6-.95 1.08-1.36 1.61-8.75-3.57-17.83-7.45-22.44-9.66.58-1.74 1.35-3.81 2.1-5.54 5.35-14.22 9.14-25.82 5-34.13" class="cls-4"/><path d="M334.55 269c-.45.59-.94 1.08-1.36 1.61-8.75-3.57-17.83-7.45-22.44-9.65a75 75 0 0 1 2.1-5.55c5.36-14.22 9.14-25.82 5-34.13a13.53 13.53 0 0 0-8.47-6.92 14.25 14.25 0 0 0-11.79 1.8c-9.58 5.85-15.29 23.71-18.05 34.48-4.13-1.11-7.93-2.19-9.94-2.92-3.34-7.66-10.78-40.68-9.44-67.11 1-19.81 3.51-23.3 4.27-24 .15-.09 1-.53 5.4.24.11 0 .23 0 .37.13a3.5 3.5 0 0 1 .57.63c4.18 6.06 2.63 26.39.25 38.26l14.29 4 4.14-11.29c12.35 11.39 25 17.33 37.62 17.64 17.29.5 28-10 28.38-10.54l10.1-10.17-4.8-8.14-13.72 6.4c-11.47 5.36-28.88 3.1-41.5-5.38-5.52-3.66-14.58-11.75-13.95-24.2.45-9.22 3.87-16 10.17-20.33 8.34-5.68 20.06-5.58 27.44-3 2.2.68 4.42 1.37 6.68 2.1 7.21 2.25 14.57 4.52 22.33 9.4 6.55 4.13 13.44 10.23 20.66 19.71a.13.13 0 0 1 .14.08c2.15 2.15 7.56 8.38 7.12 14.09C387.68 190 377.74 217 334.55 269" class="cls-3"/><path d="m312.41 327.13-73-31.5a5.75 5.75 0 0 1-3-7.53l11.95-27.67a5.72 5.72 0 0 1 7.53-3l73 31.51a5.71 5.71 0 0 1 3 7.52l-11.94 27.67a5.74 5.74 0 0 1-7.53 3" class="cls-4"/><path d="m253.21 265.92 19.21 7.66s7.11 3.37 4.14 12.23-9.72 7.2-9.72 7.2l-20.53-8.51" class="cls-4"/><path d="M229.35 343.71c.13-2.63 58.81-95.79 31.24-123.51s-46.85-26.33-64.59-28.81-45.17 8.26-40.91 38.49 2.52 43.84 2.52 43.84-1.12-46.87-16.12-45.58c-11.87 1-16.5 3.39-12.23 33.62s21.57 68.24 25.44 69.75 21.48 2.14 21.48 2.14-.19-42.94 14.48-41.67 0 41.08 3.62 43.38 35.12 8.35 35.12 8.35" class="cls-3"/><path d="M236.36 352.64 228 351c-21.87-4.21-34.57-7.37-37.74-9.4-5.39-3.45-4.37-9.3-2.51-19.93.87-5 3.05-17.5 1.81-21.89-3 3.2-6 19-5.93 33.82v7.74l-7.73-.27c-7.06-.25-19.55-.92-23.93-2.65-9.36-3.64-26.44-49.55-30.11-75.64-2.79-19.71-2-29.28 2.74-35.3 4.25-5.33 10.34-6.28 16.22-6.77a15 15 0 0 1 6.4.92A37.1 37.1 0 0 1 158 196.47c11.57-11.6 28.22-13.95 39-12.45 2.16.29 4.35.54 6.58.78 16.19 1.81 36.36 4 62.32 30.15 24.55 24.69-3.38 83.54-26.52 125.66-1.18 2.14-2.1 3.8-2.64 4.83Zm-35-22.6c5 1.31 14.56 3.41 23.88 5.28.32-.57.65-1.21 1-1.89 40.12-73 37.92-99 29-108-22.26-22.38-38.07-24.14-53.4-25.84-2.36-.25-4.69-.5-7-.84-7.68-1-19.22 1.05-26.38 8.22-5.36 5.37-7.44 12.73-6.13 21.86 4.34 30.87 2.61 45.23 2.53 45.83l-14.82-.76c-.44-17.7-4.54-36.36-8.43-38.42-3.95.44-5.19.94-5.47 1.28-.77 1-2.29 5.26.35 24 3.69 26.19 17.24 57.23 22 64.11 2.09.36 6.07.72 10.35 1 .61-11.11 2.88-29.7 11.14-37.3a14.26 14.26 0 0 1 11.22-4 13.3 13.3 0 0 1 9.65 5.21c5.65 7.35 4.09 19.43 1.47 34.47-.32 1.81-.7 4-1 5.79" class="cls-4"/><path d="m214.53 393.52-69.91-15.12a7.56 7.56 0 0 1-5.54-8.81l4.72-26.09a6.94 6.94 0 0 1 8.2-5.83l69.9 15.11a7.57 7.57 0 0 1 5.56 8.82l-4.72 26.08a7 7 0 0 1-8.21 5.84" class="cls-4"/><path d="m149.62 346.17 19.13 3.54s7.19 1.85 6.24 11.12-7.43 9-7.43 9l-20.5-4.1" class="cls-4"/></svg>