<svg xmlns="http://www.w3.org/2000/svg" id="Capa_1" data-name="Capa 1" viewBox="0 0 512 512"><defs><style>.cls-5{fill-rule:evenodd}</style></defs><path d="M85.04 85.04h341.92v341.92H85.04z" style="fill:#7dba32" transform="rotate(-45 256 256.002)"/><path d="M256 0 0 256l256 256 256-256Zm0 14.22L497.78 256 256 497.78 14.22 256Z" style="fill:#13a646"/><path d="M338.87 254.81a82.5 82.5 0 1 1-82.5-82.5 82.49 82.49 0 0 1 82.5 82.5" style="fill:#fff;fill-rule:evenodd"/><path d="M252.4 319.43c-21.34.39-35.81-11.4-42-33.49-6.86-24.43 1.63-49.3 20.88-60.25-1.57 4.89-3.53 9.38-4.36 14.07-.92 5.12-.63 11.05 5.69 12.3 6.7 1.33 12-2.52 13.23-9.09s.72-13.58.95-20.39c.46-13.73 5.81-24.69 18-31.69.71-.4 1.66-.37 3.47-.72-7 19.38 3.48 32.72 14.65 45.92 8.2 9.69 17.09 18.83 19.89 32.11 4.9 23.2-10.13 46.44-32.62 49.51 23.08-28.4 21.15-55.25-3.74-69.66-4 6.41-6.79 14.05-12.14 18.81-18.28 16.22-21.26 30.87-1.91 52.57" style="fill-rule:evenodd;fill:#e41f1a"/><path d="M315.57 309.6c27.65-36.06 27.61-71.37.08-107.16 14.41-14.34 28.42-28.85 43.22-42.52 2.59-2.4 9.7-3.12 12.5-1.26 3.32 2.2 6.86 8.93 5.76 12.15-6.38 18.75-1 34.44 8.79 50.46 13.82 22.63 13.7 46.43-.19 69-9.65 15.72-14.91 31.18-8.72 49.63 1.13 3.33-2.1 10.39-5.33 12.28s-10.8 1.57-13.58-1c-14.69-13.33-28.45-27.66-42.53-41.64m10.62-107c24.08 35.71 24.12 70.58.38 106.17 11.91 11.86 23.8 23.82 35.9 35.57 1.13 1.11 3.56.88 5.39 1.28.34-2.1 1.47-4.44.9-6.25-5.62-17.73-2.16-33.86 7.78-49.11 15.24-23.33 15-46.6-.3-69.91-9.79-14.89-13-30.91-7.61-48.33.58-1.89-.34-4.24-.57-6.37-2.09.45-4.87.19-6.17 1.45-11.92 11.57-23.58 23.38-35.7 35.5M309.3 315.89c14.43 14.48 29.16 28.69 43 43.7 2.27 2.47 2.6 10.19.52 12.42-3 3.2-8.94 4.74-13.69 4.89-7.51.26-15.37-2.82-22.56-1.53-8.16 1.46-16.25 5.32-23.51 9.61-24.54 14.48-49 14.85-73.14 0-14.88-9.14-29.62-14-47.15-8.2-3.67 1.21-11.19-1.8-13.19-5.11s-1.09-11.09 1.64-14.09c13.15-14.47 27.35-28 41.2-41.86 35.62 27.68 70.89 27.48 106.86.14m-106.2 11c-11.88 11.82-23.71 23.48-35.33 35.34-1.17 1.2-1.94 3.93-1.37 5.35.44 1.13 3.55 2.26 4.91 1.77 19.79-6.93 37-1.2 53.91 9.37 21.14 13.19 42.83 12.48 63.72-1 16.07-10.36 32.81-14.78 51.55-8.65 1.57.51 4.56.08 5.27-1s.45-4.31-.62-5.4c-12-12.26-24.21-24.28-36.21-36.2-35.69 24-70.6 23.67-105.83.39M309.18 196.35c-37.5-27.8-68.82-27.72-107 .09C188 182 173.33 167.77 159.57 152.7c-2.35-2.57-2.42-9.14-.95-12.82 2.45-6.08 8.55-6 14.58-5.12 7.77 1.09 15.84 2.69 23.41 1.57 7-1 14-4.59 20.23-8.37 25.84-15.76 51.45-16.12 77 .1 13.67 8.66 27.72 12.93 43.78 6.94 5.63-2.1 11.49-1.14 14.8 4.71s2 11.2-2.88 16c-13.47 13.34-26.76 26.88-40.4 40.62m-.36-11.08c12-12 23.76-23.69 35.33-35.57 1.17-1.21 2.06-4 1.46-5.28s-3.63-2.39-5-1.89c-20.44 7.26-38 .76-55.41-9.95-20.21-12.41-41.33-11.77-61.26.92-16.62 10.58-33.63 15.66-53 9.27-1.54-.51-4.43.08-5.25 1.21s-.35 4.19.71 5.26c12 12.23 24.17 24.25 36.21 36.22 35.4-23.64 70.25-23.92 106.22-.19M196.31 202.9c-28 34.2-28 71.76 0 106.07-13.84 13.81-27.8 27.58-41.54 41.56-4.47 4.56-9 6.68-14.92 3-5.77-3.52-5.95-8.71-5.34-14.74.91-9.23 2.24-18.71 1-27.78-.86-6.36-5.3-12.42-8.77-18.25-14.54-24.46-14.75-48.9.22-73.06 9-14.5 14.31-29.1 7.75-46.22-2.17-5.66-.82-12.37 5.44-14.2 4.28-1.26 11.21-.4 14.31 2.42 14.47 13.17 28 27.37 41.85 41.16m-11.14-.12c-10.46-10.38-20.84-20.91-31.54-31.12-2.53-2.44-6.09-3.8-9.19-5.65 0 3.71-.13 7.42-.08 11.12a33 33 0 0 0 .58 4.4c2.41 15.89-2.93 29.58-11.27 42.77-13.06 20.74-13.47 42.29-.67 62.92 10.59 17 16 34.15 9.7 53.88a6.47 6.47 0 0 0 1.38 5.23c.58.66 3.66.26 4.61-.67 12.39-12.2 24.6-24.57 36.52-36.58-23.72-35.7-23.49-70.56-.07-106.26" class="cls-5"/></svg>