<svg xmlns="http://www.w3.org/2000/svg" data-name="Capa 1" viewBox="0 0 512 512"><path d="M85.04 85.04h341.92v341.92H85.04z" style="fill:#35a8e0" transform="rotate(-45 256 256.002)"/><path d="M256 0 0 256l256 256 256-256Zm0 14.22L497.78 256 256 497.78 14.22 256Z" style="fill:#28397b"/><path d="m289.82 290.39-33.06-72.66-35.49 72.66z" style="fill:#fff"/><path d="M355.34 209.5a33.8 33.8 0 0 1-4.09-7.13 11 11 0 0 1-.67-.84 113 113 0 0 1-6.88-13l-.9-.87c-20.39-31.91-47.71-57.91-82.81-58.52-48.3-2.67-83.08 27.11-107.32 63-3.44 6.33-7.3 12.39-11.28 18.42-26.08 46.66-36.24 96-36.24 96h285.48s-11.03-50.11-35.29-97.06m-65.52 80.89h-68.55l35.5-72.66Z"/></svg>