<svg id="Capa_1" data-name="Capa 1" xmlns="http://www.w3.org/2000/svg" viewBox="0 0 512 512"><defs><style>.cls-1{fill:#ded300;}.cls-1,.cls-3{fill-rule:evenodd;}.cls-2{fill:#ba870e;}.cls-4{fill:#39277d;}.cls-5{fill:#1e1e1c;}</style></defs><polygon class="cls-1" points="258.72 505.63 5.97 258.25 253.37 5.51 506.11 252.89 258.72 505.63"/><path class="cls-2" d="M258.74,512l-3-2.94L0,258.74l2.94-3L253.26,0l3,2.94L512,253.26l-2.94,3ZM11.87,258.62,258.6,500.12,500.13,253.39,253.39,11.88Z"/><path class="cls-3" d="M259.75,172.47A24.22,24.22,0,0,1,253.12,190c-5.65,6-13.24,6.24-19.44.71-9.89-8.85-9.93-29.34-.07-38.28,5.68-5.16,13.13-5.15,18.81,0,4.71,4.3,7.28,10.9,7.33,20.06"/><path class="cls-4" d="M273.9,273.65s-77.5,0-110.2-8.53-53.31-11.38-86-37c-9.25,18.48-12.09,77.49,39.1,91.7s107.34,17.06,107.34,17.06Z"/><path class="cls-4" d="M308,272.94l58.29-12.8s44.07-17.77,65.4-44.08c17.06,29.86,3.56,72-11.38,87.91s-65.22,35.79-146.43,32.94Z"/><path class="cls-5" d="M301.54,254h11.84l-43.54,68,4.7,3.24S256.62,402.45,224,391s26-68.76,26-68.76l7.88-.76Z"/><path class="cls-5" d="M312.28,235.24h7.15L346,199.38s8.23,1.47,9.7-5.88C355.18,189.55,348,187,348,187s-9.12-4.4-11.46,0,3.53,9.12,3.53,9.12Z"/><path class="cls-5" d="M261.32,237.88l-9.4,30.57L206.07,267l17.63-55s10.53-16.75,26.27-14.69,17.52,16.45,24.28,24.39,16.45,14.39,31.15,15.86,32.32,5,32.32,5S334.2,252,316.86,252s-49.67-8.82-55.54-14.11"/></svg>