<svg id="Capa_1" data-name="Capa 1" xmlns="http://www.w3.org/2000/svg" viewBox="0 0 512 512"><defs><style>.cls-1{fill:#e83876;}.cls-2{fill:#dd0162;}.cls-3,.cls-4{fill:#1c1514;}.cls-3{fill-rule:evenodd;}</style></defs><rect class="cls-1" x="85.04" y="85.04" width="341.92" height="341.92" transform="translate(-106.04 256) rotate(-45)"/><path class="cls-2" d="M256,0,0,256,256,512,512,256Zm0,14.22L497.78,256,256,497.78,14.22,256Z"/><path class="cls-3" d="M272.26,338.68c11.81-3.35,21.59-18.7,19.64-30.82-1.46-9.11-8.63-13.24-17.2-9.93-11.47,4.42-19.8,18.42-18.17,30.58,1.09,8.22,7.65,12.46,15.73,10.17"/><path class="cls-3" d="M180,179.88c7-10.08,4.82-28.15-4.38-36.28-6.92-6.11-15.07-4.76-19.58,3.24-6.07,10.69-3.62,26.8,5.34,35.16,6.06,5.66,13.82,4.78,18.62-2.12"/><path class="cls-4" d="M305.87,306.08l8.89,27.16-3.1,38.11,16-29.34s-.92-25.15,0-32.88c.81-6.9,32.91-48.89,32.91-48.89l37.77-37.7-5.2-59.86-3.46,4s-5,46.64-6.74,51.36-20.83,22.5-31.5,20.17-67.83-71.83-67.83-71.83l-1.51,9,39.39,63.77-16.06,14.2-61.23,19L222.9,318l4.69,1.14,29-35.37,27.54-4.85s4.45,24.89,21.77,27.17"/><path class="cls-3" d="M199.89,240c4.33-1.78,74.42-32,74.42-32s20.77-1.77,5.2,10.66-90.86,60.45-90.86,60.45l-29.43,78.23s-12.1,28.43-17.3,4.44S155.76,256,155.76,256l-6-48.09s7.78-20.36,21.63-19.47,26.82,6.22,32.88,8,47.6-23.11,47.6-23.11,18.17-7.1,5.19,8-51.93,35.56-51.93,35.56Z"/></svg>