<svg id="Capa_1" data-name="Capa 1" xmlns="http://www.w3.org/2000/svg" viewBox="0 0 512 512"><defs><style>.cls-1{fill:#ab7cb1;}.cls-2{fill:#25204d;}.cls-3{fill:#fff;}</style></defs><rect class="cls-1" x="85.04" y="85.04" width="341.92" height="341.92" transform="translate(-106.04 256) rotate(-45)"/><path class="cls-2" d="M256,0,0,256,256,512,512,256Zm0,14.22L497.78,256,256,497.78,14.22,256Z"/><path d="M277.9,296q-13.17-13.22-26.33-26.46-8-8.06-16.06-16.08A10.23,10.23,0,0,1,233,241.93a1.6,1.6,0,0,0-.47-2q-18.51-18.47-37-37a2,2,0,0,0-2.31-.62c-2.84.87-5.29,0-7.46-2q-8-7.26-16-14.45c-.24-.22-.5-.41-.71-.59L155.6,198.53c.3.47.49.78.7,1.09a6.91,6.91,0,0,1-.78,9.22q-6.65,6.74-13.37,13.38a7,7,0,0,1-10-.17c-7.93-7.88-15.81-15.79-23.72-23.69a7.15,7.15,0,0,1,0-10.48q6.1-6.1,12.2-12.21c3.71-3.7,6.57-4,11.42-.72.86-1,1.73-2.24,2.75-3.3,2.46-2.55,5-5,7.51-7.51.74-.72,1-1.19.27-2.19a6.82,6.82,0,0,1,.71-9c12.93-13,27-24.42,43.83-32,10.79-4.85,22.05-7.52,34-6.77a56.87,56.87,0,0,1,25,7.49,2.6,2.6,0,0,1,1.16,1.88c0,.4-1,1.16-1.62,1.17-9.85.15-18.35,4.11-26.38,9.33-9.61,6.24-17.82,14.14-25.8,22.29-1.08,1.1-2.13,2.22-3.28,3.43l9.26,10.29c2.74,3,5.49,6.07,8.21,9.12a6.94,6.94,0,0,1,1.66,6.93,2.25,2.25,0,0,0,.74,2.59q13.57,13.53,27.1,27.1c3.17,3.16,6.35,6.31,9.5,9.5a1.93,1.93,0,0,0,2.41.59,10.15,10.15,0,0,1,11.28,2.56q28.88,28.85,57.74,57.7,7,7,14.35,13.79c1.64,1.52,11.89,12.25,12.46,12.83,8,8,15.91,16.13,23.95,24.13,3.46,3.44,7.08,6.73,10.73,10,2.25,2,2.61,4.37,1.89,7.07-1.23,4.67-4,8.45-7.11,12a47.61,47.61,0,0,1-13.57,11.29,25,25,0,0,1-3.81,1.6c-3,1-5.66.71-7.79-1.89a12.13,12.13,0,0,0-1.75-1.76c-3.25-2.58-3.52-5.87-2.12-9.41a2.56,2.56,0,0,0-.73-3.26q-22.58-22.49-45.06-45c-1.76-1.76-3.57-3.47-5.31-5.25-.6-.61-4.3-4.26-4.85-4.82C287.74,305.75,279.23,297.36,277.9,296Z"/><path d="M317.22,189.68l-14-1.06c1.39,4.56,2.7,8.89,4.09,13.45l-14-1c1.38,4.53,2.68,8.81,4.08,13.44l-14-1c1.39,4.57,2.71,8.87,4.1,13.44l-14-1.06c1.33,4.35,2.59,8.49,3.86,12.63l-.27.18c-.34-.3-.7-.59-1-.91-4.15-4.14-8.28-8.3-12.44-12.42a14.91,14.91,0,0,0-13.49-4.35,2.29,2.29,0,0,1-1.76-.44c-4.73-4.65-9.4-9.36-14.08-14.06-.07-.07-.1-.19-.07-.13,2.51-2.62,4.9-5.29,7.46-7.78q40.33-39.27,80.74-78.49c1.7-1.65,3.39-3.33,5.13-5a2.89,2.89,0,0,1,4.39,0q12.22,12.18,24.4,24.4a2.68,2.68,0,0,1,.33.6L342.89,139,347,152.48l-14-1c1.39,4.56,2.71,8.86,4.11,13.44l-14-1,4.09,13.46-14-1.07Z"/><path d="M157.11,280.64l55.75-54.18c1.89,2,3.65,3.85,5.46,5.69,2.92,2.95,5.85,5.89,8.81,8.79a2.33,2.33,0,0,1,.8,2.31A14.38,14.38,0,0,0,232,256.32c3.75,3.83,7.42,7.77,11.41,11.33,2.67,2.38,3.35,5.42,4.3,8.79l-14-1.05c1.38,4.56,2.7,8.89,4.1,13.48l-14-1.09c1.38,4.51,2.69,8.81,4.1,13.44l-14-1c1.38,4.54,2.69,8.88,4.08,13.44l-14-1.05,4.09,13.46c-3.24-.26-6.25-.45-9.25-.78-.38,0-.84-.78-1-1.28q-4.19-13.37-8.29-26.75c-2-6.61-6.35-10.7-13.12-12.19l-17.8-3.92C158.19,281,157.8,280.87,157.11,280.64Z"/><path d="M152.11,283.85l10.8,2.35c5.45,1.2,10.89,2.43,16.35,3.61a6.42,6.42,0,0,1,5.15,4.61q7.08,22.88,14.13,45.75a5.94,5.94,0,0,1-1.59,6.26q-16,16-32,32a4.5,4.5,0,0,1-6.66,0c-1.24-1.17-2.46-2.38-3.63-3.63a4.55,4.55,0,0,1-.32-6.18c1.59-2.11,1.4-3.35-.82-4.76a95,95,0,0,1-29.65-29.43c-1.38-2.17-2.6-2.34-4.65-.81a4.34,4.34,0,0,1-6-.28c-1.25-1.17-2.46-2.39-3.65-3.63-2.1-2.18-2.11-4.71,0-6.88q16.5-16.56,33-33.09l4-4A6.72,6.72,0,0,1,152.11,283.85Zm28.58,49.68a15.21,15.21,0,0,0-.34-3c-1.4-5-2.71-10-4.42-14.92a20.71,20.71,0,0,0-34.41-7.85c-1.57,1.56-3.14,3.11-4.69,4.69a13.24,13.24,0,0,0-.05,18.79c1.23,1.27,2.5,2.5,3.75,3.75,4.84,4.85,9.66,9.72,14.54,14.54,6,6,14.57,5.62,20.15-.81A22.3,22.3,0,0,0,180.69,333.53Zm-16-38.91a2.08,2.08,0,0,0-2.08-2.12,1.94,1.94,0,0,0-2,2,2.06,2.06,0,0,0,2,2.22A2.13,2.13,0,0,0,164.7,294.62Zm24.73,34.64a2.21,2.21,0,0,0-2-2.21,2.15,2.15,0,0,0-2.14,2.09,2,2,0,0,0,1.94,2.09A2.09,2.09,0,0,0,189.43,329.26Zm-5.82-19.88a2.07,2.07,0,1,0-4.13,0,2,2,0,0,0,2,2A2,2,0,0,0,183.61,309.38Z"/><path class="cls-3" d="M164.7,294.62a2.13,2.13,0,0,1-2.15,2.06,2.06,2.06,0,0,1-2-2.22,1.94,1.94,0,0,1,2-2A2.08,2.08,0,0,1,164.7,294.62Z"/><path class="cls-3" d="M189.43,329.26a2.09,2.09,0,0,1-2.23,2,2,2,0,0,1-1.94-2.09,2.15,2.15,0,0,1,2.14-2.09A2.21,2.21,0,0,1,189.43,329.26Z"/><path class="cls-3" d="M183.61,309.38a2,2,0,0,1-2.14,2,2,2,0,0,1-2-2,2.07,2.07,0,1,1,4.13,0Z"/></svg>