<svg id="Capa_1" data-name="Capa 1" xmlns="http://www.w3.org/2000/svg" viewBox="0 0 512 512"><defs><style>.cls-1{fill:#ab7cb1;}.cls-2{fill:#25204d;}.cls-3{fill:#fff;}</style></defs><rect class="cls-1" x="85.04" y="85.04" width="341.92" height="341.92" transform="translate(-106.04 256) rotate(-45)"/><path class="cls-2" d="M256,0,0,256,256,512,512,256Zm0,14.22L497.78,256,256,497.78,14.22,256Z"/><path d="M224.54,244.22c-3.64-6.89-7-12.42-9.58-18.31-5.26-12.2-11.17-24.28-14.85-37-9-30.92,8.69-64.32,38.5-73.92,39-12.56,82.08,19.39,75.2,60.85a194.77,194.77,0,0,1-15.37,49.93c-2.69,5.85-5.64,11.57-8.87,18.15,2.51.11,4.25.25,6,.25,14.33,0,28.66.1,43,0,3.86,0,5.57,1.27,6.37,5.18,7.41,36,15,72,22.57,108,1.45,6.93.95,7.6-6,7.6H150.55c-7,0-7.45-.62-6-7.53q11-52.56,21.94-105.12c1.69-8.14,1.68-8.13,9.91-8.12h48.15Zm19.37,31.11c-5-8.06-9.76-15.86-14.83-23.44-.76-1.14-3.14-1.64-4.79-1.67-9-.16-18-.07-27-.07H174.58l-3.84,10.72c2.53,2,4.64,3,5.61,4.66a34.09,34.09,0,0,1,3.48,8.78c.38,1.43-.42,3.17-.69,4.77-1.55-.83-3.74-1.26-4.54-2.56-1.77-2.87-2.84-6.17-4.2-9.3l-1,.09c-6.32,30.32-12.65,60.64-19.14,91.75H352.53c6.75,0,8.6-2.24,7.2-9.2-2.94-14.52-6-29-9-43.51q-5.4-25.92-10.8-51.83c-.54-2.61-1.24-4.49-4.72-4.44-15.32.18-30.65,0-46,.14-1.57,0-3.78.84-4.59,2-5.14,7.53-10,15.27-15.08,23.23a79.3,79.3,0,0,1,7.53,4c6,4.06,6.2,10.22.1,14.13a30.89,30.89,0,0,1-10.11,4c-10.32,2.2-20.56,1.84-30.3-2.7-3.46-1.61-7-4.26-6-8.22.74-3.1,3.63-5.92,6.13-8.27C238.44,276.9,241.05,276.51,243.91,275.33Zm11.68-63.12a39.16,39.16,0,0,0,39.62-39c.15-21.5-17.43-39.33-38.8-39.36a39.2,39.2,0,1,0-.82,78.4ZM276,287c-5.51-5.81-8.69-6.12-14.36-2.21-3.74,2.59-8,2.81-10.89-.59-3.23-3.77-6.35-2.84-9.69-1.24-1.66.79-2.93,2.41-4.37,3.66,1.45,1.25,2.69,3,4.37,3.66a42.28,42.28,0,0,0,30.21-.12C272.9,289.54,274.23,288.2,276,287Z"/><path class="cls-3" d="M243.91,275.33c-2.86,1.18-5.47,1.57-7,3.06-2.5,2.35-5.39,5.17-6.13,8.27-.95,4,2.58,6.61,6,8.22,9.74,4.54,20,4.9,30.3,2.7a30.89,30.89,0,0,0,10.11-4c6.1-3.91,5.94-10.07-.1-14.13a79.3,79.3,0,0,0-7.53-4c5.12-8,9.94-15.7,15.08-23.23.81-1.19,3-2,4.59-2,15.33-.14,30.66,0,46-.14,3.48-.05,4.18,1.83,4.72,4.44q5.38,25.92,10.8,51.83c3,14.5,6.07,29,9,43.51,1.4,7-.45,9.2-7.2,9.2H150.3c6.49-31.11,12.82-61.43,19.14-91.75l1-.09c1.36,3.13,2.43,6.43,4.2,9.3.8,1.3,3,1.73,4.54,2.56.27-1.6,1.07-3.34.69-4.77a34.09,34.09,0,0,0-3.48-8.78c-1-1.65-3.08-2.63-5.61-4.66l3.84-10.72H197.3c9,0,18-.09,27,.07,1.65,0,4,.53,4.79,1.67C234.15,259.47,238.87,267.27,243.91,275.33Zm14.27,42.15a7.37,7.37,0,0,0,3.35.13c1.47-.5,2.65-1.87,4-2.86-1.12-1-2.14-2.63-3.37-2.81a54.74,54.74,0,0,0-10.93-.46c-1.2.08-2.31,1.76-3.45,2.71,1.12,1,2.1,2.46,3.4,2.85C253,317.59,255.1,317.34,258.18,317.48ZM322.72,325c-1.22.9-2.64,1.42-2.81,2.21-.23,1.05.15,2.94.9,3.38a100.13,100.13,0,0,0,11.41,5.79c.81.35,2.56-.41,3.24-1.21.49-.58.3-2.68-.26-3C331.19,329.68,327,327.44,322.72,325Zm21.66,11.89c-1.54,1.13-2.82,1.61-3.17,2.46a3.38,3.38,0,0,0,.5,3.06c3.2,2.84,6.54,5.54,10,8.05a3.23,3.23,0,0,0,3.06-.27c.68-.56,1.22-2.54.84-2.91C352,343.78,348.26,340.46,344.38,336.93ZM299.6,317.27c-.93.66-3,1.49-2.93,2.21.07,1.31,1.08,3.24,2.21,3.71a53.1,53.1,0,0,0,10.47,3.16c1.21.24,2.72-1,4.1-1.62-.78-1.28-1.26-3.23-2.38-3.7C307.57,319.54,303.84,318.61,299.6,317.27Zm-62.05-.9,3.26-2.44c-1.21-1.23-2.21-3.1-3.66-3.56a40.13,40.13,0,0,0-9.8-1.72c-1.27-.08-2.63,1.3-3.95,2,.89,1.19,1.56,3.1,2.71,3.45C229.43,315.12,232.94,315.52,237.55,316.37Zm49.2,4.12,3-2.45c-1.13-1.18-2.06-3-3.41-3.4a39.1,39.1,0,0,0-9.8-1.45c-1.42,0-2.87,1.42-4.3,2.19,1.13,1.17,2.07,3,3.43,3.37C278.84,319.64,282.2,319.83,286.75,320.49Zm-83.53-21c-1,.87-2.33,1.53-2.41,2.31-.12,1.12.36,3,1.17,3.4a91.73,91.73,0,0,0,11.29,5.24c.86.33,2.59-.47,3.31-1.29.49-.56.29-2.72-.24-3C212.15,303.8,207.81,301.76,203.22,299.48Zm-6.75-2.6c-.67-1.72-.73-2.3-1-2.62-3.1-3.2-6.16-6.46-9.47-9.43-.58-.52-2.74-.2-3.36.48a3.52,3.52,0,0,0-.22,3.42,74.73,74.73,0,0,0,9,9.1C192.24,298.5,194.6,297.28,196.47,296.88Z"/><path class="cls-3" d="M255.59,212.21a39.2,39.2,0,1,1,.82-78.4c21.37,0,38.95,17.86,38.8,39.36A39.16,39.16,0,0,1,255.59,212.21Z"/><path class="cls-3" d="M276,287c-1.79,1.22-3.12,2.56-4.73,3.16a42.28,42.28,0,0,1-30.21.12c-1.68-.62-2.92-2.41-4.37-3.66,1.44-1.25,2.71-2.87,4.37-3.66,3.34-1.6,6.46-2.53,9.69,1.24,2.92,3.4,7.15,3.18,10.89.59C267.33,280.86,270.51,281.17,276,287Z"/><path d="M258.18,317.48c-3.08-.14-5.18.11-7-.44-1.3-.39-2.28-1.86-3.4-2.85,1.14-.95,2.25-2.63,3.45-2.71a54.74,54.74,0,0,1,10.93.46c1.23.18,2.25,1.83,3.37,2.81-1.31,1-2.49,2.36-4,2.86A7.37,7.37,0,0,1,258.18,317.48Z"/><path d="M322.72,325c4.28,2.4,8.47,4.64,12.48,7.14.56.35.75,2.45.26,3-.68.8-2.43,1.56-3.24,1.21a100.13,100.13,0,0,1-11.41-5.79c-.75-.44-1.13-2.33-.9-3.38C320.08,326.46,321.5,325.94,322.72,325Z"/><path d="M344.38,336.93c3.88,3.53,7.66,6.85,11.23,10.39.38.37-.16,2.35-.84,2.91a3.23,3.23,0,0,1-3.06.27c-3.46-2.51-6.8-5.21-10-8.05a3.38,3.38,0,0,1-.5-3.06C341.56,338.54,342.84,338.06,344.38,336.93Z"/><path d="M299.6,317.27c4.24,1.34,8,2.27,11.47,3.76,1.12.47,1.6,2.42,2.38,3.7-1.38.58-2.89,1.86-4.1,1.62a53.1,53.1,0,0,1-10.47-3.16c-1.13-.47-2.14-2.4-2.21-3.71C296.63,318.76,298.67,317.93,299.6,317.27Z"/><path d="M237.55,316.37c-4.61-.85-8.12-1.25-11.44-2.26-1.15-.35-1.82-2.26-2.71-3.45,1.32-.71,2.68-2.09,3.95-2a40.13,40.13,0,0,1,9.8,1.72c1.45.46,2.45,2.33,3.66,3.56Z"/><path d="M286.75,320.49c-4.55-.66-7.91-.85-11.07-1.74-1.36-.38-2.3-2.2-3.43-3.37,1.43-.77,2.88-2.21,4.3-2.19a39.1,39.1,0,0,1,9.8,1.45c1.35.39,2.28,2.22,3.41,3.4Z"/><path d="M203.22,299.48c4.59,2.28,8.93,4.32,13.12,6.64.53.3.73,2.46.24,3-.72.82-2.45,1.62-3.31,1.29A91.73,91.73,0,0,1,202,305.19c-.81-.44-1.29-2.28-1.17-3.4C200.89,301,202.25,300.35,203.22,299.48Z"/><path d="M196.47,296.88c-1.87.4-4.23,1.62-5.05.95a74.73,74.73,0,0,1-9-9.1,3.52,3.52,0,0,1,.22-3.42c.62-.68,2.78-1,3.36-.48,3.31,3,6.37,6.23,9.47,9.43C195.74,294.58,195.8,295.16,196.47,296.88Z"/></svg>