<svg xmlns="http://www.w3.org/2000/svg" data-name="Capa 1" viewBox="0 0 512 512"><path d="M79.22 78.75h353.66v353.66H79.22z" style="fill:#ded300" transform="rotate(-45.61 256.083 255.59)"/><path d="m258.74 512-3-2.94L0 258.75l2.94-3L253.26 0l3 2.94L512 253.26l-2.93 3ZM11.88 258.62l246.73 241.5 241.52-246.73L253.39 11.88Z" style="fill:#ba870e"/><path d="M444.65 242.32a67.26 67.26 0 0 0-34-35c-20.22-9.56-40.53-9-60.78.46q-15.39-28.45-30.79-56.91c2.11-1 4.08-1.9 6-2.93a9.3 9.3 0 0 0 2.73-2.07 7.09 7.09 0 0 0 .06-8.93A7.25 7.25 0 0 0 319 135c-4 1.93-7.83 4.13-11.88 5.88a7.67 7.67 0 0 0-3.6 11.38c1.45 2.32 2.63 4.82 4 7.33-25.32 13.92-50.54 27.76-75.86 41.67-4.68-9.52-9.26-18.88-13.94-28.4 4.73-.27 9.23-.55 13.73-.78a7.28 7.28 0 0 0 7.14-7.45 7.12 7.12 0 0 0-7.5-6.74c-4.75.16-9.48.54-14.24.7-6.07.21-12.15.4-18.23.39a11.7 11.7 0 0 1-6.68-1.78c-3-2-7.08-.94-9.25 1.94a6.69 6.69 0 0 0 .85 9.15 17.3 17.3 0 0 0 4.48 2.9c4 1.84 8.34 2.22 12.7 2.2a2 2 0 0 1 2.07 1.33q11.25 23 22.56 46c.2.4.36.81.6 1.34l-21.77 9.39C194 217 180.63 207.11 163.54 202.7a67.4 67.4 0 0 0-49.24 5.61 69.6 69.6 0 0 0-35.4 78.93c8 31.45 35.9 52.74 68.62 52.25A67 67 0 0 0 190 324.12c15.84-12.94 24.33-29.83 25.9-50.35h30.48a7.73 7.73 0 0 0 6.74-3.36c2-2.74 4.14-5.41 6.21-8.12q27.32-35.7 54.65-71.39c2-2.62 4-5.23 6.16-8 6 11 11.81 21.79 17.7 32.64-14.87 12.18-23.93 27.58-26 46.74s2.79 36.3 14.82 51.31a69.55 69.55 0 0 0 118-71.26m-246.93 7.33 2.83 9.72h-24.78a1 1 0 0 1-.07-.18l22-9.54m-43.58 75.08A55.11 55.11 0 0 1 93 284.81c-7.28-26.24 5.94-54.32 30.77-65.18 24.15-10.56 51.87-2.83 66.78 17.66-2.17.93-4.31 1.86-6.44 2.79l-46.51 20.08a6.85 6.85 0 0 0-4.27 7.57 7.17 7.17 0 0 0 6.11 5.91 18 18 0 0 0 2.21.12h59.57c-1.43 26-21.35 47.22-47.08 51m67.54-65.22c-2.15-.09-4.32 0-6.28 0a5624 5624 0 0 1-4.33-15.6l21-9.1a2.71 2.71 0 0 1 .46 3.29c-3.1 6.73-6.1 13.5-9.12 20.28a1.56 1.56 0 0 1-1.71 1.16m32-13.26a71 71 0 0 0-3.29-6.53 5.79 5.79 0 0 1-.1-6.5c1.73-3.23 3.08-6.68 4.58-10 1.36-3.08.92-6-1.2-8.2s-5.13-2.72-8.28-1.37l-6.09 2.62a2 2 0 0 1-.33 0c-.31-.61-.66-1.29-1.08-2.13q34.41-18.93 68.73-37.79a3 3 0 0 1 .23.27c-17.67 23.15-35.35 46.28-53.17 69.63m161.3 67.2a55.16 55.16 0 0 1-70.21-85.07c2.19 4 4.3 7.95 6.42 11.87q10 18.34 19.89 36.7c2.17 4 6.06 5.27 9.9 3.21 3.45-1.84 4.66-6.19 2.67-10-2.81-5.29-5.69-10.54-8.55-15.8q-8.88-16.41-17.77-32.82c-.19-.35-.36-.72-.54-1.09 18.36-9.72 49.56-8.39 68.33 16.51 17.95 23.82 13.37 58.33-10.14 76.45" style="fill-rule:evenodd"/></svg>