<svg xmlns="http://www.w3.org/2000/svg" viewBox="0 0 512 512"><path fill="#ab7cb1" fill-rule="evenodd" d="M258.66 504.4 7.6 258.66 253.34 7.61l251.05 245.73z"/><g fill="#2c2249"><path d="M258.74 512 0 258.73 253.26 0 512 253.25zM15.21 258.57 258.58 496.8l238.21-243.39L253.42 15.2zm342.48 16.13-2.05 7.94a69 69 0 0 1-2.69 7.94l-1.65 4.45-2.13 4.4-2.12 4.42c-.69 1.42-1.66 2.74-2.44 4.06a71 71 0 0 1-4.55 7.06l-4.92 6.56 6 4.94 5.28-7a79 79 0 0 0 4.86-7.55l2.61-4.37c.83-1.52 1.51-3.14 2.28-4.72l2.27-4.73c.74-1.56 1.21-3.21 1.8-4.76 1.06-3.11 2.35-5.92 2.87-8.52l2.19-8.51zm-27.86 52.58 5.6 5.35c.22.22-8.14 7.73-8.14 7.74l-5.06-5.86s7.81-7 7.6-7.23m-14.02 12.32 4.61 6.23-1.42 1.06-3.13 2.25-4.8 2.93-4-6.65 4.48-2.72c1.11-.7 2.12-1.55 2.92-2.12l1.31-1m43.96-83.16 7.74.28-.29 5.61c0 .71-.08 1.41-.12 2.07l-.27 1.78-.26 1.73-7.67-1 .24-1.61.26-1.67c.1-.61.07-1.27.1-1.93l.27-5.24m-59.53 92.86-2 1-5.39 2.51-7.89 2.88c-2.9 1-6.14 1.64-9.29 2.52l-2.39.6-2.41.37-4.68.71-4.4.59-4 .2-5.94.3c-1.43.06-2.26-.07-2.26-.07l-.13 7.74a30 30 0 0 0 2.41.08l6.36-.32 4.26-.22c1.51-.06 3.07-.41 4.69-.62l5-.77 2.58-.4 2.55-.64c3.4-.93 6.85-1.63 10-2.7l8.45-3.1c2.46-.95 4.38-2 5.78-2.67l2.18-1zm-58.46 11.12-.69 7.71s-.7 0-1.74-.11l-3.83-.58-5.55-.85 1.42-7.61 5.18.8 3.58.54zM206.09 351l-2-1-5.31-2.67-7.18-4.38c-2.57-1.67-5.12-3.75-7.77-5.69a106.6 106.6 0 0 1-13.06-12.39 51 51 0 0 1-3.91-4.49l-1.34-1.81-6.14 4.73 1.45 1.93A59 59 0 0 0 165 330a114 114 0 0 0 14 13.28c2.83 2.07 5.56 4.29 8.32 6.1l7.69 4.68c2.27 1.34 4.32 2.15 5.69 2.87l2.18 1z"/><path d="m223.39 357.13-2 7.47-1.7-.43a38 38 0 0 1-3.72-1.05l-5.27-1.93 2.71-7.25 4.93 1.8a33 33 0 0 0 3.46 1l1.59.41m-62.48-44.96-6.46 4.28-2.92-4.81-2-3.3a8.4 8.4 0 0 1-.61-1.12l-.21-.43 6.85-3.63s.06.15.19.4a6.7 6.7 0 0 0 .57 1l1.87 3.09 2.72 4.48m-14.8-33.76-.56-2.18a43 43 0 0 1-1.09-5.84c-.3-2.44-1-5.25-1.12-8.33l-.49-9.63.49-9.62c.15-3.07.82-5.89 1.12-8.33a41 41 0 0 1 1.08-5.84l.56-2.18-7.52-1.85-.59 2.35a46 46 0 0 0-1.17 6.25l-1.2 8.92-.51 10.31.51 10.3c.17 3.3.87 6.31 1.2 8.92a44 44 0 0 0 1.18 6.25l.6 2.35zM152 295.8l-7.09 3.1a15 15 0 0 1-.73-1.59l-1.33-3.64-1.93-5.28 7.36-2.4 1.81 4.93 1.24 3.38c.34.92.67 1.5.67 1.5m-3.77-76.89-7.37-2.39 1.93-5.27 1.33-3.63a12.5 12.5 0 0 1 .72-1.61l7.1 3.1a10.6 10.6 0 0 0-.67 1.49L150 214l-1.8 4.92m17.25-32.65 1.34-1.81a55 55 0 0 1 3.9-4.48 107.4 107.4 0 0 1 13.06-12.42l7.77-5.7 7.19-4.35c2.11-1.27 4-2 5.3-2.68l2-1-3.24-7-2.18 1-5.68 2.88-7.7 4.67c-2.74 1.82-5.48 4-8.32 6.1a115.4 115.4 0 0 0-14 13.29 55 55 0 0 0-4.17 4.81l-1.45 1.93zM155.49 201.72l-6.84-3.62a11 11 0 0 1 .81-1.56l2-3.31 2.91-4.8 6.46 4.28-2.72 4.48-1.88 3.07a13 13 0 0 0-.75 1.46m57.8-50.81-2.72-7.25 5.28-1.93a33 33 0 0 1 3.71-1.07l1.71-.44 2 7.48-1.59.41a29 29 0 0 0-3.46 1l-4.93 1.81m36.24-7.01s.81-.08 2.25-.08l5.94.3 4 .2c1.41 0 2.87.39 4.39.58l4.69.72 2.41.36 2.38.6 9.3 2.52 7.88 2.89c2.3.88 4.09 1.91 5.4 2.49l2 1 3.48-6.92-2.17-1.05-5.79-2.66-8.47-3.1c-3.11-1.06-6.57-1.77-10-2.69-.85-.21-1.71-.46-2.56-.64l-2.58-.4-5-.77c-1.64-.2-3.2-.57-4.71-.62l-4.24-.21-6.36-.33c-1.53-.09-2.42.09-2.42.09zM231.23 145.82l-1.44-7.6 5.56-.85 3.82-.58a17 17 0 0 1 1.75-.12l.69 7.7a15 15 0 0 0-1.64.12l-3.56.55zM307 159.3l4-6.65 4.8 2.93c1.22.72 2.28 1.64 3.14 2.24l1.41 1.06-4.59 6.23-1.31-1-2.93-2.11zm28.11 23.92a6 6 0 0 1 .37.46l1 1.34 3.57 4.76a73 73 0 0 1 4.55 7.05l2.43 4.07c.79 1.4 1.42 2.93 2.13 4.41l2.13 4.42c.71 1.42 1.12 3 1.66 4.43 1 2.9 2.22 5.52 2.7 8l2 7.94 7.58-1.59-2.19-8.51c-.52-2.59-1.82-5.4-2.89-8.53l-1.79-4.74-2.27-4.73-2.28-4.72-2.61-4.36a76 76 0 0 0-4.88-7.56l-3.81-5.1-1.07-1.43-.39-.5zM322.13 170.18l5.06-5.87s8.36 7.51 8.14 7.73l-5.59 5.36c.21-.21-7.61-7.22-7.61-7.22m36.72 67.6 7.67-1 .26 1.74a25 25 0 0 1 .41 3.83l.28 5.62-7.74.28-.26-5.23a23.4 23.4 0 0 0-.37-3.59l-.25-1.62"/></g><g fill-rule="evenodd"><path fill="#fff" d="M335.09 299.86h38.46c4.22 0 7-3.11 7-7.84V251.3c0-5.05-2.7-8.11-7.18-8.11h-76.5c-4.41 0-7.12 3.08-7.12 8.05v40.48c0 5.09 2.64 8.13 7.12 8.14h38.25"/><path d="M335.12 343.23h-65.81a6.3 6.3 0 0 1-1.15-.07 2.2 2.2 0 0 1-1.72-2.63 6 6 0 0 1 .66-2.08q8.9-15.19 17.9-30.33a1.57 1.57 0 0 1 1.19-.64h97.47a2 2 0 0 1 1.94 1.14l17.37 29.57a6.7 6.7 0 0 1 .79 2c.36 1.71-.5 2.93-2.07 3.05h-1.14zm-49.85-16.68h99.53a3 3 0 0 0-.15-.62l-5.62-12a5.23 5.23 0 0 0-5.18-3.24h-77.73a4.84 4.84 0 0 0-4.71 2.87l-2.93 5.74-3.21 7.23m32.36 10.63h35a40 40 0 0 0-1.52-4.27 2.22 2.22 0 0 0-1.65-1.11q-14.31-.1-28.6 0a2.07 2.07 0 0 0-1.59 1 40 40 0 0 0-1.6 4.38M285.46 239h99.3v66.19h-99.3zm49.63 61.39h38.46c4.22 0 7-3.12 7-7.85v-40.7c0-5.06-2.7-8.11-7.18-8.12h-76.5c-4.41 0-7.12 3.08-7.12 8v40.48c0 5.09 2.64 8.12 7.12 8.13h38.25"/><path fill="#fff" d="M285.33 327.13h99.53a2.7 2.7 0 0 0-.15-.67q-2.81-6.56-5.63-13.13a5.15 5.15 0 0 0-5.17-3.52h-77.74a4.87 4.87 0 0 0-4.71 3.15l-2.92 6.26zm32.27 10.05h35.09a38 38 0 0 0-1.53-4.26 2.2 2.2 0 0 0-1.65-1.11q-14.36-.1-28.7 0a2.15 2.15 0 0 0-1.61 1 47 47 0 0 0-1.6 4.37m-113.45 24.94a58.4 58.4 0 0 1-13.15 3.37 116 116 0 0 1-25.61 1 79.5 79.5 0 0 1-21.53-4c-3-1-5.06-2.85-5.73-6a7.3 7.3 0 0 1 .33-4.18q2.82-7.49 5.64-14.95l10.54-28.06a89.8 89.8 0 0 0 5-20.82 58.7 58.7 0 0 0 .24-11.24v-1h27.51c0 .67-.1 1.27-.13 1.91a69 69 0 0 0 .85 14.28 121.3 121.3 0 0 0 6.71 23.23q6.89 18.13 13.7 36.3a7.6 7.6 0 0 1-4.46 10.22m-35.62-132.82-12.45-2.58c-1.78-.32-3.64 0-3.73 2.36s1.6 2.69 3.5 2.73a21.93 21.93 0 0 1 11 3.44c-1.19 5.7-10.1 13.07-17.54 11.83-5.09-.85-8.81-3.47-12.45-6.5-6.48-5.43-10.93-12.39-14.3-20a2.55 2.55 0 0 1 .61-2.39c8-4.05 16.25-7.21 25.42-6.73a22.58 22.58 0 0 1 16.1 7.37 14.2 14.2 0 0 1 3.85 10.51m76.3-26.93c-3.23 10.07-7.45 19.67-15.18 27.21-6.43 6.28-14.13 9.43-23.24 8.43a16.6 16.6 0 0 1-11.27-6.5A64 64 0 0 1 219.71 215c3.5-1.34 7.12-2.37 10.73-3.39 1.76-.5 3.17-1.2 2.71-3.26-.52-2.26-2.27-2.2-4.08-1.75-13.43 3.33-25.42 9.36-35.32 19.19a19 19 0 0 1-1.5 1.28c-7-11.06-.42-27 12.46-30.53 9.83-2.68 19.63-1.87 29.34.68a81 81 0 0 1 9.45 3.2c.62.25 1.43 1.56 1.25 2.1"/><path d="M212.26 357.66a11.77 11.77 0 0 0 .14-8.9q-5.86-15.61-11.78-31.18c-3-7.87-6.06-15.71-7.76-24A66 66 0 0 1 191.5 277c0-.64.13-1.29.2-2h5.37a3.63 3.63 0 0 0 3-1.35 3.42 3.42 0 0 0 .45-3.8 3.54 3.54 0 0 0-3.5-2h-12.4l-24 .09c-2.92 0-5.83-.06-8.76-.09-1 0-2.1 0-3.14.07a3.53 3.53 0 0 0-.24 7 17 17 0 0 0 2.52.08h4.1a58.8 58.8 0 0 1-.69 15.6 104.7 104.7 0 0 1-5.43 19.11q-7.29 19.34-14.64 38.66a12.4 12.4 0 0 0-.59 7.47c1.12 4.65 4.17 7.43 8.56 9.06a66.6 66.6 0 0 0 18 3.92q6.18.51 12.39.6a113 113 0 0 0 18.12-1.09 60.4 60.4 0 0 0 15.17-4.13c.3-.13.6-.26.87-.41h-.1c2.53-1 4.26-3.65 5.06-5.12a3 3 0 0 0 .27-.47c0-.09.08-.18.12-.29l.14-.3zm-49.59 7.09.05.06h-.05zm40.86-4.54a58 58 0 0 1-13 3.34 116 116 0 0 1-25.38 1 79.2 79.2 0 0 1-21.33-4c-2.92-1-5-2.83-5.69-6a7.24 7.24 0 0 1 .33-4.16q2.82-7.4 5.6-14.82l10.44-27.8a89.3 89.3 0 0 0 5-20.63 59.4 59.4 0 0 0 .25-11.15v-1H187l-.14 1.89a67 67 0 0 0 .85 14.16 120.8 120.8 0 0 0 6.64 23q6.81 18 13.59 36a7.56 7.56 0 0 1-4.44 10.15m3.33 3.55"/><path d="M246.59 197.87c-11.39-5.11-23.29-7.66-35.81-6.56-7.83.7-15.19 2.71-20.71 8.87-7 7.88-8.44 20-3.59 30.25.4.83.9 2.14.53 2.74-1.91 3.14-4.1 6.11-6.18 9.13-2.1-2.28-4.2-4.37-6.06-6.65a4.93 4.93 0 0 1-1.17-3.21 19.75 19.75 0 0 0-5.91-16.87 27.56 27.56 0 0 0-18.94-8.07c-11.16-.42-21 3.7-30.6 8.81-1.64.88-1.88 2.25-1.26 3.9 4.51 11.93 11.34 22.11 22.26 29.12a21.47 21.47 0 0 0 28.07-3.72c1.54-1.74 2.86-3.67 4.62-6 2 2.68 3.92 5.13 5.69 7.67a2.45 2.45 0 0 1 .08 1.87l-4.93 16.17-.77 14.2v1.03q0 16.39-.06 32.79v20.55c.12 1.59 1.05 2.77 2.58 2.42a3.93 3.93 0 0 0 2.35-2.38c.41-1.32.12-2.85.12-4.28v-50.27c0-3.65.13-8.88.47-12.31a2 2 0 0 1 .13-.09 38 38 0 0 1 .46-3.09 1.6 1.6 0 0 0 .1-.51c1.9-9.94 6.67-18.43 12.5-26.69 4.06 4 8.4 6.7 13.72 7.34 13 1.55 23.07-3.75 31.13-13.5 6.64-8 10.52-17.49 13.57-27.34 1-3.2.7-3.95-2.39-5.32m-78 32.49-12.34-2.56c-1.76-.32-3.6 0-3.69 2.33s1.59 2.68 3.47 2.71a21.7 21.7 0 0 1 10.89 3.41c-1.18 5.64-10 12.95-17.39 11.72-5.05-.84-8.74-3.44-12.35-6.45-6.41-5.37-10.83-12.26-14.16-19.86a2.52 2.52 0 0 1 .6-2.36c7.91-4 16.11-7.15 25.2-6.67a22.28 22.28 0 0 1 16 7.3 14 14 0 0 1 3.82 10.43m74.78-26.66c-3.2 10-7.38 19.49-15 27-6.39 6.22-14 9.34-23 8.36a16.5 16.5 0 0 1-11.17-6.45 63.4 63.4 0 0 1 24.43-16.52c3.47-1.32 7.06-2.34 10.63-3.36 1.75-.49 3.15-1.18 2.68-3.23-.5-2.22-2.24-2.18-4-1.73-13.31 3.3-25.18 9.27-35 19-.46.45-1 .83-1.5 1.26-6.9-11-.41-26.78 12.36-30.26 9.73-2.66 19.45-1.85 29.08.67a89 89 0 0 1 9.36 3.17c.62.24 1.42 1.55 1.24 2.09"/></g><path fill="#fefefc" d="m260.02 80.47-38.33 74.66 46.91.1-.1 54.56 38.88-79.04-47.45-1.72z"/><path fill="#1e1e1c" d="m265.67 223.71.13-64.13-48.8-.09 46-89.55-.12 57.76 49.12 1.79zm-39.18-70 45.08.09-.08 45 31.42-63.86-45.8-1.66.07-39.35z"/></svg>