<svg id="Capa_1" data-name="Capa 1" xmlns="http://www.w3.org/2000/svg" viewBox="0 0 512 512"><defs><style>.cls-1{fill:#ab7cb1;}.cls-1,.cls-3,.cls-4{fill-rule:evenodd;}.cls-2{fill:#2c2249;}.cls-3{fill:#fff;}.cls-5{fill:#fefefc;}.cls-6{fill:#1e1e1c;}</style></defs><polygon class="cls-1" points="258.66 504.4 7.6 258.66 253.34 7.61 504.39 253.34 258.66 504.4"/><path class="cls-2" d="M258.74,512,0,258.73,253.26,0,512,253.25ZM15.21,258.57,258.58,496.8,496.79,253.41,253.42,15.2Z"/><path class="cls-2" d="M357.69,274.7l-2.05,7.94a69.06,69.06,0,0,1-2.69,7.94c-.54,1.44-1,3-1.65,4.45s-1.42,2.92-2.13,4.4-1.43,3-2.12,4.42-1.66,2.74-2.44,4.06a71.37,71.37,0,0,1-4.55,7.06l-4.92,6.56,6,4.94,5.28-7a78.48,78.48,0,0,0,4.86-7.55c.84-1.43,1.78-2.85,2.61-4.37s1.51-3.14,2.28-4.72,1.53-3.17,2.27-4.73,1.21-3.21,1.8-4.76c1.06-3.11,2.35-5.92,2.87-8.52,1.32-5.1,2.19-8.51,2.19-8.51Z"/><path class="cls-2" d="M329.83,327.28l5.6,5.35c.22.22-8.14,7.73-8.14,7.74l-5.06-5.86s7.81-7,7.6-7.23"/><path class="cls-2" d="M315.81,339.6l4.61,6.23L319,346.89c-.86.6-1.93,1.51-3.13,2.25-2.41,1.46-4.8,2.93-4.8,2.93l-4-6.65,4.48-2.72c1.11-.7,2.12-1.55,2.92-2.12l1.31-1"/><path class="cls-2" d="M359.74,256.42l7.74.28s-.15,2.81-.29,5.61c0,.71-.08,1.41-.12,2.07l-.27,1.78c-.16,1-.26,1.73-.26,1.73l-7.67-1s.1-.65.24-1.61c.08-.5.16-1.06.26-1.67s.07-1.27.1-1.93c.14-2.62.27-5.24.27-5.24"/><path class="cls-2" d="M300.21,349.3l-2,1c-1.31.59-3.1,1.61-5.39,2.51l-7.89,2.88c-2.9,1-6.14,1.64-9.29,2.52l-2.39.6-2.41.37-4.68.71c-1.53.2-3,.55-4.4.59l-4,.2c-2.47.13-4.51.24-5.94.3s-2.26-.07-2.26-.07l-.13,7.74s.88.08,2.41.08l6.36-.32,4.26-.22c1.51-.06,3.07-.41,4.69-.62l5-.77,2.58-.4,2.55-.64c3.4-.93,6.85-1.63,10-2.7l8.45-3.1c2.46-.95,4.38-2,5.78-2.67l2.18-1Z"/><path class="cls-2" d="M241.75,360.42l-.69,7.71s-.7,0-1.74-.11l-3.83-.58-5.55-.85,1.42-7.61,5.18.8,3.58.54c1,.1,1.63.1,1.63.1"/><path class="cls-2" d="M206.09,351l-2-1c-1.27-.66-3.18-1.42-5.31-2.67l-7.18-4.38c-2.57-1.67-5.12-3.75-7.77-5.69a106.55,106.55,0,0,1-13.06-12.39,51.15,51.15,0,0,1-3.91-4.49l-1.34-1.81-6.14,4.73,1.45,1.93A59,59,0,0,0,165,330a114.05,114.05,0,0,0,14,13.28c2.83,2.07,5.56,4.29,8.32,6.1l7.69,4.68c2.27,1.34,4.32,2.15,5.69,2.87l2.18,1Z"/><path class="cls-2" d="M223.39,357.13l-2,7.47s-.68-.16-1.7-.43a38.09,38.09,0,0,1-3.72-1.05l-5.27-1.93,2.71-7.25,4.93,1.8a32.75,32.75,0,0,0,3.46,1l1.59.41"/><path class="cls-2" d="M160.91,312.19l-6.46,4.28s-1.45-2.41-2.92-4.81l-2-3.3a8.35,8.35,0,0,1-.61-1.12l-.21-.43,6.85-3.63s.06.15.19.4a6.71,6.71,0,0,0,.57,1c.5.84,1.19,2,1.87,3.09l2.72,4.48"/><path class="cls-2" d="M146.11,278.39s-.2-.8-.56-2.18a42.7,42.7,0,0,1-1.09-5.84c-.3-2.44-1-5.25-1.12-8.33s-.32-6.35-.49-9.63c.17-3.27.34-6.55.49-9.62s.82-5.89,1.12-8.33a40.88,40.88,0,0,1,1.08-5.84c.36-1.39.56-2.18.56-2.18l-7.52-1.85s-.21.85-.59,2.35a46,46,0,0,0-1.17,6.25c-.33,2.61-1,5.63-1.2,8.92s-.34,6.8-.51,10.31c.18,3.51.34,7,.51,10.3s.87,6.31,1.2,8.92a44.26,44.26,0,0,0,1.18,6.25c.38,1.5.6,2.35.6,2.35Z"/><path class="cls-2" d="M152,295.8l-7.09,3.1a14.93,14.93,0,0,1-.73-1.59c-.36-1-.84-2.31-1.33-3.64l-1.93-5.28,7.36-2.4,1.81,4.93c.45,1.24.9,2.46,1.24,3.38s.67,1.5.67,1.5"/><path class="cls-2" d="M148.23,218.91l-7.37-2.39s1-2.64,1.93-5.27c.49-1.32,1-2.64,1.33-3.63a12.49,12.49,0,0,1,.72-1.61l7.1,3.1a10.59,10.59,0,0,0-.67,1.49L150,214l-1.8,4.92"/><path class="cls-2" d="M165.45,186.27l1.34-1.81a54.5,54.5,0,0,1,3.9-4.48,107.35,107.35,0,0,1,13.06-12.42c2.66-1.92,5.21-4,7.77-5.7l7.19-4.35c2.11-1.27,4-2,5.3-2.68l2-1-3.24-7-2.18,1c-1.36.72-3.41,1.53-5.68,2.88l-7.7,4.67c-2.74,1.82-5.48,4-8.32,6.1a115.44,115.44,0,0,0-14,13.29,54.88,54.88,0,0,0-4.17,4.81l-1.45,1.93Z"/><path class="cls-2" d="M155.49,201.72l-6.84-3.62a11.23,11.23,0,0,1,.81-1.56c.54-.9,1.28-2.1,2-3.31l2.91-4.8,6.46,4.28s-1.36,2.23-2.72,4.48l-1.88,3.07a12.73,12.73,0,0,0-.75,1.46"/><path class="cls-2" d="M213.28,150.91l-2.72-7.25,5.28-1.93a33,33,0,0,1,3.71-1.07l1.71-.44,2,7.48-1.59.41a28.76,28.76,0,0,0-3.46,1l-4.93,1.81"/><path class="cls-2" d="M249.52,143.91s.81-.08,2.25-.08l5.94.3,4,.2c1.41,0,2.87.39,4.39.58l4.69.72,2.41.36c.8.18,1.58.4,2.38.6,3.16.87,6.39,1.52,9.3,2.52l7.88,2.89c2.3.88,4.09,1.91,5.4,2.49l2,1,3.48-6.92-2.17-1.05c-1.41-.62-3.33-1.72-5.79-2.66l-8.47-3.1c-3.11-1.06-6.57-1.77-10-2.69-.85-.21-1.71-.46-2.56-.64l-2.58-.4-5-.77c-1.64-.2-3.2-.57-4.71-.62l-4.24-.21c-2.64-.14-4.83-.24-6.36-.33s-2.42.09-2.42.09Z"/><path class="cls-2" d="M231.23,145.82l-1.44-7.6,5.56-.85,3.82-.58a17.07,17.07,0,0,1,1.75-.12l.69,7.7a14.94,14.94,0,0,0-1.64.12l-3.56.55-5.18.78"/><path class="cls-2" d="M307,159.3l4-6.65,4.8,2.93c1.22.72,2.28,1.64,3.14,2.24l1.41,1.06-4.59,6.23-1.31-1c-.81-.56-1.8-1.44-2.93-2.11L307,159.3"/><path class="cls-2" d="M335.11,183.22a5.86,5.86,0,0,1,.37.46c.23.31.57.76,1,1.34l3.57,4.76a73,73,0,0,1,4.55,7.05c.79,1.33,1.64,2.67,2.43,4.07s1.42,2.93,2.13,4.41,1.42,3,2.13,4.42,1.12,3,1.66,4.43c1,2.9,2.22,5.52,2.7,8,1.22,4.77,2,7.94,2,7.94l7.58-1.59s-.87-3.4-2.19-8.51c-.52-2.59-1.82-5.4-2.89-8.53-.58-1.53-1.11-3.16-1.79-4.74s-1.5-3.15-2.27-4.73l-2.28-4.72c-.84-1.51-1.77-2.95-2.61-4.36a76.2,76.2,0,0,0-4.88-7.56c-1.58-2.11-2.9-3.87-3.81-5.1l-1.07-1.43c-.25-.34-.39-.5-.39-.5Z"/><path class="cls-2" d="M322.13,170.18l5.06-5.87s8.36,7.51,8.14,7.73l-5.59,5.36c.21-.21-7.61-7.22-7.61-7.22"/><path class="cls-2" d="M358.85,237.78l7.67-1s.1.69.26,1.74a25,25,0,0,1,.41,3.83l.28,5.62-7.74.28-.26-5.23a23.38,23.38,0,0,0-.37-3.59l-.25-1.62"/><path class="cls-3" d="M335.09,299.86h38.46c4.22,0,7-3.11,7-7.84V251.3c0-5.05-2.7-8.11-7.18-8.11h-76.5c-4.41,0-7.12,3.08-7.12,8.05q0,20.24,0,40.48c0,5.09,2.64,8.13,7.12,8.14h38.25"/><path class="cls-4" d="M335.12,343.23H269.31a6.29,6.29,0,0,1-1.15-.07,2.2,2.2,0,0,1-1.72-2.63,6,6,0,0,1,.66-2.08Q276,323.26,285,308.12a1.57,1.57,0,0,1,1.19-.64c3.91-.05,7.82,0,11.73,0q42.87,0,85.74,0a2,2,0,0,1,1.94,1.14c5.77,9.88,11.6,19.71,17.37,29.57a6.66,6.66,0,0,1,.79,2c.36,1.71-.5,2.93-2.07,3.05-.38,0-.77,0-1.14,0Zm-49.85-16.68H384.8a3.13,3.13,0,0,0-.15-.62c-1.87-4-3.73-8-5.62-12a5.23,5.23,0,0,0-5.18-3.24c-16.44.06-32.9,0-49.35,0-9.45,0-18.92,0-28.38,0a4.84,4.84,0,0,0-4.71,2.87c-1,1.9-2,3.79-2.93,5.74-1.1,2.31-2.09,4.69-3.21,7.23m32.36,10.63h35a39.8,39.8,0,0,0-1.52-4.27,2.22,2.22,0,0,0-1.65-1.11q-14.31-.1-28.6,0a2.07,2.07,0,0,0-1.59,1,40.32,40.32,0,0,0-1.6,4.38"/><path class="cls-4" d="M285.46,239h99.3v66.19h-99.3Zm49.63,61.39h38.46c4.22,0,7-3.12,7-7.85v-40.7c0-5.06-2.7-8.11-7.18-8.12h-76.5c-4.41,0-7.12,3.08-7.12,8v40.48c0,5.09,2.64,8.12,7.12,8.13q19.13,0,38.25,0"/><path class="cls-3" d="M285.33,327.13h99.53a2.67,2.67,0,0,0-.15-.67q-2.81-6.56-5.63-13.13a5.15,5.15,0,0,0-5.17-3.52c-16.45.05-32.9,0-49.35,0-9.46,0-18.93,0-28.39,0a4.87,4.87,0,0,0-4.71,3.15c-1,2.08-2,4.14-2.92,6.26-1.1,2.55-2.09,5.15-3.21,7.91"/><path class="cls-3" d="M317.6,337.18h35.09a38.23,38.23,0,0,0-1.53-4.26,2.2,2.2,0,0,0-1.65-1.11q-14.36-.1-28.7,0a2.15,2.15,0,0,0-1.61,1,46.51,46.51,0,0,0-1.6,4.37"/><path class="cls-3" d="M204.15,362.12A58.36,58.36,0,0,1,191,365.49a116.15,116.15,0,0,1-25.61,1,79.48,79.48,0,0,1-21.53-4c-3-1-5.06-2.85-5.73-6a7.3,7.3,0,0,1,.33-4.18q2.82-7.49,5.64-14.95c3.53-9.36,7.1-18.68,10.54-28.06a89.8,89.8,0,0,0,5-20.82,58.65,58.65,0,0,0,.24-11.24c0-.3,0-.6,0-1h27.51c0,.67-.1,1.27-.13,1.91a69,69,0,0,0,.85,14.28,121.26,121.26,0,0,0,6.71,23.23q6.89,18.13,13.7,36.3a7.6,7.6,0,0,1-4.46,10.22"/><path class="cls-3" d="M168.44,229.36c-4.36-.91-8.38-1.85-12.45-2.58-1.78-.32-3.64,0-3.73,2.36s1.6,2.69,3.5,2.73a21.93,21.93,0,0,1,11,3.44c-1.19,5.7-10.1,13.07-17.54,11.83-5.09-.85-8.81-3.47-12.45-6.5-6.48-5.43-10.93-12.39-14.3-20a2.55,2.55,0,0,1,.61-2.39c8-4.05,16.25-7.21,25.42-6.73a22.58,22.58,0,0,1,16.1,7.37,14.19,14.19,0,0,1,3.85,10.51"/><path class="cls-3" d="M244.75,202.47c-3.23,10.07-7.45,19.67-15.18,27.21-6.43,6.28-14.13,9.43-23.24,8.43a16.61,16.61,0,0,1-11.27-6.5A64,64,0,0,1,219.71,215c3.5-1.34,7.12-2.37,10.73-3.39,1.76-.5,3.17-1.2,2.71-3.26-.52-2.26-2.27-2.2-4.08-1.75-13.43,3.33-25.42,9.36-35.32,19.19a19,19,0,0,1-1.5,1.28c-7-11.06-.42-27,12.46-30.53,9.83-2.68,19.63-1.87,29.34.68a81.43,81.43,0,0,1,9.45,3.2c.62.25,1.43,1.56,1.25,2.1"/><path class="cls-4" d="M212.26,357.66a11.77,11.77,0,0,0,.14-8.9q-5.86-15.61-11.78-31.18c-3-7.87-6.06-15.71-7.76-24A66,66,0,0,1,191.5,277c0-.64.13-1.29.2-2h5.37a3.63,3.63,0,0,0,3-1.35,3.42,3.42,0,0,0,.45-3.8,3.54,3.54,0,0,0-3.5-2h-12.4l-24,.09c-2.92,0-5.83-.06-8.76-.09-1,0-2.1,0-3.14.07a3.53,3.53,0,0,0-.24,7A17,17,0,0,0,151,275h4.1a58.82,58.82,0,0,1-.69,15.6,104.68,104.68,0,0,1-5.43,19.11q-7.29,19.34-14.64,38.66a12.42,12.42,0,0,0-.59,7.47c1.12,4.65,4.17,7.43,8.56,9.06a66.55,66.55,0,0,0,18,3.92q6.18.51,12.39.6a113.27,113.27,0,0,0,18.12-1.09,60.36,60.36,0,0,0,15.17-4.13c.3-.13.6-.26.87-.41l-.1,0c2.53-1,4.26-3.65,5.06-5.12a3.17,3.17,0,0,0,.27-.47c0-.09.08-.18.12-.29l.14-.3Zm-49.59,7.09.05.06h-.05s0,0,0-.06m40.86-4.54a58.09,58.09,0,0,1-13,3.34,115.86,115.86,0,0,1-25.38,1,79.17,79.17,0,0,1-21.33-4c-2.92-1-5-2.83-5.69-6a7.24,7.24,0,0,1,.33-4.16q2.82-7.4,5.6-14.82c3.48-9.26,7-18.5,10.44-27.8a89.29,89.29,0,0,0,5-20.63,59.36,59.36,0,0,0,.25-11.15c0-.3,0-.59,0-1H187c-.05.66-.1,1.28-.14,1.89a67.14,67.14,0,0,0,.85,14.16,120.79,120.79,0,0,0,6.64,23q6.81,18,13.59,36a7.56,7.56,0,0,1-4.44,10.15m3.33,3.55,0,0h0Z"/><path class="cls-4" d="M246.59,197.87c-11.39-5.11-23.29-7.66-35.81-6.56-7.83.7-15.19,2.71-20.71,8.87-7,7.88-8.44,20-3.59,30.25.4.83.9,2.14.53,2.74-1.91,3.14-4.1,6.11-6.18,9.13-2.1-2.28-4.2-4.37-6.06-6.65a4.93,4.93,0,0,1-1.17-3.21,19.75,19.75,0,0,0-5.91-16.87,27.56,27.56,0,0,0-18.94-8.07c-11.16-.42-21,3.7-30.6,8.81-1.64.88-1.88,2.25-1.26,3.9,4.51,11.93,11.34,22.11,22.26,29.12a21.47,21.47,0,0,0,28.07-3.72c1.54-1.74,2.86-3.67,4.62-6,2,2.68,3.92,5.13,5.69,7.67a2.45,2.45,0,0,1,.08,1.87c-1.62,5.4-3.46,10.74-4.93,16.17,0,0-.65,10-.77,14.2v0c0,.32,0,.63,0,.95v.08q0,16.39-.06,32.79v18.77c0,.61,0,1.2,0,1.78.12,1.59,1.05,2.77,2.58,2.42a3.93,3.93,0,0,0,2.35-2.38c.41-1.32.12-2.85.12-4.28V279.38c0-3.65.13-8.88.47-12.31a1.46,1.46,0,0,1,.13-.09c.11-1.05.27-2.08.46-3.09a1.57,1.57,0,0,0,.1-.51c1.9-9.94,6.67-18.43,12.5-26.69,4.06,4,8.4,6.7,13.72,7.34,13,1.55,23.07-3.75,31.13-13.5,6.64-8,10.52-17.49,13.57-27.34,1-3.2.7-3.95-2.39-5.32m-78,32.49c-4.32-.92-8.31-1.84-12.34-2.56-1.76-.32-3.6,0-3.69,2.33s1.59,2.68,3.47,2.71a21.7,21.7,0,0,1,10.89,3.41c-1.18,5.64-10,12.95-17.39,11.72-5.05-.84-8.74-3.44-12.35-6.45-6.41-5.37-10.83-12.26-14.16-19.86a2.52,2.52,0,0,1,.6-2.36c7.91-4,16.11-7.15,25.2-6.67a22.28,22.28,0,0,1,16,7.3,14,14,0,0,1,3.82,10.43m74.78-26.66c-3.2,10-7.38,19.49-15,27-6.39,6.22-14,9.34-23,8.36a16.49,16.49,0,0,1-11.17-6.45,63.43,63.43,0,0,1,24.43-16.52c3.47-1.32,7.06-2.34,10.63-3.36,1.75-.49,3.15-1.18,2.68-3.23-.5-2.22-2.24-2.18-4-1.73-13.31,3.3-25.18,9.27-35,19-.46.45-1,.83-1.5,1.26-6.9-11-.41-26.78,12.36-30.26,9.73-2.66,19.45-1.85,29.08.67a88.82,88.82,0,0,1,9.36,3.17c.62.24,1.42,1.55,1.24,2.09"/><polygon class="cls-5" points="260.02 80.47 221.69 155.13 268.6 155.23 268.5 209.79 307.38 130.75 259.93 129.03 260.02 80.47"/><path class="cls-6" d="M265.67,223.71l.13-64.13L217,159.49l46-89.55-.12,57.76L312,129.49Zm-39.18-70,45.08.09-.08,45,31.42-63.86-45.8-1.66.07-39.35Z"/></svg>