<svg id="Capa_1" data-name="Capa 1" xmlns="http://www.w3.org/2000/svg" viewBox="0 0 512 512"><defs><style>.cls-1{fill:#e83876;}.cls-2{fill:#dd0162;}.cls-3{fill:#fff;}</style></defs><rect class="cls-1" x="85.04" y="85.04" width="341.92" height="341.92" transform="translate(-106.04 256) rotate(-45)"/><path class="cls-2" d="M256,0,0,256,256,512,512,256Zm0,14.22L497.78,256,256,497.78,14.22,256Z"/><path d="M223.1,355.39c-19.31,0-38.63.07-57.94-.06a77,77,0,0,1-11.4-1.2c-13.26-2.07-20.85-9.9-23.65-22.95a199.72,199.72,0,0,1-3.35-58.11,169,169,0,0,1,4.78-29.45c1.3-5,5.35-9.3,8.66-13.53.74-1,4.12-1.05,5.39-.2,22.33,14.94,45.76,13,65.06-5.35a9.48,9.48,0,0,1,5.15-2.11,31.27,31.27,0,0,1,9,0c2.74.47,5.82,1.28,7.89,3A61.59,61.59,0,0,0,301,232.58c5.53-3,7.16-3.06,9.69,2.64a87.78,87.78,0,0,1,6.73,21.72,205.51,205.51,0,0,1-.68,69.58c-3.85,20.84-12.33,27.67-33.71,28.77-1.5.08-3,.16-4.49.16H223.1ZM210.44,267.1c-.82,1.78-2.23,3.44-2.25,5.12-.19,12.83-.15,25.66-.08,38.48,0,4.85,2,6,6.23,3.67q16.53-9.33,32.93-18.87c4.69-2.73,4.65-5-.12-7.75-10.81-6.25-21.66-12.42-32.51-18.6C213.64,268.57,212.56,268.13,210.44,267.1Z"/><path d="M272,229.41a51,51,0,0,1-50.78-51c.06-27.9,23.26-51,51.11-50.8A50.91,50.91,0,1,1,272,229.41Zm-.18-22a28.88,28.88,0,0,0,29.21-28.61c.05-15.87-13.05-29.15-28.79-29.17a28.89,28.89,0,0,0-.42,57.78Z"/><path d="M386,288.52c0,18.58-1.32,27-3.73,39.67-1.38,7.23-5.12,9.37-11.63,6.29q-19.38-9.18-38.56-18.75a6,6,0,0,1-2.79-4.38q-.31-21.93,0-43.87a6,6,0,0,1,2.61-4.48c12.92-6.48,26-12.75,39-19,6-2.85,10.07-.79,11.25,5.65C384.53,262.69,386,268.87,386,288.52Z"/><path d="M175,230.45c-22.05,0-39.33-17.7-39.16-40a39.43,39.43,0,1,1,39.16,40Zm0-22a17.44,17.44,0,0,0,17.63-17.24,17.77,17.77,0,0,0-17.29-17.72,17.52,17.52,0,0,0-17.57,17.36A17.31,17.31,0,0,0,175,208.42Z"/><path d="M223.1,367.07c12.81,0,25.63.05,38.44,0,5.84,0,7.91,1.55,8.24,6.78.47,7.29-1.31,10.13-7.57,10.21-21.79.3-43.6.31-65.4.37-4.66,0-9.33,0-14-.41-5.59-.44-7.09-3-6.66-10.46.27-4.75,2.31-6.5,7.48-6.49H223.1Z"/><path class="cls-3" d="M210.44,267.1c2.12,1,3.2,1.47,4.2,2,10.85,6.18,21.7,12.35,32.51,18.6,4.77,2.75,4.81,5,.12,7.75q-16.41,9.53-32.93,18.87c-4.19,2.37-6.2,1.18-6.23-3.67-.07-12.82-.11-25.65.08-38.48C208.21,270.54,209.62,268.88,210.44,267.1Z"/><path class="cls-3" d="M271.85,207.38a28.89,28.89,0,0,1,.42-57.78c15.74,0,28.84,13.3,28.79,29.17A28.88,28.88,0,0,1,271.85,207.38Z"/><path class="cls-3" d="M175,208.42a17.31,17.31,0,0,1-17.23-17.6,17.52,17.52,0,0,1,17.57-17.36,17.77,17.77,0,0,1,17.29,17.72A17.44,17.44,0,0,1,175,208.42Z"/></svg>