<svg id="Capa_1" data-name="Capa 1" xmlns="http://www.w3.org/2000/svg" viewBox="0 0 512 512"><defs><style>.cls-1{fill:#e83876;}.cls-2{fill:#dd0162;}.cls-3{fill-rule:evenodd;}</style></defs><rect class="cls-1" x="85.04" y="85.04" width="341.92" height="341.92" transform="translate(-106.04 256) rotate(-45)"/><path class="cls-2" d="M256,0,0,256,256,512,512,256Zm0,14.22L497.78,256,256,497.78,14.22,256Z"/><path class="cls-3" d="M238.79,141.18c-12.88,20-25.24,40.36-38.86,59.85-7,10-10.19,19.86-9,32,1.26,12.74-5,20.4-17.85,22.2a45.35,45.35,0,0,1-19.27-1.6c-12.64-4-14.8-7.92-14.79-21.1,0-8.15-2.55-17.74.91-24s13-8.75,19.81-12.95c28.91-17.69,53.85-40,75.62-65.88,1.93-2.3,2.89-6,3-9.14.35-11.21.13-22.42.13-33.79,9.62-1.2,17.35.75,23.75,7.2,2.22,2.23,4.74,4.19,6.84,6.52,8.85,9.8,20.29,11.14,33,9.61-6.78,8.29-18.79,11.51-28.95,8.83-6-1.59-12.28-3.56-18.27-3.13-9.51.7-12.12,6.46-5.74,13.64,11.76,13.27,23.6,26.9,37.43,37.8,16.61,13.07,35.26,23.56,53.2,34.88,4.43,2.79,6.73,5.73,6.26,11.24-.53,6.51-.12,13.12-.12,19.68,0,12.66-2.15,17.09-14.39,20.52a47.56,47.56,0,0,1-22.9.24c-9.81-2.33-13.58-8-12.42-17.85,1.95-16.61-4-29.39-14.24-42.12C269,177.79,258.12,160.1,247,144c4.89,17,11.39,35.09,15,53.71,2.85,14.43,2.25,29.57,2.89,44.4,0,1.69-1.69,3.73-3.06,5.15-11.61,12.12-29.25,11.59-40.13-1.17-1-1.12-2.18-2.64-2.12-3.94.53-12.76-.33-25.87,2.4-38.18,4.29-19.36,11-38.16,16.72-57.22.5-1.66.76-3.38,1.15-5.06l-1.08-.5"/><path class="cls-3" d="M151.62,261.66l29.83-2.93-13.09,65.79c9.53,0,18.66.25,27.75-.25,1.58-.09,3.91-3.25,4.33-5.31,3.66-18.38,7-36.84,10.8-57.39l17.81-5c2.53,23.31,4.69,45.62-2.74,68.21h34c-1.12-7.83-2.64-15.42-3.21-23.08-.88-11.76-.81-23.6-1.72-35.36-.54-7.06,4.05-9.34,9.07-10.72,3.76-1,11,6.43,11.79,10.44,3.21,17.21,6.66,34.38,9.94,51.58,1.08,5.69,4.28,7.42,9.95,7.09,8.62-.48,17.3-.13,27.18-.13-9.72-21.18-18.13-41.94-19.07-65h29.18c2.58,13,3.63,25.72,7.84,37.31,4,11.13,11.37,21.05,17.62,32.14-2.84.32-4.59.66-6.33.68q-109.14,1.1-218.26,2.06c-2.33,0-5.24-.65-6.79-2.13-.83-.78,0-4.53,1.24-6.06,14-17.92,20.9-38.49,22.88-61.95"/></svg>