<svg id="Capa_1" data-name="Capa 1" xmlns="http://www.w3.org/2000/svg" viewBox="0 0 512 512"><defs><style>.cls-1{fill:#7dba32;}.cls-2{fill:#13a646;}.cls-3{fill:#fcc150;}.cls-4{fill:#fff;}</style></defs><rect class="cls-1" x="85.04" y="85.04" width="341.92" height="341.92" transform="translate(-106.04 256) rotate(-45)"/><path class="cls-2" d="M256,0,0,256,256,512,512,256Zm0,14.22L497.78,256,256,497.78,14.22,256Z"/><path d="M181.09,235.1l-13.76-17c-.92-1.13-1.86-2.25-2.77-3.39-2.58-3.19-2.41-5.25.8-7.87q13.78-11.22,27.61-22.39L233,152c3.85-3.12,5.65-3,8.79.87,2.66,3.25,5.3,6.52,8.09,10,5.7-3.09,11.35-6.1,16.95-9.2s11.07-5.77,17.33-6.93c7.5-1.39,14.83-.52,22.16,1.18,17.09,3.95,34.21,7.81,51.31,11.71,3.55.81,4.53,2,4.53,5.7,0,15.63,0,31.26,0,46.9a5.44,5.44,0,0,1-3.75,5.7c-18.44,7.8-36.78,6.52-55.08-.45-2.24-.85-4.36-2.06-6.64-2.75a76.81,76.81,0,0,0-9.68-2.27,7.93,7.93,0,0,0-6.57,2.16c-7.37,6.17-14.92,12.13-22.39,18.18-.73.58-1.43,1.19-2.82,2.35h43c5.11,0,6.35,1.26,6.35,6.44v118c0,5.2-1.22,6.44-6.35,6.44H156.07c-5,0-6.26-1.24-6.26-6.22V241.24c0-4.85,1.26-6.13,6.07-6.14h25.21Zm114.54,9.16a6.91,6.91,0,0,0-1-.17c-16.41,0-32.81,0-49.21,0a4.85,4.85,0,0,0-2.72,1.1q-13.56,10.88-27.05,21.85c-4.27,3.46-5.94,3.32-9.36-.9q-8.2-10.1-16.35-20.24a4.29,4.29,0,0,0-3.87-1.9c-4,.14-8.07,0-12.11,0H158.74v112.8H295.63Zm57.73-76.32c-.84-.24-1.56-.48-2.29-.65-16.27-3.73-32.54-7.4-48.79-11.19-9.29-2.17-18.22-1.48-26.72,3-6.36,3.36-12.66,6.85-19,10.28l-1,.54c4.07,5,8,9.7,11.66,14.55,1.3,1.7,2.47,2,4.26,1.1a14.22,14.22,0,0,1,2.44-.8c2.71-.81,4.91.2,5.82,2.66s-.21,4.69-2.94,5.67c-6,2.14-12,4.13-18,6.18l-15.65,5.4c2.85,4.4,8.28,6.84,13.12,5.67,7-1.69,13.92-3.57,20.83-5.55a33.69,33.69,0,0,1,22.59,1.44,151.22,151.22,0,0,0,15.14,5.6,59.75,59.75,0,0,0,36.18-.61c1.78-.6,2.36-1.42,2.3-3.26-.15-4.12-.05-8.25-.05-12.37Zm-179.81,43.7c12.85,15.87,25.48,31.44,38.19,47.14,16.43-13.31,32.65-26.44,49.4-40-1.34.11-1.93.1-2.5.21a22.38,22.38,0,0,1-25.52-14.28c-1.4-3.8-.48-5.81,3.3-7.15,2.34-.82,4.69-1.59,7-2.4,5.39-1.84,10.78-3.7,16.46-5.65l-23.36-28.87Z"/><path d="M295.63,244.26V356.87H158.74V244.07H174c4,0,8.08.1,12.11,0a4.29,4.29,0,0,1,3.87,1.9q8.11,10.17,16.35,20.24c3.42,4.22,5.09,4.36,9.36.9q13.52-10.95,27.05-21.85a4.85,4.85,0,0,1,2.72-1.1c16.4-.06,32.8,0,49.21,0A6.91,6.91,0,0,1,295.63,244.26ZM227.15,345.09q20.85,0,41.7,0c4.1,0,6.19-1.52,6.2-4.5s-2-4.45-6.2-4.47H185.7a16.76,16.76,0,0,0-2.56.14,4.37,4.37,0,0,0-.5,8.57,10.08,10.08,0,0,0,2.8.24Q206.29,345.11,227.15,345.09Zm.26-30.43c-8.92,0-17.84,0-26.77,0-3.14,0-4.91,1.64-4.92,4.34s1.87,4.45,4.87,4.46c17.76,0,35.52.06,53.28-.09A5.93,5.93,0,0,0,258,321.1c2-2.91-.31-6.4-4.11-6.42C245.09,314.62,236.25,314.66,227.41,314.66Z"/><path class="cls-3" d="M353.36,167.94V195.6c0,4.12-.1,8.25.05,12.37.06,1.84-.52,2.66-2.3,3.26a59.75,59.75,0,0,1-36.18.61,151.22,151.22,0,0,1-15.14-5.6,33.69,33.69,0,0,0-22.59-1.44c-6.91,2-13.85,3.86-20.83,5.55-4.84,1.17-10.27-1.27-13.12-5.67l15.65-5.4c6-2.05,12-4,18-6.18,2.73-1,3.81-3.31,2.94-5.67s-3.11-3.47-5.82-2.66a14.22,14.22,0,0,0-2.44.8c-1.79.92-3,.6-4.26-1.1-3.68-4.85-7.59-9.52-11.66-14.55l1-.54c6.33-3.43,12.63-6.92,19-10.28,8.5-4.48,17.43-5.17,26.72-3,16.25,3.79,32.52,7.46,48.79,11.19C351.8,167.46,352.52,167.7,353.36,167.94Z"/><path class="cls-4" d="M173.55,211.64l63-51,23.36,28.87c-5.68,1.95-11.07,3.81-16.46,5.65-2.35.81-4.7,1.58-7,2.4-3.78,1.34-4.7,3.35-3.3,7.15A22.38,22.38,0,0,0,258.64,219c.57-.11,1.16-.1,2.5-.21-16.75,13.58-33,26.71-49.4,40C199,243.08,186.4,227.51,173.55,211.64Z"/><path class="cls-4" d="M227.15,345.09q-20.86,0-41.71,0a10.08,10.08,0,0,1-2.8-.24,4.37,4.37,0,0,1,.5-8.57,16.76,16.76,0,0,1,2.56-.14h83.15c4.19,0,6.21,1.48,6.2,4.47s-2.1,4.5-6.2,4.5Q248,345.11,227.15,345.09Z"/><path class="cls-4" d="M227.41,314.66c8.84,0,17.68,0,26.52,0,3.8,0,6.11,3.51,4.11,6.42a5.93,5.93,0,0,1-4.17,2.28c-17.76.15-35.52.11-53.28.09-3,0-4.89-1.81-4.87-4.46s1.78-4.33,4.92-4.34C209.57,314.64,218.49,314.66,227.41,314.66Z"/></svg>