<svg xmlns="http://www.w3.org/2000/svg" data-name="Capa 1" viewBox="0 0 512 512"><path d="M85.04 85.04h341.92v341.92H85.04z" style="fill:#e83876" transform="rotate(-45 256 256.002)"/><path d="M256 0 0 256l256 256 256-256Zm0 14.22L497.78 256 256 497.78 14.22 256Z" style="fill:#dd0162"/><path d="M227.76 307.19c-3.8-3-7.31-5.77-10.77-8.57-7.55-6.15-15.05-12.35-22.61-18.49-5.79-4.7-5.81-4.67-13.19-3.24 3.41-7.22-2.59-8.91-6.48-12-2.38-1.9-4.57-4-7-6.16-2.92 2.35-5.34 4.77-8.2 6.48-14 8.38-33.2 6.59-47.34-4.6-15.37-12.16-24.87-28.13-29.15-47.15a37.7 37.7 0 0 1-.57-11.07c.59-7.88 5.9-11.94 12.8-14.16 9.51-3.09 19.22-2.3 28.93-.94a71.87 71.87 0 0 1 41.27 20.3c12.9 12.63 15.11 25.77 7.52 43.94 4.57 3.15 9.08 6.65 14 9.38 1.53.85 4.21-.32 6.73-.62.25 8.65 8.61 10 13.89 13.93 10.24 7.6 21.37 14 32 21.13 2.66 1.78 4.46 1.62 7-.13 15.68-11 31.45-21.75 47.22-32.57 2.29-1.56 4.86-2.74 7.05-4.41 1.36-1 3.09-2.57 3.25-4 .75-6.41.55-6.43 6.58-3l12.48-8.35c-2.35-6.59-4.65-12.77-6.77-19-1.47-4.35-.63-7.29 3.82-10.2 24.86-16.22 49.4-32.9 74.05-49.41 1.15-.78 2.35-1.46 4-2.43l3.68 4.54-65.8 51.33c1.07 1.46 1.92 2.67 3 4.2l67.74-48.18 3.75 4.68-66.24 50.89 3.5 4.62 67-49.53c1.15 1.45 2.22 2.82 3.51 4.47l-64.61 52.26c.82 1.25 1.54 2.35 2.55 3.87l66.59-50.35c1.37 1.71 2.69 3.34 4 5 .34.38.67.75 1 1.14a21.5 21.5 0 0 0-3.53 2q-35.14 29.92-70.17 60c-2.21 1.91-4 2.46-6.45.76-6.09-4.15-12.25-8.17-18.83-12.55-2.83 2.33-6.37 5-9.63 8.07a5.56 5.56 0 0 0-1.19 4c.2 3.15-.54 4.3-3.95 3.35a6 6 0 0 0-4.73.91c-8.28 6.7-16.37 13.62-24.53 20.44-7.59 6.32-15.21 12.58-22.79 18.9a13.7 13.7 0 0 0-1.53 1.86l70 45.45c8.95 5.81 17.87 11.63 26.84 17.41 8.49 5.47 8.7 19.07.36 25-6.42 4.54-12.22 4.33-18.37-.54-31.22-24.82-62.46-49.62-94.08-74.74q-12.34 10.32-24.74 20.7c-17 14.3-34 28.7-51.27 42.81-1.67 1.37-4.83 1.64-7.17 1.36-11.26-1.32-16.76-8.92-15.11-20.14.46-3.15 2.08-5.13 4.71-6.9q36-24.12 71.77-48.48c1.35-.92 2.63-1.94 4.32-3.18M88.21 204.85c3.66 18.26 9.71 34 22.93 46.09 9.5 8.66 20.67 13.28 33.78 12.45 16.27-1 28.5-15.11 25.87-34.26-2.19 9.1-6.71 15.71-14 20.43-2.22 1.44-3.78 1.58-6.08-.11-12.59-9.2-25.34-18.16-38-27.2-7.85-5.59-15.7-11.19-24.44-17.4m256.59 176.56L235.1 304.35c4.1 4.53 8.85 8.16 13.56 11.85q42.71 33.42 85.41 66.89c4.34 3.39 7.24 3 10.79-1.68m9.88-128.13-26.08-34.8c5.28-4.35 10.28-8.46 15.26-12.58a189 189 0 0 0-20 12.61c-1.13.81-2.18 3.11-1.86 4.39 3.36 13.38 10.52 24.2 22.12 32 4.15 2.8 7.47 3.07 10.59-1.63M166.46 367.94l69.16-54c-.21-.47-.39-.95-.58-1.42-1.2.24-2.61.17-3.57.77-3.65 2.29-7.17 4.81-10.72 7.27q-26.5 18.31-53 36.65c-4.62 3.21-5 5.74-1.29 10.74m83-67.55 1.33 1.62 12.88-9.94c-.29-.37-.57-.75-.86-1.11z" style="fill-rule:evenodd"/><path d="M291.74 197.76c0 11.72-.21 23 .12 34.21.12 4-.79 6.37-4.29 8.59-14.31 9.07-28.42 18.49-42.62 27.79-12.16-7.67-24.25-15.37-36.44-22.9-2.51-1.56-3.48-3-3.13-6.25 1.51-14.11 2.59-28.26 3.88-42.89-14.7.12-26.68-5-34.32-18-5.15-8.73-6-18.12-3.22-27.73 4.88-17.16 24.92-31.93 49.6-21.67 1.19-1.45 2.41-3 3.7-4.48 13.8-15.78 38.62-16.18 52.48-.49 2.82 3.18 5.26 3.93 9.26 3.46 18.49-2.15 35.45 10.25 38.6 27.83 3.44 19.19-7.78 36.77-26.43 41.31-2.65.64-5.41.89-7.19 1.18m-15.66-51.12c16.52-10.6 38.44-3.6 41.4 20.4 4.26-21.88-14.81-36.64-39.19-30.32-11.85-25.16-44.55-22.68-53.54 2.18-14.85-8.88-26.14-8.91-36.65-.11-8.86 7.39-12.59 20.25-8.11 30.69 7 16.39 20 21 36.74 16.69 0 2.41.13 4.4 0 6.39-1 13.87-2.05 27.75-3 41.63-.09 1.32-.32 3.28.41 3.88 3.21 2.69 6.74 5 10.18 7.41l1.25-.9v-65.3c-1 .29-2.2.71-3.4.93-7.75 1.41-14.5-.4-19.55-6.68s-5.84-13.24-2.49-20.43c3.28-7 9.08-10.75 16.9-11 6.47-.24 7 .12 7.13 6.64.18 8.7 7.61 20.32 14.21 21.61-7.18-7.72-9.14-16.5-5-26.12 3.75-8.58 10.84-13.13 20.08-13.33 10.92-.24 18.28 5.53 22.62 15.84" style="fill-rule:evenodd;fill:#fff"/></svg>