<svg id="Capa_1" data-name="Capa 1" xmlns="http://www.w3.org/2000/svg" viewBox="0 0 512 512"><defs><style>.cls-1{fill:#e83876;}.cls-2{fill:#dd0162;}.cls-3{fill-rule:evenodd;}</style></defs><rect class="cls-1" x="85.04" y="85.04" width="341.92" height="341.92" transform="translate(-106.04 256) rotate(-45)"/><path class="cls-2" d="M256,0,0,256,256,512,512,256Zm0,14.22L497.78,256,256,497.78,14.22,256Z"/><path class="cls-3" d="M353,187.67c-37.51,7.21-69.63,12.38-94.7,92.26,0,0-21.57-28.72-47.34-35.81-.44-19.76.69-26.94-20.67-39.85s-71.71-46.16-71.71-46.16l54.77,53.54-70.13-33.59,53.62,48.08L93.38,197.66l52.14,49.75s31.87,28.87,55.21,10c13.61,5.44,43.49,24.68,52.19,50.77,0,0,3.79,12.62,7.16,28.12-12.21.74-22.29,5.93-29.81,15.81-9,11.75-10.46,27.73-2.85,40.1,6.17,10.07,18.56,16,29.89,13.92A22.53,22.53,0,0,0,274.91,391a5.66,5.66,0,0,0,.53-1.91c0-.18,0-.42.05-.67a20.41,20.41,0,0,0,.33-3.32c.7-6.45,2.15-18.86,2.85-32.91a38.11,38.11,0,0,1,7.28,5.23c10.47,9.49,13.87,21.62,11.31,35.37a42.52,42.52,0,0,1-18.58,28.31c-10.86,7.37-22.88,9.57-35.7,7-15.16-3.09-27.17-11.13-35-24.4-11.63-19.68-10.55-39.68.4-59.32a58.92,58.92,0,0,1,23.18-22.89c3.43-1.93,4.58-5.41,2.88-8.49s-5.26-4-8.61-2.12a70.27,70.27,0,0,0-22.42,19.26c-12,15.86-17.58,33.65-15,53.51,2.94,22.27,14.37,39.12,34.16,49.82,16.47,8.9,33.78,10.4,51.43,3.7,26.35-10,41.17-38.67,34.56-64.87a48.35,48.35,0,0,0-29.52-33c.12-14.36-.9-29.05-4.5-40,1.29-11.31,3.85-21.68,8.41-29.54,19.67-33.89,29.17-59.46,86.23-54.1-8.26-.44-32.25.7-53.22,25.15-25.81,30.08-25.27,51.41-26.55,56.24s44.66,5.91,66.34-14.42,25-56.15,53.77-63.88L438.32,211s-47.78-30.5-85.31-23.28M249.9,394.22a19.28,19.28,0,0,1-15.31-19.89,26.89,26.89,0,0,1,19.94-24.95,35.4,35.4,0,0,1,7.92-1.15c2.57,14.49,4,29.34,1.31,37.73-.39,1.21-.67,2.31-.9,3.3l-.48,0a11.58,11.58,0,0,1-12.48,4.93"/></svg>