<svg xmlns="http://www.w3.org/2000/svg" id="Capa_1" data-name="Capa 1" viewBox="0 0 512 512"><defs><style>.cls-3{fill:#fff}.cls-3,.cls-4{fill-rule:evenodd}</style></defs><path d="M85.04 85.04h341.92v341.92H85.04z" style="fill:#ab7cb1" transform="rotate(-45 256 256.002)"/><path d="M256 0 0 256l256 256 256-256Zm0 14.22L497.78 256 256 497.78 14.22 256Z" style="fill:#25204d"/><path d="M244.1 255.3h77.55c8.49 0 14-6.28 14.05-15.83v-82.08c0-10.18-5.43-16.34-14.47-16.34H167c-8.9 0-14.37 6.2-14.37 16.23v81.62c0 10.26 5.33 16.38 14.37 16.4z" class="cls-3"/><path d="M244.16 342.75h-132.7a13.7 13.7 0 0 1-2.31-.12 4.47 4.47 0 0 1-3.48-5.31 12.5 12.5 0 0 1 1.34-4.2Q125 302.47 143.07 272a3.14 3.14 0 0 1 2.39-1.29c7.88-.09 15.78-.05 23.67-.05h172.86a3.91 3.91 0 0 1 3.91 2.28c11.64 19.92 23.38 39.75 35 59.64a13.7 13.7 0 0 1 1.6 4.11c.71 3.45-1 5.9-4.18 6.13-.77.06-1.54 0-2.31 0Zm-100.5-33.63h200.67a6.3 6.3 0 0 0-.29-1.24c-3.78-8.08-7.54-16.16-11.36-24.21-2.22-4.68-5.71-6.52-10.43-6.52-33.16.1-66.32.05-99.5.05-19.07 0-38.15.05-57.24 0A9.76 9.76 0 0 0 156 283c-2 3.83-4.07 7.63-5.91 11.56-2.21 4.67-4.21 9.47-6.46 14.58m65.23 21.44h70.48a73 73 0 0 0-3.05-8.61 4.51 4.51 0 0 0-3.29-2.27q-28.85-.19-57.66 0a4.2 4.2 0 0 0-3.22 2 83 83 0 0 0-3.22 8.83M144 132.56h200.25V266H144Zm100.1 123.78h77.55c8.49 0 14.05-6.28 14.05-15.82v-82.08c0-10.2-5.43-16.35-14.47-16.36H167c-8.9 0-14.37 6.2-14.37 16.23V240c0 10.27 5.33 16.38 14.37 16.39h77.12" class="cls-4"/><path d="M143.77 310.3h200.68a7.4 7.4 0 0 0-.29-1.34c-3.78-8.83-7.54-17.68-11.36-26.48-2.22-5.13-5.71-7.14-10.43-7.12-33.16.12-66.33.06-99.5.06-19.07 0-38.16 0-57.24-.05-4.19 0-7.38 1.87-9.49 6.35-2 4.21-4.06 8.35-5.91 12.64-2.2 5.11-4.21 10.37-6.46 15.94M208.85 330.56h70.74a74 74 0 0 0-3.07-8.59 4.5 4.5 0 0 0-3.34-2.25q-29-.2-57.87 0a4.35 4.35 0 0 0-3.24 2 84 84 0 0 0-3.22 8.82" class="cls-3"/></svg>