<svg xmlns="http://www.w3.org/2000/svg" id="Capa_1" data-name="Capa 1" viewBox="0 0 512 512"><defs><style>.cls-4,.cls-5{fill-rule:evenodd}.cls-4{fill:#0a9b39}</style></defs><path d="M85.04 85.04h341.92v341.92H85.04z" style="fill:#7dba32" transform="rotate(-45 256 256.002)"/><path d="M256 0 0 256l256 256 256-256Zm0 14.22L497.78 256 256 497.78 14.22 256Z" style="fill:#13a646"/><path d="M371.72 248.24a119.43 119.43 0 1 1-119.43-119.43 119.43 119.43 0 0 1 119.43 119.43" style="fill:#fff;fill-rule:evenodd"/><path d="M286.87 353.48c5.94-2.69 11.45-4.75 16.54-7.53q51-28 59.35-85.68a104.4 104.4 0 0 0-1.92-38.85c-.63-2.73 0-4.42 2.5-5.81 6-3.26 11.84-6.78 17.76-10.17 3.84-2.2 5.34-1.64 6.39 2.56 13.6 54.25.68 101.35-38.72 140.88-16.42 16.48-36.45 27.33-58.85 33.66-2.32.67-3.42 1.5-3.1 4a32 32 0 0 1 0 6c-.19 2.92-2.56 4.23-5 2.61q-14.06-9.44-28-19c-2.28-1.57-2.24-3.45 0-5.69q10.94-10.8 21.91-21.53a74 74 0 0 1 5.5-5.26c.89-.71 2.6-1.3 3.44-.9a4.67 4.67 0 0 1 2 3.19 56 56 0 0 1 .09 7.48M140.64 224.14a102.5 102.5 0 0 0-1.59 34.86c5.06 38.09 24.22 66.95 57.61 86 6.7 3.82 14.21 6.29 21.43 9.15 2.19.86 3.29 1.9 3.25 4.31-.07 7.18 0 14.36 0 21.54 0 3.81-1.36 4.78-5.13 3.85a141.45 141.45 0 0 1-105.3-115.78 137.8 137.8 0 0 1 2.68-56c.64-2.47.26-3.85-2.11-4.87a34 34 0 0 1-5.22-3c-2.28-1.52-2.2-4.23.28-5.43q15.28-7.54 30.7-14.85c2.24-1.07 3.94-.18 4.59 2.29q4.93 18.9 9.65 37.86c.26 1-.21 2.9-1 3.38a4.85 4.85 0 0 1-3.8.07 52 52 0 0 1-6.06-3.38M351.9 146.68c2.58-1.47 5-3 7.62-4.24a4.33 4.33 0 0 1 3.56-.14 4.15 4.15 0 0 1 1.42 3.3c-.69 11-1.55 22-2.38 33-.22 2.92-1.77 4-4.65 3.23-12.39-3.41-24.77-6.82-37.11-10.39a4.22 4.22 0 0 1-2.65-2.68c-.13-1 .93-2.51 1.88-3.26a56 56 0 0 1 6.16-3.71c-4.56-3.39-8.64-6.76-13-9.65a112.63 112.63 0 0 0-130.08 4.59 91 91 0 0 0-8.14 7c-2 1.9-3.65 2.22-6 .79-6.07-3.66-12.24-7.14-18.37-10.69-3-1.77-3.54-3.9-.84-6.23 7.6-6.56 15-13.56 23.23-19.16 26-17.6 55-25.37 86.27-23.61 34.88 2 65.06 15.23 90.45 39.28.88.84 1.77 1.67 2.69 2.56" class="cls-4"/><path d="M305.41 316.86c-8.67 5.38-26.56 4.68-32.72-3.72-1.58-2.14-3.83-1.89-5.56.08-8.88 10.13-25.15 11-34.9 1.7a36.5 36.5 0 0 1-4.32-5.2c-2.19-3.07-3.92-3.33-6.78-.79-4 3.58-8.3 6.74-13.65 7.94a47 47 0 0 1-6.56.47c1.07-1 1.52-1.46 2-1.86 12.37-9.71 18.89-22.65 20.11-38.1 1.76-22.1-4.93-41.47-20.44-57.47-3.22-3.32-7.28-5.84-11-8.76a16.8 16.8 0 0 1 11.55 3.2 62 62 0 0 1 9 8.39c2.91 3.25 3.29 3.34 7.21 1.63a46 46 0 0 1 11.17-3.63c8.37-1.24 14.92 2.34 20 8.9 2.66 3.42 5 3.19 7.28-.54a34 34 0 0 1 2.3-3.44c6-7.81 13.62-9.24 22.13-4.21 4 2.39 4.62 2.2 7.49-1.45 6.4-8.14 14.39-12.47 25-10a11 11 0 0 1 1.14.34c.18.08.32.22-.05 0-4.72 4-10 7.59-14.34 12.15-18.35 19.29-23.68 52.26-12.49 75.27a49.6 49.6 0 0 0 13.56 17c.89.73 1.79 1.43 2.73 2.19" class="cls-5"/><path d="M187.62 204.28c6.24-7.49 14-10.3 22.7-11a35.5 35.5 0 0 1 16.68 3.23c4.63 2 9.17 4.14 13.85 6 2.8 1.11 5.77 1.78 9 2.76.55-11.08-1.37-20.9-8.14-29.35-2-2.52-4.3-4.87-6.53-7.24s-2.63-4.35-1.17-5.91 3.77-1.23 6.15 1.07a58.8 58.8 0 0 1 13.61 19.26c2.4-9.56 7.31-16.67 15-21.79s16.29-6 25.44-6.44c-.25 10.9-1.89 21.1-9.43 29.47s-16.87 12-27.85 11.53v9.06a43 43 0 0 0 6.18-1.46c5-2 10-4.09 15-6.33 10.11-4.62 20.34-5.48 30.59-.77 3.37 1.56 6.33 4 9.27 6.42-14.88-2.09-21.51.19-33.13 11.77-12.29-6.3-22.52-3.28-31 7.57a8 8 0 0 1-.89-.65c-9.89-9.2-21.11-10.21-33.18-5.18-2 .85-3 .51-4.44-1-7.2-7.95-15.89-12.51-27.71-11M224.07 316.92c14.94 14.15 29.86 15.62 46.12 4 7.86 5.77 16.85 7.41 27.35 6.17-5.71 4.24-10.7 8-17.53 7.3a94 94 0 0 1-12.54-1.77 57.4 57.4 0 0 0-27.79-.1c-2.67.65-5.4 1.08-8.11 1.61-10.29 2-18-2.85-24.82-8.92 5.57-2.67 11.24-5.38 17.32-8.31" class="cls-5"/></svg>