<svg xmlns="http://www.w3.org/2000/svg" data-name="Capa 1" viewBox="0 0 512 512"><path d="M85.04 85.04h341.92v341.92H85.04z" style="fill:#ab7cb1" transform="rotate(-45 256 256.002)"/><path d="M256 0 0 256l256 256 256-256Zm0 14.22L497.78 256 256 497.78 14.22 256Z" style="fill:#25204d"/><path d="M330.45 144.11c-8.07-14.45-19.88-24.47-35.16-30.56a75.9 75.9 0 0 0-26.72-5.68c-10.18-.22-20.38-.25-30.55 0-5 .12-7 2.75-7 7.72 0 2 0 3.94-.06 5.9-7.58.8-10.43-1.51-10.91-8.67 0-.29 0-.58-.06-.86-.52-3.46-1.7-4.54-5.21-4.61-2.83 0-5.69.22-8.5 0-8.23-.77-11.45 4.62-11.79 11-.58 10.82-.28 21.69-.13 32.52.06 4.23 1.76 5.67 6.08 5.79 4.81.11 9.62.09 14.43 0 4.07-.1 5.28-1.3 5.61-5.51.16-2.08 1.06-3.48 3.06-3.87 2.46-.49 5-.71 7.71-1.08.08 2.79.11 5.13.2 7.46.16 4.18 1.31 5.27 5.49 5.36 2.22.05 4.44.14 6.79.23 0 8.08 0 15.67.06 23.57h14.95q-.18 12.84-.35 25.7c-.23 19.4-.42 38.8-.75 58.21a3.7 3.7 0 0 1-1.82 2.57c-10.67 5.08-15.68 13.41-15.81 24.61q-.19 19.23-.36 38.44c-.2 21.87-.43 43.75-.57 65.61-.05 9.88-.27 19.77.15 29.61.44 9.59 10 18.31 19.69 19.08 5.78.47 11-1.26 16.24-3.69l5.7-4.82a13.5 13.5 0 0 1 .93-1.66c3.09-4.24 5.16-8.84 5.33-14 .2-6.78.27-13.54.35-20.33q.35-29.91.63-59.85c.16-17.31.17-34.6.44-51.9a23.27 23.27 0 0 0-15.43-22.34 3.06 3.06 0 0 1-1.66-2.4c-.11-5.56 0-11.15.08-16.73q.29-22.93.59-45.86c.08-6.77.12-13.54.17-20.3h20.81c0-12.53.07-24.74.11-37.43 23.22 8 35.92 26.71 47.82 46.36.22-.43.38-.59.38-.75-.24-16.42-2.79-32.27-11-46.87" style="fill-rule:evenodd"/></svg>