<svg xmlns="http://www.w3.org/2000/svg" data-name="Capa 1" viewBox="0 0 512 512"><path d="M85.04 85.04h341.92v341.92H85.04z" style="fill:#35a8e0" transform="rotate(-45 256 256.002)"/><path d="M256 0 0 256l256 256 256-256Zm0 14.22L497.78 256 256 497.78 14.22 256Z" style="fill:#28397b"/><path d="m216.7 426.65-6.9-19.55s-6.9-202.37-15-242.61 12.65-50.59 21.85-31.05 9.2 264.47 9.2 264.47Z"/><path d="m231.19 134.59 70.19 16.1s16.42 0 17.32 17.25 31.92 20.69 53.8 26.44a199.4 199.4 0 0 1 37.38 13.8l-97.55 60.94s-3.65-15 0-21.85 4.56-10.34-19.15-3.44-58.34 25.29-58.34 25.29-9.12-85.09-3.65-134.53" style="fill:#fff"/></svg>