<svg id="Capa_1" data-name="Capa 1" xmlns="http://www.w3.org/2000/svg" viewBox="0 0 512 512"><defs><style>.cls-1{fill:#e83876;}.cls-2{fill:#dd0162;}</style></defs><rect class="cls-1" x="85.04" y="85.04" width="341.92" height="341.92" transform="translate(-106.04 256) rotate(-45)"/><path class="cls-2" d="M256,0,0,256,256,512,512,256Zm0,14.22L497.78,256,256,497.78,14.22,256Z"/><path d="M247.75,276.38c1.55,5.19,3.65,10.24,4.51,15.49,2.74,16.63-11.34,34.2-28.2,35.63-3.07.27-6.15.39-9.23.4q-29.13.06-58.26,0c-16.84,0-29.6-9.54-33.53-24.9a31.34,31.34,0,0,1,3.44-24c.54-1,1.1-1.89,1.81-3.1h-19.2v4.66c0,5-2.44,8-6.42,8.12s-6.65-3-6.66-8.19q0-22.81,0-45.61c0-1.75-.05-3.5.08-5.24a6.54,6.54,0,0,1,6.41-6.21,6.62,6.62,0,0,1,6.56,6.42c.09,2,0,4.07,0,6.32,1.09.07,2,.19,2.86.19,41.1,0,82.2.08,123.3-.05,18.95-.06,37.17-4.67,55.17-10,30.2-9,57-24.49,81.73-43.7,4.06-3.14,8.25-6.12,12.3-9.27,2.44-1.9,5-2.92,7.94-1.41S396,176,396,179.1q-.06,55.16,0,110.33c0,14.17,0,28.35,0,42.53,0,3.31-.17,6.42-3.59,8.16s-6.25,0-9-2c-14.5-10.94-28.85-22.08-44.63-31.21-25-14.49-51.89-23.77-80.3-28.72C254.71,277.49,250.91,276.9,247.75,276.38Zm-60.13-.68c-10.79,0-21.58,0-32.37,0-11.34.05-20,8.48-20,19.43s8.67,19.45,20,19.48q32.07.06,64.12,0c11.34,0,19.93-8.48,19.93-19.46s-8.54-19.4-19.89-19.45C208.78,275.67,198.2,275.7,187.62,275.7Z"/></svg>