<svg xmlns="http://www.w3.org/2000/svg" id="Capa_1" data-name="Capa 1" viewBox="0 0 512 512"><defs><style>.cls-3{fill:#e41f1a}.cls-3,.cls-4{fill-rule:evenodd}</style></defs><path d="M85.04 85.04h341.92v341.92H85.04z" style="fill:#7dba32" transform="rotate(-45 256 256.002)"/><path d="M256 0 0 256l256 256 256-256Zm0 14.22L497.78 256 256 497.78 14.22 256Z" style="fill:#13a646"/><path d="M270.35 214.06c-3.07-2.49-5-5-5.49-7.54a7.53 7.53 0 0 1-4.81-5l-.25.22-63.61-73.44c-4.54 17.75-8.93 34.36-12.92 51.06a9.5 9.5 0 0 0 1.65 7.1c6.55 8.16 13.52 16 20.33 23.91Q218.62 226 232 241.56l-.18.26a19.3 19.3 0 0 1 2.11 3.45l.19-.25c1.83 1.35 3.32 2.44 5.14 3.76l35-30.23a37 37 0 0 0-3.93-4.49" class="cls-3"/><path d="m269.8 300.43 50.2-43.5c12.48 14.36 24.74 28.39 37 42.48 9 10.39 17.79 21 26.95 31.19 2.82 3.16 3.67 5.54.94 9.23-10.74 14.59-23.58 26.77-39.46 35.65-5.19 2.91-8.88 2.54-13.25-2.68-20.29-24.21-41.17-47.94-62.29-72.37M167.4 378.78c-3-1.76-5.5-2.92-7.66-4.49-10.25-7.4-20.31-15.07-30.64-22.34-5.43-3.83-6.06-7.41-2-12.9q31-41.71 61.41-83.82c3.29-4.55 6.36-4.41 10.3-1.5 11.5 8.48 22.94 17 34.57 25.34 4.56 3.25 4.18 6.62 1.36 10.45q-31.24 42.53-62.58 85c-1.16 1.58-3 2.68-4.78 4.26M266.9 295.91c-7.52-8.72-24.56-28.06-32.29-37.05L284 216.12c7.46 8.57 23.47 26.41 31.42 35.55-16.62 14.38-31.9 29.89-48.49 44.24" class="cls-4"/><path d="M338.76 118.42a6 6 0 0 0-.3-.81 17 17 0 0 0-1.32-2.54 22.5 22.5 0 0 0-12.58-9.19 16 16 0 0 0-2.82-.51 7 7 0 0 0-.86 0h-.31s0 .1.1.29a8 8 0 0 0 .3.81 18 18 0 0 0 1.33 2.53 20.8 20.8 0 0 0 3.49 4.06l-4.1 5.54a35 35 0 0 0-6.1-3.3 26 26 0 0 0-3.46-1.16 14 14 0 0 0-1.43-.29 14 14 0 0 0 .61 1.32 25 25 0 0 0 1.89 3.11 36.8 36.8 0 0 0 4.74 5.36l-5.16 7a58 58 0 0 0-8.57-5.17 38 38 0 0 0-4.15-1.69 17 17 0 0 0-1.69-.52s.29.6.88 1.54a35 35 0 0 0 2.58 3.67 58.6 58.6 0 0 0 7.11 7.34l-3 4a101 101 0 0 0-12.79-8.19c-2.13-1.11-4-1.95-5.27-2.49s-2.12-.81-2.12-.81.45.7 1.32 1.84 2.13 2.7 3.73 4.49A102 102 0 0 0 302 145.06l-3.85 5.2a59 59 0 0 0-10-6.25 36 36 0 0 0-4.15-1.7 17 17 0 0 0-1.69-.5s.29.58.87 1.52a36 36 0 0 0 2.59 3.66 59 59 0 0 0 8.51 8.55l-4.14 5.59a36.5 36.5 0 0 0-6.54-3.58 25.5 25.5 0 0 0-3.45-1.15 11 11 0 0 0-1.43-.29 14 14 0 0 0 .61 1.31 26 26 0 0 0 1.89 3.12 36.6 36.6 0 0 0 5.11 5.72l-70.73 95.47 4 2.95 70.62-95.3a36.5 36.5 0 0 0 7.24 4.08 27 27 0 0 0 3.47 1.16c.87.21 1.42.28 1.42.28a12 12 0 0 0-.61-1.32 23 23 0 0 0-1.89-3.11 36.3 36.3 0 0 0-5.78-6.3l4.18-5.62a55 55 0 0 0 8 4.75 37 37 0 0 0 4.16 1.7c1 .36 1.69.51 1.69.51s-.29-.6-.87-1.54a37 37 0 0 0-2.59-3.67 56 56 0 0 0-6.59-6.89l3.94-5.32a100 100 0 0 0 12.19 7.75c2.13 1.11 4 1.95 5.28 2.5s2.1.8 2.1.8-.44-.71-1.3-1.85-2.12-2.7-3.74-4.48a99 99 0 0 0-10.64-10l2.95-4a58 58 0 0 0 9.48 5.84 38 38 0 0 0 4.15 1.69 16 16 0 0 0 1.69.51 15 15 0 0 0-.87-1.53 36 36 0 0 0-2.58-3.68 58 58 0 0 0-8-8.08l5.07-6.84a37 37 0 0 0 7.66 4.4 23.4 23.4 0 0 0 3.46 1.13 11 11 0 0 0 1.42.29 13 13 0 0 0-.61-1.31 23 23 0 0 0-1.89-3.12 37.3 37.3 0 0 0-6.17-6.62l4.13-5.56a20.8 20.8 0 0 0 5.11 2.19 18 18 0 0 0 2.81.5 5.5 5.5 0 0 0 .86 0h.32l-.11-.29"/><path d="M237.97 250.19 275 219.22l-79.14-93.19-15.2 56.51z" class="cls-3"/></svg>