<svg xmlns="http://www.w3.org/2000/svg" id="Capa_1" data-name="Capa 1" viewBox="0 0 512 512"><defs><style>.cls-3{fill:#fff}.cls-3,.cls-4{fill-rule:evenodd}</style></defs><path d="M85.04 85.04h341.92v341.92H85.04z" style="fill:#e83876" transform="rotate(-45 256 256.002)"/><path d="M256 0 0 256l256 256 256-256Zm0 14.22L497.78 256 256 497.78 14.22 256Z" style="fill:#dd0162"/><path d="M294.2 158.44s23.6-24 43.71-22.06 5.18 66 5.18 66-40.15-36.42-48.89-43.91" class="cls-3"/><path d="M343.09 308.82c-17 20-29 43.16-51.48 46.74-5.36-75.56-43.08-116.43-74.23-186.36 15.46 0 11.47-9.67 25.7-9.41 1.74 0 9-3.19 10.84-3.25 94.9-3.2 85.43 76.36 89.17 152.28" class="cls-3"/><path d="M272 337.36c-4.53-.52-7-3.13-7.06-7.63a89 89 0 0 1 .06-9 6.6 6.6 0 0 1 1.59-3.69c3.39-3.65 7-7.08 10.48-10.67a7.53 7.53 0 0 0 1.77-8.52c-3-8.18-11.05-14.29-19.63-14.64-10-.41-18.53 4.65-22.26 13.17-2.14 4.89-1.7 7.15 2.13 11a48 48 0 0 0 4.74 4.65c5.19 3.92 7.16 8.8 6.58 15.41-.62 7-1.4 8.63-8.27 10-3.92.77-6.73 4.13-6.47 7.69.3 4.07 3.49 6.77 7.95 6.81 5.24 0 9.67-2 13.87-5.29 6.55 4.27 10 5.45 14.87 5.3a6.75 6.75 0 0 0 6.19-3.78c2.65-5.1-.39-10.1-6.54-10.83m-14.5-32.27c-1.71-1.82-3.39-3.59-5.12-5.45 3.44-2.43 6.78-2.36 10.5.11zM268.78 227.15c5.16 2.72 10.59-.7 10.72-7 .17-7.9 3.39-14.3 8.81-19.78a55 55 0 0 0 3.92-4c1.95-2.42 2.83-5.33.88-8-1.46-2-3.76-3.28-5.83-5-2.4 1.34-4.36 2-5.73 3.27a80 80 0 0 0-7.72 8.22 39.37 39.37 0 0 0-8.95 25.47 7.11 7.11 0 0 0 3.9 6.81M232.78 185.88c-3.61-3.4-9.32-1.49-11.16 3.15-1.46 3.69.1 6.45 2.72 8.84 6.79 6.22 11.2 13.46 11.45 23.06.06 2.09 1.94 4.87 3.8 6 5.38 3.41 10.79-.87 10.61-8.05-.38-14.47-7.53-23.68-17.42-33" class="cls-4"/><path d="M233.93 318.18c-1.76-2.26-3.67-4.43-5.35-6.76-4.87-6.8-11.54-10.09-19.8-10.36a25 25 0 0 0-3 0 7.38 7.38 0 0 0-6.65 7.11c-.06 3.73 2.9 7.27 6.78 7.21 5.85-.09 9.88 2.38 12.84 7.25a29 29 0 0 0 4.47 5.33 7.13 7.13 0 0 0 10.16.15 7.32 7.32 0 0 0 .54-9.94M309.27 301.06c-7.95-.3-15.22 1.54-20.68 7.83-2.67 3.09-5.2 6.33-7.66 9.6-1.83 2.43-2.18 5.37-.46 7.78 1.33 1.88 3.63 3.07 5.63 4.66 2.43-1.25 4.41-1.84 5.81-3.06a26 26 0 0 0 4.66-5.59c2.92-4.59 6.75-7 12.37-6.84a7.14 7.14 0 0 0 7.06-7 7.31 7.31 0 0 0-6.73-7.39" class="cls-4"/><path d="m352.32 205.69.07.05v-68.58a17.4 17.4 0 0 0-.48-4.64c-.49-6.43-10-8.57-29.51-4.17l-1.38.34h-.26c-.89.26-1.75.56-2.61.87-16.86 5.65-26.38 20.44-26.38 20.44l-.94 1.05c-.55.66-2.33.85-3.32.53a96.3 96.3 0 0 0-45.93-3.37 117 117 0 0 0-13.83 3.47c-1.73.51-2.69.46-3.94-1a51.58 51.58 0 0 0-26.55-16.94c-9.67.26-19.94-3-29.34 0-1.12.36-2.22.77-3.32 1.23-1.65 2-1.89 4.54-1.88 7.23.1 43.92-.31 87.84.26 131.76.55 44.81 29.82 85.53 71.75 101.16 5.17 1.92 10.48 3.4 15.56 4.92a3.1 3.1 0 0 1 1.44.42l2.17.65h-1.41l.23.33a27 27 0 0 1 3.18.36 2.83 2.83 0 0 1 1.73 1.13 10.94 10.94 0 0 0 4.59-1.84h-.09l.19-.06.34-.22a3 3 0 0 1 2-.56c6.54-2.09 13.78-4.09 20.56-7.13 30.81-13.79 51.39-37 62-69 4.92-14.89 5.2-30.23 5.14-45.68q-.12-26.37-.07-52.73m-13.54-20.07c-8.28-13.6-18.34-24-31-31.83 7-9.07 19.26-13.6 31-11.63Zm-161.2-38.39c12.77-2 26.14 2.55 33.82 11.63a97.56 97.56 0 0 0-33.82 31.84Zm158.34 140.47c-5.44 32.72-24.06 56.36-53.87 70.82-6.62 3.21-13.89 5.16-21 7.15a16.9 16.9 0 0 1-8.44-.26c-38.5-10.24-62.88-34.7-72.87-73.27-2.84-10.94-2.46-22.23-2.41-33.43v-13.47c1.27 1.54 2 2.41 2.69 3.28 13.29 16.34 30.2 26.42 51.12 29.54a98 98 0 0 0 11.22 1c4.68.14 7.79-2.89 7.88-7.56.12-5.2.2-10.43 0-15.63a21.5 21.5 0 0 0-21-20.45q-22.12-.25-44.24.06c-2.38 0-4.72 1.66-6.92 2.48-1.87-11.57 6.58-38.54 25.15-55.23C228.47 160 263.43 155 293.46 170c29.7 14.8 44.35 45.29 43.93 69.93-2.31-3.91-5.26-4.51-8.67-4.5-14.08.08-28.17 0-42.25 0a21.6 21.6 0 0 0-21.58 21.27c-.09 4.33 0 8.66 0 13 0 7.19 2.73 9.84 10 9.42 25-1.41 45.33-11.82 60.95-31.4.41-.51.79-1 1.31-1.69.27.46.56.71.55.95-.49 13.6.42 27.43-1.8 40.75m-133.3-37.49c1.37-.07 2.39-.18 3.4-.18h21.59c5.35 0 7.86 2.56 8 8v5.91c-11.42-1-25.23-6.72-33-13.72m110 .2A64.9 64.9 0 0 1 279.9 264a3.5 3.5 0 0 1-.28-.66c-.59-10.33.27-13.89 12.54-13.34 6.39.28 12.81.08 19.23.1a6.6 6.6 0 0 1 1.21.34" class="cls-4"/></svg>