<svg xmlns="http://www.w3.org/2000/svg" id="Capa_1" data-name="Capa 1" viewBox="0 0 512 512"><defs><style>.cls-4{fill:#f9e927}.cls-5{fill:none;stroke:#1e1e1c;stroke-miterlimit:10}.cls-6{fill:#362782}.cls-7{fill:#e41f1a}</style></defs><path d="M85.04 85.04h341.92v341.92H85.04z" style="fill:#ded300" transform="rotate(-45 256 256.002)"/><path d="M256 0 0 256l256 256 256-256Zm0 14.22L497.78 256 256 497.78 14.22 256Z" style="fill:#b9870f"/><path d="m125.29 176.25 134.32-70.18 136.27 71.4v159.44l-132.69 69.02-137.9-73.5z" style="fill:#1c1514"/><path d="m339.23 155.83-35.53-18.54-31.92 16.29 35.91 18.44z" class="cls-4"/><path d="m339.23 155.83-35.53-18.54-31.92 16.29 35.91 18.44z" class="cls-5"/><path d="m299.15 176.41-35.94-18.46-35.46 18.1 36.04 18.51z" class="cls-4"/><path d="m299.15 176.41-35.94-18.46-35.46 18.1 36.04 18.51z" class="cls-5"/><path d="m219.19 217.47 36.06-18.52-36.07-18.53L183 198.88z" class="cls-4"/><path d="m219.19 217.47 36.06-18.52-36.07-18.53L183 198.88z" class="cls-5"/><path d="M223.25 137.42 188 155.63l31.19 16.03 35.46-18.11z" class="cls-4"/><path d="M223.25 137.42 188 155.63l31.19 16.03 35.46-18.11z" class="cls-5"/><path d="m343.35 199.11-35.66-18.31-35.36 18.15 35.85 18.41z" class="cls-4"/><path d="m343.35 199.11-35.66-18.31-35.36 18.15 35.85 18.41z" class="cls-5"/><path d="m210.62 176.02-31.15-15.99-35.96 18.56 30.93 15.89z" class="cls-4"/><path d="m210.62 176.02-31.15-15.99-35.96 18.56 30.93 15.89z" class="cls-5"/><path d="m263.8 203.34-36.06 18.52 36.08 18.53 35.87-18.62z" class="cls-4"/><path d="m263.8 203.34-36.06 18.52 36.08 18.53 35.87-18.62z" class="cls-5"/><path d="m263.22 149.18 31.98-16.33-31.39-16.37-32.04 16.54z" class="cls-4"/><path d="m263.22 149.18 31.98-16.33-31.39-16.37-32.04 16.54z" class="cls-5"/><path d="m347.71 160.25-31.47 16.16 35.61 18.29 31.02-16.11z" class="cls-4"/><path d="m347.71 160.25-31.47 16.16 35.61 18.29 31.02-16.11z" class="cls-5"/><path d="m171.39 253.11-32.76-16.89v41.64l32.82 16.9z" class="cls-6"/><path d="m171.39 253.11-32.76-16.89v41.64l32.82 16.9z" class="cls-5"/><path d="m179.14 205.79.05 42.55 32.9 16.95v-42.66z" class="cls-6"/><path d="m179.14 205.79.05 42.55 32.9 16.95v-42.66z" class="cls-5"/><path d="M212.09 365.85v-41.37l-32.82-16.91.05 41.63z" class="cls-6"/><path d="M212.09 365.85v-41.37l-32.82-16.91.05 41.63z" class="cls-5"/><path d="m179.2 257.13.05 41.66 32.84 16.91v-41.63z" class="cls-6"/><path d="m179.2 257.13.05 41.66 32.84 16.91v-41.63z" class="cls-5"/><path d="m259.62 298.55-39.72-20.46v41.63l39.72 20.46z" class="cls-6"/><path d="m259.62 298.55-39.72-20.46v41.63l39.72 20.46z" class="cls-5"/><path d="m171.45 303.55-32.82-16.91v41.89l32.88 16.7z" class="cls-6"/><path d="m171.45 303.55-32.82-16.91v41.89l32.88 16.7z" class="cls-5"/><path d="m219.89 269.31 39.72 20.46V246.9l-39.72-20.29z" class="cls-6"/><path d="m219.89 269.31 39.72 20.46V246.9l-39.72-20.29z" class="cls-5"/><path d="M219.89 328.5v41.31L259.61 390v-41.04z" class="cls-6"/><path d="M219.89 328.5v41.31L259.61 390v-41.04z" class="cls-5"/><path d="m171.38 244.32-.05-42.52-32.7-16.7v42.34z" class="cls-6"/><path d="m171.38 244.32-.05-42.52-32.7-16.7v42.34z" class="cls-5"/><path d="M347.75 349.72v-42.59l-33.82 17.22v42.33z" class="cls-7"/><path d="M347.75 349.72v-42.59l-33.82 17.22v42.33z" class="cls-5"/><path d="M313.93 222.88v41.67l33.82-17.22v-41.69z" class="cls-7"/><path d="M313.93 222.88v41.67l33.82-17.22v-41.69z" class="cls-5"/><path d="m388.07 235.55-32.51 16.56v42.29l32.51-16.56z" class="cls-7"/><path d="m388.07 235.55-32.51 16.56v42.29l32.51-16.56z" class="cls-5"/><path d="m306.12 277.29-38.71 19.7v42.29l38.71-19.71z" class="cls-7"/><path d="m306.12 277.29-38.71 19.7v42.29l38.71-19.71z" class="cls-5"/><path d="m347.75 256.09-33.82 17.22v42.28l33.82-17.22z" class="cls-7"/><path d="m347.75 256.09-33.82 17.22v42.28l33.82-17.22z" class="cls-5"/><path d="m355.56 243.35 32.51-16.56V185.1l-32.51 16.57z" class="cls-7"/><path d="m355.56 243.35 32.51-16.56V185.1l-32.51 16.57z" class="cls-5"/><path d="m306.12 328.33-38.59 19.65-.12-.23V390l38.71-19.41z" class="cls-7"/><path d="m306.12 328.33-38.59 19.65-.12-.23V390l38.71-19.41z" class="cls-5"/><path d="M355.56 303.16v42.64l32.51-16.3v-42.9z" class="cls-7"/><path d="M355.56 303.16v42.64l32.51-16.3v-42.9z" class="cls-5"/><path d="M306.12 268.52v-41.66l-38.71 19.71v41.66z" class="cls-7"/><path d="M306.12 268.52v-41.66l-38.71 19.71v41.66z" class="cls-5"/></svg>