<svg id="Capa_1" data-name="Capa 1" xmlns="http://www.w3.org/2000/svg" viewBox="0 0 512 512"><defs><style>.cls-1{fill:#ded300;}.cls-2{fill:#b9870f;}.cls-3{fill:#1c1514;}.cls-4{fill:#f9e927;}.cls-5{fill:none;stroke:#1e1e1c;stroke-miterlimit:10;}.cls-6{fill:#362782;}.cls-7{fill:#e41f1a;}</style></defs><rect class="cls-1" x="85.04" y="85.04" width="341.92" height="341.92" transform="translate(-106.04 256) rotate(-45)"/><path class="cls-2" d="M256,0,0,256,256,512,512,256Zm0,14.22L497.78,256,256,497.78,14.22,256Z"/><polygon class="cls-3" points="125.29 176.25 259.61 106.07 395.88 177.47 395.88 336.91 263.19 405.93 125.29 332.43 125.29 176.25"/><polygon class="cls-4" points="339.23 155.83 303.7 137.29 271.78 153.58 307.69 172.02 339.23 155.83"/><polygon class="cls-5" points="339.23 155.83 303.7 137.29 271.78 153.58 307.69 172.02 339.23 155.83"/><polygon class="cls-4" points="299.15 176.41 263.21 157.95 227.75 176.05 263.79 194.56 299.15 176.41"/><polygon class="cls-5" points="299.15 176.41 263.21 157.95 227.75 176.05 263.79 194.56 299.15 176.41"/><polygon class="cls-4" points="219.19 217.47 255.25 198.95 219.18 180.42 183 198.88 219.19 217.47"/><polygon class="cls-5" points="219.19 217.47 255.25 198.95 219.18 180.42 183 198.88 219.19 217.47"/><polygon class="cls-4" points="223.25 137.42 188 155.63 219.19 171.66 254.65 153.55 223.25 137.42"/><polygon class="cls-5" points="223.25 137.42 188 155.63 219.19 171.66 254.65 153.55 223.25 137.42"/><polygon class="cls-4" points="343.35 199.11 307.69 180.8 272.33 198.95 308.18 217.36 343.35 199.11"/><polygon class="cls-5" points="343.35 199.11 307.69 180.8 272.33 198.95 308.18 217.36 343.35 199.11"/><polygon class="cls-4" points="210.62 176.02 179.47 160.03 143.51 178.59 174.44 194.48 210.62 176.02"/><polygon class="cls-5" points="210.62 176.02 179.47 160.03 143.51 178.59 174.44 194.48 210.62 176.02"/><polygon class="cls-4" points="263.8 203.34 227.74 221.86 263.82 240.39 299.69 221.77 263.8 203.34"/><polygon class="cls-5" points="263.8 203.34 227.74 221.86 263.82 240.39 299.69 221.77 263.8 203.34"/><polygon class="cls-4" points="263.22 149.18 295.2 132.85 263.81 116.48 231.77 133.02 263.22 149.18"/><polygon class="cls-5" points="263.22 149.18 295.2 132.85 263.81 116.48 231.77 133.02 263.22 149.18"/><polygon class="cls-4" points="347.71 160.25 316.24 176.41 351.85 194.7 382.87 178.59 347.71 160.25"/><polygon class="cls-5" points="347.71 160.25 316.24 176.41 351.85 194.7 382.87 178.59 347.71 160.25"/><polygon class="cls-6" points="171.39 253.11 138.63 236.22 138.63 277.86 171.45 294.76 171.39 253.11"/><polygon class="cls-5" points="171.39 253.11 138.63 236.22 138.63 277.86 171.45 294.76 171.39 253.11"/><polygon class="cls-6" points="179.14 205.79 179.19 248.34 212.09 265.29 212.09 222.63 179.14 205.79"/><polygon class="cls-5" points="179.14 205.79 179.19 248.34 212.09 265.29 212.09 222.63 179.14 205.79"/><polygon class="cls-6" points="212.09 365.85 212.09 324.48 179.27 307.57 179.32 349.2 212.09 365.85"/><polygon class="cls-5" points="212.09 365.85 212.09 324.48 179.27 307.57 179.32 349.2 212.09 365.85"/><polygon class="cls-6" points="179.2 257.13 179.25 298.79 212.09 315.7 212.09 274.07 179.2 257.13"/><polygon class="cls-5" points="179.2 257.13 179.25 298.79 212.09 315.7 212.09 274.07 179.2 257.13"/><polygon class="cls-6" points="259.62 298.55 219.9 278.09 219.9 319.72 259.62 340.18 259.62 298.55"/><polygon class="cls-5" points="259.62 298.55 219.9 278.09 219.9 319.72 259.62 340.18 259.62 298.55"/><polygon class="cls-6" points="171.45 303.55 138.63 286.64 138.63 328.53 171.51 345.23 171.45 303.55"/><polygon class="cls-5" points="171.45 303.55 138.63 286.64 138.63 328.53 171.51 345.23 171.45 303.55"/><polygon class="cls-6" points="219.89 269.31 259.61 289.77 259.61 246.9 219.89 226.61 219.89 269.31"/><polygon class="cls-5" points="219.89 269.31 259.61 289.77 259.61 246.9 219.89 226.61 219.89 269.31"/><polygon class="cls-6" points="219.89 328.5 219.89 369.81 259.61 390 259.61 348.96 219.89 328.5"/><polygon class="cls-5" points="219.89 328.5 219.89 369.81 259.61 390 259.61 348.96 219.89 328.5"/><polygon class="cls-6" points="171.38 244.32 171.33 201.8 138.63 185.1 138.63 227.44 171.38 244.32"/><polygon class="cls-5" points="171.38 244.32 171.33 201.8 138.63 185.1 138.63 227.44 171.38 244.32"/><polygon class="cls-7" points="347.75 349.72 347.75 307.13 313.93 324.35 313.93 366.68 347.75 349.72"/><polygon class="cls-5" points="347.75 349.72 347.75 307.13 313.93 324.35 313.93 366.68 347.75 349.72"/><polygon class="cls-7" points="313.93 222.88 313.93 264.55 347.75 247.33 347.75 205.64 313.93 222.88"/><polygon class="cls-5" points="313.93 222.88 313.93 264.55 347.75 247.33 347.75 205.64 313.93 222.88"/><polygon class="cls-7" points="388.07 235.55 355.56 252.11 355.56 294.4 388.07 277.84 388.07 235.55"/><polygon class="cls-5" points="388.07 235.55 355.56 252.11 355.56 294.4 388.07 277.84 388.07 235.55"/><polygon class="cls-7" points="306.12 277.29 267.41 296.99 267.41 339.28 306.12 319.57 306.12 277.29"/><polygon class="cls-5" points="306.12 277.29 267.41 296.99 267.41 339.28 306.12 319.57 306.12 277.29"/><polygon class="cls-7" points="347.75 256.09 313.93 273.31 313.93 315.59 347.75 298.37 347.75 256.09"/><polygon class="cls-5" points="347.75 256.09 313.93 273.31 313.93 315.59 347.75 298.37 347.75 256.09"/><polygon class="cls-7" points="355.56 243.35 388.07 226.79 388.07 185.1 355.56 201.67 355.56 243.35"/><polygon class="cls-5" points="355.56 243.35 388.07 226.79 388.07 185.1 355.56 201.67 355.56 243.35"/><polygon class="cls-7" points="306.12 328.33 267.53 347.98 267.41 347.75 267.41 390 306.12 370.59 306.12 328.33"/><polygon class="cls-5" points="306.12 328.33 267.53 347.98 267.41 347.75 267.41 390 306.12 370.59 306.12 328.33"/><polygon class="cls-7" points="355.56 303.16 355.56 345.8 388.07 329.5 388.07 286.6 355.56 303.16"/><polygon class="cls-5" points="355.56 303.16 355.56 345.8 388.07 329.5 388.07 286.6 355.56 303.16"/><polygon class="cls-7" points="306.12 268.52 306.12 226.86 267.41 246.57 267.41 288.23 306.12 268.52"/><polygon class="cls-5" points="306.12 268.52 306.12 226.86 267.41 246.57 267.41 288.23 306.12 268.52"/></svg>