<svg xmlns="http://www.w3.org/2000/svg" id="Capa_1" data-name="Capa 1" viewBox="0 0 512 512"><defs><style>.cls-3{fill:#fff}</style></defs><path d="M85.04 85.04h341.92v341.92H85.04z" style="fill:#7dba32" transform="rotate(-45 256 256.002)"/><path d="M256 0 0 256l256 256 256-256Zm0 14.22L497.78 256 256 497.78 14.22 256Z" style="fill:#13a646"/><path d="m218.83 460.05 3.6-152.65s-1.57-4.7 6.27-14.11 12.56-24.58 12.56-24.58 19.34-9.42 13.59-29.29-25.1-13.59-25.1-13.59 1.93-8.42-3.66-14.12c-12.55-9.41-27.2-.53-27.2-.53s-4.71-3.66-16.2-5.23-18.83 14.64-18.83 14.64l-6.28 3.15s-16.73 1-19.87 20.39 15.68 25.11 15.68 25.11l1.61 10.45c1.57 10.46 16.21 25.62 16.21 25.62l-15.46 93Z"/><path d="M177.91 261.13s-13.52 15.68-6.27 23.14 25 0 25 0 19.9 7.65 25.78 1.37-.78-28.23-17.84-31.37-20.6 2.54-26.68 6.86M167.34 241.18c5 3.85 7.13 9.56 4.69 12.74s-8.49 2.64-13.52-1.21-7.13-9.57-4.69-12.75 8.49-2.63 13.52 1.22M192 231.71c.72 6.29-1.94 11.77-5.92 12.22s-7.79-4.29-8.49-10.6 1.93-11.76 5.92-12.21 7.79 4.3 8.49 10.59M217.78 234.64c-2.16 6-7 9.67-10.74 8.31s-5.06-7.31-2.9-13.27 7-9.67 10.74-8.3 5.07 7.3 2.9 13.26M238.61 251.35c-3.84 5-9.55 7.13-12.73 4.69s-2.64-8.49 1.22-13.51 9.55-7.13 12.73-4.7 2.64 8.49-1.22 13.52" class="cls-3"/><path d="m364.54 390.13-23.87-118s-1.92-5.77 7.69-17.31 15.38-30.14 15.38-30.14 23.73-11.54 16.68-35.9-30.78-16.66-30.78-16.66 2.38-10.32-4.48-17.32c-15.39-11.54-33.34-.64-33.34-.64s-5.77-4.49-19.87-6.42-23.09 18-23.09 18l-7.69 3.84s-20.52 1.29-24.36 25S256 225.34 256 225.34l2 12.83c1.93 12.82 19.87 31.42 19.87 31.42L267.71 489Z"/><path d="M286.09 215.4s-16.59 19.24-7.69 28.38 30.65 0 30.65 0 24.4 9.36 31.62 1.67-1-34.61-21.87-38.46-25.25 3.12-32.71 8.41M273.13 191c6.16 4.73 8.75 11.72 5.75 15.62s-10.41 3.22-16.57-1.49-8.75-11.72-5.76-15.63 10.41-3.22 16.58 1.5M303.38 179.33c.88 7.72-2.38 14.43-7.26 15s-9.54-5.26-10.42-13 2.39-14.43 7.27-15 9.55 5.27 10.41 13M335 182.92c-2.65 7.3-8.54 11.86-13.16 10.19s-6.22-9-3.56-16.27 8.54-11.85 13.17-10.17 6.21 9 3.55 16.25M360.51 203.42c-4.71 6.17-11.71 8.75-15.61 5.76s-3.23-10.41 1.49-16.58 11.71-8.74 15.61-5.76 3.24 10.42-1.49 16.58" class="cls-3"/></svg>