<svg id="Capa_1" data-name="Capa 1" xmlns="http://www.w3.org/2000/svg" viewBox="0 0 512 512"><defs><style>.cls-1{fill:#e83876;}.cls-2{fill:#dd0162;}.cls-3{fill-rule:evenodd;}</style></defs><rect class="cls-1" x="85.04" y="85.04" width="341.92" height="341.92" transform="translate(-106.04 256) rotate(-45)"/><path class="cls-2" d="M256,0,0,256,256,512,512,256Zm0,14.22L497.78,256,256,497.78,14.22,256Z"/><path class="cls-3" d="M242.22,213.64c25.45.74,50.12.23,70.92,17.19,18.51-11.19,37.21-23,56.47-33.86,6.09-3.44,13.61-4.47,20.61-6,1.72-.39,3.93,1.36,5.93,2.12-.76,2-1,4.73-2.39,5.75-8.13,5.8-16.26,11.77-25,16.6-16.88,9.34-34.17,18-51.73,27.14.28,1.37.73,3.51,1.29,6.23,1.83-.46,3.41-.7,4.89-1.24,22.18-8,44.38-16,66.52-24.24,7.88-2.92,15.74-4.78,23.84-1.36,2.2.93,3.94,3,5.89,4.54-1.64,1.8-3,4.53-5,5.24-16.83,5.87-33.68,11.72-50.75,16.86-14.56,4.38-29.4,7.81-44.65,11.79-.11,1.93-.25,4.46-.34,6.16,28.88-2.44,57.58-4.62,86.21-7.44,8.29-.83,14.89,2.15,21.37,6.2,4,2.48,3.81,5-.84,6.44a81.54,81.54,0,0,1-18.55,3.43c-19.49,1.12-39,1.59-58.53,2.51-10.2.47-20.38,1.36-31.2,2.11-.36,1.23-.92,3.11-1.49,5.09,21.8,2.36,43.25,4.58,64.66,7a237.39,237.39,0,0,1,24.83,3.7c7.26,1.63,12.33,6.86,18.12,13.94-4.42.87-7.59,2.29-10.54,1.95-14.38-1.68-28.73-3.79-43.07-5.85-19.33-2.77-38.64-5.63-58.34-8.52-18.59,29.78-47.7,26.58-77.2,22.37-.23,3.45-.7,6-.57,8.57.88,16.9,1.74,33.81,2.84,50.69.59,8.83,3.25,12.5,12,13.34,11,1.06,22.24.52,33.35.8,10.59.27,21.29,0,31.72,1.4,5.31.72,10.46,4.25,15.13,7.34,3.29,2.18,2.45,5.41-1.29,6.72a27,27,0,0,1-9.78,1.83q-36.21-1.74-72.4-4c-9.66-.6-15.6-5.95-18.26-15.32-5.27-18.67-6.71-37.75-5.59-56.95.59-10.15.59-17.71-10.74-23.41-16.09-8.07-23-23.34-22.41-41.31.57-16.52,2.5-33,2.94-49.5a110,110,0,0,0-2.59-25.3c-1.43-6.8-6.51-11.42-13.74-12.14a96,96,0,0,0-18.33-.25A13.53,13.53,0,0,0,144,192.42c-3,10.69-7.3,21-3.16,32.69,4.44,12.58,12.2,20.22,25.5,21.58,4.48.45,7.88,1.43,7.37,6.71-.51,5.07-4.45,5.47-8.34,5.18-6.66-.51-13.32-1-19.91-2.07a12.66,12.66,0,0,1-10.74-9.41c-1.51-5.15-5.17-7.5-10.1-8.36-6.25-1.07-12.67-1.45-18.67-3.27a19.15,19.15,0,0,1-9.49-6.75c-5.69-8.13-11.1-8.81-17.83-1.25-1.43,1.61-2.83,3.25-5,5.81-.45-10.44,3.38-17.59,10.24-23.22,6.48-5.32,13.77-8.65,22.48-8.36,7.59.25,15.19.05,22.15.05,2.62-7.82,5-15,7.65-22.75-2.88-3.06-6.52-6.73-9.95-10.57-4.42-4.92-5.72-10.79-2.55-16.52,3.43-6.18,9.41-9.46,16.53-9.79,4.53-.22,6.4,3.34,7.65,7,2.2,6.46,4.2,13,7,19.38-.43-6.66-1.09-13.3-1.23-19.95-.18-8.74,3.69-11.76,12.23-10,12.9,2.67,12.94,2.67,11.57,15.93-.47,4.57-1.18,9.09-1,14a14.72,14.72,0,0,0,1.62-2.77c1.49-4.61,2.93-9.23,4.27-13.87,2.19-7.59,5.94-9.82,12.56-7.37,8.35,3.08,13.21,10.51,10.29,16.42s-8.21,11-9,17c-.79,5.73,3.41,12,4.38,18.18a129.08,129.08,0,0,1-.28,40.58c-2.94,18.65-2.06,36.74,9.56,52.86,4.77,6.63,11,11.14,18.93,12.87,16.66,3.63,33.47,5.69,50.24,1,13.25-3.69,21.4-13,24-26.11a93.67,93.67,0,0,0,1.11-26c-1-11.47-9.2-19-20.7-19.74-11.12-.72-22.34-1.48-33.4-.6-13.58,1.06-21.2,8.31-22.77,19.16-2.82,19.34,11,33.78,30.22,31.6,2.58-.29,5.17-.67,7.73-1.11,7.12-1.22,10.73-5.25,11.26-12.46.64-8.6-1.57-12.17-10-14a42.37,42.37,0,0,0-13.72-.32c-1.83.23-4.52,2.72-4.77,4.47-.29,2.09,1,5.11,2.68,6.63,5.06,4.69,9.38,4.24,15.85-.86,4.16,3.77,3.61,8.82-1.65,11.27a20.59,20.59,0,0,1-20.29-1.22c-6.73-4.17-9.25-10.85-7.7-18.34a13.86,13.86,0,0,1,5.91-8.2c11.79-6.89,24.33-6.49,36.37-.93,7.07,3.26,10.66,16.14,8.36,26.05-1.92,8.35-6.71,14.24-15,17.23-10.77,3.88-21.66,5.09-32.91,2.57-9.4-2.1-16.59-7.23-19.52-16.48-5.13-16.21-6.58-32.45,3-47.86.19-.32.33-.74.62-.93,8.22-5.23,6.64-13.34,6.36-21.21-.75-20.16.28-40.12,5.9-59.72,2.75-9.54,8.7-14.67,18.22-15.29,21.15-1.38,42.32-2.43,63.49-3.43a76.53,76.53,0,0,1,15,.52,11.24,11.24,0,0,1,6.52,4.27c.49.66-1.73,4.63-3.5,5.49-4.89,2.4-10.13,5.34-15.34,5.55-17.07.72-34.18.32-51.27.34-20,0-24,4.15-24.66,24.19-.4,13-1.27,26-1.89,39-.11,2.35,0,4.73,0,6.73m-151.47.66c3.5,2.23,7.38,3.29,8.53,5.68,5.14,10.66,14.59,10.88,24.12,10.68,1.95,0,5.22-2.44,5.52-4.16a56.26,56.26,0,0,0,.3-14.84c-.1-1.14-3.21-2.9-4.87-2.84-7.94.33-15.92.91-23.78,2-3.45.47-6.72,2.36-9.82,3.5m51.48-40,5.11-3.28c-1.79-5.62-3.1-10.68-5.1-15.45-.7-1.66-3.61-3.92-4.74-3.55a19.55,19.55,0,0,0-7.6,5.14c-.57.59.74,3.67,1.85,5.08,3.2,4,6.74,7.81,10.48,12.06m49.82-.62c1.45-4.2,3.35-7.93,3.87-11.87.28-2.1-1.27-5.29-3-6.55-1-.7-5,1-6,2.62-2.25,3.44-3.48,7.57-5.24,11.63l10.43,4.17m-23-6c.42-5.2,1-9.78,1.14-14.38.09-3.21-1.74-5.8-5-5-1.81.47-4.15,3.14-4.29,5-.34,4.69.39,9.46.72,14.39Z"/><path class="cls-3" d="M273.32,371.24c7.8,0,15.73-.86,23.37.27,5.95.87,11.68,3.95,17.21,6.63,1.52.74,2,3.64,2.91,5.56-1.92.82-3.82,2.33-5.73,2.34-4.62,0-9.22-.84-13.86-1-16.7-.65-33.39-1.14-50.09-1.76-2.48-.09-6,1.6-6.31-3-.25-4,3.71-9.32,6.87-9.34,8.55-.06,17.08,0,25.63,0Z"/><path class="cls-3" d="M282,166.09c-7.81,0-15.61,0-23.42,0-5.45,0-8.22-2.64-8.87-8.24-.37-3.12,1-3.86,3.77-4,21.51-.87,43-1.91,64.52-2.62,2.46-.08,5,1.59,7.48,2.45-1.34,2.29-2.13,5.68-4.1,6.65-5,2.48-10.49,4.82-16,5.47-7.7.91-15.58.24-23.39.24"/><path class="cls-3" d="M268.86,350.94c6.31,0,12.63.07,18.93,0,6.6-.08,11.89,2.71,16.08,7.48,1.17,1.33,2.15,4,1.55,5.36s-3.39,2.12-5.12,2c-9.06-.63-18.08-1.94-27.14-2.41-8.7-.46-17.44-.12-26.16-.32-2.44-.07-6.12,1.45-6.15-3.28-.06-4.91,3.49-9.06,7.42-9,6.86.07,13.73,0,20.59,0Z"/><path class="cls-3" d="M250.13,174.94a9.88,9.88,0,0,1,2-.48q27.25-1.52,54.54-3a21.9,21.9,0,0,1,3.34,0c4.72.43,6.5,3.52,3.12,6.48-4,3.5-9.1,7.49-14,7.87-14.43,1.12-29,.61-43.49.63-4.08,0-6.34-4.76-5.55-11.53"/><path class="cls-3" d="M294.21,210.14c-13.13-1.17-26.26-2.27-39.37-3.55-3.32-.32-5.7-5.24-5.07-9.72s3.9-2.3,6.06-2.23c15.19.5,30.39,1,45.56,1.86,2.82.17,5.54,1.91,8.32,2.92-1.57,2.36-2.67,5.38-4.82,6.93-3,2.18-6.87,3.26-10.36,4.79-.11-.32-.21-.65-.32-1"/><path class="cls-3" d="M282.63,339.82c-11.8,1-23.6,2-35.42,2.9-2.3.17-6.22,1.9-5.79-2.37.33-3.4,2.46-9.17,4.4-9.44a348.16,348.16,0,0,1,41.53-3.46c3.93-.07,8.08,3.76,11.79,6.28,1.13.78,2,3.59,1.45,4.76s-2.92,2.3-4.55,2.42c-4.43.33-8.88.11-13.33.11,0-.4,0-.8-.08-1.2"/><path class="cls-3" d="M152.14,209.73c-.07-7.65,7.38-14.41,16-14.51,5.95-.07,13.3,6.66,13.25,12.14C181.3,216,173.23,225.84,166,226c-7.8.18-13.81-6.85-13.89-16.27"/></svg>