<svg id="Capa_1" data-name="Capa 1" xmlns="http://www.w3.org/2000/svg" viewBox="0 0 512 512"><defs><style>.cls-1{fill:#e83876;}.cls-2{fill:#dd0162;}.cls-3{fill:#1b1b1b;}</style></defs><rect class="cls-1" x="85.04" y="85.04" width="341.92" height="341.92" transform="translate(-106.04 256) rotate(-45)"/><path class="cls-2" d="M256,0,0,256,256,512,512,256Zm0,14.22L497.78,256,256,497.78,14.22,256Z"/><path class="cls-3" d="M439.49,237.16c-5,13.17-12.9,24.5-22,35.1-7,8.15-14.42,16-20.11,25.23-4.28,7-8.46,13.9-11.23,21.68A109.1,109.1,0,0,1,379.74,334c-8.31,15.1-19.69,27.42-33.27,37.77-24.4,18.54-51.56,30.45-82.27,33.37a120.73,120.73,0,0,1-53.59-6.79c-23.61-8.67-43-23.19-59.18-42.25-7.83-9.3-15.2-19.07-19.85-30.4-5.12-12.33-12.69-22.93-21.41-32.8-6.17-7-13-13.43-19-20.64-8.1-9.76-15.2-20-19.64-32A64.33,64.33,0,0,1,67.7,222a1.93,1.93,0,0,1,.42.21,3.74,3.74,0,0,1,.31,1c1.47,7.21,3.24,14.31,6.43,21,5.64,11.91,13.27,22.15,24.39,29.41,9.56,6.21,19.8,8.41,30.87,4.65,8.15-2.82,14.42-8.26,19.9-14.68,2.3-2.72,3.61-6,5.8-8.72a8.3,8.3,0,0,1,4.28-3c.94-.32,2.09-.42,2.3.73.16,1-1,1.25-1.72,1.2-2.82-.11-4.23,1.72-5.28,3.92-3.24,6.68-8.1,12.17-13.21,17.39a7.09,7.09,0,0,1-3.4,2.35c-1,.21-.89.78-.31,1.36a16,16,0,0,0,3.86,2.51,122.27,122.27,0,0,1,14.58,8.2c5.74,4,11.23,8.4,17.13,12.11,11.8,7.42,24.08,11.76,38.39,8.1A20,20,0,0,1,231,314.1c4,3.45,8.67,4.7,13.74,5.07a146.21,146.21,0,0,0,25.28-.31c6.37-.53,12.48-1.73,17.24-6.79a16.32,16.32,0,0,1,10.08-4.55,31.72,31.72,0,0,1,10.86.31,30.28,30.28,0,0,0,12.07.06,59.15,59.15,0,0,0,25.28-12.12c9.5-7.63,18.85-15.41,29.67-21.1a8.63,8.63,0,0,0,1.88-1.47c.52-.52.52-.94-.21-1.46a61.37,61.37,0,0,1-17.4-18.54c-1.3-2.25-2.66-4.34-5.79-4-.27,0-.58-.16-.89-.26-.47-.16-1-.37-.84-.94a1.12,1.12,0,0,1,1.1-.89,9.6,9.6,0,0,1,1.25.1,8.31,8.31,0,0,1,5.28,4.23,50.49,50.49,0,0,0,14.15,14.89,35.17,35.17,0,0,0,22.62,6.84,38.5,38.5,0,0,0,22-8.77c13.53-10.81,20.69-25.39,24-42.1.63-3.14.78-6.32,1.83-9.35a72.45,72.45,0,0,1-4.81,24.23ZM297.31,313.84a2.41,2.41,0,0,0,2.2-2.51c.05-1.09-1.46-2.09-2.67-2s-1.77.94-1.67,2.4.73,2.3,2.15,2.14Zm-77.14,1.93c1.51,0,2-1.25,2-2.61a1.84,1.84,0,0,0-2.09-2c-1.3.05-2.14.78-2.14,1.72,0,2,.79,2.87,2.25,2.87Z"/><path class="cls-3" d="M441.14,215.54c-2.46,9.25-7.37,16.66-15.62,21.68-3,1.77-6.43,2.35-9.72,3.34-4.23,1.2-8.46,2.51-12,5.38a1.89,1.89,0,0,1-2.66-.05c-3.92-2.88-8.31-2.46-12.69-1.52-1.57.32-2.41,1.78-3.35,3h0a9.56,9.56,0,0,1-2.87,3c-.47-1.31.42-2,.89-2.77.21-.42.63-.73.21-1.15s-.94,0-1.26.32a10.93,10.93,0,0,0-1.93,3.29,19.72,19.72,0,0,1-6.37,7.94,3.73,3.73,0,0,1-4.86.15,23.57,23.57,0,0,1-5.17-5.48,30.33,30.33,0,0,0-4.6-5.75,8.31,8.31,0,0,0-7.36-2.24c5.22.62,6.95,5.17,9.71,8.56a84.64,84.64,0,0,0,6.32,7.16c5.33,5.22,11.5,9.19,18.91,10.76,9.3,1.88,17.81-.26,25.7-5.23,10.6-6.73,17.76-16.29,23-27.47A75.75,75.75,0,0,0,442,213.61C441.24,214.18,441.35,214.91,441.14,215.54ZM400,249.7c1.41-1.2,2.4-.94,2.71.84a12.21,12.21,0,0,0,2.14,4.44l1.73,2.35c.26.36.78.88.47,1.3s-.89.26-1.36.11a28.35,28.35,0,0,1-5.64-2.62h0a3.49,3.49,0,0,1-1.57-3.13A4.55,4.55,0,0,1,400,249.7Zm-11.08,1.67a4.33,4.33,0,0,1,1.41-1.83c.53-.52,1.41-1.51,1.83-1,.63.73-.05,1.83-.89,2.46A2.3,2.3,0,0,1,388.9,251.37Zm8.1,17.29c-2.82,1.46-3.4,1.41-5.69-.57-.73-.63-1.62-1.31-1.31-2.46s1.41-1.31,2.3-1.57h0c2.61-.73,5.38-.47,8.2-.68-.21.84-.78.68-1.25.74a18.8,18.8,0,0,0-5.18,1.2c-.41.21-.94.31-.83.83a.85.85,0,0,0,1,.68c.89-.05,1.78-.1,2.72-.21,2.14-.15,4.23-.88,6.84-.57A57.12,57.12,0,0,0,397,268.66Zm14.63-4.39c-.21,1.15-1.21.79-2.09.94-1.41-.15-3-.15-3.76-1.67-.32-.63.05-1.2.62-1.57a3.85,3.85,0,0,1,4,.06,2.06,2.06,0,0,1,1.2,2.24ZM413,245.1c-1.47.63-1.68,1.57-1.1,2.88.05.05-.16.36-.26.36-1.83-.26-1.1,1.1-1.1,1.83a31.11,31.11,0,0,1-.21,5.85c-.05.58-.1,1.25-.63,1.46-.73.32-1.09-.36-1.51-.78a40.33,40.33,0,0,1-2.77-3.19c-.47-.57-1.2-1.2-.78-1.93s1.46-.73,2.35-.78a1.69,1.69,0,0,1,1.72,1.09c.32.63.47,1.41,1.46,1.47a3.56,3.56,0,0,0-.88-3.09c-.68-.88-1.62-1.61-2.41-2.5-.31-.32-.67-.68-.41-1.15a1,1,0,0,1,1.35-.21h0a11.44,11.44,0,0,1,2.25,1.2c.16-.57-.16-1-.21-1.46a2.08,2.08,0,0,1,1.62-2.35c.52-.21.94.1,1.31.47S413.24,245,413,245.1Zm5.22,10.24c-.47.89-1.15,2.3-2.09,1.88s-.05-1.72.36-2.56a24.54,24.54,0,0,0,2.41-6.89c.31-2.61-.84-4.6-3.35-5.23,1.05,2.62,3.35,4.91,1.15,8.05-.73-2.2-1.35-4.08-1.93-6-.26-.78-1.15-1.46-.36-2.35a3,3,0,0,1,2.92-.63,2.9,2.9,0,0,1,2.35,2.77A18.78,18.78,0,0,1,418.26,255.34Z"/><path class="cls-3" d="M155.58,250.38a17,17,0,0,0-4.7,5.12c-1.56,2.3-2.92,4.8-5,6.84-2.82,2.82-4.28,2.93-7.42.42a19.33,19.33,0,0,1-5.58-6.74,8.88,8.88,0,0,0-2.25-3.29c-.26-.26-.68-.58-1.1-.16s.05.68.21.94c.52.84,1.36,1.47,1.31,2.77a3.89,3.89,0,0,1-2.41-1.77c-2-2.83-4.49-4.5-8.09-4.13-3.14.31-6.32.16-8.83,2.56a1.77,1.77,0,0,1-2.51.31c-4.44-3.08-9.55-4.33-14.73-5.33-11-2-17.86-9.08-22.45-18.8h0A55.73,55.73,0,0,1,70,223.58a39,39,0,0,0,2.66,12.91c4.6,13.37,12,24.86,23.35,33.48,7.88,6,16.66,9.35,26.74,8.35,8.15-.83,14.78-4.65,20.63-10.08A71.33,71.33,0,0,0,153.6,255.5c.68-1,1.3-1.93,2-2.87a7.36,7.36,0,0,1,5.17-3.19A6.18,6.18,0,0,0,155.58,250.38ZM110.77,257c.1-.94,1-1,1.77-.63,2.67,1.2,3.24,5.23.95,6.9h0a21.43,21.43,0,0,1-6.79,3.24,1.26,1.26,0,0,1,.21-1.26C108.31,262.55,110.4,260.15,110.77,257Zm-13.06,8.15c-3.5-1.31-6.06-10.55-3.81-14.37a3.42,3.42,0,0,1,4.28-1c.52.31.89.78.63,1.36-1,2.24-1.2,4.86-2.14,7.36h0c-2.46-3-.26-5.48.62-8.15a4.62,4.62,0,0,0-3.08,5.38,22.07,22.07,0,0,0,2.56,6.43C97.29,263,98,263.91,97.71,265.11Zm1.57-8.36c0,1.52,0,3,.1,4.49A4.57,4.57,0,0,1,99.28,256.75Zm1.36-3.65c-1.26-.53-.58-1.1,0-1.52.89-.57,2.14.16,2.56,1.31.26.78-.52,1.35-.11,2.19a2.3,2.3,0,0,1,.58-.37c.83-.52,2-1.77,2.66-.88s-.73,1.77-1.41,2.56-1.93,1.41-1.51,2.87c.83.52,1.09-.16,1.56-.63a2.57,2.57,0,0,1,3.4-.15c1,.67,0,1.51-.47,2.14a41.42,41.42,0,0,1-2.72,3.44c-1.09,1.21-1.67.94-2-.78a6.88,6.88,0,0,1-.37-3.29h0c0-.21,0-.47,0-.68.78-2.25-1.83-3.6-1.47-5.74C101.37,253.41,101,253.2,100.64,253.1Zm4,19.53c-.89-.16-2.25.26-2.35-1.41-.06-1.41,1.61-2.77,3.34-2.82,1.51,0,2.87.89,2.92,2h0C108.63,271.64,107.06,272.58,104.61,272.63Zm14.93,3.76c-2.76-1.2-5.58-2.14-8.82-3.19a12.17,12.17,0,0,1,3.6-.05,38.81,38.81,0,0,0,5.54.42c.52,0,1-.21,1.09-.78s-.52-.63-.94-.73c-.94-.21-1.82-.37-2.71-.63h0c-1.1-.37-2.35.05-3.76-1.05,2.24-.05,4.07-.1,5.85-.1a8.87,8.87,0,0,1,2.4.31c1,.26,2.14.47,2.35,1.73C124.3,273.73,120.85,277,119.54,276.39ZM121,254.82a7.64,7.64,0,0,1,3.56,3C122,258.11,121,257.22,121,254.82Z"/></svg>