<svg xmlns="http://www.w3.org/2000/svg" id="Capa_1" data-name="Capa 1" viewBox="0 0 512 512"><defs><style>.cls-3{fill:#1b1b1b}</style></defs><path d="M85.04 85.04h341.92v341.92H85.04z" style="fill:#e83876" transform="rotate(-45 256 256.002)"/><path d="M256 0 0 256l256 256 256-256Zm0 14.22L497.78 256 256 497.78 14.22 256Z" style="fill:#dd0162"/><path d="M439.49 237.16c-5 13.17-12.9 24.5-22 35.1-7 8.15-14.42 16-20.11 25.23-4.28 7-8.46 13.9-11.23 21.68a109 109 0 0 1-6.41 14.83c-8.31 15.1-19.69 27.42-33.27 37.77-24.4 18.54-51.56 30.45-82.27 33.37a120.7 120.7 0 0 1-53.59-6.79c-23.61-8.67-43-23.19-59.18-42.25-7.83-9.3-15.2-19.07-19.85-30.4-5.12-12.33-12.69-22.93-21.41-32.8-6.17-7-13-13.43-19-20.64-8.1-9.76-15.2-20-19.64-32A64.3 64.3 0 0 1 67.7 222a2 2 0 0 1 .42.21 3.7 3.7 0 0 1 .31 1c1.47 7.21 3.24 14.31 6.43 21 5.64 11.91 13.27 22.15 24.39 29.41 9.56 6.21 19.8 8.41 30.87 4.65 8.15-2.82 14.42-8.26 19.9-14.68 2.3-2.72 3.61-6 5.8-8.72a8.3 8.3 0 0 1 4.28-3c.94-.32 2.09-.42 2.3.73.16 1-1 1.25-1.72 1.2-2.82-.11-4.23 1.72-5.28 3.92-3.24 6.68-8.1 12.17-13.21 17.39a7.1 7.1 0 0 1-3.4 2.35c-1 .21-.89.78-.31 1.36a16 16 0 0 0 3.86 2.51 122 122 0 0 1 14.58 8.2c5.74 4 11.23 8.4 17.13 12.11 11.8 7.42 24.08 11.76 38.39 8.1A20 20 0 0 1 231 314.1c4 3.45 8.67 4.7 13.74 5.07a146 146 0 0 0 25.28-.31c6.37-.53 12.48-1.73 17.24-6.79a16.32 16.32 0 0 1 10.08-4.55 31.7 31.7 0 0 1 10.86.31 30.3 30.3 0 0 0 12.07.06 59.15 59.15 0 0 0 25.28-12.12c9.5-7.63 18.85-15.41 29.67-21.1a8.6 8.6 0 0 0 1.88-1.47c.52-.52.52-.94-.21-1.46a61.4 61.4 0 0 1-17.4-18.54c-1.3-2.25-2.66-4.34-5.79-4-.27 0-.58-.16-.89-.26-.47-.16-1-.37-.84-.94a1.12 1.12 0 0 1 1.1-.89 10 10 0 0 1 1.25.1 8.3 8.3 0 0 1 5.28 4.23 50.5 50.5 0 0 0 14.15 14.89 35.17 35.17 0 0 0 22.62 6.84 38.5 38.5 0 0 0 22-8.77c13.53-10.81 20.69-25.39 24-42.1.63-3.14.78-6.32 1.83-9.35a72.5 72.5 0 0 1-4.81 24.23Zm-142.18 76.68a2.41 2.41 0 0 0 2.2-2.51c.05-1.09-1.46-2.09-2.67-2s-1.77.94-1.67 2.4.73 2.3 2.15 2.14Zm-77.14 1.93c1.51 0 2-1.25 2-2.61a1.84 1.84 0 0 0-2.09-2c-1.3.05-2.14.78-2.14 1.72 0 2 .79 2.87 2.25 2.87Z" class="cls-3"/><path d="M441.14 215.54c-2.46 9.25-7.37 16.66-15.62 21.68-3 1.77-6.43 2.35-9.72 3.34-4.23 1.2-8.46 2.51-12 5.38a1.89 1.89 0 0 1-2.66-.05c-3.92-2.88-8.31-2.46-12.69-1.52-1.57.32-2.41 1.78-3.35 3a9.6 9.6 0 0 1-2.87 3c-.47-1.31.42-2 .89-2.77.21-.42.63-.73.21-1.15s-.94 0-1.26.32a10.9 10.9 0 0 0-1.93 3.29 19.7 19.7 0 0 1-6.37 7.94 3.73 3.73 0 0 1-4.86.15 23.6 23.6 0 0 1-5.17-5.48 30.3 30.3 0 0 0-4.6-5.75 8.31 8.31 0 0 0-7.36-2.24c5.22.62 6.95 5.17 9.71 8.56a85 85 0 0 0 6.32 7.16c5.33 5.22 11.5 9.19 18.91 10.76 9.3 1.88 17.81-.26 25.7-5.23 10.6-6.73 17.76-16.29 23-27.47a75.8 75.8 0 0 0 6.58-24.85c-.76.57-.65 1.3-.86 1.93M400 249.7c1.41-1.2 2.4-.94 2.71.84a12.2 12.2 0 0 0 2.14 4.44l1.73 2.35c.26.36.78.88.47 1.3s-.89.26-1.36.11a28.4 28.4 0 0 1-5.64-2.62 3.49 3.49 0 0 1-1.57-3.13 4.55 4.55 0 0 1 1.52-3.29m-11.08 1.67a4.33 4.33 0 0 1 1.41-1.83c.53-.52 1.41-1.51 1.83-1 .63.73-.05 1.83-.89 2.46a2.3 2.3 0 0 1-2.37.37Zm8.1 17.29c-2.82 1.46-3.4 1.41-5.69-.57-.73-.63-1.62-1.31-1.31-2.46s1.41-1.31 2.3-1.57c2.61-.73 5.38-.47 8.2-.68-.21.84-.78.68-1.25.74a18.8 18.8 0 0 0-5.18 1.2c-.41.21-.94.31-.83.83a.85.85 0 0 0 1 .68c.89-.05 1.78-.1 2.72-.21 2.14-.15 4.23-.88 6.84-.57a57 57 0 0 0-6.82 2.61Zm14.63-4.39c-.21 1.15-1.21.79-2.09.94-1.41-.15-3-.15-3.76-1.67-.32-.63.05-1.2.62-1.57a3.85 3.85 0 0 1 4 .06 2.06 2.06 0 0 1 1.2 2.24ZM413 245.1c-1.47.63-1.68 1.57-1.1 2.88.05.05-.16.36-.26.36-1.83-.26-1.1 1.1-1.1 1.83a31 31 0 0 1-.21 5.85c-.05.58-.1 1.25-.63 1.46-.73.32-1.09-.36-1.51-.78a40 40 0 0 1-2.77-3.19c-.47-.57-1.2-1.2-.78-1.93s1.46-.73 2.35-.78a1.69 1.69 0 0 1 1.72 1.09c.32.63.47 1.41 1.46 1.47a3.56 3.56 0 0 0-.88-3.09c-.68-.88-1.62-1.61-2.41-2.5-.31-.32-.67-.68-.41-1.15a1 1 0 0 1 1.35-.21 11.4 11.4 0 0 1 2.25 1.2c.16-.57-.16-1-.21-1.46a2.08 2.08 0 0 1 1.62-2.35c.52-.21.94.1 1.31.47s.45.73.21.83m5.22 10.24c-.47.89-1.15 2.3-2.09 1.88s-.05-1.72.36-2.56a24.5 24.5 0 0 0 2.41-6.89c.31-2.61-.84-4.6-3.35-5.23 1.05 2.62 3.35 4.91 1.15 8.05-.73-2.2-1.35-4.08-1.93-6-.26-.78-1.15-1.46-.36-2.35a3 3 0 0 1 2.92-.63 2.9 2.9 0 0 1 2.35 2.77 18.8 18.8 0 0 1-1.42 10.96ZM155.58 250.38a17 17 0 0 0-4.7 5.12c-1.56 2.3-2.92 4.8-5 6.84-2.82 2.82-4.28 2.93-7.42.42a19.3 19.3 0 0 1-5.58-6.74 8.9 8.9 0 0 0-2.25-3.29c-.26-.26-.68-.58-1.1-.16s.05.68.21.94c.52.84 1.36 1.47 1.31 2.77a3.9 3.9 0 0 1-2.41-1.77c-2-2.83-4.49-4.5-8.09-4.13-3.14.31-6.32.16-8.83 2.56a1.77 1.77 0 0 1-2.51.31c-4.44-3.08-9.55-4.33-14.73-5.33-11-2-17.86-9.08-22.45-18.8a56 56 0 0 1-2.03-5.54 39 39 0 0 0 2.66 12.91c4.6 13.37 12 24.86 23.35 33.48 7.88 6 16.66 9.35 26.74 8.35 8.15-.83 14.78-4.65 20.63-10.08a71.3 71.3 0 0 0 10.22-12.74c.68-1 1.3-1.93 2-2.87a7.36 7.36 0 0 1 5.17-3.19 6.18 6.18 0 0 0-5.19.94M110.77 257c.1-.94 1-1 1.77-.63 2.67 1.2 3.24 5.23.95 6.9a21.4 21.4 0 0 1-6.79 3.24 1.26 1.26 0 0 1 .21-1.26c1.4-2.7 3.49-5.1 3.86-8.25m-13.06 8.15c-3.5-1.31-6.06-10.55-3.81-14.37a3.42 3.42 0 0 1 4.28-1c.52.31.89.78.63 1.36-1 2.24-1.2 4.86-2.14 7.36-2.46-3-.26-5.48.62-8.15a4.62 4.62 0 0 0-3.08 5.38 22 22 0 0 0 2.56 6.43c.52.84 1.23 1.75.94 2.95Zm1.57-8.36c0 1.52 0 3 .1 4.49a4.57 4.57 0 0 1-.1-4.53Zm1.36-3.65c-1.26-.53-.58-1.1 0-1.52.89-.57 2.14.16 2.56 1.31.26.78-.52 1.35-.11 2.19a2.3 2.3 0 0 1 .58-.37c.83-.52 2-1.77 2.66-.88s-.73 1.77-1.41 2.56-1.93 1.41-1.51 2.87c.83.52 1.09-.16 1.56-.63a2.57 2.57 0 0 1 3.4-.15c1 .67 0 1.51-.47 2.14a41 41 0 0 1-2.72 3.44c-1.09 1.21-1.67.94-2-.78a6.9 6.9 0 0 1-.37-3.29v-.68c.78-2.25-1.83-3.6-1.47-5.74.03-.2-.34-.41-.7-.51Zm4 19.53c-.89-.16-2.25.26-2.35-1.41-.06-1.41 1.61-2.77 3.34-2.82 1.51 0 2.87.89 2.92 2 .08 1.2-1.49 2.14-3.94 2.19Zm14.93 3.76c-2.76-1.2-5.58-2.14-8.82-3.19a12.2 12.2 0 0 1 3.6-.05 39 39 0 0 0 5.54.42c.52 0 1-.21 1.09-.78s-.52-.63-.94-.73c-.94-.21-1.82-.37-2.71-.63-1.1-.37-2.35.05-3.76-1.05 2.24-.05 4.07-.1 5.85-.1a8.9 8.9 0 0 1 2.4.31c1 .26 2.14.47 2.35 1.73.13 1.37-3.32 4.64-4.63 4.03Zm1.43-21.61a7.64 7.64 0 0 1 3.56 3c-2.56.29-3.56-.6-3.56-3" class="cls-3"/></svg>