<svg id="Capa_1" data-name="Capa 1" xmlns="http://www.w3.org/2000/svg" viewBox="0 0 512 512"><defs><style>.cls-1{fill:#e83876;}.cls-2{fill:#dd0162;}.cls-3{fill-rule:evenodd;}</style></defs><rect class="cls-1" x="85.04" y="85.04" width="341.92" height="341.92" transform="translate(-106.04 256) rotate(-45)"/><path class="cls-2" d="M256,0,0,256,256,512,512,256Zm0,14.22L497.78,256,256,497.78,14.22,256Z"/><path class="cls-3" d="M166.64,136c-2.19,4.56-4.53,9-6.49,13.69a51.62,51.62,0,0,0-4.43,22.45c.52,12,6.18,21.35,15.26,28.83,11.46,9.46,24.15,16.82,38.78,19.7,8.81,1.75,17.94,2.13,27,2.44,10.81.37,21.65,0,32.49,0h2.95c.14.34.27.67.42,1-3.54,2.39-6.93,5.07-10.67,7.1-13.14,7.08-27.36,9-42,7.84a190.83,190.83,0,0,1-19.41-2.88c-2.09-.37-3.17,0-3.81,1.93A33.42,33.42,0,0,0,197,261.8c4.19,10.52,11.78,18.5,20,25.95l2.31,2H210c9.75,13,16.64,26.48,17.71,42.87-4.55-5.52-8.5-10.86-13-15.66-8.35-8.84-17-17.44-25.63-25.95a10.78,10.78,0,0,0-5.71-2.67c-9.47-1.31-19-2.22-28.47-3.51a7,7,0,0,0-5.41,1.46c-9.37,6.49-16.66,15-23.62,23.85-3.51,4.46-7,9-10.78,13.28,3.52-15.43,8.22-30.39,15.58-44.6l-5.22-2.62c5.1-3.84,10.36-7.41,15.2-11.5,6.66-5.63,12.93-11.74,17.53-19.32,3.93-6.46,6.13-13.37,4.18-20.82-1-3.73-3-7.24-4.93-10.65-5.63-10.17-9.94-20.86-11.82-32.33-2.91-17.53,3.91-31.48,16.82-42.92,1.24-1.09,2.6-2,3.9-3.07l.32.36"/><path class="cls-3" d="M366.83,348.93c-1.49-7.54-2.37-15.54-4.72-23.07-4.46-14.37-13.85-24.27-29-27.63a21.66,21.66,0,0,0-9.47.27c-10.14,2.43-19.06,7.65-27.71,13.22-11.34,7.3-22.4,15-33.77,22.74,1.64-2.55,3.18-5.14,4.93-7.58,13.33-18.59,28.9-35.17,45.41-50.94a69.68,69.68,0,0,0,6.4-6.8c5-6.23,4.76-12.73-1.17-18a99.2,99.2,0,0,0-13.87-10c-10.6-6.58-21.41-12.78-32-19.3a40.84,40.84,0,0,1-8.55-7.38c5.51,1.12,11,2.28,16.5,3.33A432.57,432.57,0,0,0,331.47,224c21.51,1.45,36.94-7.8,49-24.58A179.5,179.5,0,0,0,399.05,167c.59-1.3,1.14-2.61,1.72-3.91l.89.14c-.69,6.08-1.16,12.18-2.09,18.22a99.52,99.52,0,0,1-13.12,36.4,89.62,89.62,0,0,1-19.54,23.24c-3.72,3-7.47,6.46-10,10.46-4.4,6.85-3.77,14.74-2.4,22.42a64.42,64.42,0,0,0,8.81,23.15c4.9,7.85,8.34,16.28,8.87,25.66a56.31,56.31,0,0,1-5.33,26.16"/><path class="cls-3" d="M359.49,196.56c-.88,10.12-4.1,17.52-12.52,21.73-6.42,3.22-13.27,1.18-17-4.95-6.55-10.82.14-28,12.28-31.46a12.19,12.19,0,0,1,14.82,6.61c1.33,2.85,1.84,6.07,2.41,8.07"/><path class="cls-3" d="M186.34,180.89c-2.81-2.88-3.47-6.09-1.73-9.52a5.93,5.93,0,0,1,5.94-3.25c3.77.19,5.22,2.89,6.26,5.93,10.28.38,14.67,8.54,12.95,19.52a20.3,20.3,0,0,1-9.15,14.22c-7.36,4.81-16,1.06-18.19-8-1.65-6.75,0-12.93,3.92-18.91"/></svg>