<svg id="Capa_1" data-name="Capa 1" xmlns="http://www.w3.org/2000/svg" viewBox="0 0 512 512"><defs><style>.cls-1{fill:#decf32;}.cls-1,.cls-3,.cls-4{fill-rule:evenodd;}.cls-2{fill:#b5851f;}.cls-4{fill:#fff;}</style></defs><polygon class="cls-1" points="258.67 506.06 5.93 258.67 253.32 5.94 506.06 253.31 258.67 506.06"/><path class="cls-2" d="M258.73,512l-3-2.94L0,258.74l2.94-3L253.27,0,512,253.25l-2.94,3ZM11.88,258.61,258.62,500.13l241.5-246.75L253.39,11.87Z"/><path class="cls-2" d="M363.8,281.37l-2.1,8.16c-.5,2.5-1.76,5.19-2.76,8.17-.56,1.48-1.08,3-1.72,4.57L355,306.8l-2.19,4.53c-.79,1.45-1.69,2.82-2.5,4.18a74.52,74.52,0,0,1-4.67,7.27l-5.06,6.74,6.14,5.07s2.16-2.9,5.41-7.23a76.37,76.37,0,0,0,5-7.77c.87-1.45,1.82-2.93,2.68-4.48s1.56-3.24,2.35-4.86,1.56-3.25,2.34-4.86,1.23-3.29,1.83-4.88c1.1-3.21,2.42-6.1,3-8.77,1.35-5.24,2.24-8.74,2.24-8.74Z"/><path class="cls-2" d="M335.16,335.43l5.75,5.5c.23.23-8.37,8-8.37,8l-5.19-6s8-7.21,7.81-7.43"/><path class="cls-2" d="M320.75,348.09l4.74,6.41s-.59.42-1.46,1.07-2,1.57-3.21,2.32l-4.94,3-4.1-6.83,4.62-2.8c1.14-.7,2.17-1.59,3-2.17l1.35-1"/><path class="cls-2" d="M365.9,262.58l8,.29-.3,5.77c0,.72-.08,1.44-.12,2.12s-.19,1.29-.27,1.82c-.16,1.08-.27,1.79-.27,1.79L365,273.32l.25-1.67c.08-.5.18-1.08.26-1.71s.08-1.29.11-2c.14-2.7.27-5.39.27-5.39"/><path class="cls-2" d="M304.71,358.05l-2.09,1c-1.35.61-3.2,1.65-5.55,2.57l-8.11,3c-3,1-6.31,1.68-9.55,2.59l-2.45.62c-.83.12-1.66.24-2.48.38l-4.81.72c-1.58.21-3.07.57-4.52.61l-4.08.21L255,370c-1.47,0-2.31-.08-2.31-.08l-.14,8s.9.08,2.48.07l6.54-.33,4.37-.22c1.55-.06,3.15-.43,4.83-.65l5.17-.78,2.65-.42,2.62-.66c3.49-.95,7-1.66,10.24-2.77l8.7-3.18c2.52-1,4.5-2.1,5.94-2.74l2.24-1.08Z"/><path class="cls-2" d="M244.61,369.49l-.71,7.93s-.71,0-1.79-.12-2.51-.37-3.93-.6l-5.71-.87,1.46-7.82,5.33.81,3.67.57c1,.08,1.68.1,1.68.1"/><path class="cls-2" d="M208,359.76l-2.09-1c-1.3-.68-3.28-1.45-5.45-2.74L193,351.52c-2.64-1.74-5.26-3.88-8-5.85a109.19,109.19,0,0,1-13.44-12.75,53.14,53.14,0,0,1-4-4.62c-.89-1.17-1.39-1.85-1.39-1.85l-6.31,4.86s.55.72,1.49,2a65.28,65.28,0,0,0,4.29,4.94,117.7,117.7,0,0,0,14.4,13.64c2.91,2.13,5.73,4.41,8.55,6.28l7.92,4.8c2.33,1.38,4.44,2.22,5.84,3l2.24,1.08Z"/><path class="cls-2" d="M225.73,366.09l-2,7.69-1.75-.44c-1-.31-2.47-.55-3.82-1.08l-5.43-2,2.79-7.46,5.07,1.86a36.21,36.21,0,0,0,3.56,1l1.63.41"/><path class="cls-2" d="M161.51,319.92l-6.64,4.4-3-4.95c-.74-1.23-1.5-2.46-2.06-3.39a9.31,9.31,0,0,1-.62-1.15l-.22-.45,7-3.73s.08.15.2.41a7.8,7.8,0,0,0,.59,1.08l1.92,3.17c1.41,2.3,2.8,4.61,2.8,4.61"/><path class="cls-2" d="M146.3,285.16l-.58-2.24a44.06,44.06,0,0,1-1.12-6c-.31-2.5-1-5.4-1.16-8.55s-.32-6.53-.49-9.9c.16-3.37.34-6.74.49-9.9s.85-6,1.16-8.56a42.89,42.89,0,0,1,1.11-6l.58-2.24-7.73-1.9s-.22.87-.62,2.41a49.18,49.18,0,0,0-1.2,6.43c-.34,2.68-1.05,5.78-1.22,9.16s-.36,7-.54,10.6c.18,3.61.37,7.21.54,10.59s.88,6.49,1.23,9.17a49.51,49.51,0,0,0,1.2,6.43c.39,1.54.62,2.42.62,2.42Z"/><path class="cls-2" d="M152.34,303.06l-7.28,3.19a18,18,0,0,1-.76-1.64c-.37-1-.87-2.37-1.36-3.73l-2-5.43,7.57-2.46,1.85,5.05c.47,1.28.92,2.53,1.27,3.49a16.51,16.51,0,0,0,.7,1.53"/><path class="cls-2" d="M148.47,224l-7.58-2.46,2-5.42c.49-1.36,1-2.72,1.36-3.73a12.31,12.31,0,0,1,.74-1.65l7.29,3.18a9.93,9.93,0,0,0-.68,1.53c-.35,1-.81,2.22-1.28,3.49L148.47,224"/><path class="cls-2" d="M166.18,190.47l1.38-1.86a52.86,52.86,0,0,1,4-4.61A111.29,111.29,0,0,1,185,171.24c2.73-2,5.36-4.11,8-5.86l7.39-4.48c2.17-1.3,4.15-2.06,5.45-2.75l2.09-1-3.34-7.23L202.33,151c-1.4.72-3.51,1.55-5.83,2.94s-5,3.05-7.91,4.82-5.65,4.13-8.57,6.26a118.9,118.9,0,0,0-14.38,13.67,59.86,59.86,0,0,0-4.29,4.94l-1.49,2Z"/><path class="cls-2" d="M156,206.35l-7-3.72a12.22,12.22,0,0,1,.83-1.61c.56-.92,1.31-2.15,2-3.39,1.51-2.47,3-4.94,3-4.94l6.65,4.39-2.8,4.61c-.7,1.15-1.4,2.31-1.93,3.16a9.44,9.44,0,0,0-.76,1.5"/><path class="cls-2" d="M215.35,154.11l-2.81-7.46,5.44-2a32.7,32.7,0,0,1,3.81-1.1l1.75-.46,2.06,7.69-1.63.43a27.91,27.91,0,0,0-3.56,1l-5.06,1.85"/><path class="cls-2" d="M252.6,146.93a22.63,22.63,0,0,1,2.31-.08c1.48.06,3.59.18,6.11.31l4.08.2c1.45,0,2.95.41,4.52.6l4.82.74,2.48.38c.81.17,1.62.41,2.45.61,3.24.89,6.56,1.55,9.54,2.58l8.11,3c2.36.91,4.21,2,5.55,2.56l2.09,1,3.58-7.11L306,150.62c-1.45-.64-3.42-1.77-5.95-2.74l-8.69-3.19c-3.21-1.09-6.76-1.82-10.25-2.77-.87-.22-1.75-.47-2.62-.66l-2.66-.4-5.16-.79c-1.68-.22-3.28-.59-4.84-.64l-4.36-.23-6.54-.32c-1.58,0-2.48.09-2.48.09Z"/><path class="cls-2" d="M233.8,148.89l-1.48-7.83,5.72-.87,3.92-.6a16.53,16.53,0,0,1,1.8-.13l.71,7.93a15.77,15.77,0,0,0-1.68.12l-3.66.57-5.33.81"/><path class="cls-2" d="M311.67,162.74l4.09-6.83,4.93,3c1.24.73,2.34,1.69,3.23,2.31l1.44,1.08-4.72,6.41-1.35-1c-.83-.57-1.85-1.47-3-2.16l-4.6-2.8"/><path class="cls-2" d="M340.59,187.33a5.24,5.24,0,0,1,.37.47c.23.32.58.79,1,1.38.88,1.18,2.14,2.87,3.66,4.89a74,74,0,0,1,4.68,7.25c.81,1.36,1.69,2.74,2.5,4.19s1.46,3,2.18,4.53l2.19,4.52c.65,1.54,1.16,3.09,1.72,4.57,1,3,2.27,5.69,2.77,8.18,1.26,4.9,2.1,8.15,2.1,8.15l7.79-1.62s-.89-3.51-2.25-8.75c-.54-2.67-1.87-5.56-3-8.77-.6-1.58-1.14-3.25-1.83-4.88l-2.34-4.86c-.79-1.63-1.57-3.26-2.35-4.86s-1.81-3-2.68-4.48a77.24,77.24,0,0,0-5-7.76c-1.61-2.18-3-4-3.92-5.25-.47-.64-.85-1.13-1.1-1.47s-.4-.51-.4-.51Z"/><path class="cls-2" d="M327.25,173.93l5.18-6s8.61,7.72,8.39,8l-5.75,5.5c.21-.22-7.82-7.41-7.82-7.41"/><path class="cls-2" d="M365,243.43l7.88-1.07s.12.72.28,1.78a28,28,0,0,1,.41,4c.14,2.87.29,5.76.29,5.76l-8,.3-.28-5.38a22.2,22.2,0,0,0-.38-3.69l-.25-1.66"/><path class="cls-3" d="M305.76,168.8A53.3,53.3,0,1,1,252,115.47a53.12,53.12,0,0,1,53.77,53.33m-17.82-26.3A39.53,39.53,0,0,0,272.14,129c-5.29-2.61-5.44-2.37-7.33,3.49-.67,2.07-1.69,3.07-4.11,2.95-4.56-.22-9.14,0-13.72,0-5.36,0-5.36,0-7.27-4.88a8,8,0,0,1-.59-1.72c-.26-1.7-1.14-2-2.62-1.39a44.44,44.44,0,0,0-18.42,13.44c-1,1.2-.8,1.92.48,2.72a30.58,30.58,0,0,1,4.21,3.09,3,3,0,0,1,1,2.34C222,155,220,160.86,218.16,166.79a3,3,0,0,1-3.63,2.44c-2-.17-4,0-5.92,0-1.09,6.68,2.5,18.1,7.87,25.1,1.89-1.33,3.72-2.79,5.73-3.93a3.41,3.41,0,0,1,3-.15c5.15,3.56,10.17,7.32,15.27,11a2.47,2.47,0,0,1,.92,3.39c-.83,2.06-1.46,4.22-2.21,6.43a44.27,44.27,0,0,0,26.64,0c-.76-2.31-1.45-4.46-2.18-6.6a2.55,2.55,0,0,1,1.06-3.36c5.07-3.57,10-7.35,15.08-10.9a3.6,3.6,0,0,1,3,.16,13.27,13.27,0,0,1,3.4,2.44c1.89,1.77,3.14,1.31,4.19-.87.91-1.88,2.13-3.63,2.89-5.56,2.13-5.38,3.93-10.85,3.35-17.17-2.22,0-4.32-.11-6.4,0s-2.86-.7-3.41-2.48c-1.73-5.58-3.48-11.18-5.42-16.7-.6-1.67-.31-2.59,1.05-3.52,1.88-1.26,3.68-2.6,5.58-4"/><path class="cls-4" d="M287.94,142.5c-1.89,1.36-3.7,2.71-5.57,4-1.37.92-1.66,1.84-1.07,3.52,2,5.52,3.7,11.11,5.44,16.7.54,1.77,1.47,2.6,3.4,2.48s4.17,0,6.39,0c.6,6.32-1.21,11.8-3.33,17.18-.77,1.92-2,3.67-2.9,5.56-1.06,2.18-2.3,2.63-4.19.86a13.69,13.69,0,0,0-3.4-2.44,3.6,3.6,0,0,0-3-.16c-5.09,3.55-10,7.34-15.08,10.91a2.55,2.55,0,0,0-1.06,3.36c.72,2.13,1.42,4.28,2.19,6.6a44.31,44.31,0,0,1-26.65,0c.75-2.21,1.38-4.36,2.2-6.43a2.45,2.45,0,0,0-.91-3.38c-5.1-3.65-10.12-7.41-15.28-11a3.36,3.36,0,0,0-2.94.15c-2,1.14-3.85,2.61-5.73,3.93-5.37-7-9-18.42-7.88-25.1,1.94,0,3.94-.13,5.92,0a3,3,0,0,0,3.64-2.44c1.82-5.93,3.81-11.8,5.59-17.74a3,3,0,0,0-1-2.34,29,29,0,0,0-4.21-3.08c-1.28-.8-1.46-1.53-.48-2.73a44.44,44.44,0,0,1,18.42-13.44c1.49-.59,2.35-.3,2.62,1.39a8,8,0,0,0,.59,1.72c1.91,4.89,1.91,4.9,7.27,4.89,4.57,0,9.15-.2,13.71,0,2.42.13,3.46-.88,4.12-2.95,1.88-5.86,2-6.1,7.33-3.49a39.61,39.61,0,0,1,15.8,13.46m-35.48,11v0c-3.08,0-6.16-.08-9.23,0-.82,0-2.13.5-2.33,1.07-2.12,6.2-4.1,12.45-6,18.72a2.65,2.65,0,0,0,.72,2.33c5.23,3.94,10.54,7.77,15.89,11.55a2.1,2.1,0,0,0,1.95,0c5.28-3.71,10.53-7.48,15.67-11.36a3,3,0,0,0,.83-2.62c-1.72-5.78-3.7-11.47-5.42-17.25-.61-2-1.72-2.53-3.66-2.43-2.8.14-5.62,0-8.43,0"/><path class="cls-3" d="M252.46,153.49c2.81,0,5.63.1,8.43,0,1.94-.1,3.05.41,3.66,2.43,1.72,5.78,3.7,11.47,5.42,17.25a3,3,0,0,1-.83,2.62c-5.14,3.88-10.39,7.65-15.67,11.36a2.1,2.1,0,0,1-1.95,0c-5.35-3.78-10.66-7.61-15.89-11.55a2.65,2.65,0,0,1-.72-2.33c1.89-6.27,3.87-12.52,6-18.72.2-.57,1.51-1,2.33-1.07,3.07-.12,6.15,0,9.23,0Z"/><path class="cls-3" d="M153.86,310.36c-3.82,2.64-7.27,2.21-11.15,1.09-2-.59-4.83.65-7,1.69-3.09,1.5-3.82,1.5-5.67-1.37a8.53,8.53,0,0,0-2.09-2.06c-2.56-2-2.63-4.33-.07-6.22,2.22-1.64,4.5-3.18,6.79-4.71s4.34-3,5.32-5.92c.51-1.51,2.67-2.66,4.31-3.57a60.53,60.53,0,0,1,7.79-3.5c2-.76,2.92-1.82,2.58-4.1a44.18,44.18,0,0,1-.05-6c4.41,1,8,2.94,10.35,6.91a7,7,0,0,0,2.11,2.49c10.93,6.23,16.28,15.78,17.29,28.16.8,9.71,0,19.12-3.39,28.3-.85,2.3-2.05,3.26-4.68,3.21-10.5-.14-21-.08-31.53.07-2.29,0-3.23-.62-3.52-2.94a27.66,27.66,0,0,1,3.65-17.05c2.62-4.81,5.74-9.34,9-14.47"/><path class="cls-3" d="M195.61,341.14c.57-1.47.69-2.79,1.42-3.49,9.5-9.23,10.55-20.91,9.8-33.13-.06-1-.3-2-.52-3.42H198.7V291l5-.27c-2.65-7.36-8.59-10.75-15.21-13.77,5-5.88,11.35-5.85,17.47-4.69,1.84-3.23,3.52-6.18,5.29-9.32-3.55-4.19-3.88-7.76-.64-10.65a6.72,6.72,0,0,1,9.38.48c2.79,3,2.28,6.62-1.2,10.14l5.42,9.29c5.89-1,12.3-1.25,17.41,4.67-6.47,3-12.4,6.46-15.25,13.7,2.25,0,3,1.05,2.78,3.17a69.82,69.82,0,0,0-.06,7.11l-5.43.32c-2.71,12.77-1.74,24.72,6.38,35.49a27.93,27.93,0,0,1,2.17,4.47Z"/><path class="cls-3" d="M234.84,357.25c5.61.63,7,2.21,7,7.89v9.71H188.61c0-4.65-.24-9.4.1-14.12.19-2.64,2.52-3.46,4.66-3.35-.76-1.89-2-3.74-2.2-5.71-.53-4.41,1.93-6.89,6.4-6.9,10.91,0,21.83,0,32.74,0,2.94,0,5.6.27,6.82,3.41s.83,6-1.78,8.35a3.64,3.64,0,0,0-.51.75"/><path class="cls-3" d="M182.29,357.85c3.62.71,4.52,3.27,4.31,6.73s0,6.71,0,10.3h-53.4c0-4.45-.32-8.92.17-13.32.18-1.6,2.27-3,3.5-4.5l.65.38a32,32,0,0,1-.65-3.21c-.35-3.41,1.67-5.84,5-5.85,11.85,0,23.66,0,35.49,0,3.38,0,5.26,1.93,5.36,5.34a32.14,32.14,0,0,1-.39,4.12"/><path class="cls-3" d="M280.5,373.61c5.91-1.12,11.9-1.94,17.74-3.43a112.1,112.1,0,0,0,48.63-26.45c16.38-14.94,28.67-33.22,34.89-56.28a73.87,73.87,0,0,0,2.54-26.13c-1.16-12.94-6.73-22.33-17.3-27.64-4.18-2.11-8.45-4-12.73-5.88-10-4.36-16.42-12.85-21.09-23.38-.68-1.53-1.36-3.06-2.2-5a52.74,52.74,0,0,0,1.2,18.36A43.1,43.1,0,0,0,347.68,242c3.5,2.82,7.2,5.31,10.73,8.09,4.58,3.58,6.17,8.6,5.63,14.81-1.22,14-6.3,26.33-12.76,38-9.5,17.27-22,31.39-36.09,43.86-9.85,8.73-20.44,16.17-31.09,23.51-1.26.87-2.5,1.75-3.75,2.62,0,.23.1.47.15.69"/><path class="cls-3" d="M384.85,204.28c-8.3.12-14.75,7.6-14.64,17,.11,9.17,6.85,16.44,15.12,16.32,7.94-.12,14.49-7.8,14.36-16.86-.12-9.22-6.76-16.59-14.84-16.47"/><path class="cls-3" d="M377.72,311c1.34,1.89,2.64,3.47,3.69,5.24,3.32,5.61,4.79,11.67,2.81,18.32-1.35,4.56-4.28,7.76-7.64,10.47-5.93,4.82-12.67,7.74-19.53,10.26-3.71,1.36-7.46,2.55-11.24,4.2,1.86.43,3.7,1,5.58,1.27,11.18,1.6,21.93.06,31.9-6.23a26.8,26.8,0,0,0,12.54-17.32c2.64-11.83-4.28-23.89-14.88-26a24.69,24.69,0,0,0-3.23-.21"/><path class="cls-3" d="M442.16,273.83c-21.29,3.69-39.51-2.14-54.43-20.07a39.13,39.13,0,0,0,6.68,17.31,31.14,31.14,0,0,0,22.74,13.41c7.32.79,14.2-.7,20.25-5.65a52.65,52.65,0,0,0,4.76-5"/><path class="cls-4" d="M332.46,196.55c0,8.7,6.23,15.76,13.9,15.76s13.91-7.06,13.91-15.76-6.23-15.76-13.91-15.76-13.9,7.06-13.9,15.76"/></svg>