<svg xmlns="http://www.w3.org/2000/svg" viewBox="0 0 512 512"><path fill="#decf32" fill-rule="evenodd" d="M258.67 506.06 5.93 258.67 253.32 5.94l252.74 247.37z"/><g fill="#b5851f"><path d="m258.73 512-3-2.94L0 258.74l2.94-3L253.27 0 512 253.25l-2.94 3zM11.88 258.61l246.74 241.52 241.5-246.75L253.39 11.87zm351.92 22.76-2.1 8.16c-.5 2.5-1.76 5.19-2.76 8.17l-1.72 4.57-2.22 4.53-2.19 4.53-2.5 4.18a75 75 0 0 1-4.67 7.27l-5.06 6.74 6.14 5.07 5.41-7.23a76 76 0 0 0 5-7.77l2.68-4.48c.86-1.55 1.56-3.24 2.35-4.86l2.34-4.86c.78-1.61 1.23-3.29 1.83-4.88l3-8.77 2.24-8.74zm-28.64 54.06 5.75 5.5c.23.23-8.37 8-8.37 8l-5.19-6s8-7.21 7.81-7.43m-14.41 12.59 4.74 6.41-1.46 1.07-3.21 2.32-4.94 3-4.1-6.83 4.62-2.8c1.14-.7 2.17-1.59 3-2.17zm45.15-85.51 8 .29-.3 5.77c0 .72-.08 1.44-.12 2.12s-.19 1.29-.27 1.82l-.27 1.79-7.94-1.05.25-1.67.26-1.71c.08-.63.08-1.29.11-2l.27-5.39m-61.18 95.5-2.09 1-5.55 2.57-8.11 3c-3 1-6.31 1.68-9.55 2.59l-2.45.62-2.48.38-4.81.72-4.52.61-4.08.21-6.07.25c-1.47 0-2.31-.08-2.31-.08l-.14 8s.9.08 2.48.07l6.54-.33 4.37-.22c1.55-.06 3.15-.43 4.83-.65l5.17-.78 2.65-.42 2.62-.66c3.49-.95 7-1.66 10.24-2.77l8.7-3.18c2.52-1 4.5-2.1 5.94-2.74l2.24-1.08zm-60.1 11.44-.71 7.93s-.71 0-1.79-.12l-3.93-.6-5.71-.87 1.46-7.82 5.33.81 3.67.57zM208 359.76l-2.09-1-5.45-2.74-7.46-4.5-8-5.85a109 109 0 0 1-13.44-12.75 53 53 0 0 1-4-4.62l-1.39-1.85-6.31 4.86 1.49 2a65 65 0 0 0 4.29 4.94 117.7 117.7 0 0 0 14.4 13.64c2.91 2.13 5.73 4.41 8.55 6.28l7.92 4.8c2.33 1.38 4.44 2.22 5.84 3l2.24 1.08z"/><path d="m225.73 366.09-2 7.69-1.75-.44c-1-.31-2.47-.55-3.82-1.08l-5.43-2 2.79-7.46 5.07 1.86a36 36 0 0 0 3.56 1l1.63.41m-64.27-46.15-6.64 4.4-3-4.95-2.06-3.39a9 9 0 0 1-.62-1.15l-.22-.45 7-3.73.2.41a8 8 0 0 0 .59 1.08l1.92 3.17 2.8 4.61m-15.18-34.76-.58-2.24a44 44 0 0 1-1.12-6l-1.16-8.55-.49-9.9.49-9.9c.15-3.16.85-6 1.16-8.56a43 43 0 0 1 1.11-6l.58-2.24-7.73-1.9-.62 2.41a49 49 0 0 0-1.2 6.43l-1.22 9.16-.54 10.6.54 10.59c.17 3.38.88 6.49 1.23 9.17a49.5 49.5 0 0 0 1.2 6.43l.62 2.42zM152.34 303.06l-7.28 3.19a18 18 0 0 1-.76-1.64l-1.36-3.73-2-5.43 7.57-2.46 1.85 5.05 1.27 3.49a17 17 0 0 0 .7 1.53M148.47 224l-7.58-2.46 2-5.42 1.36-3.73a12 12 0 0 1 .74-1.65l7.29 3.18a10 10 0 0 0-.68 1.53zm17.71-33.53 1.38-1.86a53 53 0 0 1 4-4.61A111.3 111.3 0 0 1 185 171.24l8-5.86 7.39-4.48c2.17-1.3 4.15-2.06 5.45-2.75l2.09-1-3.34-7.23-2.26 1.08c-1.4.72-3.51 1.55-5.83 2.94l-7.91 4.82c-2.91 1.77-5.65 4.13-8.57 6.26a119 119 0 0 0-14.38 13.67 60 60 0 0 0-4.29 4.94l-1.49 2zM156 206.35l-7-3.72a12 12 0 0 1 .83-1.61l2-3.39 3-4.94 6.65 4.39-2.8 4.61-1.93 3.16a9.4 9.4 0 0 0-.76 1.5m59.36-52.24-2.81-7.46 5.44-2a33 33 0 0 1 3.81-1.1l1.75-.46 2.06 7.69-1.63.43a28 28 0 0 0-3.56 1l-5.06 1.85m37.25-7.13a23 23 0 0 1 2.31-.08l6.11.31 4.08.2c1.45 0 2.95.41 4.52.6l4.82.74 2.48.38 2.45.61 9.54 2.58 8.11 3c2.36.91 4.21 2 5.55 2.56l2.09 1 3.58-7.11-2.24-1.1-5.95-2.74-8.69-3.19c-3.21-1.09-6.76-1.82-10.25-2.77-.87-.22-1.75-.47-2.62-.66l-2.66-.4-5.16-.79c-1.68-.22-3.28-.59-4.84-.64l-4.36-.23-6.54-.32c-1.58 0-2.48.09-2.48.09zM233.8 148.89l-1.48-7.83 5.72-.87 3.92-.6a17 17 0 0 1 1.8-.13l.71 7.93a16 16 0 0 0-1.68.12l-3.66.57zm77.87 13.85 4.09-6.83 4.93 3c1.24.73 2.34 1.69 3.23 2.31l1.44 1.08-4.72 6.41-1.35-1-3-2.16-4.6-2.8m28.9 24.58a5 5 0 0 1 .37.47l1 1.38 3.66 4.89a74 74 0 0 1 4.68 7.25l2.5 4.19c.81 1.45 1.46 3 2.18 4.53l2.19 4.52 1.72 4.57c1 3 2.27 5.69 2.77 8.18l2.1 8.15 7.79-1.62-2.25-8.75c-.54-2.67-1.87-5.56-3-8.77l-1.83-4.88-2.34-4.86-2.35-4.86c-.78-1.6-1.81-3-2.68-4.48a77 77 0 0 0-5-7.76l-3.92-5.25-1.1-1.47-.4-.51zM327.25 173.93l5.18-6s8.61 7.72 8.39 8l-5.75 5.5c.21-.22-7.82-7.41-7.82-7.41M365 243.43l7.88-1.07.28 1.78a28 28 0 0 1 .41 4l.29 5.76-8 .3-.28-5.38a22 22 0 0 0-.38-3.69l-.25-1.66"/></g><g fill-rule="evenodd"><path d="M305.76 168.8A53.3 53.3 0 1 1 252 115.47a53.12 53.12 0 0 1 53.77 53.33m-17.82-26.3a39.53 39.53 0 0 0-15.81-13.5c-5.29-2.61-5.44-2.37-7.33 3.49-.67 2.07-1.69 3.07-4.11 2.95-4.56-.22-9.14 0-13.72 0-5.36 0-5.36 0-7.27-4.88a8 8 0 0 1-.59-1.72c-.26-1.7-1.14-2-2.62-1.39a44.44 44.44 0 0 0-18.42 13.44c-1 1.2-.8 1.92.48 2.72a30.6 30.6 0 0 1 4.21 3.09 3 3 0 0 1 1 2.34c-1.77 5.96-3.77 11.82-5.61 17.75a3 3 0 0 1-3.63 2.44c-2-.17-4 0-5.92 0-1.09 6.68 2.5 18.1 7.87 25.1 1.89-1.33 3.72-2.79 5.73-3.93a3.41 3.41 0 0 1 3-.15c5.15 3.56 10.17 7.32 15.27 11a2.47 2.47 0 0 1 .92 3.39c-.83 2.06-1.46 4.22-2.21 6.43a44.27 44.27 0 0 0 26.64 0l-2.18-6.6a2.55 2.55 0 0 1 1.06-3.36l15.08-10.9a3.6 3.6 0 0 1 3 .16 13.3 13.3 0 0 1 3.4 2.44c1.89 1.77 3.14 1.31 4.19-.87.91-1.88 2.13-3.63 2.89-5.56 2.13-5.38 3.93-10.85 3.35-17.17-2.22 0-4.32-.11-6.4 0s-2.86-.7-3.41-2.48l-5.42-16.7c-.6-1.67-.31-2.59 1.05-3.52 1.88-1.26 3.68-2.6 5.58-4"/><path fill="#fff" d="m287.94 142.5-5.57 4c-1.37.92-1.66 1.84-1.07 3.52 2 5.52 3.7 11.11 5.44 16.7.54 1.77 1.47 2.6 3.4 2.48s4.17 0 6.39 0c.6 6.32-1.21 11.8-3.33 17.18-.77 1.92-2 3.67-2.9 5.56-1.06 2.18-2.3 2.63-4.19.86a13.7 13.7 0 0 0-3.4-2.44 3.6 3.6 0 0 0-3-.16c-5.09 3.55-10 7.34-15.08 10.91a2.55 2.55 0 0 0-1.06 3.36l2.19 6.6a44.3 44.3 0 0 1-26.65 0c.75-2.21 1.38-4.36 2.2-6.43a2.45 2.45 0 0 0-.91-3.38l-15.28-11a3.36 3.36 0 0 0-2.94.15c-2 1.14-3.85 2.61-5.73 3.93-5.37-7-9-18.42-7.88-25.1 1.94 0 3.94-.13 5.92 0a3 3 0 0 0 3.64-2.44l5.59-17.74a3 3 0 0 0-1-2.34 29 29 0 0 0-4.21-3.08c-1.28-.8-1.46-1.53-.48-2.73a44.44 44.44 0 0 1 18.42-13.44c1.49-.59 2.35-.3 2.62 1.39a8 8 0 0 0 .59 1.72c1.91 4.89 1.91 4.9 7.27 4.89 4.57 0 9.15-.2 13.71 0 2.42.13 3.46-.88 4.12-2.95 1.88-5.86 2-6.1 7.33-3.49a39.6 39.6 0 0 1 15.8 13.46m-35.48 11c-3.08 0-6.16-.08-9.23 0-.82 0-2.13.5-2.33 1.07-2.12 6.2-4.1 12.45-6 18.72a2.65 2.65 0 0 0 .72 2.33c5.23 3.94 10.54 7.77 15.89 11.55a2.1 2.1 0 0 0 1.95 0l15.67-11.36a3 3 0 0 0 .83-2.62l-5.42-17.25c-.61-2-1.72-2.53-3.66-2.43-2.8.14-5.62 0-8.43 0"/><path d="M252.46 153.49h8.43c1.94-.1 3.05.41 3.66 2.43 1.72 5.78 3.7 11.47 5.42 17.25a3 3 0 0 1-.83 2.62c-5.14 3.88-10.39 7.65-15.67 11.36a2.1 2.1 0 0 1-1.95 0l-15.89-11.55a2.65 2.65 0 0 1-.72-2.33c1.89-6.27 3.87-12.52 6-18.72.2-.57 1.51-1 2.33-1.07 3.07-.12 6.15 0 9.23 0zm-98.6 156.87c-3.82 2.64-7.27 2.21-11.15 1.09-2-.59-4.83.65-7 1.69-3.09 1.5-3.82 1.5-5.67-1.37a8.5 8.5 0 0 0-2.09-2.06c-2.56-2-2.63-4.33-.07-6.22 2.22-1.64 4.5-3.18 6.79-4.71s4.34-3 5.32-5.92c.51-1.51 2.67-2.66 4.31-3.57a60.5 60.5 0 0 1 7.79-3.5c2-.76 2.92-1.82 2.58-4.1a44 44 0 0 1-.05-6c4.41 1 8 2.94 10.35 6.91a7 7 0 0 0 2.11 2.49c10.93 6.23 16.28 15.78 17.29 28.16.8 9.71 0 19.12-3.39 28.3-.85 2.3-2.05 3.26-4.68 3.21-10.5-.14-21-.08-31.53.07-2.29 0-3.23-.62-3.52-2.94a27.66 27.66 0 0 1 3.65-17.05c2.62-4.81 5.74-9.34 9-14.47m41.71 30.77c.57-1.47.69-2.79 1.42-3.49 9.5-9.23 10.55-20.91 9.8-33.13-.06-1-.3-2-.52-3.42h-7.61V291l5-.27c-2.65-7.36-8.59-10.75-15.21-13.77 5-5.88 11.35-5.85 17.47-4.69l5.29-9.32c-3.55-4.19-3.88-7.76-.64-10.65a6.72 6.72 0 0 1 9.38.48c2.79 3 2.28 6.62-1.2 10.14l5.42 9.29c5.89-1 12.3-1.25 17.41 4.67-6.47 3-12.4 6.46-15.25 13.7 2.25 0 3 1.05 2.78 3.17a70 70 0 0 0-.06 7.11l-5.43.32c-2.71 12.77-1.74 24.72 6.38 35.49a28 28 0 0 1 2.17 4.47zm39.23 16.11c5.61.63 7 2.21 7 7.89v9.71h-53.23c0-4.65-.24-9.4.1-14.12.19-2.64 2.52-3.46 4.66-3.35-.76-1.89-2-3.74-2.2-5.71-.53-4.41 1.93-6.89 6.4-6.9h32.74c2.94 0 5.6.27 6.82 3.41s.83 6-1.78 8.35a3.6 3.6 0 0 0-.51.75m-52.55.57c3.62.71 4.52 3.27 4.31 6.73s0 6.71 0 10.3h-53.4c0-4.45-.32-8.92.17-13.32.18-1.6 2.27-3 3.5-4.5l.65.38a32 32 0 0 1-.65-3.21c-.35-3.41 1.67-5.84 5-5.85h35.49c3.38 0 5.26 1.93 5.36 5.34a32 32 0 0 1-.39 4.12m98.17 15.77c5.91-1.12 11.9-1.94 17.74-3.43a112.1 112.1 0 0 0 48.63-26.45c16.38-14.94 28.67-33.22 34.89-56.28a73.9 73.9 0 0 0 2.54-26.13c-1.16-12.94-6.73-22.33-17.3-27.64-4.18-2.11-8.45-4-12.73-5.88-10-4.36-16.42-12.85-21.09-23.38l-2.2-5a52.7 52.7 0 0 0 1.2 18.36 43.1 43.1 0 0 0 15.5 24.22c3.5 2.82 7.2 5.31 10.73 8.09 4.58 3.58 6.17 8.6 5.63 14.81-1.22 14-6.3 26.33-12.76 38-9.5 17.27-22 31.39-36.09 43.86-9.85 8.73-20.44 16.17-31.09 23.51l-3.75 2.62c0 .23.1.47.15.69m104.35-169.3c-8.3.12-14.75 7.6-14.64 17 .11 9.17 6.85 16.44 15.12 16.32 7.94-.12 14.49-7.8 14.36-16.86-.12-9.22-6.76-16.59-14.84-16.47M377.72 311l3.69 5.24c3.32 5.61 4.79 11.67 2.81 18.32-1.35 4.56-4.28 7.76-7.64 10.47-5.93 4.82-12.67 7.74-19.53 10.26-3.71 1.36-7.46 2.55-11.24 4.2 1.86.43 3.7 1 5.58 1.27 11.18 1.6 21.93.06 31.9-6.23a26.8 26.8 0 0 0 12.54-17.32c2.64-11.83-4.28-23.89-14.88-26a25 25 0 0 0-3.23-.21m64.44-37.17c-21.29 3.69-39.51-2.14-54.43-20.07a39.1 39.1 0 0 0 6.68 17.31 31.14 31.14 0 0 0 22.74 13.41c7.32.79 14.2-.7 20.25-5.65a53 53 0 0 0 4.76-5"/><path fill="#fff" d="M332.46 196.55c0 8.7 6.23 15.76 13.9 15.76s13.91-7.06 13.91-15.76-6.23-15.76-13.91-15.76-13.9 7.06-13.9 15.76"/></g></svg>