<svg xmlns="http://www.w3.org/2000/svg" data-name="Capa 1" viewBox="0 0 512 512"><path d="M85.04 85.04h341.92v341.92H85.04z" style="fill:#ab7cb1" transform="rotate(-45 256 256.002)"/><path d="M256 0 0 256l256 256 256-256Zm0 14.22L497.78 256 256 497.78 14.22 256Z" style="fill:#25204d"/><path d="m302.23 238.81-68.94-46.41c-2.77-1.86-7.13-3-11.67-3-.65 0-1.31 0-2 .07v95.65l80.94-39c2.89-1.4 4-3 4.08-4s-.82-2.21-2.46-3.31"/><path d="M326.09 158.38H163.32A17.33 17.33 0 0 0 146 175.72V303.8a17.3 17.3 0 0 0 2.92 9.63c-8.53 11.64-22.46 27.23-35.25 26-18.38-1.75 34 14.78 57.46-18.3h155a17.33 17.33 0 0 0 17.33-17.34V175.72a17.33 17.33 0 0 0-17.33-17.34m-21.72 95.56-81.49 39.28a29 29 0 0 1-6.68 2.19l-5.2 1.07V182.17l3.46-.71a36 36 0 0 1 7.15-.71c6.29 0 12.31 1.63 16.51 4.46l68.95 46.41c4.28 2.87 6.57 6.93 6.26 11.13-.32 4.53-3.59 8.6-9 11.19" style="fill:#fff"/><path d="m356.89 189.8-6.13-.54c1.31-14.81-1.44-25.81-8.18-32.69-8.33-8.52-20.24-7.83-20.36-7.82l-.43-6.14c.59-.05 14.77-.94 25.13 9.59 8.09 8.22 11.44 20.87 10 37.6M374.87 174l-6.13-.55c1.31-14.8-1.44-25.8-8.17-32.68-8.33-8.52-20.25-7.82-20.36-7.82l-.44-6.14c.6 0 14.78-.94 25.13 9.59 8.1 8.22 11.45 20.86 10 37.6"/></svg>