<svg xmlns="http://www.w3.org/2000/svg" id="Capa_1" data-name="Capa 1" viewBox="0 0 512 512"><defs><style>.cls-4{fill:#1d1515}</style></defs><path d="M85.04 85.04h341.92v341.92H85.04z" style="fill:#ded300" transform="rotate(-45 256 256.002)"/><path d="M256 0 0 256l256 256 256-256Zm0 14.22L497.78 256 256 497.78 14.22 256Z" style="fill:#b9870f"/><path d="M164.7 118.72c-13.39.2-23.77 12.27-23.6 27.44.19 14.77 11 26.48 24.37 26.28 12.81-.18 23.36-12.57 23.16-27.16-.2-14.87-10.9-26.75-23.93-26.56" style="fill-rule:evenodd"/><path d="M150.4 181.61s-17.4 9.45-22.4 36.91-.53 94 25.78 111.84 66.32 25.55 66.32 25.55l62.44 58.64s13.52 9 3.43-16.24-40.13-69.37-40.13-69.37l-48.65-18 39.71-20.16L313.31 327s17.6.62-8.39-18.73-53.07-48.19-53.07-48.19L199.78 273s-15.09 13-12-12.56a469 469 0 0 0 3.15-47.91l35.51-14.88 35.87-49.5s5.15-18.19-11.66-5.54-36.2 27.85-36.2 27.85Z" class="cls-4"/><path d="m317.27 70.28-58.24 82.39 57.95 76.38-25.96 35.4 33.9 98.9-66.42 70.05 19.19 47.24 9.76-56.56 54.8-62.48-24.5-92.29 26.19-43.83-57.84-73.1z" class="cls-4"/></svg>