<svg id="Capa_1" data-name="Capa 1" xmlns="http://www.w3.org/2000/svg" viewBox="0 0 512 512"><defs><style>.cls-1{fill:#e83876;}.cls-2{fill:#dd0162;}.cls-3{fill:#fff;}.cls-4{fill:#db0357;}.cls-5{fill:#1c1514;}</style></defs><rect class="cls-1" x="85.04" y="85.04" width="341.92" height="341.92" transform="translate(-106.04 256) rotate(-45)"/><path class="cls-2" d="M256,0,0,256,256,512,512,256Zm0,14.22L497.78,256,256,497.78,14.22,256Z"/><path class="cls-3" d="M161.64,181.15s20.05-37.22,59.74-37.78C254.57,186.72,301.2,246,301.2,246l9.42,63.6-8.76,9.09-57.75-29.55Z"/><path class="cls-4" d="M318.14,326.68s62.76-46.19,61.47-93.54c-1-36.77-38.84-58.73-61.51-53.7s-49.55,21.13-49.55,21.13l-7.08-9.16s37-29.81,78.85-25.78,79.82,31.72,42.32,101.77c-31.75,59.28-64.5,59.28-64.5,59.28"/><path class="cls-4" d="M202,238.22l5.89,7.76s-26.31,31.5-33.36,62.24,6.54,85.14,42.82,94.21S302,395.38,363,339s46.85-130.49,41.81-144.09S372.45,152.33,329.7,152c36.31-11.59,68,6.54,85.17,42.31s7,79.61-16.91,117.39S331.75,393.36,265.74,411,166,395.88,165,357.59,162.52,289.13,202,238.22"/><path class="cls-5" d="M305.25,246.24l-.14-1-.62-.8c-.69-.88-69.59-89.25-91.64-119.31l-1.39-1.9-2.32.42c-28.17,5.14-43,16.85-50.56,25.77-8.38,9.94-9.85,18.8-9.91,19.16l-.26,1.6,11.05,14.36,82.13,108.32.55.73,74.65,35.65ZM185.46,158.57l69,95.45c0,3.92-.54,23.06-9.12,31.28L166.82,181.76a68.69,68.69,0,0,1,18.64-23.19m88.39,100.09a54.43,54.43,0,0,0,24.72-5.73l6.73,48.31c-5.52-1.74-9.47,1.62-10.87,9l-42.91-20.48c8.26-9,10-24.28,10.37-32.23a63.17,63.17,0,0,0,12,1.17m-.2-7.58a56.25,56.25,0,0,1-13.23-1.62l-68.77-95.17a58.19,58.19,0,0,1,27.49-8.19C243.27,178,282.73,228.74,296,245.75a48.07,48.07,0,0,1-22.33,5.33M213.79,139a66.27,66.27,0,0,0-41,21,77,77,0,0,0-11,15.15l-5.29-6.86c1.78-6.07,11-28.61,51.74-36.8,1.65,2.24,3.54,4.77,5.59,7.5"/></svg>