<svg xmlns="http://www.w3.org/2000/svg" data-name="Capa 1" viewBox="0 0 512 512"><path d="M85.04 85.04h341.92v341.92H85.04z" style="fill:#ab7cb1" transform="rotate(-45 256 256.002)"/><path d="M256 0 0 256l256 256 256-256Zm0 14.22L497.78 256 256 497.78 14.22 256Z" style="fill:#25204d"/><path d="M472.37 254c-7.1-4.11-11.56-10.64-16-17.22-5.42-8.09-10.93-16.13-16.37-24.21-4.8-7.15-10.43-13.34-18-17.77-28.78-16.81-60.37-21.47-93-22.05-19.08-.33-37.21 5.19-55.67 8.75a28.5 28.5 0 0 1-4.89.42c-3.82.05-7.7-.39-11.46.08-6.29.8-12.48 2.59-18.77 3.18-17.63 1.67-31.74 9.2-42 23.79a15.8 15.8 0 0 1-3.94 4.35c-2.77 1.79-5.41 2-9 .4-6.7-3-9.32-9.37-13.87-14.11s-9.85-7.7-16.77-6.7c-4.76.69-9.34 1.62-12.78 5.43a2.45 2.45 0 0 1-2.39.26c-3.46-3.24-7.33-1.26-10.23.07-5.94 2.72-11.24 1.72-16.57-.9-2.58-1.27-4.3-.8-4.82 1.85-.71 3.69-3.39 4.94-6.3 6.34a116 116 0 0 0-11.19 6.16c-8.9 5.68-15.19 13.15-15.45 24.32-.06 2.84-1.58 6.9 4.06 6.4.22 0 .47.46.68.94.49 2.72 1.08 5.34 1.4 4.83s1.64-3.49 2.73-6.05a4 4 0 0 1 1-.32c.89-.11 2 1.61 2.68 2.18a.3.3 0 0 0 .09-.08l1.59 4.34.81-6.25a1.6 1.6 0 0 1 .53-.2 5 5 0 0 1 2.22.41l1.64 4.21 1-4.19c3.27-3.09 8.87-1.14 13.09-4.94-.62 9.6-3.82 17-9.73 22.85-3.62 3.59-8.4 6-12.57 9-2.94 2.13-4.31 8.73-2.54 11.42a8.31 8.31 0 0 0 11.25 2.59c12.37-7.46 24.69-15 36.71-23a22 22 0 0 0 7.33-9.05c3-6.86 13.31-12.12 19.79-8.36 7.11 4.1 13.49 9.45 20.68 14.61-11.67 3.29-16.89 8.89-16 14.8a.4.4 0 0 1 .06.08c0 .23 0 .45.08.68l.57.14c2.1 2.58 8.48 9.48 12.51 3.71 4.87-7 1.95-6.66 1.95-6.66l-5.2 3.41-.34-5.11c1.51-3 3.94-3.54 7.93-1.95 3 1.19 5.82 2.86 8.9 3.48a109 109 0 0 0 14.68 1.71c2.08.13 4.22-.8 6.34-1 2.42-.2 4.93.29 7.24-.2 4.73-1 6.57 1.52 8 5.65-5.2-.15-9.73-.33-14.25-.36-4.34 0-21.59-.37-26.21 3.44 1.67.8 15.51-1.45 17.28-.59-2.36 1.87-10.51 6.87-12.42 8.39.17.35 3.41-.2 3.58.16 5.37-1.12 13.9-4.84 19.24-5.95.07.37.12.73.17 1.11l-6.95 8.14.77 1c2.84-1.17 6.38-1.64 8.39-3.65 4.36-4.35 8.71-6 14.65-3.76 3.89 1.47 8.09 2.35 10.93-2.91l7.21 4.61v1.9c-3.55 1.23-7 2.68-10.66 3.66-7.51 2-15.21 3.46-19.62 11-2.07 3.55-4.78 6.71-6.78 10.28a14.9 14.9 0 0 0-1.89 6.74c-.05 2.71 1.24 4.44 4.29 2.21.89-.62 2.67-1.35 3.17-1 3.2 2.57 5.77-.17 7.5-1.51a102.4 102.4 0 0 0 12.73-12.09c2.51-2.76 5.14-3.1 8.56-2.42-.19 2.1-.34 3.89-.57 6.66 1.67-1.36 2.83-2.17 3.81-3.15 4.72-4.68 8.84-10.07 16.14-11.2 3.39-.54 4.23-3.4 3.36-6.35a18.9 18.9 0 0 0-3.05-5.53c-2.44-3.34-5.09-6.52-7.65-9.76 7.92.71 13.22-3.32 18.22-8.43a22 22 0 0 1 1.43 2.62 11.3 11.3 0 0 1 .8 3.08c.65 12.73 5.4 24.24 10.43 35.69 3.18 7.25 4.57 14.78 2.51 22.69-3.86 14.81-11.86 25.36-27.93 28.26-2.53.47-4.68 3-7.7 5 3.16.61 5 .56 6.4 1.32 6.65 3.52 13.51 3.94 20.65 2 .87-.24 1.75-.39 2.77-.6.42 1.17.79 2.24 1.15 3.24 8.27-1.1 14.56-6.14 15.95-11.36a128.5 128.5 0 0 1 7.09-21c2-4.43 2-8.14.91-12.61a106.7 106.7 0 0 1-2.7-17.78c-.26-3.89.52-7.89 1.24-11.77 1.47-8-.37-14.92-4.92-21.59a13.76 13.76 0 0 1-1.9-8.44c.86-8.62 2.55-17.16 3.5-25.78a12.2 12.2 0 0 1 5.71-9.3 50 50 0 0 0 5.64-5.17c4.73-4.45 8.7-10.44 14.27-13.12a127.74 127.74 0 0 1 77.25-11.22c11.61 1.85 21 6.43 28.49 15.42 8.43 10.18 16.95 20.27 25.45 30.4 3.46 4.13 7.22 7.84 13.72 9.13-1-1.28-1.35-2-1.94-2.37" style="fill-rule:evenodd"/></svg>