<svg xmlns="http://www.w3.org/2000/svg" id="Capa_1" data-name="Capa 1" viewBox="0 0 512 512"><defs><style>.cls-3{fill-rule:evenodd}</style></defs><path d="M85.04 85.04h341.92v341.92H85.04z" style="fill:#e83876" transform="rotate(-45 256 256.002)"/><path d="M256 0 0 256l256 256 256-256Zm0 14.22L497.78 256 256 497.78 14.22 256Z" style="fill:#dd0162"/><path d="M361 246a132.94 132.94 0 0 0-16.69-57.73c-.86-1.56-2.31-4.05-3.45-4-7.94.21-10.66-6.22-14.63-11-39.55-47.42-103.69-46.54-142.41 1.72-3 3.79-8.11 5.92-12.21 8.87a15 15 0 0 0-3.47 3c-8.59 11.8-17.69 43.39-17.13 59.21 13.36-4.76 17.9-2.32 21.83 11.74 6.61 23.62 13.27 47.21 19.8 70.84 3.78 13.72-1.41 19.95-15.53 18.95a7 7 0 0 1-.8-.06c-23.05-2-24.76-3.4-30.94-25.58-4.07-14.63-8.25-29.26-12.3-43.9-.78-2.81-2.09-5.85-1.68-8.56 2.67-17.76 5.32-35.55 8.9-53.15 1.68-8.26 5.34-16.14 8.24-24.15 1.62-4.52 5.13-8.49 1.84-14-.89-1.5.75-5.14 2.08-7.24 51.34-81.23 155.62-81 206.6 0 1.65 2.63 1 6.72 1.38 10.14.25 2.15-.1 4.58.77 6.43 10 21.35 15.42 43.7 15.28 67.33 0 1.59-.48 3.74.35 4.7 7.23 8.25 2.75 16.66.49 24.94-4.41 16.2-9.25 32.29-13.56 48.52-1.79 6.72-5.44 10.73-12.38 11.76-6.06.89-12.07 2.44-18.15 2.84-12.09.79-17.25-5.79-14-17.64 5.25-19.3 10.74-38.53 16.11-57.78 1.51-5.38 2.91-10.81 4.47-16.18 3.37-11.64 9-14.49 21.21-10M127.59 278.34c1.38 2.4 2.78 4 3.3 5.83q6 21.07 11.71 42.23c.49 1.8-.17 3.91-.31 5.87-1.94-.3-4.12-.11-5.78-.95-18.21-9.33-24.13-31-13.28-48.32.92-1.48 2.41-2.61 4.36-4.66M385 279.09c16.44 15.81 9.81 46.38-11.17 53-1.22.39-5-2.5-4.81-3.11 4.35-16.13 9.06-32.17 13.79-48.2.18-.59 1.19-1 2.19-1.72" class="cls-3"/></svg>