<svg id="Capa_1" data-name="Capa 1" xmlns="http://www.w3.org/2000/svg" viewBox="0 0 512 512"><defs><style>.cls-1{fill:#ab7cb1;}.cls-2{fill:#25204d;}.cls-3{fill:#fff;}.cls-4{fill:#f9e927;}.cls-5{fill:#1d1d1b;}</style></defs><rect class="cls-1" x="85.04" y="85.04" width="341.92" height="341.92" transform="translate(-106.04 256) rotate(-45)"/><path class="cls-2" d="M256,0,0,256,256,512,512,256Zm0,14.22L497.78,256,256,497.78,14.22,256Z"/><path d="M336.39,116c6.35,2.76,8.64,7.74,8.17,14.44-.25,3.53,0,7.09,0,10.89H322.57c-.05-.92-.17-2-.18-3,0-3.46,0-6.93,0-10.39-.05-6.07,3-9.86,8.55-11.94Z"/><path d="M396,340.75c-2.83,6.45-8,8.59-14.69,8.13-3.5-.23-7,0-10.73,0V326.45c6,.27,12,.14,17.84,1,4.06.58,6.17,4.15,7.58,7.86Z"/><path d="M396,288.8c-2.44,6.26-7.06,8.79-13.68,8.32-3.8-.26-7.64,0-11.69,0v-21.7c5.59,0,11.21-.38,16.76.12,4.46.4,6.89,3.95,8.61,7.83Z"/><path d="M284.44,116c6.3,2.4,8.82,7,8.38,13.65-.26,3.87-.05,7.77-.05,11.79H271.3c0-5.91-.4-11.79.14-17.59.38-4.12,4-6.19,7.54-7.85Z"/><path d="M396,185.45c-2.39,6.31-7,8.83-13.64,8.43-3.88-.23-7.78,0-11.81,0V172.37c6,0,12-.43,17.84.15,4,.39,5.95,4,7.61,7.46Z"/><path d="M181.09,116c6.33,2.35,8.88,7,8.5,13.61-.23,3.87-.05,7.77-.05,11.82H167.48v-5.58c0-3-.07-6,0-9,.17-5.49,3.48-8.68,8.12-10.84Z"/><path d="M233,116c6.41,2.7,8.7,7.65,8.21,14.37-.27,3.6-.05,7.24-.05,11H219.48c0-5.84-.44-11.58.15-17.22.44-4.32,4.06-6.64,7.94-8.19Z"/><path d="M396,237.4c-2.74,6.37-7.71,8.65-14.41,8.19-3.6-.26-7.23-.05-11-.05V223.81c5.87,0,11.61-.44,17.26.15,4.32.44,6.64,4.07,8.17,8Z"/><path d="M150.09,256q0-45.51,0-91c0-5,1.45-9.3,5.65-12.37,2.87-2.09,6.16-2.54,9.58-2.54H346.83c4.25,0,8.12.89,11.22,4,2.94,3,3.89,6.67,3.88,10.74q0,29.25,0,58.5,0,61.77,0,123.56c0,4.68-1.16,8.8-4.9,11.92-3.05,2.55-6.65,3.13-10.47,3.13h-181c-10.26,0-15.51-5.23-15.51-15.44Zm22.34-83.66V339.61H339.55V172.33Z"/><path d="M141.5,327v22c-6.08-.3-12.09-.09-17.91-1-4.93-.8-7.82-5.89-7.56-11.2.22-4.62,3.69-9.17,8.48-9.65C130.05,326.62,135.68,327,141.5,327Z"/><path d="M141.46,223.33v21.82c-5.66,0-11.21.46-16.65-.13s-8.9-5.42-8.79-11a10.77,10.77,0,0,1,9.11-10.33,17.49,17.49,0,0,1,3-.3C132.45,223.31,136.8,223.33,141.46,223.33Z"/><path d="M167.57,370.51h22.32c-.3,6.06-.06,12.1-1,17.93-.85,5.05-6.15,7.95-11.53,7.52a10.77,10.77,0,0,1-9.68-9.9C167.29,381,167.57,375.89,167.57,370.51Z"/><path d="M141.48,171.84v21.71c-5.74,0-11.39.42-16.95-.12-5.21-.51-8.71-5.75-8.5-11.36a10.69,10.69,0,0,1,9.66-10.16C130.85,171.61,136,171.84,141.48,171.84Z"/><path d="M141.48,275.14V296.9c-5.66,0-11.22.41-16.69-.12s-9.23-6.07-8.75-12a10.85,10.85,0,0,1,10.47-9.65C131.41,275.08,136.32,275.14,141.48,275.14Z"/><path d="M219.28,370.56H241.1c0,5.51.41,10.9-.11,16.19-.57,5.87-5.86,9.61-11.88,9.21a10.76,10.76,0,0,1-9.8-10.56C219.17,380.51,219.28,375.62,219.28,370.56Z"/><path d="M270.82,370.54h21.66c0,5.92.53,11.76-.16,17.46-.63,5.11-6,8.3-11.47,8a11.07,11.07,0,0,1-10-9.67,20.7,20.7,0,0,1-.08-2.73Z"/><path d="M322.55,370.54h21.69c0,5.64.51,11.21-.14,16.64-.7,5.79-5.74,9.13-11.62,8.79a10.7,10.7,0,0,1-9.87-10.23C322.35,380.77,322.55,375.77,322.55,370.54Z"/><path class="cls-3" d="M172.43,172.33H339.55V339.61H172.43Z"/><path class="cls-4" d="M219.05,330.79l22.08-66.05-24-5.95,77.72-77.58c-7.89,21.6-16.28,44.6-24.84,68l24.44,6.13Z"/><path class="cls-5" d="M297.27,181.87c.89-2.42-2.5-4.1-4.18-2.43l-60.5,60.4L215.37,257a2.52,2.52,0,0,0,1.1,4.18l21.44,5.31-16.42,49.11-4.74,14.19a1.86,1.86,0,0,0-.18.64A2.16,2.16,0,0,0,218,333a2.29,2.29,0,0,0,2.86-.4l58.84-58.85,16.57-16.57a2.52,2.52,0,0,0-1.1-4.18l-21.82-5.48L292,196.32Q294.63,189.11,297.27,181.87Zm-63.4,130.57-9.09,9.08,13.8-41.28q2.49-7.41,5-14.84a2.5,2.5,0,0,0-1.74-3.07L222,257.43l57.74-57.63,8.88-8.87q-7.71,21.13-15.43,42.25l-5.62,15.39a2.53,2.53,0,0,0,1.75,3.08l20.22,5.07Z"/></svg>