<svg xmlns="http://www.w3.org/2000/svg" id="Capa_1" data-name="Capa 1" viewBox="0 0 512 512"><defs><style>.cls-3{fill:#fff}</style></defs><path d="M85.04 85.04h341.92v341.92H85.04z" style="fill:#7dba32" transform="rotate(-45 256 256.002)"/><path d="M256 0 0 256l256 256 256-256Zm0 14.22L497.78 256 256 497.78 14.22 256Z" style="fill:#13a646"/><path d="m358.76 370.34-7.9-65.49-24.61-33c-2.66 21.22-8.29 67.93-8.29 67.93ZM183 278.55l-27.05 23.32-2.67 81.88 41.61-38S182 298.41 183 278.55M252.84 79.31c-14.66 9.16-47.23 68.21-47.23 68.21h97.74S272.59 89 252.84 79.31"/><path d="M221.59 345.63v21.48h23.78v-21.4h18.43v21.38h23.77v-21.41c8.1-.05 15.38-.11 21-.21 31.2-113.52 0-181.45 0-181.45s-55.18 1.84-106.66 0c-35 60.69-.4 181.51-.4 181.51l20.06.1m32.78-148.71a37.17 37.17 0 1 1-37.16 37.17 37.16 37.16 0 0 1 37.16-37.17"/><path d="M307.61 386.68a14.86 14.86 0 0 0-13.54-8.8 14.6 14.6 0 0 0-3.39.43 12.25 12.25 0 0 0-22.95 0 14.37 14.37 0 0 0-13.16 3.31 14.8 14.8 0 0 0-8.42-2.63 15 15 0 0 0-3.38.42 12.25 12.25 0 0 0-23 0 15 15 0 0 0-3.39-.42 14.8 14.8 0 0 0-14.74 13.7c-4.22 3.21-6.83 7.58-6.83 12.41 0 9.82 10.72 17.78 24 17.78a27.9 27.9 0 0 0 17.78-6 27.94 27.94 0 0 0 17.79 6 31.2 31.2 0 0 0 9.11-1.34c1.07.1 2.13.23 3.24.23a27.93 27.93 0 0 0 17.78-6 27.9 27.9 0 0 0 17.78 6c13.24 0 24-8 24-17.78 0-8.47-8-15.51-18.64-17.31M254.48 271.85a37.17 37.17 0 1 1 37.16-37.17 37.16 37.16 0 0 1-37.16 37.17" class="cls-3"/></svg>