<svg xmlns="http://www.w3.org/2000/svg" data-name="Capa 1" viewBox="0 0 512 512"><path d="M85.04 85.04h341.92v341.92H85.04z" style="fill:#e83876" transform="rotate(-45 256 256.002)"/><path d="M256 0 0 256l256 256 256-256Zm0 14.22L497.78 256 256 497.78 14.22 256Z" style="fill:#dd0162"/><path d="m358.35 289.4-55.12-30.3-3.16-38.1s20.21-28 18.66-69.93-59.06-42-87-37.3-33.41 37.3-33.41 37.3-13.21 36.51-17.09 51.28 1.55 14 1.55 14l15.54-.77v21.9c0 21.9 8.79 17.72 8.79 17.72l28.5 3.11s-33.4 15.54-48.16 24.86a24.79 24.79 0 0 0-11.66 24.87l63.61 37.39c-11.4.68-27.55 1.54-30.94 4.29-8.91 7.24-9.13 14.83-9.86 19.7H342s-4.84-18.22-18.65-21.76c-2.79-.71-17.88-.26-25.44-1.06 23.68-12.82 51-29.72 62.06-36.13a20.18 20.18 0 0 0-1.65-21.08M198.29 372.54a24 24 0 0 1 .28-3.11h-.28Z"/><path d="M232.69 168.27A10.75 10.75 0 1 1 222 158a10.53 10.53 0 0 1 10.74 10.3" style="fill:#fff"/></svg>