<svg id="Capa_1" data-name="Capa 1" xmlns="http://www.w3.org/2000/svg" viewBox="0 0 512 512"><defs><style>.cls-1{fill:#dcecf4;}.cls-1,.cls-3,.cls-4{fill-rule:evenodd;}.cls-2{fill:#0093c5;}.cls-4{fill:#fff;}</style></defs><polygon class="cls-1" points="258.11 508.89 5.38 261.5 252.76 8.76 505.5 256.16 258.11 508.89"/><path class="cls-2" d="M364.09,293.89s-.81,3.17-2,7.93c-.48,2.42-1.7,5-2.68,7.94-.55,1.43-1,2.94-1.67,4.43l-2.12,4.4c-.71,1.47-1.42,3-2.11,4.41s-1.65,2.74-2.44,4.05a71.82,71.82,0,0,1-4.54,7.05c-2.95,3.94-4.92,6.55-4.92,6.55l6,4.94,5.26-7a78.43,78.43,0,0,0,4.87-7.55c.84-1.42,1.76-2.85,2.6-4.35l2.27-4.73c.76-1.57,1.53-3.15,2.27-4.71s1.21-3.21,1.79-4.75c1.07-3.11,2.35-5.92,2.88-8.51l2.18-8.5Z"/><path class="cls-2" d="M336.27,346.4l5.6,5.35c.21.21-8.14,7.71-8.14,7.72l-5-5.85s7.8-7,7.58-7.22"/><path class="cls-2" d="M322.28,358.7l4.59,6.22-1.4,1c-.86.61-1.93,1.53-3.13,2.26l-4.79,2.91-4-6.63,4.47-2.71c1.11-.69,2.12-1.55,2.92-2.12l1.31-1"/><path class="cls-2" d="M366.14,275.64l7.72.29-.28,5.6c-.05.7-.09,1.4-.12,2.05l-.27,1.78c-.16,1-.26,1.74-.26,1.74l-7.66-1s.09-.64.24-1.61c.08-.49.17-1,.26-1.67s.07-1.26.1-1.92c.14-2.6.27-5.23.27-5.23"/><path class="cls-2" d="M306.7,368.38l-2,1c-1.3.59-3.09,1.61-5.37,2.5s-5,1.83-7.89,2.87-6.12,1.65-9.28,2.52l-2.37.6-2.41.37-4.68.71c-1.52.2-3,.54-4.38.59l-4,.2-5.93.3c-1.43,0-2.25-.07-2.25-.07l-.13,7.73s.88.08,2.41.08l6.34-.32,4.25-.22c1.51-.06,3.07-.41,4.7-.62l5-.77,2.58-.4,2.55-.64c3.39-.93,6.84-1.63,9.94-2.7s6-2.18,8.45-3.09,4.37-2,5.77-2.66l2.18-1.05Z"/><path class="cls-2" d="M248.33,379.49l-.69,7.7s-.7,0-1.75-.12l-3.81-.57c-2.78-.42-5.55-.86-5.55-.86l1.42-7.59,5.18.78c1.29.21,2.6.4,3.56.55s1.64.11,1.64.11"/><path class="cls-2" d="M230,376.19l-2,7.46-1.7-.43a35.63,35.63,0,0,1-3.71-1.06l-5.27-1.92L220,373l4.91,1.8a31.83,31.83,0,0,0,3.47,1l1.58.41"/><path class="cls-2" d="M152.84,297.58s-.21-.79-.56-2.18a39.92,39.92,0,0,1-1.09-5.83c-.3-2.44-1-5.25-1.12-8.32s-.32-6.34-.49-9.61c.17-3.27.33-6.55.48-9.61s.82-5.87,1.12-8.32a42.26,42.26,0,0,1,1.08-5.82l.57-2.19-7.51-1.84-.61,2.33a48.54,48.54,0,0,0-1.16,6.25c-.32,2.62-1,5.63-1.19,8.91s-.34,6.79-.52,10.29c.18,3.5.36,7,.53,10.29s.86,6.29,1.19,8.91a46.3,46.3,0,0,0,1.17,6.25l.6,2.33Z"/><path class="cls-2" d="M155,238.19l-7.36-2.39s1-2.63,1.93-5.26c.48-1.33,1-2.64,1.33-3.63a10.75,10.75,0,0,1,.71-1.59l7.09,3.08a9.86,9.86,0,0,0-.66,1.5l-1.24,3.37-1.8,4.92"/><path class="cls-2" d="M172.14,205.6l1.35-1.81a55.9,55.9,0,0,1,3.89-4.47,106.28,106.28,0,0,1,13-12.39c2.65-1.93,5.19-4,7.76-5.69l7.18-4.36c2.1-1.27,4-2,5.29-2.67l2-1-3.25-7s-.78.39-2.16,1-3.43,1.52-5.68,2.87l-7.69,4.66c-2.74,1.81-5.48,4-8.31,6.09a115.79,115.79,0,0,0-14,13.27,55.8,55.8,0,0,0-4.15,4.81c-.93,1.22-1.45,1.92-1.45,1.92Z"/><path class="cls-2" d="M162.2,221l-6.83-3.61a13.49,13.49,0,0,1,.8-1.56l2-3.3,2.91-4.8,6.45,4.27-2.72,4.47c-.68,1.12-1.36,2.24-1.86,3.08a10.09,10.09,0,0,0-.76,1.45"/><path class="cls-2" d="M219.91,170.28l-2.72-7.23,5.27-1.92a31.09,31.09,0,0,1,3.7-1.08l1.7-.43,2,7.47-1.58.4a27.11,27.11,0,0,0-3.45,1l-4.92,1.79"/><path class="cls-2" d="M256.08,163.31s.82-.08,2.25-.09l5.93.32c1.24,0,2.56.11,4,.18s2.87.39,4.39.59l4.68.72,2.41.36c.79.17,1.58.4,2.37.6,3.16.88,6.38,1.51,9.28,2.5l7.88,2.89c2.28.88,4.08,1.91,5.38,2.49l2,1,3.47-6.9-2.17-1c-1.4-.63-3.32-1.72-5.78-2.67l-8.44-3.09c-3.12-1.07-6.57-1.77-9.95-2.69-.85-.21-1.69-.46-2.55-.64l-2.59-.4-5-.76A46,46,0,0,0,269,156l-4.23-.23-6.36-.3c-1.53,0-2.41.07-2.41.07Z"/><path class="cls-2" d="M237.82,165.22l-1.44-7.6,5.56-.85,3.81-.57a15.62,15.62,0,0,1,1.75-.13l.69,7.7a13.18,13.18,0,0,0-1.63.11c-1,.16-2.27.35-3.56.55l-5.18.79"/><path class="cls-2" d="M313.46,178.67l4-6.63,4.8,2.91c1.2.72,2.26,1.64,3.13,2.25l1.4,1.06-4.59,6.21-1.31-1c-.8-.56-1.8-1.43-2.92-2.1l-4.48-2.72"/><path class="cls-2" d="M341.55,202.55a4.45,4.45,0,0,1,.36.47l1,1.34,3.56,4.75a69.8,69.8,0,0,1,4.54,7c.79,1.33,1.64,2.65,2.44,4.07s1.4,2.93,2.11,4.4,1.42,2.94,2.13,4.39,1.12,3,1.66,4.43c1,2.91,2.21,5.52,2.69,7.94,1.23,4.77,2,7.93,2,7.93l7.55-1.58s-.86-3.4-2.18-8.5c-.52-2.59-1.81-5.4-2.88-8.51-.58-1.54-1.1-3.16-1.79-4.75s-1.51-3.13-2.27-4.72-1.52-3.16-2.28-4.71-1.75-2.94-2.6-4.36a79.7,79.7,0,0,0-4.87-7.55c-1.58-2.1-2.89-3.85-3.81-5.09l-1.07-1.42a5.62,5.62,0,0,0-.39-.49Z"/><path class="cls-2" d="M328.59,189.54l5.05-5.86s8.35,7.5,8.12,7.72l-5.58,5.35c.22-.22-7.59-7.21-7.59-7.21"/><path class="cls-2" d="M365.25,257l7.66-1s.11.69.26,1.74a23.72,23.72,0,0,1,.39,3.83l.3,5.6-7.73.3s-.13-2.63-.27-5.24a21,21,0,0,0-.37-3.58c-.15-1-.24-1.62-.24-1.62"/><path class="cls-3" d="M357,261.11c1.26-3,.26-4.34-2.82-5.31-6.5-2.07-9.27-6.72-6.64-12.47s6.43-11.06,9.88-16.46c1.3-2,3.39-2.11,4.72-.06,3.49,5.39,7.28,10.7,9.92,16.45s-.11,10.47-6.53,12.51c-3,1-4.18,2.18-3,5.23a78.34,78.34,0,0,1,9.26,1.59,56.37,56.37,0,0,1,10.82,4.1c4,2.09,6.18,5.4,6.17,9.87-.06,25.85,0,51.7-.06,77.56,0,6.29-3.93,9.81-10.75,9.85q-18.17.09-36.3,0c-6.88,0-10.83-3.52-10.84-9.77-.07-26,0-52-.05-77.94a10.16,10.16,0,0,1,6.45-9.69c4.6-2.06,9.65-3.29,14.56-4.73a32,32,0,0,1,5.17-.73m.53,4.54c-6.76.4-12.6,1.43-17.82,4.52-2.63,1.56-4.08,3.58-4.07,6.68.09,25.69,0,51.39.07,77.08,0,4,1.8,5.77,6,5.81q18.15.11,36.26,0c4.05,0,5.91-1.82,5.92-5.5q.06-38.93-.05-77.85a6.47,6.47,0,0,0-1.84-4.47c-5.45-4.74-12.32-5.89-19.93-6.07a42.52,42.52,0,0,1-.11,6.57c-.14.84-1.44,1.55-2.21,2.3-.74-.79-2-1.52-2.12-2.39a44.77,44.77,0,0,1-.11-6.67m3-34.2-1.51,0c-2.42,4.57-5.23,9-7.16,13.73-1.55,3.79.84,6.17,4.52,6.31,1.22-1.9,2.22-3.48,3.23-5.06,1.21,1.66,2.43,3.33,3.76,5.17,4.15-.92,5.94-3,4.3-6.82-2-4.59-4.72-8.89-7.14-13.31"/><path class="cls-4" d="M357.57,265.65a44.9,44.9,0,0,0,.1,6.67c.16.87,1.39,1.6,2.13,2.39.77-.75,2.07-1.46,2.21-2.3a42.52,42.52,0,0,0,.11-6.57c7.61.18,14.48,1.33,19.93,6.07a6.43,6.43,0,0,1,1.84,4.47q.17,38.92.05,77.85c0,3.68-1.87,5.47-5.92,5.5q-18.12.13-36.26,0c-4.22,0-6-1.85-6-5.81,0-25.69,0-51.39-.07-77.08,0-3.1,1.44-5.12,4.07-6.68,5.22-3.09,11.06-4.12,17.82-4.52m2,21.81c5.27-1.18,10.25-1.94,14.9-3.52,2.27-.77,4.21-2.9,5.66-4.81.6-.78-.49-2.63-.82-4-1.09.66-2.64,1.1-3.23,2-4.25,6.62-27.87,7-32.2.38-.22-.33-.17-.9-.45-1.05-.95-.54-2-.95-3-1.42-.46,1-1.6,2.38-1.24,2.87,1.46,2.05,3,4.69,5.2,5.53,4.82,1.83,10.08,2.71,15.17,4"/><path class="cls-4" d="M360.57,231.45c2.42,4.42,5.17,8.72,7.14,13.31,1.64,3.84-.15,5.9-4.3,6.82-1.33-1.84-2.55-3.51-3.76-5.17-1,1.58-2,3.16-3.23,5.06-3.68-.14-6.07-2.52-4.52-6.31,1.93-4.74,4.74-9.16,7.16-13.73l1.51,0"/><path class="cls-3" d="M359.58,287.46c-5.09-1.26-10.35-2.14-15.17-4-2.22-.84-3.74-3.48-5.2-5.53-.36-.49.78-1.89,1.24-2.87,1,.47,2,.88,3,1.42.28.15.23.72.45,1.05,4.33,6.59,27.95,6.24,32.2-.38.59-.94,2.14-1.38,3.23-2,.33,1.36,1.42,3.21.82,4-1.45,1.91-3.39,4-5.66,4.81-4.65,1.58-9.63,2.34-14.9,3.52"/><path class="cls-3" d="M147.65,322.13A28.21,28.21,0,0,1,137,305c-1.91-9.11-1.81-18.18,2.22-26.81,6.27-13.42,16.87-21.27,31.7-23.17,16.62-2.12,32.28,6.95,39.6,21.11,7.72,14.95,5.18,34.74-7.42,45.94-.42.37-.86.72-1.41,1.18-1.31-2.77-2.5-5.44-3.81-8A121,121,0,0,0,186.2,296c-1.85-2.43-4.19-3.14-6.85-2.12a5.19,5.19,0,0,0-3.26,6c.82,5,1.88,9.9,2.95,14.82a4.51,4.51,0,0,1-.4,2.95,33.35,33.35,0,0,0-1.93,7.58,45.88,45.88,0,0,0-.06,6.44h-4.43c0-2.42.14-4.71,0-7-.23-2.9-.47-5.84-2.23-8.38-.28-.39,0-1.19.07-1.78.95-5,2-10,2.85-15a5.17,5.17,0,0,0-3.29-6,5.42,5.42,0,0,0-6.58,2,138.87,138.87,0,0,0-14.4,25.06c-.19.41-.36.84-.56,1.25,0,.1-.18.14-.4.31"/><path class="cls-3" d="M166.08,318.58a7.44,7.44,0,0,1,1.78,5.33c0,6.07.07,12.16-.37,18.21-.51,6.85-1.47,13.68-2.37,20.5a9.21,9.21,0,0,1-1.69,3.83c-1.85,2.63-3.94,5.1-5.87,7.68a3.07,3.07,0,0,1-2.94,1.36c-6.59-.38-13.17-.67-19.75-1.06a2.19,2.19,0,0,1-1.67-.87,2.14,2.14,0,0,1,.56-1.75c2.87-3.22,5.71-6.48,8.77-9.53a14.11,14.11,0,0,0,4.21-10c.17-4.3.6-8.59.71-12.89A30.57,30.57,0,0,1,150,328.74a142.39,142.39,0,0,1,16-29.66,2.73,2.73,0,0,1,.62-.82c.44-.28,1.12-.72,1.42-.58a1.86,1.86,0,0,1,.86,1.44,35.09,35.09,0,0,1-.62,5.12c-.66,3.14-1.43,6.26-2.2,9.37a1.91,1.91,0,0,1-.83,1.2c-3.64,1.48-5,4.68-5.94,8a33.4,33.4,0,0,0-1.14,6.76c-.33,4.23-.43,8.48-.68,12.71-.09,1.45.46,2.35,1.94,2.51,1.3.13,2.18-.84,2.29-2.42.33-5.09.53-10.2,1-15.27a25.64,25.64,0,0,1,1.72-5.9,15.32,15.32,0,0,1,1.6-2.63"/><path class="cls-3" d="M204.47,375.24c-3.24,0-6.49.07-9.71-.06a3.72,3.72,0,0,1-2.45-1.13c-2.2-2.59-4.28-5.28-6.31-8a6.89,6.89,0,0,1-1.4-2.89c-1.62-11.82-3.18-23.65-3.07-35.62a44.66,44.66,0,0,1,.63-6.32c.1-.64.73-1.18,1.12-1.77.57.47,1.48.83,1.68,1.42a37.65,37.65,0,0,1,2,7.42c.49,4.56.55,9.16.79,13.74a5.25,5.25,0,0,0,0,.69,2.15,2.15,0,0,0,2.2,2,1.92,1.92,0,0,0,2-2.12c-.25-7.15-.05-14.37-2.23-21.31-.86-2.73-2.21-5.18-5.08-6.43a2.32,2.32,0,0,1-1.11-1.41c-1-4.59-1.92-9.19-2.74-13.82-.12-.62.43-1.36.66-2,.64.36,1.51.56,1.9,1.1a136,136,0,0,1,15.93,29.86,36.8,36.8,0,0,1,2.73,13,142.21,142.21,0,0,0,1,14.58,8.63,8.63,0,0,0,2.19,4.5c3.38,3.76,7,7.29,10.52,11a3,3,0,0,1,.68,2.08c0,.28-1.1.68-1.72.69-3.4.07-6.82,0-10.22,0Z"/><path class="cls-3" d="M198,255.7c-2.18.07-3.27-1.71-2.35-3.36s2-3.2,3-4.77a2,2,0,0,1,3-.62,1.89,1.89,0,0,1,.68,2.81c-1,1.71-2,3.44-3.16,5.1a3.42,3.42,0,0,1-1.2.84"/><path class="cls-3" d="M221.3,323.27a9.44,9.44,0,0,1-1.62-.63c-1.54-1-3.05-2-4.55-3.08a2.13,2.13,0,1,1,2.34-3.55,41,41,0,0,1,4.81,3.31,2.83,2.83,0,0,1,.61,2.39c-.15.64-1.09,1.1-1.59,1.56"/><path class="cls-3" d="M135.33,318.27a4.77,4.77,0,0,1-1,1.42c-1.37,1.05-2.83,2-4.28,2.9-1.15.73-2.31.8-3.13-.49s-.4-2.28.76-3.1c1.46-1,2.87-2.11,4.4-3s3.25.05,3.24,2.28"/><path class="cls-3" d="M148.63,246.77a4.84,4.84,0,0,1,1.28,1c1.07,1.5,2,3.06,3,4.63a1.92,1.92,0,0,1-.62,3,2,2,0,0,1-3-.7c-1-1.53-2.07-3-3-4.64s.14-3.31,2.32-3.26"/><path class="cls-3" d="M135.43,273.1c-2.55-1.19-4.84-2.13-7-3.35-.44-.26-.55-1.76-.23-2.42a2.35,2.35,0,0,1,2.07-.94,35.71,35.71,0,0,1,6,2.49,2.47,2.47,0,0,1,.74,2.16c-.17.72-1,1.29-1.67,2.06"/><path class="cls-3" d="M213.32,273c-.7-.7-1.66-1.23-1.81-1.93a2.64,2.64,0,0,1,.88-2.27,27.22,27.22,0,0,1,5.72-2.38,2.54,2.54,0,0,1,2.25,1c.35.59.18,2.16-.27,2.41-2.06,1.19-4.31,2.08-6.77,3.21"/><path class="cls-3" d="M224.2,297.05c-1,0-2,0-2.94,0a1.85,1.85,0,0,1-1.9-2,1.9,1.9,0,0,1,1.84-2.1,48.69,48.69,0,0,1,6,0,2,2,0,0,1,1.92,2.24,1.87,1.87,0,0,1-2,1.89c-1,0-1.95,0-2.93,0Z"/><path class="cls-3" d="M176.26,244.8c0,.92,0,1.83,0,2.74a1.92,1.92,0,0,1-2.06,2.06,1.87,1.87,0,0,1-2.15-1.95c-.05-1.94-.08-3.89,0-5.83a1.86,1.86,0,0,1,2-1.9,2,2,0,0,1,2.17,2c.07,1,0,1.94,0,2.91Z"/><path class="cls-3" d="M124.89,297.05c-1,0-2,.05-2.93,0-1.25-.07-2.07-.93-1.83-2a3,3,0,0,1,1.8-2,33.69,33.69,0,0,1,6-.09,2.08,2.08,0,0,1,0,4.13c-1,.1-2.07,0-3.11,0Z"/><path class="cls-2" d="M258.73,512l-3-2.94L0,258.74l2.93-3L253.26,0,512,253.25l-2.93,3ZM11.87,258.61,258.61,500.13,500.13,253.38,253.39,11.87Z"/><path class="cls-3" d="M246.06,205.76c-.18,1-.39,2-.54,2.93-.37,2.45-.75,4.89-1.08,7.34s-.57,4.78-.78,7.16c-.24,2.69-.43,5.37-.55,8.06a91.2,91.2,0,0,0,.18,11.33c.22,2.83.39,5.67.61,8.5s.48,5.67.64,8.51a73.15,73.15,0,0,1,.13,11,15.6,15.6,0,0,1-.56,3c-.54,1.78-1.76,2.09-3.16.87a12.12,12.12,0,0,1-2.84-4.19,60.89,60.89,0,0,1-3.45-9.47,181.52,181.52,0,0,1-4.59-20.3c-.72-4.12-1.39-8.26-2-12.41-.54-3.92-1-7.86-1.38-11.8a153.43,153.43,0,0,1-.94-17.14q.08-14.55.21-29.1a4.37,4.37,0,0,0-1.1-3.18c-5.73-6.69-10.92-13.76-14.7-21.76a37,37,0,0,1-2.87-8.45,12.1,12.1,0,0,1,1-8.11,60.94,60.94,0,0,1,5.59-9,135,135,0,0,1,16.64-19c1.47-1.37,3.14-2.55,4.74-3.8a3.12,3.12,0,0,1,.87-.4c.7-.24,1.08,0,1,.74a4.8,4.8,0,0,1-.39,1.65c-1.31,2.52-2.58,5.06-4,7.51-3.29,5.69-6.85,11.24-9.65,17.2a34.91,34.91,0,0,0-2.55,7,8.43,8.43,0,0,0,.67,5.78,36.12,36.12,0,0,0,4.74,7.34c1.8,2.21,3.75,4.3,5.57,6.49a4.71,4.71,0,0,0,3.2,1.54,75.74,75.74,0,0,0,11.85.47c2.49,0,5,0,7.49-.13a32,32,0,0,0,3.36-.37,4.47,4.47,0,0,0,2.5-1.41,49.35,49.35,0,0,0,10-13.33,13.15,13.15,0,0,0,.39-10.89,46.68,46.68,0,0,0-6.69-11.88c-2.9-3.89-5.93-7.67-8.89-11.53-.82-1.07-1.52-2.23-2.27-3.36a4.43,4.43,0,0,1-.3-.62c-.46-1.21.06-1.89,1.36-1.77a10.62,10.62,0,0,1,4.25,1.64,58.64,58.64,0,0,1,12.9,10.63A61.86,61.86,0,0,1,279,119.79a32.1,32.1,0,0,1,4.37,10.91,17,17,0,0,1-.79,8.56,51.08,51.08,0,0,1-5.51,11,131.2,131.2,0,0,1-12.53,16.52,3.13,3.13,0,0,1-.36.44,2.35,2.35,0,0,0-.81,2.34c.55,7.14.4,14.3.37,21.46a1,1,0,0,0,.45.91,188.74,188.74,0,0,1,15.94,13.41,48,48,0,0,1,6.91,7.81,7.51,7.51,0,0,1,1.47,3.43,2.24,2.24,0,0,1-1,2.16,73.69,73.69,0,0,1-17.41,9.64,69.89,69.89,0,0,1-13.15,4,21.83,21.83,0,0,1-7.07.52,6.43,6.43,0,0,1-2-.62,1.16,1.16,0,0,1-.43-1.88A12.22,12.22,0,0,1,250,228c2.54-1.66,5.19-3.15,7.75-4.78s5.25-3.44,7.84-5.2a14.56,14.56,0,0,0,1.51-1.32.77.77,0,0,0,.08-1.21,6.47,6.47,0,0,0-1.08-1,32.62,32.62,0,0,0-6.78-3.59c-4.24-1.73-8.53-3.37-12.78-5.05l-.46-.12"/><path class="cls-3" d="M246.09,142.78a12.6,12.6,0,1,1,12.65-12.55,12.65,12.65,0,0,1-12.65,12.55"/></svg>