<svg xmlns="http://www.w3.org/2000/svg" viewBox="0 0 512 512"><path fill="#dcecf4" fill-rule="evenodd" d="M258.11 508.89 5.38 261.5 252.76 8.76l252.74 247.4z"/><g fill="#0093c5"><path d="m364.09 293.89-2 7.93c-.48 2.42-1.7 5-2.68 7.94l-1.67 4.43-2.12 4.4-2.11 4.41c-.69 1.41-1.65 2.74-2.44 4.05a72 72 0 0 1-4.54 7.05l-4.92 6.55 6 4.94 5.26-7a78 78 0 0 0 4.87-7.55l2.6-4.35 2.27-4.73 2.27-4.71c.74-1.56 1.21-3.21 1.79-4.75 1.07-3.11 2.35-5.92 2.88-8.51l2.18-8.5zm-27.82 52.51 5.6 5.35c.21.21-8.14 7.71-8.14 7.72l-5-5.85s7.8-7 7.58-7.22m-14.03 12.3 4.59 6.22-1.4 1-3.13 2.26-4.79 2.91-4-6.63 4.47-2.71c1.11-.69 2.12-1.55 2.92-2.12l1.31-1m43.89-82.99 7.72.29-.28 5.6-.12 2.05-.27 1.78-.26 1.74-7.66-1 .24-1.61.26-1.67c.09-.67.07-1.26.1-1.92l.27-5.23m-59.44 92.71-2 1-5.37 2.5-7.89 2.87c-2.89 1.04-6.12 1.65-9.28 2.52l-2.37.6-2.41.37-4.68.71-4.38.59-4 .2-5.93.3c-1.43 0-2.25-.07-2.25-.07l-.13 7.73a30 30 0 0 0 2.41.08l6.34-.32 4.25-.22c1.51-.06 3.07-.41 4.7-.62l5-.77 2.58-.4 2.55-.64c3.39-.93 6.84-1.63 9.94-2.7s6-2.18 8.45-3.09 4.37-2 5.77-2.66l2.18-1.05zm-58.37 11.11-.69 7.7s-.7 0-1.75-.12l-3.81-.57-5.55-.86 1.42-7.59 5.18.78 3.56.55c.96.15 1.64.11 1.64.11m-18.33-3.3-2 7.46-1.7-.43a36 36 0 0 1-3.71-1.06l-5.27-1.92L220 373l4.91 1.8a32 32 0 0 0 3.47 1l1.58.41m-77.12-78.63-.56-2.18a40 40 0 0 1-1.09-5.83c-.3-2.44-1-5.25-1.12-8.32l-.49-9.61.48-9.61c.15-3.06.82-5.87 1.12-8.32a42 42 0 0 1 1.08-5.82l.57-2.19-7.51-1.84-.61 2.33a49 49 0 0 0-1.16 6.25l-1.19 8.91-.52 10.29.53 10.29c.17 3.29.86 6.29 1.19 8.91a46 46 0 0 0 1.17 6.25l.6 2.33zm2.16-59.39-7.36-2.39 1.93-5.26 1.33-3.63a11 11 0 0 1 .71-1.59l7.09 3.08a10 10 0 0 0-.66 1.5l-1.24 3.37zm17.14-32.59 1.35-1.81a56 56 0 0 1 3.89-4.47 106.3 106.3 0 0 1 13-12.39l7.76-5.69 7.18-4.36c2.1-1.27 4-2 5.29-2.67l2-1-3.25-7-2.16 1c-1.38.61-3.43 1.52-5.68 2.87l-7.69 4.66c-2.74 1.81-5.48 4-8.31 6.09a116 116 0 0 0-14 13.27 56 56 0 0 0-4.15 4.81l-1.45 1.92zM162.2 221l-6.83-3.61a13.5 13.5 0 0 1 .8-1.56l2-3.3 2.91-4.8 6.45 4.27-2.72 4.47-1.86 3.08a10 10 0 0 0-.76 1.45m57.72-50.72-2.72-7.23 5.27-1.92a31 31 0 0 1 3.7-1.08l1.7-.43 2 7.47-1.58.4a27 27 0 0 0-3.45 1zm36.17-6.97s.82-.08 2.25-.09l5.93.32 4 .18c1.44.07 2.87.39 4.39.59l4.68.72 2.41.36 2.37.6 9.28 2.5 7.88 2.89c2.28.88 4.08 1.91 5.38 2.49l2 1 3.47-6.9-2.17-1-5.78-2.67-8.44-3.09c-3.12-1.07-6.57-1.77-9.95-2.69-.85-.21-1.69-.46-2.55-.64l-2.59-.4-5-.76A46 46 0 0 0 269 156l-4.23-.23-6.36-.3c-1.53 0-2.41.07-2.41.07zM237.82 165.22l-1.44-7.6 5.56-.85 3.81-.57a16 16 0 0 1 1.75-.13l.69 7.7a13 13 0 0 0-1.63.11l-3.56.55zm75.64 13.45 4-6.63 4.8 2.91c1.2.72 2.26 1.64 3.13 2.25l1.4 1.06-4.59 6.21-1.31-1-2.92-2.1-4.48-2.72m28.06 23.9a4.5 4.5 0 0 1 .36.47l1 1.34 3.56 4.75a70 70 0 0 1 4.54 7l2.44 4.07c.8 1.42 1.4 2.93 2.11 4.4l2.13 4.39c.71 1.45 1.12 3 1.66 4.43 1 2.91 2.21 5.52 2.69 7.94l2 7.93 7.55-1.58-2.18-8.5c-.52-2.59-1.81-5.4-2.88-8.51l-1.79-4.75-2.27-4.72-2.28-4.71c-.76-1.55-1.75-2.94-2.6-4.36a80 80 0 0 0-4.87-7.55l-3.81-5.09-1.07-1.42a6 6 0 0 0-.39-.49zM328.59 189.54l5.05-5.86s8.35 7.5 8.12 7.72l-5.58 5.35c.22-.22-7.59-7.21-7.59-7.21M365.25 257l7.66-1 .26 1.74a24 24 0 0 1 .39 3.83l.3 5.6-7.73.3-.27-5.24a21 21 0 0 0-.37-3.58l-.24-1.62"/></g><g fill-rule="evenodd"><path d="M357 261.11c1.26-3 .26-4.34-2.82-5.31-6.5-2.07-9.27-6.72-6.64-12.47s6.43-11.06 9.88-16.46c1.3-2 3.39-2.11 4.72-.06 3.49 5.39 7.28 10.7 9.92 16.45s-.11 10.47-6.53 12.51c-3 1-4.18 2.18-3 5.23a78 78 0 0 1 9.26 1.59 56.4 56.4 0 0 1 10.82 4.1c4 2.09 6.18 5.4 6.17 9.87l-.06 77.56c0 6.29-3.93 9.81-10.75 9.85q-18.17.09-36.3 0c-6.88 0-10.83-3.52-10.84-9.77l-.05-77.94a10.16 10.16 0 0 1 6.45-9.69c4.6-2.06 9.65-3.29 14.56-4.73a32 32 0 0 1 5.17-.73m.53 4.54c-6.76.4-12.6 1.43-17.82 4.52-2.63 1.56-4.08 3.58-4.07 6.68l.07 77.08c0 4 1.8 5.77 6 5.81q18.15.11 36.26 0c4.05 0 5.91-1.82 5.92-5.5q.06-38.93-.05-77.85a6.47 6.47 0 0 0-1.84-4.47c-5.45-4.74-12.32-5.89-19.93-6.07a42.5 42.5 0 0 1-.11 6.57c-.14.84-1.44 1.55-2.21 2.3-.74-.79-2-1.52-2.12-2.39a45 45 0 0 1-.11-6.67m3-34.2h-1.51c-2.42 4.57-5.23 9-7.16 13.73-1.55 3.79.84 6.17 4.52 6.31l3.23-5.06 3.76 5.17c4.15-.92 5.94-3 4.3-6.82-2-4.59-4.72-8.89-7.14-13.31"/><path fill="#fff" d="M357.57 265.65a45 45 0 0 0 .1 6.67c.16.87 1.39 1.6 2.13 2.39.77-.75 2.07-1.46 2.21-2.3a42.5 42.5 0 0 0 .11-6.57c7.61.18 14.48 1.33 19.93 6.07a6.43 6.43 0 0 1 1.84 4.47q.17 38.92.05 77.85c0 3.68-1.87 5.47-5.92 5.5q-18.12.13-36.26 0c-4.22 0-6-1.85-6-5.81l-.07-77.08c0-3.1 1.44-5.12 4.07-6.68 5.22-3.09 11.06-4.12 17.82-4.52m2 21.81c5.27-1.18 10.25-1.94 14.9-3.52 2.27-.77 4.21-2.9 5.66-4.81.6-.78-.49-2.63-.82-4-1.09.66-2.64 1.1-3.23 2-4.25 6.62-27.87 7-32.2.38-.22-.33-.17-.9-.45-1.05-.95-.54-2-.95-3-1.42-.46 1-1.6 2.38-1.24 2.87 1.46 2.05 3 4.69 5.2 5.53 4.82 1.83 10.08 2.71 15.17 4m1-55.98c2.42 4.42 5.17 8.72 7.14 13.31 1.64 3.84-.15 5.9-4.3 6.82l-3.76-5.17-3.23 5.06c-3.68-.14-6.07-2.52-4.52-6.31 1.93-4.74 4.74-9.16 7.16-13.73h1.51"/><path d="M359.58 287.46c-5.09-1.26-10.35-2.14-15.17-4-2.22-.84-3.74-3.48-5.2-5.53-.36-.49.78-1.89 1.24-2.87 1 .47 2 .88 3 1.42.28.15.23.72.45 1.05 4.33 6.59 27.95 6.24 32.2-.38.59-.94 2.14-1.38 3.23-2 .33 1.36 1.42 3.21.82 4-1.45 1.91-3.39 4-5.66 4.81-4.65 1.58-9.63 2.34-14.9 3.52m-211.94 34.65A28.2 28.2 0 0 1 137 305c-1.91-9.11-1.81-18.18 2.22-26.81 6.27-13.42 16.87-21.27 31.7-23.17 16.62-2.12 32.28 6.95 39.6 21.11 7.72 14.95 5.18 34.74-7.42 45.94-.42.37-.86.72-1.41 1.18l-3.81-8A121 121 0 0 0 186.2 296c-1.85-2.43-4.19-3.14-6.85-2.12a5.19 5.19 0 0 0-3.26 6c.82 5 1.88 9.9 2.95 14.82a4.5 4.5 0 0 1-.4 2.95 33.4 33.4 0 0 0-1.93 7.58 46 46 0 0 0-.06 6.44h-4.43c0-2.42.14-4.71 0-7-.23-2.9-.47-5.84-2.23-8.38-.28-.39 0-1.19.07-1.78l2.85-15a5.17 5.17 0 0 0-3.29-6 5.42 5.42 0 0 0-6.58 2 139 139 0 0 0-14.4 25.06c-.19.41-.36.84-.56 1.25 0 .1-.18.14-.4.31"/><path d="M166.08 318.58a7.44 7.44 0 0 1 1.78 5.33c0 6.07.07 12.16-.37 18.21-.51 6.85-1.47 13.68-2.37 20.5a9.2 9.2 0 0 1-1.69 3.83c-1.85 2.63-3.94 5.1-5.87 7.68a3.07 3.07 0 0 1-2.94 1.36l-19.75-1.06a2.19 2.19 0 0 1-1.67-.87 2.14 2.14 0 0 1 .56-1.75c2.87-3.22 5.71-6.48 8.77-9.53a14.1 14.1 0 0 0 4.21-10c.17-4.3.6-8.59.71-12.89a30.6 30.6 0 0 1 2.55-10.65 142.4 142.4 0 0 1 16-29.66 2.7 2.7 0 0 1 .62-.82c.44-.28 1.12-.72 1.42-.58a1.86 1.86 0 0 1 .86 1.44 35 35 0 0 1-.62 5.12c-.66 3.14-1.43 6.26-2.2 9.37a1.9 1.9 0 0 1-.83 1.2c-3.64 1.48-5 4.68-5.94 8a33.4 33.4 0 0 0-1.14 6.76c-.33 4.23-.43 8.48-.68 12.71-.09 1.45.46 2.35 1.94 2.51 1.3.13 2.18-.84 2.29-2.42l1-15.27a25.6 25.6 0 0 1 1.72-5.9 15.3 15.3 0 0 1 1.6-2.63m38.43 56.67c-3.24 0-6.49.07-9.71-.06a3.72 3.72 0 0 1-2.45-1.13c-2.2-2.59-4.28-5.28-6.31-8a6.9 6.9 0 0 1-1.4-2.89c-1.62-11.82-3.18-23.65-3.07-35.62a45 45 0 0 1 .63-6.32c.1-.64.73-1.18 1.12-1.77.57.47 1.48.83 1.68 1.42a37.7 37.7 0 0 1 2 7.42c.49 4.56.55 9.16.79 13.74a5 5 0 0 0 0 .69 2.15 2.15 0 0 0 2.2 2 1.92 1.92 0 0 0 2-2.12c-.25-7.15-.05-14.37-2.23-21.31-.86-2.73-2.21-5.18-5.08-6.43a2.32 2.32 0 0 1-1.11-1.41c-1-4.59-1.92-9.19-2.74-13.82-.12-.62.43-1.36.66-2 .64.36 1.51.56 1.9 1.1a136 136 0 0 1 15.93 29.86 36.8 36.8 0 0 1 2.73 13 142 142 0 0 0 1 14.58 8.63 8.63 0 0 0 2.19 4.5c3.38 3.76 7 7.29 10.52 11a3 3 0 0 1 .68 2.08c0 .28-1.1.68-1.72.69-3.4.07-6.82 0-10.22 0zM198 255.7c-2.18.07-3.27-1.71-2.35-3.36s2-3.2 3-4.77a2 2 0 0 1 3-.62 1.89 1.89 0 0 1 .68 2.81l-3.16 5.1a3.4 3.4 0 0 1-1.2.84m23.33 67.57a9.4 9.4 0 0 1-1.62-.63l-4.55-3.08a2.13 2.13 0 1 1 2.34-3.55 41 41 0 0 1 4.81 3.31 2.83 2.83 0 0 1 .61 2.39c-.15.64-1.09 1.1-1.59 1.56m-85.97-5a4.8 4.8 0 0 1-1 1.42c-1.37 1.05-2.83 2-4.28 2.9-1.15.73-2.31.8-3.13-.49s-.4-2.28.76-3.1l4.4-3c1.53-.89 3.25.05 3.24 2.28M148.63 246.77a4.8 4.8 0 0 1 1.28 1l3 4.63a1.92 1.92 0 0 1-.62 3 2 2 0 0 1-3-.7l-3-4.64c-.93-1.64.14-3.31 2.32-3.26m-13.18 26.3-7-3.35c-.44-.26-.55-1.76-.23-2.42a2.35 2.35 0 0 1 2.07-.94 35.7 35.7 0 0 1 6 2.49 2.47 2.47 0 0 1 .74 2.16c-.17.72-1 1.29-1.67 2.06m77.98-.1c-.7-.7-1.66-1.23-1.81-1.93a2.64 2.64 0 0 1 .88-2.27 27.2 27.2 0 0 1 5.72-2.38 2.54 2.54 0 0 1 2.25 1c.35.59.18 2.16-.27 2.41-2.06 1.19-4.31 2.08-6.77 3.21m10.88 24.01h-2.94a1.85 1.85 0 0 1-1.9-2 1.9 1.9 0 0 1 1.84-2.1 49 49 0 0 1 6 0 2 2 0 0 1 1.92 2.24 1.87 1.87 0 0 1-2 1.89h-2.93zM176.26 244.8v2.74a1.92 1.92 0 0 1-2.06 2.06 1.87 1.87 0 0 1-2.15-1.95v-5.83a1.86 1.86 0 0 1 2-1.9 2 2 0 0 1 2.17 2c.07 1 0 1.94 0 2.91zm-51.37 52.25h-2.93c-1.25-.07-2.07-.93-1.83-2a3 3 0 0 1 1.8-2 33.7 33.7 0 0 1 6-.09 2.08 2.08 0 0 1 0 4.13c-1 .1-2.07 0-3.11 0z"/></g><path fill="#0093c5" d="m258.73 512-3-2.94L0 258.74l2.93-3L253.26 0 512 253.25l-2.93 3ZM11.87 258.61l246.74 241.52 241.52-246.75L253.39 11.87Z"/><path fill-rule="evenodd" d="m246.06 205.76-.54 2.93-1.08 7.34-.78 7.16-.55 8.06a91 91 0 0 0 .18 11.33l.61 8.5.64 8.51a73 73 0 0 1 .13 11 15.6 15.6 0 0 1-.56 3c-.54 1.78-1.76 2.09-3.16.87a12.1 12.1 0 0 1-2.84-4.19 61 61 0 0 1-3.45-9.47 182 182 0 0 1-4.59-20.3l-2-12.41a292 292 0 0 1-1.38-11.8 153 153 0 0 1-.94-17.14q.08-14.55.21-29.1a4.37 4.37 0 0 0-1.1-3.18c-5.73-6.69-10.92-13.76-14.7-21.76a37 37 0 0 1-2.87-8.45 12.1 12.1 0 0 1 1-8.11 61 61 0 0 1 5.59-9 135 135 0 0 1 16.64-19c1.47-1.37 3.14-2.55 4.74-3.8a3.1 3.1 0 0 1 .87-.4c.7-.24 1.08 0 1 .74a4.8 4.8 0 0 1-.39 1.65c-1.31 2.52-2.58 5.06-4 7.51-3.29 5.69-6.85 11.24-9.65 17.2a35 35 0 0 0-2.55 7 8.43 8.43 0 0 0 .67 5.78 36 36 0 0 0 4.74 7.34c1.8 2.21 3.75 4.3 5.57 6.49a4.7 4.7 0 0 0 3.2 1.54 76 76 0 0 0 11.85.47c2.49 0 5 0 7.49-.13a32 32 0 0 0 3.36-.37 4.47 4.47 0 0 0 2.5-1.41 49.4 49.4 0 0 0 10-13.33 13.15 13.15 0 0 0 .39-10.89 46.7 46.7 0 0 0-6.69-11.88c-2.9-3.89-5.93-7.67-8.89-11.53-.82-1.07-1.52-2.23-2.27-3.36a4.4 4.4 0 0 1-.3-.62c-.46-1.21.06-1.89 1.36-1.77a10.6 10.6 0 0 1 4.25 1.64 58.6 58.6 0 0 1 12.9 10.63 62 62 0 0 1 8.33 10.74 32.1 32.1 0 0 1 4.37 10.91 17 17 0 0 1-.79 8.56 51 51 0 0 1-5.51 11 131 131 0 0 1-12.53 16.52 3 3 0 0 1-.36.44 2.35 2.35 0 0 0-.81 2.34c.55 7.14.4 14.3.37 21.46a1 1 0 0 0 .45.91 189 189 0 0 1 15.94 13.41 48 48 0 0 1 6.91 7.81 7.5 7.5 0 0 1 1.47 3.43 2.24 2.24 0 0 1-1 2.16 73.7 73.7 0 0 1-17.41 9.64 70 70 0 0 1-13.15 4 21.8 21.8 0 0 1-7.07.52 6.4 6.4 0 0 1-2-.62 1.16 1.16 0 0 1-.43-1.88A12.2 12.2 0 0 1 250 228c2.54-1.66 5.19-3.15 7.75-4.78s5.25-3.44 7.84-5.2a14.6 14.6 0 0 0 1.51-1.32.77.77 0 0 0 .08-1.21 6.5 6.5 0 0 0-1.08-1 32.6 32.6 0 0 0-6.78-3.59l-12.78-5.05-.46-.12m.01-62.95a12.6 12.6 0 1 1 12.65-12.55 12.65 12.65 0 0 1-12.65 12.55"/></svg>