<svg xmlns="http://www.w3.org/2000/svg" id="Capa_1" data-name="Capa 1" viewBox="0 0 512 512"><defs><style>.cls-3{fill:#1e1e1c}.cls-4{fill:#fff}</style></defs><path d="M85.04 85.04h341.92v341.92H85.04z" style="fill:#e83876" transform="rotate(-45 256 256.002)"/><path d="M256 0 0 256l256 256 256-256Zm0 14.22L497.78 256 256 497.78 14.22 256Z" style="fill:#dd0162"/><path d="m236.33 181.69-1.26-59.23a63.65 63.65 0 0 1-5-28.25c1-15.34 10-34.67 10-34.67l29.6-2.8S279.83 74 280.52 89a101.4 101.4 0 0 1-3.34 29l1.57 61.43Z" class="cls-3"/><path d="M233.48 177.08h48.4s6.36 6.48 5.86 22.8-6.58 19.7-6.58 19.7l-44.74 1a33.13 33.13 0 0 1-9-22.89c.08-14.33 6.06-20.67 6.06-20.67" class="cls-3"/><path d="m236.41 217.73 4.05 213 39.25-.42 1.12-213.39z" class="cls-3"/><path d="m240.46 430.73 39.25-.42S290.59 443 286.47 452c-14.23 1-49.57 1.8-49.57 1.8s-7.92-10.43 3.56-23.11" class="cls-3"/><path d="M264.67 230a9.08 9.08 0 1 1-12.83.38 9.06 9.06 0 0 1 12.83-.38M264 262.9a9.08 9.08 0 1 1-12.83.39 9.07 9.07 0 0 1 12.83-.39M263.68 295.26a9.07 9.07 0 1 1-12.84.37 9.08 9.08 0 0 1 12.84-.37M264.66 327.62a9.07 9.07 0 1 1-12.84.37 9.08 9.08 0 0 1 12.84-.37M264 360.52a9.07 9.07 0 1 1-12.83.38 9.06 9.06 0 0 1 12.83-.38M263.67 392.88a9.08 9.08 0 1 1-12.83.38 9.07 9.07 0 0 1 12.83-.38" class="cls-4"/></svg>