<svg xmlns="http://www.w3.org/2000/svg" id="Capa_1" data-name="Capa 1" viewBox="0 0 512 512"><defs><style>.cls-3{fill-rule:evenodd}</style></defs><path d="M85.04 85.04h341.92v341.92H85.04z" style="fill:#ded300" transform="rotate(-45 256 256.002)"/><path d="M256 0 0 256l256 256 256-256Zm0 14.22L497.78 256 256 497.78 14.22 256Z" style="fill:#b9870f"/><path d="M397.31 260.82A140.8 140.8 0 0 1 254.67 402c-77.57-.82-140-62.35-139.91-141.67 0-78.67 63.25-140.2 140-140.91a141 141 0 0 1 142.55 141.4m-47.22-69.71c-10.95-16.26-25.34-27.51-41.89-35.67-14-6.94-14.44-6.31-19.43 9.23-1.77 5.49-4.5 8.15-10.91 7.83-12.1-.59-24.24-.08-36.36-.07-14.21 0-14.21 0-19.26-12.94a20.7 20.7 0 0 1-1.59-4.57c-.68-4.48-3-5.25-6.92-3.68a117.66 117.66 0 0 0-48.84 35.63c-2.59 3.17-2.12 5.1 1.27 7.22a77.7 77.7 0 0 1 11.16 8.19c1.55 1.42 3.13 4.49 2.62 6.19-4.72 15.75-10 31.31-14.82 47-1.57 5.12-4.39 6.93-9.64 6.49s-10.55-.11-15.69-.11c-2.9 17.7 6.64 48 20.89 66.53 5-3.5 9.83-7.39 15.16-10.44 2.09-1.18 6.07-1.57 7.82-.38 13.68 9.44 27 19.4 40.51 29.07 3.44 2.47 4 5.11 2.42 9-2.18 5.48-3.86 11.18-5.84 17.05 23.81 7.44 46.81 7.1 70.63 0-2-6.15-3.88-11.83-5.79-17.49-1.25-3.68-.83-6.35 2.82-8.91 13.43-9.47 26.46-19.51 39.95-28.9 1.74-1.21 5.57-.63 7.85.42a36 36 0 0 1 9 6.45c5 4.7 8.32 3.51 11.1-2.28 2.42-5 5.67-9.63 7.69-14.75 5.64-14.26 10.41-28.77 8.86-45.52-5.89 0-11.46-.29-17 .07-5.13.35-7.58-1.86-9-6.57-4.6-14.81-9.23-29.65-14.4-44.28-1.57-4.43-.81-6.88 2.82-9.31 5-3.34 9.74-6.91 14.78-10.52" class="cls-3"/><path d="M350.09 191.11c-5 3.61-9.82 7.18-14.78 10.52-3.63 2.44-4.39 4.88-2.83 9.31 5.18 14.64 9.8 29.48 14.4 44.28 1.45 4.71 3.9 6.92 9 6.57 5.5-.36 11.07-.07 16.95-.07 1.56 16.76-3.21 31.27-8.85 45.53-2 5.11-5.27 9.75-7.69 14.75-2.79 5.78-6.09 7-11.1 2.28a35.8 35.8 0 0 0-9-6.46c-2.29-1.05-6.11-1.63-7.85-.42-13.49 9.4-26.53 19.43-40 28.9-3.65 2.57-4.06 5.23-2.82 8.91 1.92 5.66 3.76 11.35 5.8 17.5-23.83 7.06-46.82 7.4-70.63 0 2-5.87 3.65-11.57 5.84-17.05 1.54-3.87 1-6.51-2.42-9-13.46-9.66-26.77-19.66-40.45-29.08-1.75-1.2-5.73-.81-7.82.38-5.33 3-10.18 6.93-15.17 10.43-14.24-18.53-23.78-48.82-20.88-66.53 5.13 0 10.44-.34 15.69.11s8.07-1.37 9.63-6.49c4.83-15.7 10.11-31.26 14.82-47 .52-1.7-1.06-4.78-2.61-6.2a77.3 77.3 0 0 0-11.17-8.19c-3.38-2.12-3.85-4.05-1.26-7.21a117.7 117.7 0 0 1 48.84-35.64c3.92-1.57 6.23-.8 6.92 3.68a20.7 20.7 0 0 0 1.59 4.57c5 12.94 5 13 19.26 12.94 12.12 0 24.26-.52 36.35.07 6.42.32 9.15-2.34 10.92-7.83 5-15.54 5.41-16.17 19.43-9.23 16.55 8.16 30.93 19.42 41.89 35.67M256 220.23v-.1c-8.15 0-16.31-.21-24.45.12-2.17.07-5.67 1.31-6.18 2.82-5.62 16.43-10.87 33-15.88 49.61-.53 1.77.46 5.12 1.9 6.22 13.87 10.43 27.95 20.58 42.13 30.59 1.15.84 4 .73 5.18-.12 14-9.86 27.9-19.83 41.54-30.13 1.64-1.23 2.77-5 2.18-6.94-4.56-15.32-9.81-30.42-14.37-45.73-1.6-5.35-4.54-6.69-9.68-6.44-7.43.38-14.91.1-22.37.1" style="fill-rule:evenodd;fill:#fff"/><path d="M256 220.23c7.46 0 14.94.28 22.37-.1 5.14-.25 8.08 1.09 9.68 6.44 4.56 15.31 9.81 30.41 14.37 45.73.59 2-.54 5.71-2.18 6.94-13.64 10.3-27.55 20.27-41.54 30.13-1.22.85-4 1-5.18.12-14.18-10-28.26-20.16-42.13-30.59-1.44-1.1-2.43-4.45-1.9-6.22 5-16.62 10.26-33.18 15.88-49.61.51-1.51 4-2.75 6.18-2.82 8.14-.33 16.3-.12 24.45-.12Z" class="cls-3"/></svg>