<svg xmlns="http://www.w3.org/2000/svg" data-name="Capa 1" viewBox="0 0 512 512"><path d="M85.04 85.04h341.92v341.92H85.04z" style="fill:#ab7cb1" transform="rotate(-45 256 256.002)"/><path d="M256 0 0 256l256 256 256-256Zm0 14.22L497.78 256 256 497.78 14.22 256Z" style="fill:#25204d"/><path d="m205.53 184.06 9.44-2.7 35.07-31.02 11.24-31.92zM273.41 113.92l26.98 25.18 5.39 29.22h-29.23l-21.57-17.08zM272.06 173.72l-21.12-16.63-28.33 26.97-10.35 66.98 45.86 12.59zM276.55 174.62h31.48l43.6 125.88-2.25 27.43h-21.12l-37.32-13.94-29.67-47.66z"/><path d="M310.72 174.62v-19.33l34.17 57.1 23.84 82.71-11.7 22.03.91-15.73zM214.52 189.46l-13.04 4.94-25.17 56.87 3.59 57.78 25.63-57.78zM208.67 255.99l52.6 15.29 23.83 49.45-4.72 14.84-97.34-18.44zM287.34 335.57l30.13-3.15-24.73-12.14z"/></svg>