<svg xmlns="http://www.w3.org/2000/svg" id="Capa_1" data-name="Capa 1" viewBox="0 0 512 512"><defs><style>.cls-3{fill:#fff;fill-rule:evenodd}</style></defs><path d="M85.04 85.04h341.92v341.92H85.04z" style="fill:#35a8e0" transform="rotate(-45 256 256.002)"/><path d="M256 0 0 256l256 256 256-256Zm0 14.22L497.78 256 256 497.78 14.22 256Z" style="fill:#28397b"/><path d="M227.56 264.72c-10.18-5.19-20-1.3-30 .36-6.44 1.07-12.91.63-18.46-3.06-8-5.32-16.88-6.49-26-6.3-7.34.15-14.66 1.28-22.77 2 27.46-20.64 44.55-49.8 63.48-78.43 5.11 5.2 9.55 9.66 13.89 14.22 2.66 2.8 2.57 5.86.86 9.3-4.62 9.23-4.37 12.26 3.93 18.07 7.07 5 10.23 10.27 6.95 19.05-1.9 5.07-.55 9.78 3 14.05 2.34 2.8 3.82 6.36 5.69 9.57l-.64 1.13M363 201.78c1.17 3.46 2.48 6.89 3.44 10.41a11.1 11.1 0 0 1 0 4.59c-1.25 8.14 2 12.83 9.35 16.6 13 6.61 22.47 17.2 29.06 31.22a9.8 9.8 0 0 1-2.61-.21c-12.05-5.87-24.29-11.38-36.07-17.79-8.63-4.69-12.72-13.64-16.92-22.21a3.18 3.18 0 0 1-.17-2.51c3.87-6.71 7.85-13.34 11.8-20l2.09-.12" class="cls-3"/><path d="M453.18 273c-3.72-7.28-6.67-15-10.18-22.35-3.12-6.55-8.22-10.13-15.5-10.43-16-.66-22.56-6.1-27.69-21.9-1.12-3.49-2.94-7.21-5.5-9.65-5.75-5.47-12.1-10.28-18.31-15.24-11.74-9.35-14.64-8.74-22.43 4.24-3.6 6-7.3 12-11.1 18.29-1.59-1.37-2.65-2.42-3.82-3.29-15.31-11.29-21.83-30.2-35.37-43.12-5.13-4.9-8.31-11.91-13.06-17.31a28.85 28.85 0 0 1-7-14.9c-1.25-7.16-3.57-13.81-9.36-18.7-6.79-5.73-9.82-5.33-14.35 2.54-1.89 3.27-3.48 6.73-5.37 10a21.4 21.4 0 0 1-4 5.41c-6.87 5.87-11.49 13.4-16 21.18-5.15 8.8-11 17.17-16.56 25.85-7.23-6.22-13.53-12-20.19-17.32-7.63-6.08-8.77-5.89-13.21 2.94-7.26 14.47-15.9 27.89-26.81 39.69-8.76 9.48-16.92 19.73-29.05 25.11-.71.32-1.14 1.3-1.72 2-4.41 5.06-8.08 11.27-13.4 14.94-19.27 13.38-39.09 25.89-58.7 38.74-.89.59-1.72 1.28-3.26 2.43l-.47.37L256 497.78l205.6-205.62 1.64-1.59c-3.8-6.41-6.72-10.99-10.06-17.57m-104.13-51.21c3.8-6.66 7.72-13.25 11.61-19.84l2-.12c1.16 3.44 2.45 6.84 3.4 10.33a11.5 11.5 0 0 1 0 4.56c-1.25 8.08 1.93 12.73 9.18 16.47 12.73 6.55 22.08 17.06 28.57 31a9.9 9.9 0 0 1-2.57-.21c-11.86-5.82-23.88-11.3-35.46-17.65-8.48-4.65-12.51-13.55-16.62-22a3.16 3.16 0 0 1-.11-2.54m-118.58-38.24c3-4.73 6.65-9 9.73-13.61 4.08-6.15 7.63-12.68 11.87-18.69a125.5 125.5 0 0 1 13-15.92c3.25-3.27 5.28-2 6.11 2.72 1.46 8.2 2.79 16.43 4.53 24.58a27.2 27.2 0 0 0 3.45 7.78c3.53 6 7.37 11.77 10.92 17.72a16.8 16.8 0 0 1 2.56 6.26c.27 2.46-.49 5-.8 7.55-2-1.11-4.15-2.08-6.09-3.34-1-.61-1.57-1.73-2.86-3.24-1.69 4.61-.17 8.4 1.79 11.43 2.29 3.55 5 6.58 7.05 10.26 1.54 2.83 3 5.8 3.13 9 .3 6.91-4.16 11.63-9.7 7.86a93.8 93.8 0 0 1-15-13.22c-3.4-3.74-6.86-6.93-11.86-7.19-10.72-.57-18.42-6.94-25.82-13.81-8.48-7.89-9.12-4.94-2.01-16.14m-36.63-4.07c5.11 5.16 9.55 9.58 13.89 14.1 2.66 2.77 2.57 5.81.86 9.21-4.59 9.21-4.37 12.21 3.93 17.92 7.07 4.92 10.23 10.18 6.95 18.88-1.9 5-.55 9.7 3 13.94 2.34 2.77 3.82 6.3 5.69 9.48l-.64 1.11c-10.18-5.14-20-1.29-30 .35-6.45 1.06-12.92.63-18.47-3-8-5.29-16.88-6.45-26-6.25-7.34.15-14.66 1.25-22.77 2 27.54-20.46 44.63-49.36 63.56-77.74" style="fill-rule:evenodd"/><path d="M279.69 393.55c-37.57-21.38-67.47-13.72-64.4-28.28s28.37-33.73 65.16-48.29 46.76-49.83 29.13-67.47L293 233a9 9 0 0 0 1.8-6.16 23.3 23.3 0 0 0-3-9.49c-2-3.75-4.92-7-7.21-10.54-2-3.08-3.48-6.4-1.78-11.07 1.29 1.52 1.91 2.66 2.85 3.29 1.94 1.27 4 2.26 6.09 3.37.31-2.56 1.07-5.17.8-7.65a16.9 16.9 0 0 0-2.55-6.35c-3.56-6-7.39-11.92-10.92-18a27.2 27.2 0 0 1-3.45-7.9c-1.74-8.27-3.07-16.61-4.53-24.93-.84-4.79-2.86-6.08-6.12-2.76a125 125 0 0 0-13 16.16c-4.24 6.09-7.8 12.71-11.87 18.94-3.08 4.73-6.74 9-9.73 13.81-7.12 11.38-6.46 8.38 2 16.35a97 97 0 0 0 8.06 6.94h.06a42 42 0 0 0 6 3.79c17.26 11.31 64.53 45.26 48.27 68.6-19.75 28.37-54.25 40.64-73.41 49.07s-39.09 20.68-33 46.75 71.28 21.47 75.88 54.44 1.26 58.63 1.26 58.63l46-46.16s5.74-27.19-31.81-48.58" class="cls-3"/></svg>