<svg xmlns="http://www.w3.org/2000/svg" id="Capa_1" data-name="Capa 1" viewBox="0 0 512 512"><defs><style>.cls-4{fill:#1e1e1c}</style></defs><path d="M85.04 85.04h341.92v341.92H85.04z" style="fill:#e83876" transform="rotate(-45 256 256.002)"/><path d="M256 0 0 256l256 256 256-256Zm0 14.22L497.78 256 256 497.78 14.22 256Z" style="fill:#dd0162"/><path d="M308.5 293.71a76 76 0 0 1-1.69-11.31 51.8 51.8 0 0 0 14.4-35.46c0-30.71-28-55.6-62.59-55.6S196 216.23 196 246.94a51.25 51.25 0 0 0 11.66 32.24 40.7 40.7 0 0 1-3.42 11.28c-16.65 12.6-27.22 31.35-27.22 52.3 0 37.93 34.61 68.69 77.33 68.69s77.33-30.76 77.33-68.69c0-19.22-8.9-36.58-23.21-49.05" style="fill:#e37709"/><path d="m290 112.09-4.89-.13.05-6.66 4.94.14c3.24.07 5.92-1.75 6-4.11S293.53 97 290.3 97l-5.12-.14.08-11.17a8.4 8.4 0 0 0-8.56-8.22l-29.77-.2a8.4 8.4 0 0 0-8.69 8.1l-.08 10.31-5.47-.14c-3.25-.08-5.93 1.76-6 4.1s2.51 4.31 5.73 4.4l5.67.13v6.66l-5.72-.15c-3.23-.07-5.91 1.76-6 4.11s2.5 4.31 5.73 4.39l5.88.14-.09 11.59a8.32 8.32 0 0 0 7.3 8.12l-4.56 67-4.41 53.73c-.72.52-1.42 1.07-2.11 1.67a27.17 27.17 0 0 0-1.57 39.87 31 31 0 0 0 42.11 1.48 27.17 27.17 0 0 0 1.57-39.87 31 31 0 0 0-2.89-2.55l2.35-48.77-.19-.79-2-71.52h2.71a8.41 8.41 0 0 0 8.68-8.1l.08-10.74 4.73.13c3.23.08 5.9-1.76 6-4.1s-2.51-4.31-5.75-4.39M284 369.09a6.39 6.39 0 0 1-6.93 5.7l-52.49-3.52a6.24 6.24 0 0 1-6-6.55l.74-9.94a6.38 6.38 0 0 1 6.92-5.69l52.49 3.52a6.25 6.25 0 0 1 6 6.54Z" class="cls-4"/><path d="M254.38 414.92c-44.55 0-80.8-32.37-80.8-72.16 0-21 10.16-40.8 27.91-54.54a36.8 36.8 0 0 0 2.51-8.12 54.27 54.27 0 0 1-11.46-33.16c0-32.57 29.65-59.08 66.07-59.08s66.06 26.51 66.06 59.08a55.35 55.35 0 0 1-14.27 36.67 72 72 0 0 0 1.22 8.24c15.19 13.62 23.55 31.65 23.55 50.91 0 39.79-36.25 72.16-80.8 72.16m4.24-220.11c-32.6 0-59.12 23.38-59.12 52.13A47.7 47.7 0 0 0 210.4 277l1 1.2-.25 1.52a44.8 44.8 0 0 1-3.77 12.28l-.37.74-.64.49c-16.43 12.43-25.85 30.49-25.85 49.53 0 36 33.13 65.22 73.86 65.22s73.86-29.25 73.86-65.22c0-17.57-7.82-34.07-22-46.43l-.84-.73-.26-1.06a83 83 0 0 1-1.78-11.86l-.11-1.53 1-1.11a48.56 48.56 0 0 0 13.47-33.1c0-28.75-26.53-52.13-59.12-52.13" class="cls-4"/></svg>