<svg xmlns="http://www.w3.org/2000/svg" id="Capa_1" data-name="Capa 1" viewBox="0 0 512 512"><defs><style>.cls-3{fill-rule:evenodd}</style></defs><path d="M85.04 85.04h341.92v341.92H85.04z" style="fill:#ded300" transform="rotate(-45 256 256.002)"/><path d="M256 0 0 256l256 256 256-256Zm0 14.22L497.78 256 256 497.78 14.22 256Z" style="fill:#b9870f"/><path d="M158.82 398.1c9.53-1.81 19.17-3.15 28.6-5.54 29-7.35 55.23-21.48 78.38-42.61 26.4-24.1 46.19-53.57 56.22-90.72a118.7 118.7 0 0 0 4.1-42.12c-1.88-20.85-10.84-36-27.89-44.55-6.74-3.4-13.61-6.45-20.5-9.46-16.13-7-26.47-20.73-34-37.7l-3.54-8a85 85 0 0 0 1.92 29.6c4 16.59 12.8 29.21 25 39 5.64 4.53 11.61 8.57 17.3 13 7.36 5.77 9.94 13.86 9.07 23.88-2 22.58-10.17 42.42-20.56 61.29-15.33 27.83-35.49 50.59-58.17 70.69-15.88 14.07-33 26.06-50.11 37.9-2 1.39-4 2.81-6 4.22.08.37.15.74.24 1.11M327 125.16c-13.39.19-23.77 12.26-23.59 27.43.18 14.77 11 26.48 24.36 26.29 12.81-.19 23.37-12.57 23.16-27.17C350.74 136.85 340 125 327 125.16M315.51 297.21c2.16 3 4.26 5.58 5.95 8.43 5.35 9.05 7.72 18.83 4.54 29.54-2.19 7.34-6.91 12.5-12.32 16.87-9.56 7.77-20.41 12.48-31.48 16.54-6 2.19-12 4.11-18.11 6.77 3 .69 6 1.61 9 2 18 2.59 35.34.1 51.4-10 9.91-6.24 17.33-15.1 20.2-27.93 4.28-19.05-6.88-38.5-24-41.9a40 40 0 0 0-5.21-.33M419.38 237.29c-34.32 5.94-63.67-3.46-87.72-32.35 1.59 10.39 4.91 19.79 10.76 27.88 9.47 13.11 21.88 20 36.66 21.61 11.8 1.28 22.89-1.11 32.64-9.09 2.8-2.29 5.12-5.35 7.66-8.05" class="cls-3"/><path d="M242.57 112.71c0 14 10 25.4 22.41 25.4s22.42-11.37 22.42-25.4-10-25.4-22.42-25.4-22.41 11.38-22.41 25.4" style="fill-rule:evenodd;fill:#fff"/></svg>