<svg xmlns="http://www.w3.org/2000/svg" data-name="Capa 1" viewBox="0 0 512 512"><path d="M85.04 85.04h341.92v341.92H85.04z" style="fill:#e83876" transform="rotate(-45 256 256.002)"/><path d="M256 0 0 256l256 256 256-256Zm0 14.22L497.78 256 256 497.78 14.22 256Z" style="fill:#dd0162"/><path d="M246.42 326.54h-8.83c-1.12 6-1.91 11.85-3.33 17.58-3.61 14.58-10.83 26.94-23.38 35.71a22.2 22.2 0 0 1-15 4.35c-9.77-.95-15.41-6.27-16.84-16.19-1.34-9.19 1.78-16.86 9.47-22.27 7.15-5 14.62-2.78 18.05 5.3 1.13 2.67 1.94 5.49 3 8.64 8.91-9.34 12-20.56 12.47-33-7.7-.63-13.66 3.54-20.08 6.47.19-10.42 6-15.71 20-18.39a26.6 26.6 0 0 0-6.66-17.41c-9.76-11.15-22.3-14.87-36.69-13.57-7.21.65-14.2 2.17-20.57 5.79-10.92 6.2-16.45 16.12-18.66 28.06-1 5.2-1.2 10.54-1.78 16a58.9 58.9 0 0 1-16.46-14.79 88 88 0 0 1-18-41.76c-3.68-24.68 10.19-47.39 29.16-55.62 8.66-3.75 17.78-4.11 26.94-3.43a81 81 0 0 1 27.27 6.51c12.34 5.5 21.76 14.47 30.19 24.78 12 14.66 18.24 31.64 20.86 50.16.7 5 1.19 10 1.8 15.34h7.54c-1.07-7.66-1.78-15.25-3.26-22.69-3.46-17.37-11.31-33.07-19.2-48.76a289 289 0 0 1-12.38-27.56c-4.72-12.59-2.33-25.2 2.92-37 5.51-12.36 12.19-24.19 18.12-36.37 7.5-15.36 14.76-30.84 22.12-46.27.15-.32.35-.6.75-1.25 1.46 3.37 2.68 6.55 4.19 9.57 9.79 19.47 19.81 38.82 29.41 58.38a198 198 0 0 1 10.19 24.49c4.28 12.88 2.62 25.56-3.28 37.7-5.74 11.79-11.68 23.49-17.36 35.31A141.6 141.6 0 0 0 266 304.91c-.29 2.47-.44 5-.62 7.44-.05.7 0 1.41 0 2.39h7c.84-6.45 1.61-12.86 2.53-19.25A95.7 95.7 0 0 1 297.7 246c9.77-11.34 21.13-20.33 35.71-24.49 12.47-3.56 25.27-5.86 38.09-2.71 18.83 4.62 30.3 17.35 35.73 35.56 3.93 13.23 2.13 26.33-2.49 39.15-4.88 13.49-15.18 30.69-30.74 40.36-.12-2.49-.21-4.72-.36-7-.51-8.21-2.16-16.15-6.14-23.46-4.1-7.56-10.09-13.15-18.18-16-12.63-4.49-25.54-5.68-38.24-.64-11.24 4.46-18.91 12.38-21 24.8-.17 1-.19 2.06-.3 3.35 6.51.38 12.32 2 16.4 7.26a19.26 19.26 0 0 1 3.87 11.29c-6.45-3.6-12.58-7.18-20.34-6.94.47 12.51 3.81 23.74 12.59 33.41.91-2.9 1.58-5.43 2.5-7.86 3.51-9.25 11.19-11.58 19.35-5.94 9.49 6.57 11.93 22.31 4.86 31.41-5.09 6.58-14.2 8.62-23 4.89-9.74-4.15-16.49-11.55-21.5-20.65a79.1 79.1 0 0 1-9.74-33.68c0-.43-.11-.87-.2-1.51h-9.47c.33 4.82.2 9.73 1.07 14.46a136 136 0 0 0 4.75 17.9c2.08 6.21 2.69 12.27.29 18.44q-7.32 18.79-14.73 37.56a12 12 0 0 1-1 1.33c-4.49-11.64-8.88-22.83-13.12-34.05a73 73 0 0 1-3.2-10.39c-1.07-5 .58-9.67 2.45-14.22 4.06-9.89 4.84-20.25 4.76-31.11" style="fill-rule:evenodd"/></svg>