<svg xmlns="http://www.w3.org/2000/svg" id="Capa_1" data-name="Capa 1" viewBox="0 0 512 512"><defs><style>.cls-3{fill-rule:evenodd}</style></defs><path d="M85.04 85.04h341.92v341.92H85.04z" style="fill:#e83876" transform="rotate(-45 256 256.002)"/><path d="M256 0 0 256l256 256 256-256Zm0 14.22L497.78 256 256 497.78 14.22 256Z" style="fill:#dd0162"/><path d="m164.93 322.94-17-16.88q30.21-29.88 60.51-59.81a216 216 0 0 1-19.83-25.72A203 203 0 0 1 173 191.91h8.67c4.58 0 9.16.09 13.75 0a2 2 0 0 1 2.12 1.28 170.3 170.3 0 0 0 16.81 26.52c3.13 4.11 6.47 8 9.85 12.21a187.8 187.8 0 0 0 37.8-63.85H131.1c-2.07 0-2.06 0-2.06-2.08v-20c0-1.29.34-1.65 1.65-1.65h81.66v-23.75h23.85v23.74h81.69000000000001c.9 0 1.74-.18 1.73 1.25-.06 7.3 0 14.6-.05 21.9 0 .14-.05.3-.1.63h-34.74A209.1 209.1 0 0 1 240.52 246c5.49 5.68 10.88 11.31 16.36 16.88 4.22 4.27 8.51 8.46 12.82 12.63.71.68.49 1.24.24 1.92L261.52 300l-36.8-36.82-59.79 59.8M260 358.66c1.73-4.66 3.39-9.11 5-13.54q6.68-17.81 13.34-35.62 6.09-16.22 12.2-32.43 7.58-20.2 15.12-40.41c2.5-6.66 5-13.32 7.55-20a1.73 1.73 0 0 1 1.3-.9c7.25-.07 14.49 0 21.74-.08 1.16 0 1.35.67 1.65 1.45q4.95 13.26 9.91 26.51 12.31 32.88 24.65 65.79 8.91 23.67 17.81 47.33c.2.52.34 1.05.57 1.75-.61.05-1.06.11-1.51.11h-20.8a1.79 1.79 0 0 1-2-1.42c-4.07-11-8.23-22-12.3-33a1.7 1.7 0 0 0-1.9-1.31h-53.72c-1.22 0-1.66.47-2.05 1.53q-6.16 16.68-12.46 33.32a1.63 1.63 0 0 1-1.24.85c-7.54.05-15.1 0-22.92 0m65.48-111.13c-6.42 17.4-12.8 34.44-19.19 51.54h38.56c-6.43-17.17-12.81-34.19-19.28-51.45" class="cls-3"/></svg>