<svg xmlns="http://www.w3.org/2000/svg" data-name="Capa 1" viewBox="0 0 512 512"><path d="M85.04 85.04h341.92v341.92H85.04z" style="fill:#ab7cb1" transform="rotate(-45 256 256.002)"/><path d="M256 0 0 256l256 256 256-256Zm0 14.22L497.78 256 256 497.78 14.22 256Z" style="fill:#25204d"/><path d="M424.23 206.35c-1.93 7.06-6.61 11.09-11.85 14-6.76 3.72-13.75 6.81-20.69 10-10.49 4.83-20.93 9.76-31.54 14.17-9.67 4-19.66 6.9-30 6.05-5.19-.43-10.34-1.82-15.49-2.87-9.23-1.88-18.43-4.38-27.74-5.62-7.3-1-14.74-.48-22.11-.52-2.2 0-2.21.23-3.31 2.86 2.84-.2 5.7-.47 8.56-.63a57 57 0 0 1 26.53 5.3c8.82 3.91 17.5 8.2 26.24 12.34a26.7 26.7 0 0 0 13.82 2.71c5.8-.49 11.62-.55 17.43-.69 7.16-.16 14.3-.4 21.46-.29 11.74.18 23.08 2.61 33.61 9.19a57.7 57.7 0 0 1 13.5 11.5c2.45 2.9 1.44 8.91-1.89 9.95-7 2.17-14 4.53-21.16 5.83a299 299 0 0 1-31.33 4.15 353 353 0 0 1-36.78 1c-15.58-.5-31-2.83-46.07-8.1-.16-.06-.36 0-.81.12a88 88 0 0 1 5 7.92c1.68 3.39 4.64 4.66 7 6.91 3 2.85 4.86 6.59 6.21 10.9a6 6 0 0 1-.61-.49c-.18-.21-.28-.51-.44-.72-2.77-3.47-5.34-7.28-9.71-8.14a2.53 2.53 0 0 1-1.28-1.14c-3.42-5.21-6.7-10.51-10.21-15.6a11.3 11.3 0 0 0-3.82-3c-3-1.71-6.62-2.37-8.85-5.75-2-3-3.86-6.12-5.7-9.24a4.4 4.4 0 0 1-.42-2.11 56 56 0 0 1 .2-5.62 28 28 0 0 0-4.16-18.16A11.2 11.2 0 0 1 257 250c-.61.26-1.17.75-.48 2.19 3.64 7.52 3.43 15.72 2.61 23.85a137 137 0 0 0-.37 21.65c.37 6.79.82 13.57 1 20.38.37 16.88.62 33.74.88 50.62.07 5.47.05 11 0 16.45q-.09 10.25-.3 20.48c-.16 8.32-.37 16.63-.56 24.94-.17 7.18-.34 14.37-.55 21.57 0 1.16-.26 2.31-.4 3.52-3-1.54-2.21-4.57-2.22-7.22a46 46 0 0 1 .31-5.35c.25-2.21-.39-3.75-2-4.72-2.43 1.23-2.43 3.59-2.07 6.17a60 60 0 0 1 .9 8c0 1.47-.92 2.95-1.44 4.41l-.57-.09c-.52-3.45-1-6.92-1.58-10.35-1.61-9-1.45-18.15-1.58-27.27q-.18-12.84-.46-25.66c-.23-9.88-.55-19.77-.82-29.65-.2-7.11-.58-14.22-.53-21.34q.13-16.83.78-33.7c.25-7.23.92-14.44 1.34-21.67a8.9 8.9 0 0 0-.41-2.84c-3.25-11.69-4-18.09-.84-29.73-3.55 4.52-4.21 10.2-3.48 15.84.7 5.33-.72 9.22-3.15 13.44a20.35 20.35 0 0 1-11.39 9.37c-2.64.91-4.38 2.87-5.92 5.24-3 4.68-6 9.48-9.08 14.1a6.07 6.07 0 0 1-2.86 2.13c-3.23 1.23-5.47 4-7.67 6.76l-1.9 2.49-.5-.4c1.41-2.6 2.57-5.48 4.32-7.72s4.12-3.86 6.18-5.8a10.5 10.5 0 0 0 1.73-2c2.41-3.66 4.77-7.35 7.33-11.33a14 14 0 0 0-1.55.28c-9.84 3.44-19.94 5.25-30.1 6.59-13.09 1.72-26.27 1.42-39.42 1.2a162 162 0 0 1-20.37-1.59c-10.74-1.56-21.45-3.49-32.12-5.63-4.32-.86-8.52-2.66-12.77-4-1.72-.58-2.23-1.87-2.45-4.07-.44-4.12 1.48-6.37 3.77-8.61 9.6-9.44 20.7-15.06 33-16.67 8.21-1.07 16.54-1 24.81-1 8.53 0 17.07.31 25.57 1 6.43.49 12.18-1.81 17.89-4.64 9.32-4.63 18.53-9.59 28.3-12.8a64.1 64.1 0 0 1 23.19-3.04 36 36 0 0 1 3.61.48c-.24-2.11-1-2.92-2.78-2.81-2.07.11-4.16-.26-6.23-.31-10.14-.23-20.13 1.4-30.06 3.68-7.72 1.79-15.44 3.72-23.2 5.24-7.07 1.39-14.09.53-21.07-1.22-14.05-3.52-27.14-10.34-40.45-16.42-7.42-3.38-14.9-6.62-22.21-10.33-5.31-2.69-10.33-6.1-13.45-12.27a31 31 0 0 1-1.19-3v-4.95a10.3 10.3 0 0 1 2-2 102 102 0 0 1 11.4-6c7.29-2.89 14.86-3.61 22.55-3.35a73 73 0 0 1 17.58 2.74c8.6 2.46 16.56 6.81 24.57 11.11 5.55 3 11.27 5.35 17.43 5.53 13.08.39 26.17.56 39.26 1a46.3 46.3 0 0 1 19.24 4.4 71 71 0 0 1 6.06 3.79c.2-.74.36-1.36.54-2.05-5.33-2.8-10.49-5.59-15.72-8.22a2.12 2.12 0 0 1-1.23-2.35c.1-3.6-.12-7.25.25-10.8.48-4.65 1.41-9.23 2.16-13.83a26 26 0 0 0 .72-4.09c0-5.88 1.21-11 5.72-14.24h.76a14 14 0 0 0-.87 1.45c-1.47 3-3.81 5.88-3.35 9.56a28 28 0 0 1-1.42 11.95 15 15 0 0 0-.5 2.85c-.26 4.39-.39 8.8-.76 13.2-.14 1.61.16 2.41 1.48 3 4.78 2.15 9.52 4.44 14.25 6.75.88.42 1.84.92 2.29-.17a6.3 6.3 0 0 0 .19-3.41c-.08-.43-1.18-.65-1.86-.83-.85-.24-1.77-.21-2.6-.52-2.54-1-3.92-3.54-3.87-7 0-2.92 1.53-5.56 3.85-6.25 1.91-.57 3.58-1 5.25-2.83 2.08-2.26 5.15-2.05 7.9-.8.56.27 1.3.75 1.45 1.32.55 2.06 1.85 1.86 3.19 1.86a6.13 6.13 0 0 1 6.11 6.17c.21 4.62-1.85 7.53-5.6 8a20 20 0 0 0-2.12.5c.34 1 .65 2 1.05 2.95a9 9 0 0 0 .89 1.37c5-3.24 9.79-6.43 14.55-9.54-.12-1-.19-1.77-.28-2.49-.77-6.31-1.56-12.59-4.23-18.29a10.7 10.7 0 0 1-.51-3.34c-.28-2.72-.25-5.51-1.9-7.81-1-1.39-1.9-2.94-3.05-4.77A9.89 9.89 0 0 1 271 174c.77 3.83 1.79 7.5 2.92 11.23 1.57 5.13 2.32 10.66 3.19 16.08.75 4.65.59 4.66-2.9 7.08-4 2.79-8 5.64-12.07 8.5.45 1.28.84 2.35 1 2.88 3.11-1.85 6-4 9.05-5.32 8.53-3.73 17.57-3.87 26.49-4.29s17.6-.41 26.39-.24c7.72.16 14.77-2.4 21.75-6a220 220 0 0 1 21.32-9.85c9.69-3.74 19.75-4.35 29.9-3.28a50.74 50.74 0 0 1 22.36 7.76c1.43.9 2.55 2.46 3.82 3.73Z" style="fill-rule:evenodd"/></svg>