<svg id="Capa_1" data-name="Capa 1" xmlns="http://www.w3.org/2000/svg" viewBox="0 0 512 512"><defs><style>.cls-1{fill:#ded300;}.cls-2{fill:#b9870f;}.cls-3{fill:#c24136;}.cls-4{fill:#131d1e;}.cls-5{fill:#f6c812;}</style></defs><rect class="cls-1" x="85.04" y="85.04" width="341.92" height="341.92" transform="translate(-106.04 256) rotate(-45)"/><path class="cls-2" d="M256,0,0,256,256,512,512,256Zm0,14.22L497.78,256,256,497.78,14.22,256Z"/><path class="cls-3" d="M135,200.16c-3.4-.76-4.75-2.24-2.9-5.88,8.44-16.56,15.63-33.74,25.09-49.81,5.94-10.09,12.18-20,16.81-30.85,3.06-7.18,8.9-11.23,16.09-13.89,20.9-7.73,42.66-9.56,64.65-10l.06,47.82c-5.75.22-11.56,0-17.23.76-18.42,2.53-37.54,1-55,9.34-2.87-11.9-5-23.78.87-35.52a29.25,29.25,0,0,0-2.88,4.73c-3.15,7.56-1,15.4-.85,23.1.06,2.67.37,5.72,2.82,7.74,3,12.32,6.69,24.49,15.28,34.07,7,7.81,11.17,17.06,16,26-12-5.32-24.73-6-37.51-5.74C162.45,202.33,148.65,202.61,135,200.16Z"/><path class="cls-4" d="M263,385.22q-1.78-6.92-3.58-13.85c0-.7,0-1.4,0-2.1-.33-14,3.06-28.36-3.13-42l-1.53-3.37c-.53,1.16-1,2.33-1.59,3.47a8.17,8.17,0,0,1-.85,1.2c-.06-.3-.28-.68-.17-.89,4.81-9.64,2.76-19.94,2.94-30,.07-3.84,0-3.83-3.47-4.33-.11,0-.24-.42-.22-.63.07-.87-.45-1-1.14-1.17-.87-.19-1.07.34-1.36.92-1.84,3.76-3.7,7.51-6.11,12.39,1.23-3.44,2-5.76,2.91-8,.62-1.54,1.44-3,2.18-4.49l-4.51,1c0-.21,0-.42-.05-.64l3.68-2.2-3.83-1.93c2.45-.51,4.29.65,6.11,1.76a5.91,5.91,0,0,0,4.94.84c1.33-.49.55-2.27.56-3.45.06-7.43,0-14.87,0-22.3,0-2-.64-2.74-2.76-2.95-6.5-.65-11.05,2.79-15.41,6.81a.28.28,0,0,1-.09-.24c2.89-5.72,2.89-5.72-4-6.31,6.57,3.44,16.25-2.41,25.92-.2.83.37,1.27,0,1.63-.76,1.87-4.09,3.12-8.32,5.69-12.3,3.19-4.94,6.94-9.66,9.37-15.12,3.75-2.69,7.27-5.81,11.29-8,16.52-9,33.4-17.44,49.73-26.8,12-6.86,22.61-15.51,28.34-28.75q8,14.33,16,28.64c.34.61.42.9-.11,1.38-8.72,7.93-16.7,16.94-26.31,23.58-16.77,11.59-33.22,24.06-53.64,29.3-5.42,1.4-8.94,6.6-13.27,10.14-1.3,1.06-2.4,2.78-3.87,3.19-14.94,4.13-12.61,17.37-13.85,27.87-.66,5.6,2.14,12,4.53,17.49A144.35,144.35,0,0,1,282.54,337c-2.68,7.07-5.81,14-7.92,21.25C271.85,367.75,266.73,376.17,263,385.22Z"/><path class="cls-4" d="M254.75,137.5l-.06-47.82c9.27-1.43,18.67-1.35,27.92-.82,10.79.62,21.7.9,32.27,4.14,7.29,2.23,10.71,8.4,12.89,14,5.68,14.54,15.22,26.6,23,39.8,2.23,3.8,4,7.86,6,11.79-5.59,8.26-12.91,14.67-21.05,20.37-13.3,9.31-28.51,15.54-41.3,25.66a9.15,9.15,0,0,1-2.3,1l.9-1.87c4.42-9,9.94-17.4,14.61-26.22,5.35-10.08,7.55-21.58,12.91-31.73.52-1,.71-1.6-.71-1.9-4.4-.91-8.73-2.37-13.16-2.8C289.38,139.4,272.13,137.51,254.75,137.5Z"/><path class="cls-3" d="M258.47,262.53c-9.67-2.21-19.35,3.64-25.92.2,6.9.59,6.9.59,4,6.31-15.72-1.78-28.31-10.44-40-19.84-11.54-9.28-21.44-20.55-33.14-29.76,8,.18,15.92.6,23.87.5,12.62-.16,24.7,1.85,36,7.67,2.66,1.36,5.39,2.58,8.08,3.86,1.22,1.76,2,3.83,4,5,5.62,3.22,7.84,8.82,10,14.46-4.86-2.28-9.71-4.64-15.35-3.33,6.33-.62,11.52,2.38,16.73,5.28h-.1l.4.4c.75,1.94,2.33,2.95,4.06,4C253.74,258.75,257.38,258.9,258.47,262.53Z"/><path class="cls-3" d="M243.36,293.34l4.51-1c-.74,1.5-1.56,2.95-2.18,4.49-.91,2.25-1.68,4.57-2.91,8,2.41-4.88,4.27-8.63,6.11-12.39.29-.58.49-1.11,1.36-.92.69.16,1.21.3,1.14,1.17,0,.21.11.61.22.63,3.48.5,3.54.49,3.47,4.33-.18,10.08,1.87,20.38-2.94,30-.11.21.11.59.17.89a8.17,8.17,0,0,0,.85-1.2c.56-1.14,1.06-2.31,1.59-3.47l1.53,3.37c6.19,13.6,2.8,27.92,3.13,42,0,.7,0,1.4,0,2.1q-.92,10-1.85,20a21.38,21.38,0,0,1-.47,2.22c-.38-.4-.9-.73-1.11-1.2-7.6-16.93-22.83-28.68-30.76-45.39,2.14-14.23,7.77-27.37,13.25-40.48C240.29,302.18,239.63,296.93,243.36,293.34Z"/><path class="cls-3" d="M222.08,398.12c.13-.82.25-1.64.37-2.45l2.19-17.89c9.36,14.91,20.2,28.76,30.78,42.79-.49,7.75-1.13,15.5-1.42,23.27a94,94,0,0,1-1.77,16.06c-3.42-3.69-7.27-7.08-10.17-11.15-6.5-9.1-14.39-17.13-20.27-26.7,1.79,5.81,6.2,9.83,9.76,14.43,6.77,8.76,13.13,17.85,21,25.69a14.1,14.1,0,0,1-5.31,9.05,1.16,1.16,0,0,1-1.8-.41c-7.56-11.47-14.67-23.22-21.85-34.91-5.65-9.19-1.65-17.66-2.83-26.34a21.16,21.16,0,0,1,.34-4.6c.19-1.44.39-2.87.58-4.31.08-.54.15-1.08.22-1.63C222,398.72,222,398.42,222.08,398.12Z"/><path class="cls-4" d="M296.41,420.32c-4.11,8.37-9.5,16.29-8.81,26.31.16,2.28.52,6-1.64,6.37-2.79.51-2.52-3.33-3.18-5.28-4.56-13.49-8.87-27.05-13.27-40.6,2.14-5,4.43-9.91,6.76-14.81,4.49-9.4,8.17-19.18,12.19-28.8,2.76,14,9.24,27,11.75,41.16C301.26,410.63,298,415.19,296.41,420.32Z"/><path class="cls-3" d="M364.52,170.79c-5.73,13.24-16.38,21.89-28.34,28.75-16.33,9.36-33.21,17.76-49.73,26.8-4,2.2-7.54,5.32-11.29,8l3.69-6.75c6.32-5,12.22-10.52,19.39-14.42,23.2-12.63,49.2-21.37,64-45.76Z"/><path class="cls-5" d="M362.23,167.42c-14.79,24.39-40.79,33.13-64,45.76-7.17,3.9-13.07,9.42-19.39,14.42q3.33-5.53,6.65-11.08a5.35,5.35,0,0,0,1.44-.77c6.4-6.66,14.66-10.41,22.58-14.81C328,190.69,348.05,182.46,359,162.52,360.06,164.15,361.15,165.78,362.23,167.42Z"/><path class="cls-3" d="M359,162.52c-10.93,19.94-31,28.17-49.46,38.42-7.92,4.4-16.18,8.15-22.58,14.81a5.35,5.35,0,0,1-1.44.77l6.59-10.93a9.15,9.15,0,0,0,2.3-1c12.79-10.12,28-16.35,41.3-25.66,8.14-5.7,15.46-12.11,21.05-20.37Z"/><path class="cls-5" d="M151.53,213.17a29.17,29.17,0,0,1-8.46-6.19c12.91.52,25.8,1.89,38.74,1.1a74.82,74.82,0,0,1,24.86,2.32c4.05,1.14,7.93,2.87,11.88,4.33a35.12,35.12,0,0,1,7,9.65,56.21,56.21,0,0,0-13.82-6.63C198.11,213.1,184,214.22,170,213.9,163.82,213.77,157.67,213.42,151.53,213.17Z"/><path class="cls-4" d="M218.55,214.73c-4-1.46-7.83-3.19-11.88-4.33a74.82,74.82,0,0,0-24.86-2.32c-12.94.79-25.83-.58-38.74-1.1L135,200.16c13.7,2.45,27.5,2.17,41.34,1.86,12.78-.29,25.53.42,37.51,5.74Z"/><path class="cls-3" d="M236.65,269.28c4.36-4,8.91-7.46,15.41-6.81,2.12.21,2.78.92,2.76,2.95-.07,7.43,0,14.87,0,22.3,0,1.18.77,3-.56,3.45a5.91,5.91,0,0,1-4.94-.84c-1.82-1.11-3.66-2.27-6.11-1.76L247,290.5l-3.68,2.2c-2.2-6.71-4.44-13.41-6.56-20.15A12.23,12.23,0,0,1,236.65,269.28Z"/><path class="cls-4" d="M151.53,213.17c6.14.25,12.29.6,18.43.73,14,.32,28.15-.8,41.78,3.85a56.54,56.54,0,0,1,13.82,6.62l5.82,7.1c-2.69-1.28-5.42-2.5-8.08-3.86-11.32-5.82-23.4-7.83-36-7.67-7.95.1-15.91-.32-23.87-.5Z"/><path class="cls-5" d="M257,402.47c-.4,3.25-.81,6.5-1.21,9.74l-31.42-45c.43-3.56-.31-7.23,1-10.7,5.4,12.26,15.31,21.46,22.13,32.76C250.32,393.88,253.06,398.61,257,402.47Z"/><path class="cls-4" d="M257,402.47c-3.92-3.86-6.66-8.59-9.47-13.23-6.82-11.3-16.73-20.5-22.13-32.76a25.29,25.29,0,0,1-.16-9.46c7.93,16.71,23.16,28.46,30.76,45.39.21.47.73.8,1.11,1.2A21.5,21.5,0,0,1,257,402.47Z"/><path class="cls-4" d="M224.35,367.18l31.42,45c1,2.84,0,5.58-.35,8.36-10.58-14-21.42-27.88-30.78-42.79Q224.51,372.47,224.35,367.18Z"/><path class="cls-5" d="M267.24,400.45c-.76-2.46-1.52-4.91-2.27-7.37,4.19-9.76,8.64-19.42,12.48-29.32,2.37-6.11,4.33-12.37,7.46-18.16.73,3.16,1.46,6.31,2.2,9.47-2,4.34-4.13,8.59-5.82,13C277.1,379.1,272.37,389.86,267.24,400.45Z"/><path class="cls-3" d="M284.91,345.6c-3.13,5.79-5.09,12-7.46,18.16-3.84,9.9-8.29,19.56-12.48,29.32l-2-7.86c3.74-9.05,8.86-17.47,11.63-27,2.11-7.24,5.24-14.18,7.92-21.25Z"/><path class="cls-3" d="M267.24,400.45c5.13-10.59,9.86-21.35,14.05-32.35,1.69-4.44,3.86-8.69,5.82-13l1.35,8.44c-4,9.62-7.7,19.4-12.19,28.8-2.33,4.9-4.62,9.82-6.76,14.81A14.71,14.71,0,0,1,267.24,400.45Z"/><path class="cls-4" d="M252.57,462.17c-7.89-7.84-14.25-16.93-21-25.69-3.56-4.6-8-8.62-9.76-14.43,5.88,9.57,13.77,17.6,20.27,26.7,2.9,4.07,6.75,7.46,10.17,11.15C252.34,460.66,252.46,461.41,252.57,462.17Z"/><path class="cls-4" d="M182.55,147.6l0,.05c-2.45-2-2.76-5.07-2.82-7.74-.17-7.7-2.3-15.54.85-23.1a29.25,29.25,0,0,1,2.88-4.73C177.57,123.82,179.68,135.7,182.55,147.6Z"/><path class="cls-4" d="M245.4,250.91l1.38,2c-5.21-2.9-10.4-5.9-16.73-5.28C235.69,246.27,240.54,248.63,245.4,250.91Z"/><path class="cls-4" d="M246.68,252.86l.4.4Z"/></svg>