<svg xmlns="http://www.w3.org/2000/svg" id="Capa_1" data-name="Capa 1" viewBox="0 0 512 512"><defs><style>.cls-3,.cls-4{fill:#fcc150;fill-rule:evenodd}.cls-4{fill:#fff}</style></defs><path d="M85.04 85.04h341.92v341.92H85.04z" style="fill:#7dba32" transform="rotate(-45 256 256.002)"/><path d="M256 0 0 256l256 256 256-256Zm0 14.22L497.78 256 256 497.78 14.22 256Z" style="fill:#13a646"/><path d="M326.26 377.67c0-2.78.07-6.23-2.37-8.7a7.3 7.3 0 0 0-3.32-1.9l-.06-8.95c0-4.89-2.89-7.92-7.5-7.92h-.8a12 12 0 0 1 1.08-1.72c17.71-23.1 26.21-49.75 25.24-79.21a335.3 335.3 0 0 0-19.24-102.63 7 7 0 0 1 .06-3.95c1.1-3.68 2.4-7.41 3.67-11 .8-2.26 1.59-4.52 2.34-6.8 2.91-8.73 5.39-17.37 3.91-27-1.25-8.05-6.08-13.83-12.9-15.49-7.58-1.82-14.88 1-19.54 7.57l-.64 1a41 41 0 0 0-2.94-3.9 18.26 18.26 0 0 0-13.83-6.56c-7.67 0-14.17 5-16.55 12.7-1 3.06-2.37 9.07-1.12 14.8 2 9.2 4.44 18.43 6.79 27.35q1.58 6 3.13 12l.13.55c.11.37.25.93.31 1.28-1.77 3.7-3.64 7.33-5.62 11.12-5.28-6.2-11.21-7.62-15.55-7.62-5.29 0-10.94 2.14-16.35 6.18-3.94 2.94-7.31 3.95-12.5 4.89-19.29 3.47-31.54 15-33.6 31.57l-.28 2.16a53.2 53.2 0 0 0-.68 11.2l.77 10.15c1.4 18.59 2.85 37.81 5 56.68a112.5 112.5 0 0 0 15.81 46.74c1.17 1.9 1.56 4.83 2 7.94l.12.8h-.65c-3.45-.35-5.9.44-7.62 2.31-1.59 1.71-2.24 4.07-2 7.22.17 2.44.15 5 .12 7.62a2.4 2.4 0 0 1-.65 0 7.12 7.12 0 0 0-5.28 1.93 7 7 0 0 0-1.87 5.28c.12 9.45.26 20.14.13 30.64 0 1.05-.07 4.26 2.15 6.5 2 2 4.7 2.25 6.58 2.25h.2c40-.36 79-.62 115.94-.78 1 0 4.06 0 6.17-2.18 1.89-1.93 2.06-4.53 2-6.31-.2-10-.26-19.07-.18-27.7m-67.9-184.69c.81 1.69 1.56 3.4 2.32 5.25-5.27-.87-10.31.07-14.14 3.32-.18-.33-.35-.67-.52-1-.36-.71-.68-1.44-1-2.19a19.7 19.7 0 0 0-3.57-6.08c-.58-.63-.74-1-.8-1a4.6 4.6 0 0 1 1.44-1.3c3.55-2.4 6.52-3.62 8.83-3.62 1.82 0 4.56.69 7.43 6.64m24.89-76.44a32.5 32.5 0 0 1 3.82 6.1c10.68 25.45 22.78 54.3 29.56 84.23 1.47 6.52 2.74 13.23 3.93 19.78-.47-.52-.95-1-1.45-1.53a35.23 35.23 0 0 0-18.41-9.83 4 4 0 0 1-1-.71c-7.83-27.34-16.16-56.61-23.92-85.44-.9-3.33-.4-7.52.11-11.76.2-1.62 1.34-2.68 3.35-3.15a4.3 4.3 0 0 1 .83-.09c.47 0 1.45 0 3.21 2.4m-5.59 71.68 6.4 22.17a13.53 13.53 0 0 1-7-7.64c-2.73-6.84-2.59-10.52.57-14.53m-52.88 8.47a6 6 0 0 1 5.62 3.62c2.41 4.82 4.65 9.7 6.91 14.59 1.9 4.12 3.79 8.24 5.78 12.32 1.23 2.52 2.67 4.88 4.08 7.17.85 1.39 1.71 2.79 2.52 4.22l1.08 1.93c2.32 4.1 4.71 8.33 6.78 12.56.17.37.23.61.27.65a3.7 3.7 0 0 1-1.31.64c-5.11 1.7-10 .83-15.48-2.73-7.66-5-12.67-12.38-15.78-23.31a5 5 0 0 1-.08-.53 7 7 0 0 0-1.63-3.86 13.9 13.9 0 0 0-3.27-2.42 10 10 0 0 1-.89-.54l-3.38-2.21-2.11 3.42a7 7 0 0 1-.58.77c-1 1.24-2.48 3.12-2 5.58 3.15 16.59 14.62 35.15 33.16 39.23 4.71 1 10.45.77 16.58-.7 8.25-2 10.2-7 10.27-12.07l1.47 13.49c-12.56 13.71-15.34 30.85-8.51 52.34.43 1.34 1 2.63 1.5 3.93.25.59.5 1.19.84 2.06.76 2 2.34 6 6.82 6a7.8 7.8 0 0 0 2.77-.55 6.68 6.68 0 0 0 4-3.65c1.12-2.71 0-5.31-.88-7.26-3.43-7.83-5.05-15-4.94-22 .16-9.63 3.44-17.1 10-22.85a10.06 10.06 0 0 0 3.42-10.37 58.5 58.5 0 0 1-1.39-10.5c-.05-5.49-2.35-9.3-7.48-12.34a147 147 0 0 1-16.2-11.12 20.25 20.25 0 0 1-7.88-17.49c.13-3.3 1.14-3.3 1.79-3.3a7.3 7.3 0 0 1 2.09.38 19.4 19.4 0 0 1 6.52 3 62.47 62.47 0 0 0 30.47 13.4c8.19 1.31 14.56 5.82 20.05 14.19 8.73 13.32 11.17 28.63 7.68 48.19-3.45 19.28-10.5 35.6-21.55 49.92a32.7 32.7 0 0 0-4.14 8c-.2.47-.39.95-.59 1.42l-72.17.47c-1-9.32-5.13-17.39-9.22-25.38-6.16-12-8.55-25.23-10.24-41.32-1.58-14.85-3.14-30.74-4-46.35a105.3 105.3 0 0 1 1.2-22.6c1.35-8.29 12.71-17.77 21.73-18.12Zm81.69 170.32h-1l-25.08.23c-21.56.19-43.11.38-65 .71h-1c0-.13 0-.3.05-.47a18.4 18.4 0 0 0 .17-2.94l91.79-.6Zm-.6-245.69c1.88-3.38 4.25-5.46 5.23-5.65a7.3 7.3 0 0 1 1.27-.14c1.4 0 1.69.51 1.92 1.18.84 2.38 2 5.63 1.57 7.66-1.37 6.77-3.17 13.61-4.93 20.26-2.33-5.64-4.65-11.28-6.84-17-.28-.73.09-3.25 1.78-6.33M207 381.6l105.37-.69.11 19.06-105.35.69Zm-4.87 29.11"/><path d="M266.62 247.88c3.15 1.83 5.66 3.29 8.18 4.77.12.07.33.15.33.23.59 5.72 1.16 11.44 1.75 17.15-14.28 14.57-14.62 31.63-8.86 49.75.6 1.87 1.44 3.65 2.15 5.49.84 2.14 1.66 4.68 4.64 3.53s1.84-3.56.92-5.68c-3.3-7.53-5.4-15.33-5.27-23.64.17-10.21 3.63-19 11.39-25.75 2.27-2 2.67-3.89 2.14-6.64a60.4 60.4 0 0 1-1.47-11.24c0-4.34-1.9-6.83-5.57-9a150 150 0 0 1-16.62-11.41 24.14 24.14 0 0 1-9.33-20.72c.22-5.86 3.33-8.22 8.92-6.52a22.5 22.5 0 0 1 7.89 3.78 58.2 58.2 0 0 0 28.6 12.53c10.29 1.66 17.27 7.64 22.7 15.92 10.33 15.76 11.48 33 8.25 51-3.39 19-10.44 36.27-22.3 51.62-2.31 3-3.38 6.94-5.26 10.93l-77.89.51c-.25-.34-.55-.56-.56-.78-.29-9.84-4.61-18.18-9-26.76-6.79-13.27-9.1-28-10.65-42.69-1.64-15.48-3.15-31-4-46.55a109.5 109.5 0 0 1 1.26-23.44c1.68-10.4 14.88-21 25.43-21.4a9.89 9.89 0 0 1 9.6 5.77c4.43 8.88 8.35 18 12.7 26.93 1.89 3.87 4.38 7.43 6.5 11.2 2.73 4.86 5.52 9.69 8 14.7 1.61 3.3.2 5.57-3.33 6.72-6.88 2.27-13.09.56-18.84-3.17-9.44-6.02-14.56-15.02-17.52-25.49-.27-.95-.23-2.15-.81-2.79a19 19 0 0 0-3.44-2.35c-.74 1.2-2.28 2.55-2.08 3.56 2.75 14.5 12.89 32.34 30.14 36.13 4.7 1 10.09.47 14.84-.68 6.3-1.51 7.84-4.84 7.08-11.38-.13-1.11-.32-2.19-.61-4.14" class="cls-3"/><path d="M316.24 377c.06 9.11.11 17.87.17 26.88-37.7.26-75.13.51-113.19.75-.07-8.89-.12-17.75-.18-26.89z" class="cls-4"/><path d="M325.57 238.65c-3.08-3.58-5.95-7.32-9.24-10.68a31.35 31.35 0 0 0-16.48-8.75 6 6 0 0 1-3.93-3.45c-8.16-28.45-16.26-56.93-23.95-85.5-1.12-4.14-.52-8.88 0-13.27.42-3.35 2.81-5.66 6.37-6.48s6 1 7.9 3.59a37 37 0 0 1 4.43 7.12c11.63 27.7 23.11 55.46 29.78 84.89 2.42 10.64 4.17 21.43 6.23 32.14l-1.12.39" class="cls-3"/><path d="m210.64 360.75 99.72-.65c0 3.47 0 6.86.06 10.73-1.64.09-3.26.21-4.89.23-29.9.3-59.81.5-89.73.94-4 .06-5.79-.72-5.17-5a46.6 46.6 0 0 0 0-6.27" class="cls-4"/><path d="M310.7 154.49c-3.44-8.44-7-16.82-10.26-25.32-1.92-5 4.71-16.21 9.92-17.23 3.42-.66 6.46.19 7.64 3.59 1.08 3.1 2.31 6.71 1.7 9.73-2 9.93-4.84 19.7-7.35 29.52zM267.31 204.12c-8.46-2.68-15.85-4.5-21.54 4.46-1.24-2.34-2.24-4.23-3.23-6.12-1.27-2.49-2.07-5.43-3.91-7.38-3.46-3.66-1.62-6.28 1.29-8.26 9.79-6.61 16.91-5.92 22 4.56 1.87 3.89 3.39 7.94 5.41 12.74M290 216.79c-7.79-2.21-13.42-4.76-16.51-12.48-2.74-6.89-3.57-12.5 1.19-18.48 1.53-1.91 2.39-4.34 4.18-7.63 3.83 13.3 7.36 25.53 11.14 38.59" class="cls-3"/></svg>