<svg xmlns="http://www.w3.org/2000/svg" id="Capa_1" data-name="Capa 1" viewBox="0 0 512 512"><defs><style>.cls-3{fill:#fff}</style></defs><path d="M85.04 85.04h341.92v341.92H85.04z" style="fill:#e83876" transform="rotate(-45 256 256.002)"/><path d="M256 0 0 256l256 256 256-256Zm0 14.22L497.78 256 256 497.78 14.22 256Z" style="fill:#dd0162"/><path d="M130.19 160v153.31s72.42-19.67 120.25 17.87V176.05S204.85 131.8 130.19 160M381.18 157.73v155.12s-74.85-19.22-119.56 18.33c0-91.19-1.79-153.33-1.79-153.33s26.76-45.15 121.35-20.12" class="cls-3"/><path d="m253.82 361.83-3.15-3.26c-54.57-56.71-135.36-18.78-136.18-18.4l-5.77 2.83V173h8.06v157.46a167.3 167.3 0 0 1 44.55-10.6c36.43-3.42 68.19 7 92.15 30.13 5-4.93 16.14-14.48 33.9-21.64 21.58-8.71 57.3-15.35 106.47 1.16-.28-30.78.07-151.06.1-156.59h8c0 1.46-.44 147.18 0 162.14l.18 5.93-5.58-2C302 304.6 257.13 357.78 256.69 358.32Z"/></svg>