<svg xmlns="http://www.w3.org/2000/svg" id="Capa_1" data-name="Capa 1" viewBox="0 0 512 512"><defs><style>.cls-3,.cls-4{fill-rule:evenodd}.cls-4{fill:#f9e927}</style></defs><path d="M85.04 85.04h341.92v341.92H85.04z" style="fill:#e83876" transform="rotate(-45 256 256.002)"/><path d="M256 0 0 256l256 256 256-256Zm0 14.22L497.78 256 256 497.78 14.22 256Z" style="fill:#dd0162"/><path d="M309.22 82.55c5.44 2.48 10.51 4.79 16 7.29-2.32 4.86-4.51 9.51-6.74 14.12q-33.54 69-67.06 138c-4.39 9-8.67 18.13-13.1 27.13-1.63 3.3-2.91 3.47-6.82 1.66-2.86-1.31-2.85-3.18-1.72-5.77q27.15-62.22 54.2-124.51 11.78-27.25 23.63-54.47c.44-1 .93-2 1.61-3.46" class="cls-3"/><path d="m188.35 238.62 10.68 10.51 14.7-2.82-6.69 13.38 7.25 13.11-14.82-2.22-10.23 10.94-2.46-14.77-13.57-6.35 13.29-6.92zM208.89 191.71l10.68 10.5 14.7-2.83-6.68 13.4 7.23 13.12-14.82-2.23-10.23 10.93-2.45-14.76-13.57-6.35 13.29-6.92zM301.22 229.97l-2.04 18.48 14.05 12.18-18.21 3.76-7.23 17.13-9.2-16.16-18.53-1.58 12.52-13.75-4.23-18.1 16.95 7.66z" class="cls-4"/><path d="M331.46 303.29c-21-17-49.89-21.34-77.89-20.14h-.49c-22.93-.59-45.6 1.31-67.63 8.1-8.75 2.69-17 6.36-24.32 12.05-9.23 7.19-10.4 22.89-.24 30.52 2.14 1.61 4.2 3.54 6.62 4.6 8 3.49 16.12 6.65 24.84 10.19v5c-.39 19.66-.7 39.33-1.25 59-.12 4.64 1.47 8.37 5.14 10.72 4.88 3.11 9.93 6.31 15.35 8.17 23.41 8.09 47.21 7.91 71 1.87 7.34-1.86 14.27-4.83 19.62-10.56 2.63-2.84 4.28-6 3.71-10-.45-3.11-.53-6.26-.78-9.4-1.48-17.81-2.9-35.62-4.5-53.41-.23-2.43.43-3.32 2.72-4 10.46-3 20.56-6.88 28.19-15 9.88-10.55 9.41-20.28-.13-27.69m-87 14.56c-39.51 0-71.55-5-71.55-11.08s32-11.09 71.55-11.09 71.54 5 71.54 11.09-32 11.08-71.54 11.08" class="cls-3"/></svg>