<svg xmlns="http://www.w3.org/2000/svg" id="Capa_1" data-name="Capa 1" viewBox="0 0 512 512"><defs><style>.cls-3{fill-rule:evenodd}</style></defs><path d="M85.04 85.04h341.92v341.92H85.04z" style="fill:#e83876" transform="rotate(-45 256 256.002)"/><path d="M256 0 0 256l256 256 256-256Zm0 14.22L497.78 256 256 497.78 14.22 256Z" style="fill:#dd0162"/><path d="M259.52 232.19c8.41-4.22 11.64-11.61 12.52-21.73-.58-2-1.08-5.23-2.41-8.07a12.19 12.19 0 0 0-14.81-6.61c-12.15 3.49-18.86 20.64-12.3 31.46 3.72 6.12 10.57 8.17 17 4.95M192.23 166.63v34.15c0 2.85 1.62 5.16 3.61 5.16s3.6-2.31 3.6-5.16v-34c22.37 0 40.52-4 40.52-8.93s-18.15-8.92-40.52-8.92-40.5 4-40.5 8.92c0 4.39 14.36 8 33.29 8.78" class="cls-3"/><path d="M343.39 166.78c-22.87 0-41.41 4.3-41.41 9.61 0 4 10.43 7.4 25.3 8.85v26.42a3.45 3.45 0 0 0 .28 1.36c-13.17 7.11-26 14.28-39.2 21-10.46 5.37-21.25 10.38-33.45 12.58a30.7 30.7 0 0 1-11.35.06c-18-3.7-29.11-13.81-34.17-28.28-2.68-7.58-3.6-15.6-5.23-23.18-4.43 7.9-7.32 16.64-6.87 26s4.41 17.9 10.13 25.85a58.6 58.6 0 0 1 10.13 23.34c1.48 7.72 2.08 15.61-3.31 22.36-3.14 3.94-7.69 7.26-12.21 10.23a95.1 95.1 0 0 0-23.84 22.81 89 89 0 0 0-16.4 36.21c-1.23 6-1.93 12.11-2.86 18.16l1.06.17c.71-1.29 1.41-2.58 2.13-3.87a174 174 0 0 1 22.83-32 70.8 70.8 0 0 1 24.67-18.22c.15 0 21.13.27 39.61.13a70.9 70.9 0 0 1 24.17 18 173.6 173.6 0 0 1 22.75 32c.73 1.29 1.43 2.59 2.13 3.87l1.07-.16c-.94-6-1.63-12.15-2.84-18.16a89.5 89.5 0 0 0-16.36-36.09A95.1 95.1 0 0 0 256.38 303c-.15-8.42-.36-15.24-.22-20.8a15.05 15.05 0 0 1 3.89-6.12 77 77 0 0 1 7.79-6.66c20.09-15.38 39-31.61 55.37-49.9 1.69-1.9 3.24-3.89 4.8-5.88a3.57 3.57 0 0 0 6.48-2v-25.86c2.87.14 5.83.22 8.9.22 22.87 0 41.41-4.31 41.41-9.61s-18.54-9.61-41.41-9.61" class="cls-3"/></svg>