<svg xmlns="http://www.w3.org/2000/svg" viewBox="0 0 512 512"><path fill="#dcecf4" d="M14.225 256 255.999 14.226 497.773 256 255.999 497.774z"/><path fill="#0093c4" d="M256 0 0 256l256 256 256-256Zm0 14.22L497.78 256 256 497.78 14.22 256Z"/><g fill-rule="evenodd"><path d="m360.43 255.79-12.78 22.14c12.17 1.32 22.63 5.48 31.48 13.26a53.7 53.7 0 0 1 17.52 30.45c.73 3.62-.56 5.32-3.92 6.49-20.59 7.11-44.47.6-58.45-16.11l-3.71-4.51-12.53 21.69c6 1.85 11.73 3.27 17.21 5.43 13.82 5.44 23.38 15.36 29.16 29 1.85 4.37 1.2 6.42-3.36 7.24a221 221 0 0 1-22.21 2.69c-2.35.19-3.33.93-4.64 2.77-4.36 6.19-8.91 12.28-13.82 18.06-2.76 3.26-4.77 2.82-7.39-.61-12.06-15.69-13.82-33.05-8.35-51.58l1.82-5.92h-25.21c1 2.86 2.08 5.43 2.77 8.08 5.53 21.41.47 39.91-15.52 55.27-3.94 3.78-4.86 3.66-8.94.12-16.36-14.22-22.27-38.43-14.44-59.17l1.61-4.2H221.5l1.58 5.22c5.65 18.32 4.14 35.59-7.55 51.36-3.42 4.6-5.17 5-9 .57a167 167 0 0 1-12.72-17c-1.49-2.29-2.79-2.73-5.3-2.94a219 219 0 0 1-21.81-2.76c-4.43-.82-5.06-2.8-3.34-7 7.73-18.55 22.17-28.78 41.32-33.09l5.36-1.16-12.29-21.31c-4.3 4-8.16 8.28-12.69 11.67-15 11.21-31.59 13.68-49.41 8.3-4.7-1.41-5.3-2.67-4.24-7.62 4.84-22.58 22.79-39 46.33-42.38.64-.1 1.26-.17 2.47-.33l-12.54-21.77c-4.53 4.18-8.66 8.5-13.32 12.18-12 9.47-25.71 12.79-40.78 10.59-3.57-.52-4.93-2.36-3.49-6.37 2.46-6.9 5.51-13.58 8.38-20.32.44-1 1.2-1.91.89-2.59-3-7.61-6.36-15.12-9-22.84-1.86-5.32-.4-6.81 5.08-7.42 20.18-2.26 36.12 5.65 49.29 20.32.84.94 1.68 1.84 2.77 3l12.72-22c-2.93-.51-5.53-.77-8-1.43-21.85-5.82-35.54-19.71-40.77-41.75-1.11-4.68-.43-5.62 4.27-7.25 20.24-7 44.36-.22 58 16.33l3.62 4.42 12.71-22-9-2.19c-17.77-4.79-30.72-15.22-37.8-32.46-1.53-3.78-.95-5.75 3.05-6.47 7.56-1.37 15.24-2.25 22.91-3a5.06 5.06 0 0 0 4.39-2.58c4.33-6.21 8.83-12.35 13.73-18.12 2.93-3.43 4.92-2.94 7.68.69 12.06 15.86 13.8 33.33 8.06 52l-1.63 5.31h25.26c-.57-1.52-1-2.8-1.54-4.08a54 54 0 0 1 15.09-60c2.62-2.28 4.62-2.27 7.27-.07 16.16 13.39 22.93 37.7 15.95 57.83-.69 2-1.45 4-2.29 6.3h24.38c-1.28-7.73-3.09-15.4-3.7-23.15-1-12.83 3.39-24.21 11.18-34.32 2.61-3.41 4.59-3.81 7.39-.53a177 177 0 0 1 13.39 17.44c1.66 2.53 3.08 3.1 5.87 3.29a176 176 0 0 1 20.7 2.57c5.3 1 5.93 3 3.8 7.9-7.75 17.84-21.73 27.89-40.29 32.2l-3 .67-3.14.63 11.87 20.63c3.87-3.28 7.69-6.82 11.79-10 15.25-11.8 32.16-14.94 50.62-9.26 4.92 1.52 5.38 2.5 4.36 7.5a53.75 53.75 0 0 1-47 42.5c-.38.05-.76.14-1.8.33l12.73 22.13c3.78-3.76 7.15-7.52 10.94-10.81 12.24-10.59 26.55-14.41 42.5-12.42 3.78.48 5.28 2 4 5.6a214 214 0 0 1-8.72 21.38c-1.09 2.31-.92 3.52.11 5.7a217 217 0 0 1 8.54 20.63c1.45 4.21-.06 5.6-4.52 6.19-20.52 2.76-36.63-5.33-50.06-20.13l-2.8-3.09m-45.54-6.41.05-26.28a4.72 4.72 0 0 0-2.72-4.81q-23-13.06-45.79-26.4c-1.69-1-2.93-1.23-4.79-.14q-22.8 13.37-45.78 26.44a5 5 0 0 0-3 5.06q.19 25.89 0 51.79a5.33 5.33 0 0 0 3.09 5.38q22.64 12.88 45.12 26.09c2.23 1.32 3.79 1.09 5.82-.1q22.68-13.21 45.46-26.26a4.43 4.43 0 0 0 2.56-4.49l-.05-26.28M264.22 394c1.42-1.54 2.79-2.87 4-4.33a46.92 46.92 0 0 0 10.88-32.76c-.61-14-8.86-24.8-15.19-37.19-4 7.57-7.93 14.24-11.14 21.23-8.21 17.94-3.14 41.38 11.47 53.05m-61.6-179.21c-12-30.46-43.74-48.67-64-37.3 4.85 17.43 15.54 29.7 33.22 34.11 9.7 2.42 20.06 2.18 30.82 3.19m186.75-37.82a46.67 46.67 0 0 0-26.75-.48c-19.65 5.18-28.17 21.3-37 37h19.37a42.8 42.8 0 0 0 19.74-4.92c12.87-6.66 21-17.09 24.66-31.59M263.78 104.5c-2 2.22-3.94 4.18-5.59 6.38a46.25 46.25 0 0 0-9.4 30.64c.6 14.06 8.8 25 15.22 37.3 3.93-7.38 7.83-13.94 11-20.82a46.46 46.46 0 0 0-11.25-53.5M138.66 322c4.07.62 7.87 1.55 11.72 1.75a46.22 46.22 0 0 0 29.68-8.83c10.78-7.59 15.66-19.49 22.45-29.84-7.47 0-14.56-.3-21.62.06-20 1-38.37 16.83-42.23 36.86M326 284l-.68 1.26c4.32 6.8 8.35 13.82 13.07 20.35 6.66 9.23 16 14.73 27 17.23a42.4 42.4 0 0 0 23.78-1.23c-.31-1.34-.46-2.44-.81-3.49-5.41-16.29-16.25-27.42-32.93-31.3-9.52-2.21-19.61-2-29.46-2.82m-66.81 29.56-48.46-28c-2.85 4.63-5.57 8.76-8 13.08a4.84 4.84 0 0 0 .13 4c4.5 8.09 9.11 16.12 13.9 24.05a5.26 5.26 0 0 0 3.76 2.24c9.27.19 18.55.16 27.82 0a4.5 4.5 0 0 0 3.28-1.75c2.6-4.34 4.91-8.85 7.52-13.67m62.94-35.85c5.49 0 10.66.1 15.82-.1a4.2 4.2 0 0 0 2.74-2l14-24.36a4.84 4.84 0 0 0-.06-4c-4.53-8.2-9.25-16.3-14-24.38-.46-.78-1.38-1.8-2.11-1.82-5.41-.16-10.82-.09-16.41-.09zm-53.34 35.85 7.63 14a4.17 4.17 0 0 0 3.1 1.48l27.8-.05a5.34 5.34 0 0 0 3.8-2.21c4.86-8 9.5-16.18 14.12-24.35a3.75 3.75 0 0 0 .38-3c-2.64-4.6-5.5-9.06-8.42-13.78l-48.41 28m-63-92.7c-5 0-9.78-.18-14.55.11a5.87 5.87 0 0 0-4.09 2.32Q180 235 173.38 247a5.3 5.3 0 0 0 0 4.39c4.44 8.11 9.12 16.1 13.8 24.08.52.88 1.57 2 2.4 2.06 5.39.18 10.79.09 16.18.09zm5-7.93L259.15 185c-2.6-4.81-4.92-9.31-7.49-13.67a4.08 4.08 0 0 0-3-1.59c-9.53-.11-19.06-.13-28.59 0a4.47 4.47 0 0 0-3.2 1.89q-7.22 12.1-14.08 24.39a4.1 4.1 0 0 0-.33 3.35c2.55 4.5 5.37 8.86 8.27 13.55m58-27.95L317.19 213l8.29-13.57a3.6 3.6 0 0 0-.14-3l-14.31-24.7a4.46 4.46 0 0 0-3.22-1.9c-9.52-.15-19.05-.12-28.58 0a4.1 4.1 0 0 0-3 1.59c-2.55 4.36-4.85 8.86-7.43 13.66m87.94 179.7c-5.78-15.39-24.32-27.51-42.32-28-8.51 15.87-7.14 38.76 3.2 50.49 5-5.3 9.31-11 11.94-17.81.92-2.38 2.21-3.91 5.1-3.39 7.36 1.34 14.61.39 22.08-1.34m-38.35-254a21 21 0 0 0-1.7 1.29c-10.6 15.62-9.43 32-2.95 48.63a3.08 3.08 0 0 0 2.61 1.17c8.71-1.32 17-3.84 24.49-8.74a43.23 43.23 0 0 0 16.12-19.22c-7.29-1.48-14.21-2.83-21.31-1.48-3.15.6-4.7-.52-6.22-3.36-3.32-6.2-7.24-12.07-11-18.29m-147.49 23.18 1.21 2.58c8.45 15.94 22.81 22.68 39.72 25.31.76.13 2.2-1 2.54-1.83 3.72-9.19 5.54-18.74 4.34-28.65a42.36 42.36 0 0 0-8.87-21c-4.06 6.47-8.06 12.14-11.23 18.25-1.65 3.17-3.21 4.35-6.69 3.73-7-1.24-13.81-.09-21 1.62m-.44 231.72c7.87.26 14.8.85 21.69.55 3.43-.16 5 .59 6.32 3.73a52.2 52.2 0 0 0 11.83 17.28c.44-.24.57-.27.64-.36a10.6 10.6 0 0 0 .89-1.22c9.85-15.35 8.65-31.29 2.38-47.42a3.25 3.25 0 0 0-2.82-1.33c-5.4 1.3-10.91 2.42-16.08 4.4-11.13 4.27-19.19 12-24.85 24.37m-7.14-116.38c-11.81-14.86-25.68-24.63-45.78-22.83 2 7.12 4.74 13.62 9.22 19.2 2.18 2.7 2.12 4.62 0 7.3-4.44 5.58-7.24 12-9.2 19.2 20.24 1.77 34-8.11 45.76-22.87m201.38 0c12.37 16.81 31.92 26.43 46.32 22-3.36-6.25-6.35-12.5-10-18.34-1.77-2.84-2.07-4.72.08-7.38 4.5-5.57 7.19-12.07 9.15-19-16.86-2.22-33.91 6.32-45.54 22.7"/><g fill="#fff"><path d="M314.89 249.38v26.28a4.43 4.43 0 0 1-2.55 4.49q-22.78 13-45.46 26.26c-2 1.18-3.59 1.42-5.82.09q-22.41-13.23-45.06-26.08a5.34 5.34 0 0 1-3.1-5.39q.17-25.89 0-51.79a5 5 0 0 1 3-5.06q23-13.08 45.78-26.43c1.86-1.09 3.1-.85 4.79.14q22.85 13.29 45.8 26.4a4.7 4.7 0 0 1 2.7 4.8v26.29m-24.33-.2A26.65 26.65 0 1 0 264 275.87a26.7 26.7 0 0 0 26.52-26.69M264.22 394c-14.6-11.67-19.69-35.11-11.46-53.05 3.2-7 7.13-13.66 11.13-21.23 6.33 12.39 14.58 23.17 15.18 37.19a46.9 46.9 0 0 1-10.86 32.76c-1.2 1.46-2.57 2.79-4 4.33m-61.58-179.26c-10.77-1-21.13-.77-30.83-3.18-17.68-4.41-28.37-16.68-33.22-34.12 20.3-11.36 52 6.85 64 37.3m186.79-37.82c-3.64 14.5-11.79 24.93-24.66 31.6a42.86 42.86 0 0 1-19.71 4.91h-19.37c8.85-15.7 17.36-31.82 37-37a46.67 46.67 0 0 1 26.75.48m-125.6-72.4A46.45 46.45 0 0 1 275 158c-3.19 6.88-7.08 13.44-11 20.83-6.41-12.35-14.61-23.25-15.23-37.31a46.4 46.4 0 0 1 9.4-30.64c1.66-2.19 3.63-4.15 5.6-6.37M138.65 322c3.87-20 22.23-35.85 42.24-36.86 7.07-.36 14.15-.06 21.63-.06-6.81 10.35-11.68 22.25-22.47 29.84a46.1 46.1 0 0 1-29.66 8.83c-3.85-.2-7.67-1.13-11.74-1.75M326 284c9.85.87 19.94.62 29.46 2.83 16.68 3.87 27.52 15 32.93 31.29.35 1.05.5 2.15.81 3.49a42.4 42.4 0 0 1-23.79 1.23c-11-2.5-20.37-8-27-17.22-4.72-6.54-8.75-13.56-13.07-20.36.22-.43.46-.84.68-1.26m-66.85 29.52c-2.61 4.81-4.92 9.33-7.51 13.67a4.54 4.54 0 0 1-3.29 1.75c-9.27.14-18.54.17-27.82 0a5.26 5.26 0 0 1-3.76-2.24c-4.79-7.93-9.4-16-13.9-24.05a4.84 4.84 0 0 1-.13-4c2.38-4.32 5.1-8.45 8-13.08l48.46 28m62.88-35.9v-56.76l16.42.08c.73 0 1.65 1 2.11 1.82l14 24.38a4.84 4.84 0 0 1 0 4c-4.52 8.2-9.22 16.3-14 24.37a4.14 4.14 0 0 1-2.72 2c-5.16.21-10.34.1-15.84.1m-53.3 35.86 48.41-28 8.42 13.79a3.68 3.68 0 0 1-.39 3l-14.11 24.34a5.32 5.32 0 0 1-3.8 2.22c-9.26.2-18.53.15-27.8.05a4.2 4.2 0 0 1-3.1-1.48c-2.63-4.46-5-9.08-7.63-14m-63.06-92.54v56.75c-5.38 0-10.79.09-16.18-.09-.84 0-1.87-1.18-2.39-2.06l-13.81-24.08a5.34 5.34 0 0 1 0-4.39q6.6-12 13.69-23.71a5.9 5.9 0 0 1 4.08-2.31c4.78-.3 9.57-.11 14.56-.11M210.73 213l-8.28-13.55a4.17 4.17 0 0 1 .33-3.35q6.9-12.27 14.09-24.39a4.44 4.44 0 0 1 3.2-1.89c9.53-.15 19.05-.14 28.58 0a4.1 4.1 0 0 1 3 1.59c2.57 4.36 4.88 8.86 7.49 13.67zm58.05-28c2.58-4.8 4.88-9.3 7.43-13.66a4.1 4.1 0 0 1 3-1.59h28.59a4.5 4.5 0 0 1 3.21 1.9c4.89 8.15 9.63 16.41 14.31 24.7a3.62 3.62 0 0 1 .14 3c-2.59 4.47-5.37 8.84-8.28 13.56zm87.94 179.72c-7.47 1.74-14.72 2.68-22.08 1.34-2.89-.52-4.18 1-5.1 3.39-2.63 6.82-7 12.51-11.94 17.81-10.34-11.73-11.71-34.62-3.2-50.49 18 .44 36.54 12.57 42.32 28m-38.35-254.09c3.81 6.22 7.72 12.09 11 18.29 1.52 2.84 3.07 4 6.21 3.36 7.1-1.35 14 0 21.32 1.48A43.23 43.23 0 0 1 340.82 153c-7.45 4.9-15.77 7.42-24.49 8.74a3.11 3.11 0 0 1-2.62-1.17c-6.47-16.64-7.64-33 3-48.63a16 16 0 0 1 1.69-1.29m-147.46 23.26c7.21-1.71 14-2.85 21-1.61 3.48.61 5-.56 6.69-3.74 3.16-6.11 7.18-11.78 11.23-18.25 5.25 6.94 8 13.65 8.87 21 1.2 9.91-.62 19.45-4.35 28.64-.33.85-1.77 2-2.54 1.84-16.89-2.64-31.26-9.38-39.71-25.32-.36-.67-.65-1.37-1.21-2.58m-.41 231.75c5.65-12.34 13.7-20.11 24.84-24.38 5.17-2 10.68-3.1 16.08-4.39a3.22 3.22 0 0 1 2.82 1.33c6.27 16.13 7.47 32.06-2.38 47.41-.27.43-.58.83-.88 1.22a3 3 0 0 1-.65.36 51.9 51.9 0 0 1-11.82-17.27c-1.29-3.15-2.9-3.9-6.33-3.74-6.89.31-13.82-.28-21.68-.54m-7.16-116.38c-11.71 14.76-25.51 24.63-45.74 22.86 2-7.19 4.75-13.62 9.18-19.2 2.13-2.67 2.18-4.6 0-7.3-4.48-5.58-7.23-12.08-9.21-19.19 20.1-1.8 34 8 45.77 22.83m201.39.02c11.63-16.38 28.68-24.92 45.54-22.7-2 6.92-4.65 13.42-9.15 19-2.15 2.66-1.85 4.54-.08 7.38 3.66 5.84 6.65 12.09 10 18.34-14.4 4.42-33.95-5.2-46.32-22"/></g><path d="M290.56 249.18a26.65 26.65 0 0 1-53.29.17 26.65 26.65 0 1 1 53.29-.17m-46.08.11a19.66 19.66 0 0 0 19.68 19.55 19.86 19.86 0 0 0 19.36-19.58 19.52 19.52 0 0 0-39 0"/><path fill="#fff" d="M244.48 249.29a19.52 19.52 0 0 1 39 0 19.86 19.86 0 0 1-19.36 19.58 19.66 19.66 0 0 1-19.68-19.55"/></g></svg>