<svg xmlns="http://www.w3.org/2000/svg" data-name="Capa 1" viewBox="0 0 512 512"><path d="M85.04 85.04h341.92v341.92H85.04z" style="fill:#ab7cb1" transform="rotate(-45 256 256.002)"/><path d="M256 0 0 256l256 256 256-256Zm0 14.22L497.78 256 256 497.78 14.22 256Z" style="fill:#25204d"/><path d="M431.37 224.9a53 53 0 0 0-3.75-4.87l-6.56-6.56c-1.74-1.33-3.42-2.78-5.25-4-10.4-6.66-21.83-9-34.06-8.08a50.27 50.27 0 0 0-24.47 8.47 54.1 54.1 0 0 0-20.08 24.6c-.22.52-.46 1-.68 1.56-1.15 2.69-1.18 2.8-4.1 2.36-4.68-.71-9.34-1.54-14-2.36-4.86-.85-8.43-3.88-11.72-7.25-5.14-5.29-10.17-10.66-15.32-15.93-2.63-2.67-5.5-5.11-8.09-7.81a14.77 14.77 0 0 1-4.05-7.68c-.92-5.22-1.66-10.46-2.53-15.69-.25-1.5.21-2.26 1.69-2.88 4.59-1.91 9.31-3.65 13.25-6.79 11.56-9.21 20-20.44 21.8-35.6 1.21-10.2.47-20.26-3.81-29.8a45.5 45.5 0 0 0-7.79-12c-.48-.53-.87-1.14-1.3-1.71L296 88.37c-2.28-1.75-4.48-3.6-6.87-5.19a48.54 48.54 0 0 0-24.66-7.87c-9.63-.56-18.91.82-27.56 5.24A56 56 0 0 0 221 93.15a50.3 50.3 0 0 0-9.71 14.9c-3.37 8.31-4.12 16.94-3.45 25.77a46.14 46.14 0 0 0 8.62 24.23c6.2 8.51 13.56 15.72 23.68 19.53a24.5 24.5 0 0 1 3.65 1.65c.49.28 1.09 1.08 1 1.54-1 6.35-1.92 12.71-3.28 19-.37 1.75-1.88 3.42-3.22 4.79-9.08 9.21-18.27 18.31-27.39 27.47a15.58 15.58 0 0 1-9 4.33l-14.19 2.14c-1.27.2-1.9-.31-2.43-1.49-1.83-4-3.34-8.15-5.81-11.67a83.5 83.5 0 0 0-10-11.25c-15.12-14.86-44.11-17.7-63.48-4.62-16.11 10.89-24.72 26.05-24.41 45.82a53 53 0 0 0 8.56 28.58c1.12 1.7 2.5 3.24 3.75 4.85l6.56 6.56c1.62 1.26 3.16 2.63 4.86 3.75 10.62 7 22.36 9.37 34.9 8.31 9.54-.81 18.39-3.77 25.92-9.71 7.9-6.24 14.68-13.53 18.16-23.3.13-.33.28-.66.43-1 1.39-3.2 1.41-3.32 4.92-2.82 4.58.66 9.13 1.54 13.7 2.26a14.32 14.32 0 0 1 7.87 4.26q13.47 13.44 26.89 26.91a14.6 14.6 0 0 1 4.41 8.29c.73 4.83 1.53 9.65 2.33 14.47.28 1.66-.1 2.64-1.89 3.38a83 83 0 0 0-11.18 5.46c-5.1 3.11-9.12 7.55-12.94 12.08A46.5 46.5 0 0 0 208 373.06c-1.16 10.67-.27 21.13 4.77 30.82 1.88 3.61 4.55 6.81 6.85 10.19.35.5.71 1 1.07 1.49l5.47 5.46c2 1.54 4 3.26 6.14 4.61 11.21 6.94 23.41 9.23 36.41 7.46a49.16 49.16 0 0 0 21.34-8 65 65 0 0 0 11.84-11 44.25 44.25 0 0 0 10.67-20.92c3.14-15.83 1.43-30.87-8.72-44.08-4.53-5.9-9.64-11.3-16.27-14.9-3.11-1.69-6.4-3-9.65-4.46-.92-.4-1.45-.86-1.27-1.94 1-5.83 1.71-11.71 2.92-17.49.84-4 3.65-6.95 6.52-9.71 3.95-3.78 8-7.42 11.9-11.25 2.79-2.74 5.44-5.64 8-8.58 4.07-4.66 8.9-7.84 15.16-8.65 3.93-.51 7.83-1.26 11.75-1.8 2.38-.32 2.53-.16 3.43 2 2.79 6.75 6.23 13.06 11.31 18.4 8.52 8.94 18.71 14.67 31 16.32a54.84 54.84 0 0 0 33-5.34 41.7 41.7 0 0 0 10.36-7.43c4.11-4 8.38-8 11.08-13.17 9.9-19 9.4-37.8-1.75-56.19m-281.88-4.82c-3.14-1.69-11.54 7.6-20.17 21.72a13.92 13.92 0 0 0-7.95 12.55 13 13 0 0 0 .16 1.5c-8.45 16.83-12.48 31.08-9.06 32.92 3.08 1.66 11.21-7.22 19.67-20.87a13.73 13.73 0 0 0 13.05-3.67l16 1.65 15.58 2.37a36.7 36.7 0 0 1-7.65 14.22 44 44 0 0 1-16.62 12.69v-.12c-18.14 5.09-30 2-32.23 1.32a44.4 44.4 0 0 1 10.36-86.2 44.3 44.3 0 0 1 46.29 30.37c-7.24 1.08-14.29 2.15-21.31 3.19-.5.06-6.12.46-10.37.77a7 7 0 0 0-.57-.47c5.47-12.68 7.64-22.43 4.84-23.94M216.32 128a44.41 44.41 0 0 1 88.81 0c.28 23-16.41 38.88-30.48 42.26-.89-5.64-1.78-11.19-2.65-16.75l-1.19-12.1c10.65 6.46 18.95 9.52 20.75 7.15 2.07-2.73-5.14-11.86-16.94-22.1a13.89 13.89 0 0 0-16.8-13c-14.16-9.74-26.18-15-28.39-12.12s5.44 12.25 17.68 22.75a13.7 13.7 0 0 0-.35 3 13.92 13.92 0 0 0 4.05 9.82 23.6 23.6 0 0 1 .26 6.92 2 2 0 0 1-.19.13c-.31 2.61-.6 5.21-1 7.81-.91 5.85-1.9 11.68-2.87 17.52a5.3 5.3 0 0 1-.26.86c-13.12-3-30.54-18.57-30.43-42.15m66.81 214a44.57 44.57 0 0 1 14.44 63.3c-13.74 20.61-42.14 25.31-61.87 11.79a44.46 44.46 0 0 1-13.57-58.67 42.76 42.76 0 0 1 22-19.2 1 1 0 0 1 .13-.07c2.5-.94 2.59-.92 3 1.68 1.23 7.84 2.59 18.08 4 26a14 14 0 0 0-3.68 5.87c-15.11 2.16-25.82 5.81-25.58 9.18.27 3.58 12.73 5.68 29.39 5.36a13.79 13.79 0 0 0 20.15-1.45c16.53-2.09 28.55-6 28.29-9.55-.24-3.36-11.34-5.43-26.57-5.39a14.5 14.5 0 0 0-2.91-4c0-.62.13-1.24.23-1.88q2-12.75 4-25.47a14 14 0 0 1 .4-1.44c2.88 1.36 5.66 2.42 8.2 3.9m139.35-61.23c-13.13 18.36-39 23.53-58.54 11.75a44.1 44.1 0 0 1-18.43-21.72c-.21-.53-.37-1.07-.53-1.61a7 7 0 0 1-.11-.84c3.48-.57 6.81-1.17 10.16-1.68 6.41-1 12.83-1.92 19.25-2.86.33 0 .92-.12 1.56-.17-4.94 15.39-6.43 27.45-3.16 28.72s10.58-9.09 17.43-24.31a13.84 13.84 0 0 0 8.5-22.75c4.18-13.93 5.28-24.52 2.23-25.7s-9.57 7.65-15.95 21.11a14 14 0 0 0-7.34 4.43c-8.46-1.33-23.23-3.19-31.52-4.48-.3-.05-.59-.15-1.15-.28.25-.9.44-1.78.73-2.61a40.2 40.2 0 0 1 12.57-17.26c13.47-11.19 28.75-13.64 44.82-7.36 17.23 6.72 26.49 20.06 28 38.49.89 10.72-2.28 20.39-8.53 29.13" style="fill-rule:evenodd"/></svg>