<svg xmlns="http://www.w3.org/2000/svg" id="Capa_1" data-name="Capa 1" viewBox="0 0 512 512"><defs><style>.cls-4{fill:#db0357}</style></defs><path d="M85.04 85.04h341.92v341.92H85.04z" style="fill:#e83876" transform="rotate(-45 256 256.002)"/><path d="M256 0 0 256l256 256 256-256Zm0 14.22L497.78 256 256 497.78 14.22 256Z" style="fill:#dd0162"/><path d="M161.64 181.15s20.05-37.22 59.74-37.78C254.57 186.72 301.2 246 301.2 246l9.42 63.6-8.76 9.09-57.75-29.55Z" style="fill:#fff"/><path d="M318.14 326.68s62.76-46.19 61.47-93.54c-1-36.77-38.84-58.73-61.51-53.7s-49.55 21.13-49.55 21.13l-7.08-9.16s37-29.81 78.85-25.78 79.82 31.72 42.32 101.77c-31.75 59.28-64.5 59.28-64.5 59.28" class="cls-4"/><path d="m202 238.22 5.89 7.76s-26.31 31.5-33.36 62.24 6.54 85.14 42.82 94.21S302 395.38 363 339s46.85-130.49 41.81-144.09-32.36-42.58-75.11-42.91c36.31-11.59 68 6.54 85.17 42.31s7 79.61-16.91 117.39-66.21 81.66-132.22 99.3S166 395.88 165 357.59s-2.48-68.46 37-119.37" class="cls-4"/><path d="m305.25 246.24-.14-1-.62-.8c-.69-.88-69.59-89.25-91.64-119.31l-1.39-1.9-2.32.42c-28.17 5.14-43 16.85-50.56 25.77-8.38 9.94-9.85 18.8-9.91 19.16l-.26 1.6 11.05 14.36 82.13 108.32.55.73 74.65 35.65Zm-119.79-87.67 69 95.45c0 3.92-.54 23.06-9.12 31.28l-78.52-103.54a68.7 68.7 0 0 1 18.64-23.19m88.39 100.09a54.4 54.4 0 0 0 24.72-5.73l6.73 48.31c-5.52-1.74-9.47 1.62-10.87 9l-42.91-20.48c8.26-9 10-24.28 10.37-32.23a63 63 0 0 0 12 1.17m-.2-7.58a56.3 56.3 0 0 1-13.23-1.62l-68.77-95.17a58.2 58.2 0 0 1 27.49-8.19c24.09 31.86 63.55 82.6 76.82 99.61a48.1 48.1 0 0 1-22.33 5.33M213.79 139a66.27 66.27 0 0 0-41 21 77 77 0 0 0-11 15.15l-5.29-6.86c1.78-6.07 11-28.61 51.74-36.8 1.65 2.24 3.54 4.77 5.59 7.5" style="fill:#1c1514"/></svg>