<svg xmlns="http://www.w3.org/2000/svg" data-name="Capa 1" viewBox="0 0 512 512"><path d="M85.04 85.04h341.92v341.92H85.04z" style="fill:#ab7cb1" transform="rotate(-45 256 256.002)"/><path d="M256 0 0 256l256 256 256-256Zm0 14.22L497.78 256 256 497.78 14.22 256Z" style="fill:#25204d"/><path d="M370.78 174.05c-5.18 13.64-9.89 16.79-25.12 16.79h-33.79c-5.85 34-11.42 67.56-4.06 101.52 1.61 7.44 5.39 14.79 9.68 21.18 5.52 8.23 14.34 10 23.6 6.68 10.23-3.72 15.78-11 16-20.67 0-2.26.91-4.51 1.38-6.77 2.25 1.43 5.08 2.4 6.64 4.36 7.39 9.3 6.66 25.94-1.3 38-11.3 17.18-35.63 26.33-55.45 20.72-17.38-4.94-26.63-17.56-30.23-34.32-4.88-22.6-5.5-45.64-4.56-68.67.81-19.68 2.19-39.37 3.29-59 0-.8-.06-1.6-.11-2.7H242c0 13.08-.16 26 0 39 .41 27.62 1.33 55.23 1.31 82.84A53.4 53.4 0 0 1 233 344.25c-7.57 10.56-18 14.12-28.17 9.71-12.15-5.25-19.33-17.32-16.14-29.38a139.5 139.5 0 0 1 10.28-27.52 106.5 106.5 0 0 0 11.57-44.38c.8-18.7.38-37.44.25-56.17-.06-6.2-.82-6.68-7-6.63-15 .11-28.48 5.68-42 11.14-4.16 1.67-8.29 4.41-13 1.66v-3A135.3 135.3 0 0 1 176 163.34c9.19-8.77 19.54-15.83 32.9-15.86q71.26-.19 142.54 0c10 0 16.12 5.26 18.46 15.06a7.7 7.7 0 0 0 .85 1.66Z" style="fill-rule:evenodd"/></svg>