<svg xmlns="http://www.w3.org/2000/svg" id="Capa_1" data-name="Capa 1" viewBox="0 0 512 512"><defs><style>.cls-3{fill-rule:evenodd}</style></defs><path d="M85.04 85.04h341.92v341.92H85.04z" style="fill:#dcecf4" transform="rotate(-45 256 256.002)"/><path d="M256 0 0 256l256 256 256-256Zm0 14.22L497.78 256 256 497.78 14.22 256Z" style="fill:#0093c4"/><path d="M198 274.76a62.6 62.6 0 0 1-23.41-37.87c-4.19-20.17-4-40.24 4.88-59.35 13.77-29.71 37-47.1 69.58-51.29 36.51-4.71 70.89 15.39 87 46.73 16.94 33.1 11.35 76.91-16.29 101.7-.93.83-1.89 1.6-3.12 2.63-2.86-6.15-5.46-12-8.35-17.81-7.42-14.88-15.51-29.41-25.59-42.71-4.09-5.38-9.23-6.94-15.05-4.7-5.1 2-8.23 6.89-7.18 13.31 1.79 11 4.12 21.9 6.5 32.8.53 2.51 0 4.2-.9 6.55a75.7 75.7 0 0 0-4.24 16.77c-.66 4.57-.14 9.33-.14 14.27H252c0-5.35.32-10.42-.07-15.44-.49-6.42-1-12.91-4.91-18.55-.59-.86-.05-2.64.19-3.94 2.07-11.09 4.37-22.13 6.24-33.24 1.06-6.22-1.88-11.05-7.22-13.24s-10.8-.56-14.44 4.45c-12.68 17.26-22.81 36-31.64 55.46-.42.93-.79 1.88-1.23 2.79-.09.2-.37.31-.86.68" class="cls-3"/><path d="M238.48 266.9c3.36 3.77 3.92 7.94 3.94 11.81 0 13.43.13 26.91-.84 40.3-1.11 15.17-3.21 30.28-5.21 45.4a20.4 20.4 0 0 1-3.7 8.48c-4.07 5.82-8.67 11.27-12.89 17a6.75 6.75 0 0 1-6.45 3c-14.45-.83-28.92-1.48-43.37-2.34-1.32-.08-3.23-.91-3.66-1.91s.36-2.93 1.23-3.9c6.3-7.13 12.54-14.35 19.25-21.1 6.22-6.26 9-13.57 9.27-22.2.34-9.53 1.27-19 1.54-28.54.24-8.29 2.58-16 5.62-23.52 9.29-23.16 20.61-45.27 35.07-65.68.44-.62.77-1.43 1.36-1.8 1-.63 2.49-1.6 3.14-1.28a4.14 4.14 0 0 1 1.87 3.17 78 78 0 0 1-1.36 11.34c-1.44 7-3.13 13.85-4.83 20.76a4.3 4.3 0 0 1-1.82 2.66c-8 3.27-10.92 10.34-13.06 17.72a74.4 74.4 0 0 0-2.47 15c-.74 9.36-1 18.77-1.51 28.15-.18 3.22 1 5.2 4.26 5.56 2.86.29 4.81-1.87 5-5.37.73-11.27 1.16-22.56 2.3-33.8.45-4.45 2.26-8.8 3.77-13.08.68-1.94 2.14-3.59 3.51-5.81M322.76 392.33c-7.1 0-14.22.17-21.3-.12a8.14 8.14 0 0 1-5.37-2.5c-4.83-5.71-9.4-11.71-13.87-17.71a15 15 0 0 1-3.05-6.41c-3.59-26.16-7-52.35-6.77-78.86a98.5 98.5 0 0 1 1.41-14c.21-1.39 1.58-2.61 2.45-3.91 1.26 1 3.25 1.85 3.66 3.14 1.76 5.4 3.75 10.85 4.34 16.43 1.07 10.09 1.21 20.28 1.73 30.44a15 15 0 0 0 .06 1.51c.42 2.78 2.11 4.49 4.83 4.51a4.19 4.19 0 0 0 4.45-4.68c-.53-15.85-.11-31.82-4.91-47.2-1.87-6-4.82-11.46-11.13-14.23a4.94 4.94 0 0 1-2.43-3.12c-2.16-10.17-4.22-20.36-6.05-30.59-.24-1.38.95-3 1.47-4.52 1.41.81 3.33 1.23 4.17 2.43a301.7 301.7 0 0 1 35 66.12 81.9 81.9 0 0 1 6 28.82 322 322 0 0 0 2.17 32.29 19.3 19.3 0 0 0 4.8 10c7.44 8.34 15.45 16.14 23.1 24.29A6.82 6.82 0 0 1 349 389c0 .61-2.42 1.52-3.76 1.54-7.49.14-15 .07-22.47.07ZM308.48 127.67c-4.77.15-7.19-3.81-5.17-7.44s4.36-7.1 6.67-10.56c1.68-2.52 4-3 6.57-1.38 2.34 1.52 3 3.71 1.5 6.23-2.26 3.78-4.48 7.61-6.93 11.28a7.6 7.6 0 0 1-2.64 1.87M359.73 277.29a21.6 21.6 0 0 1-3.55-1.39q-5.07-3.31-10-6.83c-2.43-1.7-3.11-4-1.43-6.56s4.07-2.9 6.57-1.29a90 90 0 0 1 10.57 7.32c1.17 1 1.72 3.68 1.34 5.28-.34 1.42-2.39 2.44-3.49 3.47M171 266.19a10.4 10.4 0 0 1-2.18 3.16c-3 2.32-6.19 4.39-9.38 6.41-2.53 1.62-5.08 1.79-6.89-1.09s-.87-5.05 1.69-6.84c3.21-2.23 6.29-4.68 9.64-6.69s7.16.13 7.12 5.05M200.17 107.92a10.1 10.1 0 0 1 2.82 2.23c2.34 3.3 4.44 6.77 6.57 10.23 1.62 2.6 1.21 5-1.37 6.57s-4.91 1-6.59-1.55c-2.24-3.38-4.54-6.74-6.52-10.28s.32-7.32 5.09-7.2M171.2 166.2c-5.61-2.65-10.63-4.73-15.26-7.43-1-.57-1.21-3.88-.51-5.33.57-1.21 3.28-2.5 4.55-2.1a75 75 0 0 1 13.25 5.53c1.15.6 2 3.31 1.62 4.77s-2.2 2.85-3.65 4.56M342.2 166c-1.53-1.55-3.65-2.72-4-4.26s.68-4.32 1.95-5.05a61 61 0 0 1 12.54-5.27c1.41-.4 4.2.85 5 2.15s.4 4.76-.59 5.33c-4.53 2.64-9.46 4.6-14.87 7.1M366.08 219.22c-2.16 0-4.3.09-6.44 0-2.73-.16-4.15-1.82-4.17-4.47s1.43-4.51 4-4.65a105 105 0 0 1 13.26 0A4.39 4.39 0 0 1 377 215c-.11 2.62-1.75 4.14-4.45 4.2-2.15.07-4.29 0-6.45 0ZM260.83 103.54c0 2 .07 4.06 0 6.07-.11 2.87-1.7 4.49-4.55 4.56s-4.63-1.39-4.71-4.33c-.11-4.3-.17-8.61 0-12.9a4.07 4.07 0 0 1 4.44-4.2 4.3 4.3 0 0 1 4.77 4.35c.16 2.14 0 4.3 0 6.45ZM148.06 219.22c-2.16 0-4.3.11-6.44 0-2.75-.16-4.54-2.05-4-4.44.38-1.79 2.38-4.31 4-4.54 4.32-.64 8.81-.37 13.22-.2 2.65.11 4.07 1.89 4.13 4.54a4.17 4.17 0 0 1-4 4.6 67 67 0 0 1-6.82 0Z" class="cls-3"/></svg>