<svg xmlns="http://www.w3.org/2000/svg" id="Capa_1" data-name="Capa 1" viewBox="0 0 512 512"><defs><style>.cls-4{fill:#1e1e1c}.cls-5{fill:#1c1514}</style></defs><path d="M85.04 85.04h341.92v341.92H85.04z" style="fill:#e83876" transform="rotate(-45 256 256.002)"/><path d="M256 0 0 256l256 256 256-256Zm0 14.22L497.78 256 256 497.78 14.22 256Z" style="fill:#dd0162"/><path d="M195.15 242.38s-11.92 90.7-3.49 116.26 35.1 61.58 81.82 50.31 56.07-54.7 58.55-100.32 8.69-64.31 8.69-64.31l-26-26.42s-111.34 19.53-119.57 24.48" style="fill:#fff"/><path d="M261.1 432a26.55 26.55 0 0 1-10.93-2.33c-1.89-.84-4.07-1.76-6.48-2.77-23.47-9.89-67.17-28.28-73-69.63-.16-11-.13-16.17-.08-18.48-4.13-.91-14.52-4.25-19.25-15.12-3.83-8.77-7.71-28 .09-34.91 4.17-3.7 10.65-3.31 19.29 1.13-.38-11.63 1.81-47.94 42.92-57.86 47.37-11.43 95.92-18.11 96.4-18.18l.51-.07.49.21c1.45.62 35.76 15.64 36.33 43.47.39 19 .23 35.07.1 42.88 3.61-3.55 9.33-8.05 14.17-6.66 3.58 1 5.81 4.87 6.61 11.43 1.68 13.78-3.1 21-7.41 24.63s-9.22 4.59-12.38 4c-.59 1.49-1.11 5.63-1.58 9.33-1.91 14.9-5.45 42.63-25.63 56.22-5.08 3.41-9.91 6.85-14.53 10.13-17.35 12.3-31.82 22.58-45.64 22.58M158.58 290a6.76 6.76 0 0 0-4.61 1.55c-5.9 5.23-2.57 22.66.86 30.55 5 11.49 17.83 13.17 18 13.18l1.81.23-.14 1.81c0 .12-.23 3.11 0 19.62 5.51 38.95 47.92 56.81 70.7 66.4 2.42 1 4.63 2 6.54 2.8 15.29 6.8 31.84-5 52.83-19.88 4.64-3.31 9.5-6.76 14.61-10.19 18.76-12.63 22-38.25 24-53.55 1-7.88 1.49-11.12 3.37-12.35a2.7 2.7 0 0 1 2.29-.31c1.71.51 5.83.13 9.62-3.07 3.59-3 7.57-9.17 6.08-21.27-.41-3.37-1.41-7.53-3.87-8.24-3.66-1-10.33 5.09-13.65 9.2l-3.52 4.38.14-5.62c0-.21.55-21.16 0-47.75-.48-23.72-29.5-38-33.56-39.85-5.44.77-51 7.28-95.48 18-45.55 11-40.05 55.38-39.78 57.26l.52 3.89-3.37-2c-4.14-2.43-9.23-4.82-13.34-4.82" class="cls-4"/><path d="M216.85 278.39c-33 36.28 3.3 60.46 3.3 60.46 34.56-36.18-3.3-60.46-3.3-60.46m3 41a13.36 13.36 0 1 1 13-13.36 13.16 13.16 0 0 1-13 13.36M296.88 278.39c-33 36.28 3.29 60.46 3.29 60.46 34.57-36.18-3.29-60.46-3.29-60.46m3 41a13.36 13.36 0 1 1 13-13.36 13.16 13.16 0 0 1-13 13.36" class="cls-5"/><path d="M247.6 379.5c-16.32 0-16.71-.61-17.2-1.35l-.57-.88.42-1c2.68-5.94 15.28-16.07 33.57-13.74 18.05 2.29 24.51 13.11 24.77 13.57l1.62 2.79-3.21.11c-18.66.38-31.08.54-39.39.54m-12.39-4c7.88.3 31 0 47.86-.3-2.95-3-9-7.58-19.72-8.94-13.81-1.75-24.1 4.37-28.14 9.24M138.8 231.12s-33-3.85-25.29-17.59 45-69.27 144.25-77.52 135.56 20.89 124 30.79l-11.54 9.89 1.65 17.05-1.1 10.45-191.29 42.86s-11.8 1.72-21.35.22c-3.73-.58-7.11-1.65-9.31-3.51-7.82-6.6-10-12.64-10-12.64" class="cls-4"/><path d="M172.86 297.17c-.09-.11-9.52-11.52-14.64-7.41l-3.09 2.47v-47.69l2.44.72c.15 0 14.2 4.13 23.48.83l20.64-7.35-8.85 7.07c-.15.12-15.23 12.35-16.61 29.43-1.33 16.52-.19 19.86-.14 20Zm-12.15-12.12c4 0 8.18 2.92 11.11 5.57a151 151 0 0 1 .63-15.68c.91-11.25 7-20.36 11.83-26l-2 .7c-8.06 2.87-18.67 1-23.39-.13v35.73a7.2 7.2 0 0 1 1.78-.21M343.34 310l.25-4.72c0-.31 1.63-30.31 0-47.56-1.59-17-23.05-36.42-29.32-37.91l-7.61-1.82 62-15.28-.05 2.48c-.08 3.16-1.79 77.68-8.36 91.11l-.3.62-.63.28c-4.45 2-12.45 9.49-12.53 9.57Zm-23.1-91.44c9.86 6.32 25.68 23.22 27.14 38.81 1.26 13.47.59 34.45.22 43.59a58 58 0 0 1 9.5-6.9c4.63-11.07 7-59.76 7.65-86.48Z" class="cls-4"/></svg>