<svg xmlns="http://www.w3.org/2000/svg" data-name="Capa 1" viewBox="0 0 512 512"><path d="M85.04 85.04h341.92v341.92H85.04z" style="fill:#35a8e0" transform="rotate(-45 256 256.002)"/><path d="M256 0 0 256l256 256 256-256Zm0 14.22L497.78 256 256 497.78 14.22 256Z" style="fill:#28397b"/><path d="M353 212.48a99.27 99.27 0 1 1-99.27-99.27A99.26 99.26 0 0 1 353 212.48" style="fill:#fff"/><path d="M335.84 414.6c-10.32-28.76-46.29-39.33-73.37-41.17l-3.86-133.27a37.36 37.36 0 0 0 10.67-29.35c0 7.35-8.67 18-8.67 18l-6-17.33-1.32 13.33c-4.68 1.34-15.35-14-15.35-14-2 15.35 12.68 23.35 12.68 23.35l-1.94 139.1c-28.22 1.21-57.65 12.11-72.18 37.33-2.75 4.79 4.63 9.1 7.39 4.32 14.22-24.7 44.06-32.88 70.87-33.16 25-.26 63.46 9 72.84 35.12 1.84 5.13 10.11 2.92 8.24-2.27"/><path d="M276.62 266.18s-9.33 25.35 17.34 46c10-32.67-17.34-46-17.34-46M304.26 239.57s11.53 22.57 43.58 15.23c-16.21-27.58-43.58-15.23-43.58-15.23M303.13 262.68s.36 38.43 42.2 42.78c-10.9-41.18-42.2-42.78-42.2-42.78M278.14 225.8s5 12.63 22.53 10.31c-7.29-15.55-22.53-10.31-22.53-10.31M278.14 238.66s2.15 17.61 17.25 17.34c.78-14.34-17.25-17.34-17.25-17.34M266.55 241.16s-6 9.79 6.62 19.81c6.66-12.74-6.62-19.81-6.62-19.81M315.63 216.16s24.22 22.53 60.19 2.17c-32.19-26.75-60.19-2.17-60.19-2.17M298.65 172.38s30.94-2.35 37.79-42c-38.81 5.28-37.79 42-37.79 42M324.23 184.55s43.56 17.77 68.26-27.44c-51.67-7.14-68.26 27.44-68.26 27.44M285.28 201.45s20.9 5.88 27.74-11.29c-15.83-7.65-27.74 11.29-27.74 11.29M282.63 215.71s8.22 11.36 25.49 1.89c-11.23-13.54-25.49-1.89-25.49-1.89M257 153.36s18.88-23.7-5-55c-22 31.28 5 55 5 55M274.31 168.25s30.17-8.85 18-43.47c-28.42 17.95-18 43.47-18 43.47M254.93 188.61s11.28-11.73.1-29.62c-13.32 15.63-.1 29.62-.1 29.62M266.5 195.9s13.38-8.18 7.65-20.22c-11.81 4.62-7.65 20.22-7.65 20.22M277.39 193.63s13.6 1.66 18.3-17c-17.16-1-18.3 17-18.3 17M235.37 166.15s9.34-25.35-17.33-46c-10 32.68 17.33 46 17.33 46M207.75 192.75s-11.54-22.57-43.59-15.22c16.21 27.57 43.59 15.22 43.59 15.22M208.86 169.65s-.36-38.43-42.21-42.78c10.91 41.18 42.21 42.78 42.21 42.78M233.85 206.53s-5-12.64-22.53-10.32c7.29 15.55 22.53 10.32 22.53 10.32M233.85 193.66s-2.15-17.6-17.25-17.33c-.77 14.33 17.25 17.33 17.25 17.33M245.45 191.17s6-9.78-6.62-19.82c-6.67 12.74 6.62 19.82 6.62 19.82M196.36 216.16s-24.22-22.53-60.19-2.17c32.2 26.75 60.19 2.17 60.19 2.17M213.34 260s-30.93 2.35-37.79 42c38.82-5.26 37.79-42 37.79-42M187.77 247.77S144.2 230 119.51 275.21c51.66 7.15 68.26-27.44 68.26-27.44M241.25 237s-16.65-.29-22.29 20.57c21-.89 22.29-20.57 22.29-20.57M226.71 230.87s-20.9-5.87-27.71 11.3c15.83 7.65 27.74-11.3 27.74-11.3M229.37 216.62s-8.23-11.37-25.5-1.89c11.24 13.55 25.5 1.89 25.5 1.89"/></svg>