<svg id="Capa_1" data-name="Capa 1" xmlns="http://www.w3.org/2000/svg" viewBox="0 0 512 512"><defs><style>.cls-1{fill:#e83876;}.cls-2{fill:#dd0162;}</style></defs><rect class="cls-1" x="85.04" y="85.04" width="341.92" height="341.92" transform="translate(-106.04 256) rotate(-45)"/><path class="cls-2" d="M256,0,0,256,256,512,512,256Zm0,14.22L497.78,256,256,497.78,14.22,256Z"/><path d="M106,341.22a22.4,22.4,0,0,0,2.15-2.21q19.53-26,39-51.95c.46-.61,1-1.18,1.75-2.08,3.25,6.32,6.36,12.4,9.59,18.69,5.89-3.44,11.64-6.71,17.25-10.21.75-.47,1.06-2.14,1.06-3.25q.09-35.44,0-70.88v-3.64c1,.42,1.78.67,2.5,1Q212.2,233.12,245,249.5c1.4.7,2.27,1.32,2.27,3.19q-.12,42.18-.06,84.36c0,.38-.07.77-.13,1.49-1-.47-1.85-.84-2.69-1.26q-28-14-55.94-28a4.32,4.32,0,0,0-4.81.19c-5.54,3.4-11.2,6.62-17.05,10.06l11.1,22.34c-1.23.1-2.06.21-2.9.21H108.61a25.65,25.65,0,0,1-2.61-.27Z"/><path d="M363.16,284.82l42.84,57H334.36l11.09-22.34c-6.34-3.71-12.5-7.39-18.77-10.88-.66-.37-2,.24-2.92.68q-28,13.92-56,27.92c-.85.42-1.72.81-2.83,1.33-.07-1-.15-1.76-.15-2.49q0-41.46,0-82.91c0-1.53.11-2.61,1.81-3.45q33.4-16.56,66.72-33.3c.42-.21.88-.36,1.83-.74v3.24c0,23.73,0,47.46,0,71.19a4.21,4.21,0,0,0,2.52,4.3c5.28,2.92,10.44,6.05,15.91,9.25C356.7,297.44,359.79,291.42,363.16,284.82Z"/><path d="M247.23,148.63H224.1L256,84.78l31.85,63.66h-23c0,7-.08,13.57.11,20.16,0,.72,1.48,1.59,2.44,2.07q27.7,13.91,55.45,27.72c1.11.56,2.19,1.18,3.56,1.93-1.5.77-2.7,1.4-3.91,2q-31.92,16-63.83,31.94c-1.55.78-2.83,1.22-4.61.32q-33.3-16.77-66.67-33.4c-.43-.21-.84-.47-1.57-.89,1.09-.59,2-1.08,2.84-1.53,18.65-9.34,37.28-18.72,56-27.95a4.08,4.08,0,0,0,2.67-4.44C247.12,160.54,247.23,154.71,247.23,148.63Z"/></svg>