<svg xmlns="http://www.w3.org/2000/svg" data-name="Capa 1" viewBox="0 0 512 512"><path d="M85.04 85.04h341.92v341.92H85.04z" style="fill:#7dba32" transform="rotate(-45 256 256.002)"/><path d="M256 0 0 256l256 256 256-256Zm0 14.22L497.78 256 256 497.78 14.22 256Z" style="fill:#13a646"/><path d="M375.22 248.74c0 66.29-54.76 120-122.3 120s-122.31-53.74-122.31-120 54.77-120 122.31-120 122.3 53.74 122.3 120" style="fill:#fff"/><path d="M140.66 128.91s38.44 14.4 53.44 4.76 51.49-21.25 79.93-8.91c36.92 16 105.77 62.31 105.77 62.31s5.86 16.9-10.5 15c-23.33-2.72-61.85-24-61.85-24s14.71-21.79-27.53-28.33c-21.19-3.29-42.31-10.4-73.38 13.36 6.43 6.63 6.81 4.88 17.52.8s54.25-9.57 69.23-.8 0 20.54-12.85 20.54-24.62-4.28-45 10.72-49.26 18.21-69.61 8.56-54.62-27.84-54.62-27.84ZM376.36 380.06s-38.44-14.41-53.43-4.76-51.5 21.25-79.93 8.9c-36.92-16-105.77-62.32-105.77-62.32s-5.85-16.88 10.5-15c23.32 2.72 61.85 24 61.85 24s-14.71 21.79 27.53 28.33c21.19 3.29 42.31 10.4 73.37-13.37-6.42-6.62-6.8-4.87-17.51-.79s-54.25 9.57-69.25.79 0-20.54 12.86-20.54 24.64 4.28 45-10.71 49.27-18.21 69.62-8.57 54.61 27.85 54.61 27.85Z"/><path d="M287.5 264a25.2 25.2 0 0 0 5.57-15.83 24.81 24.81 0 0 0-24.62-25 24.47 24.47 0 0 0-19.76 10.1 24.32 24.32 0 0 0-17.87-7.84 24.83 24.83 0 0 0-24.64 25 25.1 25.1 0 0 0 6 16.3l.13.1a24 24 0 0 0 4.23 3.91l32.34 29.8 34-32.1a25 25 0 0 0 4.69-4.43Z" style="fill:#e41f1a"/></svg>