<svg xmlns="http://www.w3.org/2000/svg" id="Capa_1" data-name="Capa 1" viewBox="0 0 512 512"><defs><style>.cls-3{fill:#f8f5f3}.cls-4{fill:#1e1e1c}</style></defs><path d="M85.04 85.04h341.92v341.92H85.04z" style="fill:#35a8e0" transform="rotate(-45 256 256.002)"/><path d="M256 0 0 256l256 256 256-256Zm0 14.22L497.78 256 256 497.78 14.22 256Z" style="fill:#28397b"/><path d="M435.25 202.24s-58.07 16.25-74.68 13.93-40 6.19-43 12.36 17.36 7.75 45.27 8.51 65.61-7.73 72.4-10.83 20.37-14.69 0-24" class="cls-3"/><path d="M292.69 202.24s15.84-4.63 11.32-8.5-23.39-15.48-43.75 0-16.6 57.22 0 73.47 39.38 18.56 57 17 28.2-17.78 28.2-17.78-2.28-2.32-21.13 1.55-21.12 5.4-31.68-3.09-38.47-48 0-62.66" class="cls-3"/><path d="M314.81 228.8s4.29-9 19.13-11.85 31.67-2.84 31.67-2.84-3.52-24.5-25.39-26.3-26.91 5.93-31.44 8.51-4.26 5.66-10 7.48-17.86 6.44-20.87 14.43-2.76 12.38-1.26 14.69 6 1.56 12.07 0 19.86-10.32 26.14-4.12M242.65 221.32s4-21.4 10.82-24.49c0 0-22.13-33-61.61-36.87s-66.86 10.83-84.23 42.28-13.07 85.85 17.6 112.15 74.68 22.17 99.82 5.16 45-40.74 45-40.74-12.07-5.4-17.6-15.47c-7.8 8.77-37.71 45.37-62.87 47.44s-44.24-7.19-57.57-26.16-16.1-49.11-10.55-61.49 31.42-47.11 67.12-37.22 54.06 35.41 54.06 35.41M464.68 242.46s18.85 18.57 4.52 24.75c-20.37 1.54-94.29 0-94.29 0S350.2 261.6 335.3 263a260 260 0 0 0-30.3 4.9s-22-12.68-24.57-23.31 27.32-8.6 36.86-7.49 58 .91 72.13 5.16 75.26.2 75.26.2" class="cls-4"/></svg>