<svg xmlns="http://www.w3.org/2000/svg" id="Capa_1" data-name="Capa 1" viewBox="0 0 512 512"><defs><style>.cls-3{fill:#0a9b39;fill-rule:evenodd}</style></defs><path d="M85.04 85.04h341.92v341.92H85.04z" style="fill:#7dba32" transform="rotate(-45 256 256.002)"/><path d="M256 0 0 256l256 256 256-256Zm0 14.22L497.78 256 256 497.78 14.22 256Z" style="fill:#13a646"/><path d="M383.72 239.91c-4.36-14-12-25.75-23.93-34.35-13.21-9.51-28.21-13.76-44.37-14.1a47.3 47.3 0 0 0-9.61.47c-7.3 1.34-13.77 4.79-20.14 8.51-5.75 3.35-11.45 6.85-17.42 9.79-6.55 3.23-13.68 4.4-20.52 1.19a128.5 128.5 0 0 1-18-10.2C215 191.1 199.27 187 181.6 191.56c-18.47 4.77-33.53 14.43-44.46 30.15-7.45 10.73-11.34 22.86-12.56 35.71-.69 7.2-.13 14.52-.13 21.78l-.66.12c1.55 8.45 2.84 17 4.71 25.33 4.46 20 13.34 38 24.77 54.85a243 243 0 0 0 26.91 32.68 78 78 0 0 0 10.65 9.7 38.64 38.64 0 0 0 21.95 6.8 42.8 42.8 0 0 0 8.55-.39c6.38-1.18 11.84-4.22 17.06-8.14a26.7 26.7 0 0 1 11.2-4.85c7.46-1.24 14.73.35 21.59 3.72 7.81 3.83 15.86 6.65 24.75 7 10.9.4 21-1.93 29.91-8.17 11.43-8 20.64-18.24 28.92-29.34 19.36-26 31.42-54.76 33.19-87.46.77-14-.06-27.7-4.23-41.1M262.24 183.58h1a92.3 92.3 0 0 0 23.47-3.33c16.46-4.69 29-14.38 37.56-29.21A82.8 82.8 0 0 0 334 123c1-5.73 1.29-11.56 1.89-17.35.16-1.56-.47-2.47-2.12-2.36-4.71.32-9.52.12-14.05 1.16a170 170 0 0 0-23.17 6.74 58.77 58.77 0 0 0-26.27 20.4c-10.1 13.64-14 29.33-14.15 45.93-.07 6.6-1.62 6.06 6.07 6.08" class="cls-3"/><path d="m357.75 244.27-50.84 31.62-.58-.65 34.22-48.77-.73-.62L291.05 261c-.17-.2-.34-.39-.51-.61l28.21-49.31-1-.74a38 38 0 0 0-2.93 2.41Q297 229.91 279.2 247.1c-2.25 2.19-5.17 4.31-6.18 7.06a28.3 28.3 0 0 0-.1 20.2l-65.22 65.22-25.7 25.75a9.84 9.84 0 0 0 13.92 13.91Q230 345.12 264.1 311l22.51-22.51c7.22 3.41 14.91 3.72 22.83 2.71a12.48 12.48 0 0 0 7.85-4.1c13.11-13.59 26.32-27.08 39.5-40.63a16 16 0 0 0 1.37-1.85z" style="fill:#fff"/></svg>