<svg xmlns="http://www.w3.org/2000/svg" data-name="Capa 1" viewBox="0 0 512 512"><path d="M85.04 85.04h341.92v341.92H85.04z" style="fill:#35a8e0" transform="rotate(-45 256 256.002)"/><path d="M256 0 0 256l256 256 256-256Zm0 14.22L497.78 256 256 497.78 14.22 256Z" style="fill:#28397b"/><path d="M339.81 293.51s13.48-5.92 18.33-10.06S370 276.66 373 279s29.14 23.34 41.81 26 20.24-2.07 20 4.72l-.27 6.79H413.7s-7.55-1.47-14.83-2.07-17.53-.89-17.53-.89-6.21-4.42-18.07-5.3-23.46-14.76-23.46-14.76"/><path d="M426.11 235c-2.11-2-18.62-15-18.62-15s-2.14-6.49-14-10.33-16.73-5.62-20.23-14.78a34.6 34.6 0 0 0 1.35 13.29s-17.53 4.73-26.17 1.19-25.62-13-25.62-13-3.23-2.66-14.82 5-29.41 10.93-29.41 10.93 17-7.09 19.68-10.05c-8.62-.59-50.7-3.19-61.48-10s-17-9.19-33.18-10.07-43.7 14.47-60.7 24.22-29.67 26.6-38.57 18.27c0 0-6.75-2.36-5.11-13.58s3.48-16.84-1.91-18.61-9.17 5.31-10.52 14.52-4.31 30.73 12.43 32.49 34.51-10.33 34.51-10.33 34-18.61 36.41-18.61-12.42 21.85-25.35 30.42-31.56 10.33-31 20.39l.55 10-14.59 25.1s2.43 20.08 11.59 20.67a201 201 0 0 0 20.23 0s2.93-9.17-3.52-14.18-7-5-5.11-10.34 5.13-11.81 13.48-12.7 21.86 8.86 38.84-.89 26.44-18.31 45.31-17.13c10.11 1.53 19.69 8.28 23.75 10.34s24 15.06 27.24 14.47c-.27 8.27 0 20.68 0 20.68s7 5.54 8.63 10c5.4-.25 28.31 0 28.31 0s-.27-5.57-3.5-6.75c-1.63-.6-4.38 0-6.72-.16-1.94-3.09-3.16-9.75-3.16-22.7a38.2 38.2 0 0 0-2.36-12.77c-.2-2.62-.42-4.93-.7-6.64-1.35-8.26-2.43-13.58-2.43-13.58s11.87 20.09 9.43 35.45c8.37.59 18.88.59 33.45-6.79s34-21.86 46.67-23.63 21 1.18 30.46 4.72c4.06.89 6.48 0 7.84-3.24s0-4.74 0-4.74 2.42-1.17 4.31-5.32a19.1 19.1 0 0 0 1.62-8.26s4.85-5.9 2.69-8" style="fill:#1e1e1c"/></svg>