<svg xmlns="http://www.w3.org/2000/svg" id="Capa_1" data-name="Capa 1" viewBox="0 0 512 512"><defs><style>.cls-4{fill-rule:evenodd;fill:#fff}</style></defs><path d="M85.04 85.04h341.92v341.92H85.04z" style="fill:#e83876" transform="rotate(-45 256 256.002)"/><path d="M256 0 0 256l256 256 256-256Zm0 14.22L497.78 256 256 497.78 14.22 256Z" style="fill:#dd0162"/><path d="M249.9 144.87c26.41 0 52.8-.08 79.19 0 11 .05 19.22 5.26 24.53 14.9a24.94 24.94 0 0 1 3 12.14v159.52a27.34 27.34 0 0 1-24.09 26.83 30 30 0 0 1-3.76.24H170.84a27.45 27.45 0 0 1-27.48-22.89A24.7 24.7 0 0 1 143 331V172.35a27.36 27.36 0 0 1 24.1-27.25 37 37 0 0 1 4.36-.25h78.44m54.57 190.39H306c7.43 0 14.85 0 22.27.06a12.5 12.5 0 0 0 6.89-1.94 27.36 27.36 0 0 0 10.05-11.6 17.56 17.56 0 0 0 2.1-7.79V171.93a17.64 17.64 0 0 0-15.43-17.44c-4.6-.5-9.29-.21-13.94-.27-.08 0-.17.1-.35.22V256c0 4-1.71 5.63-5.7 5.62h-7.44Zm-109.3 0v-73.66h-7.38c-4.07 0-5.73-1.64-5.73-5.72V154.21h-11.2c-10.68 0-18.52 7.86-18.52 18.58V313.5a11 11 0 0 0 .14 2.16 27.63 27.63 0 0 0 10 16.27 13.76 13.76 0 0 0 9.77 3.41c2.91-.15 5.82 0 8.73 0h14.24m71.2-181v101.38c0 4.29-1.6 5.87-5.88 5.86h-7.22v73.62h44.4v-73.46a1.5 1.5 0 0 0-.38-.12h-7.13c-4 0-5.62-1.64-5.62-5.66V154.27ZM202 335.17h44.4v-73.59h-7.7c-3.65 0-5.4-1.74-5.4-5.45V154.29h-18.17v101.95c0 3.58-1.79 5.34-5.37 5.34H202Z" style="fill-rule:evenodd"/><path d="M304.47 335.26v-73.68h7.44c4 0 5.7-1.66 5.7-5.62V154.47c.18-.12.26-.22.34-.22 4.65.06 9.34-.23 13.94.27A17.63 17.63 0 0 1 347.34 172v142.04a17.5 17.5 0 0 1-2.1 7.79 27.4 27.4 0 0 1-10.05 11.6 12.55 12.55 0 0 1-6.87 1.94c-7.43-.07-14.86-.06-22.28-.07h-1.58M195.17 335.29h-14.23c-2.92 0-5.83-.1-8.73 0a13.75 13.75 0 0 1-9.77-3.41 27.6 27.6 0 0 1-9.95-16.27 10.4 10.4 0 0 1-.15-2.16V172.73c0-10.71 7.84-18.56 18.52-18.57h11.22v101.7c0 4.08 1.66 5.73 5.72 5.72h7.38ZM266.37 154.27h18.17v101.69c0 4 1.64 5.66 5.62 5.66h7.13a1.4 1.4 0 0 1 .37.12v73.46h-44.4v-73.62h7.22c4.28 0 5.88-1.57 5.88-5.86V154.27ZM202 335.17v-73.58h7.76c3.58 0 5.37-1.76 5.37-5.34V154.3h18.17v101.83c0 3.71 1.75 5.45 5.4 5.45h7.69v73.59Z" class="cls-4"/></svg>