<svg xmlns="http://www.w3.org/2000/svg" id="Capa_1" data-name="Capa 1" viewBox="0 0 512 512"><defs><style>.cls-4{fill-rule:evenodd}</style></defs><path d="M85.04 85.04h341.92v341.92H85.04z" style="fill:#35a8e0" transform="rotate(-45 256 256.002)"/><path d="M256 0 0 256l256 256 256-256Zm0 14.22L497.78 256 256 497.78 14.22 256Z" style="fill:#28397b"/><path d="M373.25 245.35H356.8V263H373c-.11 47.31-43 104.85-107.87 108.75V355H247.2v16.64c-54.91-1-107.86-54-108.33-108.21h16.47v-17.7H139.1c.44-48.13 43.65-107.8 114.24-109.53 68.91-1.67 117.9 54.52 119.91 109.14m-168.8-43.79c-.42.43-.83.85-1.25 1.3 10.55 13.56 21.27 27 31.53 40.79a19.15 19.15 0 0 1 3.4 10.3c.35 9.58 6.19 18.2 15.06 17.71 8.45-.48 13.58 3.83 19.25 8.23 6.8 5.29 13.55 10.66 20.35 15.9 4.95 3.84 9.95 7.6 15 11.39a8.75 8.75 0 0 0-2.19-5.51c-9.47-12.24-19.16-24.36-28.37-36.8a17.8 17.8 0 0 1-3.21-9.71c-.17-11.26-7.4-18.48-18.63-18.65-3.3 0-6.79-1.58-9.76-3.22-3.18-1.73-5.84-4.38-8.72-6.61q-16.2-12.57-32.42-25.12m61.21-27.41-1.3.14q-5.61-10.87-11.2-21.74c-4.33-8.41-4.65-8.54-14.67-6.4V190h8.22v-30.22a135.4 135.4 0 0 1 13.2 23.63c2.8 6.81 6.94 8.42 13.54 6.42v-44.17h-7.79Z" style="fill:#fff;fill-rule:evenodd"/><path d="M238.6 99.79h34.93c.15 4.52.65 9 .35 13.51s1 6.36 5.77 7.17C349.8 132.38 398.58 196.8 391.58 268a135.5 135.5 0 0 1-99.39 117.73c-8.23 2.23-16.75 3.42-25.13 5.1h-22a22.7 22.7 0 0 0-3.61-1C167.05 382 112.6 315 120.52 241c6.11-57 45.08-103.07 100-118 5.57-1.52 13.49-1 16.23-4.58 3-3.89 1.21-11.46 1.52-17.42a5.8 5.8 0 0 1 .33-1.23m134.66 145.58c-2-54.62-51-110.81-119.91-109.14-70.59 1.73-113.81 61.4-114.25 109.53h16.25v17.71h-16.47c.46 54.24 53.41 107.24 108.33 108.2V355h17.94v16.78C330 367.88 372.91 310.34 373 263h-16.19v-17.65Z" class="cls-4"/><path d="M204.45 201.57q16.23 12.56 32.42 25.12c2.88 2.22 5.55 4.88 8.72 6.61 3 1.63 6.47 3.17 9.76 3.21 11.24.17 18.46 7.4 18.64 18.65a17.65 17.65 0 0 0 3.2 9.71c9.22 12.45 18.9 24.56 28.37 36.8a8.78 8.78 0 0 1 2.19 5.52c-5-3.79-10-7.56-14.95-11.39-6.8-5.25-13.56-10.62-20.35-15.9-5.67-4.4-10.8-8.71-19.26-8.24-8.87.5-14.71-8.12-15.05-17.7a19.3 19.3 0 0 0-3.4-10.31c-10.26-13.76-21-27.22-31.54-40.78.42-.45.84-.87 1.25-1.3M265.66 174.15v-28.49h7.79v44.17c-6.6 2-10.74.39-13.54-6.42a135.4 135.4 0 0 0-13.2-23.63V190h-8.22v-43.85c10-2.14 10.34-2 14.67 6.4q5.61 10.86 11.2 21.74z" class="cls-4"/></svg>