<svg xmlns="http://www.w3.org/2000/svg" id="Capa_1" data-name="Capa 1" viewBox="0 0 512 512"><defs><style>.cls-4{fill-rule:evenodd;fill:#fff}</style></defs><path d="M85.04 85.04h341.92v341.92H85.04z" style="fill:#e83876" transform="rotate(-45 256 256.002)"/><path d="M256 0 0 256l256 256 256-256Zm0 14.22L497.78 256 256 497.78 14.22 256Z" style="fill:#dd0162"/><path d="M214 223c1.27-2.23 2.5-4.36 3.72-6.5Q231.81 191.71 246 167c.77-1.35 1.56-2.69 2.3-4.05a4.14 4.14 0 0 1 3-2.19q18.78-3.64 37.59-7.34l42.77-8.42 3.74-.71a3.71 3.71 0 0 1 4 5.44c-1.61 3-3.26 6.08-4.89 9.11q-12.12 22.5-24.22 45-11.89 22.16-23.82 44.37-5.49 10.18-11 20.38a1.48 1.48 0 0 0 0 1.47q10.62 23.43 21.19 46.87l16.26 36q2.14 4.76 4.31 9.49a3.73 3.73 0 0 1-5.47 4.7c-3.63-2.35-7.25-4.73-10.9-7.11l-32.6-21.31-58.48-38.23q-12.93-8.46-25.86-16.91a4.55 4.55 0 0 1-2.06-2.9q-4.63-19.43-9.31-38.84-3.45-14.34-6.89-28.7c0-.19-.1-.36-.18-.64-.51.21-1 .39-1.46.6l-34.26 14.54a4.09 4.09 0 0 1-4 0 3.73 3.73 0 0 1-1-5.45l6.66-9.63q13-18.77 26-37.53c1.72-2.47 4.17-2.73 6.31-.65l18.49 17.9 18.6 18 12.39 12c.23.22.45.42.78.7m36-47.58h-.19q-28.59 50-57.23 100.21l74.06-9.59q-8.38-45.39-16.71-90.59m22.75 82.4a.6.6 0 0 0 .19 0l56.35-104.75c-24.49 4.79-48.81 9.54-73.22 14.33q8.36 45.27 16.68 90.39m-76.34 24.77a1.4 1.4 0 0 0-.08.18l108.69 71.07a1.3 1.3 0 0 0-.12-.71q-6.19-13.72-12.42-27.48L275.87 289c-2.24-5-4.5-9.95-6.72-14.94-.29-.67-.6-.94-1.38-.78-1 .22-2.08.27-3.13.4l-19.45 2.54-23.87 3.07-19.74 2.55c-1.75.22-3.51.46-5.25.7m-28.78-94.08-.13.08c6.5 27.14 13 54.28 19.57 81.61.28-.49.45-.75.62-1.05 2.38-4.17 4.78-8.36 7.16-12.55q7.5-13.11 15-26.26a.76.76 0 0 0-.14-1.14c-1.84-1.72-3.64-3.49-5.43-5.24l-14.6-14.14-20.2-19.55c-.61-.59-1.24-1.17-1.85-1.75m-29.43 27.45c.38-.12.56-.16.72-.23q12.14-5.16 24.27-10.28c.56-.24.61-.51.48-1-1.12-4.58-2.19-9.17-3.3-13.75-.38-1.6-.78-3.19-1.2-5l-21 30.27" style="fill-rule:evenodd"/><path d="M249.92 175.38q8.34 45.24 16.71 90.59l-74.13 9.58q28.69-50.27 57.23-100.21h.19M272.67 257.79q-8.32-45.15-16.67-90.39c24.4-4.79 48.72-9.54 73.22-14.34Q301 205.61 272.86 257.82h-.19M196.32 282.55l5.26-.7 19.74-2.54 23.87-3.08 19.44-2.53c1.05-.14 2.11-.19 3.13-.4.78-.17 1.09.1 1.39.77q3.33 7.49 6.72 14.94l16.52 36.6 12.43 27.49a1.17 1.17 0 0 1 .11.7l-108.69-71.07zM167.55 188.47l1.84 1.75q10.13 9.78 20.2 19.55l14.62 14.15c1.8 1.75 3.6 3.52 5.43 5.23a.77.77 0 0 1 .14 1.15q-7.51 13.13-15 26.26-3.59 6.29-7.17 12.55c-.16.3-.33.56-.62 1.05-6.56-27.33-13-54.47-19.57-81.61l.14-.08M138.12 215.92l21-30.27c.42 1.78.82 3.37 1.2 5 1.11 4.58 2.18 9.17 3.3 13.75.13.53.08.8-.48 1q-12.13 5.11-24.27 10.28c-.16.07-.34.11-.72.23" class="cls-4"/></svg>