<svg xmlns="http://www.w3.org/2000/svg" id="Capa_1" data-name="Capa 1" viewBox="0 0 512 512"><defs><style>.cls-3,.cls-4{fill:#cd1417}.cls-3{fill-rule:evenodd}</style></defs><path d="M79.2 78.75h353.66v353.66H79.2z" style="fill:#ded300" transform="rotate(-45.61 256.066 255.596)"/><path d="m258.74 512-3-2.94L0 258.75l2.94-3L253.26 0l3 2.94L512 253.26l-2.95 3ZM11.87 258.62l246.73 241.5 241.52-246.73L253.39 11.88Z" style="fill:#ba870e"/><path d="M106.84 304H63.07L17.5 258.61h89.34z" class="cls-3"/><path d="M114.07 258.61h97.35V304h-97.35zM220.28 258.61h97.36V304h-97.36zM322.38 258.61h97.36V304h-97.36z" class="cls-4"/><path d="M445.19 304h-17.75v-45.39h61.42zM157.34 354.8h-41.45l-44.75-45.4h86.2z" class="cls-3"/><path d="M164.56 309.4h97.35v45.39h-97.35zM270.77 309.4h97.36v45.39h-97.36z" class="cls-4"/><path d="M393.45 354.8h-20.57v-45.4h63.78zM213.24 407.02h-44.78l-44.63-45.4h89.41z" class="cls-3"/><path d="M220.28 361.62h97.36v45.39h-97.36z" class="cls-4"/><path d="M342.66 407.02h-18.47v-45.4h63.09zM177.23 417.63h24.44v24.42zM332.8 417.63h-26.75v30.82zM303.67 449.63v-32h-97.35v27.5l18.43 17.9h64.94zM229.45 468.39h56.49l-28.25 27.06z" class="cls-3"/><path d="M331.81 174.55c16.81-4.78 30.74-26.62 28-43.89-2.08-13-12.27-18.85-24.48-14.14-16.33 6.3-28.19 26.24-25.89 43.55 1.56 11.7 10.9 17.74 22.41 14.48" style="fill-rule:evenodd;fill:#1c1514"/><path d="M351.58 239c-12.23-14.73-18.72-32.23-23.72-50.33-1.54-5.54-2.64-9.95-9.69-11.14-3.39-.58-6.63-4.59-9-7.75-2.14-2.83-3-6.61-4-8.9-10.91-1.94-21.43-2.83-31.31-5.8-17.87-5.36-26-18.87-23.48-37.35.87-6.33 2.85-12.51 4.33-18.74-4.23 7.23-8.06 14.76-10.11 22.73-4.91 19 1.74 34.81 18.9 44.4 7.63 4.26 16.27 6.7 24.47 9.9 1.77.7 3.64 1.15 5.94 1.85-6.59 9.17-15.93 10.59-25 12.19s-3.26-.34-7-.77c-8.4-9.09-17.92-16.94-29.5-22.21-13.56-6.16-24.9-3.9-35.11 7-14.74 15.69-19.84 35.89-24.71 56.35a69 69 0 0 1 4.29-5.62c7.85-8.55 15.21-17.68 23.87-25.34 9.7-8.58 20.14-9.91 27.16 5.68.12.25.26.49.37.73-14.34.18-27.58 5.37-39.46 17.24-9.41 9.4-15.86 20.62-20.68 32.69s-.34.85-.81 2.08c-.05.12-.09.25-.14.37-.52 1.37-1.15 3.11-1.75 4.87-.06.18-.13.36-.19.53a31 31 0 0 0-1.31 5.07c-.39 3.56 2.2 3.8 9.24-3.34a117 117 0 0 0 7.77-8.78h.15c1.49-1.59 3-3.07 4.55-4.5l.06-.06a70.3 70.3 0 0 1 19.24-12.83c12.68-1.42 24.94-3 36.86-5.52h-.05s17.16-1.78 28.3-8.14l.56-.2-.08-.07a25 25 0 0 0 4.61-3.38c9.85-9.38 19.22-14.24 27.4-13.41 7.11.72 14.47 3.13 18.08 5.15 1.19 2.25 2.13 5.15 3.23 7.38 5.71 11.52 12.57 22.18 22.77 30.24a61.65 61.65 0 0 0 21.65 11.21 69.5 69.5 0 0 0 15.57-4.77c-12.5-1.24-23.15-7.74-32.26-18.72" style="fill-rule:evenodd"/></svg>