<svg xmlns="http://www.w3.org/2000/svg" id="Capa_1" data-name="Capa 1" viewBox="0 0 512 512"><defs><style>.cls-3{fill:#cd1417}</style></defs><path d="M258.71 505.64 5.96 258.26 253.35 5.51 506.09 252.9z" style="fill:#ded300;fill-rule:evenodd"/><path d="m258.74 512-3-2.94L0 258.74l2.94-3L253.26 0l3 2.94L512 253.26l-2.95 3ZM11.87 258.62l246.73 241.5 241.53-246.73L253.39 11.88Z" style="fill:#ba870e"/><path d="M286.16 179.31s-56.39 6.56-52.55 30.11 3.82 19.16 3.82 19.16L140 334.79l6 7.67 112.56-92s28.69 15.33 31.42 35.59 3.85 69 3.85 69h4.37s11.5-62.4 8.76-81-35-48.73-35-48.73-15.88-15.33 14.77-17 84.87 9.85 74.46-3.83-107.3-60.23-107.3-60.23l-25.73-12Z"/><path d="M413.88 205c0 11-10.78 20-24.09 20s-24.08-8.94-24.08-20 10.78-20 24.08-20 24.09 9 24.09 20"/><path d="m153.16 373.77-32.31-24.45 5.95-7.86 32.3 24.45zM330.27 378.45l-40.51.47-.12-9.85 40.52-.46z" class="cls-3"/></svg>