<svg xmlns="http://www.w3.org/2000/svg" id="Capa_1" data-name="Capa 1" viewBox="0 0 512 512"><defs><style>.cls-3{fill:#fff;fill-rule:evenodd}</style></defs><path d="M85.04 85.04h341.92v341.92H85.04z" style="fill:#e83876" transform="rotate(-45 256 256.002)"/><path d="M256 0 0 256l256 256 256-256Zm0 14.22L497.78 256 256 497.78 14.22 256Z" style="fill:#dd0162"/><path d="M398.33 264.34a26.45 26.45 0 0 0-14.79 4.6c-5 3.52-9.93 3.77-15.14.37-10.35-6.77-20.77-6.67-31.27-.11-2 1.27-4.41 1.95-7 3.07-.23-2.16-.36-3.4-.41-3.8-2.93-1.84-5.63-3-7.65-4.92-3.17-3-3.37-7.58-1.54-11.6s5-3 8.24-2.84a23.57 23.57 0 0 0 15.47-4.11c5.74-4.09 10.95-4 16.91-.13 8.46 5.49 17.6 5.85 26.75 1.33 3.47-1.7 6.87-3.5 10.54-5.36V226a23.3 23.3 0 0 0-14.2 4.09c-5.55 4-10.78 4.19-16.66.34-9.76-6.36-19.79-6.08-29.76-.07-2.27 1.38-4.81 2.31-8 3.81v-10.9c-8.62-2.33-12.43-8.19-9.32-14.11 8.31 2.63 16.49 2.26 23.88-2.72 5.83-3.94 11-3.76 16.94.05 9.3 6 19 5.6 28.61.25 2.69-1.49 5.48-2.77 8.5-4.27v-14.82c-6.21-.67-11.23 1.92-16.06 4.92-4.49 2.8-8.81 2.94-13.3 0a34.5 34.5 0 0 0-6.76-3.52c-9.3-3.33-17.95-1.71-26.12 3.6-1.71 1.1-3.85 1.55-6.43 2.55v-16.35c-6.53-1.28-10.19-5-10.39-10.31-.21-5.52 3.23-9.31 10.19-11.21v-22.87H307.1c-.17.41-.34.72-.44 1-1.78 6.07-5.12 9.19-10.12 9.38-5.17.19-8.54-2.63-10.83-8.85a2.72 2.72 0 0 0-1.81-1.57c-7.15-.11-14.29-.07-21.34-.07-1.59 6.76-4.78 10-9.93 10.46-5.56.44-8.75-2.29-11.93-10.33h-22.39c-2 7-5 10-10.26 10.34-5.44.33-8.69-2.56-11.71-10.54-6.83 0-13.77-.07-20.72.08-.75 0-1.88 1.14-2.16 2-1.75 5.42-5.13 8.39-10.07 8.52s-8.57-2.82-10.55-8.39c-.28-.82-1.17-2-1.8-2-7.14-.14-14.29-.09-21.52-.09v22.92c7.08 1.82 10.29 5.23 10.28 10.82s-3.19 9.1-10.26 10.85v22.77c6.85 1.68 10 4.79 10.25 10.09.31 5.81-2.48 8.94-10.27 11.53v22.42c7.66 2.66 10.29 5.5 10.28 11s-2.6 8.27-10.28 11v22.4c7.64 2.51 10.42 5.56 10.28 11.18s-3.29 8.74-10.26 10.43v22.77c7.07 1.76 10.27 5.18 10.26 10.84s-3.1 8.89-10.16 10.8v23c7.06 0 13.88.07 20.7-.1a3.59 3.59 0 0 0 2.49-2.07c2.06-5.57 5.61-8.52 10.55-8.39s8.37 3.08 10.08 8.49c.26.8 1.17 2 1.8 2 7.14.14 14.29.09 21.28.09 2.17-7.41 5.76-10.68 11.16-10.55s8.71 3.31 10.59 10.31h22.64c1.9-6.95 5.28-10.2 10.65-10.36s8.72 3 11.19 10.51c6.87 0 13.82.09 20.76-.11.82 0 2-1.52 2.35-2.55a10.83 10.83 0 0 1 9.95-7.84A10.57 10.57 0 0 1 306.1 376c.34 1 .59 2 .88 3h22.68v-22.73c-6.91-1.85-10.32-5.49-10.3-10.91s3.31-8.86 10.57-11v-6.82c5.5-2.19 10.56-3.55 14.94-6.07 5.57-3.22 10.43-3.34 15.84.13 9.8 6.27 19.8 6.14 29.81.2 2.42-1.44 5.12-2.43 8.09-3.8v-12.4c0-.78-.08-1.57-.14-2.51a21.4 21.4 0 0 0-14.5 4c-5.69 3.94-10.94 4-16.59 0-4.23-3-9.17-4.12-14.42-4.25-7-.2-12.77 2.78-18.41 6.32-4.84 3-15.26-.37-15.22-7.76A11.07 11.07 0 0 1 327 291c1.33-.45 2.44-1.56 3.74-2.43C335.06 287 340 286 344 283.52c6.19-3.87 11.39-3.93 17.64.08 9.12 5.85 18.79 5.52 28.27.13 2.68-1.52 5.51-2.78 8.75-4.38v-12.91a17 17 0 0 0-.27-2.1" class="cls-3"/><path d="M398.33 264.34a15 15 0 0 1 .27 2.1v12.91c-3.23 1.6-6.07 2.85-8.75 4.38-9.48 5.39-19.15 5.72-28.27-.13-6.24-4-11.45-4-17.64-.08-4 2.49-8.89 3.47-13.19 5-1.31.88-2.42 2-3.75 2.44a11.06 11.06 0 0 0-7.68 10.41c0 7.39 10.38 10.79 15.22 7.76 5.63-3.54 11.4-6.52 18.4-6.32 5.25.13 10.19 1.22 14.42 4.25 5.65 4.06 10.9 4 16.6 0a21.3 21.3 0 0 1 14.49-4c.06.94.15 1.73.15 2.51v12.39c-3 1.38-5.67 2.37-8.09 3.8-10 5.95-20 6.08-29.81-.19-5.41-3.47-10.26-3.35-15.84-.13-4.38 2.52-9.43 3.88-14.94 6.06v6.82c-7.26 2.14-10.56 5.65-10.57 11s3.39 9.06 10.31 10.91V379H307c-.29-1-.54-2-.88-3a10.56 10.56 0 0 0-10.27-7.34 10.84 10.84 0 0 0-9.95 7.83c-.34 1-1.52 2.53-2.35 2.56-6.94.2-13.89.11-20.76.11-2.47-7.51-5.87-10.67-11.19-10.51s-8.75 3.41-10.65 10.34h-22.66c-1.88-7-5.26-10.22-10.59-10.34s-9 3.15-11.16 10.55c-7 0-14.13.06-21.29-.08-.62 0-1.53-1.17-1.79-2-1.72-5.41-5.14-8.37-10.08-8.5s-8.49 2.83-10.55 8.4a3.57 3.57 0 0 1-2.49 2.07c-6.82.17-13.64.1-20.7.1v-23c7.06-1.9 10.16-5.18 10.17-10.79s-3.19-9.08-10.27-10.84v-22.75c7-1.69 10.12-4.92 10.27-10.43s-2.65-8.69-10.29-11.18v-22.45c7.68-2.7 10.28-5.49 10.29-11s-2.63-8.32-10.29-11v-22.4c7.79-2.59 10.58-5.73 10.27-11.53-.27-5.3-3.39-8.42-10.25-10.09V179c7.08-1.75 10.27-5.16 10.27-10.85s-3.2-9-10.29-10.82v-22.96c7.23 0 14.38-.06 21.53.09.62 0 1.51 1.21 1.79 2 2 5.58 5.62 8.53 10.55 8.4s8.32-3.1 10.08-8.52a3.22 3.22 0 0 1 2.16-2c6.94-.15 13.88-.09 20.71-.09 3 8 6.27 10.88 11.71 10.55 5.25-.33 8.27-3.32 10.26-10.34h22.4c3.18 8 6.36 10.77 11.92 10.32 5.15-.42 8.34-3.69 9.93-10.45 7.05 0 14.19 0 21.34.07.63 0 1.55.9 1.81 1.57 2.28 6.22 5.66 9 10.83 8.85 5-.19 8.35-3.31 10.12-9.38.1-.33.27-.63.44-1h22.45v22.87c-7 1.89-10.4 5.69-10.19 11.21.2 5.31 3.85 9 10.39 10.31v16.39c2.58-1 4.72-1.45 6.43-2.55 8.19-5.31 16.83-6.94 26.12-3.6a34.5 34.5 0 0 1 6.76 3.52c4.5 2.9 8.81 2.76 13.3 0 4.83-3 9.86-5.59 16.06-4.92v14.82c-3 1.5-5.81 2.78-8.49 4.27-9.61 5.35-19.31 5.71-28.62-.26-5.92-3.8-11.11-4-16.94 0-7.39 5-15.57 5.35-23.88 2.72-3.11 5.92.7 11.78 9.32 14.11v10.85c3.2-1.5 5.74-2.43 8-3.81 10-6 20-6.29 29.76.07 5.88 3.84 11.12 3.63 16.66-.34a23.3 23.3 0 0 1 14.2-4.09v14.91c-3.66 1.87-7.07 3.66-10.54 5.37-9.15 4.52-18.29 4.16-26.75-1.33-6-3.86-11.17-4-16.91.13a23.55 23.55 0 0 1-15.48 4.08c-3.24-.2-6.41-1.19-8.24 2.84s-1.62 8.61 1.55 11.59c2 1.91 4.71 3.09 7.65 4.93 0 .4.17 1.63.4 3.8 2.6-1.12 5-1.8 7-3.08 10.49-6.55 20.91-6.66 31.26.12 5.21 3.4 10.17 3.15 15.15-.37a26.4 26.4 0 0 1 14.78-4.6m-137.23 38.46c2.11.19 3.9 0 5.47.58a66.3 66.3 0 0 1 9.83 4.13c3.13 1.69 6.13 3.19 9.81 2.51 3.1-.56 8-3.83 8-5.68.09-6 0-12 0-18-.45-.09-.68-.23-.87-.19-.79.18-1.56.39-2.35.59a27.52 27.52 0 0 1-20.19-2.5c-3.12-1.66-6.26-3.27-9.5-5v-14.85c6.46-.2 11.59 2.54 16.79 5.41a17.1 17.1 0 0 0 7.54 1.69c3.18.1 8.49-3.5 8.52-5.43.11-6.11 0-12.24 0-18.55l-3.34.75a27.7 27.7 0 0 1-21.07-3c-2.65-1.54-5.44-2.86-8.55-4.48v-14.96a14 14 0 0 1 3.56.28c4.59 1.77 9 3.94 13.71 5.46 2.72.9 5.91 1.61 8.6 1s6.51-2.64 6.76-4.48c.85-6.19.32-12.56.32-19.11-1.42.33-2.31.52-3.2.74a27.32 27.32 0 0 1-19.54-2.15c-3.06-1.56-6.24-2.86-9.33-4.38a2.15 2.15 0 0 1-1-1.57c-.08-4.61-.05-9.22-.05-14.29 2.28.22 4.33 0 6.07.66 3.65 1.37 7.06 3.43 10.73 4.72 2.74 1 5.94 2.08 8.57 1.48 2.82-.65 7.07-2.92 7.4-5 1-6.16.36-12.59.36-18.94h-129v172.84h128.96v-18.35a4.3 4.3 0 0 0-1.19-.06c-8.58 2.63-16.64 1.69-24.24-3.24-1.81-1.16-4-1.62-6-2.58-.67-.33-1.51-1.19-1.53-1.83-.13-4.6-.07-9.22-.07-14.22" style="fill-rule:evenodd"/><path d="M261.07 302.86c0 5-.06 9.62.07 14.22 0 .64.86 1.5 1.53 1.83 1.95 1 4.17 1.42 6 2.58 7.6 4.93 15.66 5.87 24.24 3.24a4.3 4.3 0 0 1 1.19.06v18.35H165.16V170.31h129c0 6.35.64 12.78-.36 18.94-.33 2.1-4.58 4.37-7.4 5-2.63.6-5.83-.51-8.57-1.48-3.67-1.29-7.08-3.35-10.73-4.72-1.74-.64-3.79-.44-6.07-.66 0 5.07 0 9.68.05 14.29a2.15 2.15 0 0 0 1 1.57c3.09 1.52 6.27 2.82 9.33 4.38A27.32 27.32 0 0 0 291 209.8c.89-.22 1.78-.41 3.2-.74 0 6.55.53 12.92-.32 19.11-.25 1.84-4.2 3.92-6.76 4.48s-5.88-.13-8.6-1c-4.67-1.52-9.12-3.69-13.71-5.46a14 14 0 0 0-3.56-.28v14.91c3.11 1.62 5.9 2.94 8.55 4.48a27.7 27.7 0 0 0 21.07 3l3.34-.75c0 6.31.07 12.44 0 18.55 0 1.93-5.34 5.53-8.52 5.43a17.1 17.1 0 0 1-7.54-1.69c-5.2-2.87-10.33-5.61-16.79-5.41v14.91c3.24 1.69 6.38 3.3 9.5 5a27.52 27.52 0 0 0 20.19 2.5c.79-.2 1.56-.41 2.35-.59.19 0 .42.1.87.19 0 6 .06 12 0 18 0 1.85-4.91 5.12-8 5.68-3.68.68-6.68-.82-9.81-2.51a66.3 66.3 0 0 0-9.83-4.13c-1.57-.54-3.36-.39-5.47-.58" class="cls-3"/></svg>