<svg xmlns="http://www.w3.org/2000/svg" data-name="Capa 1" viewBox="0 0 512 512"><path d="M85.04 85.04h341.92v341.92H85.04z" style="fill:#e83876" transform="rotate(-45 256 256.002)"/><path d="M256 0 0 256l256 256 256-256Zm0 14.22L497.78 256 256 497.78 14.22 256Z" style="fill:#dd0162"/><path d="M224.83 64.7c18.35 0 34.73.29 51.09-.15 6.33-.18 8.3 2.09 8.84 8.12 1.35 14.92 3.33 29.8 5.13 45.41h61.86v237.69h-34.26c2.41 21.55 4.68 41.8 7.09 63.35-8.49 0-16.51.59-24.33-.37-2.23-.27-5.21-4.85-5.61-7.76-2.48-17.79-4.32-35.66-6.55-55.07h-18.92c-13.81 0-27.63.23-41.43-.13-6.21-.17-8.2 2-8.73 8.18-1.37 16-3.88 31.87-5.29 47.84-.53 5.91-2.77 7.72-8.36 7.41-6.65-.35-13.36-.08-21.59-.08 2.33-21.53 4.54-42 6.86-63.5H159.7V118.05h58.47c2.28-18.23 4.44-35.58 6.66-53.35m113 67.78H173.7v208.88h164.14Zm-77.57-15c-.89-8-1.47-15-2.6-21.86-.27-1.62-2.39-2.93-3.65-4.38-1.25 1.19-3.38 2.27-3.57 3.61-1 7.41-1.6 14.89-2.34 22.64 2.89.19 4.46.36 6 .36s3.11-.17 6.13-.37" style="fill-rule:evenodd"/><path d="M337.84 341.36H173.7V132.48h164.14Zm-50.09-144.42 3 1.75c-7.56 13.95-15.21 27.85-22.66 41.86-9.93 18.66-19.87 37.33-29.33 56.23-1.31 2.59.08 6.54.22 9.87 3.25-.3 7.19.5 9.64-1 25.91-16.32 48.41-36.7 70.14-59.22-4.93-6.26-9.38-11.91-15.66-19.86l-35.5 35.76c6.6-11.22 14-23 20.65-35.33a233 233 0 0 0 14.6-31.25c1.43-3.95-1.23-9.38-2-14.13-4.44 1.1-10.11.86-13.12 3.55a333 333 0 0 0-26.08 26.8c-13 14.65-25.6 29.69-38.36 44.55-.77-.54-1.52-1.09-2.28-1.63 1.38-3.5 2.66-7 4.15-10.49 7.5-17.36 15.31-34.58 22.43-52.09 2-4.83 1.93-10.48 2.81-15.74l-3-1c-17.55 13.3-29.06 31.71-42.1 48.82l1.94 1.7L240.4 186c.75.44 1.51.91 2.26 1.36-1.08 3.19-2 6.47-3.28 9.55-7.1 16.49-14.51 32.84-21.34 49.43-1.94 4.71-2.32 10.07-3.4 15.14l2.43 2c3.55-1.53 7.87-2.24 10.49-4.74 15.27-14.62 30.25-29.57 45.11-44.63 5.33-5.41 10.07-11.4 15.08-17.14" style="fill-rule:evenodd;fill:#fff"/><path d="M287.75 196.94c-5 5.74-9.75 11.73-15.08 17.14-14.86 15.06-29.84 30-45.11 44.63-2.62 2.5-6.94 3.21-10.49 4.74l-2.43-2c1.08-5.07 1.46-10.43 3.4-15.14 6.83-16.59 14.24-32.94 21.34-49.43 1.32-3.08 2.2-6.36 3.28-9.55-.75-.45-1.51-.92-2.26-1.36l-33.22 40.07-1.94-1.7c13-17.11 24.55-35.52 42.1-48.82l3 1c-.88 5.26-.85 10.91-2.81 15.74-7.12 17.51-14.93 34.73-22.43 52.09-1.49 3.45-2.77 7-4.15 10.49.76.54 1.51 1.09 2.28 1.63 12.76-14.86 25.34-29.9 38.36-44.55a333 333 0 0 1 26.08-26.8c3-2.69 8.68-2.45 13.12-3.55.79 4.75 3.45 10.18 2 14.13a233 233 0 0 1-14.57 31.3c-6.62 12.28-14.05 24.11-20.65 35.33l35.5-35.76c6.28 7.95 10.73 13.6 15.66 19.86-21.73 22.47-44.23 42.85-70.14 59.17-2.45 1.55-6.39.75-9.64 1-.14-3.33-1.53-7.28-.22-9.87 9.46-18.9 19.4-37.57 29.33-56.23 7.45-14 15.1-27.91 22.66-41.86l-3-1.75" style="fill-rule:evenodd;fill:#db0357"/></svg>