<svg id="Capa_1" data-name="Capa 1" xmlns="http://www.w3.org/2000/svg" viewBox="0 0 512 512"><defs><style>.cls-1{fill:#35a8e0;}.cls-2{fill:#28397b;}</style></defs><rect class="cls-1" x="85.04" y="85.04" width="341.92" height="341.92" transform="translate(-106.04 256) rotate(-45)"/><path class="cls-2" d="M256,0,0,256,256,512,512,256Zm0,14.22L497.78,256,256,497.78,14.22,256Z"/><path d="M270.15,376V250H230.33v125.4h-25.9V305.81H190.51v69.58h-26V318.54c-3.6-.79-7.06-1-10-2.31-6.72-3-9.82-8.74-9.85-16q-.15-31.29,0-62.56c.09-13.86,10.91-24.27,25-24.28q48.75,0,97.5,0h3V136.29c5.52,0,10.84-.38,16.08.09,7.51.69,14.95,2.17,22.46,3a102.63,102.63,0,0,0,31.89-1.7c8.84-1.79,17.79-1.83,26.89-1.56v60.17a8.15,8.15,0,0,1-1.34.19c-10.6-.48-21,1.28-31.4,2.85a111.56,111.56,0,0,1-37-.77c-4.27-.78-8.59-1.3-13.37-2v4.75c0,3.83.07,7.66,0,11.49a3,3,0,0,0,1.79,3.09,18,18,0,0,1,.51,31.25,4.13,4.13,0,0,0-2.3,4.22q.08,60.81,0,121.61c0,1-.06,2-.09,3Z"/><path d="M197.26,203.22a28.19,28.19,0,1,1,28.33-27.5A28.09,28.09,0,0,1,197.26,203.22Z"/></svg>