<svg xmlns="http://www.w3.org/2000/svg" data-name="Capa 1" viewBox="0 0 512 512"><path d="M85.04 85.04h341.92v341.92H85.04z" style="fill:#7dba32" transform="rotate(-45 256 256.002)"/><path d="M256 0 0 256l256 256 256-256Zm0 14.22L497.78 256 256 497.78 14.22 256Z" style="fill:#13a646"/><path d="M149.27 162.19c-3.25 12-11.73 48.75-6.52 91.28 8.23 67.25 45.22 117.1 110 148.25 56.69-26.41 93.22-67.6 108.56-122.47 14.62-52.27 4.44-102-.77-112.62-31.72-12.52-95.08-30.79-107.83-34.43Z" style="fill:#fff"/><path d="m252.29 419.39-3.41-1.57c-90.41-42-116.73-112-122.88-163.46-6.6-55.25 7.86-100 8.48-101.91l1.35-4.14 116.5-33.77 2.27.63c3.22.92 79.24 22.42 114.21 36.62l1.55.62 1.18 1.19c8.71 8.71 19.31 58.47 9.78 110.31-8.91 48.51-37.93 114.58-125.58 153.93ZM149 161.69c-3.26 12-11.73 48.77-6.53 91.28 8.22 67.24 45.21 117.1 110 148.25 56.69-26.42 93.21-67.6 108.55-122.46 14.64-52.28 4.44-102-.76-112.63-31.72-12.51-95.08-30.78-107.83-34.42Z"/><path d="m254.7 145.12 92.3 28.61s38.79 135.36-92.3 212.39c-.14-84.73 0-241 0-241"/></svg>