<svg xmlns="http://www.w3.org/2000/svg" id="Capa_1" data-name="Capa 1" viewBox="0 0 512 512"><defs><style>.cls-4{fill:#fff}</style></defs><path d="M85.04 85.04h341.92v341.92H85.04z" style="fill:#7dba32" transform="rotate(-45 256 256.002)"/><path d="M256 0 0 256l256 256 256-256Zm0 14.22L497.78 256 256 497.78 14.22 256Z" style="fill:#13a646"/><path d="M281.89 167h12.46a30.4 30.4 0 0 1-.17-4.74c0-.57.06-1.14.05-1.7-.08-3.19-1.22-8.53-8-8.6-22-.23-44.3-.21-66.27.05-5.52.06-8.42 3.21-8.61 9.35a49 49 0 0 1-.48 5.67h12.75L261 167Z" style="fill:none"/><path d="M193.28 162.61h1.82c0-.57 0-1.16.05-1.73.47-14.83 10.36-24.89 24.62-25 22.08-.27 44.5-.28 66.63-.05 13.8.14 23.68 10.16 24 24.38v2.35h6v-2.91a30.15 30.15 0 0 0-29.64-29.58c-25.5-.3-47.9-.27-68.46.06-8.69.15-16.92 4.55-22.58 12.09a31.07 31.07 0 0 0-6.41 20.41ZM351.28 183.28q-34.69-.15-69.37-.06h-58.25c-23.07 0-46.15.11-69.22-.15h-.37c-6.67 0-12.33 2.14-16.37 6.18-4.34 4.34-6.67 10.59-6.58 17.61.46 37.41.41 74.16-.15 109.24a24.4 24.4 0 0 0 6.62 17.59c4.31 4.35 10.22 6.56 17.63 6.47 45.1-.34 90.95-.29 135.27-.24h61.59c14.1 0 22.52-8.52 22.54-22.77l-.06-110.12c-.01-15.45-8.06-23.68-23.28-23.75" class="cls-4"/><path d="M390.77 207.07c0-24.57-15.12-39.89-39.42-40h-18.79v-7.91a46.3 46.3 0 0 0-45.65-45.3c-25.66-.3-48.21-.28-68.92.06-13.72.23-26.58 7-35.27 18.55a46.92 46.92 0 0 0-9.31 34.53c-6.26 0-12.52 0-18.79-.11-11.34-.12-21.11 3.65-28.39 10.94-7.44 7.45-11.47 17.85-11.32 29.26.46 37.26.41 73.86-.15 108.79a40.7 40.7 0 0 0 11.32 29.26c7.32 7.37 17.29 11.26 28.86 11.26h.4c45-.34 90.84-.29 135.13-.25h61.63c23.14 0 38.7-15.67 38.72-39ZM223.62 167h-12.75a49 49 0 0 0 .48-5.67c.19-6.14 3.09-9.29 8.61-9.35 22-.26 44.26-.28 66.27-.05 6.78.07 7.92 5.41 8 8.6 0 .56 0 1.13-.05 1.7a30.4 30.4 0 0 0 .17 4.74H261Zm-5.39-36.92c20.56-.33 43-.36 68.46-.06a30.15 30.15 0 0 1 29.64 29.58v2.91h-6c0-.79.05-1.58 0-2.35-.35-14.22-10.23-24.24-24-24.38-22.13-.23-44.55-.22-66.63.05-14.26.16-24.15 10.22-24.62 25 0 .57 0 1.16-.05 1.73h-5.86a31.07 31.07 0 0 1 6.41-20.41c5.73-7.49 13.96-11.89 22.65-12.04ZM352.08 340h-61.59c-44.32-.05-90.17-.1-135.27.24-7.41.09-13.32-2.12-17.63-6.47a24.4 24.4 0 0 1-6.59-17.65c.56-35.08.61-71.83.15-109.24-.09-7 2.24-13.27 6.58-17.61 4-4 9.7-6.18 16.37-6.18h.37c23.07.26 46.15.2 69.22.15h58.25q34.68 0 69.37.06c15.22.07 23.27 8.3 23.28 23.79l.06 110.12c-.05 14.23-8.47 22.79-22.57 22.79" style="fill:#1c1514"/><path d="M309.95 239.13h-30.73v-31.09h-44.97v31.09h-31.49v44.98h31.49v31.11h44.97v-31.11h30.73z" style="fill:#e41f1a;fill-rule:evenodd"/></svg>