<svg id="Capa_1" data-name="Capa 1" xmlns="http://www.w3.org/2000/svg" viewBox="0 0 512 512"><defs><style>.cls-1{fill:#ab7cb1;}.cls-2{fill:#25204d;}.cls-3{fill:#fff;}</style></defs><rect class="cls-1" x="85.04" y="85.04" width="341.92" height="341.92" transform="translate(-106.04 256) rotate(-45)"/><path class="cls-2" d="M256,0,0,256,256,512,512,256Zm0,14.22L497.78,256,256,497.78,14.22,256Z"/><path d="M199.19,386c-3.79-.69-7.63-1.21-11.38-2.11-11.78-2.83-22.27-8-30.13-17.54-12.81-15.49-13.51-38-1.68-55.23q30.51-44.58,61.22-89a35.16,35.16,0,0,0,6.36-20.46q0-25.65,0-51.29V148c-1-.25-1.88-.45-2.75-.68a10.72,10.72,0,0,1-8-11.91,10.57,10.57,0,0,1,10.53-9.4q32.63,0,65.26,0a10.83,10.83,0,0,1,2.6,21.33c-.81.21-1.64.39-2.65.63v3c0,16.58.06,33.17,0,49.76a37.35,37.35,0,0,0,6.87,22.09q30.18,43.57,60.14,87.32c20.88,30.38,2.94,70.6-33.59,75.38a7.39,7.39,0,0,0-1.39.48Zm46.17-238.11v3.3c0,16.75,0,33.5,0,50.26a56.39,56.39,0,0,1-10.26,33.07c-12,17.37-24,34.81-36,52.22-8.24,12-16.41,24-24.74,35.93-7.85,11.23-7.62,29,10,37.1a45.89,45.89,0,0,0,19.13,4.35c37.4.13,74.81.21,112.22,0,10.78-.06,19.22-5.23,24.19-14.91,4.79-9.36,3.36-18.45-2.53-27-20-29-39.88-58.13-59.95-87.11a58.07,58.07,0,0,1-10.66-34.47c.12-16.58,0-33.17,0-49.75v-3Z"/><path class="cls-3" d="M245.36,147.89H266.8v3c0,16.58.09,33.17,0,49.75a58.07,58.07,0,0,0,10.66,34.47c20.07,29,40,58.08,59.95,87.11,5.89,8.56,7.32,17.65,2.53,27-5,9.68-13.41,14.85-24.19,14.91-37.41.22-74.82.14-112.22,0a45.89,45.89,0,0,1-19.13-4.35c-17.59-8.08-17.82-25.87-10-37.1,8.33-11.92,16.5-23.95,24.74-35.93,12-17.41,23.93-34.85,36-52.22a56.39,56.39,0,0,0,10.26-33.07c-.05-16.76,0-33.51,0-50.26Zm10.72,194.89h17c11.77,0,23.53.06,35.3,0,5.13,0,9.19-2.3,11.52-7a10.84,10.84,0,0,0-1-12q-15.5-20.4-31.27-40.61c-1.11-1.42-3.06-2.91-4.73-3-4.76-.39-8.68-2.62-12.76-4.63a32.39,32.39,0,0,0-14.17-3.3c-6.5-.08-12.16,2.38-17.79,5.19a21.86,21.86,0,0,1-6.89,2.33,10,10,0,0,0-7.27,4q-15.27,20-30.58,39.85a11.52,11.52,0,0,0,1.19,15.46,13.44,13.44,0,0,0,9.92,3.73Q230.32,342.76,256.08,342.78Z"/><path d="M256.08,342.78q-25.77,0-51.55,0a13.44,13.44,0,0,1-9.92-3.73,11.52,11.52,0,0,1-1.19-15.46q15.26-20,30.58-39.85a10,10,0,0,1,7.27-4,21.86,21.86,0,0,0,6.89-2.33c5.63-2.81,11.29-5.27,17.79-5.19a32.39,32.39,0,0,1,14.17,3.3c4.08,2,8,4.24,12.76,4.63,1.67.13,3.62,1.62,4.73,3q15.78,20.19,31.27,40.61a10.84,10.84,0,0,1,1,12c-2.33,4.67-6.39,6.93-11.52,7-11.77.09-23.53,0-35.3,0Z"/></svg>