<svg xmlns="http://www.w3.org/2000/svg" id="Capa_1" data-name="Capa 1" viewBox="0 0 512 512"><defs><style>.cls-4{fill:#0a9b39;fill-rule:evenodd}</style></defs><path d="M85.04 85.04h341.92v341.92H85.04z" style="fill:#7dba32" transform="rotate(-45 256 256.002)"/><path d="M256 0 0 256l256 256 256-256Zm0 14.22L497.78 256 256 497.78 14.22 256Z" style="fill:#13a646"/><path d="M404.69 256c0 79.16-65.39 143.33-146 143.33s-146-64.17-146-143.33 65.39-143.34 146-143.34 146 64.18 146 143.34" style="fill:#fff"/><path d="m190 185 33.28 18.79c3.36 1.89 5.39 1.34 7.28-2q8.64-15.13 17.22-30.33c3-5.24 6-10.49 9.17-16.08a16 16 0 0 1 1.3 1.68q11.72 21.72 23.43 43.44c1 1.88.67 3.11-1.19 4.11-3.92 2.09-7.84 4.19-11.72 6.39a10.3 10.3 0 0 0-2 2 9.6 9.6 0 0 0 2.38 1.66c5.76 1.78 11.58 3.41 17.36 5.16 12 3.6 24 7.25 36.06 10.87 2.54.76 3.85 0 4.6-2.59l7-23.48c3-10 6.1-20.05 9.08-30.1a7 7 0 0 0-.28-2.64 8.4 8.4 0 0 0-2.41.39c-3.9 2-7.74 4.1-11.61 6.17-2.67 1.42-3.34 1.24-4.74-1.33-2.94-5.38-5.84-10.78-8.76-16.15-4.67-8.52-9.06-17.21-14.11-25.48a30.34 30.34 0 0 0-23.8-15c-6.88-.62-13.95.49-20.9 1.14-6.57.61-13.09 1.77-19.66 2.43-12.11 1.17-21.81 6.35-28 17-7.12 12.16-14 24.48-20.9 36.76-1.81 3.21-1.15 5.4 2 7.17M225.09 304h-50c-.89 0-1.78-.1-2.94-.17a19 19 0 0 1 .92-1.84q12.67-20.22 25.41-40.42c2.32-3.68 2.64-3.7 6.34-1.41 3.45 2.15 6.86 4.36 10.33 6.45a3.35 3.35 0 0 0 2.39.35c.33-.09.37-1.34.42-2.07a4.7 4.7 0 0 0-.19-1.4c-1.52-6.42-3.1-12.82-4.55-19.24-2.65-11.61-5.2-23.25-7.91-34.83a3.63 3.63 0 0 0-2.06-2.33 5.15 5.15 0 0 0-2.72-.08l-14.85 3.58c-1.13.26-2.11.48-3.08.64a3.5 3.5 0 0 0-1.21.39l-9.1 2.21q-13 2.91-25.91 5.91a8 8 0 0 0-2.23 1.34 8.9 8.9 0 0 0 1.65 2.09c3.66 2.39 7.43 4.64 11.1 7 .51 3.4-1.46 8.22-3.67 12.31-5.87 9.31-11.63 18.7-17.65 27.94-8.43 13-8.8 27.86-.1 40.31 7 10.05 14.39 19.85 22 29.46 6.1 7.72 14.31 12.24 24.28 12.44 14.9.31 29.82.21 44.71.2 3.05 0 4.4-1.58 4.41-4.73v-38.25c0-4.59-1.24-5.85-5.79-5.85M379.38 267.37c-7.09-12.35-14.57-24.49-21.92-36.7-1.86-3.1-3.89-3.61-7-1.78q-16.44 9.75-32.8 19.59c-3.67 2.18-4.14 4-1.92 7.64q11.72 19.56 23.49 39.09c1.25 2.09 2.47 4.2 4 6.81h-10.15a3.5 3.5 0 0 0-.79 0h-6.19a14 14 0 0 0-1.45-.14c-10.74-.27-21.51-.54-32.25-.77-3-.07-3.69-.62-3.69-3.6 0-4.54.08-9.07 0-13.62 0-.7-.3-1.83-.74-2a2.61 2.61 0 0 0-2.08.66c-1.66 1.49-3.15 3.14-4.77 4.69q-18 17.12-36 34.23c-2 1.88-2 3.35-.09 5.36q9.9 10.35 19.85 20.66l13.65 14.23c1.88 2 3.77 3.93 5.66 5.87a2.92 2.92 0 0 0 1.79.89c.27 0 .88-.9.89-1.41.05-1.75.05-3.53.05-5.35v-7.85c.41-.51.33-.94 0-1.91v-.94s-.69-1.63 2.72-1.55c3.11.07 12.41.18 14 .2 10.35.19 20.69.36 31 .66 14.29.41 28-8.28 33.35-21.32 4.06-9.85 8.07-19.72 12.25-29.52 4.64-10.9 5-21.74-1-32.16" class="cls-4"/></svg>