<svg xmlns="http://www.w3.org/2000/svg" id="Capa_1" data-name="Capa 1" viewBox="0 0 512 512"><defs><style>.cls-3{fill:#0a9b39}</style></defs><path d="M85.04 85.04h341.92v341.92H85.04z" style="fill:#7dba32" transform="rotate(-45 256 256.002)"/><path d="M256 0 0 256l256 256 256-256Zm0 14.22L497.78 256 256 497.78 14.22 256Z" style="fill:#13a646"/><path d="M376.55 227.55h46l-173-124.83L89.44 227.55h45.32v125.93h232.86c4.94 0 8.94-2.59 8.94-5.79V227.56M143.24 345v-15.91c10.38-9.78 20.72-19.6 31.17-29.3 9.54-8.84 19.21-17.54 28.88-26.23 4.52-4.06 9.18-8 13.79-11.92 2.11-1.82 4.43-2.39 6.91-.78 1.08.69 1.72.31 2.52-.46q10.69-10.51 21.48-20.93c1.31-1.26 2.1-2.53 1.81-4.38a4.35 4.35 0 0 1 1.4-3.73 46.3 46.3 0 0 0 8.57-13.36 10.36 10.36 0 0 0-.12-8.76 29.24 29.24 0 0 0-11.08-12.55c-7.5-4.62-15.9-6.35-24.5-7.38a3.1 3.1 0 0 1-2.1-1.17c-1.17-2.29-2.1-4.7-3.26-7.37 1-.4 1.75-.74 2.53-1 12.79-4.19 25.61-3.95 38.42-.24 11.65 3.38 21.89 9.51 31.63 16.53 7.81 5.64 14.87 12.07 20.15 20.26 1.63 2.53 2.79 5.1 2.12 8.27a20.4 20.4 0 0 0-.19 5c.31 7.43 5.77 11.26 12.8 8.95a2.27 2.27 0 0 1 2.71.72c3.78 3.84 7.56 7.67 11.46 11.39a2 2 0 0 1 .35 3c-2.64 3.86-5.15 7.83-7.92 11.6-3.85 5.27-8.8 9-15.47 9.82a4.06 4.06 0 0 1-2.76-.86c-3.3-2.81-6.45-5.8-9.71-8.65a3.59 3.59 0 0 1-1.47-3.75 23 23 0 0 0 .09-5.43c-.28-4.95-1.47-6.69-6.29-7.8-10.38-2.34-20.47-2.09-29.39 4.72-2 1.56-3.82 2.8-6 .37l-23.58 24.39c2.28 2.5 2.38 3.8.6 6.46a25 25 0 0 1-1.52 2C219.79 307.69 200.46 326.9 180 345ZM367.6 134.92h-39.76v18.11l39.76 27.39z" class="cls-3"/><path d="M143.24 345.67v-15.89c10.38-9.79 20.72-19.61 31.17-29.3 9.54-8.84 19.21-17.53 28.88-26.23 4.52-4.06 9.18-8 13.79-11.93 2.11-1.81 4.43-2.39 6.91-.77 1.08.69 1.72.32 2.52-.47q10.69-10.5 21.48-20.93c1.31-1.25 2.1-2.52 1.81-4.37a4.36 4.36 0 0 1 1.4-3.73 46.3 46.3 0 0 0 8.57-13.34 10.34 10.34 0 0 0-.12-8.75 29.23 29.23 0 0 0-11.08-12.57c-7.5-4.61-15.9-6.34-24.5-7.37a3.1 3.1 0 0 1-2.1-1.18c-1.17-2.28-2.1-4.69-3.26-7.36 1-.39 1.75-.74 2.53-1 12.79-4.2 25.61-3.95 38.42-.24 11.65 3.38 21.89 9.51 31.63 16.53 7.81 5.64 14.87 12.07 20.15 20.26 1.63 2.53 2.79 5.09 2.12 8.27a20.5 20.5 0 0 0-.19 5c.31 7.42 5.77 11.24 12.8 8.93a2.29 2.29 0 0 1 2.71.73c3.78 3.84 7.56 7.67 11.46 11.39a2 2 0 0 1 .35 3c-2.64 3.86-5.15 7.83-7.92 11.6-3.85 5.27-8.8 9-15.47 9.81a4 4 0 0 1-2.76-.85c-3.3-2.82-6.45-5.8-9.71-8.65a3.59 3.59 0 0 1-1.47-3.75 23 23 0 0 0 .09-5.43c-.28-4.95-1.47-6.69-6.29-7.8-10.38-2.33-20.47-2.1-29.39 4.72-2 1.56-3.82 2.8-6 .36-8 8.27-15.79 16.34-23.58 24.4 2.28 2.5 2.38 3.8.6 6.46a25 25 0 0 1-1.52 2c-17.43 21.1-36.76 40.31-57.22 58.39Z" style="fill:#fff"/></svg>