<svg id="Capa_1" data-name="Capa 1" xmlns="http://www.w3.org/2000/svg" viewBox="0 0 512 512"><defs><style>.cls-1{fill:#ab7cb1;}.cls-2{fill:#25204d;}</style></defs><rect class="cls-1" x="85.04" y="85.04" width="341.92" height="341.92" transform="translate(-106.04 256) rotate(-45)"/><path class="cls-2" d="M256,0,0,256,256,512,512,256Zm0,14.22L497.78,256,256,497.78,14.22,256Z"/><path d="M376,182.86c-.67,2.71-1.2,5.47-2,8.12a42.07,42.07,0,0,1-48.37,28.56,4.65,4.65,0,0,0-4.75,1.41q-49.89,50-99.92,99.9a4.46,4.46,0,0,0-1.36,4.53,42.21,42.21,0,0,1-35.41,50.14,44.89,44.89,0,0,1-17.62-1.16c-3.52-.89-4.55-4.43-2-7,4.08-4.2,8.3-8.26,12.41-12.43a7.26,7.26,0,0,0,1.25-2.1,3,3,0,0,0,0-1.16V333.77c-3.62,0-7.1,0-10.58,0-3.12,0-6.58-.73-9.26.37s-4.43,4.05-6.59,6.2c-2.32,2.31-4.6,4.67-7,6.94-2.83,2.72-6.31,1.7-7.3-2.09-6.3-24.3,8-47.53,32.6-52.8a39.4,39.4,0,0,1,16,0,5,5,0,0,0,5.15-1.49Q241,241,290.91,191.29a4.78,4.78,0,0,0,1.51-4.92,42.1,42.1,0,0,1,35.92-49.92,6.88,6.88,0,0,0,1.27-.45h8c2.5.49,5,.87,7.5,1.48,4.1,1,5.06,4.48,2.09,7.52-2.67,2.73-5.17,5.69-8.15,8-4.26,3.35-5.85,7.34-5.28,12.7.44,4,.09,8.19.09,12.44,6.53,0,12.76,0,19-.06a3.71,3.71,0,0,0,2.09-1.21q6.09-6,12.07-12.08c1.32-1.34,2.79-2.06,4.62-1.52s2.61,2.06,3,3.85c.46,2.27,1,4.53,1.45,6.8Z"/><path d="M376,345c-1,3.27-1.56,6.7-2.93,9.78-10.17,23-39,28.41-57.27,10.68q-24.63-23.88-48.73-48.32c-2.95-3-4.91-7-7.31-10.48-.78-1.14-.53-2,.48-3q21.51-21.39,42.89-42.91c1.1-1.1,2-1.31,3.23-.49,3.7,2.57,7.78,4.75,11,7.85,15.8,15.33,31.34,30.93,47,46.38,6,5.93,10.13,12.78,11.27,21.26a3.18,3.18,0,0,0,.37.85Zm-36.27,2.57c4-.17,6.18-1.48,7.31-4.2a6.68,6.68,0,0,0-1.52-7.76q-17.15-17-34.37-33.84c-3.09-3-7.22-2.89-10,0a6.73,6.73,0,0,0,.26,9.84q17,16.92,34.2,33.67C336.93,346.58,338.91,347.14,339.75,347.59Z"/><path d="M157.11,136,200,162.54c4.59,2.85,4.83,5.11.94,9-1.49,1.49-3,2.92-4.56,4.38l44.77,44.75-20,20.14L176.32,196c-2,2.05-3.74,3.9-5.56,5.69-2.89,2.82-5.49,2.53-7.65-.93q-12.83-20.53-25.58-41.1c-2.35-3.79-2-6.86,1-10q5.55-5.7,11.28-11.25a25.07,25.07,0,0,1,3.57-2.46Z"/></svg>