<svg xmlns="http://www.w3.org/2000/svg" data-name="Capa 1" viewBox="0 0 512 512"><path d="M85.04 85.04h341.92v341.92H85.04z" style="fill:#e83876" transform="rotate(-45 256 256.002)"/><path d="M256 0 0 256l256 256 256-256Zm0 14.22L497.78 256 256 497.78 14.22 256Z" style="fill:#dd0162"/><path d="M299.28 161.3c9.25 1.83 17.86 5.64 24.09 13.51 5.58 7.05 8.28 15 6.27 24-.67 3 .6 3.93 3 5.42 6.09 3.83 12.35 7.71 17.5 12.67 7.95 7.66 9.11 17.83 7.5 28.31-.19 1.18-2.18 3-3.29 3-10.33-.26-18.94 3.48-26.16 10.63-10.83-11.17-26.1-14.83-40.41-1.36-11.61-10.55-26.22-10.8-37.36-.16-11.89-10.83-30.37-8.25-38 2.23-16.06-12.38-28.44-11.8-40.42 2.36-8.31-7.75-18.24-11.09-29.56-9.41-3.41-15.23-.67-33.41 27-46.79-8.64-32.19 10.62-51.13 37.28-55.17-.73-9 1.29-17.48 8.08-23.79 4.69-4.36 10.29-7.79 15.62-11.41 4.69-3.17 9.75-5.79 14.3-9.14 9.12-6.7 9.81-10.8 4.17-20.5-.41-.69-.76-1.38-1.59-2.94 16.3 6.5 30.7 14.29 41.89 27.24 7.88 9.15 14.22 19.14 13.61 31.74-.3 6.34-2.21 12.62-3.52 19.56m-39.87-67.92c2.82 10 2.14 12.53-5.82 18.39-2.2 1.63-4.6 3-6.93 4.44-5.32 3.32-11.14 6.08-15.84 10.14-3.34 2.87-5.88 7.22-7.49 11.39s.66 6.62 5.13 6.5 9.11-1.17 11.27-6c3.19-7.21 8.4-12.48 15-16.6a52.6 52.6 0 0 0 8-6.22c3.67-3.4 4.82-7.72 2.57-12.31a113 113 0 0 0-6-9.7m-51.88 65.09-.33-.8c-2.24.45-4.54.76-6.74 1.38-17.28 4.85-25.75 18.26-21 33.8a8.75 8.75 0 0 0 5.31 5.1c5.92 1.32 9-1.65 8.08-7.72-1.84-12.63 2.63-22.44 12.49-30.11.72-.56 1.45-1.1 2.19-1.65" style="fill:#fff;fill-rule:evenodd"/><path d="M279.57 358.53c2.36-16.25 4.69-32.5 7.1-48.76q2.41-16.53 5.05-33a29.6 29.6 0 0 1 1.92-6.46c3.59-8.59 9.79-11.9 17.55-9.49 8.12 2.52 11.58 8.82 9.46 18-3.78 16.35-7.84 32.64-11.7 49a251 251 0 0 0-5.11 27c4.67-13.85 9.28-27.71 14-41.55C322.13 300.66 326 288 331 275.71c5.82-14.45 19.05-20.07 34.59-15.48a19 19 0 0 1-.71 2.54c-14.35 34.79-28.79 69.54-43 104.38-3.94 9.67-10.64 13.42-21.09 13.44-33.08 0-66.16.64-99.23 1.33-8.38.16-14.21-2.53-17.82-10.4C172 346 160.1 320.5 148.21 295c-4.58-9.79-9.42-19.47-14.13-29.2 13.62-6.22 28.27-2.21 34 10.11 5 10.65 9.11 21.73 13.4 32.69 6 15.32 11.75 30.71 18.35 45.86-1.87-8-3.45-16.15-5.67-24.08-4-14.12-8.53-28.09-12.41-42.23a50.5 50.5 0 0 1-1.88-15.14c.23-5.57 4.56-9.71 9.68-10.73 5.7-1.14 11.24 0 14.05 5.18a56.2 56.2 0 0 1 6.4 17.59c3.51 22.86 6.3 45.83 9.39 68.75a28.9 28.9 0 0 0 2 7.36c-.92-22.68-1.92-45.34-2.72-68a150 150 0 0 1 .28-20.32c.76-7.36 5.54-11.13 12.78-11.35s12.4 3.11 13.25 10.67c1.52 13.66 2.22 27.43 2.76 41.17.61 15.7.66 31.41.94 47.11h1.72c.52-10.72 1.08-21.47 1.56-32.21.73-16.67 1.22-33.35 2.26-50a28.6 28.6 0 0 1 3.64-11.36c2.72-5.08 8.55-7.25 14.22-6 5.43 1.21 9.28 4.79 9.79 10.16a162 162 0 0 1 .24 22.68c-.66 14.88-1.77 29.74-2.62 44.61-.38 6.72-.6 13.44-.9 20.16l1 .08" style="fill-rule:evenodd"/></svg>