<svg xmlns="http://www.w3.org/2000/svg" id="Capa_1" data-name="Capa 1" viewBox="0 0 512 512"><defs><style>.cls-3{fill-rule:evenodd}.cls-4{fill:#fff}</style></defs><path d="M85.04 85.04h341.92v341.92H85.04z" style="fill:#ab7cb1" transform="rotate(-45 256 256.002)"/><path d="M256 0 0 256l256 256 256-256Zm0 14.22L497.78 256 256 497.78 14.22 256Z" style="fill:#25204d"/><path d="M155.25 336.92a57 57 0 0 0-6.79 3c-5.25 3.21-8 .81-10.23-3.93a23.3 23.3 0 1 1 28.65 12.24c-4 1.38-6.55.55-8.07-3.49-1-2.59-2.29-5.07-3.56-7.86M368.22 337a70 70 0 0 0-3 6.8c-1.74 5.26-4.89 6.1-9.78 4.05a23.49 23.49 0 0 1-12.87-30.44 23.3 23.3 0 0 1 43.36 17c-2.89 7.49-4.72 8.24-12 5-1.79-.8-3.61-1.53-5.69-2.41M231.07 391.09c-6.41 0-12.82.11-19.21 0s-8.61-3.62-6.48-9.45c.14-.37.35-.72.51-1.09 8.08-17.88 4-14.66 22.36-15 2.39-.05 4.8 0 7.2 0 15.35 0 18.54 2.5 22.37 17.65 1.15 4.49-1.26 7.7-6.33 7.85-6.81.2-13.61.05-20.42.05ZM291.93 391.09c-6.4 0-12.82.11-19.21 0s-8.87-3.67-6.31-9.4c8.63-19.4 3.82-15.71 23.37-16.1 2.59-.05 5.2 0 7.8 0 13.34 0 19 4.79 21.21 18.29.77 4.72-1.76 7.17-6.44 7.24-6.81.09-13.61 0-20.42 0M187.05 266c-2 .21-4.4 2.08-5.5 3.88-5.5 9-10.63 18.27-16.1 27.81l11.91 5.56c2.71-4.73 5.57-9.08 7.81-13.72 3.37-7 7.18-12.88 16.39-10.93.29.07.67-.36 1.25-.71v-12.08c-5.48 0-10.68-.36-15.76.18M341.55 269.22a7.15 7.15 0 0 0-4.65-3.22c-5.31-.41-10.66-.15-16.21-.15v12.52a16.4 16.4 0 0 0 3.8.4c5.74-.91 9.1 1.4 11.58 6.7 2.9 6.23 6.77 12 10.14 17.81l11.85-5.65c-5.49-9.51-10.86-19.05-16.51-28.42" class="cls-3"/><path d="M349 188.08c-6.42-6.74-7.69-13.21-7.15-21.33.19-2.79-.43-5.7.13-8.39a14 14 0 0 1 .73-2.35 15.22 15.22 0 0 0 12.43-14.71c0-8.31-7-15.05-15.73-15.05s-15.76 6.75-15.76 15.05a15.25 15.25 0 0 0 12.93 14.8c.24 7.25.13 14.52.13 22.39l-7.29-2c-.1-1.13-.2-1.91-.22-2.69-.36-13.3-3.65-16.5-17-16.5h-96.26c-19.22 0-19.9.58-22.13 19.4l-6.33 1.33a9 9 0 0 1-.63-1.8c-.06-5.4.07-10.82-.18-16.23a12.5 12.5 0 0 1 .33-4 15.21 15.21 0 0 0 12.2-14.66c0-8.31-7.05-15.05-15.73-15.05s-15.69 6.71-15.69 15.01a15.26 15.26 0 0 0 13.45 14.87c.65 2.4.45 5 .47 7.72 0 3.62-.32 7.25 0 10.83.43 4.21-1.05 7-4.22 9.78a27.92 27.92 0 0 0-7.21 32.85c4.52 10.19 12.85 15.52 23.7 17.54.89 13.9 1.16 15.69 10.6 19.15v83.36h17.59v22.28h18.44V337.4h42.83v22.31h18.18V337.4h17.32v-83.17c9.61-2.16 11-10.13 10.29-19.19 2.5-.67 4.46-1.11 6.36-1.73 19.22-6.17 27.14-30.8 13.39-45.23m-36.56 127.57A14.45 14.45 0 0 1 298 330.1h-72.28a14.44 14.44 0 0 1-14.44-14.45v-40.92a14.45 14.45 0 0 1 14.44-14.45H298a14.46 14.46 0 0 1 14.45 14.45Zm11.8-74.44c0 5.31-2.89 8.08-8.31 8.08H207.68c-5.79 0-8.36-2.66-8.39-8.57-.08-23.26 0-46.49 0-69.75 0-4.84 2-8.45 7.16-8.55 12.6-.23 25.19-.07 38.69-.07v19.95h33.39v-19.91c13.48 0 26.58-.23 39.66.15 4.11.12 6 3.66 6.05 7.72v71" class="cls-3"/><path d="M223.92 209.86c-4.28.14-6.87 2.83-6.94 7.47.35 4.51 3 7 7.37 6.91s7.11-3 7-7.39-3.11-7.13-7.43-6.99M299.12 209.88c-4.31.16-7.12 3-6.94 7.45s3.08 7.12 7.45 6.93 6.86-2.87 6.9-7.8c-.4-4.18-3.09-6.74-7.41-6.58" class="cls-4"/><path d="M299.29 199.78a17.19 17.19 0 0 0-15.65 10.37 14.6 14.6 0 0 0-7-1.73h-31.59a15.1 15.1 0 0 0-5.52 1 17.17 17.17 0 0 0-15-9.65 17.32 17.32 0 1 0-.47 34.63 17.22 17.22 0 0 0 15.52-9.75 15 15 0 0 0 5.48 1h31.58a14.45 14.45 0 0 0 7-1.72 17.18 17.18 0 0 0 15.56 10.45 17.32 17.32 0 1 0 .12-34.63Zm-74.94 24.46c-4.33.09-7-2.4-7.37-6.91.07-4.64 2.66-7.33 6.94-7.47s7.28 2.61 7.41 7-2.57 7.27-6.98 7.38m75.28 0c-4.37.19-7.27-2.57-7.45-6.93s2.63-7.29 6.94-7.45 7 2.4 7.41 6.58c-.04 4.95-2.6 7.64-6.9 7.82Z"/></svg>