<svg xmlns="http://www.w3.org/2000/svg" id="Capa_1" data-name="Capa 1" viewBox="0 0 512 512"><defs><style>.cls-4{fill:#1e1e1c}</style></defs><path d="M85.04 85.04h341.92v341.92H85.04z" style="fill:#ded300" transform="rotate(-45 256 256.002)"/><path d="M256 0 0 256l256 256 256-256Zm0 14.22L497.78 256 256 497.78 14.22 256Z" style="fill:#b9870f"/><path d="M318.78 307.5C265.32 361 193.6 380.47 164.13 351s-14.25-103.88 39.2-157.34 127.85-71.91 157.33-42.42S372.24 254 318.78 307.5" style="fill:#cf9d5b"/><path d="M374.69 166.94a50.6 50.6 0 0 0-7.69-14.32 47 47 0 0 0-3.61-4.08 30 30 0 0 0-2.55-2.33 48.6 48.6 0 0 0-14.55-8.46c-15-5.68-34.5-5.82-56.27-.1-31.09 8.17-63.67 27.6-89.38 53.3-25.87 25.88-44.25 57.67-51.72 89.49-5.56 23.66-4.28 44.71 3.28 60.17a49.2 49.2 0 0 0 7.71 11.48c.49.55 1 1.08 1.53 1.61a46.1 46.1 0 0 0 13.49 9.3 60 60 0 0 0 17.14 4.82 79 79 0 0 0 11 .73 115.4 115.4 0 0 0 30.45-4.48c30.53-8.52 61.78-27.63 88-53.84 25.68-25.7 45-58.07 53-88.87 5.44-20.87 5.39-39.7.17-54.4M166.83 348.29a33 33 0 0 1-2.83-3.19c-11.05-13.84-13.87-36.43-7.64-62.91 7.05-30 25.16-61.3 49.69-85.83 24.77-24.79 56.1-43.47 85.91-51.31a113 113 0 0 1 28.54-4c11.36 0 21.26 2.23 29.09 6.61-12.42-1.76-26.83-.67-42.39 3.41-31.08 8.16-63.68 27.6-89.39 53.31-25.87 25.88-44.23 57.66-51.73 89.5-4.59 19.57-4.52 37.37 0 51.68.3 1 .63 1.94 1 2.88a.8.8 0 0 1-.16-.15m7.71-1.49c-5.25-13.46-5.7-31.22-1-51.18 7-30 25.14-61.31 49.66-85.83 24.71-24.79 56.02-43.48 85.86-51.32a113 113 0 0 1 28.51-4 68.4 68.4 0 0 1 18.28 2.28c3.27 12.7 2.67 28.42-2 45.8-8.07 30.14-27.64 61.93-53.67 87.22-26.2 25.47-58.64 44.77-89 53-13.43 3.65-25.88 5-36.75 4.05m192.6-127.4c-7.69 29.5-26.29 60.61-51.06 85.37-24.93 24.93-55.77 43.85-84.62 51.87-20.3 5.66-38.25 5.6-51.6.12-.45-.63-.88-1.28-1.3-2 .93 0 1.9.05 2.88.05a123.6 123.6 0 0 0 32-4.57c32.11-8.68 65-28.22 92.53-55 27-26.24 47.35-59.33 55.77-90.76 3.87-14.43 5.11-27.88 3.8-39.74 6.61 13.68 7.28 32.82 1.59 54.62" class="cls-4"/><path d="m285.62 184-18.92-18.93a4.46 4.46 0 0 1 6.3-6.32l18.93 18.94a4.46 4.46 0 0 1-6.31 6.3M269.79 192.47l-18.93-18.93a4.47 4.47 0 0 1 6.31-6.32l18.93 18.94a4.46 4.46 0 1 1-6.31 6.31M249.48 203l-14.78-22.29a4.46 4.46 0 0 1 7.44-4.92l14.78 22.31a4.46 4.46 0 1 1-7.44 4.93M231.26 221.18 209 206.28a4.46 4.46 0 0 1 5-7.41l22.25 14.89a4.47 4.47 0 1 1-5 7.42M214.7 240.32l-22.24-14.9a4.47 4.47 0 0 1 5-7.42l22.24 14.91a4.46 4.46 0 0 1-5 7.41M195.19 265.71 173 250.81a4.46 4.46 0 0 1 5-7.41l22.25 14.91a4.46 4.46 0 1 1-5 7.4M188.2 286.32l-22.2-14.9a4.46 4.46 0 0 1 5-7.42l22.24 14.9a4.47 4.47 0 1 1-5 7.42" class="cls-4"/></svg>