<svg id="Capa_1" data-name="Capa 1" xmlns="http://www.w3.org/2000/svg" viewBox="0 0 512 512"><defs><style>.cls-1{fill:#87bd24;}.cls-2{fill:#0a9b39;}.cls-3,.cls-5{fill:#fff;}.cls-4,.cls-5{fill-rule:evenodd;}</style></defs><rect class="cls-1" x="77.85" y="79.17" width="353.66" height="353.66" transform="translate(-106.41 258.93) rotate(-45.61)"/><path class="cls-2" d="M258.74,512,0,258.74,253.26,0,512,253.26ZM11.88,258.61,258.61,500.13,500.12,253.39,253.39,11.88Z"/><path class="cls-2" d="M366.69,272l-2.08,8.11c-.49,2.48-1.74,5.15-2.76,8.12-.56,1.47-1,3-1.69,4.54L358,297.25c-.72,1.52-1.45,3-2.16,4.51s-1.69,2.81-2.49,4.16a71.2,71.2,0,0,1-4.65,7.2l-5,6.71,6.09,5s2.15-2.88,5.39-7.17a81,81,0,0,0,5-7.73c.86-1.45,1.81-2.91,2.66-4.46s1.55-3.2,2.33-4.82l2.32-4.82c.69-1.63,1.23-3.29,1.83-4.86,1.09-3.18,2.4-6.06,2.93-8.71,1.35-5.22,2.24-8.69,2.24-8.69Z"/><path class="cls-2" d="M338.23,325.7l5.72,5.47c.23.22-8.3,7.9-8.3,7.9l-5.18-6s8-7.17,7.76-7.39"/><path class="cls-2" d="M323.91,338.28l4.71,6.35-1.44,1.07c-.88.63-2,1.56-3.2,2.32l-4.9,3L315,344.21l4.58-2.77c1.14-.71,2.16-1.58,3-2.16l1.33-1"/><path class="cls-2" d="M368.78,253.32l7.91.29s-.15,2.87-.29,5.74c0,.71-.09,1.43-.12,2.1s-.2,1.29-.28,1.82c-.16,1.06-.26,1.77-.26,1.77L367.89,264s.1-.66.26-1.65c.07-.5.16-1.08.26-1.7s.06-1.29.1-2c.13-2.68.27-5.36.27-5.36"/><path class="cls-2" d="M308,348.18l-2.08,1c-1.34.6-3.16,1.64-5.51,2.55l-8.06,2.95c-3,1-6.27,1.68-9.49,2.57l-2.43.62-2.46.37-4.79.73c-1.56.2-3,.56-4.48.61l-4.06.2c-2.51.13-4.6.24-6.06.3s-2.3-.07-2.3-.07l-.13,7.91s.89.08,2.45.07l6.5-.32,4.34-.22c1.54-.06,3.13-.43,4.8-.64l5.13-.79,2.64-.4,2.61-.66c3.46-.94,7-1.66,10.17-2.75l8.64-3.17c2.51-1,4.47-2.09,5.91-2.73l2.22-1.06Z"/><path class="cls-2" d="M248.27,359.54l-.7,7.88s-.72,0-1.79-.11l-3.9-.59-5.68-.87,1.46-7.78,5.3.81,3.64.56c1,.09,1.67.1,1.67.1"/><path class="cls-2" d="M211.85,349.87l-2.08-1c-1.3-.67-3.26-1.44-5.42-2.72L197,341.69c-2.64-1.72-5.23-3.85-7.94-5.82a108.44,108.44,0,0,1-13.35-12.66,56.29,56.29,0,0,1-4-4.58l-1.37-1.85-6.27,4.82,1.48,2a60.8,60.8,0,0,0,4.27,4.91,117.38,117.38,0,0,0,14.29,13.56c2.9,2.12,5.69,4.39,8.5,6.23l7.86,4.77c2.32,1.38,4.42,2.2,5.81,2.94l2.22,1.06Z"/><path class="cls-2" d="M229.52,356.17l-2.05,7.64-1.73-.45a37.11,37.11,0,0,1-3.79-1.08l-5.4-2,2.78-7.4,5,1.84c1.25.5,2.59.71,3.54,1l1.63.42"/><path class="cls-2" d="M165.7,310.29l-6.59,4.37-3-4.91c-.75-1.23-1.49-2.45-2-3.37a8.36,8.36,0,0,1-.63-1.14l-.21-.44,7-3.71.2.41a7,7,0,0,0,.58,1.07c.53.85,1.22,2,1.92,3.13,1.38,2.3,2.77,4.59,2.77,4.59"/><path class="cls-2" d="M150.59,275.77s-.21-.82-.58-2.23a44.07,44.07,0,0,1-1.1-6c-.32-2.49-1-5.36-1.16-8.51s-.32-6.48-.49-9.83c.17-3.34.33-6.69.49-9.83s.84-6,1.14-8.5a43.1,43.1,0,0,1,1.12-6c.36-1.42.57-2.23.57-2.23l-7.68-1.89-.61,2.39a49,49,0,0,0-1.2,6.39c-.34,2.66-1,5.75-1.22,9.11s-.34,6.94-.52,10.52c.18,3.59.36,7.18.53,10.54s.88,6.43,1.23,9.1a45.79,45.79,0,0,0,1.19,6.39l.61,2.39Z"/><path class="cls-2" d="M156.59,293.54l-7.24,3.16a17.78,17.78,0,0,1-.74-1.62c-.37-1-.87-2.37-1.36-3.71-1-2.7-2-5.4-2-5.4l7.51-2.44s.93,2.51,1.85,5c.46,1.26.92,2.52,1.26,3.47a15.62,15.62,0,0,0,.69,1.52"/><path class="cls-2" d="M152.75,215l-7.52-2.44,2-5.39c.49-1.35,1-2.69,1.37-3.7a11.32,11.32,0,0,1,.71-1.64l7.26,3.16a12.19,12.19,0,0,0-.69,1.52L154.6,210l-1.85,5"/><path class="cls-2" d="M170.34,181.67l1.37-1.85a56.29,56.29,0,0,1,4-4.58A109.61,109.61,0,0,1,189,162.57c2.71-2,5.33-4.09,7.94-5.82l7.34-4.46c2.15-1.29,4.12-2,5.42-2.73l2.08-1-3.32-7.19-2.23,1.07c-1.39.73-3.49,1.56-5.8,2.94l-7.86,4.78c-2.81,1.85-5.6,4.11-8.5,6.23A116.65,116.65,0,0,0,169.81,170a64.08,64.08,0,0,0-4.26,4.92l-1.48,2Z"/><path class="cls-2" d="M160.17,197.46l-7-3.71a12.46,12.46,0,0,1,.83-1.58c.55-.93,1.3-2.15,2-3.38,1.49-2.46,3-4.91,3-4.91l6.59,4.36-2.78,4.58c-.69,1.15-1.39,2.29-1.91,3.15a11.18,11.18,0,0,0-.77,1.49"/><path class="cls-2" d="M219.2,145.55l-2.79-7.41,5.4-2a37.68,37.68,0,0,1,3.79-1.1l1.73-.44,2,7.64-1.62.41a29.34,29.34,0,0,0-3.53,1l-5,1.84"/><path class="cls-2" d="M256.2,138.41s.84-.07,2.31-.08l6.07.32,4.05.19c1.44,0,2.93.4,4.48.6l4.79.74c.82.11,1.64.24,2.46.36s1.62.41,2.43.61c3.23.9,6.53,1.55,9.51,2.57l8.05,2.95c2.34.9,4.17,2,5.51,2.55l2.08,1,3.55-7.07-2.22-1.07c-1.43-.64-3.4-1.75-5.91-2.72l-8.64-3.16c-3.18-1.09-6.71-1.81-10.17-2.76-.87-.21-1.74-.46-2.61-.65l-2.64-.41-5.13-.78c-1.67-.21-3.26-.59-4.8-.63l-4.34-.23-6.5-.32c-1.56,0-2.46.08-2.46.08Z"/><path class="cls-2" d="M237.53,140.36l-1.47-7.77,5.67-.87,3.9-.59a16.43,16.43,0,0,1,1.79-.13l.71,7.88a13.79,13.79,0,0,0-1.67.11l-3.64.57Z"/><path class="cls-2" d="M314.9,154.12l4.06-6.79,4.9,3c1.24.73,2.33,1.68,3.21,2.3l1.44,1.07-4.7,6.36s-.54-.39-1.34-1-1.84-1.46-3-2.14l-4.58-2.78"/><path class="cls-2" d="M343.63,178.56a5.24,5.24,0,0,1,.37.47c.24.31.58.78,1,1.37l3.64,4.86a71.2,71.2,0,0,1,4.65,7.2c.81,1.35,1.68,2.72,2.49,4.15l2.16,4.51c.74,1.51,1.45,3,2.18,4.5s1.14,3.06,1.7,4.53c1,3,2.27,5.65,2.76,8.12l2.08,8.12,7.74-1.63-2.23-8.69c-.54-2.65-1.86-5.52-2.95-8.71-.6-1.57-1.13-3.23-1.83-4.85s-1.54-3.21-2.32-4.83l-2.33-4.82c-.86-1.54-1.81-3-2.67-4.46a77.42,77.42,0,0,0-5-7.71c-1.61-2.17-3-4-3.9-5.22L350.12,174c-.25-.33-.4-.5-.4-.5Z"/><path class="cls-2" d="M330.37,165.24l5.16-6s8.54,7.66,8.32,7.89l-5.71,5.48c.22-.22-7.77-7.38-7.77-7.38"/><path class="cls-2" d="M367.87,234.29l7.84-1.06s.11.71.27,1.77a27.66,27.66,0,0,1,.41,3.92c.15,2.87.29,5.73.29,5.73l-7.91.3-.26-5.35a23,23,0,0,0-.39-3.66l-.25-1.65"/><path class="cls-3" d="M433.63,291.22c0,35.17-29.05,63.68-64.88,63.68s-64.88-28.51-64.88-63.68,29.05-63.68,64.88-63.68,64.88,28.51,64.88,63.68"/><path class="cls-4" d="M338.25,259.68q7.39,4.15,14.78,8.34c1.49.84,2.39.6,3.24-.89q3.84-6.74,7.65-13.49c1.33-2.32,2.65-4.65,4.08-7.14.27.36.45.54.58.75,3.46,6.43,6.92,12.88,10.4,19.3a1.15,1.15,0,0,1-.52,1.83c-1.75.92-3.49,1.86-5.22,2.84a4.75,4.75,0,0,0-.89.9,4.14,4.14,0,0,0,1.06.74c2.56.79,5.14,1.51,7.71,2.29l16,4.83c1.13.34,1.71,0,2.05-1.15q1.55-5.22,3.1-10.43c1.35-4.46,2.71-8.91,4-13.37a3,3,0,0,0-.12-1.18,3.38,3.38,0,0,0-1.07.18c-1.73.89-3.44,1.81-5.15,2.74-1.19.62-1.49.55-2.11-.59-1.31-2.39-2.59-4.79-3.9-7.18-2.07-3.78-4-7.64-6.26-11.32A13.49,13.49,0,0,0,377.13,231a51,51,0,0,0-9.29.51c-2.91.27-5.81.79-8.73,1.07-5.38.52-9.69,2.83-12.45,7.55-3.17,5.4-6.21,10.87-9.29,16.32a2,2,0,0,0,.88,3.2"/><path class="cls-4" d="M353.84,312.56h-22.2c-.4,0-.79-.05-1.31-.08a8.29,8.29,0,0,1,.41-.81q5.64-9,11.29-18c1-1.63,1.17-1.64,2.82-.62s3,1.93,4.59,2.86a1.57,1.57,0,0,0,1.06.16c.14-.05.16-.6.18-.92a2,2,0,0,0-.08-.63c-.67-2.85-1.38-5.69-2-8.54-1.17-5.16-2.31-10.33-3.52-15.48a1.59,1.59,0,0,0-.91-1,2.27,2.27,0,0,0-1.21,0v0l-6.6,1.6c-.5.11-.94.21-1.36.27a1.64,1.64,0,0,0-.54.19l-4.05,1h0q-5.76,1.31-11.52,2.63a3.69,3.69,0,0,0-1,.6,4.07,4.07,0,0,0,.73.93c1.64,1.06,3.31,2.06,4.94,3.12.23,1.52-.65,3.65-1.63,5.47-2.61,4.14-5.18,8.31-7.84,12.41-3.75,5.77-3.92,12.38-.05,17.91,3.11,4.47,6.39,8.82,9.78,13.09a13.73,13.73,0,0,0,10.79,5.53c6.61.14,13.24.09,19.86.09,1.35,0,2-.71,2-2.11v-17c0-2-.55-2.59-2.58-2.59"/><path class="cls-4" d="M422.39,296.27c-3.14-5.49-6.47-10.88-9.73-16.3-.83-1.38-1.73-1.61-3.1-.79-4.86,2.88-9.73,5.79-14.57,8.69-1.64,1-1.84,1.77-.86,3.41l10.44,17.36,1.78,3h-7.63c-.24,0-.44-.06-.64-.07l-14.33-.33c-1.35,0-1.64-.28-1.64-1.61,0-2,0-4,0-6.05,0-.3-.13-.81-.32-.88a1.18,1.18,0,0,0-.93.29c-.74.67-1.4,1.4-2.12,2.09l-16,15.2c-.87.83-.88,1.49,0,2.39l8.81,9.18,6.07,6.32h0c.83.87,1.67,1.75,2.51,2.61a1.32,1.32,0,0,0,.8.39c.12,0,.39-.4.39-.62,0-.79,0-1.57,0-2.38v-3.49c.19-.22.16-.42,0-.85v-.41s-.3-.73,1.21-.7,5.52.08,6.24.1c4.6.08,9.19.16,13.8.28a15.71,15.71,0,0,0,14.81-9.47c1.8-4.37,3.59-8.75,5.45-13.11,2.06-4.85,2.22-9.66-.44-14.29"/><path class="cls-3" d="M251.77,325c0,35.47-29.29,64.22-65.43,64.22S120.9,360.43,120.9,325s29.31-64.21,65.44-64.21S251.77,289.5,251.77,325"/><path d="M126.28,260.86s20.57,7.71,28.59,2.55,27.55-11.38,42.76-4.77c19.75,8.58,56.59,33.34,56.59,33.34s3.13,9-5.62,8c-12.49-1.45-33.09-12.83-33.09-12.83s7.87-11.65-14.73-15.16c-11.34-1.75-22.63-5.55-39.25,7.16,3.43,3.55,3.64,2.61,9.37.42s29-5.11,37-.42,0,11-6.88,11-13.17-2.29-24.06,5.73-26.36,9.74-37.24,4.58-29.22-14.89-29.22-14.89Z"/><path d="M252.38,395.21s-20.56-7.71-28.59-2.54S196.25,404,181,397.43c-19.75-8.58-56.58-33.34-56.58-33.34s-3.13-9,5.61-8c12.48,1.45,33.09,12.82,33.09,12.82s-7.87,11.66,14.73,15.16c11.33,1.76,22.64,5.57,39.25-7.14-3.43-3.55-3.63-2.62-9.37-.43s-29,5.12-37,.43,0-11,6.88-11,13.18,2.29,24.06-5.73,26.36-9.74,37.25-4.59,29.22,14.9,29.22,14.9Z"/><path d="M204.84,333.13a13.45,13.45,0,0,0,3-8.47,13.28,13.28,0,0,0-13.17-13.38,13.07,13.07,0,0,0-10.57,5.41,13.07,13.07,0,0,0-9.57-4.19,13.39,13.39,0,0,0-10,22.08h0l.07.05a12.12,12.12,0,0,0,2.26,2.09l17.3,15.95,18.16-17.17a13.47,13.47,0,0,0,2.51-2.38Z"/><path class="cls-4" d="M348.05,131c0-10.38-6-16.54-16.3-16.58-17.05-.08-34.11,0-51.17,0v0c-17.05,0-34.11.14-51.16-.06-10.56-.12-16.51,7.75-16.39,16.64q.34,28.34-.08,56.69c-.13,8.49,5.51,16.88,16.86,16.79,34.11-.25,68.22-.09,102.34-.11,9.69,0,15.93-6.3,15.93-16.05q0-28.64,0-57.28"/><path class="cls-4" d="M249.56,112.11c5,0,5,0,5.2-5,.17-5.33,3.38-8.87,8.63-8.93q17.28-.21,34.56,0c5,.06,8.2,3.58,8.33,8.58a17.29,17.29,0,0,0,.07,3.46c.17.71,1,1.75,1.59,1.78,3.16.17,6.33.08,9.83.08,0-2.21.05-4,0-5.84a20,20,0,0,0-19.58-19.46c-11.9-.14-23.82-.16-35.72,0-12.39.21-21.89,13.08-18.57,25.32h5.66"/><polygon class="cls-5" points="310.24 147.69 294.26 147.69 294.26 131.53 270.87 131.53 270.87 147.69 254.5 147.69 254.5 171.09 270.87 171.09 270.87 187.26 294.26 187.26 294.26 171.09 310.24 171.09 310.24 147.69"/></svg>