<svg xmlns="http://www.w3.org/2000/svg" viewBox="0 0 512 512"><path fill="#87bd24" d="M4.624 258.681 252.022 5.958l252.724 247.399L257.347 506.08z"/><g fill="#0a9b39"><path d="M258.74 512 0 258.74 253.26 0 512 253.26zM11.88 258.61l246.73 241.52 241.51-246.74L253.39 11.88zM366.69 272l-2.08 8.11c-.49 2.48-1.74 5.15-2.76 8.12l-1.69 4.54-2.16 4.48-2.16 4.51c-.71 1.51-1.69 2.81-2.49 4.16a71 71 0 0 1-4.65 7.2l-5 6.71 6.09 5 5.39-7.17a81 81 0 0 0 5-7.73l2.66-4.46c.85-1.55 1.55-3.2 2.33-4.82l2.32-4.82 1.83-4.86c1.09-3.18 2.4-6.06 2.93-8.71l2.24-8.69zm-28.46 53.7 5.72 5.47c.23.22-8.3 7.9-8.3 7.9l-5.18-6s8-7.17 7.76-7.39m-14.32 12.6 4.71 6.35-1.44 1.07-3.2 2.32-4.9 3-4.08-6.81 4.58-2.77c1.14-.71 2.16-1.58 3-2.16zm44.87-84.96 7.91.29-.29 5.74c0 .71-.09 1.43-.12 2.1s-.2 1.29-.28 1.82l-.26 1.77-7.85-1.04.26-1.65.26-1.7c.1-.62.06-1.29.1-2l.27-5.36M308 348.18l-2.08 1-5.51 2.55-8.06 2.95c-3 1-6.27 1.68-9.49 2.57l-2.43.62-2.46.37-4.79.73-4.48.61-4.06.2-6.06.3c-1.46.06-2.3-.07-2.3-.07l-.13 7.91a28 28 0 0 0 2.45.07l6.5-.32 4.34-.22c1.54-.06 3.13-.43 4.8-.64l5.13-.79 2.64-.4 2.61-.66c3.46-.94 7-1.66 10.17-2.75l8.64-3.17c2.51-1 4.47-2.09 5.91-2.73l2.22-1.06zm-59.73 11.36-.7 7.88s-.72 0-1.79-.11l-3.9-.59-5.68-.87 1.46-7.78 5.3.81 3.64.56zm-36.42-9.67-2.08-1-5.42-2.72-7.35-4.46c-2.64-1.72-5.23-3.85-7.94-5.82a108.4 108.4 0 0 1-13.35-12.66 56 56 0 0 1-4-4.58l-1.37-1.85-6.27 4.82 1.48 2a61 61 0 0 0 4.27 4.91 117.4 117.4 0 0 0 14.29 13.56c2.9 2.12 5.69 4.39 8.5 6.23l7.86 4.77c2.32 1.38 4.42 2.2 5.81 2.94l2.22 1.06z"/><path d="m229.52 356.17-2.05 7.64-1.73-.45a37 37 0 0 1-3.79-1.08l-5.4-2 2.78-7.4 5 1.84c1.25.5 2.59.71 3.54 1l1.63.42m-63.8-45.85-6.59 4.37-3-4.91-2-3.37a8.4 8.4 0 0 1-.63-1.14l-.21-.44 7-3.71.2.41a7 7 0 0 0 .58 1.07l1.92 3.13 2.77 4.59m-15.15-34.52-.58-2.23a44 44 0 0 1-1.1-6l-1.16-8.51-.49-9.83.49-9.83c.16-3.14.84-6 1.14-8.5a43 43 0 0 1 1.12-6l.57-2.23-7.68-1.89-.61 2.39a49 49 0 0 0-1.2 6.39l-1.22 9.11c-.22 3.36-.34 6.94-.52 10.52l.53 10.54c.17 3.36.88 6.43 1.23 9.1a46 46 0 0 0 1.19 6.39l.61 2.39zM156.59 293.54l-7.24 3.16a18 18 0 0 1-.74-1.62l-1.36-3.71-2-5.4 7.51-2.44 1.85 5 1.26 3.47a16 16 0 0 0 .69 1.52M152.75 215l-7.52-2.44 2-5.39 1.37-3.7a11.3 11.3 0 0 1 .71-1.64l7.26 3.16a12 12 0 0 0-.69 1.52L154.6 210zm17.59-33.33 1.37-1.85a56 56 0 0 1 4-4.58A109.6 109.6 0 0 1 189 162.57l7.94-5.82 7.34-4.46c2.15-1.29 4.12-2 5.42-2.73l2.08-1-3.32-7.19-2.23 1.07-5.8 2.94-7.86 4.78c-2.81 1.85-5.6 4.11-8.5 6.23A116.7 116.7 0 0 0 169.81 170a64 64 0 0 0-4.26 4.92l-1.48 2zM160.17 197.46l-7-3.71a12.5 12.5 0 0 1 .83-1.58l2-3.38 3-4.91 6.59 4.36-2.78 4.58-1.91 3.15a11 11 0 0 0-.77 1.49m59.07-51.91-2.79-7.41 5.4-2a38 38 0 0 1 3.79-1.1l1.73-.44 2 7.64-1.62.41a29 29 0 0 0-3.53 1l-5 1.84m37.02-7.08 2.31-.08 6.07.32 4.05.19c1.44 0 2.93.4 4.48.6l4.79.74 2.46.36c.82.12 1.62.41 2.43.61l9.51 2.57 8.05 2.95c2.34.9 4.17 2 5.51 2.55l2.08 1 3.55-7.07-2.22-1.07-5.91-2.72-8.64-3.16c-3.18-1.09-6.71-1.81-10.17-2.76-.87-.21-1.74-.46-2.61-.65l-2.64-.41-5.13-.78c-1.67-.21-3.26-.59-4.8-.63l-4.34-.23-6.5-.32c-1.56 0-2.46.08-2.46.08zM237.53 140.36l-1.47-7.77 5.67-.87 3.9-.59a16 16 0 0 1 1.79-.13l.71 7.88a14 14 0 0 0-1.67.11l-3.64.57zm77.37 13.76 4.06-6.79 4.9 3c1.24.73 2.33 1.68 3.21 2.3l1.44 1.07-4.7 6.36-1.34-1c-.8-.61-1.84-1.46-3-2.14l-4.58-2.78m28.74 24.42a5 5 0 0 1 .37.47l1 1.37 3.64 4.86a71 71 0 0 1 4.65 7.2l2.49 4.15 2.16 4.51 2.18 4.5c.73 1.5 1.14 3.06 1.7 4.53 1 3 2.27 5.65 2.76 8.12l2.08 8.12 7.74-1.63-2.23-8.69c-.54-2.65-1.86-5.52-2.95-8.71l-1.83-4.85-2.32-4.83-2.33-4.82-2.67-4.46a77 77 0 0 0-5-7.71l-3.9-5.22-1.05-1.47-.4-.5zM330.37 165.24l5.16-6s8.54 7.66 8.32 7.89l-5.71 5.48c.22-.22-7.77-7.38-7.77-7.38m37.5 69.06 7.84-1.06.27 1.77a28 28 0 0 1 .41 3.92l.29 5.73-7.91.3-.26-5.35a23 23 0 0 0-.39-3.66z"/></g><path fill="#fff" d="M433.63 291.22c0 35.17-29.05 63.68-64.88 63.68s-64.88-28.51-64.88-63.68 29.05-63.68 64.88-63.68 64.88 28.51 64.88 63.68"/><path fill-rule="evenodd" d="M338.25 259.68q7.39 4.15 14.78 8.34c1.49.84 2.39.6 3.24-.89q3.84-6.74 7.65-13.49l4.08-7.14.58.75 10.4 19.3a1.15 1.15 0 0 1-.52 1.83 189 189 0 0 0-5.22 2.84 4.8 4.8 0 0 0-.89.9 4.1 4.1 0 0 0 1.06.74l7.71 2.29 16 4.83c1.13.34 1.71 0 2.05-1.15q1.55-5.22 3.1-10.43l4-13.37a3 3 0 0 0-.12-1.18 3.4 3.4 0 0 0-1.07.18l-5.15 2.74c-1.19.62-1.49.55-2.11-.59l-3.9-7.18c-2.07-3.78-4-7.64-6.26-11.32a13.49 13.49 0 0 0-10.53-6.68 51 51 0 0 0-9.29.51c-2.91.27-5.81.79-8.73 1.07-5.38.52-9.69 2.83-12.45 7.55l-9.29 16.32a2 2 0 0 0 .88 3.2m15.59 52.91h-22.2c-.4 0-.79-.05-1.31-.08a8 8 0 0 1 .41-.81q5.64-9 11.29-18c1-1.63 1.17-1.64 2.82-.62l4.59 2.86a1.57 1.57 0 0 0 1.06.16c.14-.05.16-.6.18-.92a2 2 0 0 0-.08-.63l-2-8.54-3.52-15.48a1.59 1.59 0 0 0-.91-1 2.27 2.27 0 0 0-1.21 0l-6.6 1.6-1.36.27a1.6 1.6 0 0 0-.54.19l-4.05 1q-5.76 1.31-11.52 2.63a3.7 3.7 0 0 0-1 .6 4 4 0 0 0 .73.93l4.94 3.12c.23 1.52-.65 3.65-1.63 5.47l-7.84 12.41c-3.75 5.77-3.92 12.38-.05 17.91 3.11 4.47 6.39 8.82 9.78 13.09a13.73 13.73 0 0 0 10.79 5.53c6.61.14 13.24.09 19.86.09 1.35 0 2-.71 2-2.11v-17c0-2-.55-2.59-2.58-2.59m68.5-16.37c-3.14-5.49-6.47-10.88-9.73-16.3-.83-1.38-1.73-1.61-3.1-.79l-14.57 8.69c-1.64 1-1.84 1.77-.86 3.41l10.44 17.36 1.78 3h-7.63c-.24 0-.44-.06-.64-.07l-14.33-.33c-1.35 0-1.64-.28-1.64-1.61v-6.05c0-.3-.13-.81-.32-.88a1.18 1.18 0 0 0-.93.29c-.74.67-1.4 1.4-2.12 2.09l-16 15.2c-.87.83-.88 1.49 0 2.39l8.81 9.18 6.07 6.32 2.51 2.61a1.32 1.32 0 0 0 .8.39c.12 0 .39-.4.39-.62v-5.87c.19-.22.16-.42 0-.85v-.41s-.3-.73 1.21-.7l6.24.1 13.8.28a15.71 15.71 0 0 0 14.81-9.47l5.45-13.11c2.06-4.85 2.22-9.66-.44-14.29"/><path fill="#fff" d="M251.77 325c0 35.47-29.29 64.22-65.43 64.22S120.9 360.43 120.9 325s29.31-64.21 65.44-64.21 65.43 28.71 65.43 64.21"/><path d="M126.28 260.86s20.57 7.71 28.59 2.55 27.55-11.38 42.76-4.77c19.75 8.58 56.59 33.34 56.59 33.34s3.13 9-5.62 8c-12.49-1.45-33.09-12.83-33.09-12.83s7.87-11.65-14.73-15.16c-11.34-1.75-22.63-5.55-39.25 7.16 3.43 3.55 3.64 2.61 9.37.42s29-5.11 37-.42 0 11-6.88 11-13.17-2.29-24.06 5.73-26.36 9.74-37.24 4.58-29.22-14.89-29.22-14.89zm126.1 134.35s-20.56-7.71-28.59-2.54S196.25 404 181 397.43c-19.75-8.58-56.58-33.34-56.58-33.34s-3.13-9 5.61-8c12.48 1.45 33.09 12.82 33.09 12.82s-7.87 11.66 14.73 15.16c11.33 1.76 22.64 5.57 39.25-7.14-3.43-3.55-3.63-2.62-9.37-.43s-29 5.12-37 .43 0-11 6.88-11 13.18 2.29 24.06-5.73 26.36-9.74 37.25-4.59 29.22 14.9 29.22 14.9zm-47.54-62.08a13.45 13.45 0 0 0 3-8.47 13.28 13.28 0 0 0-13.17-13.38 13.07 13.07 0 0 0-10.57 5.41 13.07 13.07 0 0 0-9.57-4.19 13.39 13.39 0 0 0-10 22.08l.07.05a12 12 0 0 0 2.26 2.09l17.3 15.95 18.16-17.17a13.5 13.5 0 0 0 2.51-2.38z"/><g fill-rule="evenodd"><path d="M348.05 131c0-10.38-6-16.54-16.3-16.58-17.05-.08-34.11 0-51.17 0-17.05 0-34.11.14-51.16-.06-10.56-.12-16.51 7.75-16.39 16.64q.34 28.34-.08 56.69c-.13 8.49 5.51 16.88 16.86 16.79l102.34-.11c9.69 0 15.93-6.3 15.93-16.05v-57.28m-98.52-18.93c5 0 5 0 5.2-5 .17-5.33 3.38-8.87 8.63-8.93q17.28-.21 34.56 0c5 .06 8.2 3.58 8.33 8.58a17.3 17.3 0 0 0 .07 3.46c.17.71 1 1.75 1.59 1.78 3.16.17 6.33.08 9.83.08v-5.84a20 20 0 0 0-19.58-19.46c-11.9-.14-23.82-.16-35.72 0-12.39.21-21.89 13.08-18.57 25.32h5.66"/><path fill="#fff" d="M310.24 147.69h-15.98v-16.16h-23.39v16.16H254.5v23.4h16.37v16.17h23.39v-16.17h15.98z"/></g></svg>