<svg xmlns="http://www.w3.org/2000/svg" id="Capa_1" data-name="Capa 1" viewBox="0 0 512 512"><defs><style>.cls-4{fill:#1e1e1c}</style></defs><path d="M85.04 85.04h341.92v341.92H85.04z" style="fill:#7dba32" transform="rotate(-45 256 256.002)"/><path d="M256 0 0 256l256 256 256-256Zm0 14.22L497.78 256 256 497.78 14.22 256Z" style="fill:#13a646"/><path d="M208 175.93s54.13-29.83 89.13 0 28.1 74.21-9.37 128c-7.65 20.36-11.12 11.41-11.12 11.41l-.39 33.71-4.34 4.35-47.83 4.35L214.3 304s-33.42-32.19-19.38-74.76 13.06-51 13.06-51" style="fill:#f3e722"/><path d="M225.22 172.43c32.83-10.63 71.64-6.93 85.08 29.28s-7.94 79.48-33.66 105.18a4.29 4.29 0 0 0-1.12 4.23c4.41 11.53-2.07 30.32-3.63 42.32l4.35-4.35h-52.17c-5.61 0-5.61 8.7 0 8.7h52.17c2.6 0 4-2 4.35-4.35 1.51-11.63 3.32-23.25 4-35A31.7 31.7 0 0 0 284 309c1 4-1.59 4.71 2.92-.33 18.75-21 32.19-46.91 35.59-75 3.76-30.94-11.12-62.6-41.63-72.16-18-5.65-40.16-3.18-57.94 2.58-5.31 1.71-3 10.11 2.31 8.38M221 370.4h53.91c5.6 0 5.6-8.69 0-8.69H221c-5.6 0-5.6 8.69 0 8.69M231.74 383.44h38.18c5.6 0 5.6-8.69 0-8.69h-38.18c-5.6 0-5.6 8.69 0 8.69M241.07 393.94h19.53c5.61 0 5.61-8.71 0-8.7h-19.53c-5.61 0-5.61 8.7 0 8.7M246.23 105.2v41.74c0 5.6 8.7 5.6 8.7 0V105.2c0-5.6-8.7-5.6-8.7 0M339.93 136.66l-29.83 29.19c-4 3.93 2.14 10.07 6.15 6.15l29.83-29.2c4-3.92-2.14-10.07-6.15-6.14M379 223.75 337.35 226c-5.58.3-5.61 9 0 8.69l41.65-2.24c5.57-.3 5.6-9 0-8.7" class="cls-4"/><path d="M206.24 163s-22.61 10.47-33 38.72 13.47 39.57 13.47 39.57.32.13.85.29c-.6-8.72-.9-25.84 4.81-33.77.81 17.91 1.75 28.26 2.8 34.34 5.46-.67 12.8-3.79 19.81-14 13.47-19.69-8.7-65.11-8.7-65.11M161.56 281.6c9.13-1.52 15.23-2.73 19.34-3.75a24.3 24.3 0 0 0-1.18-4.4s-10-17.4-38.25-5.22-27 24.78-27 24.78 24.78 14.78 44.78 10c14.84-3.56 21.28-11.65 21.86-20.39-6.07.93-14.81 1.62-19.59-1M241.89 248.23c-22.56 8.5-23.1 33-22.75 40.14 5.86-5.63 18.26-16.78 26.55-18.88-12.88 11.93-19.89 18.9-23.68 23.17 7.47 5.12 15.5 1.62 26-2.26 11.75-4.34 17.39-46.08 17.39-46.08s3-6.09-23.47 3.91M228.84 337.36s-4.15-22.7-11.79-37.17c.93-2.77 2-6.4 2-8.36l-4.48 4.23a25.4 25.4 0 0 0-4-4.78c-11.74-10.44-19.14-44.35-19.14-44.79s-4.34 0-4.34 0l7.81 33.05-7.81.43 7.81 4s2.19 2.56 13.06 16.9 8.7 36.52 8.7 36.52ZM248 196.06c21.58-1.27 39 12.18 40.43 34.26.36 5.56 9 5.6 8.7 0-1.67-26.59-22.52-44.51-49.13-42.95-5.57.32-5.6 9 0 8.69" class="cls-4"/></svg>