<svg xmlns="http://www.w3.org/2000/svg" id="Capa_1" data-name="Capa 1" viewBox="0 0 512 512"><defs><style>.cls-3{fill:none}.cls-4{fill:#fff}</style></defs><path d="M85.04 85.04h341.92v341.92H85.04z" style="fill:#35a8e0" transform="rotate(-45 256 256.002)"/><path d="M256 0 0 256l256 256 256-256Zm0 14.22L497.78 256 256 497.78 14.22 256Z" style="fill:#28397b"/><path d="M228.83 228.92a470 470 0 0 0 52.75-.37 473 473 0 0 1-52.89.37v17.56a19.7 19.7 0 0 1-.35 3.45l.15-.06a18.7 18.7 0 0 0 .34-3.38ZM262.61 133.48c-10.48 0-18.15 2.46-22.82 7.27a19.46 19.46 0 0 0-5 10h47.41c0-4-.7-8.3-3-11.41-2.9-3.89-8.48-5.86-16.59-5.86" class="cls-3"/><path d="M170.62 360c6.36 0 11.49-5.59 11.49-12.48V245.29c-8.59-8.37-23-.81-23-.81v103c.01 6.93 5.16 12.52 11.51 12.52M331 347.52c0 6.89 5.14 12.48 11.49 12.48s11.5-5.59 11.5-12.48V243.81c-6.63-3.93-17.78-1.3-24 .68l1-.27Z" class="cls-4"/><path d="M354 243.77v103.75c0 6.89-5.15 12.48-11.5 12.48s-11.5-5.59-11.5-12.48v-103.3l-1 .27a42 42 0 0 0-10.22 4.56 19 19 0 0 0 .26-2.59v-20.71c0-.42-.09-.8-.13-1.22A79 79 0 0 0 331 222c20.69-6.9 19.54-28.74 19.54-28.74v-42.53h-50c0-7-1.39-15.28-6.59-22.29-6.53-8.87-17.1-13.36-31.4-13.36-15.85 0-28.08 4.44-36.34 13.19a38.25 38.25 0 0 0-10.07 22.46h-59.89v36.8c0 27.83 32.27 34.09 34.3 34.46a18.7 18.7 0 0 0-.38 3.76v20.71c0 .45.1.86.13 1.3a82 82 0 0 0-8.18-2.46v102.22c0 6.89-5.13 12.48-11.49 12.48s-11.5-5.59-11.5-12.48v-103c-8.41 2-16 7.37-20.12 18.93-12.65 35.65-11.5 131.09 97.74 133.39s121.88-33.35 128.78-49.45c6.11-14.33 31.21-93.55-11.53-103.62m-72.3 4.16c-.76-.12-1.6-.24-2.49-.35-13.58-1.56-40.12-.41-48.2 1.54a24 24 0 0 0-2.55.8.15.15 0 0 0 0-.07l-.15.06a19.7 19.7 0 0 0 .35-3.45V228.9a473 473 0 0 0 52.89-.37h.14v17.92c0 .5.11 1 .15 1.48h-.15Zm-46.9-97.2a19.46 19.46 0 0 1 5-10c4.67-4.81 12.34-7.27 22.82-7.27 8.11 0 13.69 2 16.58 5.84 2.31 3.11 3 7.4 3 11.41Z" style="fill:#1e1e1c"/><path d="M281.72 246.47v-17.92h-.14a470 470 0 0 1-52.75.37v17.55a18.7 18.7 0 0 1-.34 3.38.15.15 0 0 1 0 .07 24 24 0 0 1 2.55-.8c8.08-2 34.62-3.1 48.2-1.54.89.11 1.72.22 2.49.35h.15c-.05-.47-.16-.93-.16-1.46" class="cls-4"/></svg>