<svg xmlns="http://www.w3.org/2000/svg" id="Capa_1" data-name="Capa 1" viewBox="0 0 512 512"><defs><style>.cls-5{fill:#1e1e1c}.cls-6{fill:#f9b116}</style></defs><path d="M85.04 85.04h341.92v341.92H85.04z" style="fill:#ded300" transform="rotate(-45 256 256.002)"/><path d="M256 0 0 256l256 256 256-256Zm0 14.22L497.78 256 256 497.78 14.22 256Z" style="fill:#b9870f"/><path d="M250.8 226.84v156.14" style="fill:none;stroke:#fff;stroke-miterlimit:10;stroke-width:2px"/><path d="M362.26 188.31v72.39a89.24 89.24 0 0 1-20.09 56.59H168.39a89.3 89.3 0 0 1-20.09-56.59v-72.39A89.65 89.65 0 0 1 238 98.64h34.61a89.69 89.69 0 0 1 89.69 89.67" style="fill:#e41f1a"/><path d="M344.18 321.55H166.36l-1.3-1.56a94.2 94.2 0 0 1-21-59.29v-72.4A94 94 0 0 1 238 94.36h34.61a94.05 94.05 0 0 1 93.95 93.94v72.4a94.15 94.15 0 0 1-21 59.29ZM170.44 313H340.1a85.66 85.66 0 0 0 17.9-52.3v-72.4a85.49 85.49 0 0 0-85.4-85.38H238a85.48 85.48 0 0 0-85.39 85.38v72.4a85.66 85.66 0 0 0 17.83 52.3" class="cls-5"/><path d="M342.16 317.28a89.59 89.59 0 0 1-69.59 33.09H238a89.5 89.5 0 0 1-69.58-33.09Z" class="cls-6"/><path d="M272.57 354.64H238A93.69 93.69 0 0 1 165.09 320l-5.7-7h191.77l-5.68 7a93.73 93.73 0 0 1-72.91 34.65m-94.51-33.09A85 85 0 0 0 238 346.1h34.6a85.08 85.08 0 0 0 59.93-24.55Z" class="cls-5"/><path d="M276.23 427c-3.6 3.59-12.77 5.61-18.51 6.55-.88.12-1.74.25-2.42.33a20 20 0 0 1-2.48-.33c-5.73-.94-14.93-3-18.51-6.55-3.93-3.93-1.65-57.9-.12-86.62a16 16 0 0 1 18.52-14.95 15.9 15.9 0 0 0 5.06 0 16 16 0 0 1 18.53 14.95c1.52 28.73 3.82 82.68-.12 86.61" class="cls-6"/><path d="M255.44 438.22h-.39a29 29 0 0 1-3-.4c-10.36-1.69-17.36-4.31-20.78-7.73-2-2-5.82-5.8-1.36-89.88a20.29 20.29 0 0 1 23.47-18.93 12.1 12.1 0 0 0 3.75 0 20.28 20.28 0 0 1 23.48 18.93c4.44 84.07.65 87.84-1.37 89.87-3.41 3.42-10.42 6-20.83 7.74Zm-17.76-13.91c1.84 1.54 6.87 3.58 15.84 5.05.64.13 1.16.21 1.65.27l2-.27c8.87-1.48 13.88-3.51 15.75-5.05 1.54-4.46 2.12-28.59-.81-83.66a11.55 11.55 0 0 0-4.3-8.5 11.82 11.82 0 0 0-9.28-2.46 19.2 19.2 0 0 1-6.41 0 11.73 11.73 0 0 0-13.62 10.95c-2.92 55.07-2.34 79.21-.79 83.67" class="cls-5"/><path d="M330.24 270.73a21.6 21.6 0 1 1-21.59-21.61 21.6 21.6 0 0 1 21.59 21.61" style="fill:#fff"/><path d="M308.64 295.66a24.94 24.94 0 1 1 24.94-24.93 24.95 24.95 0 0 1-24.94 24.93m0-43.18a18.26 18.26 0 1 0 18.25 18.25 18.27 18.27 0 0 0-18.25-18.25" class="cls-5"/></svg>