<svg xmlns="http://www.w3.org/2000/svg" data-name="Capa 1" viewBox="0 0 512 512"><path d="M85.04 85.04h341.92v341.92H85.04z" style="fill:#dcecf4" transform="rotate(-45 256 256.002)"/><path d="M256 0 0 256l256 256 256-256Zm0 14.22L497.78 256 256 497.78 14.22 256Z" style="fill:#0093c4"/><path d="m257.19 163.67-59.43-46.17h120.98zM199.32 209.84l-59.41-46.17h120.97zM137.92 256.01 78.5 209.84h120.98zM374.53 256.01l-59.42-46.17h120.98z"/><path d="m315.05 209.84-59.42-46.17H376.6zM254.81 348.34l59.42 46.17H193.26z"/><path d="m312.68 302.17 59.42 46.17H251.12zM374.08 256.01l59.42 46.16H312.52zM137.47 256.01l59.42 46.16H75.91z"/><path d="m196.95 302.17 59.42 46.17H135.39zM258.11 322.34l-82.35-66.43L257 192.38l81.14 63.45Zm-58.6-66.24L258 303.24l56.64-47.06-57.61-45Z"/><path d="m233.72 255.9 24.37-19.05 24.37 19.05-24.01 19.96z"/></svg>