<svg xmlns="http://www.w3.org/2000/svg" id="Capa_1" data-name="Capa 1" viewBox="0 0 512 512"><defs><style>.cls-3{fill-rule:evenodd}</style></defs><path d="M85.04 85.04h341.92v341.92H85.04z" style="fill:#35a8e0" transform="rotate(-45 256 256.002)"/><path d="M256 0 0 256l256 256 256-256Zm0 14.22L497.78 256 256 497.78 14.22 256Z" style="fill:#28397b"/><path d="m313.82 174.82 7.87 4.2q-59.79 97.89-119.63 195.8l-7.88-4.19Q254 272.69 313.82 174.82M247 279.52Q216.2 229.17 185.52 179l8-4.18c.37.61.73 1.15 1.06 1.7q28.6 46.85 57.2 93.68a1.13 1.13 0 0 1 0 1.35c-1.59 2.6-3.15 5.2-4.79 7.95M313 370.63l-7.73 4.17-.58-.86q-24.6-40.21-49.23-80.42a1.2 1.2 0 0 1 0-1.5c1.61-2.51 3.17-5.06 4.86-7.74zM333.78 131.11c6 3.28 11.83 6.46 17.76 9.7l-26.69 38.39-12.8-7 21.73-41.1M182.52 179.57c-8.86-12.69-17.66-25.3-26.57-38l17.67-9.65 21.56 40.77-12.66 6.92M333.62 413.06c-.19-.2-.38-.39-.55-.59-5.4-6.17-10.8-12.32-16.14-18.53a27 27 0 0 1-2.18-3.33c-1.39-2.3-2.81-4.6-4.24-7l7.71-4.16c.15.2.27.35.38.51 1.87 3 3.85 6 5.59 9.06a42 42 0 0 1 2.18 5.26q3.57 9 7.13 18.1a6 6 0 0 1 .23.61l-.11.05M189 379.47l7.85 4.17c-.17.28-.31.55-.48.81-1.65 2.63-3.21 5.3-5 7.89a47 47 0 0 1-3.49 4.37q-6.82 7.88-13.69 15.7a2.15 2.15 0 0 1-.69.59c.06-.19.13-.4.21-.6q4.46-11.17 8.89-22.31a11 11 0 0 1 .67-1.35c1.71-2.83 3.44-5.63 5.17-8.45.15-.26.32-.52.51-.82M355.27 135.62a3.26 3.26 0 0 1-4.91 2.86c-2.92-1.53-5.83-3.13-8.72-4.69l-4.64-2.53a3.11 3.11 0 0 1-1.55-4.18 3.63 3.63 0 0 1 4.82-1.24c3.41 1.86 6.79 3.78 10.17 5.67 1.11.62 2.23 1.23 3.33 1.86a2.74 2.74 0 0 1 1.53 2.25M156 140.18a3.46 3.46 0 0 1-3.08-2.11 2.92 2.92 0 0 1 1.34-3.49c4.56-2.57 9.12-5.14 13.72-7.65a3.46 3.46 0 0 1 4.62 1.37 2.85 2.85 0 0 1-1.36 4q-6.7 3.69-13.44 7.32a9.5 9.5 0 0 1-1.8.58M209.27 384.67a4.73 4.73 0 0 1-6.44 1.85l-20-11.06a4.73 4.73 0 1 1 4.57-8.28l20 11.06a4.72 4.72 0 0 1 1.85 6.43M326 369.47a4.73 4.73 0 0 1-1.93 6.41L304 386.71a4.73 4.73 0 1 1-4.48-8.33l20.1-10.83a4.73 4.73 0 0 1 6.41 1.92" class="cls-3"/></svg>