<svg xmlns="http://www.w3.org/2000/svg" id="Capa_1" data-name="Capa 1" viewBox="0 0 512 512"><defs><style>.cls-3{fill:#fff;fill-rule:evenodd}</style></defs><path d="M85.04 85.04h341.92v341.92H85.04z" style="fill:#ab7cb1" transform="rotate(-45 256 256.002)"/><path d="M256 0 0 256l256 256 256-256Zm0 14.22L497.78 256 256 497.78 14.22 256Z" style="fill:#25204d"/><path d="M296.59 286.45a20.87 20.87 0 1 1 21-21.08 20.84 20.84 0 0 1-21 21.08M202.6 286.46a20.87 20.87 0 1 1 20.85-20.58 20.88 20.88 0 0 1-20.85 20.58M156.06 226.11a10.68 10.68 0 1 1-10.72 10.59 10.54 10.54 0 0 1 10.72-10.59M156.06 180.71a10.7 10.7 0 1 1-10.74 10.62 10.71 10.71 0 0 1 10.74-10.62M130.14 203.39A10.7 10.7 0 1 1 119.37 214a10.71 10.71 0 0 1 10.77-10.63M171.23 214.12a10.69 10.69 0 0 1 21.38-.1 10.69 10.69 0 1 1-21.38.1M333.79 186.8H351c0 2.93-.21 5.78.06 8.59a8.51 8.51 0 0 1-3 7.7c-1.36 1.21-2.62 2.55-4 3.78a2.24 2.24 0 0 1-3.33.06c-2.28-2.28-4.47-4.66-6.65-7a1.4 1.4 0 0 1-.28-.89v-12.22M367.67 221.34h-12.2a1.4 1.4 0 0 1-.9-.3c-2.34-2.2-4.71-4.39-7-6.66a2.18 2.18 0 0 1 .1-3.31c2.25-2.26 4.57-4.41 6.89-6.57a1.7 1.7 0 0 1 1-.33h12.08ZM351 238.72h-17.2c0-3.35.11-6.63-.05-9.89a6.27 6.27 0 0 1 1.9-5.21c1.56-1.5 3-3.15 4.55-4.6s2.54-1.56 4.1-.1c2.22 2.09 4.23 4.42 6.3 6.68a1.62 1.62 0 0 1 .37 1v12.09M317.08 204.15h12a1.64 1.64 0 0 1 1 .31c2.33 2.16 4.67 4.3 6.9 6.53a2.44 2.44 0 0 1-.08 3.75c-2.15 2.11-4.38 4.14-6.6 6.18a1.66 1.66 0 0 1-1 .39h-12.2Z" class="cls-3"/><path d="m394.15 266-4-50.3a68.9 68.9 0 0 0-5.92-21.89c-2.4-5.51-6.46-9.64-11.1-13.26-2.5-2-5.12-3.77-7.62-5.74a4.1 4.1 0 0 1-1.23-1.89c-1.31-4.16-2.4-8.38-3.82-12.5a11.63 11.63 0 0 0-7-7.19c-9-3.39-18.16-5-27.72-2.89a17.66 17.66 0 0 0-9.41 5.89c-5.07 5.61-6.9 12.41-7.71 19.65 0 .43-.11.86-.18 1.28 0 .2-.14.41-.19.58h-118.4c-.55-3-1.1-6.09-1.66-9.16-1.15-6.17-4.71-10.94-9.19-15-3.34-3.07-7.71-3.81-12-4.05a53.9 53.9 0 0 0-21 3.14 13.05 13.05 0 0 0-8.56 8.22c-1.35 3.86-2.32 7.83-3.57 11.72a5.26 5.26 0 0 1-1.57 2.42c-2.64 2.12-5.37 4.14-8.1 6.16-7.11 5.24-10.84 12.6-13.46 20.8-2.26 7-2.83 14.24-3.49 21.49-.86 9.28-1.72 18.57-2.45 27.86-.5 6.45-.76 12.92-1.14 19.38-.06 1-.2 2-.3 3v21c.21 3.33.38 6.66.65 10 .21 2.53.41 5.05.83 7.55 2 11.66 14.27 20.93 24.4 23 12.23 2.5 21.08-2.75 28.41-11.65 5.46-6.63 9-14.42 12.75-22.08a41 41 0 0 1 2.1-4.36c2.12-3.34 4.38-6.59 6.69-10 1.15.94 2 1.63 2.87 2.36 7.69 6.64 16.66 8.33 26.33 6.33a58 58 0 0 0 11.4-4 22.5 22.5 0 0 0 11.15-11.05c.87-1.74 1.69-3.49 2.66-5.18a2 2 0 0 1 1.43-.91q14-.07 28 0a2.22 2.22 0 0 1 1.5 1.05c.93 1.59 1.72 3.24 2.52 4.88 2.81 5.82 7.39 9.71 13.23 12.27 8.86 3.87 17.89 5 27.23 1.76 3.7-1.29 6.65-3.71 9.62-6.13.46-.38.89-.77 1.56-1.34 2.08 2.81 4.42 5.39 6.06 8.35 3.86 7 7.29 14.31 11.11 21.36a45.2 45.2 0 0 0 10.22 12.42c7.12 6.2 15.21 7.92 24.15 5.47 10.35-2.85 18.15-9 22-19.21 1.18-3.16 1.37-6.73 1.76-10.14.35-2.94.31-5.92.46-8.88 0-.53.17-1.05.26-1.58v-21.27c-.18-2.57-.35-5.14-.55-7.71M130 224.78a10.7 10.7 0 1 1 .13-21.39 10.7 10.7 0 1 1-.13 21.39m26.05-44.08a10.71 10.71 0 1 1-10.74 10.62 10.72 10.72 0 0 1 10.74-10.62m-.13 66.76a10.66 10.66 0 0 1-10.59-10.76 10.54 10.54 0 0 1 10.72-10.59 10.68 10.68 0 1 1-.13 21.35m177.87-60.66H351c0 2.93-.2 5.78.06 8.59a8.49 8.49 0 0 1-3 7.7c-1.36 1.21-2.62 2.55-4 3.77a2.24 2.24 0 0 1-3.34.06c-2.27-2.28-4.46-4.65-6.64-7a1.43 1.43 0 0 1-.28-.89v-12.22m-162.58 27.3a10.7 10.7 0 0 1 21.39-.09 10.7 10.7 0 1 1-21.39.09m31.37 72.35a20.87 20.87 0 1 1 20.85-20.58 20.88 20.88 0 0 1-20.85 20.58m94 0a20.87 20.87 0 1 1 21-21.08 20.83 20.83 0 0 1-21 21.08m32.71-65.12h-12.21v-17.2h12a1.58 1.58 0 0 1 1 .32c2.33 2.15 4.67 4.29 6.9 6.53a2.43 2.43 0 0 1-.08 3.75c-2.15 2.1-4.38 4.13-6.6 6.17a1.6 1.6 0 0 1-1 .4M351 238.72h-17.2c0-3.35.11-6.63-.05-9.89a6.27 6.27 0 0 1 1.9-5.21c1.56-1.5 3-3.15 4.55-4.6s2.54-1.56 4.1-.1c2.22 2.09 4.23 4.42 6.29 6.68a1.56 1.56 0 0 1 .37 1v12.1m16.69-17.38h-12.2a1.4 1.4 0 0 1-.9-.3c-2.34-2.2-4.71-4.39-7-6.66a2.18 2.18 0 0 1 .1-3.31c2.25-2.26 4.57-4.41 6.89-6.57a1.7 1.7 0 0 1 1-.33h12.08Z" style="fill-rule:evenodd"/><path d="M207.36 188.37h94.54v41.5h-94.54z" style="fill:#fff"/></svg>