<svg xmlns="http://www.w3.org/2000/svg" viewBox="0 0 512 512"><path fill="#e83876" d="M14.225 256 255.999 14.226 497.773 256 255.999 497.774z"/><path fill="#dd0162" d="M256 0 0 256l256 256 256-256Zm0 14.22L497.78 256 256 497.78 14.22 256Z"/><path fill="#e37709" fill-rule="evenodd" d="M283 171.85c12 3.31 22.9 8.08 31.13 17.57 6.12 7.07 9.26 15.45 10.34 24.66s.08 18.09-1.22 27.08q-1.25 8.28-2.25 16.56a17.7 17.7 0 0 0 0 4.65 9.9 9.9 0 0 0 1.35 3.63 4.3 4.3 0 0 1-5.1 6.58 49 49 0 0 0-8.16-2.16c-4.62-.58-7.52 1.52-9 5.95a28.8 28.8 0 0 0-1.09 11.48c.55 7.65 1.61 15.2 4.6 22.35a22.3 22.3 0 0 0 2.41 4.13 7.44 7.44 0 0 0 8.09 3c1.71-.35 3.36-.93 5-1.39a26 26 0 0 1 3-.8c4-.62 6.86 2.19 6.09 6.12a38.4 38.4 0 0 1-2.1 5.83l-3.29 9a7.3 7.3 0 0 0-.29 2.25c-.08 2.53.41 3.24 2.83 4a4.74 4.74 0 0 1 3.3 3.87 77.3 77.3 0 0 1 1.58 28.67c-1.38 10.16-4.94 19.46-11.53 27.41a55.4 55.4 0 0 1-23 16.19c-10.68 4.18-21.83 5.81-33.21 6.2-3.54.11-7.08.05-10.61.06-.55 0-1.12-.06-1.81-.09l2.9-12q5.84-23.93 11.66-47.86c1.37-5.64-2.66-11.31-8.91-12.1-6.7-.82-13.44-1.42-20.17-1.88a10.32 10.32 0 0 0-10.85 7.86 9.1 9.1 0 0 0-.13 2.39q1.55 30 3.14 59.93a21 21 0 0 0 .05 1.64l-10.53-2c-11.65-2.49-22.88-6.17-33-12.54-12.19-7.65-20.77-18.08-24.33-32.23-2.71-10.8-2.07-21.57.83-32.19 1.2-4.4 3-8.64 4.54-12.94a4.58 4.58 0 0 1 4.3-3.11c1.83-.14 2.69-.72 2.86-2.54a32.3 32.3 0 0 0-.07-7.16c-.39-2.94-1.25-5.81-1.77-8.73a14.5 14.5 0 0 1-.13-4.21 4.81 4.81 0 0 1 6.46-4.06 23 23 0 0 1 3.63 1.84c1.33.75 2.56 1.62 3.91 2.28 3.93 1.95 7 1.3 9.88-2 3.18-3.6 5.16-7.87 6.91-12.26 2.42-6.1 4.66-12.3 5-18.93a25.2 25.2 0 0 0-.56-6.3 6.58 6.58 0 0 0-5.09-5.15 20 20 0 0 0-10.35.11 4.24 4.24 0 0 1-5-2.18c-.91-1.81-.41-3.66 1.1-5.26a7.4 7.4 0 0 0 1.84-3.09 45.5 45.5 0 0 0 1.2-7.52c.44-7.07.61-14.16 1-21.22a76.7 76.7 0 0 1 4.81-23.24c5.52-14 15.82-22.64 30-26.94a78.2 78.2 0 0 1 17.14-3l-1 6.07q-6.28 39-12.61 78.14a13.31 13.31 0 0 0 11.92 15.49l25.5 2.38c7.79.69 14.2-5.06 14.48-13.08l.69-24.91q.67-25.11 1.33-50.25l.26-10.08"/><path d="M315 410.62a61.8 61.8 0 0 1-18.08 10.78c-9.88 3.86-21.09 6-34.24 6.41-2.58.08-5.17.07-7.68.05h-3c-.44 0-.87 0-1.36-.05l-4.35-.24 8.14-33.49q3.66-15 7.31-30a6.34 6.34 0 0 0-1-5.16 7.47 7.47 0 0 0-5.31-3.11c-6.1-.77-12.65-1.38-20-1.87a7.6 7.6 0 0 0-5.46 1.81 6.08 6.08 0 0 0-2.22 5.18q1.23 23.11 2.44 46.25l.73 13.67v1.14l.08 4.41-3.76-.7-3.37-.61-7.22-1.39c-13.87-3-24.68-7.09-34-12.95-13.5-8.46-22.14-19.93-25.7-34.1-2.66-10.61-2.38-22 .84-33.78.95-3.45 2.22-6.8 3.44-10.05.41-1 .79-2.08 1.18-3.12a7.69 7.69 0 0 1 7-5.14 28.3 28.3 0 0 0-.08-6.21c-.2-1.55-.56-3.08-.93-4.72-.28-1.26-.58-2.55-.82-3.88a17.8 17.8 0 0 1-.14-5.13 7.9 7.9 0 0 1 10.48-6.62 20 20 0 0 1 3.48 1.69l.69.4c.58.32 1.16.68 1.71 1a23 23 0 0 0 2 1.18c2.58 1.29 3.94.81 5.28-.36a12 12 0 0 0 .89-.89c2.94-3.32 4.79-7.42 6.35-11.35 2.24-5.64 4.46-11.67 4.81-18a22.6 22.6 0 0 0-.51-5.52c-.19-1-.69-2.13-2.91-2.77a16.86 16.86 0 0 0-8.76.15 7.33 7.33 0 0 1-8.51-3.8c-1.47-2.87-.88-6.17 1.61-8.8a4.5 4.5 0 0 0 1.07-1.67 42.6 42.6 0 0 0 1.12-7l.51-10.28.54-10.93c.61-9.54 2.18-17.27 4.95-24.29 5.68-14.37 16.5-24.09 32-28.77a81.8 81.8 0 0 1 17.89-2.99l3.9-.27-.93 6.06-.61 3.88-5.11 31.62-7.5 46.52a10.26 10.26 0 0 0 2 8 10.1 10.1 0 0 0 7.15 3.92l25.5 2.38a10.08 10.08 0 0 0 7.57-2.38 10.56 10.56 0 0 0 3.5-7.73l.51-17.51.18-7.37 1.71-64.34 3.84 1.06c10.15 2.82 23 7.46 32.64 18.53 6.15 7.12 9.87 16 11.07 26.35 1 9 .26 17.63-1.23 27.88l-2.21 16.48a13.9 13.9 0 0 0 0 3.82 6.6 6.6 0 0 0 .9 2.46 7.46 7.46 0 0 1-.16 8.76 7 7 0 0 1-1 1.1 7.69 7.69 0 0 1-7.5 1.31l-1.25-.39a35.7 35.7 0 0 0-6.36-1.64c-2.3-.3-3.33.34-3.91.85a6.85 6.85 0 0 0-1.77 3 25.55 25.55 0 0 0-.94 10.27c.47 6.55 1.37 14.22 4.37 21.37a19 19 0 0 0 2.09 3.54c1.18 1.69 2.72 2.24 4.94 1.8 1-.21 2.05-.53 3.14-.85.56-.17 1.11-.35 1.68-.49l.8-.25a20 20 0 0 1 2.55-.63 8.56 8.56 0 0 1 7.6 2.33 8.26 8.26 0 0 1 2 7.47 24.7 24.7 0 0 1-1.54 4.61 60 60 0 0 0-.69 1.69l-.87 2.37-2.4 6.58a5.6 5.6 0 0 0-.13 1.31 5.5 5.5 0 0 0 0 .71c.15.05.35.14.64.22a7.79 7.79 0 0 1 5.42 6.12 80.9 80.9 0 0 1 1.63 29.81c-1.54 11.31-5.65 21.05-12.22 29a55 55 0 0 1-6.18 6.32m-60.92 11h.97l7.44-.07c12.62-.42 22.85-2.33 32.19-6a52.46 52.46 0 0 0 21.74-15.28c5.91-7.11 9.45-15.56 10.84-25.85a74.4 74.4 0 0 0-1.52-27.45c-.32-1.35-.78-1.5-1.19-1.63-3.74-1.13-5.16-3.11-5-7.05a10 10 0 0 1 .48-3.15c.77-2.26 1.61-4.49 2.43-6.72l.88-2.35a31 31 0 0 1 .77-1.93 19.5 19.5 0 0 0 1.19-3.42 2.19 2.19 0 0 0-.39-1.95 2.44 2.44 0 0 0-2.17-.51 16 16 0 0 0-1.71.45l-.98.26c-.52.14-1 .3-1.55.45-1.19.36-2.4.74-3.7 1a10.53 10.53 0 0 1-11.25-4.3 25.6 25.6 0 0 1-2.75-4.72c-3.34-8-4.31-16.28-4.82-23.32a32.5 32.5 0 0 1 1.23-12.7c2-6 6.42-8.79 12.35-8a42 42 0 0 1 7.48 1.88l1.22.39c.25.07 1.12.31 1.55-.06a.7.7 0 0 0 .12-.16c.21-.26.53-.68-.14-1.76a13.1 13.1 0 0 1-1.78-4.79 20.6 20.6 0 0 1-.05-5.5l2.24-16.62c1.41-9.77 2.16-18 1.2-26.28-1.07-9.24-4.21-16.76-9.6-23-6-6.94-14.05-11.79-25.78-15.49l-1.47 56.3-.19 7.35-.5 17.59a16.77 16.77 0 0 1-5.65 12.17 16.33 16.33 0 0 1-12.22 3.9l-25.54-2.4a16.41 16.41 0 0 1-14.67-19.08q3.76-23.26 7.5-46.52l5.11-31.63.32-2.11a72 72 0 0 0-12.56 2.5 45.5 45.5 0 0 0-16.92 9 40.9 40.9 0 0 0-11.11 16.08c-2.53 6.41-4 13.53-4.54 22.41l-.54 10.79-.51 10.41a46 46 0 0 1-1.28 8.05 10.2 10.2 0 0 1-2.6 4.51c-.94 1-.7 1.48-.59 1.7.22.42.56.81 1.54.58a22.76 22.76 0 0 1 11.93-.08c4 1.15 6.56 3.82 7.28 7.54a28.7 28.7 0 0 1 .61 7.07c-.4 7.22-2.8 13.8-5.24 19.91-1.76 4.45-3.9 9.13-7.47 13.16-3.9 4.41-8.44 5.27-13.58 2.71-.92-.45-1.75-1-2.56-1.46-.48-.31-1-.61-1.47-.89-.25-.15-.51-.28-.76-.44a14.7 14.7 0 0 0-2.36-1.17 1.75 1.75 0 0 0-2.39 1.49 11 11 0 0 0 .13 3.31c.19 1.16.47 2.32.74 3.54a54 54 0 0 1 1 5.31 34.6 34.6 0 0 1 .09 7.84 5.68 5.68 0 0 1-1.84 3.94 6.44 6.44 0 0 1-3.88 1.42c-.93.07-1.35.33-1.63 1.09l-1.15 3.15c-1.23 3.25-2.39 6.33-3.26 9.49-3 10.92-3.25 20.94-.82 30.61 3.2 12.75 10.71 22.68 23 30.37 8.71 5.46 18.9 9.31 32 12.13 2.18.47 4.35.86 6.62 1.28l-.6-11.39q-1.22-23.15-2.43-46.26a12.09 12.09 0 0 1 4.34-10.18 13.76 13.76 0 0 1 10-3.33c7.45.5 14.09 1.12 20.34 1.89a13.72 13.72 0 0 1 9.64 5.76 12.7 12.7 0 0 1 1.92 10.16l-7.32 30z"/><path fill-rule="evenodd" d="m212.68 336-.81-1.27a4.28 4.28 0 0 0-5.75-1.67 4.21 4.21 0 0 0-1.62 5.76 20 20 0 0 0 2.45 3.45c3.17 3.57 7.61 3.79 10.92.38a15.85 15.85 0 0 0 3.44-5.28c1.87-5.06 3.35-10.29 5.09-15.43 1.22-3.66 2.4-7.34 4-10.87 1.4-3.13 2-2.41 3.89-1.26a4.09 4.09 0 0 0 5.43-1.18 4.21 4.21 0 0 0-.63-5.64 9.67 9.67 0 0 0-13.73.55 13.3 13.3 0 0 0-2.45 3.61c-1.59 3.91-3.09 7.88-4.43 11.9-1.55 4.65-2.89 9.36-4.37 14a31 31 0 0 1-1.39 2.91m71 6.72a40 40 0 0 1-1-4.47l-1.62-15.47a42.5 42.5 0 0 0-2.79-12.52c-2.52-5.78-7.33-7.75-13.21-5.5-2.61 1-3.77 3.21-2.93 5.58s3.14 3.28 5.81 2.35c1.8-.62 2.28-.54 2.76 1.38a94 94 0 0 1 2 10c.5 3.73.6 7.51 1 11.26.46 4.13 1.08 8.25 3.06 12s5.47 5.2 9 3.9a11.8 11.8 0 0 0 5.8-4.77 4.13 4.13 0 0 0-1-5.57 4.31 4.31 0 0 0-5.68.5c-.31.34-.6.69-1.22 1.38M252.74 87.31l-1.3-5.28c-.11-.36-.81-.7-1.26-.75l-13.11-1.25c-3.95-.39-6.56-3.29-6.24-7s3.42-6.1 7.34-5.75l12.27 1.15a1.45 1.45 0 0 0 1.74-.92A21.16 21.16 0 0 1 285.7 61a19.9 19.9 0 0 1 6.13 10.16 1.49 1.49 0 0 0 1.61 1.33l12.83 1.21a6.24 6.24 0 0 1 5.39 4.74 6.37 6.37 0 0 1-2.45 6.76 6.48 6.48 0 0 1-4.7 1.16l-13-1.24c-1.05-.12-1.64.07-2 1.15-.49 1.41-1.17 2.74-1.9 4.41l7.51.59 8.89.84c3.92.4 6.46 3.41 6.07 7.1a6.48 6.48 0 0 1-7.35 5.64l-19.17-1.81c-1-.1-1.49.08-1.79 1a26 26 0 0 1-1.46 3.68c-2.23 4.61-2.29 9.54-2.42 14.51q-1.57 62.43-3.26 124.84l-.27 9.48c-.15 4.78-3.36 7.68-8.15 7.26q-12.27-1.09-24.53-2.29c-4.76-.47-7.4-3.92-6.63-8.66q5.85-36.56 11.76-73.1 5.32-33.21 10.65-66.41a17.3 17.3 0 0 0-.29-4.9c-.33-2.29-.86-4.56-1.2-6.83-.15-1-.57-1.29-1.54-1.37l-19.47-1.8a6.15 6.15 0 0 1-5.45-4.1 6 6 0 0 1 1.23-6.59 6.35 6.35 0 0 1 5.64-2l16.34 1.56m-16.39 336.13-1.26-23.49-2-38c-.1-2.11.57-2.79 2.73-2.62l8.88.82 9.16.88c2.39.25 2.88.93 2.31 3.19q-7.15 29.44-14.32 58.88-.12.46-.27 1l-5.23-.6"/></svg>