<svg xmlns="http://www.w3.org/2000/svg" id="Capa_1" data-name="Capa 1" viewBox="0 0 512 512"><defs><style>.cls-3{fill-rule:evenodd}</style></defs><path d="M85.04 85.04h341.92v341.92H85.04z" style="fill:#dcecf4" transform="rotate(-45 256 256.002)"/><path d="M256 0 0 256l256 256 256-256Zm0 14.22L497.78 256 256 497.78 14.22 256Z" style="fill:#0093c4"/><path d="M264.07 296.75c-.34 1.88-.73 3.71-1 5.56-.7 4.62-1.42 9.24-2 13.89s-1.09 9-1.48 13.55c-.44 5.08-.82 10.16-1 15.25a175 175 0 0 0 .32 21.45c.42 5.36.75 10.73 1.16 16.09s.91 10.72 1.22 16.1c.4 6.93.86 13.87.24 20.8a29 29 0 0 1-1.08 5.7c-1 3.37-3.31 4-5.95 1.66-2.48-2.15-4-5-5.34-7.91a119 119 0 0 1-6.54-17.89 345 345 0 0 1-8.62-38.48c-1.34-7.81-2.6-15.64-3.69-23.49-1-7.43-1.83-14.89-2.62-22.35a293 293 0 0 1-1.75-32.44q.15-27.56.41-55.09a8.33 8.33 0 0 0-2.09-6c-10.79-12.67-20.55-26.06-27.67-41.2a71 71 0 0 1-5.41-16 23.24 23.24 0 0 1 1.82-15.37 119.6 119.6 0 0 1 10.53-17.11 254 254 0 0 1 31.37-35.86c2.77-2.6 5.91-4.83 8.91-7.2a6.2 6.2 0 0 1 1.66-.77c1.29-.44 2 0 1.89 1.42a8.9 8.9 0 0 1-.75 3.11c-2.45 4.78-4.85 9.59-7.53 14.23-6.22 10.77-12.91 21.27-18.19 32.55a67.7 67.7 0 0 0-4.79 13.26 16.24 16.24 0 0 0 1.26 10.93A68.6 68.6 0 0 0 226.3 179c3.37 4.19 7 8.15 10.47 12.29a8.93 8.93 0 0 0 6 2.94c7.4 1.1 14.85.91 22.29.87 4.69 0 9.4-.08 14.09-.25a59 59 0 0 0 6.34-.7 8.52 8.52 0 0 0 4.72-2.67 93.5 93.5 0 0 0 18.79-25.2c3.41-6.8 3.28-13.63.75-20.62a88 88 0 0 0-12.59-22.48c-5.45-7.36-11.18-14.53-16.73-21.83-1.54-2-2.86-4.23-4.27-6.37a5.5 5.5 0 0 1-.56-1.17c-.88-2.28.09-3.56 2.55-3.33a19.7 19.7 0 0 1 8 3.08c9.19 5.39 17 12.45 24.28 20.14a116.6 116.6 0 0 1 15.63 20.3c3.84 6.44 6.91 13.2 8.22 20.66a32.3 32.3 0 0 1-1.48 16.19 98.5 98.5 0 0 1-10.37 20.85 249.6 249.6 0 0 1-23.6 31.3 4.3 4.3 0 0 1-.68.84c-1.55 1.12-1.64 2.71-1.51 4.42 1 13.53.74 27.09.69 40.64a1.91 1.91 0 0 0 .83 1.72 354 354 0 0 1 30 25.39c4.74 4.57 9.35 9.26 13 14.77a14.5 14.5 0 0 1 2.76 6.5 4.25 4.25 0 0 1-1.9 4.09 138.3 138.3 0 0 1-32.77 18.24 131.3 131.3 0 0 1-24.73 7.5c-4.4.84-8.83 1.59-13.32 1a12 12 0 0 1-3.67-1.15 2.19 2.19 0 0 1-.83-3.55 23.7 23.7 0 0 1 4.7-4.42c4.8-3.13 9.79-6 14.61-9.05 5-3.19 9.87-6.5 14.76-9.83a32 32 0 0 0 2.84-2.51 1.48 1.48 0 0 0 .16-2.29 13.3 13.3 0 0 0-2.05-1.92 61.7 61.7 0 0 0-12.72-6.85c-8-3.28-16.05-6.38-24.07-9.55-.23-.09-.47-.13-.85-.24" class="cls-3"/><path d="M264.12 177.54a23.86 23.86 0 1 1 23.81-23.76 23.9 23.9 0 0 1-23.81 23.76" class="cls-3"/></svg>