<svg id="Capa_1" data-name="Capa 1" xmlns="http://www.w3.org/2000/svg" viewBox="0 0 512 512"><defs><style>.cls-1{fill:#35a8e0;}.cls-2{fill:#28397b;}.cls-3{fill:#fff;}</style></defs><rect class="cls-1" x="85.04" y="85.04" width="341.92" height="341.92" transform="translate(-106.04 256) rotate(-45)"/><path class="cls-2" d="M256,0,0,256,256,512,512,256Zm0,14.22L497.78,256,256,497.78,14.22,256Z"/><path d="M135.85,235.3c.61-4,1.12-8,1.85-12a104.41,104.41,0,0,1,26.81-53.16c15.67-16.87,34.82-28.08,57.46-32.1,42.24-7.5,77.5,5.43,105,38.41a98.88,98.88,0,0,1,22.09,50.38c4.5,32.09-3.48,60.89-24.45,85.73a103.13,103.13,0,0,1-62.14,36c-29.14,5.21-56.25-.47-80.62-17.44C158.48,314.83,144,292.45,138,264.6c-.82-3.8-1.11-7.71-1.67-11.56-.1-.76-.3-1.51-.45-2.26Zm205.85,7.87c.11-54.23-43.92-98.3-98.47-98.54-54.36-.24-98.53,43.79-98.74,98.44-.21,54.13,43.94,98.63,98.39,98.62C297.48,341.69,341.27,298,341.7,243.17Z"/><path d="M361,376c-4-1.29-6.82-4.13-9.68-7q-16.84-17-33.83-33.82a10.18,10.18,0,0,0-2.26-1.3l1.48.1,17.21-17.17-.75-.94c.41.33.85.62,1.22,1q18.83,18.81,37.64,37.64c4.91,4.93,5.57,12.11,1.19,16.88-1.85,2-4.68,3.12-7.06,4.64Z"/><path d="M152.9,243.12c0-49.74,40.57-90.19,90.23-90.05,49.82.14,90.26,40.62,90.11,90.22a90.35,90.35,0,0,1-90.37,90C193.3,333.16,152.87,292.65,152.9,243.12Zm90.67,72.95c1.78-.14,4.2-.29,6.61-.53,10.86-1.08,20.88-4.5,29.58-11.19s14.24-15,14.71-26.25a5.07,5.07,0,0,1,.93-2.06c2-3.37,3.88-6.76,6-10.05a4.63,4.63,0,0,1,2.5-2c11.56-2.36,20.38-12.63,20.57-24.12.21-12.72-7.9-23.45-19.91-26a4.45,4.45,0,0,1-3.54-2.77,63.84,63.84,0,0,0-70.58-35.24c-20.77,4.33-35.93,16.32-45.38,35.39-.59,1.2-1.05,2.2-2.71,2.49a25.56,25.56,0,0,0-20.68,24.69c-.08,12.37,8.49,23.14,20.35,25.45a3.82,3.82,0,0,1,3,2.2c1.81,3.36,3.85,6.6,5.75,9.9a5.56,5.56,0,0,1,.92,2.31c.5,9.43,4.64,17.08,11.5,23.31C214.39,311.84,228.06,315.61,243.57,316.07Z"/><path class="cls-3" d="M243.32,216.37c9.91-2.07,17.8-.5,23.37,3.35,6.3,4.36,9.22,15.73,3.83,25.06-.17.29-14.11-6.73-28.15-5.9-11.3.68-26.77,5.9-26.77,5.9a19,19,0,0,1-2.48-9.68c0-9.63,3.13-15.65,10.4-17.84C230.18,215.25,240.42,217,243.32,216.37Z"/><path d="M292.24,265.17,285,254.84c1.49-4.39,3.4-8.69,4.4-13.19,3.19-14.23-3.24-30.14-15-37.18-10-6-20-5.54-29.77.8-.92.6-1.53,1.21-2.82.34-13.65-9.2-30.11-6.13-39.33,7.68-8.5,12.73-8.77,26.12-1.81,39.7.28.54.57,1.08.7,1.35l-7.53,10.87c-.88-1.91-1.88-3.83-2.67-5.83a5.17,5.17,0,0,0-5.05-3.45,17.12,17.12,0,0,1,.13-34.21c2.61-.11,4-1.39,5-3.76,7.56-17.83,20.81-29.22,39.64-33.59a55.4,55.4,0,0,1,63.41,32.7c1.32,3.15,3.05,4.58,6.57,4.74,8.42.39,15.49,8.49,15.41,17.15-.09,8.87-7.27,16.61-15.88,16.94-2.93.11-4.83,1.23-5.81,4.07A53.5,53.5,0,0,1,292.24,265.17Z"/><path d="M241.84,247.37c13.35.14,24.6,3,34.13,10.82,6.23,5.12,10.22,11.54,10,20-.21,7.26-3.72,12.92-8.93,17.64-7.2,6.5-15.91,9.75-25.33,11.1-11.28,1.62-22.31.4-32.62-4.65A45.14,45.14,0,0,1,209,295.56c-12.1-10.75-11.72-26.51.66-37,7.12-6,15.47-9.21,24.59-10.57C237.14,247.59,240.12,247.51,241.84,247.37Zm5.47,38.43c0-5,.08-9.73,0-14.47-.05-2,.15-3.31,2.56-3.42a9.58,9.58,0,0,0,3.31-1.1,4.18,4.18,0,0,0-2.85-7.85,20.91,20.91,0,0,1-14.42,0,4.17,4.17,0,0,0-2.9,7.82,13.85,13.85,0,0,0,4,1.27c1.7.18,2,1,2,2.47-.07,4.46,0,8.91,0,13.36a18.9,18.9,0,0,1-.22,2c-1.64-.24-3.1-.39-4.54-.67a32.84,32.84,0,0,1-13.85-6.49c-2.3-1.78-4.59-1.53-6.19.5s-1.18,4.32,1.06,6.13a49.58,49.58,0,0,0,4.19,3c8.53,5.45,18,6.69,27.85,6.15a40.54,40.54,0,0,0,24-9.31,5.37,5.37,0,0,0,1.67-2.67,3.76,3.76,0,0,0-1.9-4.39c-1.87-1.1-3.57-.63-5.19.66A32.19,32.19,0,0,1,247.31,285.8Z"/><path d="M208.28,249a27.24,27.24,0,0,1-3.87-15c.27-8,2.85-15,9-20.37a18.59,18.59,0,0,1,25.52.41c3.38,3.11,4.93,3.1,8.33,0a18.6,18.6,0,0,1,24.62-1.09c10.17,7.86,13.08,25.31,5.89,36l-7.25-4.14a22.36,22.36,0,0,0,2.35-12.57A18.78,18.78,0,0,0,269,222.07c-4.74-6.08-12.61-6.15-17.48-.16-3.46,4.24-4.69,9.7-3.77,17a60.35,60.35,0,0,0-9,.35c-.23-3.31-.11-6.95-.73-10.1-1.38-6.94-6.58-11.7-12.21-11.66s-10.53,4.8-12.07,11.61a22.57,22.57,0,0,0,1.85,15.7Z"/><path d="M230,233.2a20.56,20.56,0,0,1,.08,3.47c-.44,3.27-.95,3.84-4,4.58-2.48.61-2.72-.16-3-.54-2.18-3.25-1.92-9.92.46-13.1,1.68-2.23,3.36-2.32,4.71.14A12.27,12.27,0,0,1,230,233.2Z"/><path d="M255.82,232.54a21.74,21.74,0,0,0-.08,3.47c.45,3.26,1,3.83,4,4.58,2.48.6,2.73-.16,3-.54,2.19-3.25,1.93-9.92-.46-13.1-1.67-2.23-3.36-2.32-4.71.14A12.4,12.4,0,0,0,255.82,232.54Z"/></svg>