<svg id="Capa_1" data-name="Capa 1" xmlns="http://www.w3.org/2000/svg" viewBox="0 0 512 512"><defs><style>.cls-1{fill:#5d6ea4;}.cls-2{fill:#828bb8;}.cls-3{fill:#868eba;}.cls-4{fill:#523258;}.cls-5{fill:#99a1cb;}.cls-6{fill:#fbfbfc;}.cls-7{fill:#fbfafc;}.cls-8{fill:#fafafb;}.cls-9{fill:#faf9fb;}.cls-10{fill:#f6f5f8;}.cls-11{fill:#f7f7f9;}.cls-12{fill:#f3f2f6;}.cls-13{fill:#fff;}.cls-14{fill:#9aa1cb;}.cls-15{fill:#54355a;}.cls-16{fill:#55365b;}.cls-17{fill:#56375c;}.cls-18{fill:#fefeff;}.cls-19{fill:#fdfdfe;}</style></defs><path class="cls-1" d="M276,.08c4.88,2.05,10.16,1.65,15.25,2.35,109.1,15,197.06,99.35,216.53,207.76,1.43,8,2.46,16,3.25,24,.07.8-.19,1.76.87,2.17v6a6.5,6.5,0,0,0,0,5.12v17.06a6.5,6.5,0,0,0,0,5.12v6.82c-2.14,4.58-1.69,9.61-2.35,14.41-15,109.37-99.09,197.32-207.41,216.91-8,1.44-16,2.46-24,3.25-.8.08-1.75-.18-2.16.88H236c-4.57-2.14-9.59-1.7-14.4-2.35C112.65,494.65,23.71,410,5.27,302-9.73,214,14.6,137.54,77.08,74.14c39.68-40.27,88.43-63.74,144.5-71.71,5.09-.72,10.38-.3,15.26-2.35h6a8.75,8.75,0,0,0,6,0h15.32a8.75,8.75,0,0,0,6,0Z"/><path class="cls-2" d="M248.77.08a4.89,4.89,0,0,1-6,0Z"/><path class="cls-2" d="M270.06.08a4.89,4.89,0,0,1-6,0Z"/><path class="cls-3" d="M511.92,247.47a3.83,3.83,0,0,1,0-5.12Z"/><path class="cls-3" d="M511.92,269.65a3.83,3.83,0,0,1,0-5.12Z"/><path class="cls-4" d="M503.34,256.12c-.63,137-110.47,247.27-247.25,247.08S9.57,392.7,9.64,255.87C9.71,118.84,120,8.6,256.77,8.79S502.86,119.33,503.34,256.12Z"/><path class="cls-5" d="M320.36,454.78c-10.32,2.39-20.48,5.43-31,7-49.81,7.47-96.71-.89-139.79-27.07-52.19-31.71-85.38-77.89-97-137.88-12.91-66.61,3.07-126.63,47.55-178.15,33.29-38.55,75.7-62,126.06-68.76C298,40.27,359.6,62.07,409.4,114.9c30.05,31.87,47.44,70.23,53.26,113.79C475.4,324,420.84,416.13,331.27,450.52c-1.06.4-2.16.67-3.24,1-2-.46-2.93,1.14-4.2,2.09C322.8,454.37,322,455.91,320.36,454.78Z"/><path class="cls-6" d="M317,489c.06,1,.17,1.87-.66,2.12s-1.28-.51-1.45-1.17c-2.18-8.21-4.35-16.42-6.45-24.65-.55-2.15,1.41-2.16,2.62-2.54,4.84-1.5,9.92-2.2,14.57-4.33,1.61-.74,2,.21,2.37,1.37,2.54,7.66,5.09,15.31,7.58,23,.27.84.91,2.12-.49,2.5s-1.49-1.08-1.77-1.91c-2.11-6.31-4.25-12.61-6.16-19-.78-2.59-1.88-3.44-4.5-2.34a45.61,45.61,0,0,1-5.73,1.55c-6,1.64-6,1.65-4.42,7.82,1.4,5.43,1.4,5.43,6.86,4.18,1.07-.25,2.67-1,3.05.25.55,1.77-1.34,1.68-2.49,2-5.36,1.64-5.35,1.64-3.9,7.34C316.38,486.57,316.73,487.94,317,489Z"/><path class="cls-7" d="M270.82,469.31a23.29,23.29,0,0,1,10.2,2c7.59,3.61,9.28,12.62,3.58,18.81-3.78,4.09-8.82,6-13.86,7.94-1.77.67-2.63-.06-2.79-1.91-.69-8.05-1.53-16.09-2.07-24.15C265.59,467.66,269.31,470.12,270.82,469.31Z"/><path class="cls-8" d="M212.11,494.27c-2.64.74-3.18-.52-2.66-3.43,1.3-7.4,2.47-14.83,3.4-22.28.32-2.61,1.44-3.09,3.61-2.56,4.42,1.07,8.79,2.28,12.2,5.56a11.42,11.42,0,0,1-1.25,18.05C223,492.78,217.82,493.62,212.11,494.27Z"/><path class="cls-8" d="M163,479.8c-1.66-.71-.83-1.76-.4-2.78,2.61-6.13,4.94-12.4,7.91-18.34,1.86-3.72-.63-4.14-2.78-5.46-3.06-1.89-3.23.87-4,2.35-2.95,5.82-5.74,11.71-8.66,17.54-.5,1-.71,3-2.46,2.05-1.4-.75-.09-2,.34-2.93,2.81-5.88,5.6-11.78,8.64-17.53,1.42-2.67,1.58-4.42-1.78-5.28a6.68,6.68,0,0,1-1.89-.94c-.88-.56-2.57-.85-1.75-2.33s2-.18,2.93.23c4.75,2.18,9.43,4.52,14.21,6.64,1.59.71,1.72,1.51,1.08,3-3.16,7.11-6.25,14.26-9.43,21.37C164.56,478.28,164.51,479.66,163,479.8Z"/><path class="cls-6" d="M247,469.56c1.41,0,1.63.87,1.92,1.64q4.76,12.71,9.5,25.39c.33.87.58,1.72-.4,2.17s-1.4-.49-1.73-1.26a3.24,3.24,0,0,1-.34-.77c-.86-7.65-5.94-8.52-12.28-8.13-2.59.16-4,.68-5.2,3.09-1.08,2.25-2.6,6.95-3.9,5.95-2.38-1.83,1-4.73,2-7.08,2.72-6.2,5.8-12.25,8.77-18.35A26.47,26.47,0,0,1,247,469.56Z"/><path class="cls-6" d="M115.12,418c2.06,0,1.78,1.24,1.43,2.33-2.72,8.61-5.49,17.22-8.24,25.83-.26.8-.56,1.78-1.63,1.48s-1-1.24-.65-2.1a4.19,4.19,0,0,1,.31-.79c3.61-6.25.79-10.22-4.39-13.87-2.25-1.58-3.84-2.43-6.31-.84a38.61,38.61,0,0,1-5.34,2.57c-.66.29-1.51.33-1.85-.42s.31-1.3.94-1.66,1.25-.65,1.89-1l21.27-10.45C113.43,418.66,114.36,418.3,115.12,418Z"/><path class="cls-6" d="M414.92,427.66c-2.94,2.5-6.06,4.93-8.9,7.65-1.71,1.63.33,3.42.42,5.16.11,2.18,3,5.23.53,6.16-2,.73-2-3.37-2.65-5.33-2.35-6.95-4.44-14-6.57-21-.29-1-1.4-2.1-.1-3.06,1-.71,1.86.07,2.72.49L423.12,429c1,.49,2.56,1,1.89,2.28s-2,.26-2.93-.2Z"/><path class="cls-8" d="M133.15,434.41c4.31.33,8.79,1.42,12.42,4.78a10.75,10.75,0,0,1,3.39,5.29c.21.89.55,2.17-.86,2.43-1.12.21-1.14-.88-1.47-1.65-3.75-8.91-16.17-11.36-22.55-4.48-4.13,4.45-4.42,9.93-.52,14.61,3.18,3.83,7.09,6.52,12.38,6.35.82,0,1.9-.31,2.07.85.19,1.38-1,1.44-2,1.6-6.88,1.15-16.75-7-17.53-14.42C117.68,442,124.6,434.54,133.15,434.41Z"/><path class="cls-8" d="M383.55,433.87c-6.44.45-10.14,3.54-12.76,8.05a11.84,11.84,0,0,0,.32,12.9,10,10,0,0,0,11.32,4.77c5.11-1.3,9.47-3.79,11.77-8.9.32-.73.41-1.92,1.56-1.47s.83,1.55.55,2.56c-1.84,6.7-13.14,12.13-20.47,9.82-7-2.21-11-11.27-8.14-18.55a18.51,18.51,0,0,1,9.61-10.34,9.77,9.77,0,0,1,4.94-1.06c1.34.12,3.45-.26,3.4,1.58S383.68,433.84,383.55,433.87Z"/><path class="cls-9" d="M184.1,482.56c2.64-3.12,4.81-5.66,7-8.22s4.46-5.53,6.87-8.13c1-1.13,2-3.91,3.64-2.63,1.77,1.41-.81,2.83-1.73,4-3.74,4.65-7.63,9.17-11.47,13.74l-3.84,4.55c-.55.65-1.08,1.48-2.07,1.18s-.89-1.32-.92-2.15c-.32-8.52-.65-17-.93-25.56,0-.9-.48-2.34.8-2.48,1.6-.17,1.46,1.42,1.51,2.48.31,6.53.55,13.06.84,19.59C183.8,479.85,183.93,480.78,184.1,482.56Z"/><path class="cls-9" d="M344.25,451.34a4.27,4.27,0,0,1,3.47,1.33,1.85,1.85,0,0,1,.48,2.31c-.65,1-1.29.38-2.06-.16-3.31-2.37-5.92-.39-8.08,1.84-1.74,1.79-.66,3.52,1.41,4.26,2.65.94,5.45,1.46,8.11,2.38,4.58,1.57,7.27,5,7.25,9,0,3.63-3.29,7.55-7.49,8.88-.87.27-2,1.05-2.57-.3s.85-1.61,1.67-2c3.27-1.43,6.4-3.24,5.86-7.33-.58-4.28-4.08-5.77-7.9-6.59a41.89,41.89,0,0,1-5.29-1.48c-2.25-.8-4.12-2.12-4.22-4.77s1.26-4.28,3.36-5.51A12,12,0,0,1,344.25,451.34Z"/><path class="cls-10" d="M206.15,466.21c-2,7.73-4,15.64-6,23.56-.22.85-.5,1.8-1.55,1.6-1.47-.28-1-1.51-.75-2.39q2.88-11.69,5.86-23.35c.23-.9.36-2.26,1.63-2.05S206.19,465.09,206.15,466.21Z"/><path class="cls-11" d="M354.61,446.27a9.51,9.51,0,0,1,1.11,1.51q5.44,11,10.85,22c.46.92,1,1.95-.33,2.45-1,.37-1.39-.64-1.75-1.39q-5.46-11-10.88-22C353.14,447.92,352.45,446.73,354.61,446.27Z"/><path class="cls-12" d="M320.36,454.78c2.39-.53,3.3-2.9,5.14-4.16,1.46-1,2.26-1,2.53.9a53.94,53.94,0,0,1-4.64,4.32C322.2,456.73,320.47,457.71,320.36,454.78Z"/><path class="cls-13" d="M172.93,174.09c-2.63-7-3.26-14.48-5.57-21.84-1.53,1.22-1.6,2.87-2.06,4.26q-19.32,57.94-38.48,116c-1.29,3.93-3.11,5.27-7.18,5-6.08-.37-12.2-.21-18.3,0a4.7,4.7,0,0,1-4.94-3c-9-18.08-15.32-36.84-16.45-57.24-1.49-26.68,4.48-51.09,21.54-72,14.94-18.3,34.25-28.83,58-30.93,24.45-2.16,45.35,6.48,64.27,20.94,10.81,8.26,21.25,17,31.68,25.78,2.42,2,3.32,1.49,5.24-.62,14.92-16.42,31.53-30.6,52.24-39.42,37.67-16,79.3-3,102.82,29.45,13.61,18.81,18.7,39.92,17.24,63.07a170,170,0,0,1-12.42,53.17c-1.4,3.46-3.15,4.86-7.17,4.84-37.75-.2-75.51-.05-113.26-.21-4.19,0-5.32,1.42-5.5,5.3-.23,5.08-1.11,10.14-1.68,15.21-.1.94-.41,1.63-1.45,1.78-4.19-5.3-6.89-11.43-9.69-17.5-2.59-12.76-5.7-25.4-8.54-38.09-.65-2.88-1.7-5.71-1.32-8.75,2.68-2.82,5.35-3.28,9.44-1.05,7.59,4.15,15.24,8.19,22.79,12.41,4.7,2.64,9.55,5,14.38,7.38a18.73,18.73,0,0,0,7,1.77c5.57.39,8-2.93,5.87-8a19.93,19.93,0,0,0-5.66-7.89c-12.27-10.09-24.84-19.8-37.56-29.33a14.19,14.19,0,0,0-12.1-2.38q-19.56,4.2-39.08,8.5A29.85,29.85,0,0,0,225.14,216a128.36,128.36,0,0,1-13.8,9.21,20.25,20.25,0,0,0-8.73,9.55c-2.56,5.69-4.92,11.48-7.66,17.09-.78,1.6-1.26,3.56-3.36,4.13-3.82-12.8-6.15-25.95-9.17-38.94-.6-2.58-2.44-5.13-1-8,1.82-.77,3.29.42,4.86.9,11.41,3.56,22.62-.46,28.45-10.27s3.7-22.23-5-30.27c-8.09-7.47-22.68-7.44-30.88,0C177,171.07,175.62,173.45,172.93,174.09Z"/><path class="cls-4" d="M191.59,256c3.43-7.44,7-14.84,10.24-22.35a17.31,17.31,0,0,1,6.76-7.91c6.08-3.9,12.09-7.91,18-12.1s13-4.52,19.7-6.14c9.89-2.4,19.89-4.34,29.85-6.48,4.32-.93,8.5-.76,12.13,2.07Q307,217.7,325.73,232.44a22.4,22.4,0,0,1,6.68,8.16c1.24,2.71,1.69,5.42,0,8.1s-4.51,2.56-7.24,2.24a30,30,0,0,1-10.73-3.8c-11-5.87-22-11.7-32.89-17.7-3-1.65-5.8-2.09-8.88-.67a7.25,7.25,0,0,1-3.3,1.64c-3.83,1-7.7,1.75-11.58,2.4-2.8.47-2.81,1.44-1.3,3.49,2.08,2.85,3.93,5.85,5.9,8.78,5.28,8.35,11,16.38,16.59,24.53a34.94,34.94,0,0,1,3.86,7c2.89,5.65,6.76,10.79,8.72,16.93,1.44,11.78,8.46,20.76,15,30,3.44,1.66,4.91,5.07,6.68,8,2.93,4.93,6.91,6.8,12.63,6.91,13.74.28,27.42,1.74,41.14,2.55a3.69,3.69,0,0,1,2.67,1.14c3.18,1.15,6.67.95,9.77,2.55,4.75,2.46,6.83,5.55,6.6,10.34s-3.37,7.17-7.47,8.7c-6.87,2.58-14.16,2.24-21.29,3-4.63.5-9.29.68-13.93,1-2.41,1.55-5.2,1.33-7.84,1.54-9.31.75-18.62,1.72-28,1.38a12.21,12.21,0,0,1-4.16-.67c-4.46-1.83-7.73-5.09-10.54-8.89-4.55-6.13-8.68-12.55-13.23-18.68-2.47-3.62-5.16-7.11-7.57-10.78-1.21-1.85-2.2-2.45-4.34-.95-9.15,6.43-18.61,12.41-27.79,18.82-3.06,2.14-3.43,4.24-2.05,7.53q9.8,23.32,19.05,46.88c2.32,5.94,4.59,11.93,4,18.54-.48,5.19-2,7.34-6,8.48-6.46,1.72-10.76-1.79-14.75-6.09-2-2.17-3.1-5.1-5.57-6.9-4.17-5-6.7-11.06-9.68-16.76-5.36-10.24-10.61-20.55-16-30.79-2.36-5.48-5.76-10.42-8.27-15.83-4.15-8.95-2.12-17.09,6-22.79,5.56-3.91,11.07-7.92,16.81-11.56,5.33-3.74,10.62-7.54,16.15-11,2.95-1.83,3.26-3.86,1.57-6.7-2.76-4.62-5.66-9.15-8.52-13.7q-6.07-10.07-12.49-19.89c-.78-.91-.79-2.77-2.43-2.55-1.24.16-1.41,1.63-1.83,2.65-2.57,6.29-5.45,12.44-8.55,18.49a18.63,18.63,0,0,1-7.69,8.24,13.87,13.87,0,0,1-8.2,1.27c-6.13-1-12.29-.69-18.45-.63-7.8.41-15.56-.37-23.3-1-3.73-.32-7.71-.71-10-4.54-5.36-5.52-3.27-11.2,5.25-14.24,1.4-1.82,3.55-1.63,5.44-1.83,7.86-.85,15.77-1.16,23.63-2a4.07,4.07,0,0,1,3.18.92c4.9.56,8.16-1.06,9.67-6.2C188,263.58,190,259.84,191.59,256Z"/><path class="cls-13" d="M209.66,370.24c6.53,11,11.89,22.62,17.83,33.94,2.4,4.57,5.53,8.79,7,13.83-3.13-.45-5.14-2.84-7.54-4.48-27.7-18.91-53.74-39.83-76.91-64.17A331.26,331.26,0,0,1,110,298.23c-.52-.81-1.31-1.53-1-3.11,7.1,0,14.27-.11,21.44.05,3.87.08,7.57.26,9.25-4.24,5.16,3.19,10.92,3.65,16.77,3.83,5.52.17,11.05.42,16.58.64a14.69,14.69,0,0,0,5.9.22c3.47-.4,4.85,1.33,5.6,4.36,1,4,1.85,8,2.77,12L204,385.27C206.2,380.52,205.74,374.57,209.66,370.24Z"/><path class="cls-13" d="M369.64,342.19c-16.12-.9-32.24-1.76-48.35-2.74a8.66,8.66,0,0,1-6.79-3.9c-2.7-4-5.32-8-8-12,1.23-10.4,2.49-20.79,3.69-31.19.3-2.65,1.32-3.84,4.3-3.83q45.47.17,90.93,0c4.19,0,3.18,1.44,1.73,3.83-10.26,16.89-22.49,32.29-35.39,47.19C371,340.41,370.35,341.31,369.64,342.19Z"/><path class="cls-13" d="M254.84,431c6.19-3.39,5.45-9.17,4.63-14.62-1.21-7.9-4.73-15.11-7.69-22.46q-7.68-19.11-15.61-38.13c-1-2.5-1.26-4.28,1.46-6.07,10.07-6.6,20-13.38,29.93-20.23,2.28-1.58,3.48-1.27,4.91,1,2.48,4,5.24,7.73,7.88,11.59,2.71,4.65,3.22,10,4.43,15,3.51,14.78,6.6,29.65,10.22,44.4,1.15,4.66.2,7.89-4.08,10.36-3.05,1.76-5.64,4.3-9.16,5.24q-9.57,6.06-19.15,12.1C260.24,430.73,257.78,432,254.84,431Z"/><path class="cls-4" d="M172.93,174.09c10.48-15.37,29.29-13.57,38.21-5a25.51,25.51,0,0,1,3.54,32.68c-7.34,10.66-20.69,13.58-33.3,7.3C169.14,200.45,166.22,188.42,172.93,174.09Z"/><path class="cls-13" d="M177.18,273.77l-32.25,2.92c-1.31-.87-.71-1.93-.35-3q9.28-27.87,18.54-55.73a12.54,12.54,0,0,1,1.16-1.91Z"/><path class="cls-13" d="M302.3,368.56c6.26,2.32,12.64.79,19,.55,7.36-.29,14.71-.86,22.06-1.31-7,8.1-15.64,14.33-23.77,21.13-6.4,5.36-13.13,10.32-19.71,15.45-.64,1.23-1.64,2.27-3,1.81s-1.44-2.05-1.28-3.31c1.3-10.7,2.41-21.42,4.11-32.06C299.88,369.5,300.14,367.79,302.3,368.56Z"/><path class="cls-14" d="M302.3,368.56c-2.89,1.05-1.53,3.68-1.8,5.51-1.49,10.07-2.69,20.18-4,30.29a5,5,0,0,0,.18,1.18c1.35.3,2.07-.91,3.13-1.16,0,3.46,1,7.54-4.8,7.05a.86.86,0,0,0-.69.42c-2.08,6.83-7.71,5.16-12.59,5.29,3.3-2.41,6.51-5,9.94-7.19,2.47-1.59,3.27-3.1,2.54-6.24-4.79-20.5-9.29-41.07-13.89-61.61,4.36,6.07,8.76,12.12,13,18.23A26,26,0,0,0,302.3,368.56Z"/><path class="cls-4" d="M268.34,474.44c-.59-2.21.57-2.74,3-2.73,7.42,0,12.81,3,14,8,1.21,5.17-1.57,9.53-8.43,13.2-6.27,3.36-6.3,3.37-7.08-3.75C269.25,484.39,268.84,479.59,268.34,474.44Z"/><path class="cls-4" d="M214,491.62c-1.72.49-2.2-.3-1.94-2q1.47-9.66,2.87-19.35c.24-1.64,1.08-2.2,2.64-1.6a3.17,3.17,0,0,0,.4.14c8,1.8,12.6,6.46,12,12.09C229.36,486.72,222.35,491.44,214,491.62Z"/><path class="cls-15" d="M247.43,474c1.42,3.72,2.67,6.94,3.89,10.18a19.73,19.73,0,0,1,.52,2.16c-3.42-.13-7.85,1.33-9.43-.8-1.46-2,2-5.36,3.13-8.21A27.39,27.39,0,0,1,247.43,474Z"/><path class="cls-16" d="M113.7,421.21l-4,12.8c-3.1-1.64-5.25-4.22-8.4-6.67C105.46,425.28,109.15,423.46,113.7,421.21Z"/><path class="cls-17" d="M404.19,433.21l-4-12.85,12.17,5.92A46.65,46.65,0,0,1,404.19,433.21Z"/><path class="cls-14" d="M269.06,229.68a5.9,5.9,0,0,1,3.57-.91q4.88,22,9.74,44.1c.26,1.22.29,2.5.43,3.75-7.54-10-14.34-20.48-21.13-31C263,239.78,264.9,234.21,269.06,229.68Z"/><path class="cls-14" d="M209.66,370.24l-5.31,18.28-.73.07q-2.55-11-5.09-22c-5.13-22.45-10.28-44.9-15.31-67.37-.59-2.63-1.83-3.44-4.38-3.31-1.93.09-4,.51-5.82-.53,6.07-.26,12.14-.52,18.16.55,3.2.57,6.16-.27,9.06-1.48,3.5,7.31,4,15.29,5.7,21.45,3.32-12.95,7.74-27.43,11.84-42,.56-2,.65-4.3,3-5.3,4.67,6.3,8.58,13.09,12.6,19.81-.92,8.78-4.41,16.89-6.52,25.36-.61,2.45-1.16,5-2.79,7q-8.31,5.82-16.63,11.66c-8.1,5.69-10.05,13.41-5.6,22.25Q205.74,362.5,209.66,370.24Z"/><path class="cls-13" d="M220.78,268.63q-6,20.6-12.05,41.17a39.88,39.88,0,0,1-3.36,8.72l-5.13-24c3.39-2.08,5.46-5.21,7-8.77q4.11-9.29,8.33-18.52c.51-1.12.57-2.95,1.92-3.05,1.62-.12,1.83,1.87,2.61,3A7.19,7.19,0,0,1,220.78,268.63Z"/><path class="cls-18" d="M224.07,320.83a303.78,303.78,0,0,1,9.31-32.39q4.77,7.74,9.55,15.46c1.2,1.94,1.3,3.47-1,4.93C235.93,312.72,230,316.81,224.07,320.83Z"/><path class="cls-19" d="M269.06,229.68q-3.69,8-7.39,15.95c-2.4-3.44-4.73-6.95-7.24-10.32-1.29-1.73-1.22-2.67,1-3.08C260,231.4,264.53,230.53,269.06,229.68Z"/></svg>