<svg id="Capa_1" data-name="Capa 1" xmlns="http://www.w3.org/2000/svg" viewBox="0 0 512 512"><defs><style>.cls-1{fill:#5e6fa4;}.cls-2{fill:#523358;}.cls-3{fill:#99a0cb;}.cls-4{fill:#eceaf0;}.cls-5{fill:#f6f6f9;}.cls-6{fill:none;}</style></defs><path class="cls-1" d="M275.42,0c3.19,1.87,6.85,1.12,10.23,1.5A245.34,245.34,0,0,1,388.56,37C450.75,75.66,489.93,131,506.3,202.32A238.28,238.28,0,0,1,511.37,272c-3.78,55.42-23.29,104.84-59,147.55-36.75,43.94-83.23,72.32-138.86,85.76a240.39,240.39,0,0,1-74.27,6c-66.79-4.88-123.69-31.59-169.78-80.22C35.13,394.89,13.32,352,4.18,302.78A189.75,189.75,0,0,1,.85,278c0-.7,0-1.43-.84-1.75V235.34c.81-.33.81-1.06.84-1.76a178.56,178.56,0,0,1,4.53-31.41C22,130.08,61.76,74.46,124.92,35.9A244.3,244.3,0,0,1,219.26,2.41c5.36-.75,10.88-.63,16.08-2.41ZM503,256C502.52,119.07,393,8.92,256.2,8.71a247.09,247.09,0,0,0-.79,494.18C392.47,503.1,502.33,393,503,256Z"/><path class="cls-2" d="M503,256c-.7,137-110.56,247.12-247.62,246.91A247.09,247.09,0,0,1,256.2,8.71C393,8.92,502.52,119.07,503,256ZM185.87,463.86c.73.8.17,1.64-.07,2.36-1.89,5.75-3.89,11.47-5.77,17.22-.28.85-1,2.12.24,2.64,1.63.69,1.78-1,2.1-1.91,1.62-4.66,3.15-9.35,4.7-14,1-3.08,2.07-6.15,3-9.25.22-.74.36-1.79-.81-2-.86-.18-1.19.59-1.5,1.21-.66,1.27-.25,3.09-2,3.83-.78-5.39-4.35-8.08-9.18-9.66a18.81,18.81,0,0,0-8.86-.5c-6,.95-9.82,4.69-11.75,10.42-1.82,5.43.06,9.82,4,13.42,4.52,4.13,9.87,6.07,16.06,4.89.82-.15,1.8-.7,1.65-1.65-.24-1.5-1.5-.91-2.4-.75-4.81.84-9-.68-12.74-3.51-5.37-4.07-6.17-10.35-2.16-15.75,5-6.79,17.62-6.57,22.08.62C183.45,463,184.73,463.11,185.87,463.86ZM305,470.77q10.71,7.67,21.43,15.31c.87.61,1.74,1.87,2.94,1.1s.41-2,.13-3.09c-1.81-6.84-3.55-13.7-5.44-20.51-.4-1.42,0-4.32-2.24-3.69s-.32,3,0,4.43c1.33,5.85,3,11.64,4.55,17.62-2.2-.07-3.12-1.29-4.24-2.09-6.22-4.47-12.38-9-18.59-13.49-.86-.62-1.77-1.91-2.93-1.09s-.48,2.11-.21,3.17q2.85,10.89,5.77,21.75c.28,1,.29,2.74,1.69,2.51,2-.32.93-2.1.69-3.12-1.42-5.91-3-11.79-4.52-17.68Zm15.78-17.12c-.37.8-1.59,1.46-.44,2.5.87.77,1.59.1,2.18-.42,1.67-1.48,3.28-3,4.91-4.55,1.48-.46,3-.8,4.45-1.37,34.39-13.67,63.53-34.65,86.43-63.73C458.2,335.4,472,277.89,460,214.73c-8.83-46.28-31.7-85.2-67.45-116C344.23,57.21,288,41,225.1,49.84c-50.24,7.09-92.58,30.3-125.81,68.72C54.76,170.05,38.4,230.14,51.76,296.63c14.09,70.13,55.59,119.9,120.47,150.05a120.91,120.91,0,0,0,17.7,6.76c-.34-21.43-5.84-53.74-19.38-74.46-5.6-8.57-12.25-16.11-21.23-21.16-21.86-12.29-35.78-31-44.48-54.08-6.57-17.41-9.62-35.57-10.91-54-.72-10.19-.77-20.43-1.08-30.65-.14-4.32,1.43-7.88,5.35-9.91s6.82.48,9.62,2.63a31.7,31.7,0,0,1,4.84,4.78,66.82,66.82,0,0,1,11.91,21c3,8.46,4.19,17.36,6.77,25.91,2.93,9.7,5.84,19.46,14.58,25.81,8.55,6.21,17.28,12.19,26,18.35.65-2.09-.63-3.27-1.29-4.62A72.86,72.86,0,0,1,163,272.73c-.14-4.67,1.16-9.08,6-11.31,2.29-1,4.06-.65,5.31,1.74,9.23,17.52,21.74,32.67,35.5,46.61,13.16,13.33,23.23,28,28.21,46.23,8.82,32.31,11.63,65.27,11.86,98.58.06,9.59,0,9.48,9.54,9.55,3.08,0,4.12-.77,4.1-4.05a448.11,448.11,0,0,1,5.82-78c4.36-25.83,12.77-49.21,32.9-67.87A164.7,164.7,0,0,0,337,268.62c1.39-2.73,3.29-3.22,5.93-1.92,4.83,2.38,6,6.81,5.74,11.45C348,289.29,345.5,300,340,309.92c-.48.86-1.74,1.57-.8,3.2,9-6.34,18-12.51,26.79-19A30.53,30.53,0,0,0,376,281.08c4.5-10.65,6.43-22,9.48-33.07,3.39-12.25,9-23.28,19.05-31.57,2.62-2.17,5.61-3.69,9-2a9.13,9.13,0,0,1,5.24,8.65c0,24.9-1.16,49.69-8,73.83-8.07,28.51-22.9,52.06-49.58,66.88a51.28,51.28,0,0,0-15.22,13.5C328.32,399.68,323.05,426.18,320.75,453.65ZM212.09,492.27c-.66,2.07.65,2.68,3.24,2.35,5.09-.64,10.1-1.55,14.42-4.47,7.3-4.93,7.37-14.48.21-19.62a27,27,0,0,0-11-4.23c-2.29-.45-3.33,0-3.64,2.5C214.42,476.37,213.27,483.91,212.09,492.27Zm46.2-13.62h.09c.3,5.65.61,11.31.9,17,.09,1.65.12,3.28,2.59,2.53,5.59-1.7,11.05-3.68,15.06-8.2A11.48,11.48,0,0,0,274,472.09a22.2,22.2,0,0,0-9.31-2.62c-6.72-.7-6.73-.7-6.45,5.78C258.33,476.38,258.29,477.52,258.29,478.65Zm36.18,7c1.4-.86,2.17.25,2.88,1.37,1.13,1.8,2.17,3.64,3.3,5.43.5.78.88,2.15,2.1,1.57,1.59-.75.53-1.92,0-2.82q-6.66-11.08-13.37-22.14c-.49-.81-.81-2-2.05-1.85s-1.32,1.35-1.57,2.24q-3.45,12.45-6.78,24.92c-.26,1-1,2.64.33,3,1.73.51,2-1.37,2-2.5.28-7.09,4.67-9,10.82-9A19.08,19.08,0,0,0,294.47,485.69Zm-62.74,12c.92-.05,1.28-.72,1.6-1.32A38.72,38.72,0,0,0,236,491c.87-2.46,2.44-2.68,4.86-2.83,6.57-.41,11.55.87,12.47,8.53.1.89.57,2.22,1.86,1.78s.78-1.71.47-2.57c-3-8.38-6.11-16.74-9.17-25.1-.3-.81-.55-1.72-1.58-1.7s-1.3,1-1.67,1.73c-1.42,2.77-2.77,5.58-4.15,8.37l-7.5,15.24C231,495.59,230.1,496.72,231.73,497.67Zm106.76-29.5h-.35c0,3.54-.12,7.09.06,10.63.08,1.79-1.25,5,1.07,5s1.27-3.3,1.21-5c-.12-3.91,1-6.1,4.89-8,5.48-2.67,9.4-2.38,12.78,2.72a3.79,3.79,0,0,0,.61.59c.73.68,1.6,1.6,2.49.55s-.26-1.79-.92-2.44Q351,463,341.52,453.73c-.6-.6-1.22-1.28-2.18-.92s-.83,1.37-.83,2.17C338.48,459.38,338.49,463.77,338.49,468.17ZM198.62,491.25c4.72.29,7.75-2.23,9.91-6.07,2.75-4.91,3.81-10.34,4.53-15.83.17-1.29,1.35-3.6-.88-3.85-1.71-.19-1.35,2.11-1.56,3.42-.81,5.19-1.6,10.38-4.24,15s-6.38,6-11.14,4.24c-4.25-1.57-5.67-4.74-4.65-10,1-5.05,3.31-9.63,4.86-14.47.28-.9,1.15-2-.14-2.59s-1.59.59-1.94,1.49c-2,5.15-4.32,10.16-5.26,15.66C186.79,486.08,190.8,491.08,198.62,491.25ZM335,483.17c-2.62-7.8-5.39-16.09-8.18-24.37-.26-.77-.85-1.2-1.64-.79-1,.54-.58,1.44-.33,2.21,1.67,5.09,3.37,10.17,5,15.26.92,2.82,1.82,5.64,2.72,8.46.23.75.67,1.3,1.46,1.26S335.13,484.48,335,483.17Z"/><path class="cls-3" d="M320.75,453.65c2.3-27.47,7.57-54,25.18-76.39a51.28,51.28,0,0,1,15.22-13.5c26.68-14.82,41.51-38.37,49.58-66.88,6.83-24.14,8-48.93,8-73.83a9.13,9.13,0,0,0-5.24-8.65c-3.39-1.65-6.38-.13-9,2-10,8.29-15.66,19.32-19.05,31.57-3.05,11.05-5,22.42-9.48,33.07A30.53,30.53,0,0,1,366,294.15c-8.79,6.46-17.8,12.63-26.79,19-.94-1.63.32-2.34.8-3.2,5.48-9.89,7.94-20.63,8.6-31.77.27-4.64-.91-9.07-5.74-11.45-2.64-1.3-4.54-.81-5.93,1.92a164.7,164.7,0,0,1-34.64,45.57c-20.13,18.66-28.54,42-32.9,67.87a448.11,448.11,0,0,0-5.82,78c0,3.28-1,4.07-4.1,4.05-9.5-.07-9.48,0-9.54-9.55-.23-33.31-3-66.27-11.86-98.58-5-18.25-15.05-32.9-28.21-46.23-13.76-13.94-26.27-29.09-35.5-46.61-1.25-2.39-3-2.78-5.31-1.74-4.87,2.23-6.17,6.64-6,11.31A72.86,72.86,0,0,0,170.67,303c.66,1.35,1.94,2.53,1.29,4.62-8.76-6.16-17.49-12.14-26-18.35-8.74-6.35-11.65-16.11-14.58-25.81-2.58-8.55-3.79-17.45-6.77-25.91a66.82,66.82,0,0,0-11.91-21,31.7,31.7,0,0,0-4.84-4.78c-2.8-2.15-5.77-4.62-9.62-2.63s-5.49,5.59-5.35,9.91c.31,10.22.36,20.46,1.08,30.65,1.29,18.45,4.34,36.61,10.91,54,8.7,23.05,22.62,41.79,44.48,54.08,9,5.05,15.63,12.59,21.23,21.16,13.54,20.72,19,53,19.38,74.46a120.91,120.91,0,0,1-17.7-6.76c-64.88-30.15-106.38-79.92-120.47-150-13.36-66.49,3-126.58,47.53-178.07,33.23-38.42,75.57-61.63,125.81-68.72C288,41,344.23,57.21,392.52,98.76c35.75,30.77,58.62,69.69,67.45,116C472,277.89,458.2,335.4,418.28,386.08c-22.9,29.08-52,50.06-86.43,63.73-1.44.57-3,.91-4.45,1.36-.74-1.81-1.77-2-3.19-.64C323.09,451.6,321.9,452.61,320.75,453.65Zm33.09-180.72c-.73,1.65-.87,3.23.46,4.68,28.61-31.14,41-85.17,20.28-133.56C353.35,94.45,301,59.22,239.78,66.63c-51.06,6.18-96.71,43.66-110,99.44-9,37.87,5.92,97.86,28.29,111.71-.13-1.95-.26-3.75-.38-5.54.56-6.69,2.67-12.45,9.27-15.52,5-2.34,9.48-.74,12.08,4.15,1.58,3,3.17,6,5,8.84,10.15,15.39,22.29,29.16,34.85,42.58a15.38,15.38,0,0,0,5.38,3.88c.7,3.06,2.3,4.53,5.72,5.22a124.16,124.16,0,0,0,47.17.74c6.76-1.25,14.35-1.23,18.65-8.28,4.16-4.6,8.52-9.05,12.43-13.86,4.87-6,10.59-11.35,13.95-18.48,1.66-.6,2.07-1.86,1.84-3.46,1.44.22,2-.88,2.53-1.84,1.88-3.15,3.89-6.24,5.58-9.49,3.17-6.09,8.07-7.5,14-4.07C350.34,265,351.82,269.13,353.84,272.93Z"/><path class="cls-4" d="M304,471.9c1.52,5.89,3.1,11.77,4.52,17.68.24,1,1.3,2.8-.69,3.12-1.4.23-1.41-1.47-1.69-2.51q-2.91-10.86-5.77-21.75c-.27-1.06-.86-2.42.21-3.17s2.07.47,2.93,1.09c6.21,4.47,12.37,9,18.59,13.49,1.12.8,2,2,4.24,2.09-1.57-6-3.22-11.77-4.55-17.62-.32-1.42-2.19-3.8,0-4.43s1.84,2.27,2.24,3.69c1.89,6.81,3.63,13.67,5.44,20.51.28,1.07,1.09,2.3-.13,3.09s-2.07-.49-2.94-1.1q-10.74-7.62-21.43-15.31l-1.21-.69A1.67,1.67,0,0,0,304,471.9Z"/><path class="cls-4" d="M212.09,492.27c1.18-8.36,2.33-15.9,3.26-23.47.31-2.51,1.35-2.95,3.64-2.5a27,27,0,0,1,11,4.23c7.16,5.14,7.09,14.69-.21,19.62-4.32,2.92-9.33,3.83-14.42,4.47C212.74,495,211.43,494.34,212.09,492.27Zm20.63-12.09c0-5.48-8.48-12.4-13.79-11.3-1.38.28-1.31,1.23-1.45,2.19-.56,4.05-1.2,8.09-1.69,12.15-1.2,9.92-.2,10.61,9.32,6.58C229.39,488,232.67,485.37,232.72,480.18Z"/><path class="cls-4" d="M258.29,478.65c0-1.13,0-2.27,0-3.4-.28-6.48-.27-6.48,6.45-5.78a22.2,22.2,0,0,1,9.31,2.62A11.48,11.48,0,0,1,276.93,490c-4,4.52-9.47,6.5-15.06,8.2-2.47.75-2.5-.88-2.59-2.53-.29-5.66-.6-11.32-.9-17Zm3.5,16.77c6.09-1.7,10.51-4.07,13.09-6.87a9.26,9.26,0,0,0-1.95-14.28c-3.11-1.92-6.66-2.17-10.17-2.54-2.15-.22-2.17,1.13-2.08,2.69C261.07,481.33,261.41,488.24,261.79,495.42Z"/><path class="cls-4" d="M294.47,485.69a19.08,19.08,0,0,1-2.32.27c-6.15-.07-10.54,1.88-10.82,9,0,1.13-.3,3-2,2.5-1.29-.38-.59-2-.33-3q3.31-12.48,6.78-24.92c.25-.89.32-2.11,1.57-2.24s1.56,1,2.05,1.85q6.7,11.06,13.37,22.14c.54.9,1.6,2.07,0,2.82-1.22.58-1.6-.79-2.1-1.57-1.13-1.79-2.17-3.63-3.3-5.43C296.64,485.94,295.87,484.83,294.47,485.69Zm-6.66-14.23c-1,3.57-1.48,6.37-2.5,9-1.54,4,0,4.18,3.37,3.5,6.11-1.25,6.14-1.12,2.82-6.58C290.42,475.59,289.3,473.84,287.81,471.46Z"/><path class="cls-4" d="M231.73,497.67c-1.63-.95-.69-2.08-.15-3.18l7.5-15.24c1.38-2.79,2.73-5.6,4.15-8.37.37-.72.65-1.72,1.67-1.73s1.28.89,1.58,1.7c3.06,8.36,6.14,16.72,9.17,25.1.31.86.78,2.14-.47,2.57s-1.76-.89-1.86-1.78c-.92-7.66-5.9-8.94-12.47-8.53-2.42.15-4,.37-4.86,2.83a38.72,38.72,0,0,1-2.66,5.31C233,497,232.65,497.62,231.73,497.67Zm12.94-24.09-5.93,12c11,1.1,11,1.1,7.45-8.34C245.85,476.29,245.44,475.41,244.67,473.58Z"/><path class="cls-4" d="M338.49,468.17c0-4.4,0-8.79,0-13.19,0-.8-.21-1.78.83-2.17s1.58.32,2.18.92q9.42,9.24,18.81,18.49c.66.65,1.8,1.4.92,2.44s-1.76.13-2.49-.55a3.79,3.79,0,0,1-.61-.59c-3.38-5.1-7.3-5.39-12.78-2.72-3.91,1.91-5,4.1-4.89,8,.06,1.73,1,5.08-1.21,5s-1-3.25-1.07-5c-.18-3.54-.06-7.09-.06-10.63Zm2.49,1.64c3.43-.75,6.28-2.27,9.46-3.7-3-3.07-5.69-6.2-9.46-8.89Z"/><path class="cls-4" d="M185.87,463.86c-1.14-.75-2.42-.87-3.37-2.41-4.46-7.19-17-7.41-22.08-.62-4,5.4-3.21,11.68,2.16,15.75,3.74,2.83,7.93,4.35,12.74,3.51.9-.16,2.16-.75,2.4.75.15,1-.83,1.5-1.65,1.65-6.19,1.18-11.54-.76-16.06-4.89-3.92-3.6-5.8-8-4-13.42,1.93-5.73,5.73-9.47,11.75-10.42a18.81,18.81,0,0,1,8.86.5c4.83,1.58,8.4,4.27,9.18,9.66Z"/><path class="cls-4" d="M198.62,491.25c-7.82-.17-11.83-5.17-10.51-13,.94-5.5,3.3-10.51,5.26-15.66.35-.9.61-2.15,1.94-1.49s.42,1.69.14,2.59c-1.55,4.84-3.87,9.42-4.86,14.47-1,5.27.4,8.44,4.65,10,4.76,1.75,8.54.34,11.14-4.24s3.43-9.85,4.24-15c.21-1.31-.15-3.61,1.56-3.42,2.23.25,1,2.56.88,3.85-.72,5.49-1.78,10.92-4.53,15.83C206.37,489,203.34,491.54,198.62,491.25Z"/><path class="cls-4" d="M185.82,463.92c1.7-.74,1.29-2.56,2-3.83.31-.62.64-1.39,1.5-1.21,1.17.23,1,1.28.81,2-.94,3.1-2,6.17-3,9.25-1.55,4.67-3.08,9.36-4.7,14-.32.94-.47,2.6-2.1,1.91-1.23-.52-.52-1.79-.24-2.64,1.88-5.75,3.88-11.47,5.77-17.22.24-.72.8-1.56.07-2.36Z"/><path class="cls-4" d="M335,483.17c.18,1.31-.05,2-.93,2s-1.23-.51-1.46-1.26c-.9-2.82-1.8-5.64-2.72-8.46-1.67-5.09-3.37-10.17-5-15.26-.25-.77-.71-1.67.33-2.21.79-.41,1.38,0,1.64.79C329.56,467.08,332.33,475.37,335,483.17Z"/><path class="cls-4" d="M320.75,453.65c1.15-1,2.34-2,3.46-3.12,1.42-1.38,2.45-1.17,3.19.64-1.63,1.53-3.24,3.08-4.91,4.56-.59.52-1.31,1.19-2.18.42C319.16,455.11,320.38,454.45,320.75,453.65Z"/><path class="cls-1" d="M224.33,316.17a15.38,15.38,0,0,1-5.38-3.88c-12.56-13.42-24.7-27.19-34.85-42.58-1.86-2.82-3.45-5.84-5-8.84-2.6-4.89-7.08-6.49-12.08-4.15-6.6,3.07-8.71,8.83-9.27,15.52a29.06,29.06,0,0,1-2-2.17c-21.25-28.86-28.95-61.07-23.42-96.38A120.21,120.21,0,0,1,144.13,138c1.06-2.11,1.94-3.54,4-.87a40.8,40.8,0,0,1,6.34,12c3.71,10.44,6.31,21.19,9.3,31.84,3.29,11.74,6.14,23.65,12.56,34.24,4.47,7.36,10.53,12.76,19.29,14.12,10.35,1.6,20.08-.9,29.09-5.89,7.61-4.22,9.92-10.86,7.36-19.21-1.9-6.23-5.55-11.46-9.33-16.63-5.61-7.68-12.06-14.74-17.19-22.78-1.75-2.74-3.52-5.52-3.77-8.93-.28-4,2.48-5.88,5.42-7.38s4.9.37,6.48,2.54c2.43,3.32,4.57,6.86,7.1,10.1,4,5.05,9.09,6.91,15.48,5.4,9.81-2.31,16.17-9.73,17.81-20.93,2.21-15.12-1.63-29.31-6.64-43.28-1.93-5.37-5.77-9.41-10.64-12.39-7.49-4.59-15.8-6.14-24.43-6.34-4.13-.1-8.27,0-12.73,0a6.53,6.53,0,0,1,.81-1c.48-.29,1-.54,1.51-.79,26.46-12.5,54.23-16,82.41-8.67,52,13.5,83.37,47.39,94.78,99.83,1,4.52.61,5-3.88,4.57-23.07-2.31-46.18-3.53-69.36-2.53-12.34.53-24.71,1.55-36.11,7-8.32,4-11,9.19-9.67,18.27,1,7.27,5.08,10.69,12.43,10.51,6.58-.17,12.79-2.5,19.3-3.16,5.71-.59,10.71.53,14.57,5.12,3.23,3.84,2.78,5.68-2.09,7.27a62.1,62.1,0,0,1-17.64,2.55c-14.63.42-29.27.58-43.9.88a33.86,33.86,0,0,0-16.32,4.2c-10.64,6.05-11.76,17.79-2.44,25.73a28.37,28.37,0,0,0,13.46,5.95c9,1.71,17.49-.3,26-2.87A42.22,42.22,0,0,1,293,257.94c12,5.08,21,13.82,29.23,23.58-3.36,7.12-9.08,12.49-13.95,18.47-3.91,4.81-8.27,9.26-12.43,13.86a8.87,8.87,0,0,0-3.24.65,122.31,122.31,0,0,1-30.39,5.32A137,137,0,0,1,224.33,316.17Z"/><path class="cls-2" d="M353.84,272.93c-2-3.8-3.5-7.93-7.6-10.28-6-3.43-10.87-2-14,4.07-1.69,3.25-3.7,6.34-5.58,9.49-.58,1-1.09,2.06-2.54,1.84a86.93,86.93,0,0,0-19.27-17.9c-13.92-9.25-28.74-12-44.94-6.7-10.65,3.49-21.44,4.57-31.61-1.68-4.19-2.57-7-6.27-6.66-11.55s3.8-8,8.06-10.1c5.08-2.48,10.55-3.21,16.11-3.28,11.5-.13,23,.06,34.5-.32,8.77-.3,17.65-.36,26.08-3.33,6.41-2.25,7.62-6.89,3.52-12.26-5.35-7-12.7-8-20.68-6.78-5,.78-10,2.08-15,2.87-6.25,1-9-1.1-10.26-7.19-1.38-6.86.34-10.68,6.57-14.06,6.72-3.66,14.13-5,21.6-5.88,28.68-3.47,57.25-1.11,85.82,1.64,1.72.16,2.62.68,2.75,2.41.12,1.56.39,3.11.44,4.66C382.22,220,373.32,248.18,353.84,272.93Z"/><path class="cls-5" d="M353.84,272.93c19.48-24.75,28.38-52.92,27.24-84.33-.05-1.55-.32-3.1-.44-4.66-.13-1.73-1-2.25-2.75-2.41-28.57-2.75-57.14-5.11-85.82-1.64-7.47.9-14.88,2.22-21.6,5.88-6.23,3.38-8,7.2-6.57,14.06,1.24,6.09,4,8.16,10.26,7.19,5-.79,10-2.09,15-2.87,8-1.23,15.33-.22,20.68,6.78,4.1,5.37,2.89,10-3.52,12.26-8.43,3-17.31,3-26.08,3.33-11.49.38-23,.19-34.5.32-5.56.07-11,.8-16.11,3.28-4.26,2.09-7.71,4.93-8.06,10.1s2.47,9,6.66,11.55c10.17,6.25,21,5.17,31.61,1.68,16.2-5.31,31-2.55,44.94,6.7a86.93,86.93,0,0,1,19.27,17.9c.24,1.6-.17,2.86-1.83,3.47C314,271.76,305,263,293,257.94a42.22,42.22,0,0,0-29.53-1.56c-8.47,2.57-17,4.58-26,2.87a28.37,28.37,0,0,1-13.46-5.95c-9.32-7.94-8.2-19.68,2.44-25.73a33.86,33.86,0,0,1,16.32-4.2c14.63-.3,29.27-.46,43.9-.88a62.1,62.1,0,0,0,17.64-2.55c4.87-1.59,5.32-3.43,2.09-7.27-3.86-4.59-8.86-5.71-14.57-5.12-6.51.66-12.72,3-19.3,3.16-7.35.18-11.41-3.24-12.43-10.51-1.29-9.08,1.35-14.28,9.67-18.27,11.4-5.45,23.77-6.47,36.11-7,23.18-1,46.29.22,69.36,2.53,4.49.45,4.86-.05,3.88-4.57-11.41-52.44-42.8-86.33-94.78-99.83-28.18-7.32-55.95-3.83-82.41,8.67-.52.25-1,.5-1.51.79a6.53,6.53,0,0,0-.81,1c4.46,0,8.6-.08,12.73,0,8.63.2,16.94,1.75,24.43,6.34,4.87,3,8.71,7,10.64,12.39,5,14,8.85,28.16,6.64,43.28-1.64,11.2-8,18.62-17.81,20.93-6.39,1.51-11.53-.35-15.48-5.4-2.53-3.24-4.67-6.78-7.1-10.1-1.58-2.17-3.61-4-6.48-2.54s-5.7,3.39-5.42,7.38c.25,3.41,2,6.19,3.77,8.93,5.13,8,11.58,15.1,17.19,22.78,3.78,5.17,7.43,10.4,9.33,16.63,2.56,8.35.25,15-7.36,19.21-9,5-18.74,7.49-29.09,5.89-8.76-1.36-14.82-6.76-19.29-14.12-6.42-10.59-9.27-22.5-12.56-34.24-3-10.65-5.59-21.4-9.3-31.84a40.8,40.8,0,0,0-6.34-12c-2.1-2.67-3-1.24-4,.87a120.21,120.21,0,0,0-11.82,35.72c-5.53,35.31,2.17,67.52,23.42,96.38a29.06,29.06,0,0,0,2,2.17c.12,1.79.25,3.59.38,5.54-22.37-13.85-37.29-73.84-28.29-111.71,13.26-55.78,58.91-93.26,110-99.44,61.25-7.41,113.57,27.82,134.8,77.42,20.7,48.39,8.33,102.42-20.28,133.56C353,276.16,353.11,274.58,353.84,272.93ZM251,136.72c0-9.91-2.57-19.34-5.29-28.77-2.82-9.79-9.25-15.68-18.8-18.47C216,86.3,205,86.74,193.93,88.26c-2.21.31-4.53.16-6.57,1.49a126,126,0,0,0-38.58,39.7c-.77,1.26-.92,2.13.31,3.28,5.45,5.16,8.13,11.9,10.21,18.87,3,10.18,5.8,20.44,8.71,30.66s5.64,20.81,11.09,30.25c4.11,7.09,9.72,12.39,18.18,13.3a42.06,42.06,0,0,0,26.48-6.18c5.21-3.11,6.68-7.72,5.08-13.58-1.46-5.3-4.35-9.86-7.55-14.19-5.66-7.65-11.58-15.1-17.28-22.71A30.26,30.26,0,0,1,198.12,157c-1-4.8,2-9.48,7.58-12,3.91-1.77,7.27-.89,10.43,3.13,2.37,3,4.3,6.34,6.59,9.41,4.36,5.83,8.86,7.07,15.68,4.51a17.23,17.23,0,0,0,9.79-9.52C250.49,147.49,251,142.15,251,136.72Z"/><path class="cls-5" d="M224.33,316.17a137,137,0,0,0,37.91,3.65,122.31,122.31,0,0,0,30.39-5.32,8.87,8.87,0,0,1,3.24-.65c-4.3,7-11.89,7-18.65,8.28a124.16,124.16,0,0,1-47.17-.74C226.63,320.7,225,319.23,224.33,316.17Z"/><path class="cls-2" d="M304,471.9a1.67,1.67,0,0,1-.24-1.82l1.21.69C304.64,471.14,304.32,471.52,304,471.9Z"/><path class="cls-2" d="M232.72,480.18c-.05,5.19-3.33,7.81-7.61,9.62-9.52,4-10.52,3.34-9.32-6.58.49-4.06,1.13-8.1,1.69-12.15.14-1,.07-1.91,1.45-2.19C224.24,467.78,232.75,474.7,232.72,480.18Z"/><path class="cls-2" d="M261.79,495.42c-.38-7.18-.72-14.09-1.11-21-.09-1.56-.07-2.91,2.08-2.69,3.51.37,7.06.62,10.17,2.54a9.26,9.26,0,0,1,1.95,14.28C272.3,491.35,267.88,493.72,261.79,495.42Z"/><path class="cls-2" d="M287.81,471.46c1.49,2.38,2.61,4.13,3.69,5.9,3.32,5.46,3.29,5.33-2.82,6.58-3.34.68-4.91.48-3.37-3.5C286.33,477.83,286.84,475,287.81,471.46Z"/><path class="cls-2" d="M244.67,473.58c.77,1.83,1.18,2.71,1.52,3.62,3.54,9.44,3.54,9.44-7.45,8.34Z"/><path class="cls-2" d="M341,469.81V457.22c3.77,2.69,6.46,5.82,9.46,8.89C347.26,467.54,344.41,469.06,341,469.81Z"/><path class="cls-2" d="M251,136.71c.05,5.44-.46,10.78-2.76,15.81A17.23,17.23,0,0,1,238.4,162c-6.82,2.56-11.32,1.32-15.68-4.51-2.29-3.07-4.22-6.41-6.59-9.41-3.16-4-6.52-4.9-10.43-3.13-5.54,2.51-8.54,7.19-7.58,12A30.26,30.26,0,0,0,204,169.15c5.7,7.61,11.62,15.06,17.28,22.71,3.2,4.33,6.09,8.89,7.55,14.19,1.6,5.86.13,10.47-5.08,13.58a42.06,42.06,0,0,1-26.48,6.18c-8.46-.91-14.07-6.21-18.18-13.3-5.45-9.44-8.15-19.89-11.09-30.25s-5.67-20.48-8.71-30.66c-2.08-7-4.76-13.71-10.21-18.87-1.23-1.15-1.08-2-.31-3.28a126,126,0,0,1,38.58-39.7c2-1.33,4.36-1.18,6.57-1.49,11-1.52,22.07-2,32.94,1.22,9.55,2.79,16,8.68,18.8,18.47C248.39,117.38,250.94,126.81,251,136.71Z"/><rect id="SVGID" class="cls-6" width="512" height="512"/></svg>