<svg id="Capa_1" data-name="Capa 1" xmlns="http://www.w3.org/2000/svg" viewBox="0 0 512 512"><defs><style>.cls-1{fill:#5f6fa4;}.cls-2{fill:#533359;}.cls-3{fill:#99a1cb;}.cls-4{fill:#eae8ef;}.cls-5{fill:#6c4d80;}.cls-6{fill:#fff;}.cls-7{fill:none;}</style></defs><path class="cls-1" d="M512,256c0,141.25-114.79,255.6-256.55,255.57C114.25,511.55-.08,396.67,0,254.9.08,114.36,115.32.34,257.21.43,397.4.51,512,115.46,512,256ZM8.74,255.77A246.8,246.8,0,0,0,254.81,502.82c137.85.56,247.37-110,248.42-244.64C504.31,119.64,392.66,9.6,257,9.16,119.45,8.72,9,119.38,8.74,255.77Z"/><path class="cls-2" d="M8.74,255.77C9,119.38,119.45,8.72,257,9.16c135.66.44,247.31,110.48,246.23,249-1.05,134.67-110.57,245.2-248.42,244.64A246.8,246.8,0,0,1,8.74,255.77ZM335.49,458.36c-.2.19-.47.58-.6.54-8.14-2.55-14.24-.89-19.37,5.33s-4.15,16.2,2,20.53c6.45,4.53,19.15,2.47,22.86-3.73.51-.85,1.3-1.9.23-2.7-1.29-1-1.73.5-2.26,1.21-2.05,2.72-5,3.93-8.1,4.75-7.12,1.91-12.92-.88-14.92-6.82A11.64,11.64,0,0,1,318.11,465c3.8-4,8.57-6.36,14.08-4.54,2.89.95,2.9-.37,3.25-2.18,1.54.42,1.49,1.88,1.93,3q3.48,8.9,6.93,17.82c.37.93.72,2.18,2,1.71,1-.36.68-1.49.38-2.27q-4.44-11.56-9-23.1c-.29-.74-.68-1.81-1.85-1.3s-.55,1.43-.41,2.25C335.6,457.05,336.25,457.71,335.49,458.36Zm14.9-16.62c17.12-8.92,33.21-19.43,47.07-32.86,56.9-55.16,78.39-122,61.59-199.28-21.41-98.41-112-166.11-212.49-161.45a207.9,207.9,0,0,0-90.73,25.28c-77,41.73-120.09,129.24-105.78,215.41,8.14,49.05,30.4,90.86,68.29,123.21C177.26,462.36,244.62,475.8,319,454.39c8.58-2.47,16.83-6.11,25.23-9.21-.12,2.39,1,2.5,2.4,1.09A58.88,58.88,0,0,0,350.39,441.74Zm-173.1,18.19c2.13,5.39,3.84,9.52,5.37,13.71,1,2.63,2.08,3.43,4.69,1.54,3.66-2.64,7.59-4.91,12.46-8-2.4,7.41-4.42,13.56-6.35,19.74-.36,1.14-1.44,2.86.09,3.46,1.8.72,1.79-1.38,2.15-2.47q3.56-10.71,6.93-21.48c.31-1,1.3-2.28,0-3.17s-2.1.51-3,1.08c-4.71,2.94-9.38,5.95-14.33,9.11-2.26-5.81-4.27-11.07-6.36-16.3-.34-.86-.55-2.22-1.87-2.05-.92.11-1.17,1.13-1.44,2q-3.63,11.39-7.32,22.73c-.32,1-1,2.19.26,2.66,1.68.65,1.72-1,2.06-2C172.71,474,174.79,467.59,177.29,459.93Zm71.3,32.23-1,.27q-7.87-11.15-15.77-22.29c-.57-.8-1-2.08-2.13-1.9-1.5.22-1.32,1.7-1.41,2.8q-.87,11.71-1.67,23.44c-.06.86-.13,1.94.94,2.14,1.64.31,1.38-1.12,1.47-2,.3-3.33.5-6.66.78-10,.28-3.5.61-7,1-11.56,4.87,6.9,8.93,12.88,13.26,18.67,1.73,2.32,2.87,6.8,5.71,6.13,2.21-.52,1.08-5.16,1.41-7.94.7-5.9.9-11.85,1.26-17.79.05-.92.37-2.3-1.2-2.25-1,0-1.21,1.09-1.27,2s-.07,2-.14,3.05Q249.24,483.54,248.59,492.16Zm117.82-47.31c9.89,3.28,18.66,6.22,27.45,9.08,1,.32,2.27,1.29,3.14-.12.67-1.07-.42-1.85-.92-2.65-3.94-6.27-7.89-12.53-11.91-18.75-.65-1-1.28-3.09-2.63-2.34-1.86,1.05-.07,2.53.61,3.62,3.37,5.47,6.84,10.89,10.92,17.35-9.69-3.23-18.17-6.07-26.68-8.85-1.17-.39-2.64-1.43-3.61-.17s.48,2.41,1.13,3.45c3.79,6,7.59,12,11.49,18,.67,1,1.05,3.5,2.88,2.21,1.63-1.15-.36-2.57-1-3.64C373.93,456.57,370.46,451.22,366.41,444.85Zm3.07,17.9a12.14,12.14,0,0,0-12-12,13.19,13.19,0,0,0-12.81,12.89,12,12,0,0,0,12.16,12.15A13.22,13.22,0,0,0,369.48,462.75ZM157.21,452.22c-7.11-.06-12.9,5.3-12.94,12a12.65,12.65,0,0,0,25.3,0C169.55,457.5,164.17,452.28,157.21,452.22Zm158.1,38.34c-.56-.91-1.06-1.79-1.61-2.62-4.45-6.63-8.88-13.26-13.38-19.85-.69-1-1-2.79-2.62-2.56s-1.36,2-1.64,3.19c-1.71,7.62-3.51,15.24-5,22.9-.28,1.39-2.36,3.87.29,4.36,2,.37,1.9-2.68,2-4.13.46-4.92,2.61-7.65,7.8-7.41a2,2,0,0,0,.86-.16c4.13-1.8,6.86-.34,8.67,3.58a18.25,18.25,0,0,0,2.2,3.23,1.13,1.13,0,0,0,1.51.45C314.72,491.36,314.94,491,315.31,490.56Zm-179-52.31c4.4.33,9.2,2.19,12,7.51.46.89,0,2.83,1.78,2.18s.81-2.23.3-3.32c-2.4-5.26-7-7.52-12.31-8.54-6.32-1.21-11.46.78-15.26,5.95-3.45,4.7-3.74,9.82-.55,14.59,3.65,5.46,8.65,8.9,15.52,8.86,1,0,2.3-.1,2.29-1.44s-1.27-1.18-2.28-1.11c-4.39.29-7.85-1.76-10.88-4.59-3.52-3.28-5.41-7.2-3.67-12.08S129.68,438.27,136.33,438.25Zm76.92,56a8.83,8.83,0,0,0,8-4c4.52-6.34,4.87-13.8,5.42-21.19a1.31,1.31,0,0,0-1.16-1.56c-1-.06-1.1.81-1.2,1.5-.24,1.73-.43,3.46-.58,5.19a35.77,35.77,0,0,1-2.94,12.19c-1.58,3.4-4.1,5.6-8.15,5.43-6.37-.27-9.36-4.23-7.89-11.1,1-4.67,2.63-9.19,3.89-13.8.23-.86.91-2.14-.57-2.56-1.07-.29-1.48.72-1.72,1.56-1.53,5.28-3.62,10.43-4.3,15.93C201.08,489.48,205.28,494.2,213.25,494.27Zm60.71,3.4c4.48-.14,8.3-.84,11.38-3.64.59-.54,1.41-1.35.68-2.21s-1.54-.35-2.26.28c-3.07,2.67-6.77,3.1-10.63,2.94-5.86-.24-9.95-3.12-11.26-7.88a12,12,0,0,1,5.68-13.83c4.87-2.73,10-4.17,15.09-.37.6.45,1.31.86,1.91.14a1.26,1.26,0,0,0-.3-1.9,13.07,13.07,0,0,0-2.47-1.73c-5.19-2.5-13.32-.8-18.23,3.74a14.84,14.84,0,0,0-3.46,16.44C262.87,495.72,268.27,497.44,274,497.67ZM256,483.49h.72c0-4.06,0-8.13,0-12.19,0-1-.34-1.91-1.25-2s-1.25.93-1.28,1.88q-.33,12.18-.7,24.36c0,1.06,0,2.37,1.21,2.42s1.28-1.29,1.28-2.32Z"/><path class="cls-3" d="M344.21,445.18c-8.4,3.1-16.65,6.74-25.23,9.21-74.36,21.41-141.72,8-200.64-42.34C80.45,379.7,58.19,337.89,50.05,288.84,35.74,202.67,78.88,115.16,155.83,73.43a207.9,207.9,0,0,1,90.73-25.28c100.53-4.66,191.08,63,212.49,161.45,16.8,77.26-4.69,144.12-61.59,199.28-13.86,13.43-29.95,23.94-47.07,32.86-.3-2.46-1.41-2.07-2.66-.69S345.38,443.8,344.21,445.18ZM126.68,280.43c3.83,1.42,5.85,5.14,9.19,7.21,2.82,1.74,5.59,2.15,7.81-.6s2.06-5.66-.7-8.12c-6.18-5.52-12.29-11.11-18.59-16.48-4-3.36-6.4-3.07-9.64.86-4.71,5.71-9.34,11.5-13.93,17.31-2.47,3.13-2.3,6.4.25,8.5s6,1.65,8.51-1.17c1.54-1.69,2.92-3.53,4.4-5.35a5.26,5.26,0,0,1,1.31,3.45A92,92,0,0,0,128.49,324c6.72,10.72,15,19.94,26,26.52,4.21,2.53,7.7,1.38,9.14-2.72,1.26-3.56-1.12-5.56-3.54-7.13a67.16,67.16,0,0,1-14-12.42c-12-13.67-18.66-29.54-19.41-47.78Zm107.63,30.76c-3.11.89-5.62,1.54-8.08,2.34a71.27,71.27,0,0,0-7.36,2.71c-32.38,14.62-51.7,38.93-55.4,74.74-.56,5.45-.41,5.48,5.2,5.48H321.06c7.85,0,15.72-.17,23.57.08,3.42.11,4.45-1.1,4-4.25-.77-5-1-10.13-2.28-15-7.53-29.36-26.06-49.22-53.58-61.22-4.74-2.07-9.8-3.16-14.89-5,28.25-18.73,25-52.14,9.14-68.16-16.84-17-45.14-17-62,0C209.17,258.92,205.8,292,234.31,311.19Zm-97.18-123.5c16.22-14.48,18.62-32.55,6.5-45.28-11.62-12.2-30.9-12.68-42.17-1A28.83,28.83,0,0,0,93,162.26c.16,10.69,5.22,19.07,14.17,25-.31.37-.38.51-.48.55-1.24.41-2.48.8-3.73,1.19a62.51,62.51,0,0,0-28,17.69A55.63,55.63,0,0,0,60,240.24c-.45,5.22-.73,5.2,4.59,5.2H177.26c7.92,0,8.09-.19,7-8-.06-.43-.18-.85-.26-1.28-3.38-17.86-13-31.37-28.42-40.92C150,191.79,143.79,189.73,137.13,187.69Zm267.24-1.63c17.08-12.09,18-30.46,8.86-42.88-9.83-13.36-28.08-15.68-41.47-5.51A27.06,27.06,0,0,0,361,156c-1.66,12.58,3.21,22.54,14.36,30.11A68.5,68.5,0,0,0,359,192.31c-18.32,10.32-29.31,25.53-31.5,46.74-.4,3.91.9,4.84,4.75,4.83,38.44-.15,76.89-.09,115.33-.09.87,0,1.74,0,2.62,0,1.71.06,2.28-.77,2.16-2.42q-1.92-26.16-22.23-42.77C422.75,192.53,414.13,188.76,404.37,186.06Zm-120.1-55.94a8.57,8.57,0,0,1-2,.08c-11.45-3.35-23.17-4-35-3.23-13.75,1-26.43,5.23-37.54,13.59-3.82,2.87-4.61,6-2.45,8.88s5.38,3.22,9.22.45c16.55-12,35.07-13.53,54.47-10.32,4.57.76,9.24,1.38,14.08,3.74-3.59,2.06-6.69,3.63-9.55,5.55-2.7,1.82-3.85,4.45-2,7.53s4.5,3.55,7.53,2.06c7.16-3.55,14.34-7.07,21.38-10.84,4-2.13,4.6-5.38,2-9.16-4.7-6.81-9.54-13.52-14.38-20.23-2.12-2.93-4.95-3.57-8-1.64-3.29,2.07-3,5-1.32,8C281.66,126.32,282.85,127.94,284.27,130.12ZM371.18,342.3c2.75-3.18,4.88-5.55,6.92-8,14.74-17.78,21.61-37.86,17.71-61-.78-4.67-3.36-7.06-6.63-6.43-3.78.72-5.46,3.53-4.62,8.45,3.21,19-2.49,35.54-14.38,50.2-3,3.69-5.73,7.74-10.05,10.73-.68-4.72.15-9-1-13.11-.74-2.66-2.31-4.3-5.22-4.36s-4.56,1.36-5.4,4.09a16,16,0,0,0-.55,6.47c.62,5.79.52,11.59.59,17.39.09,6.06,1.78,7.84,7.85,7.73,7.41-.14,14.81-.52,22.22-.81a13.11,13.11,0,0,0,2.15-.31c3.34-.73,5.05-2.71,4.63-6.22-.41-3.32-2.49-4.74-5.67-4.79C377.16,342.27,374.59,342.3,371.18,342.3Z"/><path class="cls-4" d="M177.29,459.93c-2.5,7.66-4.58,14.08-6.7,20.48-.34,1-.38,2.7-2.06,2-1.22-.47-.58-1.69-.26-2.66q3.67-11.35,7.32-22.73c.27-.85.52-1.87,1.44-2,1.32-.17,1.53,1.19,1.87,2.05,2.09,5.23,4.1,10.49,6.36,16.3,5-3.16,9.62-6.17,14.33-9.11.9-.57,1.74-1.91,3-1.08s.35,2.17,0,3.17q-3.37,10.77-6.93,21.48c-.36,1.09-.35,3.19-2.15,2.47-1.53-.6-.45-2.32-.09-3.46,1.93-6.18,3.95-12.33,6.35-19.74-4.87,3.1-8.8,5.37-12.46,8-2.61,1.89-3.72,1.09-4.69-1.54C181.13,469.45,179.42,465.32,177.29,459.93Z"/><path class="cls-4" d="M248.59,492.16q.65-8.62,1.28-17.25c.07-1,.07-2,.14-3.05s.24-1.95,1.27-2c1.57-.05,1.25,1.33,1.2,2.25-.36,5.94-.56,11.89-1.26,17.79-.33,2.78.8,7.42-1.41,7.94-2.84.67-4-3.81-5.71-6.13-4.33-5.79-8.39-11.77-13.26-18.67-.4,4.56-.73,8.06-1,11.56-.28,3.32-.48,6.65-.78,10-.09.9.17,2.33-1.47,2-1.07-.2-1-1.28-.94-2.14q.81-11.73,1.67-23.44c.09-1.1-.09-2.58,1.41-2.8,1.16-.18,1.56,1.1,2.13,1.9q7.91,11.13,15.77,22.29Z"/><path class="cls-4" d="M366.41,444.85c4,6.37,7.52,11.72,10.85,17.17.66,1.07,2.65,2.49,1,3.64-1.83,1.29-2.21-1.18-2.88-2.21-3.9-5.95-7.7-11.95-11.49-18-.65-1-2.11-2.16-1.13-3.45s2.44-.22,3.61.17c8.51,2.78,17,5.62,26.68,8.85-4.08-6.46-7.55-11.88-10.92-17.35-.68-1.09-2.47-2.57-.61-3.62,1.35-.75,2,1.32,2.63,2.34,4,6.22,8,12.48,11.91,18.75.5.8,1.59,1.58.92,2.65-.87,1.41-2.15.44-3.14.12C385.07,451.07,376.3,448.13,366.41,444.85Z"/><path class="cls-4" d="M369.48,462.75a13.22,13.22,0,0,1-12.62,13.06,12,12,0,0,1-12.16-12.15,13.19,13.19,0,0,1,12.81-12.89A12.14,12.14,0,0,1,369.48,462.75Zm-21.92,1.12a9.15,9.15,0,0,0,9,9.27,10.61,10.61,0,0,0,10.23-10.37,9.17,9.17,0,0,0-9.12-9.14A10,10,0,0,0,347.56,463.87Z"/><path class="cls-4" d="M157.21,452.22c7,.06,12.34,5.28,12.36,12a12.65,12.65,0,0,1-25.3,0C144.31,457.52,150.1,452.16,157.21,452.22Zm0,2.65A9.92,9.92,0,0,0,147,464.1c-.19,5,4.46,9.58,9.8,9.69s10-4.22,10.11-9.32A9.62,9.62,0,0,0,157.19,454.87Z"/><path class="cls-4" d="M315.31,490.56c-.37.41-.59.8-.92,1a1.13,1.13,0,0,1-1.51-.45,18.25,18.25,0,0,1-2.2-3.23c-1.81-3.92-4.54-5.38-8.67-3.58a2,2,0,0,1-.86.16c-5.19-.24-7.34,2.49-7.8,7.41-.13,1.45,0,4.5-2,4.13-2.65-.49-.57-3-.29-4.36,1.52-7.66,3.32-15.28,5-22.9.28-1.21,0-3,1.64-3.19s1.93,1.55,2.62,2.56c4.5,6.59,8.93,13.22,13.38,19.85C314.25,488.77,314.75,489.65,315.31,490.56ZM306,480.87l-7.58-11.25c-1.07,4.85-2,8.86-2.93,13.28Z"/><path class="cls-4" d="M335.44,458.3c-.35,1.81-.36,3.13-3.25,2.18-5.51-1.82-10.28.54-14.08,4.54a11.64,11.64,0,0,0-2.76,12.45c2,5.94,7.8,8.73,14.92,6.82,3.07-.82,6.05-2,8.1-4.75.53-.71,1-2.17,2.26-1.21,1.07.8.28,1.85-.23,2.7-3.71,6.2-16.41,8.26-22.86,3.73-6.17-4.33-7.15-14.31-2-20.53s11.23-7.88,19.37-5.33c.13,0,.4-.35.6-.54Z"/><path class="cls-4" d="M136.33,438.25c-6.65,0-11.29,3.1-13,8s.15,8.8,3.67,12.08c3,2.83,6.49,4.88,10.88,4.59,1-.07,2.26-.35,2.28,1.11s-1.29,1.44-2.29,1.44c-6.87,0-11.87-3.4-15.52-8.86-3.19-4.77-2.9-9.89.55-14.59,3.8-5.17,8.94-7.16,15.26-5.95,5.35,1,9.91,3.28,12.31,8.54.51,1.09,1.5,2.67-.3,3.32s-1.32-1.29-1.78-2.18C145.53,440.44,140.73,438.58,136.33,438.25Z"/><path class="cls-4" d="M213.25,494.27c-8-.07-12.17-4.79-11.22-12.38.68-5.5,2.77-10.65,4.3-15.93.24-.84.65-1.85,1.72-1.56,1.48.42.8,1.7.57,2.56-1.26,4.61-2.89,9.13-3.89,13.8-1.47,6.87,1.52,10.83,7.89,11.1,4,.17,6.57-2,8.15-5.43a35.77,35.77,0,0,0,2.94-12.19c.15-1.73.34-3.46.58-5.19.1-.69.24-1.56,1.2-1.5a1.31,1.31,0,0,1,1.16,1.56c-.55,7.39-.9,14.85-5.42,21.19A8.83,8.83,0,0,1,213.25,494.27Z"/><path class="cls-4" d="M274,497.67c-5.69-.23-11.09-1.95-13.87-8a14.84,14.84,0,0,1,3.46-16.44c4.91-4.54,13-6.24,18.23-3.74a13.07,13.07,0,0,1,2.47,1.73,1.26,1.26,0,0,1,.3,1.9c-.6.72-1.31.31-1.91-.14-5.13-3.8-10.22-2.36-15.09.37a12,12,0,0,0-5.68,13.83c1.31,4.76,5.4,7.64,11.26,7.88,3.86.16,7.56-.27,10.63-2.94.72-.63,1.55-1.12,2.26-.28s-.09,1.67-.68,2.21C282.26,496.83,278.44,497.53,274,497.67Z"/><path class="cls-4" d="M256,483.49v12.18c0,1,0,2.38-1.28,2.32s-1.24-1.36-1.21-2.42q.38-12.18.7-24.36c0-.95.24-1.95,1.28-1.88s1.26,1,1.25,2c0,4.06,0,8.13,0,12.19Z"/><path class="cls-4" d="M335.49,458.36c.76-.65.11-1.31,0-1.95-.14-.82-.7-1.77.41-2.25s1.56.56,1.85,1.3q4.53,11.54,9,23.1c.3.78.61,1.91-.38,2.27-1.31.47-1.66-.78-2-1.71q-3.46-8.91-6.93-17.82c-.44-1.12-.39-2.58-1.93-3Z"/><path class="cls-4" d="M344.21,445.18c1.17-1.38,2.3-2.8,3.52-4.13s2.36-1.77,2.66.69a58.88,58.88,0,0,1-3.78,4.53C345.18,447.68,344.09,447.57,344.21,445.18Z"/><path class="cls-5" d="M234.31,311.19C205.8,292,209.17,258.92,225,242.92c16.83-17,45.13-17,62,0,15.9,16,19.11,49.43-9.14,68.16,5.09,1.81,10.15,2.9,14.89,5,27.52,12,46.05,31.86,53.58,61.22,1.25,4.88,1.51,10,2.28,15,.48,3.15-.55,4.36-4,4.25-7.85-.25-15.72-.08-23.57-.08H168.67c-5.61,0-5.76,0-5.2-5.48,3.7-35.81,23-60.12,55.4-74.74a71.27,71.27,0,0,1,7.36-2.71C228.69,312.73,231.2,312.08,234.31,311.19Z"/><path class="cls-5" d="M137.13,187.69c6.66,2,12.83,4.1,18.44,7.57,15.41,9.55,25,23.06,28.42,40.92.08.43.2.85.26,1.28,1.1,7.79.93,8-7,8H64.61c-5.32,0-5,0-4.59-5.2A55.63,55.63,0,0,1,74.9,206.67a62.51,62.51,0,0,1,28-17.69c1.25-.39,2.49-.78,3.73-1.19.1,0,.17-.18.48-.55-9-5.91-14-14.29-14.17-25a28.83,28.83,0,0,1,8.49-20.84c11.27-11.69,30.55-11.21,42.17,1C155.75,155.14,153.35,173.21,137.13,187.69Z"/><path class="cls-5" d="M404.37,186.06c9.76,2.7,18.38,6.47,25.8,12.53q20.32,16.59,22.23,42.77c.12,1.65-.45,2.48-2.16,2.42-.88,0-1.75,0-2.62,0-38.44,0-76.89-.06-115.33.09-3.85,0-5.15-.92-4.75-4.83,2.19-21.21,13.18-36.42,31.5-46.74a68.5,68.5,0,0,1,16.34-6.18c-11.15-7.57-16-17.53-14.36-30.11a27.06,27.06,0,0,1,10.74-18.35c13.39-10.17,31.64-7.85,41.47,5.51C422.38,155.6,421.45,174,404.37,186.06Z"/><path class="cls-6" d="M126.7,280.42c.75,18.24,7.46,34.11,19.41,47.78a67.16,67.16,0,0,0,14,12.42c2.42,1.57,4.8,3.57,3.54,7.13-1.44,4.1-4.93,5.25-9.14,2.72-11-6.58-19.29-15.8-26-26.52A92,92,0,0,1,115.29,286a5.26,5.26,0,0,0-1.31-3.45c-1.48,1.82-2.86,3.66-4.4,5.35-2.55,2.82-6,3.24-8.51,1.17s-2.72-5.37-.25-8.5c4.59-5.81,9.22-11.6,13.93-17.31,3.24-3.93,5.69-4.22,9.64-.86,6.3,5.37,12.41,11,18.59,16.48,2.76,2.46,2.91,5.37.7,8.12s-5,2.34-7.81.6c-3.34-2.07-5.36-5.79-9.19-7.21a1.34,1.34,0,0,0-.12-.3c0-.05-.15,0-.23-.05Z"/><path class="cls-6" d="M284.27,130.12c-1.42-2.18-2.61-3.8-3.58-5.55-1.64-3-2-5.92,1.32-8,3.06-1.93,5.89-1.29,8,1.64,4.84,6.71,9.68,13.42,14.38,20.23,2.62,3.78,2,7-2,9.16-7,3.77-14.22,7.29-21.38,10.84-3,1.49-5.74.9-7.53-2.06s-.71-5.71,2-7.53c2.86-1.92,6-3.49,9.55-5.55-4.84-2.36-9.51-3-14.08-3.74-19.4-3.21-37.92-1.66-54.47,10.32-3.84,2.77-7,2.47-9.22-.45s-1.37-6,2.45-8.88c11.11-8.36,23.79-12.63,37.54-13.59,11.79-.81,23.51-.12,35,3.23A8.57,8.57,0,0,0,284.27,130.12Z"/><path class="cls-6" d="M371.18,342.3c3.41,0,6,0,8.55,0,3.18.05,5.26,1.47,5.67,4.79.42,3.51-1.29,5.49-4.63,6.22a13.11,13.11,0,0,1-2.15.31c-7.41.29-14.81.67-22.22.81-6.07.11-7.76-1.67-7.85-7.73-.07-5.8,0-11.6-.59-17.39a16,16,0,0,1,.55-6.47c.84-2.73,2.52-4.14,5.4-4.09s4.48,1.7,5.22,4.36c1.15,4.12.32,8.39,1,13.11,4.32-3,7.07-7,10.05-10.73,11.89-14.66,17.59-31.16,14.38-50.2-.84-4.92.84-7.73,4.62-8.45,3.27-.63,5.85,1.76,6.63,6.43,3.9,23.16-3,43.24-17.71,61C376.06,336.75,373.93,339.12,371.18,342.3Z"/><path class="cls-2" d="M347.56,463.87a10,10,0,0,1,10.08-10.24,9.17,9.17,0,0,1,9.12,9.14,10.61,10.61,0,0,1-10.23,10.37A9.15,9.15,0,0,1,347.56,463.87Zm9-3.67c-1.59.46-2.87,1.26-2.78,3.23a2.4,2.4,0,0,0,2.88,2.45,3,3,0,0,0,2.91-3.16C359.47,461.11,358.32,460.22,356.57,460.2Z"/><path class="cls-2" d="M157.19,454.87a9.62,9.62,0,0,1,9.71,9.6c-.1,5.1-4.79,9.42-10.11,9.32s-10-4.7-9.8-9.69A9.92,9.92,0,0,1,157.19,454.87Zm2.73,9a3.11,3.11,0,0,0-3-2.83,2.58,2.58,0,0,0-3,2.45c-.16,1.9,1.22,2.85,3,3S159.66,465.87,159.92,463.87Z"/><path class="cls-2" d="M306,480.87l-10.51,2c1-4.42,1.86-8.43,2.93-13.28Z"/><path class="cls-3" d="M126.7,280.42l-.37-.34c.08,0,.19,0,.23.05a1.34,1.34,0,0,1,.12.3Z"/><path class="cls-4" d="M356.57,460.2c1.75,0,2.9.91,3,2.52a3,3,0,0,1-2.91,3.16,2.4,2.4,0,0,1-2.88-2.45C353.7,461.46,355,460.66,356.57,460.2Z"/><path class="cls-4" d="M159.92,463.87c-.26,2-1.43,2.74-3,2.61s-3.12-1.09-3-3a2.58,2.58,0,0,1,3-2.45A3.11,3.11,0,0,1,159.92,463.87Z"/><rect id="SVGID" class="cls-7" width="512" height="512"/><rect id="SVGID-2" data-name="SVGID" class="cls-7" width="512" height="512"/></svg>