<svg id="Capa_1" data-name="Capa 1" xmlns="http://www.w3.org/2000/svg" viewBox="0 0 512 512"><defs><style>.cls-1{fill:#5f6fa3;}.cls-2{fill:#523359;}.cls-3{fill:#9da4cd;}.cls-4{fill:#eceef5;}.cls-5{fill:#f6f7fa;}.cls-6{fill:none;}</style></defs><path class="cls-1" d="M256,511.92C114.43,511.92,0,397.17,0,255.26,0,114.12,115.19-.26,257.42.08,397.82.41,512.61,115.84,512,257.78,511.4,397.38,396.44,511.92,256,511.92Zm-.75-8.72c137.48.19,248.25-110.89,247.89-248-.35-135.95-110.68-246.89-248-246.45A247,247,0,0,0,8.77,256.46C9,392.81,119.29,502.74,255.25,503.2Z"/><path class="cls-2" d="M255.25,503.2C119.29,502.74,9,392.81,8.77,256.46A247,247,0,0,1,255.11,8.79c137.35-.44,247.68,110.5,248,246.45C503.5,392.31,392.73,503.39,255.25,503.2Zm113.06-181c2.89,1.39,4.76.32,6.42-.77,3.16-2.07,6.21-4.33,9.21-6.63,3.81-2.92,7.17-6.43,11.37-8.85,1-.57,2.21-1.37,3.18-.38s-.21,1.89-.61,2.72a120.12,120.12,0,0,1-8.38,14.83c-6.59,9.94-15.82,15.59-27.56,17.4-14.26,2.2-28.35,4.95-41.6,11.1-6.4,3-9.35,7.94-10.52,14.47-1.73,9.6-.93,19.16.36,28.71,2.51,18.66,7.71,36.71,12.25,54.92.8,3.2,1.78,3.35,4.55,2.35C418.6,419,475.73,325.18,462.7,228.8c-5-36.84-18.16-70.56-41.49-99.59C370,65.53,303.36,38.82,222.61,50.39c-50.83,7.28-93,32.07-126.06,71.45C59.25,166.31,43.47,218,48.44,275.67a200.34,200.34,0,0,0,36.67,99.69q40.83,57.83,108.31,79.54c1.94.62,3.84,1.87,5.13-1.52,5.78-15.24,12.3-30.2,17.15-45.78,4.07-13.09,7.78-26.27,6.58-40.24-.5-5.82-2.8-10-8.8-12.2a182.13,182.13,0,0,0-34.67-8.59c-10.25-1.6-20.55-2.87-28.84-10-7.13-6.16-11.34-14.34-15.56-22.5-.62-1.2-2.2-2.73-1-3.88,1.43-1.38,3,.28,4.18,1.17,5.21,4,10.28,8.14,15.47,12.14a18.49,18.49,0,0,0,6.82,3.79c.9.22,2.17.73,2.63-.59.36-1-.79-1.41-1.46-1.88-3.91-2.79-8-5.37-11.75-8.36-10.07-8-19.76-16.44-25.64-28.25-1.06-2.13-3.3-5.37-1.45-6.7s4.07,1.88,5.77,3.5c8.21,7.86,15.66,16.51,24.53,23.69,3.46,2.79,7,5.55,11.91,6.31-.94-2.08-2.52-3-3.82-4.05a176.48,176.48,0,0,1-17.3-16.06c-9-9.8-17.52-20-21.12-33.22-.43-1.61-1-3.2-.16-4.86,2.21.55,3.07,2.19,4.17,3.49,10,11.93,19.22,24.58,30.73,35.22a76.3,76.3,0,0,0,15.79,11.64c.83.44,1.8,1.41,2.7.25.64-.84-.11-1.67-.5-2.4-1.7-3.13-4.39-5.43-6.86-7.89-6.61-6.58-13.52-12.9-18.45-21-2.38-3.89-4.3-7.93-4.4-12.63-.06-2.79,1.18-3.16,3.06-1.58a74.79,74.79,0,0,1,6.63,6.33c8.85,9.49,17.23,19.43,27.09,27.92,7,6,14.16,11.74,23.49,13.74,4.29.92,5.43-.14,4.32-4.4-1-3.79-2.45-7.46-3.52-11.24-1.12-3.94-1.94-8-.48-12,.49-1.35.93-2.87,2.67-3.16s2.64.93,3.45,2.18a12.88,12.88,0,0,1,1.33,2.26c3.8,9.95,10.69,17.51,18.36,24.65,9.72,9.05,16.46,20,18.82,33.26,5.05,28.37,3.48,56.91,2,85.43-.59,11.5-1.39,23-2.16,34.46-.14,2.13.32,3.18,2.78,3.19,8.17.05,16.3-.67,24.44-1.19,3-.19,3.75-1.51,3.55-4.45-.53-7.85-1.06-15.72-.95-23.58.37-28.12,1.41-56.21,5.25-84.12,2.18-15.86,6.34-31.12,15.09-44.75,6.35-9.89,14.93-18.32,19.25-29.54a4.09,4.09,0,0,1,.79-1c2-2.38,3.77-1.93,5,.7,1.66,3.61,1.39,7.45.49,11.15-1.14,4.65-2.69,9.21-4.08,13.8-1.06,3.49.32,4.55,3.72,4,6.38-1.06,11.73-4.27,16.81-8,9.36-6.81,17.29-15.17,25.12-23.64,4.75-5.13,9.5-10.27,14.39-15.26,1-1,2.28-2.92,4-1.72,1.44,1,.72,2.94.4,4.5a35.23,35.23,0,0,1-6.75,14.06c-5,6.69-11.22,12.24-17,18.16a73.67,73.67,0,0,0-5.39,6.3c-.67.85-1.62,2.06-.51,3.11.92.87,1.91-.21,2.73-.65a71.7,71.7,0,0,0,15.08-11.13c10.83-10.06,19.88-21.69,29.07-33.19,1.78-2.22,3.49-4.54,6.51-5.56-5.15,25.88-24.85,41.1-43.44,58.09,5-.82,8.2-3,11.31-5.44,8-6.18,14.67-13.74,21.82-20.81,2.48-2.46,5.1-4.78,7.69-7.12.64-.58,1.46-1.14,2.32-.43.69.56.28,1.34.11,2a30.24,30.24,0,0,1-4.1,9.12c-5.52,8.57-12.69,15.58-20.66,21.8C379.71,314,374.18,317.88,368.31,322.23ZM254.25,485h-.46c0,3.5,0,7,0,10.49,0,1.09-.47,2.85,1.06,2.9,1.86.06,1.39-1.83,1.41-3,.14-6.41.14-12.82.35-19.23.05-1.48-.88-4,2.05-3.84,2.66.17,1.37,2.42,1.37,3.78,0,4.36-.63,8.74.26,13.07,1.34,6.51,4.34,9.05,10.34,9,6.22-.06,10-3.32,11.14-9.49,1.12-5.86.34-11.61-.74-17.35-.19-1.07,0-2.76-1.67-2.45s-.94,1.83-.76,2.94c.9,5.6,2.07,11.18.65,16.89-1.28,5.1-4.26,7.38-9.46,7-4.46-.31-6.83-2.58-7.2-7.73-.31-4.35,0-8.74,0-13.1,0-1.86.67-2.65,2.52-2.62a1.36,1.36,0,0,0,1.5-1.26c0-1-.83-1.08-1.55-1.1q-8.73-.3-17.47-.55c-.94,0-1.81.22-1.76,1.39,0,1,.86,1,1.59,1a19.59,19.59,0,0,0,3.06.08c3-.32,4.12.9,3.84,4S254.25,481.89,254.25,485Zm41-18.6a24.88,24.88,0,0,0-2.6.26c-7.22,1.48-9.52,4.82-8.3,12.12.84,5,1.76,10,2.65,15,.21,1.19-.06,3.08,1.81,2.71,1.48-.3,1-2.09.57-3-2.14-4.82.42-6.93,4.33-9,2.33-1.24,2.94-.76,4.07,1.24a13.42,13.42,0,0,0,8.56,6.94c1.7.4,4.54,1.22,4.9-.83.39-2.27-2.41-.93-3.74-1.3-4-1.08-6.42-3.76-8.31-7.18-1.73-3.14,1.81-3.72,2.73-5.55,1.35-2.68,1.81-5.25.34-7.87S298.26,466.2,295.24,466.35ZM315,488.51c.56.73-1.07,2.73.81,3,1.71.21,1.38-1.83,1.65-3a12.67,12.67,0,0,0,.22-2.61c0-3.75,1.78-5.35,5.49-6.8,5.72-2.23,9.48-1.48,12.5,3.8.53.92,1.38,2.84,2.92,1.53,1.22-1-.29-2.07-1-2.89q-8.06-9.78-16.19-19.48c-.62-.74-1.11-1.95-2.35-1.58s-1.13,1.62-1.24,2.56C316.89,471.39,316,479.78,315,488.51Zm-121.9-27.4a42.91,42.91,0,0,0-4.42.76c-8.1,2.1-13.16,11-10.45,18.17,2.77,7.37,14.42,12.77,21.08,9.74.86-.39,2.17-.8,1.74-2.1-.51-1.54-1.65-.54-2.53-.29-4.84,1.37-9.24.09-13.26-2.52-5.37-3.48-6.72-9.33-3.67-14.83,4.26-7.68,16.91-8.8,22.5-2,.6.73.78,2.78,2.34,1.37,1.06-1,.07-2.21-.63-3.08C202.73,462.52,198.53,461.25,193.11,461.11Zm13.46,22.21c-.12,6.89,2.4,10.45,7.56,11.74,5.61,1.4,10.25-.51,12.91-5.53,2.87-5.4,3.34-11.38,3.82-17.32.1-1.3.9-3.53-1-3.7-2.09-.18-1.37,2.13-1.46,3.41-.36,5.08-.8,10.16-2.78,14.92-1.39,3.37-3.51,6-7.65,6.12-7,.2-10.25-4.11-8.6-12,.92-4.4,2.28-8.7,3.46-13,.22-.84.66-1.79-.45-2.22s-1.44.57-1.69,1.4C209,472.74,207,478.37,206.57,483.32Zm28.83-9.55a11.14,11.14,0,0,0,0-1.81c-.17-1.16.81-3.16-1.07-3.2-1.61,0-1.3,2-1.4,3.19-.59,7.4-1.12,14.79-1.71,22.19-.16,1.91-.15,3.51,2.41,3.64,4.79.26,9.58.63,14.37.91,1.1.06,2.67.38,2.66-1.28,0-1.23-1.42-1.17-2.44-1.24-3.78-.25-7.55-.74-11.32-.74-2.7,0-3.44-.7-3.09-3.47C234.53,486.05,234.86,480.08,235.4,473.77Z"/><path class="cls-3" d="M368.31,322.23c5.87-4.35,11.4-8.28,16.74-12.46,8-6.22,15.14-13.23,20.66-21.8a30.24,30.24,0,0,0,4.1-9.12c.17-.69.58-1.47-.11-2-.86-.71-1.68-.15-2.32.43-2.59,2.34-5.21,4.66-7.69,7.12-7.15,7.07-13.84,14.63-21.82,20.81-3.11,2.41-6.34,4.62-11.31,5.44,18.59-17,38.29-32.21,43.44-58.09-3,1-4.73,3.34-6.51,5.56-9.19,11.5-18.24,23.13-29.07,33.19a71.7,71.7,0,0,1-15.08,11.13c-.82.44-1.81,1.52-2.73.65-1.11-1.05-.16-2.26.51-3.11a73.67,73.67,0,0,1,5.39-6.3c5.82-5.92,12-11.47,17-18.16a35.23,35.23,0,0,0,6.75-14.06c.32-1.56,1-3.47-.4-4.5-1.7-1.2-3,.71-4,1.72-4.89,5-9.64,10.13-14.39,15.26-7.83,8.47-15.76,16.83-25.12,23.64-5.08,3.7-10.43,6.91-16.81,8-3.4.56-4.78-.5-3.72-4,1.39-4.59,2.94-9.15,4.08-13.8.9-3.7,1.17-7.54-.49-11.15-1.22-2.63-3-3.08-5-.7a4.09,4.09,0,0,0-.79,1c-4.32,11.22-12.9,19.65-19.25,29.54-8.75,13.63-12.91,28.89-15.09,44.75-3.84,27.91-4.88,56-5.25,84.12-.11,7.86.42,15.73.95,23.58.2,2.94-.54,4.26-3.55,4.45-8.14.52-16.27,1.24-24.44,1.19-2.46,0-2.92-1.06-2.78-3.19.77-11.48,1.57-23,2.16-34.46,1.45-28.52,3-57.06-2-85.43-2.36-13.29-9.1-24.21-18.82-33.26-7.67-7.14-14.56-14.7-18.36-24.65a12.88,12.88,0,0,0-1.33-2.26c-.81-1.25-1.71-2.46-3.45-2.18s-2.18,1.81-2.67,3.16c-1.46,4.05-.64,8.07.48,12,1.07,3.78,2.53,7.45,3.52,11.24,1.11,4.26,0,5.32-4.32,4.4-9.33-2-16.51-7.74-23.49-13.74-9.86-8.49-18.24-18.43-27.09-27.92a74.79,74.79,0,0,0-6.63-6.33c-1.88-1.58-3.12-1.21-3.06,1.58.1,4.7,2,8.74,4.4,12.63,4.93,8.05,11.84,14.37,18.45,21,2.47,2.46,5.16,4.76,6.86,7.89.39.73,1.14,1.56.5,2.4-.9,1.16-1.87.19-2.7-.25a76.3,76.3,0,0,1-15.79-11.64c-11.51-10.64-20.7-23.29-30.73-35.22-1.1-1.3-2-2.94-4.17-3.49-.79,1.66-.27,3.25.16,4.86,3.6,13.26,12.11,23.42,21.12,33.22a176.48,176.48,0,0,0,17.3,16.06c1.3,1.09,2.88,2,3.82,4.05-4.94-.76-8.45-3.52-11.91-6.31-8.87-7.18-16.32-15.83-24.53-23.69-1.7-1.62-3.78-4.94-5.77-3.5s.39,4.57,1.45,6.7c5.88,11.81,15.57,20.24,25.64,28.25,3.76,3,7.84,5.57,11.75,8.36.67.47,1.82.84,1.46,1.88-.46,1.32-1.73.81-2.63.59a18.49,18.49,0,0,1-6.82-3.79c-5.19-4-10.26-8.17-15.47-12.14-1.17-.89-2.75-2.55-4.18-1.17-1.19,1.15.39,2.68,1,3.88,4.22,8.16,8.43,16.34,15.56,22.5,8.29,7.16,18.59,8.43,28.84,10a182.13,182.13,0,0,1,34.67,8.59c6,2.19,8.3,6.38,8.8,12.2,1.2,14-2.51,27.15-6.58,40.24-4.85,15.58-11.37,30.54-17.15,45.78-1.29,3.39-3.19,2.14-5.13,1.52q-67.33-21.81-108.31-79.54a200.34,200.34,0,0,1-36.67-99.69c-5-57.7,10.81-109.36,48.11-153.83,33-39.38,75.23-64.17,126.06-71.45C303.36,38.82,370,65.53,421.21,129.21c23.33,29,36.51,62.75,41.49,99.59C475.73,325.18,418.6,419,327,452.1c-2.77,1-3.75.85-4.55-2.35-4.54-18.21-9.74-36.26-12.25-54.92-1.29-9.55-2.09-19.11-.36-28.71,1.17-6.53,4.12-11.49,10.52-14.47,13.25-6.15,27.34-8.9,41.6-11.1,11.74-1.81,21-7.46,27.56-17.4a120.12,120.12,0,0,0,8.38-14.83c.4-.83,1.49-1.84.61-2.72s-2.18-.19-3.18.38c-4.2,2.42-7.56,5.93-11.37,8.85-3,2.3-6.05,4.56-9.21,6.63C373.07,322.55,371.2,323.62,368.31,322.23Zm-97.68-21.42-.9-.89c-1.19-1.54-2.62-1.34-4.28-.83-2.37.73-4.6.49-6.19-1.76a3.62,3.62,0,0,0-1.89-2.53c-2-2.63-4.91-1.92-7.22-1.28-2.48.7-1.41,3.48-1.53,5.38-.37,5.65-.74,11.3-.84,17-.13,8-1.25,7,7.2,7,1.42,0,3.69.83,3.82-1.59.15-2.73,2.08-4,3.59-5.71,2.57-2.92,5.95-5.18,7.36-9.05,2.16-1.25,2-3.51,2.37-5.51a368.06,368.06,0,0,0,37.29-11.63,2.71,2.71,0,0,0-2.16-.46q-16.46,4.88-32.87,9.84c-1.12.33-2.25.78-2.23,2.28Zm52.81-128.14c.41,1,.4,2.32,1.75,2.88.7-1.72-.22-2.54-1.22-3.33-2.47-2.3-4.92-2.36-7.34.07l-1.64,1c.45-2.17,1-4.11,3.83-4.31,3.24-.23,5.95.23,7.35,3.59.43,1,0,2.66,1.88,2.61.29-1.42-.55-2.23-1.41-3,.92-3.33-2.43-5.17-2.82-8-.86-6.19-3.65-12.17-2-18.66.3-1.19-.22-2.53-2.7-4C320.4,154,317,164.76,312,175.29c2.21.21,1.95-1.71,3.08-2,.13.78-.32,2.17.65,2.15,1.52,0,.92-1.8,1.44-2.72A12.64,12.64,0,0,1,323.44,172.67ZM271.27,277.4c.51,5.33,2.58,10.23,4.17,15.27a1.9,1.9,0,0,0,2,1.35c-.76,1.62-3.89.21-4,3.46,11.39-3.4,22.53-6.34,33.9-10.44-1.94-1.33-3.29-.52-4.53-.86-.46-6.22-2.69-11.92-5.23-17.52,1.41-.06,2.87,0,3.35-2.31-6.95-1-13.4-3.66-20.38-2.4l16.06,3.25L289.35,270c-4.55,1.26-9.09,2.57-13.67,3.73-1.2.3-2.69,1.62-3.61.64-1.75-1.88-2.35-.16-3.28.65-.52.46-1.23,1.14-.73,1.82C268.87,278,270.21,277.06,271.27,277.4Zm141.55-1.57c-.51,4.76,3.85,5,6.45,6.62a6.33,6.33,0,0,0,9.13-2.84c2.78-5.6,5.44-11.26,8.19-16.88s1.33-8.64-5-10c0-.52-.09-1.05-.14-1.57l0,0,4.12-.2c-3-1.2-1.38-5-5.22-4.8-2.12.1-4.45-2.15-6.44-1.82-4,.66-6.33,3.52-7.27,7.79-1.23,5.52-3.17,10.87-4.72,16.32A8.12,8.12,0,0,0,412.82,275.83ZM121.63,252h0c.16,3.59,1.48,4.65,4.52,2.11,1.78-1.49,3.64-2.89,5.42-4.38,1.36-1.13,3.87-1.76,3-4.17s-2.54-5.3-4.7-5.32c-4.17-.05-5.13-3-5.46-5.47-.72-5.3-3.9-6.85-8.47-8-7.47-1.8-7.23-2.05-7.37,5.63-.08,4.63.68,8.05,5.68,9.93,2.48.93,5.64,2.59,4.35,6.83C118.15,250.6,119.67,252.1,121.63,252Zm-11.38,7.85c1.12-.32,2,1.35,3.65.06-2.86-3.31-6.41-5.7-9.76-8.32-.51-.4-1.29-.45-1.41.16s.34,1.33.55,2c-3.82.79-6.65,4.73-7,9.66-.15,1.93.46,4-.56,6.22-1.82-1.22-1.89-2.75-2.1-4.3A123.51,123.51,0,0,1,92.75,248c.06-12.24-1.84-13.51-13.13-8.91-.4.17-.8.35-1.21.5-1.36.48-1.58,1.54-1.45,2.8.17,1.58,1.31,1.86,2.53,1.69a20.35,20.35,0,0,0,4.65-1c2-.81,2.69-.08,2.59,1.86-.16,3-.29,6.09-.52,9.13-.46,6.09-1.26,12.22.62,18.18,1.7,5.4,6.81,8,13,7,4.27-.71,6.22-3.53,6.09-9.54-.06-2.84.81-4.92,3.34-6C111.37,262.68,111.28,261.5,110.25,259.89ZM177.32,257l-.9.89c-6.1,5-5.41,11.54,1.52,14.56,3.86,1.69,7.67,3.5,11.56,5.12,4.13,1.73,7.42.41,9.45-3.53,1.61-3.11,2.36-6.68,1.21-9.72-1.83-4.82-1.1-8.66,2-12.48,1.33-1.65,1.22-3.19-1-4.14-3.61-1.51-7.21-3.07-10.81-4.63-1.32-.57-2.69-1-3,1-.81,5.62-3.45,9.69-9,11.55C177.85,255.7,177.64,256.47,177.32,257ZM357,135.66c4,.12,2.53-2.18,1.5-3.83s-1-4.92-3.39-4.27c-1.9.52,1,2.95.16,4.61a8,8,0,0,1-1.51-1.45c-3.5-5.76-3.91-5.9-9.92-2.89-5.48,2.73-10.95,5.46-16.4,8.25-4.91,2.5-5.37,3.57-2.95,8.49q9.15,18.63,18.56,37.14c2.26,4.46,4.25,5,8.89,2.75,5.76-2.8,11.48-5.69,17.2-8.58,4.75-2.4,5.32-3.68,3-8.6-1.26-2.68-1.22-4.65,1.26-6.42a3.47,3.47,0,0,0,1.18-4.94c-2.4-4.66-4.68-9.39-7.06-14.06-1-2-2.51-3.19-4.95-2.31C358.88,140.89,357.49,138.9,357,135.66ZM229.92,274.6c.14.11.27.23.4.35-1.32,3.89-3.65,7.26-5.56,10.86-.45.86-1.28,2-.14,2.71,1.33.86,2.1-.34,2.7-1.36s1.2-2.33,1.84-3.48c1.54-2.75,3.11-5.49,4.66-8.24,0,5.08-.6,9.83-1,14.59-.1,1.21-1.09,3.4,1.1,3.52,1.53.08,1.31-1.93,1.48-3.2.65-5.1,1.33-10.2,2-15.29,2,.14,3.08,1.29,4.39,1.85s3,2.55,4.07.42c.85-1.66-1.43-2.07-2.53-2.87-1.81-1.33-4.75-1.43-5.24-4.74,1.7-.14,2.74.7,3.83,1.28,3.86,2.06,7.73,4.1,11.5,6.29,2.36,1.36,4.05,1.14,5.39-1.35,4-7.44,8-14.88,12.1-22.26,1.29-2.32.84-3.61-1.5-4.82-4.66-2.4-9.2-5-13.77-7.6-.82-.46-2.18-.73-1.78-2.09.49-1.67,1.59-.48,2.47-.35,1.08.17,3.2-.26,2.06-1.16-3.89-3.07-.9-5.27.24-7.82.62-1.39,2.33-3.29.63-4.24s-2.46,1.46-3.13,2.78c-1.54,3.09-2.6,6.73-7.24,4.52a1.8,1.8,0,0,0,.61,2.23c.7.65,2.08,1.29,1.25,2.37-1,1.3-2.06,0-3-.53-4.35-2.36-8.78-4.6-13-7.15-2.88-1.73-4.37-.91-5.79,1.86-2.67,5.18-5.75,10.14-8.37,15.34-5.23,10.35-7.36,8.48,4.51,14.69,2.94,1.54,6.06,2.87,8.75,5.47-2.36,1.2-3.67.09-5.07-.6-1.86-.92-4.45-3.63-5.6-1.72-1.44,2.38,2.24,3,3.92,3.86,2.69,1.43,2.13,2.47.17,4-3.45,2.67-6.79,5.49-10.19,8.23-.91.72-2.32,1.44-1.41,2.7,1.15,1.61,2.19.16,3.23-.59C222.64,280.33,225.81,276.84,229.92,274.6ZM385.73,162.45c-1.66.48-2.6-2.9-4.47-.89-1,1.09-.12,2.3.46,3.18,2,3.12,2.84-.09,4.11-.92,1,2.23,3.69,3,4.32,5.75,1.08,4.65,2.51,9.24,4,13.79a3.54,3.54,0,0,1-1.37,4.51c-7.35,5.68-8,9.53-2.27,16.54a9.47,9.47,0,0,1,1.95,9.28,28.67,28.67,0,0,0,.54,17.12c2,5.68,6.1,8.63,12.06,9.06,7.81.56,15.18-1,21.62-5.36,10.59-7.21,12.43-13.34,6.65-23.4a22,22,0,0,0-6.47-7.56c-4.21-2.86-6.47-6.63-6.54-11.61-.12-8.65-5.22-10.76-12-9.73-1.62.25-2.92.29-3.51-1.5-2.45-7.39-8.3-13.75-6.7-22.35,1.45.64,3.32,2.55,3.49-1,0-1.21-.59-2.51-2-2.38-2.32.2-1.16,2.19-1.45,3.43-2.31-1.76-3.72-4-3.49-7,.08-1.17,0-2.52-1.18-3.08-3-1.42-5.63.14-8.26,1.22-2.11.87-3.94,2.06-3,4.88-1.32-.59-2.86-1.65-3.35.76-.28,1.42-.16,3.42,1.56,3.59,2.45.23,1.82-2,1.94-3.51C385,156.94,385.22,159.77,385.73,162.45ZM271.54,192.83l-.48-.49c2.24-3.48,1.61-6.81-.29-10.23-2.48-4.45-4.73-9-7.16-13.51-.92-1.7-1.34-3.08.5-4.53,5.27-4.13,10.45-8.38,15.66-12.58,1.91-1.55,3-.84,4,1.18a98.52,98.52,0,0,0,4.8,9.31c1.73,2.84,2.07,4.8-1.6,6.27-1.18.47-2,2-2.76,3.26-1,1.71-1.36,3.79.09,5.29,1.63,1.7,3.74,1.19,5.62.1,4.05-2.35,5.35-6.21,3.24-10.45-3.5-7-7.23-14-10.78-21-1.14-2.23-2.48-2.65-4.45-1.06-5.9,4.74-11.77,9.52-17.74,14.16-2.32,1.81-2.4,3.62-1.06,6,2.67,4.84,5.07,9.83,7.77,14.66,1.43,2.57,2.11,4.45-1.3,6.12a7,7,0,0,0-3.79,6.88c.17,3.41,3.29,2.75,6.33,3.14-5.76,4.66-6.47,10.28-5.48,16.05,3.5,20.48,13.46,36.75,32,47,11,6.09,21.64,3.63,28.52-6.94,11.62-17.83,11.6-37,5-56.48-3.49-10.34-11-14.14-21.65-11.42C294.83,186.59,283.2,189.74,271.54,192.83Zm-89.6-17.07c2.7-.07,4.46-2,6.23-4,3.14-3.5,6.78-5.08,11.68-4a13.3,13.3,0,0,0,13.17-4A12,12,0,0,1,224.83,160c4.71,1,9.42.35,13-3.43,3.93-4.21,8.45-5.3,13.87-3.45,3.62,1.24,6.7.21,8.51-3.23s-.07-5.77-2.83-7.71c-3.38-2.36-4.56-5.36-3.15-9.47a8.73,8.73,0,0,0-3.08-10.2c-3.45-2.66-4.08-5.58-2.91-9.57,1.05-3.55.56-7.47-2.43-9.65C241,99.77,241,95.89,242.67,91c1.29-3.73-1-6.49-5-6.89-3.11-.32-4.86,1.7-6.53,3.7-3.08,3.67-6.73,5.14-11.57,4.3s-9.59-.33-13.28,3.7-8.18,4.7-13.21,4a14.64,14.64,0,0,0-13.46,4.57A10.14,10.14,0,0,1,168,106.91c-3.77-1.46-7.06-.93-9.08,2.67s.44,6,3,8.12c2.85,2.35,3.88,5,2.82,8.85-1.18,4.25-.39,8.37,3.56,11.35,2.66,2,3.62,4.58,2.7,8.07s-1.43,7.66,1.73,10.24c4.36,3.57,5.46,7.27,3.5,12.61C174.8,172.75,177.46,175.63,181.94,175.76Zm26.39,16-.1-.63q14.82-4.89,29.63-9.79c8.11-2.66,8.08-2.64,5.26-10.36-.8-2.21-1.93-2.9-4.28-2.12q-20.7,6.87-41.47,13.53c-2.47.8-3.28,2.21-2.19,4.59,2,4.39,1.92,9,1.88,13.72-.07,7.28.05,14.57-.07,21.85-.06,3.44,1.12,5.06,4.8,5q20.78-.17,41.53,0c3.61,0,4.44-1.52,4.39-4.76-.15-8.59-.28-17.2,0-25.78.16-4.34-1.38-5.47-5.5-5.38C230.94,191.86,219.64,191.71,208.33,191.71Zm-85-12.41c-.28-1.74-1.66-2.24-2.67-3-6.76-4.79-13.62-9.45-20.36-14.28-2.19-1.58-3.37-.69-4.62,1.1Q82.62,182,69.48,200.75c-1.49,2.12-1.27,3.48.93,5,7.1,4.82,14.12,9.77,21.1,14.76,2.32,1.66,3.41.21,4.55-1.42q13-18.62,25.93-37.25A22.27,22.27,0,0,0,123.33,179.3Zm267,47.4c.2-10.77-3.19-16.1-11.66-18.53-11.86-3.4-23.87-6.3-35.84-9.31a12.24,12.24,0,0,0-7.3.7c-1.16.44-2.25,1-1.94,2.46s1.54,2,3,1.55a13.17,13.17,0,0,1,7.31-.11c11,2.8,22,5.55,32.94,8.42,5.55,1.46,8.48,5.21,9.07,11,.46,4.46-.5,8.68-1.82,12.87-5,16-14.31,28.53-29.62,36a14.93,14.93,0,0,1-14.26-.41c-5.89-3.19-8.8-8.66-11.3-14.5-.65-1.51-.68-4.41-3.5-3.19-2.57,1.11-1,3.3-.39,4.91a43.27,43.27,0,0,0,3.25,6.67c8,13.19,21.17,16.07,34,7.39a62.15,62.15,0,0,0,13.93-13.11C384.26,249.29,389.09,237.8,390.33,226.7Zm-110.26-97c-.05,8.83-.06,9,6.95,10s14.1,1.88,21.15,2.86a9.92,9.92,0,0,0,8.76-2.64c5-4.66,10.29-9,15.44-13.53.71-.62,2.07-1.4,1.3-2.39-1.07-1.37-2.06,0-2.87.75-5.16,4.49-10.31,9-15.4,13.56a7,7,0,0,1-6.67,2c-6.85-1.26-13.81-1.91-20.71-2.87-2.55-.35-6.68.41-5.91-3.69.66-3.54,4.46-1.55,6.69-1.32,7.21.75,14.37,2,21.55,3.05a5.55,5.55,0,0,0,4.83-1.41c6-5.34,12-10.58,18-15.88.68-.6,2.21-1.11,1.09-2.28-.93-1-1.82.16-2.57.8-5.64,4.82-11.34,9.58-16.86,14.53A6.39,6.39,0,0,1,309.3,133c-8.2-1.15-16.39-2.33-24.6-3.41-1.91-.25-3-1-2.86-3,.2-2.24,1.62-2.28,3.47-2,7,1.09,14.07,2.14,21.13,3,2.21.27,4.56.85,6.65-1,6.79-6,13.67-11.79,20.52-17.66.66-.56,1.6-1,1.37-2-.31-1.36-1.62-1-2.54-1.16-7.75-1.15-15.52-2.23-23.28-3.35a7.74,7.74,0,0,0-6.68,2.3c-5.53,5-11.15,9.83-17,14.35C281.59,122,278.61,125,280.07,129.7Zm-143.66,68c-6,0-11.15,3.48-12.55,8.88-.8,3.11-2.54,7.71-1.17,9.25,2.2,2.49,4.41,5.88,8.07,6.91,2.45.69,3.35,2.37,4.11,4.56,2.51,7.27,5.2,14.49,7.8,21.73.7,2,1.45,4.11,3.66,4.53s2.93,1.52,3.58,3.58c.94,2.93,4.41,3.51,6.79,1.48,1.8-1.55,2.73-3.74,4-5.69,1.14-1.75,2.44-3.34,4.95-2.6,1.1.32,2.67,1.78,3.14-.35.39-1.76-1.47-2.32-2.82-2.78-2.57-.88-4.59.35-6.16,2.19-1.3,1.54-2.25,3.37-3.41,5.05-.7,1-1,2.6-2.68,2.45a1.87,1.87,0,0,1-1.21-1.1c-.58-1.47.22-2.59,1.35-3.35,3.29-2.23,3.24-5.11,2-8.45-2.71-7.2-5.26-14.47-8-21.66A6.45,6.45,0,0,1,148,217C152.79,205.38,146.34,198.73,136.41,197.72Zm16.28-52.47v0c-3.49,0-7,0-10.48,0a6.67,6.67,0,0,0-4.48,1.38c-5.1,4.11-10.2,8.19-15.26,12.34-2.16,1.78-4,3.59.33,5.12,1.11.39,1.15,1.92,1.65,3,2.25,4.77,3,9.85,3.34,15,.07,1,0,2.27,1.23,2.51a5.48,5.48,0,0,0,4.43-1.37c1-.82,0-1.87-.43-2.76-1.6-3.69-5.08-6.41-5.53-10.71-.2-1.94-3.13-4.6-.5-5.55s2.62,2.84,3.22,4.66c1.22,3.75,3,6.74,7.26,7.05a30.9,30.9,0,0,0,22.94-7.74c2.84-2.41,3.79-5.51,2.08-9-2-4-2.27-7.44,2.17-10a2,2,0,0,0,1.09-2.59c-.46-1.08-1.51-1.25-2.58-1.25Zm38.08,62.36c.38-3.25-.67-6.75-2.07-10.12-2.88-6.93-10.27-11.18-16.76-9.79-15.65,3.35-24.69,23-17,37,2.66,4.86,9.15,8.76,13.61,8,5.91-1.06,7.55-5.22,7.41-10.61,0-1.68.9-2.12,2.56-2.05C187.71,220.37,190.72,217.42,190.77,207.61ZM262,73.44c.09,3.87,3.7,5.18,4.79,8.81-4.78,0-9.11.09-13.44,0-2.74-.07-4,.92-4,3.79.08,6.26.06,12.53,0,18.79,0,2.57,1,3.72,3.64,3.71,10.92,0,21.85-.06,32.78,0,2.79,0,3.94-1.1,3.89-3.91-.1-6.11-.14-12.24,0-18.35.07-3.11-1.29-4.11-4.21-4-4.45.12-8.91,0-13.42,0,.3-2.65,3.52-3.35,3.21-6.27a8.65,8.65,0,0,0-3.84,3.23c-1.58,2-2.62,2.11-4.19-.16C265.78,77,263.76,75.3,262,73.44ZM346.81,245a15.62,15.62,0,0,0-8,1.78c-1.26.61-2.32,1.46-1.59,3.05a2,2,0,0,0,2.94,1c6.76-3,12.43-1.67,17,4.24.83,1.06,2,1.87,3.35.7s.69-2.31-.09-3.45C357.14,247.47,352.53,245.2,346.81,245ZM155,132.19c0-4.66-2.83-7.78-7.31-7.91a8,8,0,0,0-8.34,7.66,8.21,8.21,0,0,0,7.59,8A7.67,7.67,0,0,0,155,132.19Zm114.82-19.31c-2.41,2.16-1.93,4.58-1.76,6.7.29,3.44-.61,5.3-4.46,4.73-.9-.13-2.38-.33-2.35,1.12,0,1.2,1.37,1.46,2.39,1.32,3.9-.58,4.65,1.42,4.44,4.8-.12,1.87-.87,5.4,1.18,5.29,2.49-.14,1.16-3.57,1.17-5.48,0-3,.3-5.21,4.18-4.62,1.2.18,3.18.33,3.11-1.37s-2.12-1.17-3.23-1c-3.47.42-4.24-1.2-4-4.29C270.57,117.86,270.91,115.53,269.78,112.88Zm111.74,73.78c-.3-2.67-2.07-4.63-5.58-4.6s-5.24,2.27-5.56,5.51c-.26,2.72,2.79,5.71,5.51,5.75C379.11,193.36,381.58,190.76,381.52,186.66ZM114,149a1.13,1.13,0,0,0-1,1.2c.18,2.8-.28,5-3.67,5.57-.93.16-.64,1.73.48,1.69,3.43-.13,3.15,2.1,3.11,4.33,0,1-.24,2.33,1.22,2.32.94,0,1.28-1.07,1.29-2,0-2.29-.44-4.65,3.27-4.76,1.54,0,.81-1.87-.22-2-3.15-.29-3.12-2.33-3.05-4.61C115.4,149.86,115.17,149,114,149Zm312.58,16.16c-5.25.32-5-2.7-4.86-5.71,0-.77-.27-1.52-1.13-1.61a1.17,1.17,0,0,0-1.3,1.37c.47,3.32-.53,5.64-4.52,6.38,3.44.46,5.1,1.85,4.48,5.14-.17.85.11,2,1.14,2.05s1.47-1,1.31-1.83C421,167.56,422.88,166.16,426.55,165.13Zm-86.27,60.65c-1.63,0-3.21-.35-3.68,1.26-.54,1.86,1,2.57,2.43,3,2.1.55,4.26.87,6.37,1.39,1.35.34,2.36.12,2.7-1.32a1.92,1.92,0,0,0-1.44-2.37C344.46,227,342.21,226.35,340.28,225.78Zm23.49,6.09c-1.66,0-2.77-.11-3.16,1.17a2,2,0,0,0,1.52,2.66c2.35.68,4.74,1.22,7.11,1.84a1.81,1.81,0,0,0,2.47-1.12,2,2,0,0,0-1.48-2.71C367.9,233,365.52,232.37,363.77,231.87ZM69.5,240.38c2.24,2.13,3.91,3.32,6.07,2.64.81-.25,1-1.7.39-2.31C74.3,238.9,72.35,240,69.5,240.38Zm326.08-90.51c.25,1.19.64,2.58,2.2,2.68,1,.07,1.36-1,1.29-1.9-.11-1.38-.5-2.68-2.17-2.74C395.8,147.88,395.52,148.76,395.58,149.87ZM276.42,75.18c.51-.06.86-.3.75-.82,0-.19-.49-.48-.52-.46a4.16,4.16,0,0,0-.73.84A3.21,3.21,0,0,0,276.42,75.18Z"/><path class="cls-4" d="M254.25,485c0-3.06-.22-6.14.06-9.17s-.8-4.3-3.84-4a19.59,19.59,0,0,1-3.06-.08c-.73,0-1.55-.07-1.59-1,0-1.17.82-1.42,1.76-1.39q8.73.25,17.47.55c.72,0,1.58.14,1.55,1.1a1.36,1.36,0,0,1-1.5,1.26c-1.85,0-2.55.76-2.52,2.62.06,4.36-.28,8.75,0,13.1.37,5.15,2.74,7.42,7.2,7.73,5.2.35,8.18-1.93,9.46-7,1.42-5.71.25-11.29-.65-16.89-.18-1.11-.81-2.64.76-2.94s1.48,1.38,1.67,2.45c1.08,5.74,1.86,11.49.74,17.35-1.18,6.17-4.92,9.43-11.14,9.49-6,.06-9-2.48-10.34-9-.89-4.33-.25-8.71-.26-13.07,0-1.36,1.29-3.61-1.37-3.78-2.93-.19-2,2.36-2.05,3.84-.21,6.41-.21,12.82-.35,19.23,0,1.2.45,3.09-1.41,3-1.53,0-1.05-1.81-1.06-2.9-.05-3.49,0-7,0-10.49Z"/><path class="cls-4" d="M295.24,466.35c3-.15,5.51.88,7,3.54s1,5.19-.34,7.87c-.92,1.83-4.46,2.41-2.73,5.55,1.89,3.42,4.34,6.1,8.31,7.18,1.33.37,4.13-1,3.74,1.3-.36,2-3.2,1.23-4.9.83a13.42,13.42,0,0,1-8.56-6.94c-1.13-2-1.74-2.48-4.07-1.24-3.91,2.08-6.47,4.19-4.33,9,.4.91.91,2.7-.57,3-1.87.37-1.6-1.52-1.81-2.71-.89-5-1.81-10-2.65-15-1.22-7.3,1.08-10.64,8.3-12.12A24.88,24.88,0,0,1,295.24,466.35Zm-7.32,18.5a36.72,36.72,0,0,0,10.13-6.43c2.1-1.95,3.92-4.27,2.07-7.25-2-3.27-5.37-2.76-8.22-1.75-2.66.93-6.33,1.6-5.74,5.85C286.58,478.41,287.3,481.51,287.92,484.85Z"/><path class="cls-4" d="M315,488.51c1-8.73,1.88-17.12,2.85-25.5.11-.94.07-2.21,1.24-2.56s1.73.84,2.35,1.58q8.13,9.72,16.19,19.48c.67.82,2.18,1.84,1,2.89-1.54,1.31-2.39-.61-2.92-1.53-3-5.28-6.78-6-12.5-3.8-3.71,1.45-5.45,3.05-5.49,6.8a12.67,12.67,0,0,1-.22,2.61c-.27,1.17.06,3.21-1.65,3C313.94,491.24,315.57,489.24,315,488.51ZM329,474.87l-8.67-10.33c-.6,4.91-1.09,9-1.64,13.48Z"/><path class="cls-4" d="M193.11,461.11c5.42.14,9.62,1.41,12.7,5.2.7.87,1.69,2.12.63,3.08-1.56,1.41-1.74-.64-2.34-1.37-5.59-6.78-18.24-5.66-22.5,2-3,5.5-1.7,11.35,3.67,14.83,4,2.61,8.42,3.89,13.26,2.52.88-.25,2-1.25,2.53.29.43,1.3-.88,1.71-1.74,2.1-6.66,3-18.31-2.37-21.08-9.74-2.71-7.2,2.35-16.07,10.45-18.17A42.91,42.91,0,0,1,193.11,461.11Z"/><path class="cls-4" d="M206.57,483.32c.41-4.95,2.41-10.58,4.12-16.27.25-.83.52-1.85,1.69-1.4s.67,1.38.45,2.22c-1.18,4.34-2.54,8.64-3.46,13-1.65,7.94,1.56,12.25,8.6,12,4.14-.12,6.26-2.75,7.65-6.12,2-4.76,2.42-9.84,2.78-14.92.09-1.28-.63-3.59,1.46-3.41,1.9.17,1.1,2.4,1,3.7-.48,5.94-1,11.92-3.82,17.32-2.66,5-7.3,6.93-12.91,5.53C209,493.77,206.45,490.21,206.57,483.32Z"/><path class="cls-4" d="M235.4,473.77c-.54,6.31-.87,12.28-1.61,18.19-.35,2.77.39,3.48,3.09,3.47,3.77,0,7.54.49,11.32.74,1,.07,2.43,0,2.44,1.24,0,1.66-1.56,1.34-2.66,1.28-4.79-.28-9.58-.65-14.37-.91-2.56-.13-2.57-1.73-2.41-3.64.59-7.4,1.12-14.79,1.71-22.19.1-1.23-.21-3.23,1.4-3.19,1.88,0,.9,2,1.07,3.2A11.14,11.14,0,0,1,235.4,473.77Z"/><path class="cls-5" d="M271.54,192.83c11.66-3.09,23.29-6.24,35-9.23,10.65-2.72,18.16,1.08,21.65,11.42,6.58,19.5,6.6,38.65-5,56.48-6.88,10.57-17.48,13-28.52,6.94-18.53-10.23-28.49-26.5-32-47-1-5.77-.28-11.39,5.48-16.05-3-.39-6.16.27-6.33-3.14a7,7,0,0,1,3.79-6.88c3.41-1.67,2.73-3.55,1.3-6.12-2.7-4.83-5.1-9.82-7.77-14.66-1.34-2.42-1.26-4.23,1.06-6,6-4.64,11.84-9.42,17.74-14.16,2-1.59,3.31-1.17,4.45,1.06,3.55,7,7.28,13.94,10.78,21,2.11,4.24.81,8.1-3.24,10.45-1.88,1.09-4,1.6-5.62-.1-1.45-1.5-1.1-3.58-.09-5.29.73-1.23,1.58-2.79,2.76-3.26,3.67-1.47,3.33-3.43,1.6-6.27a98.52,98.52,0,0,1-4.8-9.31c-.95-2-2.07-2.73-4-1.18-5.21,4.2-10.39,8.45-15.66,12.58-1.84,1.45-1.42,2.83-.5,4.53,2.43,4.48,4.68,9.06,7.16,13.51,1.9,3.42,2.53,6.75.29,10.23-.15.2-.47.5-.43.56C270.94,193.35,271.25,193.12,271.54,192.83Zm56.68,27.09c-.37-8.38-1.06-16.33-4.07-23.87s-7.79-10.49-15.45-8.63c-11.71,2.84-23.3,6.21-34.85,9.65-4.79,1.42-7.11,5.33-7.15,10.34a34.84,34.84,0,0,0,1.06,8.19c3.9,16.53,12.82,29.52,27.45,38.26,10.21,6.11,19.19,3.91,25.49-6C326.17,239.24,327.94,229.58,328.22,219.92Zm-66.79-56.71a3.93,3.93,0,0,0,.92-.38c6-4.8,12-9.59,18-14.43a1.16,1.16,0,0,0,0-1.89,1.41,1.41,0,0,0-2,.15q-8.67,6.92-17.32,13.87a1.37,1.37,0,0,0-.43,1.9A4,4,0,0,0,261.43,163.21Zm4.11,30c2.46-1,4.55-2.44,4.9-5.41.13-1.07-.13-2.06-1.58-2-1.69,0-5.36,4.25-5.16,5.95A1.55,1.55,0,0,0,265.54,193.18Zm26.6-22.3c.16-1.57-.51-2.24-1.75-2-2.94.57-4.27,2.78-4.95,5.41-.27,1,.54,1.7,1.54,1.55C290,175.39,291.21,173.15,292.14,170.88Z"/><path class="cls-5" d="M181.94,175.76c-4.48-.13-7.14-3-5.7-6.94,2-5.34.86-9-3.5-12.61-3.16-2.58-2.68-6.69-1.73-10.24s0-6.07-2.7-8.07c-3.95-3-4.74-7.1-3.56-11.35,1.06-3.87,0-6.5-2.82-8.85-2.58-2.13-5.06-4.51-3-8.12s5.31-4.13,9.08-2.67a10.14,10.14,0,0,0,11.65-2.56,14.64,14.64,0,0,1,13.46-4.57c5,.7,9.64-.08,13.21-4s8.39-4.54,13.28-3.7,8.49-.63,11.57-4.3c1.67-2,3.42-4,6.53-3.7,4,.4,6.27,3.16,5,6.89-1.69,4.92-1.63,8.8,3.1,12.27,3,2.18,3.48,6.1,2.43,9.65-1.17,4-.54,6.91,2.91,9.57a8.73,8.73,0,0,1,3.08,10.2c-1.41,4.11-.23,7.11,3.15,9.47,2.76,1.94,4.64,4.28,2.83,7.71s-4.89,4.47-8.51,3.23c-5.42-1.85-9.94-.76-13.87,3.45-3.54,3.78-8.25,4.38-13,3.43A12,12,0,0,0,213,163.78a13.3,13.3,0,0,1-13.17,4c-4.9-1.1-8.54.48-11.68,4C186.4,173.73,184.64,175.69,181.94,175.76Zm71.2-26.06c2,.11,3.33-.09,3.87-1.56.6-1.63-.75-2.22-1.76-3.09-3.51-3-6.89-6.31-5-11.5,1.51-4.06.56-7-2.68-9.6-3.51-2.79-4.35-6.57-3.14-10.63,1.16-3.88.26-6.8-2.8-9.3-3.73-3-4.39-6.92-3.13-11.43.4-1.44,2.12-3.35-.38-4.54-2-1-3.28.53-4.35,1.92-4,5.12-9.05,6.94-15.4,5.57-3.28-.72-6.75-.41-9,2.13-4.95,5.6-11.1,6.39-17.91,5.56a9.11,9.11,0,0,0-8.34,2.82c-4.64,5-10.25,6.4-16.69,4.17-1.7-.59-3.2-.7-4.21,1-1.11,1.84.55,2.5,1.64,3.41,4,3.36,6,7.29,4.26,12.72a6.75,6.75,0,0,0,2.38,7.82c3.92,3.12,5.32,7,3.8,12-.71,2.32-1,5.13,1.26,6.93,5.13,4,6.72,8.9,4.12,15a1.8,1.8,0,0,0,.8,2.59,2.18,2.18,0,0,0,2.8-.21c.85-.8,1.68-1.62,2.45-2.5,3.9-4.41,8.56-6.2,14.47-4.7,3.93,1,7.32-.14,10.32-3.15,4-4,8.75-6,14.65-4.69a11.25,11.25,0,0,0,11.53-3.51c3.45-3.82,7.86-4.78,12.75-4.09A33.63,33.63,0,0,1,253.14,149.7Z"/><path class="cls-5" d="M208.33,191.71c11.31,0,22.61.15,33.91-.08,4.12-.09,5.66,1,5.5,5.38-.31,8.58-.18,17.19,0,25.78,0,3.24-.78,4.8-4.39,4.76q-20.76-.21-41.53,0c-3.68,0-4.86-1.59-4.8-5,.12-7.28,0-14.57.07-21.85,0-4.68.14-9.33-1.88-13.72-1.09-2.38-.28-3.79,2.19-4.59q20.76-6.69,41.47-13.53c2.35-.78,3.48-.09,4.28,2.12,2.82,7.72,2.85,7.7-5.26,10.36q-14.82,4.88-29.63,9.79Zm14.17,11.34c-6.26,0-12.53,0-18.8,0-2.25,0-3.58.44-3.52,3.09.13,5.25.1,10.49,0,15.74,0,2.28.93,3,3.14,3,12.68-.06,25.36-.09,38,0,3,0,3.76-1.25,3.68-4-.15-4.51-.19-9,0-13.55.14-3.18-.9-4.47-4.21-4.36C234.75,203.18,228.62,203,222.5,203.05Zm-21.75-18.28c2.81,2.61,6.27,4,8.75,3.23,1-.31,3.07-.49,1.31-2.4C208.44,183,204.19,182.7,200.75,184.77Zm18.05-6.15a12.78,12.78,0,0,0,6.27,3.28c1.51.3,3.74.69,4.31-.87.7-1.93-1.73-2.18-3-2.84C224.06,176.94,221.59,176.42,218.8,178.62Zm8.7-2.86c3.34,1.73,5.76,4.08,9.22,3.24,1-.23,3.24-.91,1.16-2.36C235,174.63,231.71,172.83,227.5,175.76Zm14.55,19.07c-5.31-.86-7.68.47-9.84,5.41C237.25,201.55,239.28,197.82,242.05,194.83Zm-29.39,5.39c5.49,1.14,7.48-2.44,10.38-5.58C217.76,193.57,215.19,196.25,212.66,200.22Zm9-16.63c-4.26-2.29-7.52-4.94-12-2C213.06,184.52,216.54,185.83,221.62,183.59Zm-18.88,16.78c5.65.55,8.32-1.85,10.37-5.81C207.87,193.34,205.93,197,202.74,200.37Zm19.87-.27c5.39,1.49,7.15-2.38,9.83-5.54C227.15,193.5,224.91,196.58,222.61,200.1Zm-19-5.19c-3.88-.6-4-.46-3.08,3.33A5.33,5.33,0,0,0,203.58,194.91Zm41,1c-1.3,1.83-2.92,2.45-3.28,4.3C244.53,201,245.49,199.74,244.59,195.93Z"/><path class="cls-5" d="M382.2,154.44c-.91-2.82.92-4,3-4.88,2.63-1.08,5.3-2.64,8.26-1.22,1.16.56,1.26,1.91,1.18,3.08-.23,3.06,1.18,5.25,3.49,7l-.05-.07c-1.6,8.6,4.25,15,6.7,22.35.59,1.79,1.89,1.75,3.51,1.5,6.77-1,11.87,1.08,12,9.73.07,5,2.33,8.75,6.54,11.61a22,22,0,0,1,6.47,7.56c5.78,10.06,3.94,16.19-6.65,23.4-6.44,4.38-13.81,5.92-21.62,5.36-6-.43-10.1-3.38-12.06-9.06a28.67,28.67,0,0,1-.54-17.12,9.47,9.47,0,0,0-1.95-9.28c-5.72-7-5.08-10.86,2.27-16.54a3.54,3.54,0,0,0,1.37-4.51c-1.48-4.55-2.91-9.14-4-13.79-.63-2.71-3.33-3.52-4.32-5.75,0-.46-.07-.91-.1-1.37-.51-2.68-.7-5.51-3.38-7.17Zm15.09,44.41a37.21,37.21,0,0,0,0-4.73c-.2-1.38-.25-3.35-1.72-3.68-1.81-.41-3.19,1.06-4.18,2.58-2.23,3.45-1,6.73,1.42,9.15,3.64,3.7,4.3,7.61,2.81,12.34-1.43,4.56-1.07,9.21.07,13.78,1.06,4.29,3.46,7.36,8.09,8.07,10.76,1.65,19.72-2,27-9.73a8.79,8.79,0,0,0,1.77-9.77c-2-4.78-4.71-9.17-9.11-12s-6.53-6.34-6.1-11.57c.28-3.29-.94-6.08-4.07-7.56-1.55-.73-3.45-1.46-4.93,0-1.67,1.62-.21,3.3.6,4.71a28.08,28.08,0,0,0,2.88,3.24c2.11,2.54,3.69,5.22,2.39,8.74-1.72,4.67-5.41,6.82-10.31,5.87C399.39,207.43,397.12,203.88,397.29,198.85Zm-3.91-34a1.6,1.6,0,0,0-1,2.06c.51,1.66,1.06,3.31,1.55,5,1.75,6,3.47,12,5.22,17.92.54,1.82,1.25,3.3,3.68,2.2,1.42-.64,2.7-1,1.81-3-3.21-7.45-6.3-14.95-9.47-22.42C394.87,165.8,394.57,164.88,393.38,164.85Zm17.87,35.24c.05-3.09-2.42-5.88-5.33-5.63s-5.15,1.77-5.29,5.18c-.14,3.57,1.77,5.44,5.05,5.86C408.59,205.86,411.21,203.15,411.25,200.09Zm-21.38-48.71a4.66,4.66,0,0,0-3.51,1.48c-.75,1,.26,1.95.88,2.66,1.4,1.59,1.37,3.44,1.33,5.34,0,.75.17,1.64,1,1.65A7.44,7.44,0,0,0,394,161a1.19,1.19,0,0,0,0-1.9,7.89,7.89,0,0,1-2.25-5.94C391.85,151.94,391.12,151.33,389.87,151.38Z"/><path class="cls-5" d="M123.33,179.3a22.27,22.27,0,0,1-1.34,2.51Q109,200.44,96.06,219.06c-1.14,1.63-2.23,3.08-4.55,1.42-7-5-14-9.94-21.1-14.76-2.2-1.49-2.42-2.85-.93-5Q82.64,182,95.68,163.16c1.25-1.79,2.43-2.68,4.62-1.1,6.74,4.83,13.6,9.49,20.36,14.28C121.67,177.06,123.05,177.56,123.33,179.3ZM87.57,214.78c1.3-.13,1.58-1,2.07-1.72,1.76-2.5,3.56-5,5.29-7.49,6.62-9.65,6.55-9.57-3.44-16-2.2-1.42-3.14-1.06-4.41,1-2.09,3.32-4.49,6.44-6.72,9.68-4.54,6.61-4.53,6.62,2,11.08C84.11,212.48,85.93,213.67,87.57,214.78ZM101.86,194c1.38,0,1.68-1,2.16-1.66,1.8-2.46,3.55-5,5.28-7.46,6.7-9.76,6.65-9.69-3.42-16.11-2.2-1.4-3.17-.93-4.43,1-2.36,3.65-5,7.14-7.41,10.73-3.64,5.32-3.63,5.35,1.61,9.16C97.75,191.21,99.92,192.65,101.86,194Zm18.53-14.13c0-1.48-1.14-1.85-2.2-2.09-1.49-.33-2.08.94-2.3,2-.29,1.48,1.09,1.87,2.14,2.12C119.52,182.23,119.89,180.94,120.39,179.87Zm-18.18,26a2.39,2.39,0,0,0-2.1-2.42c-1.48-.21-1.88,1.21-2,2.3-.19,1.48,1.1,2,2.21,2.15S101.81,206.83,102.21,205.92Zm-5.06-34.33a2.08,2.08,0,1,0-4.16-.24,2.24,2.24,0,0,0,2.06,2.37C96.47,174,96.93,172.74,97.15,171.59Zm-5.94,2.82a2.09,2.09,0,0,0-1.84,2.09,2.1,2.1,0,1,0,4.17,0C93.55,175.05,92.3,174.76,91.21,174.41Zm5.26,34.19a2.41,2.41,0,0,0-2.17,2.3c-.24,1.33.85,1.71,1.86,1.85a2,2,0,0,0,2.45-1.8C98.72,209.58,97.54,209.08,96.47,208.6ZM83,192.11a2.52,2.52,0,0,0-2.5-2,2,2,0,0,0-2,1.91,2.16,2.16,0,0,0,2.2,2.2C82.11,194.37,82.66,193.3,83,192.11Zm-7.67,10.77a2,2,0,0,0-2-2.23,2.26,2.26,0,0,0-2,2c-.29,1.51.88,2,2.09,2.12S75.2,204.1,75.35,202.88Zm14.76-21.33a2.57,2.57,0,0,0-2.49-1.86,1.85,1.85,0,0,0-1.78,2.09,2,2,0,0,0,2.32,2C89.31,183.68,89.86,182.8,90.11,181.55Zm-3.56,5.57c.08-1.25-.92-1.87-2.06-2.18s-1.87.56-2.13,1.62a1.87,1.87,0,0,0,1.42,2.35C85.18,189.39,85.93,188.5,86.55,187.12Zm17.16,11.47a2.11,2.11,0,0,0-2.07,1.91c-.17,1.52,1.09,2,2.17,2.25,1.24.23,1.8-.85,1.94-1.88C106,199.42,104.94,198.84,103.71,198.59Zm-3-32.09a1.75,1.75,0,0,0-1.79-2,1.93,1.93,0,0,0-2.35,1.94,2.26,2.26,0,0,0,2.33,2.13C100.13,168.6,100.42,167.45,100.68,166.5Zm12.23,23.72a2.09,2.09,0,0,0-2.33-2,2,2,0,0,0-1.89,2.06c0,1.43,1.22,1.94,2.39,2S112.69,191.28,112.91,190.22Zm-3.51,5.25a2.18,2.18,0,0,0-2.21-2.06,2,2,0,0,0-2,1.89c-.16,1.49,1.08,2,2.18,2.21S109.09,196.71,109.4,195.47ZM95.1,216.31c.11-1.38-1-2-2-2.37-1.24-.39-1.76.68-2,1.69a1.67,1.67,0,0,0,1.32,2.29A2.17,2.17,0,0,0,95.1,216.31Zm19.68-29.11a2.28,2.28,0,0,0,1.64-2.13,2,2,0,0,0-2.21-2.08,2.09,2.09,0,0,0-1.86,2.06C112.2,186.5,113.54,186.75,114.78,187.2ZM79.39,197.36a2.28,2.28,0,0,0-2.38-2c-1.23-.07-1.75.93-1.78,2A1.92,1.92,0,0,0,77,199.42C78.51,199.63,78.85,198.37,79.39,197.36Z"/><path class="cls-5" d="M229.92,274.6c-4.11,2.24-7.28,5.73-11,8.45-1,.75-2.08,2.2-3.23.59-.91-1.26.5-2,1.41-2.7,3.4-2.74,6.74-5.56,10.19-8.23,2-1.52,2.52-2.56-.17-4-1.68-.89-5.36-1.48-3.92-3.86,1.15-1.91,3.74.8,5.6,1.72,1.4.69,2.71,1.8,5.07.6-2.69-2.6-5.81-3.93-8.75-5.47-11.87-6.21-9.74-4.34-4.51-14.69,2.62-5.2,5.7-10.16,8.37-15.34,1.42-2.77,2.91-3.59,5.79-1.86,4.24,2.55,8.67,4.79,13,7.15,1,.52,2,1.83,3,.53.83-1.08-.55-1.72-1.25-2.37a1.8,1.8,0,0,1-.61-2.23c4.64,2.21,5.7-1.43,7.24-4.52.67-1.32,1.34-3.77,3.13-2.78s0,2.85-.63,4.24c-1.14,2.55-4.13,4.75-.24,7.82,1.14.9-1,1.33-2.06,1.16-.88-.13-2-1.32-2.47.35-.4,1.36,1,1.63,1.78,2.09,4.57,2.58,9.11,5.2,13.77,7.6,2.34,1.21,2.79,2.5,1.5,4.82-4.11,7.38-8.1,14.82-12.1,22.26-1.34,2.49-3,2.71-5.39,1.35-3.77-2.19-7.64-4.23-11.5-6.29-1.09-.58-2.13-1.42-3.83-1.28.49,3.31,3.43,3.41,5.24,4.74,1.1.8,3.38,1.21,2.53,2.87-1.1,2.13-2.76.14-4.07-.42s-2.35-1.71-4.39-1.85c-.67,5.09-1.35,10.19-2,15.29-.17,1.27.05,3.28-1.48,3.2-2.19-.12-1.2-2.31-1.1-3.52.38-4.76,1-9.51,1-14.59-1.55,2.75-3.12,5.49-4.66,8.24-.64,1.15-1.18,2.35-1.84,3.48s-1.37,2.22-2.7,1.36c-1.14-.73-.31-1.85.14-2.71,1.91-3.6,4.24-7,5.55-10.87.48-.38,1.33-1,.79-1.41C230.4,273,230.18,274,229.92,274.6Zm38-21.13c-.1-2.68-1.65-3.1-2.89-3.79-9.94-5.49-19.92-10.91-29.8-16.5-2.37-1.34-3.53-.9-4.74,1.44q-4.62,8.92-9.63,17.64c-1.36,2.34-1,3.49,1.38,4.74,10.4,5.56,20.72,11.27,31.06,16.95.9.49,2.19,1.4,2.75.45C260.22,267.28,264.21,260,267.91,253.47Z"/><path class="cls-5" d="M390.33,226.7c-1.24,11.1-6.07,22.59-14.1,32.79A62.15,62.15,0,0,1,362.3,272.6c-12.83,8.68-26,5.8-34-7.39a43.27,43.27,0,0,1-3.25-6.67c-.63-1.61-2.18-3.8.39-4.91,2.82-1.22,2.85,1.68,3.5,3.19,2.5,5.84,5.41,11.31,11.3,14.5a14.93,14.93,0,0,0,14.26.41c15.31-7.48,24.6-20,29.62-36,1.32-4.19,2.28-8.41,1.82-12.87-.59-5.76-3.52-9.51-9.07-11-11-2.87-22-5.62-32.94-8.42a13.17,13.17,0,0,0-7.31.11c-1.49.47-2.68.05-3-1.55s.78-2,1.94-2.46a12.24,12.24,0,0,1,7.3-.7c12,3,24,5.91,35.84,9.31C387.14,210.6,390.53,215.93,390.33,226.7Z"/><path class="cls-5" d="M280.07,129.7c-1.46-4.68,1.52-7.66,5.39-10.64,5.87-4.52,11.49-9.4,17-14.35a7.74,7.74,0,0,1,6.68-2.3c7.76,1.12,15.53,2.2,23.28,3.35.92.14,2.23-.2,2.54,1.16.23,1-.71,1.48-1.37,2-6.85,5.87-13.73,11.71-20.52,17.66-2.09,1.83-4.44,1.25-6.65,1-7.06-.87-14.1-1.92-21.13-3-1.85-.29-3.27-.25-3.47,2-.18,2,1,2.78,2.86,3,8.21,1.08,16.4,2.26,24.6,3.41a6.39,6.39,0,0,0,5.55-1.76c5.52-4.95,11.22-9.71,16.86-14.53.75-.64,1.64-1.78,2.57-.8,1.12,1.17-.41,1.68-1.09,2.28-6,5.3-12.05,10.54-18,15.88a5.55,5.55,0,0,1-4.83,1.41c-7.18-1.05-14.34-2.3-21.55-3.05-2.23-.23-6-2.22-6.69,1.32-.77,4.1,3.36,3.34,5.91,3.69,6.9,1,13.86,1.61,20.71,2.87a7,7,0,0,0,6.67-2c5.09-4.57,10.24-9.07,15.4-13.56.81-.7,1.8-2.12,2.87-.75.77,1-.59,1.77-1.3,2.39-5.15,4.52-10.44,8.87-15.44,13.53a9.92,9.92,0,0,1-8.76,2.64c-7.05-1-14.12-1.76-21.15-2.86S280,138.53,280.07,129.7Zm5.05-7.3,22.73,2.88a6,6,0,0,0,4.92-1.24c6.13-5.28,12.24-10.58,18.83-16.28-6.88-1-13.12-1.51-19.2-2.82-4.92-1.07-8.17.78-11.54,4C296.11,113.39,291,117.44,285.12,122.4Z"/><path class="cls-5" d="M136.41,197.72c9.93,1,16.38,7.66,11.54,19.3a6.45,6.45,0,0,0-.1,5.33c2.73,7.19,5.28,14.46,8,21.66,1.25,3.34,1.3,6.22-2,8.45-1.13.76-1.93,1.88-1.35,3.35a1.87,1.87,0,0,0,1.21,1.1c1.68.15,2-1.43,2.68-2.45,1.16-1.68,2.11-3.51,3.41-5.05,1.57-1.84,3.59-3.07,6.16-2.19,1.35.46,3.21,1,2.82,2.78-.47,2.13-2,.67-3.14.35-2.51-.74-3.81.85-4.95,2.6-1.26,2-2.19,4.14-4,5.69-2.38,2-5.85,1.45-6.79-1.48-.65-2.06-1.33-3.16-3.58-3.58s-3-2.57-3.66-4.53c-2.6-7.24-5.29-14.46-7.8-21.73-.76-2.19-1.66-3.87-4.11-4.56-3.66-1-5.87-4.42-8.07-6.91-1.37-1.54.37-6.14,1.17-9.25C125.26,201.2,130.45,197.7,136.41,197.72Zm17.37,49.68c-.16-.52-.3-1.08-.5-1.63-2.61-7.4-5.28-14.78-7.83-22.2-.71-2.06-1.91-2-3.28-1-1.72,1.21-5.89.25-4.54,4.29,2.48,7.45,5.26,14.8,8,22.15.82,2.19,2.63,2.48,4.71,1.8C152.06,250.24,153.72,249.67,153.78,247.4ZM126,209.89c-.12,2.05.31,3.23,2.72,2.29,4.87-1.89,9.77-3.73,14.71-5.46,1.83-.65,1.87-1.36.77-2.78-2.42-3.11-7-4.2-11.52-2.77C128.32,202.55,126.59,205.78,126,209.89Zm10.27,11.41c4.58,0,9.4-4.24,10.42-8.83.61-2.76-.08-4-3.09-2.95-3.82,1.38-7.68,2.68-11.45,4.21-1.51.61-4.14.68-4,2.61s2.28,3.27,4.19,4A26.4,26.4,0,0,0,136.25,221.3Z"/><path class="cls-5" d="M357,135.66c.5,3.24,1.89,5.23,5.58,3.89,2.44-.88,3.93.29,4.95,2.31,2.38,4.67,4.66,9.4,7.06,14.06a3.47,3.47,0,0,1-1.18,4.94c-2.48,1.77-2.52,3.74-1.26,6.42,2.31,4.92,1.74,6.2-3,8.6-5.72,2.89-11.44,5.78-17.2,8.58-4.64,2.26-6.63,1.71-8.89-2.75q-9.41-18.51-18.56-37.14c-2.42-4.92-2-6,2.95-8.49,5.45-2.79,10.92-5.52,16.4-8.25,6-3,6.42-2.87,9.92,2.89a8,8,0,0,0,1.51,1.45l0,0a3.82,3.82,0,0,0,1.77,3.53Zm14,35c-.42-.89-.92-2.09-1.51-3.25-1.08-2.14-1.33-4.85.41-6.08,4.38-3.08,1.88-5.86.34-8.87q-2.19-4.26-4.3-8.58c-.62-1.27-1.37-2.45-2.93-2-5.21,1.48-7.45-1.61-9.19-5.69-.74-1.74-1.73-3.37-2.5-5.09-1.1-2.51-2.7-3.15-5.21-1.87-6.09,3.1-12.24,6.08-18.36,9.14-1.52.75-2.81,1.63-1.78,3.7q9.79,19.69,19.55,39.42c1,2.09,2.38,2.55,4.56,1.41,6.19-3.24,12.46-6.31,18.71-9.43C369.86,172.91,370.9,172.4,371,170.65Z"/><path class="cls-5" d="M152.69,145.25h10.48c1.07,0,2.12.17,2.58,1.25a2,2,0,0,1-1.09,2.59c-4.44,2.58-4.12,6-2.17,10,1.71,3.48.76,6.58-2.08,9a30.9,30.9,0,0,1-22.94,7.74c-4.29-.31-6-3.3-7.26-7.05-.6-1.82-.55-5.62-3.22-4.66s.3,3.61.5,5.55c.45,4.3,3.93,7,5.53,10.71.39.89,1.41,1.94.43,2.76a5.48,5.48,0,0,1-4.43,1.37c-1.27-.24-1.16-1.5-1.23-2.51-.35-5.17-1.09-10.25-3.34-15-.5-1-.54-2.57-1.65-3-4.32-1.53-2.49-3.34-.33-5.12,5.06-4.15,10.16-8.23,15.26-12.34a6.67,6.67,0,0,1,4.48-1.38c3.49.07,7,0,10.48,0ZM122.75,161l.49,1c6,0,11.91,0,17.86,0,1.72,0,3.68.58,5.13-.52,5.8-4.42,11.48-9,17.21-13.52a142.35,142.35,0,0,0-20.81-1,5.07,5.07,0,0,0-2.91.62C134,152,128.39,156.48,122.75,161Zm16.75,2.59c-3,.63-6.33-1.13-7.85,1.06-1.36,2,.72,4.67,1.72,6.87,1.13,2.51,3.64,2.59,6,2.68,5.09.21,9.73-1.4,14.23-3.58a17.49,17.49,0,0,0,6.88-5.23c1.3-1.78.6-8.45-1.4-9.69-2.45-1.51-3.73,1.21-5.23,2.43C149.5,161.63,145.34,165.44,139.5,163.54Z"/><path class="cls-4" d="M177.32,257c.32-.48.53-1.25,1-1.39,5.59-1.86,8.23-5.93,9-11.55.29-2,1.66-1.56,3-1,3.6,1.56,7.2,3.12,10.81,4.63,2.25.95,2.36,2.49,1,4.14-3.08,3.82-3.81,7.66-2,12.48,1.15,3,.4,6.61-1.21,9.72-2,3.94-5.32,5.26-9.45,3.53-3.89-1.62-7.7-3.43-11.56-5.12-6.93-3-7.62-9.58-1.52-14.56.18.17.37.35.56.51-.73,1.37-.67,2.32,1,3,5.9,2.44,11.75,5,17.63,7.53.9.39,2,1.17,2.71,0s.86-2.93-.46-3.51c-6.57-2.9-12.7-7-20.06-7.88C177.66,257.32,177.49,257.13,177.32,257Zm16.06,13.47.89.68.29-.47-1.16-.23c-.73-1.19-1.61-2-3.18-1.24A3.41,3.41,0,0,0,193.38,270.42Zm-12.25-5.25c-1.37-2.06-3.46-2.48-5.72-2.5,1.8,1.07,3.42,2.57,5.73,2.49a12.42,12.42,0,0,0,7.35,2.9A13.36,13.36,0,0,0,181.13,265.17Zm15.79-2.44.89-.72c-1-2.16-1.48-4.46,0-6.28,2.47-3.11,1.13-4.49-1.94-5.54a42.36,42.36,0,0,1-4.81-2.05c-1.65-.81-2.92-.55-3.33,1.31-.73,3.32-3.27,4.94-6.23,6.54Zm-22.53,1.76c-.57,3.11.54,4.7,2.56,5.64,4.49,2.09,9,4.2,13.55,6,2.17.86,4.44.72,6-2.06Zm26.1-14.13.39-1-11.12-4.78-.41,1Zm-4.15,21.31c.16.23.27.52.47.63s.42-.06.64-.11c-.11-.22-.17-.54-.35-.62S196.61,271.62,196.34,271.67Z"/><path class="cls-5" d="M110.25,259.89c1,1.61,1.12,2.79-1,3.7-2.53,1.09-3.4,3.17-3.34,6,.13,6-1.82,8.83-6.09,9.54-6.16,1-11.27-1.57-13-7-1.88-6-1.08-12.09-.62-18.18.23-3,.36-6.08.52-9.13.1-1.94-.54-2.67-2.59-1.86a20.35,20.35,0,0,1-4.65,1c-1.22.17-2.36-.11-2.53-1.69-.13-1.26.09-2.32,1.45-2.8.41-.15.81-.33,1.21-.5,11.29-4.6,13.19-3.33,13.13,8.91a123.51,123.51,0,0,0,.84,17.41c.21,1.55.28,3.08,2.1,4.3,1-2.26.41-4.29.56-6.22.38-4.93,3.21-8.87,7-9.66l0,0,.92.91,0,0,.91.92,0,0a1.45,1.45,0,0,0,1.8.9l0,0a.86.86,0,0,0,.92.92l0,0a.89.89,0,0,0,.91.91l0,0,.92.92,0,0,.91.92ZM80.57,241.62a8.12,8.12,0,0,0,1.31,0c7-1.39,6.94-1.15,6.7,6.12-.26,7.65-2.37,15.31-.21,23,1.4,4.95,4.87,7.27,10.2,6.69,4.21-.45,5.59-2.41,5.61-8.19,0-2.22-.08-4.42,2-5.91,1.19-.86,3.58-1.75.77-3.12-2.07-1-3.31-6.13-6.84-2-2.49,2.93-2.12,6.51-2.08,10,0,1.66,0,3.46-2.08,3.75-1.91.28-2.81-1.25-3.37-2.82a22.55,22.55,0,0,1-.73-2.94c-1.44-6.77-.65-13.64-.83-20.46-.2-7.78-1.94-9-8.85-5.53a13.11,13.11,0,0,0-1.77,1.2l-1.11.44c.09.1.22.31.26.29C79.89,242,80.23,241.8,80.57,241.62Z"/><path class="cls-4" d="M259.27,297.33c1.58,2.25,3.81,2.49,6.18,1.76,1.66-.51,3.09-.71,4.28.83-.13.16-.27.31-.4.46a5.63,5.63,0,0,0-3.6.22c2.6.79,3.76,2.12,2.47,4.82-.81,1.7.39,1.06,1.15.73l.41.39c-1.42,3.86-4.8,6.12-7.37,9-1.51,1.7-3.44,3-3.59,5.71-.13,2.42-2.4,1.6-3.82,1.59-8.45,0-7.33,1-7.2-7,.1-5.66.47-11.31.84-17,.12-1.9-1-4.68,1.53-5.38,2.31-.64,5.22-1.35,7.22,1.28l-.4.42c-1.89-.26-4-2-5.79.89,2,.28,4.11-.68,5.23,1.44-2.23.29-5.45-1-5.21,3.21.31,5.38.69,10.76,1,16.14h.95V299.23l1,0v18.85c2.41-.1,1.79-1.36,1.7-2.95-.26-4.56-.09-9.14-.09-13.72l1.48.07v14c5.76-4.11,6.16-9.69,1.54-14.11-1.09-1.05-2.68-1.92-2.43-3.87.87-.79,1.36,2.86,2.39.21Zm-6.19,22c-1,.7-3.39-.77-3.35,1.24,0,2.21,2.48,1.15,3.85,1.22,1.21.06,3.48.81,3.33-1.29C256.77,318.66,254.53,319.85,253.08,319.37Zm-2.75-13.68h-.61v12.09l.61,0Z"/><path class="cls-5" d="M190.77,207.61c-.05,9.81-3.06,12.76-12.28,12.37-1.66-.07-2.6.37-2.56,2.05.14,5.39-1.5,9.55-7.41,10.61-4.46.8-11-3.1-13.61-8-7.66-14,1.38-33.63,17-37,6.49-1.39,13.88,2.86,16.76,9.79C190.1,200.86,191.15,204.36,190.77,207.61ZM179.18,218c6.94.12,7.81-.82,9.28-7,.75-3.18,0-6.11-.48-9a14.11,14.11,0,0,0-16.14-11.92c-4.35.59-7.75,3.11-10.68,6.29-7.48,8.11-9.07,20.35-3.7,28.56,2.39,3.65,7.77,6.39,11.06,5.66,4-.89,5.57-3.9,5.42-7.42C173.75,218.51,175.63,217.22,179.18,218Z"/><path class="cls-4" d="M262,73.44c1.76,1.86,3.78,3.53,5.21,5.61,1.57,2.27,2.61,2.12,4.19.16A8.65,8.65,0,0,1,275.24,76c.31,2.92-2.91,3.62-3.21,6.27,4.51,0,9,.09,13.42,0,2.92-.08,4.28.92,4.21,4-.13,6.11-.09,12.24,0,18.35.05,2.81-1.1,3.93-3.89,3.91-10.93-.07-21.86-.05-32.78,0-2.61,0-3.67-1.14-3.64-3.71.06-6.26.08-12.53,0-18.79,0-2.87,1.25-3.86,4-3.79,4.33.13,8.66,0,13.44,0C265.7,78.62,262.09,77.31,262,73.44ZM269.84,84c-5.11,0-10.21.07-15.31,0-2.28,0-3.53.44-3.46,3.1.15,5.54.11,11.08,0,16.62,0,2.23.74,3.11,3,3.1q15.53-.14,31.05,0c2.12,0,2.78-.86,2.76-2.87-.08-5.68-.12-11.37,0-17.06.05-2.46-1.15-2.88-3.22-2.85C279.75,84.07,274.79,84,269.84,84Z"/><path class="cls-4" d="M121.63,252c-2,.06-3.48-1.44-3.06-2.81,1.29-4.24-1.87-5.9-4.35-6.83-5-1.88-5.76-5.3-5.68-9.93.14-7.68-.1-7.43,7.37-5.63,4.57,1.11,7.75,2.66,8.47,8,.33,2.47,1.29,5.42,5.46,5.47,2.16,0,3.84,3,4.7,5.32s-1.61,3-3,4.17c-1.78,1.49-3.64,2.89-5.42,4.38-3,2.54-4.36,1.48-4.52-2.11,1.18.11,1.81,2.2,3.37.94,2.37-1.91,4.75-3.79,7.09-5.72a1.41,1.41,0,0,0,.2-2.26c-.87-.91-1.39-2.34-2.89-2.41C126.67,242.46,121,249.44,121.63,252Zm-8.09-19.93c-1.11-.52-1.42-2.22-3-2.11-.77,5-.1,9.26,5.35,11.31a8.33,8.33,0,0,1,2.71,2.13c1.55,1.59,2.59,3.12,5.27,1s1.93-3.55.39-5.65a8.8,8.8,0,0,1-1.73-3.92c-.48-3.82-2.61-5.59-6.26-6-1-.12-2.2-.8-2.88,0s.6,1.78.68,2.77A7.15,7.15,0,0,1,113.54,232.11Z"/><path class="cls-4" d="M431.4,251.15c.05.52.1,1,.14,1.57l-.36.48c-2.77-.81-6.19-1.89-7.74,1.09-3.56,6.85-7.73,13.44-9.93,20.94l-.69.6a8.12,8.12,0,0,1-1-7.36c1.55-5.45,3.49-10.8,4.72-16.32.94-4.27,3.23-7.13,7.27-7.79,2-.33,4.32,1.92,6.44,1.82,3.84-.17,2.21,3.6,5.22,4.8l-4.12.2c.15-4.58-3.85-3.58-6.23-4.3s-4.95-.1-5.83,2.52c-2.05,6.1-3.76,12.32-5.61,18.49a43.48,43.48,0,0,0,7-12.13C422.34,251,426.35,249.82,431.4,251.15Z"/><path class="cls-4" d="M302.74,286.18c1.24.34,2.59-.47,4.53.86-11.37,4.1-22.51,7-33.9,10.44.14-3.25,3.27-1.84,4-3.46l0,0c5.32-.78,5.22-.75,3.72-5.93-1.15-4-2.86-7.82-2.78-12.08,2.5,4,3.4,8.5,4.8,12.85.47,1.48-.13,4,3.26,3,3-.89,1.88-2.48,1.54-4.23-.91-4.63-3.6-8.85-3.25-13.79l.38.05c2.68,4.51,3.37,9.72,5,14.59.38,1.11-.05,2.24,1.86,1.53,3.61-1.34,7.58-1.65,10.86-3.91Z"/><path class="cls-5" d="M346.81,245c5.72.2,10.33,2.47,13.6,7.29.78,1.14,1.44,2.3.09,3.45s-2.52.36-3.35-.7c-4.57-5.91-10.24-7.19-17-4.24a2,2,0,0,1-2.94-1c-.73-1.59.33-2.44,1.59-3.05A15.62,15.62,0,0,1,346.81,245Z"/><path class="cls-4" d="M326.17,172.6c-1.4-3.36-4.11-3.82-7.35-3.59-2.87.2-3.38,2.14-3.83,4.31l0-.06c-1.13.32-.87,2.24-3.08,2,5.07-10.53,8.45-21.34,7.18-33.73,2.48,1.45,3,2.79,2.7,4-1.66,6.49,1.13,12.47,2,18.66.39,2.81,3.74,4.65,2.82,8Zm-2.85-4.51c-.78-2.55-.32-5.62-3.26-5.77-1.86-.1-2.44,2.89-2.12,4.18C318.63,169.32,321.2,167.38,323.32,168.09Z"/><path class="cls-5" d="M155,132.19A7.67,7.67,0,0,1,146.9,140a8.21,8.21,0,0,1-7.59-8,8,8,0,0,1,8.34-7.66C152.13,124.41,155,127.53,155,132.19Zm-2.56.83c.15-4.41-1.73-6-5-6.18-3.43-.17-5.08,1.94-5.51,5s2.35,5.66,5.42,5.56C150.64,137.28,152.21,135.28,152.4,133Z"/><path class="cls-5" d="M269.78,112.88c1.13,2.65.79,5,.64,7.17-.21,3.09.56,4.71,4,4.29,1.11-.14,3.15-.78,3.23,1s-1.91,1.55-3.11,1.37c-3.88-.59-4.16,1.58-4.18,4.62,0,1.91,1.32,5.34-1.17,5.48-2.05.11-1.3-3.42-1.18-5.29.21-3.38-.54-5.38-4.44-4.8-1,.14-2.36-.12-2.39-1.32,0-1.45,1.45-1.25,2.35-1.12,3.85.57,4.75-1.29,4.46-4.73C267.85,117.46,267.37,115,269.78,112.88Z"/><path class="cls-4" d="M431.54,252.72c6.38,1.37,7.84,4.3,5,10s-5.41,11.28-8.19,16.88a6.33,6.33,0,0,1-9.13,2.84c-2.6-1.65-7-1.86-6.45-6.62l.68-.6c.43.57.88,1.12,1.28,1.7,4.12,5.94,10.18,5.67,13.3-.59,2.07-4.16,3.88-8.46,6.26-12.44,3.62-6.08,1.66-7.65-3.16-10.7Z"/><path class="cls-4" d="M272.15,301.05c0-1.5,1.11-1.95,2.23-2.28q16.42-5,32.87-9.84a2.71,2.71,0,0,1,2.16.46A368.06,368.06,0,0,1,272.12,301Z"/><path class="cls-5" d="M381.52,186.66c.06,4.1-2.41,6.7-5.63,6.66-2.72,0-5.77-3-5.51-5.75.32-3.24,2-5.48,5.56-5.51S381.22,184,381.52,186.66Zm-5.45,4.07c1.75-.35,2.95-1.16,2.91-3.11s-.9-3-2.84-3-3.32,1.21-3.21,3.22C373,189.61,374.31,190.57,376.07,190.73Z"/><path class="cls-4" d="M114,149c1.2,0,1.43.89,1.41,1.78-.07,2.28-.1,4.32,3.05,4.61,1,.09,1.76,1.91.22,2-3.71.11-3.23,2.47-3.27,4.76,0,.93-.35,2-1.29,2-1.46,0-1.24-1.36-1.22-2.32,0-2.23.32-4.46-3.11-4.33-1.12,0-1.41-1.53-.48-1.69,3.39-.61,3.85-2.77,3.67-5.57A1.13,1.13,0,0,1,114,149Z"/><path class="cls-5" d="M426.55,165.13c-3.67,1-5.54,2.43-4.88,5.79.16.85-.24,1.93-1.31,1.83s-1.31-1.2-1.14-2.05c.62-3.29-1-4.68-4.48-5.14,4-.74,5-3.06,4.52-6.38a1.17,1.17,0,0,1,1.3-1.37c.86.09,1.17.84,1.13,1.61C421.53,162.43,421.3,165.45,426.55,165.13Z"/><path class="cls-5" d="M289.34,270l7.2-2.82L280.48,264c7-1.26,13.43,1.42,20.38,2.4-.48,2.28-1.94,2.25-3.35,2.31l-1.76.73-3.58,1-2.53,0A2.88,2.88,0,0,1,289.34,270Z"/><path class="cls-5" d="M340.28,225.78c1.93.57,4.18,1.18,6.38,1.91a1.92,1.92,0,0,1,1.44,2.37c-.34,1.44-1.35,1.66-2.7,1.32-2.11-.52-4.27-.84-6.37-1.39-1.45-.38-3-1.09-2.43-3C337.07,225.43,338.65,225.74,340.28,225.78Z"/><path class="cls-5" d="M363.77,231.87c1.75.5,4.13,1.1,6.46,1.84a2,2,0,0,1,1.48,2.71,1.81,1.81,0,0,1-2.47,1.12c-2.37-.62-4.76-1.16-7.11-1.84a2,2,0,0,1-1.52-2.66C361,231.76,362.11,231.91,363.77,231.87Z"/><path class="cls-5" d="M285,273.93l-.38-.05c-4.92-.51-9.14,1.64-13.43,3.54l0,0c-1.06-.34-2.4.56-3.21-.53-.5-.68.21-1.36.73-1.82.93-.81,1.53-2.53,3.28-.65.92,1,2.41-.34,3.61-.64,4.58-1.16,9.12-2.47,13.66-3.73a3.57,3.57,0,0,0,.3.38c0,.25,0,.5,0,.75C288.32,272.45,285.56,271.34,285,273.93Z"/><path class="cls-4" d="M295.75,269.39l1.76-.73c2.54,5.6,4.77,11.3,5.23,17.52l.05,0c-1.86-.1-1.54-1.69-2-2.81C298.89,278.76,298.57,273.62,295.75,269.39Z"/><path class="cls-4" d="M277.4,294a1.9,1.9,0,0,1-2-1.35c-1.59-5-3.66-9.94-4.17-15.27l0,0a1.88,1.88,0,0,1,1.82,1.49q2.13,7.59,4.32,15.15Z"/><path class="cls-4" d="M103.28,253.79c-.21-.67-.67-1.4-.55-2s.9-.56,1.41-.16c3.35,2.62,6.9,5,9.76,8.32-1.64,1.29-2.53-.38-3.65-.06l0,.05-.91-.92,0,0-.92-.92,0,0-.91-.91,0,0-.92-.92,0,0a1.73,1.73,0,0,0-1.8-.9l0,0-.91-.92,0,0-.92-.91Z"/><path class="cls-4" d="M355.26,132.17c.84-1.66-2.06-4.09-.16-4.61,2.36-.65,2.39,2.68,3.39,4.27s2.52,3.95-1.5,3.83l0,0c.21-1.57-.05-2.92-1.77-3.53Z"/><path class="cls-4" d="M385.73,162.45c0,.46.06.91.1,1.37-1.27.83-2.06,4-4.11.92-.58-.88-1.47-2.09-.46-3.18C383.13,159.55,384.07,162.93,385.73,162.45Z"/><path class="cls-5" d="M69.5,240.38c2.85-.42,4.8-1.48,6.46.33.56.61.42,2.06-.39,2.31C73.41,243.7,71.74,242.51,69.5,240.38Z"/><path class="cls-4" d="M382.2,154.44l.15.84c-.12,1.49.51,3.74-1.94,3.51-1.72-.17-1.84-2.17-1.56-3.59C379.34,152.79,380.88,153.85,382.2,154.44Z"/><path class="cls-5" d="M395.58,149.87c-.06-1.11.22-2,1.32-2,1.67.06,2.06,1.36,2.17,2.74.07.95-.29,2-1.29,1.9C396.22,152.45,395.83,151.06,395.58,149.87Z"/><path class="cls-5" d="M398.16,158.43c.29-1.24-.87-3.23,1.45-3.43,1.4-.13,2,1.17,2,2.38-.17,3.53-2,1.62-3.49,1Z"/><path class="cls-4" d="M316.63,172.29c2.42-2.43,4.87-2.37,7.34-.07l-.54.46a12.6,12.6,0,0,0-6.31,0A3.81,3.81,0,0,1,316.63,172.29Z"/><path class="cls-4" d="M270.63,300.81l1.52.24,0,0c-.41,2-.21,4.26-2.37,5.51l-.4-.38c.45-1.62,1.44-3.15.83-4.95Z"/><path class="cls-4" d="M315,173.32c.54-.35,1.09-.69,1.64-1a3.81,3.81,0,0,0,.49.39c-.52.93.08,2.7-1.44,2.73-1,0-.52-1.37-.65-2.15Z"/><path class="cls-4" d="M326.64,172.18c.86.8,1.7,1.61,1.41,3-1.92,0-1.45-1.61-1.88-2.61Z"/><path class="cls-4" d="M324,172.22c1,.79,1.92,1.61,1.22,3.33-1.35-.56-1.34-1.87-1.76-2.87Z"/><path class="cls-4" d="M276.42,75.18a3.21,3.21,0,0,1-.5-.44,4.16,4.16,0,0,1,.73-.84s.48.27.52.46C277.28,74.88,276.93,75.12,276.42,75.18Z"/><path class="cls-4" d="M257.37,294.8a3.62,3.62,0,0,1,1.89,2.53l-.5.4c-.6-.84-1.19-1.68-1.79-2.51Z"/><path class="cls-4" d="M176.42,257.84l.9-.89c.17.18.34.37.5.56l-.84.84C176.79,258.19,176.6,258,176.42,257.84Z"/><path class="cls-4" d="M269.73,299.92l.9.89-.44.39c-.29-.27-.58-.54-.86-.82C269.46,300.23,269.6,300.08,269.73,299.92Z"/><path class="cls-2" d="M287.92,484.85c-.62-3.34-1.34-6.44-1.76-9.58-.59-4.25,3.08-4.92,5.74-5.85,2.85-1,6.2-1.52,8.22,1.75,1.85,3,0,5.3-2.07,7.25A36.72,36.72,0,0,1,287.92,484.85Z"/><path class="cls-2" d="M329,474.87,318.65,478c.55-4.5,1-8.57,1.64-13.48Z"/><path class="cls-3" d="M328.22,219.92c-.28,9.66-2.05,19.32-7.52,27.93-6.3,9.92-15.28,12.12-25.49,6-14.63-8.74-23.55-21.73-27.45-38.26a34.84,34.84,0,0,1-1.06-8.19c0-5,2.36-8.92,7.15-10.34,11.55-3.44,23.14-6.81,34.85-9.65,7.66-1.86,12.48,1.2,15.45,8.63S327.85,211.54,328.22,219.92Zm-26.71,22.53a17,17,0,0,0,14-7.51c.73-1,1.58-2.33.09-3.44a2.09,2.09,0,0,0-3.08.58c-4.64,5.86-10.29,7.74-17.32,4.56a1.9,1.9,0,0,0-2.62.87,2,2,0,0,0,1,2.93A14.78,14.78,0,0,0,301.51,242.45Zm6.69-27.19c1.73-.48,4.09-1.11,6.43-1.8,1.21-.36,2.11-1.05,1.63-2.52a2.22,2.22,0,0,0-3.07-1.53c-2.21.62-4.43,1.23-6.62,2-1.11.36-2.27,1-1.84,2.45S306.33,215.3,308.2,215.26Zm-19.67,1c-1.14.34-3.52,1-5.86,1.76-1.24.4-2,1.33-1.46,2.68a1.94,1.94,0,0,0,2.46,1.28q3.57-1,7.09-2.08c1.16-.36,2.29-1,1.91-2.46S291,216,288.53,216.29Z"/><path class="cls-3" d="M261.43,163.21a4,4,0,0,1-.82-.78,1.37,1.37,0,0,1,.43-1.9q8.65-6.94,17.32-13.87a1.41,1.41,0,0,1,2-.15,1.16,1.16,0,0,1,0,1.89c-6,4.84-12,9.63-18,14.43A3.93,3.93,0,0,1,261.43,163.21Z"/><path class="cls-3" d="M265.54,193.18a1.55,1.55,0,0,1-1.84-1.49c-.2-1.7,3.47-5.9,5.16-5.95,1.45,0,1.71,1,1.58,2C270.09,190.74,268,192.2,265.54,193.18Z"/><path class="cls-3" d="M292.14,170.88c-.93,2.27-2.19,4.51-5.16,5-1,.15-1.81-.52-1.54-1.55.68-2.63,2-4.84,4.95-5.41C291.63,168.64,292.3,169.31,292.14,170.88Z"/><path class="cls-3" d="M271.54,192.83c-.29.29-.6.52-.91.07,0-.06.28-.36.43-.56Z"/><path class="cls-3" d="M253.14,149.7a33.63,33.63,0,0,0-3.65-.86c-4.89-.69-9.3.27-12.75,4.09a11.25,11.25,0,0,1-11.53,3.51c-5.9-1.34-10.67.69-14.65,4.69-3,3-6.39,4.13-10.32,3.15-5.91-1.5-10.57.29-14.47,4.7-.77.88-1.6,1.7-2.45,2.5a2.18,2.18,0,0,1-2.8.21,1.8,1.8,0,0,1-.8-2.59c2.6-6.11,1-11-4.12-15-2.28-1.8-2-4.61-1.26-6.93,1.52-5,.12-8.89-3.8-12a6.75,6.75,0,0,1-2.38-7.82c1.75-5.43-.26-9.36-4.26-12.72-1.09-.91-2.75-1.57-1.64-3.41,1-1.68,2.51-1.57,4.21-1,6.44,2.23,12.05.82,16.69-4.17a9.11,9.11,0,0,1,8.34-2.82c6.81.83,13,0,17.91-5.56,2.25-2.54,5.72-2.85,9-2.13,6.35,1.37,11.43-.45,15.4-5.57,1.07-1.39,2.31-2.89,4.35-1.92,2.5,1.19.78,3.1.38,4.54-1.26,4.51-.6,8.38,3.13,11.43,3.06,2.5,4,5.42,2.8,9.3-1.21,4.06-.37,7.84,3.14,10.63,3.24,2.58,4.19,5.54,2.68,9.6-1.93,5.19,1.45,8.49,5,11.5,1,.87,2.36,1.46,1.76,3.09C256.47,149.61,255.14,149.81,253.14,149.7ZM246.69,141c-.12-.36-.31-.91-.47-1.47-3.88-12.78-7.8-25.55-11.61-38.35-.86-2.91-2.28-3.46-5.18-2.56-17.89,5.51-35.84,10.87-53.78,16.23-3.94,1.17-3.73,3.75-2.78,6.86q5.53,18.12,11,36.28c.95,3.2,2.68,4.07,5.87,3,5.64-1.89,11.36-3.53,17.06-5.27q18.33-5.61,36.66-11.2C245.13,144,246.88,143.61,246.69,141Z"/><path class="cls-3" d="M222.5,203c6.12,0,12.25.14,18.36,0,3.31-.11,4.35,1.18,4.21,4.36-.21,4.51-.17,9,0,13.55.08,2.72-.71,4-3.68,4-12.67-.09-25.35-.06-38,0-2.21,0-3.18-.75-3.14-3,.08-5.25.11-10.49,0-15.74-.06-2.65,1.27-3.12,3.52-3.09C210,203.1,216.24,203.05,222.5,203Z"/><path class="cls-3" d="M200.75,184.77c3.44-2.07,7.69-1.75,10.06.83,1.76,1.91-.29,2.09-1.31,2.4C207,188.75,203.56,187.38,200.75,184.77Z"/><path class="cls-3" d="M218.8,178.62c2.79-2.2,5.26-1.68,7.62-.43,1.23.66,3.66.91,3,2.84-.57,1.56-2.8,1.17-4.31.87A12.78,12.78,0,0,1,218.8,178.62Z"/><path class="cls-3" d="M227.5,175.76c4.21-2.93,7.48-1.13,10.38.88,2.08,1.45-.17,2.13-1.16,2.36C233.26,179.84,230.84,177.49,227.5,175.76Z"/><path class="cls-3" d="M242.05,194.83c-2.77,3-4.8,6.72-9.84,5.41C234.37,195.3,236.74,194,242.05,194.83Z"/><path class="cls-3" d="M212.66,200.22c2.53-4,5.1-6.65,10.38-5.58C220.14,197.78,218.15,201.36,212.66,200.22Z"/><path class="cls-3" d="M221.62,183.59c-5.08,2.24-8.56.93-12-2C214.1,178.65,217.36,181.3,221.62,183.59Z"/><path class="cls-3" d="M202.74,200.37c3.19-3.37,5.13-7,10.37-5.81C211.06,198.52,208.39,200.92,202.74,200.37Z"/><path class="cls-3" d="M222.61,200.1c2.3-3.52,4.54-6.6,9.83-5.54C229.76,197.72,228,201.59,222.61,200.1Z"/><path class="cls-3" d="M203.58,194.91a5.33,5.33,0,0,1-3.08,3.33C199.57,194.45,199.7,194.31,203.58,194.91Z"/><path class="cls-3" d="M244.59,195.93c.9,3.81-.06,5-3.28,4.3C241.67,198.38,243.29,197.76,244.59,195.93Z"/><path class="cls-3" d="M397.29,198.85c-.17,5,2.1,8.58,6.6,9.44,4.9,1,8.59-1.2,10.31-5.87,1.3-3.52-.28-6.2-2.39-8.74a28.08,28.08,0,0,1-2.88-3.24c-.81-1.41-2.27-3.09-.6-4.71,1.48-1.44,3.38-.71,4.93,0,3.13,1.48,4.35,4.27,4.07,7.56-.43,5.23,1.71,8.77,6.1,11.57s7.12,7.2,9.11,12a8.79,8.79,0,0,1-1.77,9.77c-7.31,7.75-16.27,11.38-27,9.73-4.63-.71-7-3.78-8.09-8.07-1.14-4.57-1.5-9.22-.07-13.78,1.49-4.73.83-8.64-2.81-12.34-2.38-2.42-3.65-5.7-1.42-9.15,1-1.52,2.37-3,4.18-2.58,1.47.33,1.52,2.3,1.72,3.68A37.21,37.21,0,0,1,397.29,198.85Zm12.08,32c4.35-1.64,8.7-3.27,13-4.94a1.44,1.44,0,0,0,1-1.72,1.29,1.29,0,0,0-1.66-1A68.31,68.31,0,0,0,408.28,228c-.67.32-.72,1.23-.39,2A1.51,1.51,0,0,0,409.37,230.8Z"/><path class="cls-3" d="M393.38,164.85c1.19,0,1.49,1,1.82,1.71,3.17,7.47,6.26,15,9.47,22.42.89,2.07-.39,2.39-1.81,3-2.43,1.1-3.14-.38-3.68-2.2-1.75-6-3.47-11.95-5.22-17.92-.49-1.67-1-3.32-1.55-5A1.6,1.6,0,0,1,393.38,164.85Z"/><path class="cls-3" d="M411.25,200.09c0,3.06-2.66,5.77-5.57,5.41-3.28-.42-5.19-2.29-5.05-5.86.14-3.41,2.26-4.91,5.29-5.18S411.3,197,411.25,200.09Z"/><path class="cls-3" d="M389.87,151.39c1.25-.06,2,.55,1.94,1.78a7.89,7.89,0,0,0,2.25,5.94,1.19,1.19,0,0,1,0,1.9,7.44,7.44,0,0,1-4.43,1.5c-.86,0-1.05-.9-1-1.65,0-1.9.07-3.75-1.33-5.34-.62-.71-1.63-1.67-.88-2.66A4.61,4.61,0,0,1,389.87,151.39Z"/><path class="cls-3" d="M87.57,214.78c-1.64-1.11-3.46-2.3-5.26-3.53-6.48-4.46-6.49-4.47-2-11.08,2.23-3.24,4.63-6.36,6.72-9.68,1.27-2,2.21-2.39,4.41-1,10,6.48,10.06,6.4,3.44,16-1.73,2.52-3.53,5-5.29,7.49C89.15,213.75,88.87,214.65,87.57,214.78Z"/><path class="cls-3" d="M101.86,194c-1.94-1.35-4.11-2.79-6.21-4.31-5.24-3.81-5.25-3.84-1.61-9.16,2.45-3.59,5-7.08,7.41-10.73,1.26-2,2.23-2.43,4.43-1,10.07,6.42,10.12,6.35,3.42,16.11-1.73,2.51-3.48,5-5.28,7.46C103.54,193,103.24,194,101.86,194Z"/><path class="cls-3" d="M120.39,179.87c-.5,1.07-.87,2.36-2.36,2-1-.25-2.43-.64-2.14-2.12.22-1.05.81-2.32,2.3-2C119.25,178,120.44,178.39,120.39,179.87Z"/><path class="cls-3" d="M102.21,205.92c-.4.91-.68,2.15-1.91,2s-2.4-.67-2.21-2.15c.14-1.09.54-2.51,2-2.3A2.39,2.39,0,0,1,102.21,205.92Z"/><path class="cls-3" d="M97.15,171.59c-.22,1.15-.68,2.37-2.1,2.13A2.24,2.24,0,0,1,93,171.35a2.08,2.08,0,1,1,4.16.24Z"/><path class="cls-3" d="M91.21,174.41c1.09.35,2.34.64,2.33,2.1a2.1,2.1,0,1,1-4.17,0A2.09,2.09,0,0,1,91.21,174.41Z"/><path class="cls-3" d="M96.47,208.6c1.07.48,2.25,1,2.14,2.35a2,2,0,0,1-2.45,1.8c-1-.14-2.1-.52-1.86-1.85A2.41,2.41,0,0,1,96.47,208.6Z"/><path class="cls-3" d="M83,192.11c-.36,1.19-.91,2.26-2.33,2.13a2.16,2.16,0,0,1-2.2-2.2,2,2,0,0,1,2-1.91A2.52,2.52,0,0,1,83,192.11Z"/><path class="cls-3" d="M75.35,202.88c-.15,1.22-.73,2-2,1.89s-2.38-.61-2.09-2.12a2.26,2.26,0,0,1,2-2A2,2,0,0,1,75.35,202.88Z"/><path class="cls-3" d="M90.11,181.55c-.25,1.25-.8,2.13-2,2.23a2,2,0,0,1-2.32-2,1.85,1.85,0,0,1,1.78-2.09A2.57,2.57,0,0,1,90.11,181.55Z"/><path class="cls-3" d="M86.55,187.12c-.62,1.38-1.37,2.27-2.77,1.79a1.87,1.87,0,0,1-1.42-2.35c.26-1.06.88-1.95,2.13-1.62S86.63,185.87,86.55,187.12Z"/><path class="cls-3" d="M103.71,198.59c1.23.25,2.24.83,2,2.28-.14,1-.7,2.11-1.94,1.88-1.08-.21-2.34-.73-2.17-2.25A2.11,2.11,0,0,1,103.71,198.59Z"/><path class="cls-3" d="M100.68,166.5c-.26.95-.55,2.1-1.81,2a2.26,2.26,0,0,1-2.33-2.13,1.93,1.93,0,0,1,2.35-1.94A1.75,1.75,0,0,1,100.68,166.5Z"/><path class="cls-3" d="M112.91,190.22c-.22,1.06-.57,2.13-1.83,2.05s-2.4-.59-2.39-2a2,2,0,0,1,1.89-2.06A2.09,2.09,0,0,1,112.91,190.22Z"/><path class="cls-3" d="M109.4,195.47c-.31,1.24-.9,2.21-2.05,2s-2.34-.72-2.18-2.21a2,2,0,0,1,2-1.89A2.18,2.18,0,0,1,109.4,195.47Z"/><path class="cls-3" d="M95.1,216.31a2.17,2.17,0,0,1-2.74,1.61A1.67,1.67,0,0,1,91,215.63c.28-1,.8-2.08,2-1.69C94.13,214.27,95.21,214.93,95.1,216.31Z"/><path class="cls-3" d="M114.78,187.2c-1.24-.45-2.58-.7-2.43-2.15a2.09,2.09,0,0,1,1.86-2.06,2,2,0,0,1,2.21,2.08A2.28,2.28,0,0,1,114.78,187.2Z"/><path class="cls-3" d="M79.39,197.36c-.54,1-.88,2.27-2.37,2.06a1.92,1.92,0,0,1-1.79-2.06c0-1.07.55-2.07,1.78-2A2.28,2.28,0,0,1,79.39,197.36Z"/><path class="cls-3" d="M267.91,253.47c-3.7,6.57-7.69,13.81-11.87,20.93-.56,1-1.85,0-2.75-.45C243,268.27,232.63,262.56,222.23,257c-2.34-1.25-2.74-2.4-1.38-4.74q5-8.7,9.63-17.64c1.21-2.34,2.37-2.78,4.74-1.44,9.88,5.59,19.86,11,29.8,16.5C266.26,250.37,267.81,250.79,267.91,253.47Z"/><path class="cls-3" d="M229.92,274.6c.26-.56.48-1.59,1.18-1.07.54.4-.31,1-.79,1.41C230.19,274.83,230.06,274.71,229.92,274.6Z"/><path class="cls-3" d="M285.12,122.4c5.83-5,11-9,15.74-13.49,3.37-3.19,6.62-5,11.54-4,6.08,1.31,12.32,1.85,19.2,2.82-6.59,5.7-12.7,11-18.83,16.28a6,6,0,0,1-4.92,1.24Z"/><path class="cls-3" d="M153.78,247.4c-.06,2.27-1.72,2.84-3.43,3.4-2.08.68-3.89.39-4.71-1.8-2.75-7.35-5.53-14.7-8-22.15-1.35-4,2.82-3.08,4.54-4.29,1.37-.95,2.57-1.05,3.28,1,2.55,7.42,5.22,14.8,7.83,22.2C153.48,246.32,153.62,246.88,153.78,247.4Z"/><path class="cls-3" d="M126,209.89c.61-4.11,2.34-7.34,6.68-8.72,4.49-1.43,9.1-.34,11.52,2.77,1.1,1.42,1.06,2.13-.77,2.78-4.94,1.73-9.84,3.57-14.71,5.46C126.29,213.12,125.86,211.94,126,209.89Z"/><path class="cls-3" d="M136.25,221.3a26.4,26.4,0,0,1-4-.93c-1.91-.76-4.08-2-4.19-4s2.53-2,4-2.61c3.77-1.53,7.63-2.83,11.45-4.21,3-1.09,3.7.19,3.09,2.95C145.65,217.06,140.83,221.3,136.25,221.3Z"/><path class="cls-3" d="M371,170.65c-.11,1.75-1.15,2.26-2.21,2.8-6.25,3.12-12.52,6.19-18.71,9.43-2.18,1.14-3.53.68-4.56-1.41q-9.76-19.71-19.55-39.42c-1-2.07.26-3,1.78-3.7,6.12-3.06,12.27-6,18.36-9.14,2.51-1.28,4.11-.64,5.21,1.87.77,1.72,1.76,3.35,2.5,5.09,1.74,4.08,4,7.17,9.19,5.69,1.56-.44,2.31.74,2.93,2q2.1,4.32,4.3,8.58c1.54,3,4,5.79-.34,8.87-1.74,1.23-1.49,3.94-.41,6.08C370.09,168.56,370.59,169.76,371,170.65Zm-20.47,1c8,.2,13.91-5.32,14.19-13.29.24-6.7-6-12.92-13.07-13.11A13.39,13.39,0,0,0,337.79,158,13,13,0,0,0,350.54,171.64ZM350,136.13l-.73-1.7a117.46,117.46,0,0,0-18.06,8.76,1,1,0,0,0-.12,1.53c.48.58,1.07.29,1.57.05Q341.35,140.47,350,136.13Z"/><path class="cls-3" d="M355.24,132.15c1.72.61,2,2,1.77,3.53A3.82,3.82,0,0,1,355.24,132.15Z"/><path class="cls-3" d="M122.75,161c5.64-4.47,11.26-9,17-13.36a5.07,5.07,0,0,1,2.91-.62,142.35,142.35,0,0,1,20.81,1c-5.73,4.52-11.41,9.1-17.21,13.52-1.45,1.1-3.41.5-5.13.52-5.95,0-11.91,0-17.86,0Z"/><path class="cls-3" d="M139.5,163.54c5.84,1.9,10-1.91,14.34-5.46,1.5-1.22,2.78-3.94,5.23-2.43,2,1.24,2.7,7.91,1.4,9.69a17.49,17.49,0,0,1-6.88,5.23c-4.5,2.18-9.14,3.79-14.23,3.58-2.35-.09-4.86-.17-6-2.68-1-2.2-3.08-4.92-1.72-6.87C133.17,162.41,136.53,164.17,139.5,163.54Z"/><path class="cls-3" d="M196.92,262.73,181.47,256c3-1.6,5.5-3.22,6.23-6.54.41-1.86,1.68-2.12,3.33-1.31a42.36,42.36,0,0,0,4.81,2.05c3.07,1.05,4.41,2.43,1.94,5.54-1.45,1.82-1,4.12,0,6.28Z"/><path class="cls-3" d="M177,258.35l.84-.84c7.36.9,13.49,5,20.06,7.88,1.32.58,1.14,2.37.46,3.51s-1.81.39-2.71,0c-5.88-2.51-11.73-5.09-17.63-7.53C176.31,260.67,176.25,259.72,177,258.35Z"/><path class="cls-3" d="M174.39,264.49l22.11,9.62c-1.56,2.78-3.83,2.92-6,2.06-4.59-1.84-9.06-3.95-13.55-6C174.93,269.19,173.82,267.6,174.39,264.49Z"/><path class="cls-3" d="M200.49,250.36l-11.14-4.72.41-1,11.12,4.78Z"/><path class="cls-3" d="M181.13,265.17a13.36,13.36,0,0,1,7.36,2.89,12.42,12.42,0,0,1-7.35-2.9Z"/><path class="cls-3" d="M181.14,265.16c-2.31.08-3.93-1.42-5.73-2.49,2.26,0,4.35.44,5.72,2.5Z"/><path class="cls-3" d="M193.38,270.42a3.41,3.41,0,0,1-3.16-1.26c1.57-.75,2.45,0,3.18,1.24Z"/><path class="cls-3" d="M196.34,271.67c.27-.05.57-.19.76-.1s.24.4.35.62c-.22.05-.49.19-.64.11S196.5,271.9,196.34,271.67Z"/><path class="cls-3" d="M193.4,270.4l1.16.23-.29.47-.89-.68Z"/><path class="cls-3" d="M80.39,241.4a14,14,0,0,1,1.77-1.19c6.91-3.42,8.65-2.25,8.85,5.53.18,6.82-.61,13.69.83,20.46a22.55,22.55,0,0,0,.73,2.94c.56,1.57,1.46,3.1,3.37,2.82,2.07-.29,2.09-2.09,2.08-3.75,0-3.49-.41-7.07,2.08-10,3.53-4.18,4.77.94,6.84,2,2.81,1.37.42,2.26-.77,3.12-2.07,1.49-2,3.69-2,5.91,0,5.78-1.4,7.74-5.61,8.19-5.33.58-8.8-1.74-10.2-6.69-2.16-7.68-.05-15.34.21-23,.24-7.27.3-7.51-6.7-6.12a8.12,8.12,0,0,1-1.31,0Z"/><path class="cls-3" d="M105,255.53a1.73,1.73,0,0,1,1.8.9A1.45,1.45,0,0,1,105,255.53Z"/><path class="cls-3" d="M80.57,241.62c-.34.18-.68.37-1,.52,0,0-.17-.19-.26-.29l1.11-.45Z"/><path class="cls-3" d="M103.23,253.77l.92.91Z"/><path class="cls-3" d="M104.11,254.64l.91.92Z"/><path class="cls-3" d="M106.73,256.39l.92.92A.86.86,0,0,1,106.73,256.39Z"/><path class="cls-3" d="M109.36,259l.91.92Z"/><path class="cls-3" d="M108.48,258.14l.92.92Z"/><path class="cls-3" d="M107.61,257.27l.91.91A.89.89,0,0,1,107.61,257.27Z"/><path class="cls-3" d="M256.37,297.52c-.25,2,1.34,2.82,2.43,3.87,4.62,4.42,4.22,10-1.54,14.11v-14l-1.48-.07c0,4.58-.17,9.16.09,13.72.09,1.59.71,2.85-1.7,2.95V299.27l-1,0v17.66h-.95c-.35-5.38-.73-10.76-1-16.14-.24-4.19,3-2.92,5.21-3.21Z"/><path class="cls-3" d="M253.08,319.37c1.45.48,3.69-.71,3.83,1.17.15,2.1-2.12,1.35-3.33,1.29-1.37-.07-3.81,1-3.85-1.22C249.69,318.6,252.1,320.07,253.08,319.37Z"/><path class="cls-3" d="M257,295.22c.6.83,1.19,1.67,1.79,2.51-1,2.65-1.52-1-2.39-.21l0,0c-1.12-2.12-3.23-1.16-5.23-1.44C253,293.27,255.08,295,257,295.22Z"/><path class="cls-3" d="M250.33,305.69v12.07l-.61,0V305.7Z"/><path class="cls-3" d="M269.33,300.38c.28.28.57.55.86.82.6,1.8-.39,3.33-.84,4.95-.76.33-2,1-1.15-.73,1.29-2.7.13-4-2.47-4.82A5.63,5.63,0,0,1,269.33,300.38Z"/><path class="cls-3" d="M179.18,218c-3.55-.73-5.43.56-5.24,5.08.15,3.52-1.45,6.53-5.42,7.42-3.29.73-8.67-2-11.06-5.66-5.37-8.21-3.78-20.45,3.7-28.56,2.93-3.18,6.33-5.7,10.68-6.29A14.11,14.11,0,0,1,188,201.86c.49,2.94,1.23,5.87.48,9C187,217.13,186.12,218.07,179.18,218Zm-7.66,3.54c-.06-3.73-2.22-6.29-5.23-6.19-3.27.11-5.43,2.76-5.41,6.61s2.26,6.42,5.17,6.31S171.57,224.93,171.52,221.49ZM165.07,205c-.43-2-1.7-3.5-3.78-3.44s-3.9,1.32-3.76,3.89c.12,2.2,1.39,3.61,3.57,3.62C163.55,209,164.53,207.19,165.07,205Zm17.63-6.24c-2.31.53-3.57,1.89-3.35,4.3a3.34,3.34,0,0,0,3.74,3.35c2.41-.14,3.55-1.77,3.33-4.16C186.22,200,184.8,199,182.7,198.72Zm-15.64-4.43c-2.09.34-3.45,1.41-3.51,3.64s1,4.07,3.47,3.94c1.91-.1,3.58-1.15,3.63-3.52S169.36,194.7,167.06,194.29Zm13.29,1.08c-.24-2.11-1.43-3.67-3.8-3.61-2.12.07-3.31,1.46-3.38,3.7-.09,2.61,1.6,3.72,3.75,3.8S180.09,197.67,180.35,195.37Z"/><path class="cls-3" d="M269.84,84c5,0,9.91.06,14.87,0,2.07,0,3.27.39,3.22,2.85-.12,5.69-.08,11.38,0,17.06,0,2-.64,2.88-2.76,2.87q-15.53-.09-31.05,0c-2.3,0-3.08-.87-3-3.1.1-5.54.14-11.08,0-16.62-.07-2.66,1.18-3.14,3.46-3.1C259.63,84.08,264.73,84,269.84,84Zm-3.94,21.17c2.76,0,5.52,0,8.28,0,3.42,0,5.09-1.65,5.08-5.06,0-2.91.07-5.81,0-8.72-.08-4.56-1.72-6.29-6.3-6.42-4.06-.12-8.13,0-12.2,0-3.42,0-7.31-.32-8.07,4-.9,5-2.1,10.34,1.31,15.06.84,1.16,2.28,1.17,3.6,1.17Zm17.46-13.33c1.67-.07,2.69-.88,2.75-2.61a2.29,2.29,0,0,0-2.21-2.63c-1.65-.16-2.85.55-3,2.31A2.52,2.52,0,0,0,283.36,91.85Z"/><path class="cls-3" d="M114.07,231.54c-.08-1-1.46-1.89-.68-2.77s1.89-.09,2.88,0c3.65.44,5.78,2.21,6.26,6a8.8,8.8,0,0,0,1.73,3.92c1.54,2.1,2.29,3.49-.39,5.65s-3.72.63-5.27-1a8.33,8.33,0,0,0-2.71-2.13c-5.45-2.05-6.12-6.27-5.35-11.31,1.58-.11,1.89,1.59,3,2.11.29,1.38,1.74,2.25,1.47,4-.21,1.37.93,2,2.26,2a2.19,2.19,0,0,0,2.38-1.52,2,2,0,0,0-1.48-2.71C116.47,233.57,115.55,232.11,114.07,231.54Z"/><path class="cls-3" d="M121.63,252c-.64-2.6,5-9.58,7.77-9.46,1.5.07,2,1.5,2.89,2.41a1.41,1.41,0,0,1-.2,2.26c-2.34,1.93-4.72,3.81-7.09,5.72-1.56,1.26-2.19-.83-3.37-.94Z"/><path class="cls-3" d="M431.18,253.2c4.82,3.05,6.78,4.62,3.16,10.7-2.38,4-4.19,8.28-6.26,12.44-3.12,6.26-9.18,6.53-13.3.59-.4-.58-.85-1.13-1.28-1.7,2.21-7.5,6.38-14.09,9.94-20.94C425,251.31,428.41,252.39,431.18,253.2Zm-1.54,9.28c-.55-1.52-2-2-3.37-2.32a1.27,1.27,0,0,0-1.48,1.62c.49,1.77,2.13,2.24,3.75,2.34C429.41,264.17,429.64,263.35,429.64,262.48Zm-3.56,7.5a6.7,6.7,0,0,0-.53-.69c-1.55,1-2.83,1.65-2.8-1.23,0-.47-1-.2-1.38.27-.77,1,0,1.88.4,2.77.56,1.22,1.63,1,2.58.79A2.08,2.08,0,0,0,426.08,270Zm1.61-4.11a14.64,14.64,0,0,0-3.4-1.82c-1-.26-1.35,1.15-1.29,1.75.17,1.57,1.68,1.74,2.9,1.92C426.92,267.88,427.34,267,427.69,265.87Z"/><path class="cls-3" d="M431.4,251.15c-5-1.33-9.06-.18-10.72,4.61a43.48,43.48,0,0,1-7,12.13c1.85-6.17,3.56-12.39,5.61-18.49.88-2.62,3.58-3.19,5.83-2.52s6.38-.28,6.23,4.3Z"/><path class="cls-3" d="M277.37,294.06q-2.17-7.57-4.32-15.15a1.88,1.88,0,0,0-1.82-1.49c4.29-1.9,8.51-4.05,13.43-3.54-.35,4.94,2.34,9.16,3.25,13.79.34,1.75,1.49,3.34-1.54,4.23-3.39,1-2.79-1.52-3.26-3-1.4-4.35-2.3-8.86-4.8-12.85-.08,4.26,1.63,8.12,2.78,12.08C282.59,293.31,282.69,293.28,277.37,294.06Z"/><path class="cls-3" d="M295.75,269.39c2.82,4.23,3.14,9.37,5,13.94.46,1.12.14,2.71,2,2.81-3.28,2.26-7.25,2.57-10.86,3.91-1.91.71-1.48-.42-1.86-1.53-1.66-4.87-2.35-10.08-5-14.59.52-2.59,3.28-1.48,4.59-2.77,2.72,5.23,3,11.44,6.31,16.44-.24-6-3.4-11.3-3.77-17.22Z"/><path class="cls-3" d="M323.32,168.09c-2.12-.71-4.69,1.23-5.38-1.59-.32-1.29.26-4.28,2.12-4.18C323,162.47,322.54,165.54,323.32,168.09Z"/><path class="cls-3" d="M152.4,133c-.19,2.26-1.76,4.26-5.09,4.36-3.07.1-5.84-2.66-5.42-5.56s2.08-5.15,5.51-5C150.67,127,152.55,128.61,152.4,133Z"/><path class="cls-3" d="M376.07,190.73c-1.76-.16-3-1.12-3.14-2.87-.11-2,1.22-3.16,3.21-3.22s2.8,1.13,2.84,3S377.82,190.38,376.07,190.73Z"/><path class="cls-4" d="M292.17,270.38c.37,5.92,3.53,11.21,3.77,17.22-3.35-5-3.59-11.21-6.31-16.44,0-.25,0-.5,0-.75Z"/><path class="cls-5" d="M301.51,242.45a14.78,14.78,0,0,1-7.94-2,2,2,0,0,1-1-2.93,1.9,1.9,0,0,1,2.62-.87c7,3.18,12.68,1.3,17.32-4.56a2.09,2.09,0,0,1,3.08-.58c1.49,1.11.64,2.4-.09,3.44A17,17,0,0,1,301.51,242.45Z"/><path class="cls-5" d="M308.2,215.26c-1.87,0-3.09-.09-3.47-1.45s.73-2.09,1.84-2.45c2.19-.72,4.41-1.33,6.62-2a2.22,2.22,0,0,1,3.07,1.53c.48,1.47-.42,2.16-1.63,2.52C312.29,214.15,309.93,214.78,308.2,215.26Z"/><path class="cls-5" d="M288.53,216.29c2.51-.29,3.77-.21,4.14,1.18s-.75,2.1-1.91,2.46q-3.52,1.11-7.09,2.08a1.94,1.94,0,0,1-2.46-1.28c-.53-1.35.22-2.28,1.46-2.68C285,217.28,287.39,216.63,288.53,216.29Z"/><path class="cls-5" d="M246.69,141c.19,2.58-1.56,3-3.27,3.52q-18.34,5.58-36.66,11.2c-5.7,1.74-11.42,3.38-17.06,5.27-3.19,1.07-4.92.2-5.87-3q-5.4-18.17-11-36.28c-1-3.11-1.16-5.69,2.78-6.86,17.94-5.36,35.89-10.72,53.78-16.23,2.9-.9,4.32-.35,5.18,2.56,3.81,12.8,7.73,25.57,11.61,38.35C246.38,140.12,246.57,140.67,246.69,141Zm-35.95-11.68a43.73,43.73,0,0,1,.52-6.5c1.27-5.68,5.08-6.89,9.39-3.07a9.17,9.17,0,0,0,4.43,2.64c2.19.37,3.93.19,2.75-2.89a59.42,59.42,0,0,1-2-6.67c-.23-.93-.41-2.17,1-2.51s1.91.57,2.24,1.58c.72,2.21,1.41,4.43,2,6.68.52,2,1.84,2.46,3.64,2.11,2.2-.42,1.73-2.07,1.35-3.43-.69-2.52-1.67-5-2.36-7.47-2.59-9.49-2.31-8-10.46-5.55q-21.87,6.67-43.71,13.42c-1.6.49-4.06.41-3,3.52,1.85,5.5,3.52,11.07,5.17,16.63.54,1.81,1.16,2.42,3,1.31,3.23-1.93,6.74-3.42,9.85-5.52,2.83-1.91,4.85-1.38,6.68,1.11,1.26,1.73,2.59,3,5,2.83C210.47,137.26,210.9,136.61,210.74,129.35Zm3.66,1.36c-.6,2.82,1.52,6.72-2.43,9.15-4.15,2.55-7.82,2.23-11.59-1-1.13-1-1.8-2.71-3.93-2.07-10.8,3.24-13.08,7.23-9.86,17.49,0,.13.1.27.14.41.69,2.4,1.89,3.14,4.54,2.31,16-5,32-9.76,48-14.57,2.78-.83,3.8-2.41,2.87-5.21-.87-2.63-1.67-5.27-2.51-7.91-1.82-5.69-2.17-5.88-8.13-4.24-3.54,1-7,1.78-10.58-.17-1.79-1-2.77-4.33-5.28-2.85-2.3,1.35-.94,4.29-1.24,6.53A21.14,21.14,0,0,0,214.4,130.71Z"/><path class="cls-5" d="M409.37,230.8a1.51,1.51,0,0,1-1.48-.85c-.33-.74-.28-1.65.39-2a68.31,68.31,0,0,1,13.47-4.85,1.29,1.29,0,0,1,1.66,1,1.44,1.44,0,0,1-1,1.72C418.07,227.53,413.72,229.16,409.37,230.8Z"/><path class="cls-5" d="M350.54,171.64A13,13,0,0,1,337.79,158a13.39,13.39,0,0,1,13.87-12.71c7.11.19,13.31,6.41,13.07,13.11C364.45,166.32,358.56,171.84,350.54,171.64ZM340.27,158c-.12,6.46,4.65,11.62,10.84,11.71a11.27,11.27,0,0,0,0-22.54C345.47,147.13,340.38,152.2,340.27,158Z"/><path class="cls-5" d="M350,136.13q-8.67,4.32-17.34,8.64c-.5.24-1.09.53-1.57-.05a1,1,0,0,1,.12-1.53,117.46,117.46,0,0,1,18.06-8.76Z"/><path class="cls-5" d="M171.52,221.49c0,3.44-2.53,6.61-5.47,6.73s-5.15-2.61-5.17-6.31,2.14-6.5,5.41-6.61C169.3,215.2,171.46,217.76,171.52,221.49Zm-5.26-4.23c-2.54.62-3.55,2.38-3.51,4.8,0,2.14,1.08,3.74,3.36,3.73,2.58,0,3.41-2.06,3.52-4.17A3.91,3.91,0,0,0,166.26,217.26Z"/><path class="cls-4" d="M165.07,205c-.54,2.23-1.52,4.07-4,4.07-2.18,0-3.45-1.42-3.57-3.62-.14-2.57,1.57-3.82,3.76-3.89S164.64,203,165.07,205Z"/><path class="cls-4" d="M182.7,198.72c2.1.25,3.52,1.28,3.72,3.49.22,2.39-.92,4-3.33,4.16a3.34,3.34,0,0,1-3.74-3.35C179.13,200.61,180.39,199.25,182.7,198.72Z"/><path class="cls-4" d="M167.06,194.29c2.3.41,3.64,1.62,3.59,4.06s-1.72,3.42-3.63,3.52c-2.45.13-3.53-1.6-3.47-3.94S165,194.63,167.06,194.29Z"/><path class="cls-4" d="M180.35,195.37c-.26,2.3-1.22,4-3.43,3.89s-3.84-1.19-3.75-3.8c.07-2.24,1.26-3.63,3.38-3.7C178.92,191.7,180.11,193.26,180.35,195.37Z"/><path class="cls-4" d="M265.9,105.18h-8.28c-1.32,0-2.76,0-3.6-1.17-3.41-4.72-2.21-10-1.31-15.06.76-4.31,4.65-4,8.07-4,4.07,0,8.14-.09,12.2,0,4.58.13,6.22,1.86,6.3,6.42.05,2.91,0,5.81,0,8.72,0,3.41-1.66,5.09-5.08,5.06C271.42,105.16,268.66,105.18,265.9,105.18Zm.17-18.47c-13.28-.08-12.14-.76-12.31,11.82,0,3.75,1.74,5.39,5.19,5.48,4.35.12,8.72,0,13.08.06,4.06.08,5.64-1.71,5.54-5.84C277.3,86,279,86.63,266.07,86.71Z"/><path class="cls-4" d="M283.36,91.85a2.52,2.52,0,0,1-2.44-2.93c.13-1.76,1.33-2.47,3-2.31a2.29,2.29,0,0,1,2.21,2.63C286.05,91,285,91.78,283.36,91.85Z"/><path class="cls-4" d="M114.07,231.54c1.48.57,2.4,2,4.1,2.36a2,2,0,0,1,1.48,2.71,2.19,2.19,0,0,1-2.38,1.52c-1.33,0-2.47-.68-2.26-2,.27-1.72-1.18-2.59-1.47-4A7.15,7.15,0,0,0,114.07,231.54Z"/><path class="cls-4" d="M429.64,262.48c0,.87-.23,1.69-1.1,1.64-1.62-.1-3.26-.57-3.75-2.34a1.27,1.27,0,0,1,1.48-1.62C427.65,260.48,429.09,261,429.64,262.48Z"/><path class="cls-4" d="M426.08,270a2.08,2.08,0,0,1-1.73,1.91c-1,.23-2,.43-2.58-.79-.39-.89-1.17-1.75-.4-2.77.35-.47,1.38-.74,1.38-.27,0,2.88,1.25,2.2,2.8,1.23A6.7,6.7,0,0,1,426.08,270Z"/><path class="cls-4" d="M427.69,265.87c-.35,1.16-.77,2-1.79,1.85-1.22-.18-2.73-.35-2.9-1.92-.06-.6.28-2,1.29-1.75A14.64,14.64,0,0,1,427.69,265.87Z"/><path class="cls-3" d="M210.74,129.35c.16,7.26-.27,7.91-4.53,8.22-2.41.18-3.74-1.1-5-2.83-1.83-2.49-3.85-3-6.68-1.11-3.11,2.1-6.62,3.59-9.85,5.52-1.85,1.11-2.47.5-3-1.31-1.65-5.56-3.32-11.13-5.17-16.63-1.05-3.11,1.41-3,3-3.52q21.83-6.78,43.71-13.42c8.15-2.48,7.87-3.94,10.46,5.55.69,2.51,1.67,5,2.36,7.47.38,1.36.85,3-1.35,3.43-1.8.35-3.12-.11-3.64-2.11-.59-2.25-1.28-4.47-2-6.68-.33-1-1-1.89-2.24-1.58s-1.2,1.58-1,2.51a59.42,59.42,0,0,0,2,6.67c1.18,3.08-.56,3.26-2.75,2.89a9.17,9.17,0,0,1-4.43-2.64c-4.31-3.82-8.12-2.61-9.39,3.07A43.73,43.73,0,0,0,210.74,129.35Zm-16.42-4.1c-.33-3.29-1.91-5.36-5.43-5.48s-5.57,1.46-5.92,4.91c-.33,3.22,2.67,6.51,5.82,6.21S194,128.67,194.32,125.25Z"/><path class="cls-3" d="M214.4,130.71a21.14,21.14,0,0,1,0-2.16c.3-2.24-1.06-5.18,1.24-6.53,2.51-1.48,3.49,1.87,5.28,2.85,3.57,1.95,7,1.14,10.58.17,6-1.64,6.31-1.45,8.13,4.24.84,2.64,1.64,5.28,2.51,7.91.93,2.8-.09,4.38-2.87,5.21-16,4.81-32,9.61-48,14.57-2.65.83-3.85.09-4.54-2.31,0-.14-.09-.28-.14-.41-3.22-10.26-.94-14.25,9.86-17.49,2.13-.64,2.8,1.11,3.93,2.07,3.77,3.26,7.44,3.58,11.59,1C215.92,137.43,213.8,133.53,214.4,130.71Z"/><path class="cls-3" d="M340.27,158c.11-5.84,5.2-10.91,10.86-10.83a11.27,11.27,0,0,1,0,22.54C344.92,169.66,340.15,164.5,340.27,158Zm1.78.69c.07,5,4.43,9.36,9.16,9.19a9.8,9.8,0,0,0,9.3-9.7c-.13-4.82-4.66-9.29-9.33-9.21A9.41,9.41,0,0,0,342.05,158.73Z"/><path class="cls-3" d="M166.26,217.26a3.91,3.91,0,0,1,3.37,4.36c-.11,2.11-.94,4.15-3.52,4.17-2.28,0-3.32-1.59-3.36-3.73C162.71,219.64,163.72,217.88,166.26,217.26Z"/><path class="cls-3" d="M266.07,86.71c12.93-.08,11.23-.74,11.5,11.52.1,4.13-1.48,5.92-5.54,5.84-4.36-.08-8.73.06-13.08-.06-3.45-.09-5.24-1.73-5.19-5.48C253.93,86,252.79,86.63,266.07,86.71Z"/><path class="cls-5" d="M194.32,125.25c-.32,3.42-2.33,5.34-5.53,5.64s-6.15-3-5.82-6.21c.35-3.45,2.52-5,5.92-4.91S194,122,194.32,125.25ZM188.66,127c1.13-.09,2-.51,2-1.81s-.79-1.81-1.94-1.83c-1.32,0-2.32.48-2.2,2C186.6,126.64,187.54,127,188.66,127Z"/><path class="cls-5" d="M342.05,158.73a9.41,9.41,0,0,1,9.13-9.72c4.67-.08,9.2,4.39,9.33,9.21a9.8,9.8,0,0,1-9.3,9.7C346.48,168.09,342.12,163.72,342.05,158.73Zm16-.26a6.82,6.82,0,0,0-6.67-7.05c-3.7-.06-7.45,3.57-7.38,7.13a7.11,7.11,0,0,0,7.43,6.92C355.36,165.41,358,162.58,358,158.47Z"/><path class="cls-3" d="M188.66,127c-1.12,0-2.06-.35-2.15-1.63-.12-1.53.88-2,2.2-2,1.15,0,1.95.55,1.94,1.83S189.79,126.9,188.66,127Z"/><path class="cls-3" d="M358,158.47c0,4.11-2.67,6.94-6.62,7a7.11,7.11,0,0,1-7.43-6.92c-.07-3.56,3.68-7.19,7.38-7.13A6.82,6.82,0,0,1,358,158.47Z"/><rect id="SVGID" class="cls-6" width="512" height="512"/></svg>