<svg id="Capa_1" data-name="Capa 1" xmlns="http://www.w3.org/2000/svg" viewBox="0 0 512 512"><defs><style>.cls-1{fill:#5f6fa4;}.cls-2{fill:#533359;}.cls-3{fill:#99a1cb;}.cls-4{fill:#eceaf0;}.cls-5{fill:#fcfcfd;}.cls-6{fill:#fff;}.cls-7{fill:none;}</style></defs><path class="cls-1" d="M.08,237.23c1.89-5.38,1.6-11.09,2.4-16.63Q13.85,141.73,67.52,83c39-42.51,87.19-68.74,143.89-79.14C218.79,2.52,226.3,1.92,233.75,1c1.06-.14,2.32.35,3.08-.87h36.62c5.69,1.79,11.65,1.56,17.47,2.4q79.17,11.48,138,65.73c42.2,39.13,68.89,87.18,78.34,144,12.49,75.15-4.76,143.45-52.08,203.24-39.92,50.43-92.25,81-155.44,92.74-7.37,1.36-14.89,1.94-22.33,2.91-1.05.14-2.33-.41-3.06.87H236c-5-2-10.46-1.67-15.7-2.39C115.33,495.25,28.21,414.59,6,311.05A259.21,259.21,0,0,1,.92,277c-.06-.81.11-1.74-.84-2.23Zm502.4,19C502,119.27,392.63,9.06,256.05,8.8a247.2,247.2,0,0,0-1,494.4C391.91,503.46,501.75,393.34,502.48,256.26Z"/><path class="cls-2" d="M502.48,256.26c-.73,137.08-110.57,247.2-247.39,246.94a247.2,247.2,0,0,1,1-494.4C392.63,9.06,502,119.27,502.48,256.26ZM251.6,486.57l1,1c-1,2.64-2.09,5.27-3.08,7.92-.41,1.11-1.7,2.64-.13,3.33s1.77-1.31,2.3-2.35a13.29,13.29,0,0,0,1.3-3.13c.79-3.76,3.14-4.28,6.69-4.61,5.94-.54,9.77.91,11.18,7.07.24,1,.6,3.05,2.31,2.27s.3-2.25-.15-3.26c-3.2-7.27-6.48-14.49-9.74-21.73-1.07-2.37-1.09-2.26-5.47-2.78-2.21-.26-2.15,1.5-2.68,2.59-3.16,6.64-6.22,13.32-9.32,20-1.12-.68-1.18-1.72-1.47-2.66-2-6.36-4-12.71-6.05-19.05-.28-.85-.41-2.23-1.78-1.94-1.54.32-.84,1.56-.58,2.41,2.55,8.26,5.15,16.51,7.74,24.75.25.81.44,1.74,1.49,1.8s1.34-.92,1.69-1.64C248.48,493.25,250,489.91,251.6,486.57ZM165.87,422.8,161,426.61a91,91,0,0,0-10.91,9.05,194.33,194.33,0,0,0,25.71,12.91c34.43,14.2,70.13,18.68,107.06,14,12.56-1.58,24.75-4.65,36.88-8.08-.59,2.58.33,3.09,2.3,1.52,1.76-1.4,3.32-3,5-4.59,1.49-.44,3-.76,4.45-1.33,34.06-13.57,63-34.32,85.8-63.09,40.3-50.82,54.28-108.57,42.2-172.1-8.8-46.3-31.59-85.32-67.38-116C340.58,54.73,280.86,39.17,214.43,51.79,168.35,60.54,129.64,83.44,98.91,119c-40,46.32-56.42,100.43-50,161.13C53.25,320.82,69.16,357,95,388.73c2.21,2.71,3.17,2.32,5.31.13A496.16,496.16,0,0,1,145.47,348a228.23,228.23,0,0,1,22.34-16.36c-.7,29.72,10.23,53.09,34.71,69.9A163.26,163.26,0,0,0,165.87,422.8Zm30,63.82c-4-9.72-7.52-18.22-11-26.7-.36-.88-.55-2.16-1.69-2.22-1.52-.09-1.51,1.36-1.82,2.4-2.14,7-4.33,14.06-6.37,21.12-.35,1.2-1.71,3.22.07,3.71,2,.55,1.84-1.92,2.26-3.24,1.89-6,3.69-12,5.81-18.9.95,2.08,1.49,3.17,2,4.3,3,7.17,6,14.36,9,21.53.46,1.11.52,2.87,2.15,2.73s1.37-1.92,1.73-3.06c2.13-6.89,4.24-13.78,6.26-20.7.32-1.1,1.43-2.87-.08-3.39-2-.7-1.86,1.54-2.23,2.75C200,473.11,198.1,479.29,195.88,486.62Zm-39.41-35.53c2.56,9.71,4.89,18.67,7.32,27.61.3,1.11.26,2.91,1.93,2.89,1.29,0,1.45-1.62,1.9-2.6,2.83-6.17,5.67-12.34,8.32-18.59.63-1.5,2.91-3.78.9-4.72-2.16-1-2.26,2.25-3,3.68-2.63,5.37-5,10.86-8,17.36-2.67-10-5-18.65-7.34-27.34-.32-1.18-.21-2.83-1.79-3-1.37-.11-1.52,1.44-2,2.43q-4.63,10.25-9.25,20.5c-.45,1-1.45,2.39-.25,3,1.69.88,1.95-1,2.44-2.09C150.57,464.14,153.35,458,156.47,451.09Zm189.12,5.85.75-.6,25.11,11.38c.88.4,1.79,1.14,2.74.35,1.11-.94.08-1.86-.3-2.65q-5.11-10.51-10.35-21c-.44-.87-.76-2.59-2.3-1.76s-.25,2.07.17,2.93c2.92,6.06,5.94,12.06,9.22,18.68-1.17-.36-1.69-.46-2.15-.67q-11.81-5.34-23.58-10.7c-1-.46-2.17-1.46-3.13-.59-1.25,1.13,0,2.35.53,3.42,3.16,6.5,6.32,13,9.59,19.43.55,1.09.84,3.47,2.67,2.42,1.67-.95-.11-2.53-.65-3.66C351.22,468.25,348.38,462.61,345.59,456.94Zm-3,16.83a11.84,11.84,0,0,0-11.74-12,13.27,13.27,0,0,0-13,13,12.07,12.07,0,0,0,11.87,11.94A12.94,12.94,0,0,0,342.55,473.77ZM219,495.83a12.58,12.58,0,0,0,12.68-12.58c-.1-6.68-5.51-11.74-12.48-11.68a12.71,12.71,0,0,0-12.73,12.62C206.59,490.8,212.06,495.89,219,495.83Zm73.9-2.63c-10.05,0-15.15-6.71-12.55-15.06,2.26-7.27,12.17-11.5,19.14-8.11.86.42,1.73,1.47,2.51.25s-.41-1.85-1.2-2.33a11.11,11.11,0,0,0-3.09-1.31c-6.17-1.53-14.2,1.71-17.91,7.14-4.05,5.92-3,14.82,2.3,18.88,5.89,4.55,17.91,3.9,22.08-1.18.64-.78,1.43-1.69.6-2.61-1.09-1.21-1.71.19-2.35.78A14.38,14.38,0,0,1,292.93,493.2Zm21.42-4.82c-1.72-7.22-3.68-15.45-5.66-23.67-.16-.68-.47-1.48-1.35-1.34-1.13.17-1.11,1.05-.9,1.94q2.88,12.36,5.77,24.72c.16.66.46,1.46,1.35,1.35C314.77,491.22,314.56,490.26,314.35,488.38ZM151.6,444.16c.12-.7,0-1.32-.56-1.52-1.33-.46-1.64.66-2.12,1.5-3.9,6.88-7.82,13.75-11.69,20.65-.48.86-1.74,2-.16,2.85s1.83-.91,2.34-1.79c3.79-6.61,7.53-13.26,11.28-19.9C151,445.34,151.33,444.7,151.6,444.16Z"/><path class="cls-3" d="M319.77,454.51c-12.13,3.43-24.32,6.5-36.88,8.08-36.93,4.66-72.63.18-107.06-14a194.33,194.33,0,0,1-25.71-12.91A91,91,0,0,1,161,426.61c4.41,5.41,11.14,6.78,17,9.7,2.1,1.06,4.22,1,5.3-1.57s-.4-4-2.51-5q-7.44-3.5-14.91-7a163.26,163.26,0,0,1,36.65-21.27c-24.48-16.81-35.41-40.18-34.71-69.9A228.23,228.23,0,0,0,145.47,348a496.16,496.16,0,0,0-45.12,40.87c-2.14,2.19-3.1,2.58-5.31-.13C69.16,357,53.25,320.82,48.93,280.13c-6.44-60.7,10-114.81,50-161.13,30.73-35.56,69.44-58.46,115.52-67.21,66.43-12.62,126.15,2.94,177.67,47.12,35.79,30.69,58.58,69.71,67.38,116,12.08,63.53-1.9,121.28-42.2,172.1-22.81,28.77-51.74,49.52-85.8,63.09-1.43.57-3,.89-4.44,1.33-.77-1.79-1.8-2-3.2-.61S321.13,453.29,319.77,454.51ZM270.88,135.69l.05.07c1.5-3.1,1-5.85-.83-8.77-3-4.79-5.65-9.85-8.54-14.74-2.64-4.47-6.49-4.46-9.16,0q-4.67,7.88-9.13,15.87c-2.86,5.09-1.05,8.41,4.81,8.23,3.52-.1,4.16,1.15,4.14,4.36-.15,16.49-.07,33-.07,49.47v7.91c-4.7-4.46-8.65-8.27-12.67-12s-3.95-9.53.54-13.09a12.87,12.87,0,0,0,1.67-18.87,13.1,13.1,0,0,0-19-.09c-5.13,5.5-4.66,14.41,1.58,18.76,3,2.09,3.73,4.33,3.26,7.43-.78,5.18,1.29,8.85,5.19,12.19,6,5.17,11.65,10.82,17.48,16.22a5,5,0,0,1,2,4q-.1,18.55,0,37.1c0,2.24-.69,3-2.92,2.92-6.24-.13-12.48,0-18.73-.07-3.25-.05-5.93.91-6,4.45-.1,3.86,2.83,4.78,6.16,4.78q26,0,51.94,0c3.24,0,6.24-.77,6.11-4.8-.11-3.69-2.87-4.43-6-4.4-6,.05-11.92-.12-17.88.07-2.81.09-3.59-.84-3.57-3.62q.17-26.64,0-53.3a6.87,6.87,0,0,1,2.41-5.56c5-4.6,9.73-9.56,14.91-14,4.28-3.64,7.07-7.59,6-13.49-.35-1.93.13-3.16,2.62-3.14,3.52,0,5-2.2,5-5.57,0-4.26,0-8.53,0-12.79,0-3.67-1.86-5.49-5.53-5.48Zm10,198.38c6.67-1.79,12.23-3.39,17.45-5.95A100.45,100.45,0,0,0,313.64,319c3.89-2.86,7.68-5.86,10.37-10,2-3.12,3-6.42,1.83-10.11-1.26-4.05-3-4.92-6.94-3.64-1.89.61-3.77,1.25-5.7,1.7a287.22,287.22,0,0,1-72.1,7.57c-22.6-.46-42.06,7.65-60.8,18.85a3.9,3.9,0,0,0-2.32,3.22c-2.7,27.82,7.05,52.95,34.12,69a9.1,9.1,0,0,0,7.3.82,86,86,0,0,1,43.3.65c20.08,5.52,40.1,5,60-.73,42.61-12.26,74.4-40.72,104.94-70.92,3.24-3.21,3.67-7.8,2.21-12s-5.71-4.65-9.48-5.33a19.65,19.65,0,0,0-3-.13c-16.62-.37-31.39,5.25-45.18,14a240.27,240.27,0,0,1-28.57,15.95c-8.49,3.89-17.24,4.39-26.2,2.85C305.57,338.72,293.76,336.44,280.86,334.07ZM256.39,79.22A59.69,59.69,0,0,0,224,88c-25,14.76-38.57,36.3-37.43,65.91.69,18,9.21,32.56,21.65,44.94,11.64,11.57,18.38,25.05,17.56,41.78-.18,3.57,1.63,5.33,5,5.5s6.84-.17,10.21.17c4.12.43,4.08-1.88,4.18-4.9.11-3.26-.73-4.86-4.22-4.28-.82.14-1.71-.08-2.54,0-2.63.38-3.26-.8-3.46-3.31-.94-11.9-5.37-22.53-12.14-32.28-3.36-4.83-8-8.43-11.81-12.84-13-15.08-18.65-32-14.19-52,7.81-35.09,54.5-67.36,94.5-36,21.26,16.69,33.24,44,17.25,73.82a155,155,0,0,1-15.45,22.91c-8.33,10.49-13.58,22.28-14.44,35.73-.21,3.16-1,4.43-4.15,4a27.18,27.18,0,0,0-3.83,0,1.84,1.84,0,0,0-2.09,1.58c-1.4,5.38.16,7.51,5.69,7.51,2.83,0,5.68.09,8.51-.11,3.19-.22,5-2.15,4.79-5.35-.81-14.5,4.18-26.94,13-38.18,3.93-5,7.73-10.18,11.23-15.52,6.54-10,11.39-20.71,12.67-32.65C328.58,116,295.24,79.26,256.39,79.22Zm.46,197.27c7.65,0,15.3,0,22.95,0,3.22,0,5.76-.86,5.65-4.67-.1-3.65-2.71-4.17-5.67-4.17q-23.16,0-46.33,0c-3,0-5.67.76-5.71,4.17s2.37,4.75,5.73,4.71C241.26,276.43,249.06,276.49,256.85,276.49Zm0,5.9H235.18c-2.89,0-4.63,1.53-4.89,4.28-.2,2.18,1.06,4.25,3.27,4.28a97.72,97.72,0,0,1,21,2.43c6.73,1.54,13.11-3.76,20.1-2.19a10.7,10.7,0,0,0,2.12,0c3.2,0,6.8.23,6.82-4.29,0-4.31-3.32-4.59-6.68-4.55C270.23,282.43,263.56,282.39,256.89,282.39Zm9.77,169.9c4.88-.58,9.77-1.21,14.66-1.7,2.61-.26,4-1.72,3.73-4.14s-2.29-3-4.49-2.8c-4.77.35-9.55.66-14.32,1.05-2.65.22-5.49.8-5.34,4.13C261.06,452.32,264,452.27,266.66,452.29Zm30.4-381c2.05.29,3.63-.52,4.18-2.57a3.24,3.24,0,0,0-2.56-4.23,90.23,90.23,0,0,0-17.51-3c-2-.09-3.33.69-3.53,2.81s.37,3.64,2.72,4C285.93,69.28,291.49,70.29,297.06,71.28ZM196.89,436c-2.25-.06-3.6.87-4.08,2.72a3.23,3.23,0,0,0,2.29,4,115.1,115.1,0,0,0,17.48,4.81,3.14,3.14,0,0,0,3.63-2.29c.55-1.79.18-3.62-1.76-4.22C208.54,439.21,202.57,437.6,196.89,436Zm231.48-93a4,4,0,0,0,4.33-2.77c2.07-4.82,4.06-9.68,6.14-14.49,1-2.4.47-4.25-1.87-5.27s-3.83.6-4.67,2.48c-2.26,5-4.44,10.13-6.46,15.28C424.78,340.93,426.1,342.53,428.37,343Zm23-81.31c0-1.47.15-4.17-.05-6.85a3.09,3.09,0,0,0-3.44-3,3,3,0,0,0-3.19,2.83q-.62,9.29-.88,18.61a3,3,0,0,0,3.13,3.29c2.17.09,3.35-.83,3.73-3.1A63.91,63.91,0,0,0,451.41,261.69ZM149.13,98.93a2.35,2.35,0,0,0,.9-.13c5.43-3.26,10.91-6.44,16.22-9.89a2.94,2.94,0,0,0,.52-4.51c-1.17-1.45-2.8-2.1-4.5-1.11q-7.67,4.48-15.19,9.19A3.23,3.23,0,0,0,146,96.63,3.39,3.39,0,0,0,149.13,98.93ZM81.81,176.36a4.54,4.54,0,0,0,3.36-2.16q4-7.47,7.93-14.94a3.33,3.33,0,0,0-1.21-4.76c-1.94-1.36-3.63-.56-4.71,1.12a101.24,101.24,0,0,0-8.4,15.62C77.7,173.81,79.13,175.54,81.81,176.36ZM228.48,61.27c-5.67,1.16-11.35,2.26-17,3.5A3.19,3.19,0,0,0,208.9,69a3.36,3.36,0,0,0,4.21,2.65c5.56-1,11.09-2.16,16.64-3.19,2.29-.43,3.14-1.83,2.79-4S230.62,61.46,228.48,61.27ZM90.53,351.6c-2.71-.09-4.46,2.8-2.89,5.45,2.89,4.87,6.09,9.55,9.29,14.22a3.43,3.43,0,0,0,5.2,1c1.91-1.42,1.8-3.33.49-5.25-2.93-4.35-5.81-8.73-8.73-13.08A4.31,4.31,0,0,0,90.53,351.6Zm241.4,85.19a99.74,99.74,0,0,0,17.24-8.41c1.57-1,1.39-3.06.51-4.66a3,3,0,0,0-4.1-1.14c-5.41,2.45-10.75,5-16.08,7.67-1.66.82-1.87,2.47-1.4,4.06S329.86,436.82,331.93,436.79Zm47.12-30.05a3.14,3.14,0,0,0-1.75-3.14c-1.63-.94-3-.34-4.31.63-4.12,3-8.26,6-12.35,9-1.78,1.32-3.47,2.87-1.92,5.3s3.66,2.25,5.83.66c4.13-3,8.29-6,12.39-9C378.08,409.39,379.15,408.39,379.05,406.74Zm12.69-290.89a3.49,3.49,0,0,0-.52-1.31,79.43,79.43,0,0,0-14.73-12.73c-1.45-1-3.33-.32-4.42,1.39a3,3,0,0,0,.59,4.23c4.33,3.86,8.73,7.65,13.14,11.42a3.67,3.67,0,0,0,5.94-3ZM59.7,263.29a55.56,55.56,0,0,0,.76,10.38c.35,2.1,1.37,3.54,3.51,3.48,2.36-.07,3.48-1.69,3.38-4-.24-5.77-.5-11.54-.89-17.3a3.14,3.14,0,0,0-3.4-3.08A3.18,3.18,0,0,0,59.74,256C59.58,258.2,59.7,260.47,59.7,263.29Zm384.85-59.76c-1.81-5.93-3.32-12.14-6.17-17.87-.82-1.63-2.58-1.71-4.13-1.14s-2.7,2-2.18,3.68c1.78,5.81,3.74,11.56,5.76,17.3.69,2,2.47,2.26,4.25,1.76S444.54,205.46,444.55,203.53ZM138.8,105.47a4,4,0,0,0-2-3.09,3.22,3.22,0,0,0-3.93.59q-6.18,5.2-12.21,10.58c-1.88,1.67-3,3.77-.79,5.85s4.06.85,5.92-.85c3.57-3.24,7.22-6.38,10.88-9.52A5.53,5.53,0,0,0,138.8,105.47ZM86,339.48c-3.11-5.55-4.65-12.25-8.33-18-.82-1.26-2.6-1.08-3.92-.42s-2.35,1.92-1.83,3.45a108.2,108.2,0,0,0,7.33,17.08c.86,1.57,2.46,1.79,4.09,1.39S85.61,341.47,86,339.48Zm-7.5-150c0-2.17-.33-3.54-1.93-4s-3.38-.37-4.13,1.2a71.32,71.32,0,0,0-5.92,18.46,2.59,2.59,0,0,0,2.19,3.14c1.57.33,3.5.44,4.1-1.26C74.94,201,76.76,194.89,78.51,189.45ZM60.46,235.83c.24,3-1,6.23,3,6.51s3.79-2.81,4.12-5.55c.54-4.48,1.27-8.94,2-13.4.39-2.44-.28-4.34-2.83-4.85s-3.91,1.32-4.29,3.62C61.64,226.89,61.05,231.66,60.46,235.83Zm377.32,70.74c-.08,2.1.38,3.66,2.52,4a3.44,3.44,0,0,0,4.25-2.6A129.27,129.27,0,0,0,448.43,291c.34-2.29-1-3.57-2.88-4.06a3.12,3.12,0,0,0-3.9,2.46C440.23,295.2,439,301,437.78,306.57Zm13-70.26c-.73-5.16-1.39-10.34-2.24-15.48-.36-2.17-1.72-3.65-4.16-3.23-2.64.45-3.34,2.35-3,4.74.73,4.88,1.6,9.73,2.23,14.62.32,2.5.93,4.7,3.89,4.44S450.79,238.78,450.76,236.31Zm-26.55,119c.05-1.93-.45-3.07-1.82-3.55a3.79,3.79,0,0,0-4.77,1.68c-2.91,4.33-5.79,8.69-8.68,13-1.35,2-1.62,4,.46,5.62,2.25,1.72,4.06.45,5.35-1.44,2.94-4.31,5.77-8.71,8.57-13.11A9.9,9.9,0,0,0,424.21,355.28ZM316,69.2c-2.87-.26-4.24.61-4.82,2.44a3,3,0,0,0,1.78,3.87q8.43,3.34,17,6.33a3,3,0,0,0,3.77-2c.71-1.71.57-3.62-1.23-4.44A118.49,118.49,0,0,0,316,69.2ZM99.75,146.74a9,9,0,0,0,2.62-1.59c3.69-4.46,7.28-9,10.83-13.59a3,3,0,0,0-.17-4.24c-1.38-1.44-3.33-1.76-4.59-.57a59.12,59.12,0,0,0-12,15.26C95.35,144.16,96.9,146.05,99.75,146.74Zm247.08-64A3.45,3.45,0,0,0,343,84.78a3,3,0,0,0,1.37,4c4.92,3,9.89,6,14.89,8.86A3.27,3.27,0,0,0,364,96.53c1.22-1.9.54-3.65-1.17-4.76-3.78-2.46-7.64-4.79-11.52-7.07C349.89,83.86,348.58,82.63,346.83,82.7ZM243.27,452.16c1.23,0,1.66,0,2.08,0,2.45.13,4.7-.2,5.1-3.18.44-3.21-1.93-3.75-4.29-4-5.06-.5-10.13-.91-15.21-1.31-2.24-.18-4,.58-4.31,3s1.25,3.6,3.54,3.88ZM432.4,171c-3-5.72-5.58-12-9.95-17.26-.95-1.15-2.52-1.14-3.84-.1a3.49,3.49,0,0,0-1,4.57c2.62,5.15,5.38,10.23,8.21,15.26,1,1.74,2.75,1.91,4.47,1.29C431.76,174.25,432.18,172.85,432.4,171ZM400,125.4a2.75,2.75,0,0,0-2.79,1.54,4.39,4.39,0,0,0,.78,4.76c3.27,4.08,6.55,8.13,9.84,12.19,1.39,1.71,3,2.69,5.06,1.09s2.13-3.44.49-5.46c-3.29-4.05-6.53-8.15-9.82-12.2C402.64,126.21,401.59,125.24,400,125.4Zm-326.66,181c-1.16-5.23-2.31-10.89-3.7-16.49-.51-2.06-2.29-2.85-4.34-2.35s-2.93,2.18-2.49,4.21c1.21,5.5,2.47,11,3.88,16.45.49,1.91,1.8,3.29,4,2.75S73.66,309,73.32,306.41ZM180.79,82.11c5.1-2,11.17-4.32,17.12-6.89,1.34-.58,1.65-2.2.92-3.75s-2-2.68-3.69-2.19A95.36,95.36,0,0,0,177.73,76c-1.6.83-1.75,2.5-1.33,4.13S178.19,82.13,180.79,82.11ZM403.84,383.17c.05-1.78-.48-2.82-1.78-3.49a2.74,2.74,0,0,0-3.51.38c-4.18,4.25-8.36,8.51-12.49,12.81a3.07,3.07,0,0,0,0,4.58,3.23,3.23,0,0,0,4.61.57c4.66-4.15,9.22-8.43,12.83-13.58A3,3,0,0,0,403.84,383.17ZM299.38,447.24A112.83,112.83,0,0,0,316,442.76c1.94-.67,3-2.23,2.4-4.33-.72-2.29-2.62-2.88-4.77-2.31q-7.95,2.08-15.84,4.39c-1.94.57-3.24,2-2.74,4.14S297.29,447.43,299.38,447.24ZM255,66.72c2.81,0,5.63,0,8.45,0a3.29,3.29,0,0,0,3.69-3.25,3.23,3.23,0,0,0-3.39-3.57c-5.77-.16-11.55-.13-17.32,0a3.25,3.25,0,0,0-3.47,3.49c.05,2.15,1.43,3.31,3.58,3.35C249.34,66.76,252.16,66.73,255,66.72Z"/><path class="cls-4" d="M251.6,486.57c-1.57,3.34-3.12,6.68-4.73,10-.35.72-.6,1.71-1.69,1.64s-1.24-1-1.49-1.8c-2.59-8.24-5.19-16.49-7.74-24.75-.26-.85-1-2.09.58-2.41,1.37-.29,1.5,1.09,1.78,1.94,2.06,6.34,4.06,12.69,6.05,19.05.29.94.35,2,1.47,2.66,3.1-6.69,6.16-13.37,9.32-20,.53-1.09.47-2.85,2.68-2.59,4.38.52,4.4.41,5.47,2.78,3.26,7.24,6.54,14.46,9.74,21.73.45,1,1.86,2.48.15,3.26s-2.07-1.23-2.31-2.27c-1.41-6.16-5.24-7.61-11.18-7.07-3.55.33-5.9.85-6.69,4.61a13.29,13.29,0,0,1-1.3,3.13c-.53,1-.64,3.09-2.3,2.35s-.28-2.22.13-3.33c1-2.65,2.05-5.28,3.08-7.92l1.73-4.26c.36-.64.63-1.27.06-1.93l-.87,1.25C252.89,484,252.25,485.26,251.6,486.57ZM261,474.08c-1.7,4.17-4.73,7.88-4.06,11.69.3,1.69,5.59.35,8.61.46.16,0,.33-.32.62-.62-.22-.56-.44-1.22-.72-1.85C264,480.68,262.62,477.61,261,474.08Zm-2.18-1.88-.23-.3c-.1.1-.28.19-.28.29s.15.22.23.33Z"/><path class="cls-4" d="M195.88,486.62c2.22-7.33,4.08-13.51,6-19.67.37-1.21.19-3.45,2.23-2.75,1.51.52.4,2.29.08,3.39-2,6.92-4.13,13.81-6.26,20.7-.36,1.14-.12,2.93-1.73,3.06s-1.69-1.62-2.15-2.73c-3-7.17-6-14.36-9-21.53-.47-1.13-1-2.22-2-4.3-2.12,6.92-3.92,12.92-5.81,18.9-.42,1.32-.25,3.79-2.26,3.24-1.78-.49-.42-2.51-.07-3.71,2-7.06,4.23-14.08,6.37-21.12.31-1,.3-2.49,1.82-2.4,1.14.06,1.33,1.34,1.69,2.22C188.36,468.4,191.86,476.9,195.88,486.62Z"/><path class="cls-4" d="M156.47,451.09c-3.12,6.88-5.9,13.05-8.73,19.2-.49,1.06-.75,3-2.44,2.09-1.2-.64-.2-2,.25-3q4.62-10.26,9.25-20.5c.45-1,.6-2.54,2-2.43,1.58.13,1.47,1.78,1.79,3,2.33,8.69,4.67,17.38,7.34,27.34,3-6.5,5.34-12,8-17.36.71-1.43.81-4.69,3-3.68,2,.94-.27,3.22-.9,4.72-2.65,6.25-5.49,12.42-8.32,18.59-.45,1-.61,2.57-1.9,2.6-1.67,0-1.63-1.78-1.93-2.89C161.36,469.76,159,460.8,156.47,451.09Z"/><path class="cls-4" d="M345.59,456.94c2.79,5.67,5.63,11.31,8.32,17,.54,1.13,2.32,2.71.65,3.66-1.83,1.05-2.12-1.33-2.67-2.42-3.27-6.44-6.43-12.93-9.59-19.43-.53-1.07-1.78-2.29-.53-3.42,1-.87,2.12.13,3.13.59q11.79,5.35,23.58,10.7c.46.21,1,.31,2.15.67-3.28-6.62-6.3-12.62-9.22-18.68-.42-.86-1.7-2.1-.17-2.93s1.86.89,2.3,1.76q5.25,10.44,10.35,21c.38.79,1.41,1.71.3,2.65-.95.79-1.86.05-2.74-.35l-25.11-11.38Z"/><path class="cls-4" d="M342.55,473.77a12.94,12.94,0,0,1-12.87,13,12.07,12.07,0,0,1-11.87-11.94,13.27,13.27,0,0,1,13-13A11.84,11.84,0,0,1,342.55,473.77Zm-12.8,10.14a10.06,10.06,0,0,0,10.15-10.29,8.88,8.88,0,0,0-8.9-8.94,10.27,10.27,0,0,0-10.45,10.09A9.07,9.07,0,0,0,329.75,483.91Z"/><path class="cls-4" d="M219,495.83c-7,.06-12.44-5-12.53-11.64a12.71,12.71,0,0,1,12.73-12.62c7-.06,12.38,5,12.48,11.68A12.58,12.58,0,0,1,219,495.83Zm0-2.65c5.5-.09,10.21-4.82,10-10.05s-4.56-9-10.05-8.82a9.68,9.68,0,0,0-9.65,9.79C209.42,489.36,213.59,493.27,219.07,493.18Z"/><path class="cls-4" d="M292.93,493.2a14.38,14.38,0,0,0,9.53-3.55c.64-.59,1.26-2,2.35-.78.83.92,0,1.83-.6,2.61-4.17,5.08-16.19,5.73-22.08,1.18-5.27-4.06-6.35-13-2.3-18.88,3.71-5.43,11.74-8.67,17.91-7.14a11.11,11.11,0,0,1,3.09,1.31c.79.48,1.93,1.2,1.2,2.33s-1.65.17-2.51-.25c-7-3.39-16.88.84-19.14,8.11C277.78,486.49,282.88,493.17,292.93,493.2Z"/><path class="cls-5" d="M165.87,422.8q7.45,3.48,14.91,7c2.11,1,3.59,2.43,2.51,5s-3.2,2.63-5.3,1.57c-5.82-2.92-12.55-4.29-17-9.7Z"/><path class="cls-4" d="M314.35,488.38c.21,1.88.42,2.84-.79,3-.89.11-1.19-.69-1.35-1.35q-2.91-12.34-5.77-24.72c-.21-.89-.23-1.77.9-1.94.88-.14,1.19.66,1.35,1.34C310.67,472.93,312.63,481.16,314.35,488.38Z"/><path class="cls-4" d="M151.6,444.16c-.27.54-.56,1.18-.91,1.79-3.75,6.64-7.49,13.29-11.28,19.9-.51.88-.87,2.53-2.34,1.79s-.32-2,.16-2.85c3.87-6.9,7.79-13.77,11.69-20.65.48-.84.79-2,2.12-1.5C151.63,442.84,151.72,443.46,151.6,444.16Z"/><path class="cls-4" d="M319.77,454.51c1.36-1.22,2.75-2.41,4.07-3.68s2.43-1.18,3.2.61c-1.65,1.54-3.21,3.19-5,4.59C320.1,457.6,319.18,457.09,319.77,454.51Z"/><path class="cls-2" d="M280.86,334.07c12.9,2.37,24.71,4.65,36.56,6.68,9,1.54,17.71,1,26.2-2.85A240.27,240.27,0,0,0,372.19,322c13.79-8.77,28.56-14.39,45.18-14a19.65,19.65,0,0,1,3,.13c3.77.68,8,1.07,9.48,5.33s1,8.81-2.21,12c-30.54,30.2-62.33,58.66-104.94,70.92-19.88,5.72-39.9,6.25-60,.73a86,86,0,0,0-43.3-.65,9.1,9.1,0,0,1-7.3-.82c-27.07-16.07-36.82-41.2-34.12-69a3.9,3.9,0,0,1,2.32-3.22C199,312.15,218.5,304,241.1,304.5a287.22,287.22,0,0,0,72.1-7.57c1.93-.45,3.81-1.09,5.7-1.7,4-1.28,5.68-.41,6.94,3.64,1.14,3.69.19,7-1.83,10.11-2.69,4.13-6.48,7.13-10.37,10a100.45,100.45,0,0,1-15.33,9.15C293.09,330.68,287.53,332.28,280.86,334.07Z"/><path class="cls-2" d="M256.39,79.22c38.85,0,72.19,36.77,68.05,75.24-1.28,11.94-6.13,22.7-12.67,32.65-3.5,5.34-7.3,10.5-11.23,15.52-8.79,11.24-13.78,23.68-13,38.18.18,3.2-1.6,5.13-4.79,5.35-2.83.2-5.68.1-8.51.11-5.53,0-7.09-2.13-5.69-7.51a1.84,1.84,0,0,1,2.09-1.58,27.18,27.18,0,0,1,3.83,0c3.17.46,3.94-.81,4.15-4,.86-13.45,6.11-25.24,14.44-35.73a155,155,0,0,0,15.45-22.91c16-29.82,4-57.13-17.25-73.82-40-31.39-86.69.88-94.5,36-4.46,20,1.2,36.94,14.19,52,3.8,4.41,8.45,8,11.81,12.84,6.77,9.75,11.2,20.38,12.14,32.28.2,2.51.83,3.69,3.46,3.31.83-.12,1.72.1,2.54,0,3.49-.58,4.33,1,4.22,4.28-.1,3-.06,5.33-4.18,4.9-3.37-.34-6.81,0-10.21-.17s-5.18-1.93-5-5.5c.82-16.73-5.92-30.21-17.56-41.78-12.44-12.38-21-26.95-21.65-44.94C185.41,124.33,199,102.79,224,88A59.69,59.69,0,0,1,256.39,79.22Z"/><path class="cls-2" d="M270.88,135.69l15.75,0c3.67,0,5.52,1.81,5.53,5.48,0,4.26,0,8.53,0,12.79,0,3.37-1.44,5.59-5,5.57-2.49,0-3,1.21-2.62,3.14,1.05,5.9-1.74,9.85-6,13.49-5.18,4.42-9.89,9.38-14.91,14a6.87,6.87,0,0,0-2.41,5.56q.13,26.66,0,53.3c0,2.78.76,3.71,3.57,3.62,6-.19,11.92,0,17.88-.07,3.16,0,5.92.71,6,4.4.13,4-2.87,4.8-6.11,4.8q-26,0-51.94,0c-3.33,0-6.26-.92-6.16-4.78.1-3.54,2.78-4.5,6-4.45,6.25.09,12.49-.06,18.73.07,2.23,0,2.93-.68,2.92-2.92q-.13-18.54,0-37.1a5,5,0,0,0-2-4c-5.83-5.4-11.45-11-17.48-16.22-3.9-3.34-6-7-5.19-12.19.47-3.1-.28-5.34-3.26-7.43-6.24-4.35-6.71-13.26-1.58-18.76a13.1,13.1,0,0,1,19,.09A12.87,12.87,0,0,1,240,173c-4.49,3.56-4.69,9.23-.54,13.09s8,7.56,12.67,12V190.2c0-16.49-.08-33,.07-49.47,0-3.21-.62-4.46-4.14-4.36-5.86.18-7.67-3.14-4.81-8.23q4.47-8,9.13-15.87c2.67-4.48,6.52-4.49,9.16,0,2.89,4.89,5.5,10,8.54,14.74,1.86,2.92,2.33,5.67.83,8.77a1.55,1.55,0,0,0-1.8.73,16.66,16.66,0,0,1-2.55,0c-4.2-.71-5.56.81-5.4,5.23.37,9.77.12,19.57.12,29.35v8.81c5.06-4.77,9.41-8.57,13.39-12.73a4.38,4.38,0,0,0-2.36-7.53c-2-.43-3.78-1.6-3.8-3.5-.06-6.46-1.22-13,.79-19.37C270,136.62,270.66,136.5,270.88,135.69ZM232.06,158.9c-2.15.47-3.7,1.6-3.67,3.92,0,2.54,1.58,3.84,4.08,3.68a3.37,3.37,0,0,0,3.44-3.9C235.77,160.31,234.21,159.23,232.06,158.9ZM283,148.1c.07-1.83.27-3.56-2.41-3.53-2.11,0-3.59.26-3.48,3,.08,2,.35,3.3,2.77,3.24C281.8,150.71,283.37,150.56,283,148.1Zm-28.06-21.21a6.72,6.72,0,0,0,4.39,0c-.57-1.49-1-3-2.63-3.82C256,124.33,254.88,125.3,254.93,126.89Z"/><path class="cls-2" d="M256.85,276.49c-7.79,0-15.59-.06-23.38,0-3.36,0-5.78-1.22-5.73-4.71s2.66-4.18,5.71-4.17q23.18.08,46.33,0c3,0,5.57.52,5.67,4.17.11,3.81-2.43,4.68-5.65,4.67C272.15,276.47,264.5,276.49,256.85,276.49Z"/><path class="cls-2" d="M256.89,282.39c6.67,0,13.34,0,20,0,3.36,0,6.69.24,6.68,4.55,0,4.52-3.62,4.31-6.82,4.29a10.7,10.7,0,0,1-2.12,0c-7-1.57-13.37,3.73-20.1,2.19a97.72,97.72,0,0,0-21-2.43c-2.21,0-3.47-2.1-3.27-4.28.26-2.75,2-4.28,4.89-4.28Z"/><path class="cls-5" d="M266.66,452.29c-2.66,0-5.6,0-5.76-3.46-.15-3.33,2.69-3.91,5.34-4.13,4.77-.39,9.55-.7,14.32-1.05,2.2-.17,4.2.43,4.49,2.8s-1.12,3.88-3.73,4.14C276.43,451.08,271.54,451.71,266.66,452.29Z"/><path class="cls-5" d="M297.06,71.28c-5.57-1-11.13-2-16.7-3-2.35-.4-2.91-2-2.72-4s1.57-2.9,3.53-2.81a90.23,90.23,0,0,1,17.51,3,3.24,3.24,0,0,1,2.56,4.23C300.69,70.76,299.11,71.57,297.06,71.28Z"/><path class="cls-5" d="M196.89,436c5.68,1.61,11.65,3.22,17.56,5,1.94.6,2.31,2.43,1.76,4.22a3.14,3.14,0,0,1-3.63,2.29,115.1,115.1,0,0,1-17.48-4.81,3.23,3.23,0,0,1-2.29-4C193.29,436.86,194.64,435.93,196.89,436Z"/><path class="cls-5" d="M428.37,343c-2.27-.47-3.59-2.07-2.53-4.77,2-5.15,4.2-10.24,6.46-15.28.84-1.88,2.25-3.54,4.67-2.48s2.91,2.87,1.87,5.27c-2.08,4.81-4.07,9.67-6.14,14.49A4,4,0,0,1,428.37,343Z"/><path class="cls-5" d="M451.41,261.69a63.91,63.91,0,0,1-.7,11.77c-.38,2.27-1.56,3.19-3.73,3.1a3,3,0,0,1-3.13-3.29q.25-9.31.88-18.61a3,3,0,0,1,3.19-2.83,3.09,3.09,0,0,1,3.44,3C451.56,257.52,451.41,260.22,451.41,261.69Z"/><path class="cls-5" d="M149.13,98.93a3.39,3.39,0,0,1-3.18-2.3,3.23,3.23,0,0,1,1.13-4.15q7.54-4.7,15.19-9.19c1.7-1,3.33-.34,4.5,1.11a2.94,2.94,0,0,1-.52,4.51c-5.31,3.45-10.79,6.63-16.22,9.89A2.35,2.35,0,0,1,149.13,98.93Z"/><path class="cls-5" d="M81.81,176.36c-2.68-.82-4.11-2.55-3-5.12a101.24,101.24,0,0,1,8.4-15.62c1.08-1.68,2.77-2.48,4.71-1.12a3.33,3.33,0,0,1,1.21,4.76q-4,7.47-7.93,14.94A4.54,4.54,0,0,1,81.81,176.36Z"/><path class="cls-5" d="M228.48,61.27c2.14.19,3.69,1,4.06,3.19s-.5,3.53-2.79,4c-5.55,1-11.08,2.19-16.64,3.19A3.36,3.36,0,0,1,208.9,69a3.19,3.19,0,0,1,2.58-4.19C217.13,63.53,222.81,62.43,228.48,61.27Z"/><path class="cls-5" d="M90.53,351.6a4.31,4.31,0,0,1,3.36,2.32c2.92,4.35,5.8,8.73,8.73,13.08,1.31,1.92,1.42,3.83-.49,5.25a3.43,3.43,0,0,1-5.2-1c-3.2-4.67-6.4-9.35-9.29-14.22C86.07,354.4,87.82,351.51,90.53,351.6Z"/><path class="cls-5" d="M331.93,436.79c-2.07,0-3.34-.83-3.83-2.48s-.26-3.24,1.4-4.06c5.33-2.63,10.67-5.22,16.08-7.67a3,3,0,0,1,4.1,1.14c.88,1.6,1.06,3.67-.51,4.66A99.74,99.74,0,0,1,331.93,436.79Z"/><path class="cls-5" d="M379.05,406.74c.1,1.65-1,2.65-2.11,3.49-4.1,3-8.26,6-12.39,9-2.17,1.59-4.25,1.81-5.83-.66s.14-4,1.92-5.3c4.09-3,8.23-6,12.35-9,1.33-1,2.68-1.57,4.31-.63A3.14,3.14,0,0,1,379.05,406.74Z"/><path class="cls-5" d="M391.74,115.85a3.67,3.67,0,0,1-5.94,3c-4.41-3.77-8.81-7.56-13.14-11.42a3,3,0,0,1-.59-4.23c1.09-1.71,3-2.35,4.42-1.39a79.43,79.43,0,0,1,14.73,12.73A3.49,3.49,0,0,1,391.74,115.85Z"/><path class="cls-5" d="M59.7,263.29c0-2.82-.12-5.09,0-7.33a3.18,3.18,0,0,1,3.32-3.18,3.14,3.14,0,0,1,3.4,3.08c.39,5.76.65,11.53.89,17.3.1,2.3-1,3.92-3.38,4-2.14.06-3.16-1.38-3.51-3.48A55.56,55.56,0,0,1,59.7,263.29Z"/><path class="cls-5" d="M444.55,203.53c0,1.93-.8,3.25-2.47,3.73s-3.56.2-4.25-1.76c-2-5.74-4-11.49-5.76-17.3-.52-1.67.58-3.09,2.18-3.68s3.31-.49,4.13,1.14C441.23,191.39,442.74,197.6,444.55,203.53Z"/><path class="cls-5" d="M138.8,105.47a5.53,5.53,0,0,1-2.11,3.56c-3.66,3.14-7.31,6.28-10.88,9.52-1.86,1.7-3.8,2.88-5.92.85s-1.09-4.18.79-5.85q6-5.37,12.21-10.58a3.22,3.22,0,0,1,3.93-.59A4,4,0,0,1,138.8,105.47Z"/><path class="cls-5" d="M86,339.48c-.4,2-1.12,3.16-2.66,3.54s-3.23.18-4.09-1.39a108.2,108.2,0,0,1-7.33-17.08c-.52-1.53.5-2.78,1.83-3.45s3.1-.84,3.92.42C81.36,327.23,82.9,333.93,86,339.48Z"/><path class="cls-5" d="M78.51,189.45c-1.75,5.44-3.57,11.51-5.69,17.49-.6,1.7-2.53,1.59-4.1,1.26a2.59,2.59,0,0,1-2.19-3.14,71.32,71.32,0,0,1,5.92-18.46c.75-1.57,2.53-1.72,4.13-1.2S78.54,187.28,78.51,189.45Z"/><path class="cls-5" d="M60.46,235.83c.59-4.17,1.18-8.94,1.95-13.67.38-2.3,1.6-4.14,4.29-3.62s3.22,2.41,2.83,4.85c-.71,4.46-1.44,8.92-2,13.4-.33,2.74-.21,5.83-4.12,5.55S60.7,238.81,60.46,235.83Z"/><path class="cls-5" d="M437.78,306.57c1.24-5.57,2.45-11.37,3.87-17.13a3.12,3.12,0,0,1,3.9-2.46c1.85.49,3.22,1.77,2.88,4.06A129.27,129.27,0,0,1,444.55,308a3.44,3.44,0,0,1-4.25,2.6C438.16,310.23,437.7,308.67,437.78,306.57Z"/><path class="cls-5" d="M450.76,236.31c0,2.47-.3,4.83-3.26,5.09s-3.57-1.94-3.89-4.44c-.63-4.89-1.5-9.74-2.23-14.62-.36-2.39.34-4.29,3-4.74,2.44-.42,3.8,1.06,4.16,3.23C449.37,226,450,231.15,450.76,236.31Z"/><path class="cls-5" d="M424.21,355.28a9.9,9.9,0,0,1-.89,2.24c-2.8,4.4-5.63,8.8-8.57,13.11-1.29,1.89-3.1,3.16-5.35,1.44-2.08-1.6-1.81-3.61-.46-5.62,2.89-4.35,5.77-8.71,8.68-13a3.79,3.79,0,0,1,4.77-1.68C423.76,352.21,424.26,353.35,424.21,355.28Z"/><path class="cls-5" d="M316,69.2a118.49,118.49,0,0,1,16.51,6.23c1.8.82,1.94,2.73,1.23,4.44a3,3,0,0,1-3.77,2q-8.56-3-17-6.33a3,3,0,0,1-1.78-3.87C311.72,69.81,313.09,68.94,316,69.2Z"/><path class="cls-5" d="M99.75,146.74c-2.85-.69-4.4-2.58-3.27-4.73a59.12,59.12,0,0,1,12-15.26c1.26-1.19,3.21-.87,4.59.57a3,3,0,0,1,.17,4.24c-3.55,4.58-7.14,9.13-10.83,13.59A9,9,0,0,1,99.75,146.74Z"/><path class="cls-5" d="M346.83,82.7c1.75-.07,3.06,1.16,4.5,2,3.88,2.28,7.74,4.61,11.52,7.07,1.71,1.11,2.39,2.86,1.17,4.76a3.27,3.27,0,0,1-4.79,1.12c-5-2.89-10-5.83-14.89-8.86a3,3,0,0,1-1.37-4A3.45,3.45,0,0,1,346.83,82.7Z"/><path class="cls-5" d="M243.27,452.16l-13.09-1.57c-2.29-.28-3.81-1.44-3.54-3.88s2.07-3.21,4.31-3c5.08.4,10.15.81,15.21,1.31,2.36.24,4.73.78,4.29,4-.4,3-2.65,3.31-5.1,3.18C244.93,452.14,244.5,452.16,243.27,452.16Z"/><path class="cls-5" d="M432.4,171c-.22,1.81-.64,3.21-2.14,3.76-1.72.62-3.49.45-4.47-1.29-2.83-5-5.59-10.11-8.21-15.26a3.49,3.49,0,0,1,1-4.57c1.32-1,2.89-1.05,3.84.1C426.82,159,429.38,165.32,432.4,171Z"/><path class="cls-5" d="M400,125.4c1.62-.16,2.67.81,3.57,1.92,3.29,4.05,6.53,8.15,9.82,12.2,1.64,2,1.63,3.84-.49,5.46s-3.67.62-5.06-1.09c-3.29-4.06-6.57-8.11-9.84-12.19a4.39,4.39,0,0,1-.78-4.76A2.74,2.74,0,0,1,400,125.4Z"/><path class="cls-5" d="M73.32,306.41c.34,2.54-.48,4.06-2.6,4.57s-3.56-.84-4-2.75c-1.41-5.46-2.67-11-3.88-16.45-.44-2,.32-3.69,2.49-4.21s3.83.29,4.34,2.35C71,295.52,72.16,301.18,73.32,306.41Z"/><path class="cls-5" d="M180.79,82.11c-2.6,0-3.95-.33-4.39-2s-.27-3.3,1.33-4.13a95.36,95.36,0,0,1,17.41-6.68c1.71-.49,2.93.6,3.69,2.19s.42,3.17-.92,3.75C192,77.79,185.89,80.09,180.79,82.11Z"/><path class="cls-5" d="M403.84,383.17a3,3,0,0,1-.34,1.27c-3.61,5.15-8.17,9.43-12.83,13.58a3.23,3.23,0,0,1-4.61-.57,3.07,3.07,0,0,1,0-4.58c4.13-4.3,8.31-8.56,12.49-12.81a2.74,2.74,0,0,1,3.51-.38C403.36,380.35,403.89,381.39,403.84,383.17Z"/><path class="cls-5" d="M299.38,447.24c-2.09.19-3.79-.49-4.29-2.59s.8-3.57,2.74-4.14q7.89-2.31,15.84-4.39c2.15-.57,4.05,0,4.77,2.31.65,2.1-.46,3.66-2.4,4.33A112.83,112.83,0,0,1,299.38,447.24Z"/><path class="cls-6" d="M255,66.72c-2.82,0-5.64,0-8.46,0-2.15,0-3.53-1.2-3.58-3.35a3.25,3.25,0,0,1,3.47-3.49c5.77-.1,11.55-.13,17.32,0a3.23,3.23,0,0,1,3.39,3.57,3.29,3.29,0,0,1-3.69,3.25C260.61,66.68,257.79,66.72,255,66.72Z"/><path class="cls-2" d="M261,474.08c1.63,3.53,3.05,6.6,4.45,9.68.28.63.5,1.29.72,1.85-.29.3-.46.63-.62.62-3-.11-8.31,1.23-8.61-.46C256.26,482,259.29,478.25,261,474.08Z"/><path class="cls-2" d="M251.6,486.57c.65-1.31,1.29-2.62,1.94-3.94l.81.68-1.73,4.26Z"/><path class="cls-2" d="M253.54,482.63l.87-1.25c.57.66.3,1.29-.06,1.93Z"/><path class="cls-2" d="M258.81,472.2l-.28.32c-.08-.11-.24-.22-.23-.33s.18-.19.28-.29Z"/><path class="cls-2" d="M329.75,483.91a9.07,9.07,0,0,1-9.2-9.14A10.27,10.27,0,0,1,331,464.68a8.88,8.88,0,0,1,8.9,8.94A10.06,10.06,0,0,1,329.75,483.91Zm3.19-10c-.27-1.58-1.18-2.7-2.76-2.68-1.88,0-3.23,1-3.16,3.14a2.37,2.37,0,0,0,2.79,2.45A3.29,3.29,0,0,0,332.94,473.89Z"/><path class="cls-2" d="M219.07,493.18c-5.48.09-9.65-3.82-9.69-9.08a9.68,9.68,0,0,1,9.65-9.79c5.49-.14,9.85,3.69,10.05,8.82S224.57,493.09,219.07,493.18Zm0-12.72c-1.8.11-3.08,1-3.11,2.8S217.33,486,219,486a2.59,2.59,0,0,0,2.85-2.53C222,481.64,220.74,480.77,219,480.46Z"/><path class="cls-3" d="M269.32,136.71c-2,6.38-.85,12.91-.79,19.37,0,1.9,1.81,3.07,3.8,3.5a4.38,4.38,0,0,1,2.36,7.53c-4,4.16-8.33,8-13.39,12.73V171c0-9.78.25-19.58-.12-29.35-.16-4.42,1.2-5.94,5.4-5.23a16.66,16.66,0,0,0,2.55,0Z"/><path class="cls-3" d="M232.06,158.9c2.15.33,3.71,1.41,3.85,3.7a3.37,3.37,0,0,1-3.44,3.9c-2.5.16-4.05-1.14-4.08-3.68C228.36,160.5,229.91,159.37,232.06,158.9Z"/><path class="cls-3" d="M283,148.1c.38,2.46-1.19,2.61-3.12,2.66-2.42.06-2.69-1.27-2.77-3.24-.11-2.69,1.37-2.94,3.48-3C283.26,144.54,283.06,146.27,283,148.1Z"/><path class="cls-3" d="M254.93,126.89c-.05-1.59,1.06-2.56,1.76-3.78,1.65.87,2.06,2.33,2.63,3.82A6.72,6.72,0,0,1,254.93,126.89Z"/><path class="cls-3" d="M269.13,136.49a1.55,1.55,0,0,1,1.8-.73l-.05-.07c-.22.81-.88.93-1.56,1Z"/><path class="cls-4" d="M332.94,473.89a3.29,3.29,0,0,1-3.13,2.91,2.37,2.37,0,0,1-2.79-2.45c-.07-2.11,1.28-3.11,3.16-3.14C331.76,471.19,332.67,472.31,332.94,473.89Z"/><path class="cls-4" d="M219,480.46c1.71.31,2.94,1.18,2.85,3A2.59,2.59,0,0,1,219,486c-1.7,0-3.14-.94-3.11-2.77S217.23,480.57,219,480.46Z"/><rect id="SVGID" class="cls-7" width="512" height="512"/><rect id="SVGID-2" data-name="SVGID" class="cls-7" x="0.22" width="511.56" height="512"/></svg>