<svg id="Capa_1" data-name="Capa 1" xmlns="http://www.w3.org/2000/svg" viewBox="0 0 512 512"><defs><style>.cls-1{fill:#606fa4;}.cls-2{fill:#533359;}.cls-3{fill:#99a0cb;}.cls-4{fill:#684e76;}.cls-5{fill:#fbfbfc;}.cls-6{fill:#694e76;}.cls-7{fill:#939cc4;}.cls-8{fill:#cba8ae;}.cls-9{fill:#55375c;}.cls-10{fill:#e7e5ec;}.cls-11{fill:#e1bcb9;}.cls-12{fill:#e1dee6;}.cls-13{fill:#e4e2e9;}.cls-14{fill:#bf9ca6;}.cls-15{fill:#72607b;}.cls-16{fill:none;}</style></defs><path class="cls-1" d="M0,255.9C.05,114.39,114.86,0,256.8,0,397.27,0,512.09,115.38,512,256.32,511.82,397.71,396.82,512.08,254.88,512,114.58,511.92,0,396.81,0,255.9Zm256,247.46c136.59-.69,246.62-109.49,247-246.52a247.16,247.16,0,1,0-494.31-1C8.73,393.09,119,502.9,256.07,503.36Z"/><path class="cls-2" d="M256.07,503.36C119,502.9,8.73,393.09,8.8,255.79a247.16,247.16,0,1,1,494.31,1C502.69,393.87,392.66,502.67,256.07,503.36Zm-91.95-55.52-.1-.25-.23.06c-3.32-1.77-6.79-3.31-9.9-5.39-2.54-1.69-4.52-1.57-6.61.41-.18-4.3-.18-4.3-5-2.89-4,1.17-8,2.15-11.84,3.57-3.54,1.29-4.42,0-4.49-3.33-.09-4.56-.62-9.1-1-13.65-.08-1.12.07-2.56-1.22-2.92s-1.86,1.05-2.48,1.95c-4.26,6.24-8.57,12.45-12.68,18.79-.84,1.29-3.67,2.89-1.37,4.43,1.68,1.12,2.51-1.73,3.39-3,3.82-5.39,7.48-10.91,11.73-17.17.57,5.77,1.22,10.42,1.42,15.09.17,3.84,1.74,4.11,4.92,3,4.34-1.52,8.83-2.62,14.21-4.17-4.52,6.63-8.48,12.36-12.32,18.17-.67,1-2.55,2.38-.66,3.54,1.41.86,2.08-1,2.77-2,3.95-5.76,7.83-11.57,11.84-17.29.64-.92.78-2.82,2.75-2.18.89,1.63-.54,2.66-1.13,3.8-3.05,5.95-6.15,11.87-9.41,17.71-1.24,2.22-1.1,3.52,1.34,4.67,4.38,2.05,8.64,4.35,12.95,6.55,1,.5,2.17,1.4,2.83-.2.51-1.21-.72-1.66-1.6-2.11-3.65-1.92-7.33-3.81-11-5.76-.82-.44-2.37-.8-1.9-1.91,1-2.48,2.11-5.13,3.9-7,1.29-1.36,2.93.91,4.46,1.39.4.13.74.46,1.14.58,1.08.35,2.35,1.91,3.25.1.73-1.45-.94-1.81-1.82-2.35-5.46-3.35-5.46-3.34-2.43-9.13.53-1,1.14-2,1.58-3,.77-1.84,1.7-2.14,3.53-1.08,3.43,2,7,3.68,10.57,5.5,2.45.7,2.73,1.92,1.7,4.32-2.85,6.65-5.27,13.49-8,20.18-1,2.56-.63,3.68,2.25,3.89,4.12.32,8.22.7,12.34,0,5.78-1,10.17-3.71,11.73-9.71,1.46-5.66-1-10-5.12-13.58-3.59-3.12-7.9-5-12.34-6.51l-.1-.21h-.22l-1.4-.77Zm197-222A.81.81,0,0,0,362,225l-.11-.2,4.23.42c.14.49.29,1,.43,1.47l.51,1a6.11,6.11,0,0,1,1.16,3.37l.53.91.25,1c.06.9-.09,1.88.9,2.44l18.5,47.38c3.12-4.14,6-7.82,8.72-11.59,1.5-2.05,4.7-4.35,3.92-6.19-1.07-2.55-4.83-1.21-7.41-1.38-2.85-.18-3.47-.88-2-3.51q12-21,23.73-42.1c1.94-3.49,2.84-1.86,4.06.33q9,16.06,18,32.09c2.35,4.18,4.73,8.35,7.29,12.86l-12,1.5c9,12.16,17.66,23.74,26.71,35.89.3-1.23.43-1.71.53-2.2a201.83,201.83,0,0,0,2.28-72.67c-6.38-43.27-24.24-81.42-54.69-112.81-51.65-53.26-115-74.95-187.94-62-74.89,13.3-127.22,57.24-157,127.23-14.35,33.77-17.8,69.28-13.18,105.64,1.72,13.48,5.15,26.52,9,39.5A12,12,0,0,0,61,329.66l3.24,8.63c3.85,9.8,9,19,14.25,28,.72,1.23,1.14,3.37,3,3.19s2.1-2.2,2.64-3.58c4.55-11.64,9-23.31,13.48-35q16.27-42.6,32.54-85.19l2.72-6.87c1.77-.27,1.6-1.49,1.34-2.74l0,0c2.23-1.18,2-3.24,1.87-5.26a.6.6,0,0,1,.11-.61c1.59.14,2.61-.46,2.76-2.16,5.75,5.09,11.47,10.24,17.29,15.26,1.51,1.3,1.71,2.79,1.7,4.55q0,37.39,0,74.8c0,1.09.52,2.57-.51,3.2-1.3.8-2.36-.56-3.38-1.22q-17.53-11.42-35-22.92A33.26,33.26,0,0,0,116.1,300c-1.15-.59-2.49-2.32-3.64-.54-.94,1.47.94,2.07,1.87,2.83a28.14,28.14,0,0,0,2.46,1.69c10.14,6.61,20,13.77,30.52,19.66,8.09,4.51,12.65,9.89,10.63,19.43a7.81,7.81,0,0,0,0,1.28c0,2.5,1.45,1.87,2.87,1.41.6,0,.87-.16.37-.72l.09-1.62c1.52-.13,2-1.32,2.67-2.46,1.68-3,3.45-5.87,5.17-8.8,9.91-16.89,19.75-33.81,29.76-50.63,1.53-2.59,1.43-3.29-1.72-3.33-4.38-.05-8.76-.6-13.14-.76-1.91-.07-2.51-.95-2.47-2.64A17.15,17.15,0,0,0,187.4,268l8.75-12.73q6.79-10.12,13.58-20.24c2.55-3.82,2.44-4.1-2.28-4.51-4.47-.38-9,0-13.91-1.44L234,178.39c-5-1.38-9.48-1-13.86-1.41-2.41-.22-3.84-.53-2-3.47Q236.16,144,254,114.3c1.77-2.93,2.89-2.86,4.62,0q18.12,30,36.4,59.93c1.59,2.59.68,3-1.86,3.09-4.59.22-9.18.75-14.45,1.21l39.81,50.08,0,1.55-18,1.29c3.3,4.91,6.13,9.29,9.17,13.52.81,1.12.64,3.31,2.89,3.15,1.6,4.27,4.49,7.74,7.13,11.36.71,2.75,2.84,4.41,4.8,6.19.27,3.56,3.3,5.52,4.9,8.32,1.48,2.62.62,3.73-1.89,3.94-3.39.29-6.82.21-10.24.35-4,.16-4.52,1.06-2.7,4.75.31.64.65,1.27,1,1.88,7.24,12.23,14.41,24.5,21.77,36.65,1.72,2.84,2.95,6.12,5.87,8.13l1.08,3.35c.12,1,.47,2.18,1.45,2,.82-.15.25-1.31.06-2q0-7.71.07-15.41c1.5-1.07,3-2.2,4.51-3.21q17.66-11.56,35.34-23.12c1.06-.7,3.14-1.32,1.88-3.06-1-1.39-2.33.11-3.31.74-7.28,4.72-14.43,9.63-21.79,14.22-5.51,3.45-10.52,7.72-16.61,10.23l.09-74.53a.73.73,0,0,0,.33-.67.85.85,0,0,0,.43-.5l11-9.2c2.17.39,3.16-.71,3.43-2.72ZM339.92,452c-5.23.32-9.66,3.19-14.55,4.59-2.31.66-4.71,3.15-6.32,2.85-3.68-.7-2.5,1.32-2.12,2.71,2.22,8.08,4.57,16.14,6.92,24.19.3,1,.55,2.58,2.11,2s.49-1.95.22-2.93c-1.75-6.39-3.51-12.78-5.38-19.13-.43-1.47-1.08-2.78.11-4.11,1.16.35,1.11,1.11,1.33,1.76,2.19,6.54,4.43,13.07,6.62,19.62.65,1.95,1.28,4,4,3,5-1.72,9.93-3.55,14.88-5.37.9-.34,2.09-.74,1.5-2.09s-1.72-.72-2.6-.42c-3,1-5.87,2.13-8.82,3.19-5.53,2-5.37,1.92-7.42-3.45-1.09-2.85-1-4.52,2.37-5.06a15.21,15.21,0,0,0,3.23-1.1c.79-.33,1.71-.79,1.4-1.83-.4-1.32-1.52-1-2.48-.72-1.36.44-2.69.95-4,1.45s-2.83,1.2-3.23-1.06c-.62-3.54-5.13-8-2.21-10.11a29,29,0,0,1,15.36-5.26c.49,1.18.92,2.39,1.48,3.53,3.06,6.27,6.16,12.53,9.25,18.78.43.88.79,2.07,2.12,1.44s.61-1.64.2-2.52l-1.47-3.08-7.89-16.22c1.55-.66,2.21,0,3,.35,7.9,3.63,15.78,7.28,23.69,10.84,1,.47,2.24,1.82,3.43.38.93-1.14-.18-2.14-.65-3.11-2.72-5.63-5.49-11.25-8.25-16.87s-2.62-5.4,2.6-8.89c2.8-1.87,3.87-1.16,5.35,1.49,3.41,6.09,7.16,12,10.82,17.94.55.89,1,2.5,2.43,1.77,1.93-1,.26-2.24-.27-3.14-3.69-6.26-7.52-12.44-11.23-18.69-.49-.84-2-1.93-.67-2.86s1.84.82,2.45,1.66c4.23,5.92,8.45,11.84,12.6,17.8,1.09,1.57,2,2.7,4,1.17,4.1-3.08,8.31-6,12.47-9,.8-.57,1.91-1.23,1.1-2.36-1-1.39-2-.25-2.9.37-3.37,2.39-6.71,4.84-10.08,7.23-.86.61-1.81,1.81-2.87.37-1.52-2.06-3.61-4.06-4.13-6.38-.41-1.85,2.73-2.42,4.07-3.8.19-.2.49-.3.69-.5.7-.74,2.31-1.18,1.12-2.63-1-1.16-1.77-.09-2.57.38-5.84,3.42-5.84,3.43-9.83-2.1a29.87,29.87,0,0,0-1.76-2.42c-1.14-1.29-.83-2.06.54-3,3.46-2.48,6.8-5.13,10.17-7.75.75-.57,2-1.12,1.28-2.3-.89-1.42-2-.47-2.89.19-7.75,5.57-15.52,11.11-23.75,16-3.53,2.09-4.92,4.56-2.23,8.83,3.19,5.05,5.43,10.71,8.64,17.24-9.73-4.49-18.21-8.43-26.73-12.28C342.83,452,341.53,450.32,339.92,452Zm-33.36-118.1.32.39c0-.09,0-.21,0-.25a1,1,0,0,0-.32-.13c-4.91-10.41-10.24-20.6-17-29.93a13.26,13.26,0,0,0-9.58-5.1c-9.76-1.08-18.22,2.55-27.35,7.94,11.31,2.44,16.79,10.17,21.66,18.5,3.23,5.53,6.24,11.18,9.41,16.74.42.74.53,2.1,2,1.65,1-6.36,2.07-12.68,3.17-19.44,2,1.19,3.28,2.09,4.67,2.76C297.92,329.19,301.63,332.71,306.56,333.91ZM206.21,313.39c0,8.4.29,16.81,0,25.2-.11,3.86,1.42,4.11,4.1,2.7,7.15-3.78,14.9-6.11,22.23-9.42,3.4-1.53,7.12-2.44,10.51-4.79a83.55,83.55,0,0,0-6.7-5.83c-2.39-1.67-2.32-3.12-.37-4.93,13.17-12.2,27.61-21.46,46.87-20.06-.74-.81-1.35-1.57-2.07-2.23-17.88-16.41-41.47-15.73-59.26,1.73-2.12,2.09-3.81,5.72-6.17,6.16s-4.44-3.41-6.87-5.08c-.86-.59-1.77-2-2.32.24a26.73,26.73,0,0,0,0,12.88v1.67A1,1,0,0,0,206.21,313.39Zm123.57,37.94C317.42,344,305.2,336.7,293,329.46c-.83-.49-2-1.8-2.65.18a27.28,27.28,0,0,0-1.56,6.52c-.4,8.77-2,17.39-3.06,26.08-.22,1.82-1.31,4.17-.2,5.32,1.35,1.41,3.28-.6,5-1a10.57,10.57,0,0,0,2.8-1c2.86-1.67,4.11-.41,4.68,2.38.26,1.25.77,2.46.91,3.72,1.83,16.51,2.82,32.91-7.53,47.49,1,.51,1.74,0,2.53-.32,22.94-8.09,34.3-29.13,28.64-53.08-.75-3.15-3-6.8-2.11-9.28,1.08-2.91,5.9-2.55,8.83-4.22C329.32,352.13,329.37,352,329.78,351.33ZM229.56,385.06c-.42,1.84-.72,2.93-.9,4-1.62,9.68-1.93,10-11,6-14.21-6.37-27.4-14.06-34-29.55a5.76,5.76,0,0,0-.79,1.28c-6,23.49,6.73,46.09,29.92,53.21,3.11.95,7.43.71,9.13,2.74s-.72,6.13-.93,9.37a9.71,9.71,0,0,0,.25,1.67c12.7-7.56,25.16-15,37.62-22.38,1.43-.85,1.29-1.53.07-2.51C249.34,401.1,239.72,393.29,229.56,385.06ZM204.25,325l-1.25-.26c-5.33,10-11.45,19.62-16.17,30a13.2,13.2,0,0,0-.63,8.41c2.51,11.53,11.49,17.22,20.6,23a32.17,32.17,0,0,1,1.29-18.67c3-8.21,7.93-15.43,12.07-23.06.88-1.63,2.16-3.14,2.38-5.85-5.21,2.11-9.83,3.8-14.3,5.84-2.87,1.31-4.12,1.1-4-2.43C204.37,336.3,204.25,330.65,204.25,325Zm42.9,96.24.29.76c10.26,0,20.52.09,30.77-.06a16.79,16.79,0,0,0,9.46-3.52c7.35-5.2,11.08-23.33,8.87-30.22-5.27,5.73-12,7.89-19.45,8.63-7.69.77-15.39.15-23.07.45-1.29,0-2.84-.72-4.07,1.09l14.8,12.27Zm72.2,59.54c0-4.26-2.73-6.9-7.77-8-1.05-.24-2.42.46-2.71-1.71-.74-5.5-2.56-7.26-6.8-7.38-4.74-.13-12.19,3.8-12.95,6.9a3.91,3.91,0,0,0,.09,1.66q2.25,10.62,4.53,21.25c.29,1.36.76,2.49,2.48,2.21,7.2-1.16,14.27-2.63,19.68-8.15A11.21,11.21,0,0,0,319.35,480.79Zm-35.25-9c.65,8.44,1.2,15.66,1.76,22.88.08,1,0,2.27,1.33,2.27s1.34-1.19,1.27-2.22q-.88-12.78-1.78-25.56c-.07-1,0-2.13-1.34-2.35-1-.17-1.47.72-1.95,1.39-2.81,3.95-5.74,7.81-8.34,11.89-1.76,2.77-3,3.53-5.4.53-3-3.75-6.54-7.13-9.85-10.66-.68-.72-1.36-1.67-2.49-1.18-.91.39-.86,1.36-.8,2.24q.93,13,1.84,26c.07.92.32,1.81,1.33,1.88,1.46.09,1.4-1.1,1.38-2.09,0-1.28-.11-2.56-.2-3.84-.44-6.12-.89-12.24-1.42-19.44,4,4.23,7.39,7.47,10.37,11.05,2.43,2.92,3.88,2.29,5.7-.52C278,480.15,280.82,476.43,284.1,471.79Zm-82.67,20.64c7.52.05,13.65-5.76,13.63-12.95a12.76,12.76,0,0,0-12.93-12.64,13.5,13.5,0,0,0-13.7,13C188.37,486.8,194.14,492.38,201.43,492.43Zm51.77,6.69c2.23-.55,1.36-2,.9-3.29Q249.54,483,245,470.18c-.33-.93-.48-2.09-1.64-2.24s-1.6,1-2,1.87q-6.35,12.54-12.64,25.11c-.39.78-1.41,1.8-.07,2.56,1.53.87,1.91-.62,2.47-1.52a11,11,0,0,0,1.32-2.66c1.38-4.91,4.59-5.47,9.3-5.26,5.48.24,8.66,1.88,9.49,7.49C251.35,496.78,251.62,498.39,253.2,499.12Zm-61.63-39.44c0-.93-.33-1.56-1.12-1.64-1.39-.14-1.5,1.1-1.8,2-2.6,7.82-5.21,15.65-7.74,23.51-.34,1.07-1.44,2.74.37,3.28s1.83-1.44,2.2-2.53c2.56-7.69,5-15.41,7.55-23.11C191.21,460.64,191.42,460.11,191.57,459.68Zm264.08-144c.67-2.15,1.14-3.47,1.5-4.82,2.37-8.81,2.36-8.81-6.85-7.69a3.1,3.1,0,0,1-.43,0c-1.5,0-2.24.59-1.3,2.09C450.66,308.63,452.43,312.2,455.65,315.7Z"/><path class="cls-3" d="M132.91,238.88l-2.72,6.87c-2.49-.29-2.79-2.62-3.71-4.22-6-10.38-11.83-20.82-17.71-31.26-.94-1.67-1.79-3.31-3.37-.49q-12,21.43-24.09,42.87c-1.48,2.61-.43,3.22,2,3.26,2.64.05,5.28.26,8.72.43l-28,38a87.28,87.28,0,0,0,9,.93c3.51,0,3.46,1.21,1.88,3.71-4.82,7.57-9.54,15.22-14.31,22.83-.51.81-.88,1.87-2.19,1.66-3.82-13-7.25-26-9-39.5-4.62-36.36-1.17-71.87,13.18-105.64,29.74-70,82.07-113.93,157-127.23,72.89-12.95,136.29,8.74,187.94,62,30.45,31.39,48.31,69.54,54.69,112.81a201.83,201.83,0,0,1-2.28,72.67c-.1.49-.23,1-.53,2.2-9.05-12.15-17.67-23.73-26.71-35.89l12-1.5c-2.56-4.51-4.94-8.68-7.29-12.86q-9-16-18-32.09c-1.22-2.19-2.12-3.82-4.06-.33q-11.7,21.13-23.73,42.1c-1.5,2.63-.88,3.33,2,3.51,2.58.17,6.34-1.17,7.41,1.38.78,1.84-2.42,4.14-3.92,6.19-2.75,3.77-5.6,7.45-8.72,11.59l-18.5-47.38A2.83,2.83,0,0,0,369,233c-.09-.35-.17-.69-.25-1l-.53-.91a6.11,6.11,0,0,0-1.16-3.37l-.51-1c-.14-.49-.29-1-.43-1.47q-9.75-25.92-19.52-51.82c-.44-1.15-1.08-2.35-2.63-2.44a24.28,24.28,0,0,0-1.93,3.24q-10.51,25.78-21,51.6c-.49,1.21-.52,3-2.56,2.84l-39.81-50.08c5.27-.46,9.86-1,14.45-1.21,2.54-.12,3.45-.5,1.86-3.09q-18.27-29.93-36.4-59.93c-1.73-2.87-2.85-2.94-4.62,0Q236.16,144,218.09,173.51c-1.8,2.94-.37,3.25,2,3.47,4.38.4,8.84,0,13.86,1.41l-40.45,50.7c4.89,1.43,9.44,1.06,13.91,1.44,4.72.41,4.83.69,2.28,4.51q-6.78,10.13-13.58,20.24c-2.1-.26-2-2.24-2.54-3.55-7.57-18.52-15-37.08-22.55-55.62-3.35-8.29-6.72-16.57-10.2-24.8-.2-.48-.25-4.11-2.17-.77-1.11,2.92-2.23,5.83-3.33,8.76l-19.17,51a.6.6,0,0,0-.11.61,9.12,9.12,0,0,0-1.87,5.26l0,0A3.12,3.12,0,0,0,132.91,238.88Z"/><path class="cls-4" d="M58.42,323.42c1.31.21,1.68-.85,2.19-1.66,4.77-7.61,9.49-15.26,14.31-22.83,1.58-2.5,1.63-3.73-1.88-3.71a87.28,87.28,0,0,1-9-.93l28-38c-3.44-.17-6.08-.38-8.72-.43-2.47,0-3.52-.65-2-3.26q12.1-21.4,24.09-42.87c1.58-2.82,2.43-1.18,3.37.49,5.88,10.44,11.74,20.88,17.71,31.26.92,1.6,1.22,3.93,3.71,4.22q-16.26,42.58-32.54,85.19c-4.47,11.67-8.93,23.34-13.48,35-.54,1.38-.85,3.4-2.64,3.58s-2.33-2-3-3.19c-5.3-9.05-10.4-18.22-14.25-28a2.89,2.89,0,0,0,.67-.51c1.45-2.23,4.11-4.84,3.16-7s-4.61-.84-7.07-1.11A12,12,0,0,1,58.42,323.42Z"/><path class="cls-5" d="M329.78,351.33c-.41.63-.46.8-.57.86-2.93,1.67-7.75,1.31-8.83,4.22-.93,2.48,1.36,6.13,2.11,9.28,5.66,23.95-5.7,45-28.64,53.08-.79.28-1.53.83-2.53.32,10.35-14.58,9.36-31,7.53-47.49-.14-1.26-.65-2.47-.91-3.72-.57-2.79-1.82-4.05-4.68-2.38a10.57,10.57,0,0,1-2.8,1c-1.69.43-3.62,2.44-5,1-1.11-1.15,0-3.5.2-5.32,1.06-8.69,2.66-17.31,3.06-26.08a27.28,27.28,0,0,1,1.56-6.52c.62-2,1.82-.67,2.65-.18C305.2,336.7,317.42,344,329.78,351.33Z"/><path class="cls-5" d="M229.56,385.06c10.16,8.23,19.78,16,29.44,23.82,1.22,1,1.36,1.66-.07,2.51-12.46,7.4-24.92,14.82-37.62,22.38a9.71,9.71,0,0,1-.25-1.67c.21-3.24,2.75-7.2.93-9.37s-6-1.79-9.13-2.74c-23.19-7.12-35.89-29.72-29.92-53.21a5.76,5.76,0,0,1,.79-1.28c6.57,15.49,19.76,23.18,34,29.55,9,4.05,9.34,3.72,11-6C228.84,388,229.14,386.9,229.56,385.06Z"/><path class="cls-5" d="M206.21,311.63V310a60.28,60.28,0,0,0,0-12.88c.55-2.21,1.46-.83,2.32-.24,2.43,1.67,4.39,5.55,6.87,5.08s4.05-4.07,6.17-6.16c17.79-17.46,41.38-18.14,59.26-1.73.72.66,1.33,1.42,2.07,2.23-19.26-1.4-33.7,7.86-46.87,20.06-1.95,1.81-2,3.26.37,4.93a83.55,83.55,0,0,1,6.7,5.83c-3.39,2.35-7.11,3.26-10.51,4.79-7.33,3.31-15.08,5.64-22.23,9.42-2.68,1.41-4.21,1.16-4.1-2.7.26-8.39,0-16.8,0-25.2Z"/><path class="cls-6" d="M158.69,170.54c1.92-3.34,2,.29,2.17.77,3.48,8.23,6.85,16.51,10.2,24.8,7.51,18.54,15,37.1,22.55,55.62.53,1.31.44,3.29,2.54,3.55L187.4,268c-9.16,3.79-17,10.12-26.41,14.59v-5.36q0-46,0-92c0-1.68.91-3.87-1.66-4.73C159,177.22,160.05,173.81,158.69,170.54Z"/><path class="cls-6" d="M318.54,228.62c2,.12,2.07-1.63,2.56-2.84q10.5-25.8,21-51.6a24.28,24.28,0,0,1,1.93-3.24q.15,4.31.28,8.61c-1,1.23-.77,2.7-.77,4.1q0,27.18,0,54.34l.06.92q0,16.71,0,33.44c-2.35.3-3.85-2-6.1-2l-1-.28c-.27-1.48-1.57-1.59-2.65-2l-1.68-.94a76.13,76.13,0,0,0-12.59-7.64c-2.64-3.62-5.53-7.09-7.13-11.36,1.21-3.27,2.56-6.49,3.59-9.81.83-2.7,3.14-5,2.39-8.15Z"/><path class="cls-4" d="M181.53,274.78c0,1.69.56,2.57,2.47,2.64,4.38.16,8.76.71,13.14.76,3.15,0,3.25.74,1.72,3.33-10,16.82-19.85,33.74-29.76,50.63-1.72,2.93-3.49,5.84-5.17,8.8-.65,1.14-1.15,2.33-2.67,2.46q-.13-27.36-.29-54.72a3.43,3.43,0,0,1,2-3.41C169.16,281.79,175.05,277.76,181.53,274.78Z"/><path class="cls-7" d="M204.25,325c0,5.64.12,11.29,0,16.93-.09,3.53,1.16,3.74,4,2.43,4.47-2,9.09-3.73,14.3-5.84-.22,2.71-1.5,4.22-2.38,5.85-4.14,7.63-9.06,14.85-12.07,23.06a32.17,32.17,0,0,0-1.29,18.67c-9.11-5.75-18.09-11.44-20.6-23a13.2,13.2,0,0,1,.63-8.41c4.72-10.36,10.84-20,16.17-30Z"/><path class="cls-7" d="M306.56,333.91c-4.93-1.2-8.64-4.72-13.07-6.87-1.39-.67-2.67-1.57-4.67-2.76-1.1,6.76-2.13,13.08-3.17,19.44-1.44.45-1.55-.91-2-1.65-3.17-5.56-6.18-11.21-9.41-16.74-4.87-8.33-10.35-16.06-21.66-18.5,9.13-5.39,17.59-9,27.35-7.94a13.26,13.26,0,0,1,9.58,5.1c6.77,9.33,12.1,19.52,17,29.93Z"/><path class="cls-7" d="M247.15,421.25l17.6-10.6L250,398.38c1.23-1.81,2.78-1,4.07-1.09,7.68-.3,15.38.32,23.07-.45,7.44-.74,14.18-2.9,19.45-8.63,2.21,6.89-1.52,25-8.87,30.22a16.79,16.79,0,0,1-9.46,3.52c-10.25.15-20.51.06-30.77.06Z"/><path class="cls-4" d="M343.17,329.7c-2.92-2-4.15-5.29-5.87-8.13-7.36-12.15-14.53-24.42-21.77-36.65-.36-.61-.7-1.24-1-1.88-1.82-3.69-1.32-4.59,2.7-4.75,3.42-.14,6.85-.06,10.24-.35,2.51-.21,3.37-1.32,1.89-3.94-1.6-2.8-4.63-4.76-4.9-8.32l6.12,3.07,3.34,1.44c.29,1.44,1.56,1.61,2.64,2l.78.37c.3.18.6.36.89.55l1.72,1a1.85,1.85,0,0,0,1.88,1.17c1.49,1,1.77,2.44,1.7,4.1-.09,1.85,0,3.7,0,5.55C343.29,299.86,343.9,314.78,343.17,329.7Z"/><path class="cls-8" d="M181.53,274.78c-6.48,3-12.37,7-18.57,10.49a3.43,3.43,0,0,0-2,3.41q.18,27.36.29,54.72l-.09,1.62a1.08,1.08,0,0,0-.37.72c-1.42.46-2.91,1.09-2.87-1.41a7.81,7.81,0,0,1,0-1.28c2-9.54-2.54-14.92-10.63-19.43-10.55-5.89-20.38-13.05-30.52-19.66a28.14,28.14,0,0,1-2.46-1.69c-.93-.76-2.81-1.36-1.87-2.83,1.15-1.78,2.49-.05,3.64.54a33.26,33.26,0,0,1,2.87,1.84q17.52,11.48,35,22.92c1,.66,2.08,2,3.38,1.22,1-.63.51-2.11.51-3.2q0-37.39,0-74.8c0-1.76-.19-3.25-1.7-4.55-5.82-5-11.54-10.17-17.29-15.26-.22-.81-.7-1.67.13-2.36s1.61,0,2.24.49c1.52,1.27,3,2.6,4.49,3.92,3.87,3.43,7.73,6.88,12.39,11V236q0-25.37,0-50.72c0-1.62-.61-3.46,1.06-4.75,2.57.86,1.66,3.05,1.66,4.73q.08,46,0,92v5.36c9.44-4.47,17.25-10.8,26.41-14.59A17.15,17.15,0,0,1,181.53,274.78Z"/><path class="cls-9" d="M159.29,180.54c-1.67,1.29-1,3.13-1.06,4.75q-.06,25.36,0,50.72v5.22c-4.66-4.15-8.52-7.6-12.39-11-1.48-1.32-3-2.65-4.49-3.92-.63-.53-1.35-1.22-2.24-.49s-.35,1.55-.13,2.36c-.15,1.7-1.17,2.3-2.76,2.16l19.17-51c1.1-2.93,2.22-5.84,3.33-8.76C160.05,173.81,159,177.22,159.29,180.54Z"/><path class="cls-10" d="M339.92,452c1.61-1.69,2.91,0,4.17.52,8.52,3.85,17,7.79,26.73,12.28-3.21-6.53-5.45-12.19-8.64-17.24-2.69-4.27-1.3-6.74,2.23-8.83,8.23-4.87,16-10.41,23.75-16,.92-.66,2-1.61,2.89-.19.74,1.18-.53,1.73-1.28,2.3-3.37,2.62-6.71,5.27-10.17,7.75-1.37,1-1.68,1.75-.54,3a29.87,29.87,0,0,1,1.76,2.42c4,5.53,4,5.52,9.83,2.1.8-.47,1.62-1.54,2.57-.38,1.19,1.45-.42,1.89-1.12,2.63-.2.2-.5.3-.69.5-1.34,1.38-4.48,1.95-4.07,3.8.52,2.32,2.61,4.32,4.13,6.38,1.06,1.44,2,.24,2.87-.37,3.37-2.39,6.71-4.84,10.08-7.23.88-.62,1.9-1.76,2.9-.37.81,1.13-.3,1.79-1.1,2.36-4.16,3-8.37,5.94-12.47,9-2,1.53-2.95.4-4-1.17-4.15-6-8.37-11.88-12.6-17.8-.61-.84-1.14-2.54-2.45-1.66s.18,2,.67,2.86c3.71,6.25,7.54,12.43,11.23,18.69.53.9,2.2,2.16.27,3.14-1.42.73-1.88-.88-2.43-1.77-3.66-5.95-7.41-11.85-10.82-17.94-1.48-2.65-2.55-3.36-5.35-1.49-5.22,3.49-5.34,3.31-2.6,8.89s5.53,11.24,8.25,16.87c.47,1,1.58,2,.65,3.11-1.19,1.44-2.39.09-3.43-.38-7.91-3.56-15.79-7.21-23.69-10.84-.74-.34-1.4-1-3-.35l7.89,16.22,1.47,3.08c.41.88,1.17,1.88-.2,2.52s-1.69-.56-2.12-1.44c-3.09-6.25-6.19-12.51-9.25-18.78-.56-1.14-1-2.35-1.48-3.53C340.49,453.84,340.21,452.93,339.92,452Z"/><path class="cls-9" d="M344.27,179.55q-.13-4.31-.28-8.61c1.55.09,2.19,1.29,2.63,2.44q9.81,25.89,19.52,51.82l-4.22-.42c.26-1.35,3.19-2.09,1.34-3.73-1.35-1.19-2.39.82-3.42,1.63-4.79,3.74-8.72,8.48-13.86,11.8,0-16.74,0-33.48-.1-50.21C345.87,182.61,346.81,180.42,344.27,179.55Z"/><path class="cls-11" d="M344.27,179.55c2.54.87,1.6,3.06,1.61,4.72.08,16.73.08,33.47.1,50.21.33,1.06,1,2,.72,3.23a.85.85,0,0,1-.43.5c-.6,0-1,0-.33.67l-.09,74.53a3,3,0,0,0,0,4.2q0,7.71-.07,15.41l-1.51,0-1.08-3.35c.73-14.92.12-29.84.32-44.76,0-1.85-.06-3.7,0-5.55.07-1.66-.21-3.11-1.7-4.1-.66-1.76,3.23-.71,1.83-2.94q0-16.73,0-33.44c.09-.1.27-.22.25-.29a4.08,4.08,0,0,0-.31-.63q0-27.17,0-54.34C343.5,182.25,343.27,180.78,344.27,179.55Z"/><path class="cls-12" d="M339.92,452c.29.92.57,1.83.85,2.74A29,29,0,0,0,325.41,460c-2.92,2.13,1.59,6.57,2.21,10.11.4,2.26,1.86,1.58,3.23,1.06s2.67-1,4-1.45c1-.31,2.08-.6,2.48.72.31,1-.61,1.5-1.4,1.83a15.21,15.21,0,0,1-3.23,1.1c-3.37.54-3.46,2.21-2.37,5.06,2.05,5.37,1.89,5.44,7.42,3.45,3-1.06,5.87-2.18,8.82-3.19.88-.3,2-.88,2.6.42s-.6,1.75-1.5,2.09c-4.95,1.82-9.9,3.65-14.88,5.37-2.68.92-3.31-1.09-4-3-2.19-6.55-4.43-13.08-6.62-19.62-.22-.65-.17-1.41-1.33-1.76-1.19,1.33-.54,2.64-.11,4.11,1.87,6.35,3.63,12.74,5.38,19.13.27,1,1.4,2.3-.22,2.93s-1.81-1-2.11-2c-2.35-8.05-4.7-16.11-6.92-24.19-.38-1.39-1.56-3.41,2.12-2.71,1.61.3,4-2.19,6.32-2.85C330.26,455.2,334.69,452.33,339.92,452Z"/><path class="cls-13" d="M319.35,480.79a11.21,11.21,0,0,1-3.45,6.75c-5.41,5.52-12.48,7-19.68,8.15-1.72.28-2.19-.85-2.48-2.21q-2.26-10.64-4.53-21.25a3.91,3.91,0,0,1-.09-1.66c.76-3.1,8.21-7,12.95-6.9,4.24.12,6.06,1.88,6.8,7.38.29,2.17,1.66,1.47,2.71,1.71C316.62,473.89,319.32,476.53,319.35,480.79Zm-9-5.51a7.35,7.35,0,0,0-5.18,1.67,84.36,84.36,0,0,1-7.33,5.06c-2.66,1.69-3.57,8.12-1.43,10.47.5.54,1,.35,1.5.26,6.08-1.05,11.95-2.63,16.36-7.32,1.77-1.88,3.36-4,2-6.83S312.36,475.55,310.32,475.28Zm-16.43,5.9c4.25-2.32,8.18-4.31,11-7.84,1.84-2.3,2.42-5-.71-6.38-3.75-1.67-7.14.3-10.39,2.25-2.73,1.63-1.6,3.86-1.16,6C293,477,293.39,478.83,293.89,481.18Z"/><path class="cls-13" d="M284.1,471.79c-3.28,4.64-6.06,8.36-8.59,12.26-1.82,2.81-3.27,3.44-5.7.52-3-3.58-6.36-6.82-10.37-11.05.53,7.2,1,13.32,1.42,19.44.09,1.28.17,2.56.2,3.84,0,1,.08,2.18-1.38,2.09-1-.07-1.26-1-1.33-1.88q-.92-13-1.84-26c-.06-.88-.11-1.85.8-2.24,1.13-.49,1.81.46,2.49,1.18,3.31,3.53,6.81,6.91,9.85,10.66,2.41,3,3.64,2.24,5.4-.53,2.6-4.08,5.53-7.94,8.34-11.89.48-.67.94-1.56,1.95-1.39,1.31.22,1.27,1.39,1.34,2.35q.92,12.78,1.78,25.56c.07,1,.08,2.22-1.27,2.22s-1.25-1.31-1.33-2.27C285.3,487.45,284.75,480.23,284.1,471.79Z"/><path class="cls-10" d="M147.31,442.63c-2-.64-2.11,1.26-2.75,2.18-4,5.72-7.89,11.53-11.84,17.29-.69,1-1.36,2.86-2.77,2-1.89-1.16,0-2.53.66-3.54,3.84-5.81,7.8-11.54,12.32-18.17-5.38,1.55-9.87,2.65-14.21,4.17-3.18,1.11-4.75.84-4.92-3-.2-4.67-.85-9.32-1.42-15.09-4.25,6.26-7.91,11.78-11.73,17.17-.88,1.25-1.71,4.1-3.39,3-2.3-1.54.53-3.14,1.37-4.43,4.11-6.34,8.42-12.55,12.68-18.79.62-.9,1.11-2.34,2.48-1.95s1.14,1.8,1.22,2.92c.35,4.55.88,9.09,1,13.65.07,3.38,1,4.62,4.49,3.33,3.86-1.42,7.88-2.4,11.84-3.57,4.79-1.41,4.79-1.41,5,2.89Z"/><path class="cls-13" d="M166.12,448.94c4.44,1.54,8.75,3.39,12.34,6.51,4.12,3.58,6.58,7.92,5.12,13.58-1.56,6-6,8.71-11.73,9.71-4.12.7-8.22.32-12.34,0-2.88-.21-3.3-1.33-2.25-3.89,2.77-6.69,5.19-13.53,8-20.18,1-2.4.75-3.62-1.7-4.32C164.68,450.31,165.91,450.55,166.12,448.94Zm-.64,27.67c8.68.2,14-2.66,15.38-8.1,1.44-5.75-2.17-11.1-9.65-14.68-1.85-.89-2.62-.72-3.37,1.27q-3.43,9.16-7.22,18.19c-1,2.42-.08,3,2.1,3.07C163.71,476.38,164.7,476.53,165.48,476.61Z"/><path class="cls-10" d="M201.43,492.43c-7.29-.05-13.06-5.63-13-12.55a13.5,13.5,0,0,1,13.7-13,12.76,12.76,0,0,1,12.93,12.64C215.08,486.67,209,492.48,201.43,492.43Zm.63-22.6a10.16,10.16,0,0,0-10.55,9.95c-.1,5.53,4.28,9.82,10.05,9.84,5.6,0,10.62-4.67,10.72-10S207.79,469.86,202.06,469.83Z"/><path class="cls-10" d="M166.12,448.94c-.21,1.61-1.44,1.37-2.52,1.41-3.53-1.82-7.14-3.51-10.57-5.5-1.83-1.06-2.76-.76-3.53,1.08-.44,1.05-1.05,2-1.58,3-3,5.79-3,5.78,2.43,9.13.88.54,2.55.9,1.82,2.35-.9,1.81-2.17.25-3.25-.1-.4-.12-.74-.45-1.14-.58-1.53-.48-3.17-2.75-4.46-1.39-1.79,1.88-2.87,4.53-3.9,7-.47,1.11,1.08,1.47,1.9,1.91,3.64,1.95,7.32,3.84,11,5.76.88.45,2.11.9,1.6,2.11-.66,1.6-1.83.7-2.83.2-4.31-2.2-8.57-4.5-12.95-6.55-2.44-1.15-2.58-2.45-1.34-4.67,3.26-5.84,6.36-11.76,9.41-17.71.59-1.14,2-2.17,1.13-3.8l0,0c2.09-2,4.07-2.1,6.61-.41,3.11,2.08,6.58,3.62,9.9,5.39l.33.19.28.13,1.4.77H166Z"/><path class="cls-13" d="M253.2,499.12c-1.58-.73-1.85-2.34-2-3.59-.83-5.61-4-7.25-9.49-7.49-4.71-.21-7.92.35-9.3,5.26a11,11,0,0,1-1.32,2.66c-.56.9-.94,2.39-2.47,1.52-1.34-.76-.32-1.78.07-2.56q6.27-12.59,12.64-25.11c.43-.85.8-2,2-1.87s1.31,1.31,1.64,2.24q4.54,12.82,9.13,25.65C254.56,497.13,255.43,498.57,253.2,499.12ZM243,472.65c-2.26,4.38-5.55,8-5.31,11.87.12,1.77,5.8.84,8.95,1.14.2,0,.44-.27.86-.54C246.09,481.23,244.67,477.31,243,472.65Z"/><path class="cls-7" d="M318.5,230.17c.75,3.16-1.56,5.45-2.39,8.15-1,3.32-2.38,6.54-3.59,9.81-2.25.16-2.08-2-2.89-3.15-3-4.23-5.87-8.61-9.17-13.52Z"/><path class="cls-8" d="M345.83,317.61a3,3,0,0,1,0-4.2c6.09-2.51,11.1-6.78,16.61-10.23,7.36-4.59,14.51-9.5,21.79-14.22,1-.63,2.3-2.13,3.31-.74,1.26,1.74-.82,2.36-1.88,3.06Q368,302.88,350.34,314.4C348.8,315.41,347.33,316.54,345.83,317.61Z"/><path class="cls-12" d="M191.57,459.68c-.15.43-.36,1-.54,1.5-2.51,7.7-5,15.42-7.55,23.11-.37,1.09-.47,3-2.2,2.53s-.71-2.21-.37-3.28c2.53-7.86,5.14-15.69,7.74-23.51.3-.89.41-2.13,1.8-2C191.24,458.12,191.61,458.75,191.57,459.68Z"/><path class="cls-7" d="M455.65,315.7c-3.22-3.5-5-7.07-7.08-10.4-.94-1.5-.2-2.06,1.3-2.09a3.1,3.1,0,0,0,.43,0c9.21-1.12,9.22-1.12,6.85,7.69C456.79,312.23,456.32,313.55,455.65,315.7Z"/><path class="cls-14" d="M346.7,237.71c.3-1.19-.39-2.17-.72-3.23,5.14-3.32,9.07-8.06,13.86-11.8,1-.81,2.07-2.82,3.42-1.63,1.85,1.64-1.08,2.38-1.34,3.73l.1.2-.87.85v0c-1.59.33-2.48,1.56-3.43,2.72Z"/><path class="cls-7" d="M61,329.66c2.46.27,6.08-1.15,7.07,1.11s-1.71,4.78-3.16,7a2.89,2.89,0,0,1-.67.51Z"/><path class="cls-14" d="M330.57,268.75l-6.12-3.07c-2-1.78-4.09-3.44-4.8-6.19a76.13,76.13,0,0,1,12.59,7.64C331.21,267.18,330.55,267.61,330.57,268.75Z"/><path class="cls-15" d="M206.19,297.08a60.28,60.28,0,0,1,0,12.88A26.73,26.73,0,0,1,206.19,297.08Z"/><path class="cls-9" d="M134.21,236.18a9.12,9.12,0,0,1,1.87-5.26C136.19,232.94,136.44,235,134.21,236.18Z"/><path class="cls-9" d="M357.71,228.51c1-1.16,1.84-2.39,3.43-2.72C360.87,227.8,359.88,228.9,357.71,228.51Z"/><path class="cls-8" d="M344.25,333.05l1.51,0c.19.72.76,1.88-.06,2C344.72,335.23,344.37,334,344.25,333.05Z"/><path class="cls-9" d="M132.91,238.88a3.12,3.12,0,0,1,1.34-2.74C134.51,237.39,134.68,238.61,132.91,238.88Z"/><path class="cls-9" d="M369,233a2.83,2.83,0,0,1,.9,2.44C368.93,234.89,369.08,233.91,369,233Z"/><path class="cls-15" d="M206.21,311.63v1.76A1,1,0,0,1,206.21,311.63Z"/><path class="cls-13" d="M165.8,448.74l-1.4-.77Z"/><path class="cls-7" d="M306.55,333.92a1,1,0,0,1,.32.13c.05,0,0,.16,0,.25l-.32-.39Z"/><path class="cls-4" d="M160.8,345.74a1.08,1.08,0,0,1,.37-.72C161.67,345.58,161.4,345.75,160.8,345.74Z"/><path class="cls-14" d="M345.94,238.88c-.7-.62-.27-.68.33-.67A.73.73,0,0,1,345.94,238.88Z"/><polygon class="cls-13" points="164.12 447.84 163.79 447.65 164.02 447.59 164.12 447.84"/><path class="cls-9" d="M368.24,231.06l.53.91Z"/><path class="cls-9" d="M366.57,226.67l.51,1Z"/><path class="cls-9" d="M361.15,225.83,362,225A.81.81,0,0,1,361.15,225.83Z"/><path class="cls-14" d="M343.65,272.35c1.4,2.23-2.49,1.18-1.83,2.94a1.85,1.85,0,0,1-1.88-1.17c-.31-.78-1-.91-1.72-1-.29-.19-.59-.37-.89-.55.07-.75.15-1.5.22-2.24C339.8,270.35,341.3,272.65,343.65,272.35Z"/><path class="cls-14" d="M336.55,272.21c-1.08-.41-2.35-.58-2.64-2v-2.12c1.08.4,2.38.51,2.65,2C336.56,270.78,336.55,271.49,336.55,272.21Z"/><path class="cls-11" d="M333.92,268.07v2.12l-3.34-1.44c0-1.14.64-1.57,1.67-1.62Z"/><path class="cls-11" d="M336.55,272.21c0-.72,0-1.43,0-2.15l1,.28c-.07.74-.15,1.49-.22,2.24Z"/><path class="cls-14" d="M343.54,238a4.08,4.08,0,0,1,.31.63c0,.07-.16.19-.25.29Z"/><path class="cls-11" d="M338.22,273.13c.72.08,1.41.21,1.72,1Z"/><path class="cls-9" d="M310.32,475.28c2,.27,4.59.59,5.9,3.31s-.21,5-2,6.83c-4.41,4.69-10.28,6.27-16.36,7.32-.53.09-1,.28-1.5-.26-2.14-2.35-1.23-8.78,1.43-10.47a84.36,84.36,0,0,0,7.33-5.06A7.35,7.35,0,0,1,310.32,475.28Z"/><path class="cls-9" d="M293.89,481.18c-.5-2.35-.89-4.15-1.26-6-.44-2.15-1.57-4.38,1.16-6,3.25-1.95,6.64-3.92,10.39-2.25,3.13,1.4,2.55,4.08.71,6.38C302.07,476.87,298.14,478.86,293.89,481.18Z"/><path class="cls-9" d="M165.48,476.61c-.78-.08-1.77-.23-2.76-.25-2.18-.05-3.11-.65-2.1-3.07q3.8-9,7.22-18.19c.75-2,1.52-2.16,3.37-1.27,7.48,3.58,11.09,8.93,9.65,14.68C179.5,474,174.16,476.81,165.48,476.61Z"/><path class="cls-9" d="M202.06,469.83c5.73,0,10.32,4.42,10.22,9.78s-5.12,10-10.72,10c-5.77,0-10.15-4.31-10.05-9.84A10.16,10.16,0,0,1,202.06,469.83Zm2.72,9.11a3.21,3.21,0,0,0-3.64-2.63,2.7,2.7,0,0,0-2.64,3.21,3,3,0,0,0,3.36,2.6C203.64,482.06,204.71,481,204.78,478.94Z"/><path class="cls-9" d="M243,472.65c1.68,4.66,3.1,8.58,4.5,12.47-.42.27-.66.56-.86.54-3.15-.3-8.83.63-8.95-1.14C237.44,480.64,240.73,477,243,472.65Z"/><path class="cls-13" d="M204.78,478.94c-.07,2.07-1.14,3.12-2.92,3.18a3,3,0,0,1-3.36-2.6,2.7,2.7,0,0,1,2.64-3.21A3.21,3.21,0,0,1,204.78,478.94Z"/><rect id="SVGID" class="cls-16" width="512" height="512"/><rect id="SVGID-2" data-name="SVGID" class="cls-16" width="512" height="512"/></svg>