<svg id="Capa_1" data-name="Capa 1" xmlns="http://www.w3.org/2000/svg" viewBox="0 0 512 512"><defs><style>.cls-1{fill:none;}.cls-2{fill:#5f6fa4;}.cls-3{fill:#533359;}.cls-4{fill:#9aa1cb;}.cls-5{fill:#eceaf0;}.cls-6{fill:#fff;}.cls-7{fill:#684e76;}</style></defs><rect id="SVGID" class="cls-1" width="512" height="512"/><path class="cls-2" d="M236.5,511.92c-5.37-1.81-11.05-1.62-16.57-2.41a246.85,246.85,0,0,1-107.69-42C54.9,427.68,19.13,373.28,5.08,304.83-.23,279-.71,252.79,2.2,226.48,14.05,119.21,95,29,201.19,5.91a223.91,223.91,0,0,1,33.07-5C235.09.87,236,1,236.5.08h38.32c.4.76,1.14.76,1.83.79a167.3,167.3,0,0,1,28.58,3.75C372.9,18.8,426.86,54.14,466.53,110.88a248,248,0,0,1,42.65,109c.78,5.51.58,11.18,2.39,16.54v40.09c-.83.32-.8,1-.84,1.75a195.66,195.66,0,0,1-4.51,31.08C490.6,378.1,453.52,432.2,394.66,471a246.57,246.57,0,0,1-102.4,38.5c-5.81.83-11.76.68-17.44,2.41ZM256.21,8.67c-136.6.48-246.72,110.07-246.92,247S119.17,503.15,256,503.21,502.7,393.1,502.88,256.34C503.06,119.25,393,9.28,256.21,8.67Z"/><path class="cls-3" d="M256.21,8.67C393,9.28,503.06,119.25,502.88,256.34,502.7,393.1,392.72,503.27,256,503.21S9.1,392.7,9.29,255.66,119.61,9.15,256.21,8.67ZM357,474.16l-.87-1c.36-1.23.82-2.43,1.07-3.67a14.58,14.58,0,0,0-8.07-15.8,13.42,13.42,0,0,0-16.66,4.18,15.06,15.06,0,0,0,0,18.51c4.12,5.17,11,6.89,16.74,3.82,2.81-1.51,5.25-3.62,8.69-3.7.76,0,2.29-.28,1.91-1.7C359.33,473,358,474.16,357,474.16Zm-62.23,15.26q-9.57-9.07-19.14-18.17c-1.13-1.08-2.16-2-4-1.94-5.24.17-10.49.12-15.73.13-2.05,0-3.12.71-3,3q.39,11.7.54,23.42c0,1.9.52,2.95,2.62,2.87,4.82-.2,9.64-.3,14.46-.46.83,0,1.89.12,2-1,.14-1.39-.93-1.49-2-1.47-3,.07-6,.12-8.93.21-5.76.17-5.61.17-5.77-5.47-.08-2.73.63-3.95,3.47-3.66a18.16,18.16,0,0,0,3.82-.18c.68-.08,1.45-.35,1.37-1.28s-.85-1.08-1.55-1.09a33,33,0,0,0-4.67.13c-2.31.29-2.76-1-2.51-2.79.45-3.22-2-6.84,1.19-9.66.41-.36,1.38-.09,2.09-.1,3.12,0,6.26.11,9.35-.17,2.91-.26,3.82.7,4.06,3.66.54,6.64,1.59,13.24,2.42,19.85.14,1.09,0,2.68,1.53,2.52s.95-1.78.93-2.83a24.74,24.74,0,0,0-.34-2.53c-.73-5.86-1.46-11.71-2.21-17.77,1.83.5,2.58,1.78,3.58,2.72,5.68,5.36,11.3,10.77,17,16.14.78.74,1.47,2.05,2.77,1.57,1.49-.56.71-2,.6-3q-1.28-11.43-2.74-22.82c-.12-1-.05-2.65-1.72-2.31-1.3.27-.77,1.66-.67,2.54.69,6.35,1.44,12.68,2.18,19ZM464,256.17C464.67,141.54,371,48.06,257,47.59,142,47.11,48.22,141,48,255.61c-.19,114.9,93.41,208.66,207.79,208.8C370.46,464.56,464.51,370.79,464,256.17ZM101.74,417.46l.84.84c-3.69,4.43-7.41,8.84-11.06,13.31-.62.75-2.16,1.6-.79,2.76s2.1-.45,2.58-1.25c2.41-3.94,5.16-5.13,9.65-2.77,2.36,1.24,2.66,2,1.83,4.3-1.27,3.53-1.54,7.24.23,10.76.79,1.58,1.94,4.27,3.66,3.3,2.56-1.45-.74-2.55-1.3-3.78-1.73-3.84-1.19-7.48.34-11.11,1.22-2.9,3.74-.88,5.62-1.27,3.15-.66,5.56-2,6.64-5.19s-.2-6-2.58-8c-5.46-4.55-10.24-9.78-15.37-14.66-.79-.75-1.58-2.6-3-1.09-1.13,1.21.48,2,1.15,2.71,3.86,4.3,3.89,4.3-.33,8.55s-8.42,8.42-12.59,12.66c-.64.65-1.79,1.39-.73,2.45s1.81-.1,2.45-.73c2.23-2.17,4.3-4.53,6.62-6.6C97.61,420.9,98.91,418.19,101.74,417.46Zm53,56.61c3.6-.35,7.59-.6,9.59-4.63s.33-7.17-2.68-9.8c-1.35-1.17-.49-1.65.2-2.63,2.55-3.59,1.94-6.94-1.67-9.5a16.39,16.39,0,0,0-10-2.93,4.4,4.4,0,0,0-4.31,2.77c-2.79,5.88-5.73,11.69-8.68,17.5-.72,1.43-1.07,2.53.64,3.53C143,471.4,148.35,473.89,154.74,474.07Zm72.48-1.47A12.59,12.59,0,0,0,214.34,485a12,12,0,0,0,12.22,12c6.94,0,12.93-5.75,12.93-12.5S234.17,472.63,227.22,472.6Zm200.21-49.51c0-7-5.25-12.28-12-12.18a12.65,12.65,0,0,0-12.22,13.17A11.82,11.82,0,0,0,415,436,12.52,12.52,0,0,0,427.43,423.09Zm-36.35,1.77c-4.38.29-8.83,3.26-12.68,7.5-1.6,1.76-.23,2.81.65,4,4.2,5.7,8.4,11.4,12.7,17,.73.95,1.33,3.24,3.05,1.9,1.33-1-.29-2.36-1.06-3.17-2-2.07-1.55-3.22.82-4.7a16.41,16.41,0,0,0,6.82-9C403.74,431.33,399.53,424.9,391.08,424.86Zm-72.74,63.22c-2.16.28-2.16.28-2.81-1.31-2.5-6.16-2.35-6.48,3.83-8.66.4-.14.81-.24,1.22-.36.77-.23,1.23-.72,1.05-1.54s-.95-1-1.66-.85c-1.38.33-2.73.76-4.08,1.15s-3,1.22-3.4-.95c-.61-3.46-3.07-6.64-1.77-10.33.19-.56,1.77-.64,2.73-.91q4.89-1.38,9.81-2.71c1-.27,2.15-.45,1.88-1.78-.3-1.5-1.6-.91-2.44-.69-4.5,1.22-9,2.62-13.47,3.78-2,.52-2.48,1.54-2,3.39q3.18,11.46,6.29,22.94c.5,1.87,1.38,2.51,3.37,1.88,4.45-1.4,8.95-2.61,13.44-3.88,1-.27,2.29-.42,2.09-1.62-.28-1.66-1.76-1.07-2.77-.79C325.72,485.91,321.79,487.08,318.34,488.08ZM131,462.64c0,.92-.45,2.24,1,2.3,1.28.06,1.32-1.18,1.5-2.17q2.3-12.52,4.63-25c.2-1.08.9-2.34-.21-3.15s-2.13.3-3,.88c-5.93,3.85-11.91,7.64-17.7,11.71-1.93,1.35-6.34,2.91-5.1,4.44,2,2.39,4.19-1.74,6.55-2.5,1.46-.47,2.3-2.79,4.4-1.32,3,2.11,6.78,3.58,8.92,6.34,1.48,1.9-.42,5.35-.91,8.09C131,462.35,131,462.49,131,462.64Zm250.58-5.44c-.47-6.05-3.83-11.47-7.58-16.67-.92-1.28-1.59-4.44-3.59-3-1.78,1.29.83,3.1,1.72,4.49,3,4.66,6.29,9.17,6.89,14.9.47,4.47-1.62,7.3-6.08,9.06-3.92,1.54-6.59-.13-8.75-3.15a31.33,31.33,0,0,1-3-5.13c-1.6-3.46-3-7-4.54-10.53-.36-.85-.9-1.53-1.9-1-.78.4-.63,1.15-.32,1.84,2.51,5.69,4.22,11.79,8.15,16.77,3.26,4.12,6.79,5.21,11.22,3.57C378.85,466.46,381.59,462.77,381.56,457.2ZM183.78,472.59h-1.05c0-4.4,0-8.8,0-13.2,0-1,.18-2.17-.86-2.69-1.37-.68-2,.65-2.73,1.41-5,5.22-10.09,10.39-14.95,15.76-1.5,1.67-5.24,4-3.78,5.2,2.33,1.9,3.53-2.38,5.52-3.59,1.46-.88,2-3.46,4.39-2.6,3.45,1.25,7.29,2.08,10.09,4.23,2,1.51.49,5.09.88,7.71a8.08,8.08,0,0,1,.05.85c0,.92.37,1.95,1.26,2,1.41,0,1.18-1.3,1.18-2.26C183.79,481.11,183.78,476.85,183.78,472.59Zm17.51,19.13c5.06.1,8.09-2.27,9.66-8.68,1.24-5.07,2.51-10.14,3.77-15.21.26-1.06,1-2.41-.67-2.76-1.34-.27-1.37,1.12-1.6,2-1.36,5.33-2.87,10.64-4,16-.84,4-3.17,5.77-7,6a17.5,17.5,0,0,1-9.05-1.66c-1.67-.86-3.09-2-3.53-4-.23-1.07.61-3.14-1.4-2.8-1.79.3-1.31,2.32-1.06,3.62a7.39,7.39,0,0,0,3.81,4.85C193.17,491,196.46,491.56,201.29,491.72ZM390.2,457.47a2.71,2.71,0,0,0-.17-.39q-7-11.1-14.13-22.17a1.23,1.23,0,0,0-1.83-.41c-.71.54-.44,1.25,0,1.88,1.53,2.37,3.09,4.73,4.61,7.12,3,4.65,5.89,9.32,8.87,13.95.42.66.8,1.64,1.9,1.32A1.13,1.13,0,0,0,390.2,457.47Z"/><path class="cls-4" d="M464,256.17c.48,114.62-93.57,208.39-208.22,208.24-114.38-.14-208-93.9-207.79-208.8C48.22,141,142,47.11,257,47.59,371,48.06,464.67,141.54,464,256.17ZM356.76,85.45c-5.34-5.23-5.86-5.22-9.87.35-4.47,6.2-10.15,10.14-18.07,10.37-11.23.34-22.14-4.1-25.83-16.9-1.05-3.63-1.24-7.52-1.75-11.3-.41-3.07-1.48-5.27-5-5.83-5.29-.83-10.56-1.91-15.77-3.15-4.14-1-6.64-.24-6.84,4.6a15.46,15.46,0,0,1-1.4,4.44,24.28,24.28,0,0,1-37.84,10.86c-5.23-4-8-9.51-10-15.49-.87-2.64-2.17-3.2-4.69-2.5-6,1.66-12,3.43-18,4.64-4.12.82-4.31,2.73-4,6.48,1.07,13-2.42,23-15.11,28.41-6.24,2.65-12.38,2.15-18.62.3-4.56-3.34-9.19-6.62-12.71-11.13-1.34-1.72-2.32-.89-3.5,0-4.68,3.43-9.28,7-14.09,10.24-2.24,1.52-2.16,2.81-.79,4.81a35.73,35.73,0,0,1,4.36,9.64c4.23,13.35-10.39,31.54-22.81,30.09-5.29-.62-10.39-1.62-15-4-3.19-1.64-4.68-.88-6.27,2-2.61,4.7-5.58,9.2-8.33,13.83-3.29,5.53-3.27,5.56,1.4,10,6.25,6,11.08,12.63,9.75,22-.34,2.35-1,4.67-1.45,7a11,11,0,0,0-1.32,1.6c-6,10.81-15.33,15.2-27.31,13.81-3.11-.36-3.57.7-4,3.15-.92,5.86-1.8,11.75-3.12,17.53-.91,4-.76,6.59,4.18,7.16,2.16.24,4.22,1.58,6.28,2.51,15.44,7,17,25.62,9.33,36.49-3.86,5.5-9.51,8.4-15.61,10.47-2.36.81-3.17,1.89-2.49,4.32,1.61,5.72,3.4,11.42,4.51,17.24.91,4.75,3.23,6.3,7.78,5.47a24.13,24.13,0,0,1,5.1,0,23.84,23.84,0,0,1,23.26,23.94c.07,8.82-4.1,15.48-10.44,21-2.18,1.9-2.41,3.14-.5,5.46a85.45,85.45,0,0,1,8.64,12.11c2,3.56,3.92,3.54,7.28,2,8.18-3.79,16.59-5,24.79.05,11.37,7,14.89,20.06,8.88,33.6-1.28,2.87-.84,4.17,1.75,5.67,5.77,3.34,11.46,6.83,17,10.53,2.74,1.83,4.18,1.77,6.52-1,6.65-7.91,15.15-11.83,25.66-9.16,9,2.29,15.49,7.54,17.93,16.86.93,3.55,1.81,7.26,1.19,10.91-.43,2.5.57,2.9,2.5,3.16,5.46.73,10.91,1.52,16.35,2.33,2.79.41,6,2,8.24,1.1,2.51-1,2.44-5,3.73-7.58,6-12,18.42-17.74,30-13.71,8.09,2.83,12.88,9.06,16.25,16.48,1.21,2.68,2.69,3.23,5.25,2.65,4.41-1,8.85-1.83,13.26-2.8,9.68-2.12,9.67-2.14,9.58-12,0-.14,0-.29,0-.43.75-16.19,19.47-27.74,34.28-21.16a34.17,34.17,0,0,1,10.4,7.27c1.78,1.79,3.26,2.08,5.38.32a88.08,88.08,0,0,1,8.7-6.1c7.1-4.56,7.42-5.55,3.94-13.44-7.09-16,4.29-33.65,21.72-33.35a106.4,106.4,0,0,1,14.3,1.68c3.23.5,5.24-.44,6.85-3.4,2.36-4.36,5.16-8.49,7.81-12.68,3.27-5.17,3.18-5-1.42-9-6.74-5.87-10.31-13.33-8.77-22.32,1.62-9.47,6.34-16.93,15.94-20.38,4.24-1.52,8.61-1.44,13-1.42,1.31,0,2.86.58,3.19-1.68,1.08-7.42,2.26-14.82,3.47-22.22.44-2.69-.7-3.73-3.25-4.37a29.92,29.92,0,0,1-12.33-6.44c-11.15-9.61-11.59-33.63,8.28-41.17,4.2-1.59,5.3-4.4,4.53-8.3-.93-4.72-2-9.41-3.26-14.05-1.5-5.52-3-6.69-8.71-6.51a25.15,25.15,0,0,1-14.6-3.63c-1.42-.88-2.52-2.38-4.41-2.36-.24-1.8-1.55-3-2.55-4.34-6-8.21-7-16.81-2-25.86,1.31-2.35,2.71-4.66,4.16-6.93,2.48-3.89,2.6-7.69-.18-11.49-1.84-2.52-3.75-5-5.41-7.64-1.95-3.1-3.61-3.46-7-1.28-15.91,10.22-35.34,2.43-39-15.41-1.25-6.1.73-11.81,3-17.35,1.13-2.81,1.32-5.65-1-7.45C366,90.3,361.92,86.94,356.76,85.45Z"/><path class="cls-5" d="M295.71,488.5c-.74-6.34-1.49-12.67-2.18-19-.1-.88-.63-2.27.67-2.54,1.67-.34,1.6,1.31,1.72,2.31q1.45,11.4,2.74,22.82c.11,1,.89,2.43-.6,3-1.3.48-2-.83-2.77-1.57-5.67-5.37-11.29-10.78-17-16.14-1-.94-1.75-2.22-3.58-2.72.75,6.06,1.48,11.91,2.21,17.77a24.74,24.74,0,0,1,.34,2.53c0,1.05.64,2.65-.93,2.83s-1.39-1.43-1.53-2.52c-.83-6.61-1.88-13.21-2.42-19.85-.24-3-1.15-3.92-4.06-3.66-3.09.28-6.23.13-9.35.17-.71,0-1.68-.26-2.09.1-3.19,2.82-.74,6.44-1.19,9.66-.25,1.75.2,3.08,2.51,2.79a33,33,0,0,1,4.67-.13c.7,0,1.47.2,1.55,1.09s-.69,1.2-1.37,1.28a18.16,18.16,0,0,1-3.82.18c-2.84-.29-3.55.93-3.47,3.66.16,5.64,0,5.64,5.77,5.47,3-.09,5.95-.14,8.93-.21,1.06,0,2.13.08,2,1.47-.11,1.15-1.17,1-2,1-4.82.16-9.64.26-14.46.46-2.1.08-2.59-1-2.62-2.87q-.15-11.72-.54-23.42c-.08-2.31,1-3,3-3,5.24,0,10.49,0,15.73-.13,1.82-.06,2.85.86,4,1.94q9.56,9.11,19.14,18.17c.29.27.78.82.86.77C296.3,489.72,295.94,489.09,295.71,488.5Z"/><path class="cls-5" d="M101.74,417.46c-2.83.73-4.13,3.44-6.13,5.22-2.32,2.07-4.39,4.43-6.62,6.6-.64.63-1.38,1.81-2.45.73s.09-1.8.73-2.45c4.17-4.24,8.4-8.43,12.59-12.66s4.19-4.25.33-8.55c-.67-.75-2.28-1.5-1.15-2.71,1.41-1.51,2.2.34,3,1.09,5.13,4.88,9.91,10.11,15.37,14.66,2.38,2,3.69,4.68,2.58,8s-3.49,4.53-6.64,5.19c-1.88.39-4.4-1.63-5.62,1.27-1.53,3.63-2.07,7.27-.34,11.11.56,1.23,3.86,2.33,1.3,3.78-1.72,1-2.87-1.72-3.66-3.3-1.77-3.52-1.5-7.23-.23-10.76.83-2.32.53-3.06-1.83-4.3-4.49-2.36-7.24-1.17-9.65,2.77-.48.8-1.23,2.38-2.58,1.25s.17-2,.79-2.76c3.65-4.47,7.37-8.88,11.06-13.31Zm-2.58,8.85c4.58,2,8.76,3.76,13.4,3.69,3.61-.05,6-2.71,5.14-5.65-1.2-4-4.62-5.42-8.15-6.77-3.25-1.24-4.19,1.42-5.7,3.11S101,424.16,99.16,426.31Zm6.69-13.45c-.57.14-1,.42-1,1.08,0,1.07.8.95,1.43.82s1.59.34,1.2-.87A1.46,1.46,0,0,0,105.85,412.86Z"/><path class="cls-5" d="M154.74,474.07c-6.39-.18-11.73-2.67-16.92-5.69-1.71-1-1.36-2.1-.64-3.53,2.95-5.81,5.89-11.62,8.68-17.5a4.4,4.4,0,0,1,4.31-2.77,16.39,16.39,0,0,1,10,2.93c3.61,2.56,4.22,5.91,1.67,9.5-.69,1-1.55,1.46-.2,2.63,3,2.63,4.63,5.87,2.68,9.8S158.34,473.72,154.74,474.07Zm-.09-2.42c4.65,0,7.86-2.06,8-5.23.12-3.67-3.61-6.68-8.12-6.71a41.79,41.79,0,0,1-5.47-.49c-6.19-.84-6.5-.57-9,5.25-.68,1.6-.36,2.21,1,2.94A32.93,32.93,0,0,0,154.65,471.65ZM144.29,456.2c4.65.43,8.76,1.76,13,.57,1.75-.5,3.26-1.2,3.46-3.2.33-3.25-2.1-4.54-4.5-5.36-2.66-.9-5.81-2.76-8.13.29C146.5,450.67,145.63,453.44,144.29,456.2Z"/><path class="cls-5" d="M357,474.16c1,0,2.35-1.15,2.81.6.38,1.42-1.15,1.68-1.91,1.7-3.44.08-5.88,2.19-8.69,3.7-5.72,3.07-12.62,1.35-16.74-3.82a15.06,15.06,0,0,1,0-18.51,13.42,13.42,0,0,1,16.66-4.18,14.58,14.58,0,0,1,8.07,15.8c-.25,1.24-.71,2.44-1.07,3.67C355.45,474.25,355.89,474.47,357,474.16ZM331.8,467c0,9,8.65,14.58,16.42,11.06,3.94-1.78-1-4.18.84-5,1.66-.72,4.26,1.88,5.21-2.07,1.2-5,.68-9.34-3-12.94a10.46,10.46,0,0,0-12.09-2.44A12.15,12.15,0,0,0,331.8,467Z"/><path class="cls-5" d="M227.22,472.6c6.95,0,12.27,5.18,12.27,11.89s-6,12.54-12.93,12.5a12,12,0,0,1-12.22-12A12.59,12.59,0,0,1,227.22,472.6Zm9.44,11.8a9.19,9.19,0,0,0-9.63-9.16c-5.47.06-10.18,4.78-10,10.05a9.29,9.29,0,0,0,9.54,8.87A9.75,9.75,0,0,0,236.66,484.4Z"/><path class="cls-5" d="M427.43,423.09A12.52,12.52,0,0,1,415,436a11.82,11.82,0,0,1-11.85-11.93,12.65,12.65,0,0,1,12.22-13.17C422.18,410.81,427.39,416.08,427.43,423.09Zm-2.68.06c0-5.48-4-9.55-9.27-9.48a9.84,9.84,0,0,0-9.58,9.91A9.42,9.42,0,0,0,415,433.4C420.27,433.45,424.76,428.74,424.75,423.15Z"/><path class="cls-5" d="M391.08,424.86c8.45,0,12.66,6.47,10.3,13.58a16.41,16.41,0,0,1-6.82,9c-2.37,1.48-2.79,2.63-.82,4.7.77.81,2.39,2.13,1.06,3.17-1.72,1.34-2.32-.95-3.05-1.9-4.3-5.62-8.5-11.32-12.7-17-.88-1.19-2.25-2.24-.65-4C382.25,428.12,386.7,425.15,391.08,424.86Zm8.61,9.94a7,7,0,0,0-7.42-7.44c-3.44.07-6.16,1.81-8.9,3.64-2.56,1.7-3.39,3.28-.95,5.93s4.28,5.65,6.42,8.48c.63.84,1,1.93,2.62,1.2C395,445.05,399.6,438.68,399.69,434.8Z"/><path class="cls-5" d="M318.34,488.08c3.45-1,7.38-2.17,11.34-3.24,1-.28,2.49-.87,2.77.79.2,1.2-1.13,1.35-2.09,1.62-4.49,1.27-9,2.48-13.44,3.88-2,.63-2.87,0-3.37-1.88q-3.09-11.49-6.29-22.94c-.51-1.85,0-2.87,2-3.39,4.51-1.16,9-2.56,13.47-3.78.84-.22,2.14-.81,2.44.69.27,1.33-.91,1.51-1.88,1.78q-4.92,1.32-9.81,2.71c-1,.27-2.54.35-2.73.91-1.3,3.69,1.16,6.87,1.77,10.33.38,2.17,2.06,1.33,3.4.95s2.7-.82,4.08-1.15c.71-.17,1.47-.05,1.66.85s-.28,1.31-1.05,1.54c-.41.12-.82.22-1.22.36-6.18,2.18-6.33,2.5-3.83,8.66C316.18,488.36,316.18,488.36,318.34,488.08Z"/><path class="cls-5" d="M131,462.64l.06-.43c.49-2.74,2.39-6.19.91-8.09-2.14-2.76-5.9-4.23-8.92-6.34-2.1-1.47-2.94.85-4.4,1.32-2.36.76-4.6,4.89-6.55,2.5-1.24-1.53,3.17-3.09,5.1-4.44,5.79-4.07,11.77-7.86,17.7-11.71.9-.58,1.88-1.72,3-.88s.41,2.07.21,3.15q-2.32,12.52-4.63,25c-.18,1-.22,2.23-1.5,2.17C130.53,464.88,131,463.56,131,462.64Zm-7-17.1c3.63,1.86,5.89,4.43,9.34,5.41.25-4.26,1.94-8,1.68-12.56Z"/><path class="cls-5" d="M381.56,457.2c0,5.57-2.71,9.26-7.79,11.13-4.43,1.64-8,.55-11.22-3.57-3.93-5-5.64-11.08-8.15-16.77-.31-.69-.46-1.44.32-1.84,1-.51,1.54.17,1.9,1,1.51,3.51,2.94,7.07,4.54,10.53a31.33,31.33,0,0,0,3,5.13c2.16,3,4.83,4.69,8.75,3.15,4.46-1.76,6.55-4.59,6.08-9.06-.6-5.73-3.9-10.24-6.89-14.9-.89-1.39-3.5-3.2-1.72-4.49,2-1.44,2.67,1.72,3.59,3C377.73,445.73,381.09,451.15,381.56,457.2Z"/><path class="cls-5" d="M183.78,472.59c0,4.26,0,8.52,0,12.78,0,1,.23,2.27-1.18,2.26-.89,0-1.23-1-1.26-2a8.08,8.08,0,0,0-.05-.85c-.39-2.62,1.1-6.2-.88-7.71-2.8-2.15-6.64-3-10.09-4.23-2.38-.86-2.93,1.72-4.39,2.6-2,1.21-3.19,5.49-5.52,3.59-1.46-1.19,2.28-3.53,3.78-5.2,4.86-5.37,9.93-10.54,14.95-15.76.72-.76,1.36-2.09,2.73-1.41,1,.52.86,1.72.86,2.69,0,4.4,0,8.8,0,13.2Zm-13-2.18L180.91,474c-.29-4.64-.55-8.7-.85-13.4Z"/><path class="cls-5" d="M201.29,491.72c-4.83-.16-8.12-.77-11.12-2.59a7.39,7.39,0,0,1-3.81-4.85c-.25-1.3-.73-3.32,1.06-3.62,2-.34,1.17,1.73,1.4,2.8.44,2,1.86,3.11,3.53,4a17.5,17.5,0,0,0,9.05,1.66c3.88-.19,6.21-1.95,7-6,1.13-5.38,2.64-10.69,4-16,.23-.92.26-2.31,1.6-2,1.69.35.93,1.7.67,2.76C213.46,472.9,212.19,478,211,483,209.38,489.45,206.35,491.82,201.29,491.72Z"/><path class="cls-5" d="M390.2,457.47a1.13,1.13,0,0,1-.79,1.3c-1.1.32-1.48-.66-1.9-1.32-3-4.63-5.91-9.3-8.87-13.95-1.52-2.39-3.08-4.75-4.61-7.12-.4-.63-.67-1.34,0-1.88a1.23,1.23,0,0,1,1.83.41Q383,446,390,457.08A2.71,2.71,0,0,1,390.2,457.47Z"/><path class="cls-6" d="M420,191.25c1.89,0,3,1.48,4.41,2.36a25.15,25.15,0,0,0,14.6,3.63c5.7-.18,7.21,1,8.71,6.51,1.26,4.64,2.33,9.33,3.26,14.05.77,3.9-.33,6.71-4.53,8.3-19.87,7.54-19.43,31.56-8.28,41.17a29.92,29.92,0,0,0,12.33,6.44c2.55.64,3.69,1.68,3.25,4.37-1.21,7.4-2.39,14.8-3.47,22.22-.33,2.26-1.88,1.69-3.19,1.68-4.39,0-8.76-.1-13,1.42-9.6,3.45-14.32,10.91-15.94,20.38-1.54,9,2,16.45,8.77,22.32,4.6,4,4.69,3.88,1.42,9-2.65,4.19-5.45,8.32-7.81,12.68-1.61,3-3.62,3.9-6.85,3.4a106.4,106.4,0,0,0-14.3-1.68c-17.43-.3-28.81,17.31-21.72,33.35,3.48,7.89,3.16,8.88-3.94,13.44a88.08,88.08,0,0,0-8.7,6.1c-2.12,1.76-3.6,1.47-5.38-.32a34.17,34.17,0,0,0-10.4-7.27c-14.81-6.58-33.53,5-34.28,21.16,0,.14,0,.29,0,.43.09,9.85.1,9.87-9.58,12-4.41,1-8.85,1.8-13.26,2.8-2.56.58-4,0-5.25-2.65-3.37-7.42-8.16-13.65-16.25-16.48-11.56-4-24,1.71-30,13.71-1.29,2.59-1.22,6.58-3.73,7.58-2.25.89-5.45-.69-8.24-1.1-5.44-.81-10.89-1.6-16.35-2.33-1.93-.26-2.93-.66-2.5-3.16.62-3.65-.26-7.36-1.19-10.91-2.44-9.32-8.92-14.57-17.93-16.86-10.51-2.67-19,1.25-25.66,9.16-2.34,2.77-3.78,2.83-6.52,1-5.54-3.7-11.23-7.19-17-10.53-2.59-1.5-3-2.8-1.75-5.67,6-13.54,2.49-26.62-8.88-33.6-8.2-5-16.61-3.84-24.79-.05-3.36,1.56-5.25,1.58-7.28-2a85.45,85.45,0,0,0-8.64-12.11c-1.91-2.32-1.68-3.56.5-5.46,6.34-5.49,10.51-12.15,10.44-21a23.84,23.84,0,0,0-23.26-23.94,24.13,24.13,0,0,0-5.1,0c-4.55.83-6.87-.72-7.78-5.47-1.11-5.82-2.9-11.52-4.51-17.24-.68-2.43.13-3.51,2.49-4.32,6.1-2.07,11.75-5,15.61-10.47,7.64-10.87,6.11-29.5-9.33-36.49-2.06-.93-4.12-2.27-6.28-2.51-4.94-.57-5.09-3.16-4.18-7.16,1.32-5.78,2.2-11.67,3.12-17.53.38-2.45.84-3.51,4-3.15,12,1.39,21.33-3,27.31-13.81a11,11,0,0,1,1.32-1.6c.89,1.09,1.81,2.16,2.67,3.28l53.13,69.39a27.42,27.42,0,0,1-1.7,2.87c-2.85,3.71-5.93,7.33-6.59,12.2-1.62,11.95,9.26,20.34,21.48,16.62,1.14-.35,2.31-1.46,3.41.05s0,2.6-.92,3.69c-2.35,2.84-4.83,5.59-6.59,8.87-3.47,6.48-2.52,12.2,3,18.23,4.82,5.26,10.3,6.44,16.91,3.36,2.88-1.35,5.56-3.13,8.63-4.88-.43,3-.83,5.67-1.19,8.32-.92,6.85.48,12.7,6.87,16.53s12.38,3,18.29-1.07c1.06-.73,2-2.63,3.54-1.6s.52,2.83.19,4.26c-1.53,6.59-1.31,12.74,4.38,17.49,7,5.86,14.14,5.37,21.73-1.33,2.06-1.82,3.5-4.61,6.75-4.77,3.26,4,6.67,7.78,11.28,10.23,10.3,5.46,22-.23,24-11.69a50.8,50.8,0,0,0,.5-5.51c.13-2.11.76-3,3.17-2.3a48.7,48.7,0,0,0,12.12,2.08c7.11.18,10.45-2,12.73-8.77a65.79,65.79,0,0,0,2.43-9.89c.33-2,1.16-2.25,2.83-2,2.8.47,5.6.95,8.42,1.17,7.28.56,11.29-2,13.52-8.94a49.43,49.43,0,0,0,2.43-10.76c.29-3.45,1.1-4.39,4.8-3.93,9.71,1.2,15.46-2.58,17.91-11.09,1.69-5.88.3-11.19-3.17-16.11-2.32-3.29-5.62-5.59-8.31-8.49-.12-3.16,1.43-6.15.92-9.35l0,0,.62-1c.93-1.24,1.82-2.53,2.81-3.72Q388.72,228.94,420,191.25Z"/><path class="cls-3" d="M150.27,267.84,97.14,198.45c-.86-1.12-1.78-2.19-2.67-3.28.49-2.33,1.11-4.65,1.45-7,1.33-9.34-3.5-16-9.75-22-4.67-4.47-4.69-4.5-1.4-10,2.75-4.63,5.72-9.13,8.33-13.83,1.59-2.87,3.08-3.63,6.27-2,4.65,2.38,9.75,3.38,15,4,12.42,1.45,27-16.74,22.81-30.09a35.73,35.73,0,0,0-4.36-9.64c-1.37-2-1.45-3.29.79-4.81,4.81-3.26,9.41-6.81,14.09-10.24,1.18-.86,2.16-1.69,3.5,0,3.52,4.51,8.15,7.79,12.71,11.13a396.82,396.82,0,0,0,47.6,44.6c7,5.51,13.87,11.18,22.36,14.32.37,4.14-2.72,6.39-5.11,8.83-11.34,11.54-22.9,22.88-34.23,34.44-4.61,4.7-7.9,10.31-6.12,17.19,4.44,17,23,22,35.53,9.59,6.88-6.78,13.66-13.65,20.47-20.5,5.77-5.79,6.59-5.95,13.26-1.33,7.88,5.44,16.22,10.6,25.8,11.06s15.63,5.53,21.69,11.65q20.55,20.71,41.26,41.26c1.18,1.17,2.08,2.78,4,3,.17,2.29.7,4.41,2.66,5.89,2.69,2.9,6,5.2,8.31,8.49,3.47,4.92,4.86,10.23,3.17,16.11-2.45,8.51-8.2,12.29-17.91,11.09-3.7-.46-4.51.48-4.8,3.93a49.43,49.43,0,0,1-2.43,10.76c-2.23,6.92-6.24,9.5-13.52,8.94-2.82-.22-5.62-.7-8.42-1.17-1.67-.27-2.5,0-2.83,2a65.79,65.79,0,0,1-2.43,9.89c-2.28,6.8-5.62,8.95-12.73,8.77a48.7,48.7,0,0,1-12.12-2.08c-2.41-.68-3,.19-3.17,2.3a50.8,50.8,0,0,1-.5,5.51c-2,11.46-13.7,17.15-24,11.69-4.61-2.45-8-6.27-11.28-10.23.92-2.42,2.83-4.15,4.25-6.23,2.48-3.64,4.86-7.45,3.83-12.13-2.46-11.19-11.21-15.77-22.37-11.83-1.09.38-2.27,1-3.15,0a2.91,2.91,0,0,1,0-3.57c.91-1.43,2.07-2.7,3-4.12,4.53-7,3.26-15-3.28-20.95-5.5-5-12.79-4.87-19.27,0-3.33,2.47-6.06,5.53-9.09,8.29-.74.67-1.3,2.32-2.64,1.42s-.12-2.08.31-3c1.83-4,5.55-6.37,8.4-9.49,5.14-5.61,6.58-13,3.67-19.23-2.48-5.32-8.72-8.58-15.42-8.52-3.73,0-5.66,2.93-8.47,4.4-1.42.74-2.86,2.64-4.42,1.55-1.83-1.29-.15-3.06.42-4.57,3.68-9.62-.34-18-10.17-21.12-6.91-2.22-12,.8-16.65,5.53C155.42,265.11,153.69,267.79,150.27,267.84Z"/><path class="cls-7" d="M350.47,274.81c-1.93-.19-2.83-1.8-4-3q-20.65-20.59-41.26-41.26c-6.06-6.12-12.14-11.19-21.69-11.65s-17.92-5.62-25.8-11.06c-6.67-4.62-7.49-4.46-13.26,1.33-6.81,6.85-13.59,13.72-20.47,20.5-12.58,12.39-31.09,7.46-35.53-9.59-1.78-6.88,1.51-12.49,6.12-17.19,11.33-11.56,22.89-22.9,34.23-34.44,2.39-2.44,5.48-4.69,5.11-8.83a6,6,0,0,0,1.62-.48c9.92-6.11,20.43-5.21,31.57-4.28,27.28,2.28,24,5.88,46.28-17.08,15.8-16.3,29.31-34.58,43.38-52.36,5.16,1.49,9.25,4.85,13.33,8,2.28,1.8,2.09,4.64,1,7.45-2.24,5.54-4.22,11.25-3,17.35,3.62,17.84,23.05,25.63,39,15.41,3.38-2.18,5-1.82,7,1.28,1.66,2.64,3.57,5.12,5.41,7.64,2.78,3.8,2.66,7.6.18,11.49-1.45,2.27-2.85,4.58-4.16,6.93-5,9-4,17.65,2,25.86,1,1.35,2.31,2.54,2.55,4.34q-31.28,37.69-62.54,75.4c-1,1.19-1.88,2.48-2.81,3.72l-.62,1,0,0Z"/><path class="cls-6" d="M356.76,85.45c-14.07,17.78-27.58,36.06-43.38,52.36-22.24,23-19,19.36-46.28,17.08-11.14-.93-21.65-1.83-31.57,4.28a6,6,0,0,1-1.62.48c-8.49-3.14-15.4-8.81-22.36-14.32a396.82,396.82,0,0,1-47.6-44.6c6.24,1.85,12.38,2.35,18.62-.3C195.26,95,198.75,85,197.68,72c-.31-3.75-.12-5.66,4-6.48,6.08-1.21,12.06-3,18-4.64,2.52-.7,3.82-.14,4.69,2.5,2,6,4.73,11.54,10,15.49A24.28,24.28,0,0,0,272.21,68a15.46,15.46,0,0,0,1.4-4.44c.2-4.84,2.7-5.59,6.84-4.6,5.21,1.24,10.48,2.32,15.77,3.15,3.54.56,4.61,2.76,5,5.83.51,3.78.7,7.67,1.75,11.3,3.69,12.8,14.6,17.24,25.83,16.9,7.92-.23,13.6-4.17,18.07-10.37C350.9,80.23,351.42,80.22,356.76,85.45Z"/><path class="cls-3" d="M295.71,488.5c.23.59.59,1.22-.1,1.69-.08.05-.57-.5-.86-.77Z"/><path class="cls-3" d="M99.16,426.31c1.79-2.15,3.18-3.93,4.69-5.62s2.45-4.35,5.7-3.11c3.53,1.35,7,2.77,8.15,6.77.88,2.94-1.53,5.6-5.14,5.65C107.92,430.07,103.74,428.28,99.16,426.31Z"/><path class="cls-3" d="M105.85,412.86a1.46,1.46,0,0,1,1.59,1c.39,1.21-.72.77-1.2.87s-1.44.25-1.43-.82C104.82,413.28,105.28,413,105.85,412.86Z"/><path class="cls-3" d="M154.65,471.65A32.93,32.93,0,0,1,141,467.41c-1.34-.73-1.66-1.34-1-2.94,2.47-5.82,2.78-6.09,9-5.25a41.79,41.79,0,0,0,5.47.49c4.51,0,8.24,3,8.12,6.71C162.51,469.59,159.3,471.69,154.65,471.65Z"/><path class="cls-3" d="M144.29,456.2c1.34-2.76,2.21-5.53,3.86-7.7,2.32-3.05,5.47-1.19,8.13-.29,2.4.82,4.83,2.11,4.5,5.36-.2,2-1.71,2.7-3.46,3.2C153.05,458,148.94,456.63,144.29,456.2Z"/><path class="cls-3" d="M331.8,467a12.15,12.15,0,0,1,7.42-11.36,10.46,10.46,0,0,1,12.09,2.44c3.64,3.6,4.16,8,3,12.94-.95,3.95-3.55,1.35-5.21,2.07-1.84.79,3.1,3.19-.84,5C340.45,481.62,331.76,476.05,331.8,467Z"/><path class="cls-3" d="M357,474.16c-1.09.31-1.53.09-.87-1Z"/><path class="cls-3" d="M236.66,484.4a9.75,9.75,0,0,1-10.12,9.76,9.29,9.29,0,0,1-9.54-8.87c-.15-5.27,4.56-10,10-10.05A9.19,9.19,0,0,1,236.66,484.4Zm-9.88,2.73c1.67-.34,3-1.06,2.86-3a2.69,2.69,0,0,0-2.84-2.56c-1.67-.05-3.05.8-3.07,2.72S225.12,486.85,226.78,487.13Z"/><path class="cls-3" d="M424.75,423.15c0,5.59-4.48,10.3-9.78,10.25a9.42,9.42,0,0,1-9.07-9.82,9.84,9.84,0,0,1,9.58-9.91C420.76,413.6,424.74,417.67,424.75,423.15Zm-9.62-2.61a3,3,0,0,0-3.12,2.78,2.42,2.42,0,0,0,2.34,2.92,3,3,0,0,0,3.37-3C417.84,421.6,416.84,420.63,415.13,420.54Z"/><path class="cls-3" d="M399.69,434.8c-.09,3.88-4.72,10.25-8.23,11.81-1.65.73-2-.36-2.62-1.2-2.14-2.83-4-5.87-6.42-8.48s-1.61-4.23.95-5.93c2.74-1.83,5.46-3.57,8.9-3.64A7,7,0,0,1,399.69,434.8Z"/><path class="cls-3" d="M124,445.54l11-7.15c.26,4.52-1.43,8.3-1.68,12.56C129.87,450,127.61,447.4,124,445.54Z"/><path class="cls-3" d="M170.78,470.41l9.28-9.77c.3,4.7.56,8.76.85,13.4Z"/><path class="cls-7" d="M150.27,267.84c3.42,0,5.15-2.73,7.18-4.8,4.64-4.73,9.74-7.75,16.65-5.53,9.83,3.16,13.85,11.5,10.17,21.12-.57,1.51-2.25,3.28-.42,4.57,1.56,1.09,3-.81,4.42-1.55,2.81-1.47,4.74-4.36,8.47-4.4,6.7-.06,12.94,3.2,15.42,8.52,2.91,6.27,1.47,13.62-3.67,19.23-2.85,3.12-6.57,5.49-8.4,9.49-.43.93-1.64,2.11-.31,3s1.9-.75,2.64-1.42c3-2.76,5.76-5.82,9.09-8.29,6.48-4.83,13.77-4.93,19.27,0,6.54,5.9,7.81,13.94,3.28,20.95-.92,1.42-2.08,2.69-3,4.12a2.91,2.91,0,0,0,0,3.57c.88,1,2.06.4,3.15,0,11.16-3.94,19.91.64,22.37,11.83,1,4.68-1.35,8.49-3.83,12.13-1.42,2.08-3.33,3.81-4.25,6.23-3.25.16-4.69,2.95-6.75,4.77-7.59,6.7-14.71,7.19-21.73,1.33-5.69-4.75-5.91-10.9-4.38-17.49.33-1.43,1.53-3.15-.19-4.26s-2.48.87-3.54,1.6c-5.91,4-11.92,4.9-18.29,1.07s-7.79-9.68-6.87-16.53c.36-2.65.76-5.3,1.19-8.32-3.07,1.75-5.75,3.53-8.63,4.88-6.61,3.08-12.09,1.9-16.91-3.36-5.53-6-6.48-11.75-3-18.23,1.76-3.28,4.24-6,6.59-8.87.9-1.09,2.08-2.11.92-3.69s-2.27-.4-3.41-.05c-12.22,3.72-23.1-4.67-21.48-16.62.66-4.87,3.74-8.49,6.59-12.2A27.42,27.42,0,0,0,150.27,267.84Z"/><path class="cls-4" d="M350.47,274.81l3.58-3.46c.51,3.2-1,6.19-.92,9.35C351.17,279.22,350.64,277.1,350.47,274.81Z"/><path class="cls-4" d="M354,271.38l.62-1Z"/><path class="cls-5" d="M226.78,487.13c-1.66-.28-3.06-.9-3.05-2.84s1.4-2.77,3.07-2.72a2.69,2.69,0,0,1,2.84,2.56C229.75,486.07,228.45,486.79,226.78,487.13Z"/><path class="cls-5" d="M415.13,420.54c1.71.09,2.71,1.06,2.59,2.67a3,3,0,0,1-3.37,3,2.42,2.42,0,0,1-2.34-2.92A3,3,0,0,1,415.13,420.54Z"/><rect id="SVGID-2" data-name="SVGID" class="cls-1" width="512" height="512"/></svg>