<svg id="Capa_1" data-name="Capa 1" xmlns="http://www.w3.org/2000/svg" viewBox="0 0 512 512"><defs><style>.cls-1{fill:#e83876;}.cls-2{fill:#dd0162;}.cls-3{fill:#fff;}</style></defs><rect class="cls-1" x="85.04" y="85.04" width="341.92" height="341.92" transform="translate(-106.04 256) rotate(-45)"/><path class="cls-2" d="M256,0,0,256,256,512,512,256Zm0,14.22L497.78,256,256,497.78,14.22,256Z"/><path d="M358.35,289.4l-55.12-30.3L300.07,221s20.21-28,18.66-69.93-59.06-42-87-37.3-33.41,37.3-33.41,37.3-13.21,36.51-17.09,51.28,1.55,14,1.55,14l15.54-.77v21.9c0,21.9,8.79,17.72,8.79,17.72l28.5,3.11s-33.4,15.54-48.16,24.86a24.79,24.79,0,0,0-11.66,24.87l63.61,37.39c-11.4.68-27.55,1.54-30.94,4.29-8.91,7.24-9.13,14.83-9.86,19.7H342s-4.84-18.22-18.65-21.76c-2.79-.71-17.88-.26-25.44-1.06,23.68-12.82,51-29.72,62.06-36.13a20.18,20.18,0,0,0-1.65-21.08"/><path d="M198.29,372.54a24,24,0,0,1,.28-3.11h-.28Z"/><path class="cls-3" d="M232.69,168.27A10.75,10.75,0,1,1,222,158a10.53,10.53,0,0,1,10.74,10.3"/></svg>