<svg id="Capa_1" data-name="Capa 1" xmlns="http://www.w3.org/2000/svg" viewBox="0 0 512 512"><defs><style>.cls-1{fill:#e83876;}.cls-2{fill:#dd0162;}.cls-3{fill:#1e1e1c;}.cls-4{fill:#fff;}</style></defs><rect class="cls-1" x="85.04" y="85.04" width="341.92" height="341.92" transform="translate(-106.04 256) rotate(-45)"/><path class="cls-2" d="M256,0,0,256,256,512,512,256Zm0,14.22L497.78,256,256,497.78,14.22,256Z"/><path class="cls-3" d="M236.33,181.69l-1.26-59.23a63.65,63.65,0,0,1-5-28.25c1-15.34,10-34.67,10-34.67l29.6-2.8S279.83,74,280.52,89a101.44,101.44,0,0,1-3.34,29l1.57,61.43Z"/><path class="cls-3" d="M233.48,177.08l48.4,0s6.36,6.48,5.86,22.8-6.58,19.7-6.58,19.7l-44.74,1a33.13,33.13,0,0,1-9-22.89c.08-14.33,6.06-20.67,6.06-20.67"/><polygon class="cls-3" points="236.41 217.73 240.46 430.73 279.71 430.31 280.83 216.92 236.41 217.73"/><path class="cls-3" d="M240.46,430.73l39.25-.42S290.59,443,286.47,452c-14.23,1-49.57,1.8-49.57,1.8s-7.92-10.43,3.56-23.11"/><path class="cls-4" d="M264.67,230a9.08,9.08,0,1,1-12.83.38,9.06,9.06,0,0,1,12.83-.38"/><path class="cls-4" d="M264,262.9a9.08,9.08,0,1,1-12.83.39A9.07,9.07,0,0,1,264,262.9"/><path class="cls-4" d="M263.68,295.26a9.07,9.07,0,1,1-12.84.37,9.08,9.08,0,0,1,12.84-.37"/><path class="cls-4" d="M264.66,327.62a9.07,9.07,0,1,1-12.84.37,9.08,9.08,0,0,1,12.84-.37"/><path class="cls-4" d="M264,360.52a9.07,9.07,0,1,1-12.83.38,9.06,9.06,0,0,1,12.83-.38"/><path class="cls-4" d="M263.67,392.88a9.08,9.08,0,1,1-12.83.38,9.07,9.07,0,0,1,12.83-.38"/></svg>