<svg id="Capa_1" data-name="Capa 1" xmlns="http://www.w3.org/2000/svg" viewBox="0 0 512 512"><defs><style>.cls-1{fill:#e83876;}.cls-2{fill:#dd0162;}.cls-3{fill:#fff;}.cls-3,.cls-4{fill-rule:evenodd;}</style></defs><rect class="cls-1" x="85.04" y="85.04" width="341.92" height="341.92" transform="translate(-106.04 256) rotate(-45)"/><path class="cls-2" d="M256,0,0,256,256,512,512,256Zm0,14.22L497.78,256,256,497.78,14.22,256Z"/><path class="cls-3" d="M372.06,313.7A20.08,20.08,0,0,1,352,333.78H160A20.07,20.07,0,0,1,140,313.7V204.4A20.08,20.08,0,0,1,160,184.31H352a20.09,20.09,0,0,1,20.07,20.09Z"/><path class="cls-4" d="M139.59,301.16v-87c5.07,0,10-.46,14.81.23,1.9.26,3.81,2.83,5.06,4.77.83,1.29.68,3.31.68,5q0,33.78,0,67.56c0,7.16-2.16,9.28-9.16,9.38-3.59,0-7.18,0-11.41,0"/><path class="cls-3" d="M201.34,214.73c-2-3.28-4.1-5.26-4-7.16.08-1.59,2.76-3.06,4.29-4.57,1.63,1.7,4.26,3.22,4.56,5.14.24,1.51-2.4,3.44-4.87,6.59"/><path class="cls-3" d="M207.65,188.92c2.47,3.2,4.57,4.75,4.93,6.67.57,2.86-1.44,5.33-4.45,4.75-1.77-.34-4.3-2.64-4.42-4.18-.13-1.86,2-3.88,3.94-7.24"/><path class="cls-3" d="M222.06,207.37c-3.08,2.49-4.92,5.09-6.38,4.89a7.18,7.18,0,0,1-4.85-4.37c-.33-1.11,2.41-4.35,4-4.47,1.83-.15,3.89,2,7.27,4"/><path class="cls-3" d="M195,202.54c-2.32-2.85-4.89-4.6-4.73-6.08.21-1.91,2.58-3.6,4-5.39,1.64,1.6,4.18,3,4.67,4.88.35,1.4-2,3.48-4,6.59"/><path class="cls-3" d="M222.32,190.32c1.31,1.86,3.62,3.71,3.62,5.58,0,1.54-2.63,4.25-4.22,4.34s-4.39-2.37-4.55-3.92c-.2-1.86,1.87-3.93,3-5.91l2.19-.09"/><path class="cls-3" d="M234.68,202.46c-2-3-4.42-5.08-4.09-6.49.44-1.87,3-3.27,4.69-4.87,1.47,1.75,3.88,3.41,4.08,5.3.17,1.48-2.4,3.26-4.68,6.06"/><path class="cls-4" d="M306.93,263.78a21.48,21.48,0,0,1-22.16,21.49,21.73,21.73,0,0,1-21.39-21.86c.18-12.53,9.87-21.87,22.53-21.76,11.73.11,21.19,10.07,21,22.13m-8.6-.2a13.11,13.11,0,1,0-26.21-.22,13.11,13.11,0,1,0,26.21.22"/><path class="cls-4" d="M379,188.48c0-4.95-2-9-6.33-10.92a36.82,36.82,0,0,0-12.75-3.15c-8.54-.49-17.13-.14-25.54-.14-3.68-12.29-7.63-15.19-20.22-15.19-21.16,0-42.31,0-63.47,0-6.14,0-11.91,2.38-13.23,7.88-2.06,8.59-7.63,7.39-13.51,7.36-6.69,0-13.41.23-20.11.26-2.16,0-4.32-.39-6.37-.59-1.21-8.78-1.21-8.78-9.68-8.74-4.13,0-8.26,0-12.37,0-7.75,0-7.74,0-8.33,7.7,0,.3-.31.58-.83,1.44-3.58,0-7.51-.18-11.41,0-7.12.38-14.29,4.56-14.89,9.93-.84,7.21-.2,14.57-.2,22.12,5.78,0,11.1-.12,16.41,0,7.54.18,11.34,3.72,11.37,11.06q.19,40,0,80c0,7.21-3.63,10.67-10.85,10.89-5.5.14-11,0-17.32,0,0,5,.16,9.32,0,13.58A11.72,11.72,0,0,0,146.63,334,28.61,28.61,0,0,0,158,336.58q101.16.23,202.29,0a30.47,30.47,0,0,0,11.82-2.8c4.73-2.08,7-6.18,7-11.63q-.11-66.82,0-133.67M285.06,329.05a65.47,65.47,0,0,1-65.29-65.37c0-36.62,28.88-65.57,65.39-65.58a65.48,65.48,0,1,1-.1,131"/></svg>