<svg id="Capa_1" data-name="Capa 1" xmlns="http://www.w3.org/2000/svg" viewBox="0 0 512 512"><defs><style>.cls-1{fill:#e83876;}.cls-2{fill:#dd0162;}.cls-3{fill:#fff;fill-rule:evenodd;}</style></defs><rect class="cls-1" x="85.04" y="85.04" width="341.92" height="341.92" transform="translate(-106.04 256) rotate(-45)"/><path class="cls-2" d="M256,0,0,256,256,512,512,256Zm0,14.22L497.78,256,256,497.78,14.22,256Z"/><path class="cls-3" d="M125.64,167.47a18.07,18.07,0,0,1,13.83,5.66c20.08,20,40.2,39.92,60.08,60.1,6,6.13,7.2,13.8,3.63,21.69-3.47,7.65-9.71,11.61-18.19,11.6a18.76,18.76,0,0,1-13.61-5.69q-30-30-59.89-59.94a19.16,19.16,0,0,1-3.95-21.67c3.54-7.61,9.62-11.64,18.1-11.75"/><path d="M185.05,272.21H185a24.51,24.51,0,0,1-17.62-7.36l-11.75-11.74Q131.51,229,107.47,204.9a24.72,24.72,0,0,1-5.09-28.09c4.5-9.67,12.49-14.88,23.13-15a23.69,23.69,0,0,1,18,7.32L155,180.52c16,15.9,32.52,32.35,48.62,48.71,7.59,7.71,9.33,17.94,4.77,28-4.38,9.64-12.67,14.95-23.33,14.95m-58.73-99.07h-.59c-6.23.09-10.38,2.79-13,8.46a13.47,13.47,0,0,0,2.83,15.26q24,24.13,48.12,48.19l11.75,11.74a13,13,0,0,0,9.6,4h.05c6.18,0,10.42-2.7,12.93-8.25,2.64-5.82,1.8-11-2.49-15.33-16.06-16.32-32.58-32.75-48.54-48.62l-11.5-11.44a12.52,12.52,0,0,0-9.14-4"/><path class="cls-3" d="M383.33,347.6c-.55,7.34-4,13.55-11.25,17-7.63,3.61-15,2.54-21.4-2.92-3.58-3.06-6.79-6.58-10.12-9.91q-19.47-19.39-38.9-38.85c-6.93-7-8.18-17.07-3.19-24.82,6.73-10.49,21.39-12.57,30.31-3.84C345.36,300.49,361.67,317,378,333.47c3.67,3.7,5.14,8.4,5.31,14.13"/><path d="M363.31,372.39A24.94,24.94,0,0,1,347,366c-2.8-2.38-5.32-5-7.77-7.47-.9-.92-1.78-1.84-2.69-2.75l-5-5q-17-16.91-33.88-33.86c-8.76-8.79-10.38-21.92-4-31.92a25.77,25.77,0,0,1,18.86-11.75,24.74,24.74,0,0,1,20.22,6.92c14.19,13.88,28.39,28.19,42.11,42l7.2,7.26c4.45,4.48,6.73,10.35,7,18v.31l0,.29c-.75,9.92-5.89,17.64-14.49,21.72a26.15,26.15,0,0,1-11.21,2.65m-47.88-87.9c-.54,0-1.08,0-1.62.08a14.45,14.45,0,0,0-10.55,6.6c-3.57,5.55-2.59,12.67,2.44,17.72q16.89,17,33.85,33.83l5,5c.94.94,1.87,1.89,2.8,2.84,2.36,2.42,4.6,4.72,7,6.75,4.74,4.05,9.74,4.74,15.27,2.12,4.86-2.3,7.47-6.23,8-12-.19-4.55-1.33-7.64-3.65-10l-7.2-7.25c-13.71-13.82-27.88-28.09-42-41.92a13.21,13.21,0,0,0-9.35-3.82"/><path class="cls-3" d="M121.11,347.27c.09-5.45,1.64-10,5.24-13.66q24.38-24.53,48.88-48.91c6-5.91,13.34-7.41,21.18-4.38s11.92,9.13,12.46,17.42c.41,6.13-2.12,11.27-6.39,15.54Q178.83,337,155.09,360.57c-5.76,5.71-12.71,7.55-20.42,5-7.32-2.41-11.66-7.74-13.22-15.29a29.77,29.77,0,0,1-.34-3"/><path d="M141.22,372.38a26.55,26.55,0,0,1-8.33-1.39c-9.12-3-15-9.75-17-19.53a20.78,20.78,0,0,1-.38-3l-.09-1v-.35c.12-7.18,2.45-13.09,6.9-17.57,15-15.15,32.09-32.32,48.91-49,7.59-7.5,17.26-9.5,27.26-5.64,9.66,3.74,15.37,11.68,16.08,22.34.49,7.4-2.22,14.11-8.05,19.95Q182.86,341,159.1,364.61c-5.17,5.13-11.34,7.77-17.88,7.77M126.81,347.1l0,.54a10.74,10.74,0,0,0,.17,1.51c1.18,5.72,4.26,9.33,9.42,11,5.55,1.83,10.32.62,14.63-3.65q23.73-23.56,47.37-47.27c3.46-3.46,5-7.1,4.74-11.14-.42-6.26-3.3-10.34-8.83-12.48-5.79-2.24-10.73-1.21-15.13,3.13-16.77,16.59-33.81,33.74-48.84,48.87-2.33,2.34-3.46,5.36-3.58,9.47"/><path class="cls-3" d="M247.38,252.41c7.5,0,15-.1,22.47,0a19.7,19.7,0,0,1,4.82,38.68,24.64,24.64,0,0,1-6,.79c-14.33.05-28.66.07-43,0-11.17-.08-19.76-8.31-20.13-19.1a19.74,19.74,0,0,1,19.63-20.31c7.4-.14,14.82,0,22.22,0Z"/><path d="M247.4,297.64q-10.89,0-21.79-.07c-14.21-.1-25.29-10.67-25.77-24.59a24.91,24.91,0,0,1,6.87-18.18,25.72,25.72,0,0,1,18.34-8c5.15-.1,10.29-.08,15.45-.05h3.59l10.22,0c5.22,0,10.43,0,15.63,0a25.57,25.57,0,0,1,24.63,22.06c1.55,12.87-6.2,24.57-18.45,27.82a30,30,0,0,1-7.45,1q-10.64,0-21.27,0m-13.83-39.55q-4.15,0-8.3.07A14.41,14.41,0,0,0,215,262.64a13.68,13.68,0,0,0-3.77,9.93c.28,7.83,6.37,13.55,14.49,13.61,14.3.1,28.61.08,42.92,0a18.87,18.87,0,0,0,4.59-.6,14,14,0,0,0,10.05-15.44,14.18,14.18,0,0,0-13.5-12c-5.13-.08-10.27-.06-15.4,0l-7,.05-6.93,0-6.88,0"/><path class="cls-3" d="M289.07,251.43c.18-5.93,1.88-10.51,5.53-14.19,8.28-8.4,16.59-16.82,25-25,7.34-7.14,19-7.13,26.88-.26,7.32,6.43,8.49,18.07,2.6,26.16a24.19,24.19,0,0,1-2.35,2.8c-7.93,8-15.78,16-23.84,23.82-11.1,10.78-29.06,6-33.06-8.76a42,42,0,0,1-.81-4.53"/><path d="M308.83,276.28a25.76,25.76,0,0,1-6.72-.9,25.17,25.17,0,0,1-17.73-17.92,33.45,33.45,0,0,1-.81-4.25l-.22-1.38,0-.56c.23-7.48,2.58-13.37,7.18-18l.5-.51c8-8.11,16.29-16.51,24.62-24.6,9.34-9.07,24.54-9.28,34.6-.45,9.61,8.41,11.13,23.25,3.46,33.79a29.39,29.39,0,0,1-2.91,3.46l-6,6.05c-5.94,6-11.86,12-17.91,17.83a25.82,25.82,0,0,1-18.07,7.48m-14.05-25.15.08.51a24.14,24.14,0,0,0,.51,2.83,13.68,13.68,0,0,0,9.74,9.91A14.35,14.35,0,0,0,319,260.63c6-5.82,11.87-11.75,17.75-17.67l6-6.08a19.73,19.73,0,0,0,1.78-2.14c4.16-5.71,3.37-14-1.76-18.51-5.64-4.94-14-4.91-19.16.06-8.24,8-16.49,16.36-24.45,24.44l-.51.5c-2.46,2.5-3.66,5.57-3.87,9.9"/><path class="cls-3" d="M302,147.69c2.81-7.09,8.17-12,16.47-12.94s14.92,2.21,19,9.32c6,10.44,11.56,21.13,16.95,31.89,3.61,7.22,2.91,14.44-2.18,20.85s-12,8.82-20,7.05a19.13,19.13,0,0,1-13-10.22c-2.31-4.38-4.65-8.76-7-13.15-3-5.61-5.95-11.2-8.9-16.83-2.58-4.91-3-10.06-1.33-16"/><path d="M337.2,210.13a28.23,28.23,0,0,1-6.17-.71,24.79,24.79,0,0,1-16.84-13.1l-9.89-18.66c-2-3.78-4-7.55-6-11.35-3.24-6.18-3.82-12.77-1.77-20.14l.19-.57c3.78-9.54,11.28-15.4,21.14-16.5,10.5-1.18,19.47,3.24,24.56,12.15,5.34,9.31,10.77,19.53,17.1,32.17,4.64,9.26,3.64,18.82-2.81,26.94-5.11,6.41-11.89,9.77-19.51,9.77m-29.78-60.62c-1.17,4.44-.87,8,1,11.52,2,3.77,4,7.53,6,11.29l9.9,18.66a13.49,13.49,0,0,0,9.24,7.32c5.9,1.32,10.55-.34,14.3-5s4.19-9.45,1.54-14.73c-6.24-12.45-11.57-22.5-16.81-31.62-2.85-5-7.37-7.15-13.41-6.49-5.61.63-9.44,3.61-11.7,9.09"/><path class="cls-3" d="M393.83,202.12c6,0,12.05-.1,18.07,0,9.67.21,18,8.72,18.52,18.65.49,10.15-7,19.48-16.81,20.31-7.11.59-14.3.42-21.46.43-6.11,0-12.23.1-18.3-.4-10.36-.86-17.42-9.62-17.15-20.69.24-9.37,8.67-17.91,18.32-18.26,6.26-.21,12.53,0,18.81,0Z"/><path d="M400,247.23H389.45c-5.24,0-10.66,0-16.08-.41-13.32-1.11-22.72-12.26-22.37-26.5.32-12.48,11.22-23.37,23.81-23.82,4.44-.14,8.9-.1,13.19-.08l2.77,0,8.66,0c4.2,0,8.4,0,12.59,0,12.65.27,23.45,11.07,24.08,24.06.65,13.41-9.23,25.2-22,26.26-4.71.4-9.45.46-14.07.46m-7.87-11.4h4.31c5.77,0,11.23,0,16.68-.42,6.63-.55,11.94-7.13,11.6-14.35-.34-7-6.28-13.09-13-13.23-4.08-.09-8.16-.07-12.26,0v0h-5.69c-2,0-3.95,0-5.92,0-4.18,0-8.5-.08-12.68.07-6.56.23-12.67,6.28-12.83,12.71-.21,8.15,4.69,14.26,11.92,14.86,4.93.42,9.88.41,15.1.39Z"/></svg>