<svg id="Capa_1" data-name="Capa 1" xmlns="http://www.w3.org/2000/svg" viewBox="0 0 512 512"><defs><style>.cls-1{fill:#e83876;}.cls-2{fill:#dd0162;}.cls-3{fill-rule:evenodd;}</style></defs><rect class="cls-1" x="85.04" y="85.04" width="341.92" height="341.92" transform="translate(-106.04 256) rotate(-45)"/><path class="cls-2" d="M256,0,0,256,256,512,512,256Zm0,14.22L497.78,256,256,497.78,14.22,256Z"/><path class="cls-3" d="M164.93,322.94l-17-16.88q30.21-29.88,60.51-59.81a216.28,216.28,0,0,1-19.83-25.72A203.15,203.15,0,0,1,173,191.91h8.67c4.58,0,9.16.09,13.75,0a2,2,0,0,1,2.12,1.28,170.33,170.33,0,0,0,16.81,26.52c3.13,4.11,6.47,8,9.85,12.21A187.81,187.81,0,0,0,262,168.07H131.1c-2.07,0-2.06,0-2.06-2.08,0-6.69,0-13.37,0-20,0-1.29.34-1.65,1.65-1.65q30.5,0,61,0h20.66V120.59H236.2v23.74h3.29l78.4,0c.9,0,1.74-.18,1.73,1.25-.06,7.3,0,14.6-.05,21.9,0,.14-.05.3-.1.63H284.73A209.09,209.09,0,0,1,240.52,246c5.49,5.68,10.88,11.31,16.36,16.88,4.22,4.27,8.51,8.46,12.82,12.63.71.68.49,1.24.24,1.92L261.52,300l-36.8-36.82-59.79,59.8"/><path class="cls-3" d="M260,358.66c1.73-4.66,3.39-9.11,5-13.54q6.68-17.81,13.34-35.62,6.09-16.22,12.2-32.43,7.58-20.2,15.12-40.41c2.5-6.66,5-13.32,7.55-20a1.73,1.73,0,0,1,1.3-.9c7.25-.07,14.49,0,21.74-.08,1.16,0,1.35.67,1.65,1.45q4.95,13.26,9.91,26.51,12.31,32.88,24.65,65.79,8.91,23.67,17.81,47.33c.2.52.34,1.05.57,1.75-.61.05-1.06.11-1.51.11-6.93,0-13.86,0-20.8,0a1.79,1.79,0,0,1-2-1.42c-4.07-11-8.23-22-12.3-33a1.7,1.7,0,0,0-1.9-1.31q-26.87,0-53.72,0c-1.22,0-1.66.47-2.05,1.53q-6.16,16.68-12.46,33.32a1.63,1.63,0,0,1-1.24.85c-7.54.05-15.1,0-22.92,0m65.48-111.13C319,264.86,312.62,281.9,306.23,299h38.56c-6.43-17.17-12.81-34.19-19.28-51.45"/></svg>