<svg id="Capa_1" data-name="Capa 1" xmlns="http://www.w3.org/2000/svg" viewBox="0 0 512 512"><defs><style>.cls-1{fill:#ded300;}.cls-2{fill:#b9870f;}.cls-3{fill:#fff;}.cls-3,.cls-4{fill-rule:evenodd;}</style></defs><rect class="cls-1" x="85.04" y="85.04" width="341.92" height="341.92" transform="translate(-106.04 256) rotate(-45)"/><path class="cls-2" d="M256,0,0,256,256,512,512,256Zm0,14.22L497.78,256,256,497.78,14.22,256Z"/><path class="cls-3" d="M326.28,250.85V157.08c0-9.09-4.58-13.69-13.69-13.69q-15.33,0-30.68,0-48.49,0-97,0c-4.43,0-8.29,1.11-11.13,4.78-2.14,2.79-2.42,6-2.42,9.38q0,93.27,0,186.54c0,9.14,4.73,13.89,13.85,13.89,42.39,0,84.78-.08,127.17.07,8.09,0,14-5.35,14-13.91-.27-31.09-.11-62.18-.11-93.27"/><path class="cls-4" d="M318.79,119.56c4.67,1.73,9.7,2.84,13.93,5.32,10.69,6.22,16.33,15.91,17.23,28.27.18,2.54.07,5.11.07,7.67q0,91.86,0,183.76c0,14-5.72,24.77-17.64,32.16-5.76,3.58-12.18,4.91-18.87,4.92H184.19c-10.86,0-20.11-3.78-27.47-11.86a36.44,36.44,0,0,1-8.61-17.52c-.15-.71-.37-1.41-.56-2.11V150.73a10.61,10.61,0,0,0,.49-1.33c2.25-11.35,8.14-20.17,18.53-25.5,3.79-2,8.09-2.93,12.16-4.34Zm7.49,131.29V157.08c0-9.09-4.58-13.69-13.69-13.69q-15.33,0-30.68,0-48.49,0-97,0c-4.43,0-8.29,1.11-11.13,4.78-2.14,2.79-2.42,6-2.42,9.38q0,93.27,0,186.54c0,9.14,4.73,13.89,13.85,13.89,42.39,0,84.78-.08,127.17.07,8.09,0,14-5.35,14-13.91-.27-31.09-.11-62.18-.11-93.27"/><path class="cls-3" d="M326.2,250.85V157.08c0-9.09-4.59-13.69-13.68-13.69q-15.33,0-30.69,0-48.48,0-97,0c-4.43,0-8.29,1.11-11.12,4.78-2.15,2.79-2.43,6-2.43,9.38V344.07c0,9.14,4.75,13.89,13.87,13.89,42.38,0,84.78-.08,127.16.07,8.1,0,14.05-5.35,14-13.91-.26-31.09-.11-62.18-.11-93.27"/><path class="cls-4" d="M254.48,277c4,16.15,8.76,30.95,15.59,45-5,2.67-35.07,2.88-42,.24a259.1,259.1,0,0,0,15.1-44.68c-3.92,2.57-7.38,4.82-10.83,7.07-13.83,9-32.35,5.06-41.5-5.4-8.4-9.58-10.68-20.85-7.2-33,4.19-14.54,13.59-25.9,23.73-36.65,11.71-12.4,24.72-23.34,38.33-33.59,2.4-1.82,4-1.71,6.24.21,10.63,9.05,21.61,17.69,32,27a122,122,0,0,1,25.34,31.17c7.32,13.11,8.85,26.64,1.1,40.17-3.68,6.43-9.45,10.51-16.47,12.94-13.37,4.65-25,1-35.55-7.45-1-.83-2.08-1.65-3.88-3.07"/></svg>