<svg id="Capa_1" data-name="Capa 1" xmlns="http://www.w3.org/2000/svg" viewBox="0 0 512 512"><defs><style>.cls-1{fill:#e83876;}.cls-2{fill:#dd0162;}.cls-3{fill:#1e1e1c;}</style></defs><rect class="cls-1" x="85.04" y="85.04" width="341.92" height="341.92" transform="translate(-106.04 256) rotate(-45)"/><path class="cls-2" d="M256,0,0,256,256,512,512,256Zm0,14.22L497.78,256,256,497.78,14.22,256Z"/><path class="cls-3" d="M319,308s-17.54,44.91-56.15,51.23S204.6,341,194.07,311.5s10.53-68.79,10.53-68.79l-14-9.82s-11.93-.7-11.93,40.7c0,3.22.1,6.51.3,9.84-10.48,10.83-38.59,36.56-40.3,3.5-2.1-40.7,17.26-63.17,26.18-70.89s36.93-18.91,43.31-2.1.69,23.15.69,23.15,6.32-1.4,6.32-11.22-1.41-26-28.07-29.48-66,15.45-71.59,71.6,14.05,51.23,28.78,45.62,34.38-19,34.38-19l1-3.5c4,37.08,21.39,75.58,60.1,78.6,44.92,3.5,64.57-25.27,75.81-41.41S319,308,319,308"/><path class="cls-3" d="M144.39,147.27s17.34-10.54,31.38,0,33.69,36.49,61.06,41.41,73-.71,88.43-37.91-4.22-33-14-30.88-60.35,59.65-62.46,97.56-19.64,107.53,1.4,99.38S293,278.51,293,268.69s-.7-26.67-9.12-26.67-46.16,20.35-46.16,20.35v-6s22.3-22.12,42.66-23.52,30.87,51.24-10.54,80.72-54,10.52-53.34-21.06S222.1,171.13,258.59,136,359,96,334.38,150.77s-63.17,64.57-101.07,49.13-56.14-44.21-64.56-45.61-39.58,4.2-24.36-7"/><path class="cls-3" d="M393.35,213.24S398.26,190,385.62,196s-47,15.15-51.94,73.41,22.47,49.12,38.61,35.79,22-21.76,22-21.76-10.76,42.11-48.66,37.89-39.31-58.95-25.27-96.14,49.13-44.93,65.27-41.42,24.57,28.08,7.73,29.48"/></svg>