<svg id="Capa_1" data-name="Capa 1" xmlns="http://www.w3.org/2000/svg" viewBox="0 0 512 512"><defs><style>.cls-1{fill:#e83876;}.cls-2{fill:#dd0162;}.cls-3{fill:#fff;}</style></defs><rect class="cls-1" x="85.04" y="85.04" width="341.92" height="341.92" transform="translate(-106.04 256) rotate(-45)"/><path class="cls-2" d="M256,0,0,256,256,512,512,256Zm0,14.22L497.78,256,256,497.78,14.22,256Z"/><path class="cls-3" d="M130.19,160V313.31s72.42-19.67,120.25,17.87V176.05S204.85,131.8,130.19,160"/><path class="cls-3" d="M381.18,157.73V312.85s-74.85-19.22-119.56,18.33c0-91.19-1.79-153.33-1.79-153.33s26.76-45.15,121.35-20.12"/><path d="M253.82,361.83l-3.15-3.26c-54.57-56.71-135.36-18.78-136.18-18.4L108.72,343v-170h8.06V330.46a167.27,167.27,0,0,1,44.55-10.6c36.43-3.42,68.19,7,92.15,30.13,5-4.93,16.14-14.48,33.9-21.64,21.58-8.71,57.3-15.35,106.47,1.16-.28-30.78.07-151.06.1-156.59l8,0c0,1.46-.44,147.18,0,162.14l.18,5.93-5.58-2C302,304.6,257.13,357.78,256.69,358.32Z"/></svg>