<svg id="Capa_1" data-name="Capa 1" xmlns="http://www.w3.org/2000/svg" viewBox="0 0 512 512"><defs><style>.cls-1{fill:#e83876;}.cls-2{fill:#dd0162;}.cls-3,.cls-4{fill-rule:evenodd;}.cls-4{fill:#f9e927;}</style></defs><rect class="cls-1" x="85.04" y="85.04" width="341.92" height="341.92" transform="translate(-106.04 256) rotate(-45)"/><path class="cls-2" d="M256,0,0,256,256,512,512,256Zm0,14.22L497.78,256,256,497.78,14.22,256Z"/><path class="cls-3" d="M309.22,82.55c5.44,2.48,10.51,4.79,16,7.29-2.32,4.86-4.51,9.51-6.74,14.12q-33.54,69-67.06,138c-4.39,9-8.67,18.13-13.1,27.13-1.63,3.3-2.91,3.47-6.82,1.66-2.86-1.31-2.85-3.18-1.72-5.77q27.15-62.22,54.2-124.51Q295.76,113.22,307.61,86c.44-1,.93-2,1.61-3.46"/><polygon class="cls-4" points="188.35 238.62 199.03 249.13 213.73 246.31 207.04 259.69 214.29 272.8 199.47 270.58 189.24 281.52 186.78 266.75 173.21 260.4 186.5 253.48 188.35 238.62"/><polygon class="cls-4" points="208.89 191.71 219.57 202.21 234.27 199.38 227.59 212.78 234.82 225.9 220 223.67 209.77 234.6 207.32 219.84 193.75 213.49 207.04 206.57 208.89 191.71"/><polygon class="cls-4" points="301.22 229.97 299.18 248.45 313.23 260.63 295.02 264.39 287.79 281.52 278.59 265.36 260.06 263.78 272.58 250.03 268.35 231.93 285.3 239.59 301.22 229.97"/><path class="cls-3" d="M331.46,303.29c-21-17-49.89-21.34-77.89-20.14h-.49c-22.93-.59-45.6,1.31-67.63,8.1-8.75,2.69-17,6.36-24.32,12.05-9.23,7.19-10.4,22.89-.24,30.52,2.14,1.61,4.2,3.54,6.62,4.6,8,3.49,16.12,6.65,24.84,10.19,0,1.23,0,3.13,0,5-.39,19.66-.7,39.33-1.25,59-.12,4.64,1.47,8.37,5.14,10.72,4.88,3.11,9.93,6.31,15.35,8.17,23.41,8.09,47.21,7.91,71,1.87,7.34-1.86,14.27-4.83,19.62-10.56,2.63-2.84,4.28-6,3.71-10-.45-3.11-.53-6.26-.78-9.4-1.48-17.81-2.9-35.62-4.5-53.41-.23-2.43.43-3.32,2.72-4,10.46-3,20.56-6.88,28.19-15,9.88-10.55,9.41-20.28-.13-27.69m-87,14.56c-39.51,0-71.55-5-71.55-11.08s32-11.09,71.55-11.09,71.54,5,71.54,11.09-32,11.08-71.54,11.08"/></svg>