<svg id="Capa_1" data-name="Capa 1" xmlns="http://www.w3.org/2000/svg" viewBox="0 0 512 512"><defs><style>.cls-1{fill:#e83876;}.cls-2{fill:#dd0162;}.cls-3{fill-rule:evenodd;}</style></defs><rect class="cls-1" x="85.04" y="85.04" width="341.92" height="341.92" transform="translate(-106.04 256) rotate(-45)"/><path class="cls-2" d="M256,0,0,256,256,512,512,256Zm0,14.22L497.78,256,256,497.78,14.22,256Z"/><path class="cls-3" d="M317.81,239.67c-.91,20-9.09,35.51-25.79,45.51-18.66,11.18-38,10.94-56.37-.69-16-10.13-23.9-25.31-24.65-44.82h17.42c2.87,0,5.73,0,8.59,0,6,0,10.24-3.66,10.19-8.84S243,222,236.91,222c-7,0-14,0-21.06.05h-4.56v-17.8c8.22,0,16.24,0,24.26,0a20.57,20.57,0,0,0,5-.49,8.38,8.38,0,0,0,6.48-9.32,8.51,8.51,0,0,0-8.32-7.79c-7.67-.16-15.34-.08-23-.1h-4.45v-17.9h12.49c4.94,0,9.89.11,14.82,0a8.69,8.69,0,0,0,8.5-8.07,8.16,8.16,0,0,0-6.81-9,79.08,79.08,0,0,0-11.64-.55c-5.68-.07-11.39,0-17.59,0,.62-18.43,7.82-33.14,22.59-43.37,18-12.49,37.45-13.62,56.65-3.05,17.74,9.76,26.46,25.6,27.55,46.45h-8.47c-6,0-12-.09-17.94,0s-9.8,3.72-9.79,8.89,4,8.72,9.84,8.76c8.56,0,17.11,0,26.25,0,0,5.66.11,10.94-.15,16.21,0,.62-2.05,1.59-3.16,1.61-7.54.16-15.09.08-22.62.13-6.21,0-10.12,3.49-10.16,8.83s4,8.81,10.23,8.85c7.93.06,15.86,0,23.79,0a12.37,12.37,0,0,1,1.8.32V222h-23.4a33,33,0,0,0-4.67.12,9,9,0,0,0-7.81,9.22,8.9,8.9,0,0,0,8.77,8.26c6.75.13,13.52,0,20.29,0Z"/><path class="cls-3" d="M255.22,346.54c.08-1.78.19-3.05.2-4.33,0-4.53,0-9.06,0-12.93-9-2.69-17.84-4.52-26-7.87C196.69,308,174.71,275.11,174.46,240c0-6,3.67-10.28,8.86-10.26,5,0,8.71,4.12,8.87,9.9.92,32.08,20.77,58.48,51.23,68.1,40.2,12.67,83.83-13.42,91.59-54.86a117,117,0,0,0,1.52-13.51c.37-5.63,4.19-9.81,9.16-9.62s8.77,4.21,8.58,9.71c-1.28,35.77-17.81,62.17-49.13,79.35-9.69,5.3-20.24,7.94-31.45,9.48v18.32c3.39,0,6.85-.07,10.3,0,22.81.44,42.38,20.21,42.54,42.94.06,6.62-3.35,10.13-10,10.13-33.94,0-67.89-.18-101.83.13-10.59.11-13.65-5-12.25-14.42,3.42-23.14,21.52-38.69,44.94-38.84,2.46,0,4.92,0,7.84,0"/></svg>