<svg id="Capa_1" data-name="Capa 1" xmlns="http://www.w3.org/2000/svg" viewBox="0 0 512 512"><defs><style>.cls-1{fill:#ded300;}.cls-2{fill:#b9870f;}.cls-3{fill-rule:evenodd;}.cls-4{fill:#1d1515;}</style></defs><rect class="cls-1" x="85.04" y="85.04" width="341.92" height="341.92" transform="translate(-106.04 256) rotate(-45)"/><path class="cls-2" d="M256,0,0,256,256,512,512,256Zm0,14.22L497.78,256,256,497.78,14.22,256Z"/><path class="cls-3" d="M164.7,118.72c-13.39.2-23.77,12.27-23.6,27.44.19,14.77,11,26.48,24.37,26.28,12.81-.18,23.36-12.57,23.16-27.16-.2-14.87-10.9-26.75-23.93-26.56"/><path class="cls-4" d="M150.4,181.61S133,191.06,128,218.52s-.53,94,25.78,111.84,66.32,25.55,66.32,25.55l62.44,58.64s13.52,9,3.43-16.24-40.13-69.37-40.13-69.37l-48.65-18,39.71-20.16L313.31,327s17.6.62-8.39-18.73-53.07-48.19-53.07-48.19L199.78,273s-15.09,13-12-12.56a468.6,468.6,0,0,0,3.15-47.91l35.51-14.88,35.87-49.5s5.15-18.19-11.66-5.54-36.2,27.85-36.2,27.85Z"/><polygon class="cls-4" points="317.27 70.28 259.03 152.67 316.98 229.05 291.02 264.45 324.92 363.35 258.5 433.4 277.69 480.64 287.45 424.08 342.25 361.6 317.75 269.31 343.94 225.48 286.1 152.38 317.27 70.28"/><polygon class="cls-3" points="315.55 72.71 500.12 253.39 277.69 480.63 274.67 433.34 331.3 360.52 310.06 265.2 330.29 237.3 295.9 190.61 270.61 152.18 315.55 72.71"/></svg>