<svg id="Capa_1" data-name="Capa 1" xmlns="http://www.w3.org/2000/svg" viewBox="0 0 512 512"><defs><style>.cls-1{fill:#ded300;}.cls-1,.cls-3,.cls-4{fill-rule:evenodd;}.cls-2{fill:#ba870e;}.cls-4{fill:#2e98d5;}</style></defs><polygon class="cls-1" points="258.72 505.64 5.98 258.26 253.36 5.51 506.1 252.9 258.72 505.64"/><path class="cls-2" d="M258.74,512l-3-2.94L0,258.74l3-3L253.26,0l3,2.94L512,253.26l-2.94,3ZM11.88,258.62,258.6,500.12,500.13,253.39,253.4,11.88Z"/><path class="cls-3" d="M166,267.48c.94-1,1.71-1.88,2.51-2.74l-4.2-1.33,76.87-46.58c-4.92-11.14-9.48-21.88-14.4-32.43-2.82-6.07-7.7-7-13.77-4.64-19.74,7.53-39.5,15-59.37,22.18a61.18,61.18,0,0,1-15.84,3.48c-2.41.17-6.36-1.85-7.18-3.86-1-2.42-.29-6.57,1.33-8.75a29.29,29.29,0,0,1,9.57-8.07q39.81-21.24,79.9-42c10.26-5.28,16.47-3.5,22.77,6.37q27.09,42.5,53.72,85.27a18.25,18.25,0,0,1,3,8.23c.09,1.54-2.19,4.29-3.83,4.68-27.51,6.52-55,12.94-82.65,19-14,3.05-28,7.41-42.68,3.76a27.21,27.21,0,0,1-3.52-1.13,16.24,16.24,0,0,1-2.21-1.42"/><path class="cls-4" d="M421.46,305.3c-37.86-4.9-74.61-9-111.3-3.6-16.52,2.42-32.35,9.33-48.61,13.77-34.26,9.35-69,13.13-104,5.11-29-6.67-50.88-23.94-67-51.07a45.46,45.46,0,0,1,5,2.17c38.92,23.94,81.33,30.16,125.6,22.52,28.58-4.93,56.59-13.06,85-18.86,41.26-8.44,78.29,2.14,111.74,26.88,1,.71,1.84,1.58,3.54,3.08"/><path class="cls-3" d="M383.27,196.12c.25,20.49-14.91,36.37-35,36.66-20.48.29-36.7-14.93-37-34.75-.33-20.49,15.43-37,35.5-37.29a35.83,35.83,0,0,1,36.54,35.38"/></svg>