<svg id="Capa_1" data-name="Capa 1" xmlns="http://www.w3.org/2000/svg" viewBox="0 0 512 512"><defs><style>.cls-1{fill:#e83876;}.cls-2{fill:#dd0162;}.cls-3,.cls-4{fill-rule:evenodd;}.cls-4{fill:#fff;}</style></defs><rect class="cls-1" x="85.04" y="85.04" width="341.92" height="341.92" transform="translate(-106.04 256) rotate(-45)"/><path class="cls-2" d="M256,0,0,256,256,512,512,256Zm0,14.22L497.78,256,256,497.78,14.22,256Z"/><path class="cls-3" d="M249.9,144.87c26.41,0,52.8-.08,79.19,0,11,.05,19.22,5.26,24.53,14.9a24.94,24.94,0,0,1,3,12.14q0,79.76,0,159.52a27.34,27.34,0,0,1-24.09,26.83,29.78,29.78,0,0,1-3.76.24q-79,0-157.93,0a27.45,27.45,0,0,1-27.48-22.89A24.67,24.67,0,0,1,143,331q0-79.33,0-158.65a27.36,27.36,0,0,1,24.1-27.25,37.36,37.36,0,0,1,4.36-.25H249.9m54.57,190.39H306c7.43,0,14.85,0,22.27.06a12.51,12.51,0,0,0,6.89-1.94,27.36,27.36,0,0,0,10.05-11.6,17.56,17.56,0,0,0,2.1-7.79q0-67.37,0-134.76c0-2.42,0-4.84,0-7.28a17.64,17.64,0,0,0-15.43-17.44c-4.6-.5-9.29-.21-13.94-.27-.08,0-.17.1-.35.22V256c0,4-1.71,5.63-5.7,5.62h-7.44Zm-109.3,0V261.58h-7.38c-4.07,0-5.73-1.64-5.73-5.72q0-49.77,0-99.54v-2.11h-11.2c-10.68,0-18.52,7.86-18.52,18.58q0,70.35,0,140.71a11.1,11.1,0,0,0,.14,2.16,27.63,27.63,0,0,0,10,16.27,13.76,13.76,0,0,0,9.77,3.41c2.91-.15,5.82,0,8.73,0h14.24m71.2-181V255.72c0,4.29-1.6,5.87-5.88,5.86h-7.22V335.2h44.4V261.74a1.49,1.49,0,0,0-.38-.12c-2.37,0-4.75,0-7.13,0-4,0-5.62-1.64-5.62-5.66V154.27ZM202,335.17h44.4V261.58H238.7c-3.65,0-5.4-1.74-5.4-5.45V154.29H215.13v2.1q0,49.92,0,99.85c0,3.58-1.79,5.34-5.37,5.34H202Z"/><path class="cls-4" d="M304.47,335.26V261.58h7.44c4,0,5.7-1.66,5.7-5.62q0-49.77,0-99.54v-1.95c.18-.12.26-.22.34-.22,4.65.06,9.34-.23,13.94.27A17.63,17.63,0,0,1,347.34,172c0,2.43,0,4.85,0,7.28q0,67.38,0,134.76a17.47,17.47,0,0,1-2.1,7.79,27.42,27.42,0,0,1-10.05,11.6,12.55,12.55,0,0,1-6.87,1.94c-7.43-.07-14.86-.06-22.28-.07h-1.58"/><path class="cls-4" d="M195.17,335.29H180.94c-2.92,0-5.83-.1-8.73,0a13.75,13.75,0,0,1-9.77-3.41,27.59,27.59,0,0,1-9.95-16.27,10.42,10.42,0,0,1-.15-2.16q0-70.37,0-140.72c0-10.71,7.84-18.56,18.52-18.57,3.68,0,7.35,0,11.22,0V255.86c0,4.08,1.66,5.73,5.72,5.72h7.38Z"/><path class="cls-4" d="M266.37,154.27h18.17v2q0,49.83,0,99.69c0,4,1.64,5.66,5.62,5.66l7.13,0a1.35,1.35,0,0,1,.37.12V335.2h-44.4V261.58h7.22c4.28,0,5.88-1.57,5.88-5.86V154.27Z"/><path class="cls-4" d="M202,335.17V261.59h7.76c3.58,0,5.37-1.76,5.37-5.34q0-49.92,0-99.85v-2.1H233.3V256.13c0,3.71,1.75,5.45,5.4,5.45h7.69v73.59Z"/></svg>