<svg id="Capa_1" data-name="Capa 1" xmlns="http://www.w3.org/2000/svg" viewBox="0 0 512 512"><defs><style>.cls-1{fill:#e83876;}.cls-2{fill:#dd0162;}.cls-3,.cls-4{fill-rule:evenodd;}.cls-4{fill:#fff;}</style></defs><rect class="cls-1" x="85.04" y="85.04" width="341.92" height="341.92" transform="translate(-106.04 256) rotate(-45)"/><path class="cls-2" d="M256,0,0,256,256,512,512,256Zm0,14.22L497.78,256,256,497.78,14.22,256Z"/><path class="cls-3" d="M214,223c1.27-2.23,2.5-4.36,3.72-6.5Q231.81,191.71,246,167c.77-1.35,1.56-2.69,2.3-4.05a4.14,4.14,0,0,1,3-2.19q18.78-3.64,37.59-7.34L331.66,145l3.74-.71a3.71,3.71,0,0,1,4,5.44c-1.61,3-3.26,6.08-4.89,9.11q-12.12,22.5-24.22,45Q298.4,226,286.47,248.21q-5.49,10.18-11,20.38a1.48,1.48,0,0,0,0,1.47q10.62,23.43,21.19,46.87,8.13,18,16.26,36,2.14,4.76,4.31,9.49a3.73,3.73,0,0,1-5.47,4.7c-3.63-2.35-7.25-4.73-10.9-7.11L268.26,338.7l-58.48-38.23q-12.93-8.46-25.86-16.91a4.55,4.55,0,0,1-2.06-2.9q-4.63-19.43-9.31-38.84-3.45-14.34-6.89-28.7c0-.19-.1-.36-.18-.64-.51.21-1,.39-1.46.6l-34.26,14.54a4.09,4.09,0,0,1-4,0,3.73,3.73,0,0,1-1-5.45l6.66-9.63q13-18.77,26-37.53c1.72-2.47,4.17-2.73,6.31-.65l18.49,17.9,18.6,18,12.39,12c.23.22.45.42.78.7m36-47.58-.19,0q-28.59,50-57.23,100.21L266.63,266q-8.38-45.39-16.71-90.59m22.75,82.4a.63.63,0,0,0,.19,0l56.35-104.75c-24.49,4.79-48.81,9.54-73.22,14.33q8.36,45.27,16.68,90.39m-76.34,24.77a1.42,1.42,0,0,0-.08.18L304.94,353.8a1.28,1.28,0,0,0-.12-.71q-6.19-13.72-12.42-27.48L275.87,289c-2.24-5-4.5-9.95-6.72-14.94-.29-.67-.6-.94-1.38-.78-1,.22-2.08.27-3.13.4l-19.45,2.54-23.87,3.07-19.74,2.55c-1.75.22-3.51.46-5.25.7m-28.78-94.08-.13.08c6.5,27.14,13,54.28,19.57,81.61.28-.49.45-.75.62-1.05,2.38-4.17,4.78-8.36,7.16-12.55q7.5-13.11,15-26.26a.76.76,0,0,0-.14-1.14c-1.84-1.72-3.64-3.49-5.43-5.24L189.6,209.77l-20.2-19.55c-.61-.59-1.24-1.17-1.85-1.75m-29.43,27.45c.38-.12.56-.16.72-.23q12.14-5.16,24.27-10.28c.56-.24.61-.51.48-1-1.12-4.58-2.19-9.17-3.3-13.75-.38-1.6-.78-3.19-1.2-5l-21,30.27"/><path class="cls-4" d="M249.92,175.38q8.34,45.24,16.71,90.59l-74.13,9.58q28.69-50.27,57.23-100.21l.19,0"/><path class="cls-4" d="M272.67,257.79Q264.35,212.64,256,167.4c24.4-4.79,48.72-9.54,73.22-14.34Q301,205.61,272.86,257.82l-.19,0"/><path class="cls-4" d="M196.32,282.55l5.26-.7,19.74-2.54,23.87-3.08,19.44-2.53c1.05-.14,2.11-.19,3.13-.4.78-.17,1.09.1,1.39.77q3.33,7.49,6.72,14.94l16.52,36.6,12.43,27.49a1.17,1.17,0,0,1,.11.7L196.24,282.73l.08-.18"/><path class="cls-4" d="M167.55,188.47l1.84,1.75q10.13,9.78,20.2,19.55l14.62,14.15c1.8,1.75,3.6,3.52,5.43,5.23a.77.77,0,0,1,.14,1.15q-7.51,13.13-15,26.26-3.59,6.29-7.17,12.55c-.16.3-.33.56-.62,1.05-6.56-27.33-13-54.47-19.57-81.61l.14-.08"/><path class="cls-4" d="M138.12,215.92l21-30.27c.42,1.78.82,3.37,1.2,5,1.11,4.58,2.18,9.17,3.3,13.75.13.53.08.8-.48,1q-12.13,5.11-24.27,10.28c-.16.07-.34.11-.72.23"/></svg>