<svg id="Capa_1" data-name="Capa 1" xmlns="http://www.w3.org/2000/svg" viewBox="0 0 512 512"><defs><style>.cls-1{fill:#ded300;}.cls-2{fill:#ba870e;}.cls-3,.cls-4{fill:#cd1417;}.cls-3,.cls-5,.cls-6{fill-rule:evenodd;}.cls-5{fill:#1c1514;}</style></defs><rect class="cls-1" x="79.2" y="78.75" width="353.66" height="353.66" transform="translate(-105.71 259.78) rotate(-45.61)"/><path class="cls-2" d="M258.74,512l-3-2.94L0,258.75l2.94-3L253.26,0l3,2.94L512,253.26l-2.95,3ZM11.87,258.62,258.6,500.12,500.12,253.39,253.39,11.88Z"/><polygon class="cls-3" points="106.84 304 63.07 304 17.5 258.61 106.84 258.61 106.84 304"/><rect class="cls-4" x="114.07" y="258.61" width="97.35" height="45.39"/><rect class="cls-4" x="220.28" y="258.61" width="97.36" height="45.39"/><rect class="cls-4" x="322.38" y="258.61" width="97.36" height="45.39"/><polygon class="cls-3" points="445.19 304 427.44 304 427.44 258.61 488.86 258.61 445.19 304"/><polygon class="cls-3" points="157.34 354.8 115.89 354.8 71.14 309.4 157.34 309.4 157.34 354.8"/><rect class="cls-4" x="164.56" y="309.4" width="97.35" height="45.39"/><rect class="cls-4" x="270.77" y="309.4" width="97.36" height="45.39"/><polygon class="cls-3" points="393.45 354.8 372.88 354.8 372.88 309.4 436.66 309.4 393.45 354.8"/><polygon class="cls-3" points="213.24 407.02 168.46 407.02 123.83 361.62 213.24 361.62 213.24 407.02"/><rect class="cls-4" x="220.28" y="361.62" width="97.36" height="45.39"/><polygon class="cls-3" points="342.66 407.02 324.19 407.02 324.19 361.62 387.28 361.62 342.66 407.02"/><polygon class="cls-3" points="177.23 417.63 201.67 417.63 201.67 442.05 177.23 417.63"/><polygon class="cls-3" points="332.8 417.63 306.05 417.63 306.05 448.45 332.8 417.63"/><polygon class="cls-3" points="303.67 449.63 303.67 417.63 206.32 417.63 206.32 445.13 224.75 463.03 289.69 463.03 303.67 449.63"/><polygon class="cls-3" points="229.45 468.39 285.94 468.39 257.69 495.45 229.45 468.39"/><path class="cls-5" d="M331.81,174.55c16.81-4.78,30.74-26.62,28-43.89-2.08-13-12.27-18.85-24.48-14.14-16.33,6.3-28.19,26.24-25.89,43.55,1.56,11.7,10.9,17.74,22.41,14.48"/><path class="cls-6" d="M351.58,239c-12.23-14.73-18.72-32.23-23.72-50.33-1.54-5.54-2.64-9.95-9.69-11.14-3.39-.58-6.63-4.59-9-7.75-2.14-2.83-3-6.61-4-8.9-10.91-1.94-21.43-2.83-31.31-5.8-17.87-5.36-26-18.87-23.48-37.35.87-6.33,2.85-12.51,4.33-18.74-4.23,7.23-8.06,14.76-10.11,22.73-4.91,19,1.74,34.81,18.9,44.4,7.63,4.26,16.27,6.7,24.47,9.9,1.77.7,3.64,1.15,5.94,1.85-6.59,9.17-15.93,10.59-25,12.19h0s-3.26-.34-7-.77c-8.4-9.09-17.92-16.94-29.5-22.21-13.56-6.16-24.9-3.9-35.11,7-14.74,15.69-19.84,35.89-24.71,56.35a69.43,69.43,0,0,1,4.29-5.62c7.85-8.55,15.21-17.68,23.87-25.34,9.7-8.58,20.14-9.91,27.16,5.68.12.25.26.49.37.73-14.34.18-27.58,5.37-39.46,17.24-9.41,9.4-15.86,20.62-20.68,32.69l0,0s-.34.85-.81,2.08c-.05.12-.09.25-.14.37-.52,1.37-1.15,3.11-1.75,4.87-.06.18-.13.36-.19.53h0a31.19,31.19,0,0,0-1.31,5.07c-.39,3.56,2.2,3.8,9.24-3.34a117.12,117.12,0,0,0,7.77-8.78l.15,0c1.49-1.59,3-3.07,4.55-4.5l.06-.06a70.33,70.33,0,0,1,19.24-12.83c12.68-1.42,24.94-3,36.86-5.52l-.05,0s17.16-1.78,28.3-8.14l.56-.2-.08-.07a25,25,0,0,0,4.61-3.38c9.85-9.38,19.22-14.24,27.4-13.41,7.11.72,14.47,3.13,18.08,5.15,1.19,2.25,2.13,5.15,3.23,7.38,5.71,11.52,12.57,22.18,22.77,30.24a61.65,61.65,0,0,0,21.65,11.21,69.45,69.45,0,0,0,15.57-4.77c-12.5-1.24-23.15-7.74-32.26-18.72"/></svg>