<svg id="Capa_1" data-name="Capa 1" xmlns="http://www.w3.org/2000/svg" viewBox="0 0 512 512"><defs><style>.cls-1{fill:#ded300;fill-rule:evenodd;}.cls-2{fill:#ba870e;}.cls-3{fill:#cd1417;}</style></defs><polygon class="cls-1" points="258.71 505.64 5.96 258.26 253.35 5.51 506.09 252.9 258.71 505.64"/><path class="cls-2" d="M258.74,512l-3-2.94L0,258.74l2.94-3L253.26,0l3,2.94L512,253.26l-2.95,3ZM11.87,258.62,258.6,500.12,500.13,253.39,253.39,11.88Z"/><path d="M286.16,179.31s-56.39,6.56-52.55,30.11,3.82,19.16,3.82,19.16L140,334.79l6,7.67,112.56-92s28.69,15.33,31.42,35.59,3.85,69,3.85,69h4.37s11.5-62.4,8.76-81-35-48.73-35-48.73-15.88-15.33,14.77-17,84.87,9.85,74.46-3.83-107.3-60.23-107.3-60.23l-25.73-12Z"/><path d="M413.88,205c0,11-10.78,20-24.09,20s-24.08-8.94-24.08-20,10.78-20,24.08-20,24.09,9,24.09,20"/><polygon class="cls-3" points="153.16 373.77 120.85 349.32 126.8 341.46 159.1 365.91 153.16 373.77"/><polygon class="cls-3" points="330.27 378.45 289.76 378.92 289.64 369.07 330.16 368.61 330.27 378.45"/></svg>