<svg id="Capa_1" data-name="Capa 1" xmlns="http://www.w3.org/2000/svg" viewBox="0 0 512 512"><defs><style>.cls-1{fill:#ded300;}.cls-2{fill:#ba870e;}.cls-3{fill:#1c1514;fill-rule:evenodd;}</style></defs><rect class="cls-1" x="79.22" y="78.75" width="353.66" height="353.66" transform="translate(-105.7 259.78) rotate(-45.61)"/><path class="cls-2" d="M258.74,512l-3-2.94L0,258.74l3-3L253.26,0l3,2.94L512,253.26l-2.94,3ZM11.88,258.61,258.61,500.12,500.13,253.39,253.39,11.88Z"/><path class="cls-3" d="M275.15,222.69c18,5,42.92-7.2,50-24.52,5.3-13-.72-24-14.49-26.55-18.44-3.34-40.38,8.27-47.91,25.35-5.1,11.55.08,22.29,12.4,25.72"/><path d="M251.31,275.15s19-.68,29.12-6.76,9.47-12.87,3.39-17.61-31.15-32.51-34.54-40.63-1.36-27.77,16.93-39.28S357,121.45,357,121.45s-92.77,2-150.32,97.5S168,396.37,168,396.37l44.7-109.7s7.45-12.87,16.93,3.38,69.74,111.72,69.74,111.72l-42-110.37Zm-16.26-24.37c-3.37-14.22,12.2-21,12.2-21,15.57,9.48,33.18,24.37,23,29.11s-31.84,6.09-35.23-8.12"/></svg>