<svg id="Capa_1" data-name="Capa 1" xmlns="http://www.w3.org/2000/svg" viewBox="0 0 512 512"><defs><style>.cls-1{fill:#ded300;}.cls-1,.cls-3{fill-rule:evenodd;}.cls-2{fill:#ba870e;}</style></defs><polygon class="cls-1" points="258.71 505.63 5.97 258.25 253.37 5.51 506.1 252.89 258.71 505.63"/><path class="cls-2" d="M258.74,512l-3-2.93L0,258.75l2.94-3L253.26,0l3,2.94L512,253.26l-2.94,3ZM11.87,258.62,258.6,500.12,500.12,253.39,253.39,11.88Z"/><path class="cls-3" d="M345,121.4c-1.81,5.43-2.55,11.56-5.6,16.15a429.62,429.62,0,0,1-27,37c-10.69,12.87-22.63,24.71-33.87,37.13a59.94,59.94,0,0,0-8.32,11c-3.72,6.79-1.3,11.58,6.37,13.47,2.31.56,4.81.22,7.17.57,4.76.7,9.78.83,14.15,2.56,7,2.77,8.92,8.6,4.57,14.7s-9.35,12-15.3,16.35c-15.58,11.27-31.82,21.62-48.53,31.34,11.82-14.52,28-25,36.45-42-.45-.84-.89-1.66-1.32-2.49-4.62,1.3-9.62,1.85-13.77,4-26.59,14-53.15,28.08-79.38,42.74-16.68,9.33-32.77,19.71-49.12,29.63l-1.56-1.27c3.1-4,5.58-8.74,9.41-11.82q30.32-24.4,61.27-48c8.86-6.75,18.87-12,27.66-18.86a79.61,79.61,0,0,0,16.5-17c2.74-4,2.53-10,4-16.45-40.48,13.1-76.36,34.09-118.43,30.16,38-9.87,75.14-21.2,106.26-47,1.19,1.39,2.15,2.43,3,3.53,11.89,14.91,28.8,13.85,38.79-2.49,1.4-2.26,3.17-4.7,3.38-7.18.91-10.66,8.59-16.34,15.17-23.4,13.72-14.72,26.43-30.38,39.5-45.7,2.1-2.47,4-5.14,5.95-7.73.85.4,1.72.79,2.59,1.18"/><path class="cls-3" d="M237.15,180.13c0-9.75,2.21-18.77,9.29-25.9,7.53-7.61,17.7-7.09,24.74,1,11,12.62,11.07,37.3.22,49.95-7.47,8.7-18,8.95-25.79.45-6.59-7.21-8.51-16-8.46-25.51"/><path class="cls-3" d="M173.66,369.23c15.86.09,29.36-5.92,42.81-13.15,39.93-21.48,80.21-42.31,120.35-63.39a22.52,22.52,0,0,1,2.65-1.21c5.95-2.07,16.38-.32,17.49,3.35,2,6.48-3.32,9.66-7.2,13a129.66,129.66,0,0,1-14,10.38c-5.22,3.41-9.46,7.15-17.25,2.46-9-5.46-20.79,2.86-21.08,13.75-.13,4.62-1.65,6.91-5.58,8.84-16.3,8.06-32.49,16.34-48.68,24.62-3.47,1.76-6,2-9.72-.67-9.69-7.06-22.12-2-24.73,9.91-.84,3.77-2.16,5.5-5.7,6-5.51.79-11,2.21-16.48,2.35-11.09.29-14.57-4.14-12.85-16.29"/><path class="cls-3" d="M324.91,335.61c-.16,6.46-6.05,12-12.33,11.62-6-.36-11.21-6.07-11.07-12.16a11.7,11.7,0,1,1,23.4.54"/><path class="cls-3" d="M224.6,391.78a11.63,11.63,0,0,1-12-11.73c.05-6.07,5.51-11.71,11.45-11.83a12,12,0,0,1,12,12,11.56,11.56,0,0,1-11.38,11.59"/></svg>