<svg id="Capa_1" data-name="Capa 1" xmlns="http://www.w3.org/2000/svg" viewBox="0 0 512 512"><defs><style>.cls-1{fill:#ded300;}.cls-1,.cls-3{fill-rule:evenodd;}.cls-2{fill:#ba870e;}.cls-4{fill:#2e98d5;}</style></defs><polygon class="cls-1" points="258.72 505.64 5.98 258.26 253.37 5.51 506.1 252.9 258.72 505.64"/><path class="cls-2" d="M258.74,512l-3-2.94L0,258.74l3-3L253.26,0l3,2.93L512,253.26l-2.94,3ZM11.88,258.62,258.6,500.12,500.13,253.39,253.4,11.88Z"/><path class="cls-3" d="M277.23,133.52a22,22,0,0,1-6,15.84c-5.12,5.45-12,5.66-17.6.64-9-8-9-26.57-.08-34.68,5.16-4.67,11.91-4.66,17,0,4.27,3.89,6.59,9.88,6.64,18.17"/><path class="cls-4" d="M148.25,230.25s-25.88,9.7-28,37.18,20.47,28,20.47,28,37.12-5.56,45.63-4.48,19.41-10.06,19.41-10.06-56.95-4-63.78-22.1c-7-18.67,1.44-23.17,6.3-28.56"/><path class="cls-4" d="M98.3,265.28s-30.54,14-19,48.14,52.81,37.73,68.63,38.44,80.11-18,143.7-8.27,79.4,24.8,79.4,24.8-7.54-31.26-48.5-40.6-112.82-14.37-152.69-2.87-57.13.71-64-16.89-9.34-30.18-7.54-42.75"/><path class="cls-2" d="M140.69,307s1.81-12.22,35.21-11.5,89.11-1.08,126.47,3.23,81.56,11.86,81.19,21.93-35.93,12.21-72.93,9.69S135.22,329.4,140.69,307"/><path d="M244.89,162.34S197.82,175.27,185.43,192s-2.7,11.32,25.86,0,32.63-14,34,14.56c2,42.39-10.78,55.5-10.78,55.5s-31.25,23.71-41,38.27,10.42,9,33.59-9.35,20.31-10.57,37.61-43.08C271.35,235.39,304,261.5,304,261.5L292.13,316s23.71,3.74,31.26-50.68c2.26-16.32-7.44-21.87-11.86-27.85-9.65-13.06-33.41-14.73-33.41-29.82s0-28.57,10.78-25.33,43.64,17.79,51.74,25.33,14.54,2.16,0-12.4-50.85-30.9-50.85-30.9-23.35-14.36-44.9-2"/></svg>