<svg id="Capa_1" data-name="Capa 1" xmlns="http://www.w3.org/2000/svg" viewBox="0 0 512 512"><defs><style>.cls-1{fill:#ded300;}.cls-2{fill:#b9870f;}.cls-3{fill:#1e1e1c;}.cls-3,.cls-4{fill-rule:evenodd;}.cls-4{fill:#fff;}</style></defs><rect class="cls-1" x="85.04" y="85.04" width="341.92" height="341.92" transform="translate(-106.04 256) rotate(-45)"/><path class="cls-2" d="M256,0,0,256,256,512,512,256Zm0,14.22L497.78,256,256,497.78,14.22,256Z"/><path class="cls-3" d="M282.18,272.9c-16.22,7.26-32.45,7.53-48.71,1,4.29,7.52,8.66,14.62,12.47,22a68.57,68.57,0,0,1,7.72,28,9.32,9.32,0,0,1-.56,4.22,4.39,4.39,0,0,1-5.11,2.38,4.24,4.24,0,0,1-3.83-4.12c-1.08-22.44-13-39.8-26.66-56.22-6.16-7.41-13.18-14.11-19.61-21.31-16.61-18.6-25.8-40.41-26.84-65.33-.87-21.18,2.39-41.68,12.83-60.47C199.08,95.74,222.63,82,253.74,81c16.61-.49,32.16,3.27,46.3,12.31,16.64,10.65,27.46,25.86,33.86,44.2,7.3,21,9.41,42.58,4.61,64.5a101.13,101.13,0,0,1-21.3,43.81c-6.44,7.71-13.39,15-19.57,22.91-11.36,14.56-20.95,30.13-23.84,48.87-.37,2.46-.37,5-.5,7.49-.15,3.21-2.11,5.25-5,5.17-2.75-.09-4.58-2.07-4.61-5.23-.11-11.65,3.1-22.54,8.13-32.89,3.1-6.41,6.74-12.55,10.38-19.28m21.54-26.35a94.78,94.78,0,0,0,23.85-40.62c6.05-20.91,4.56-41.72-1.69-62.25-5.41-17.71-15.22-32.47-31.18-42.48-15-9.44-31.6-12-49-10-21.26,2.53-38.05,12.6-50,30.44-7.91,11.77-12,25-13.95,38.88-2.37,16.8-1.77,33.45,4,49.49,7.42,20.7,20.24,37.47,39,49.2,15.25,9.55,31.66,12.45,49.07,6.8,12-3.9,21.95-11.14,29.89-19.49"/><path class="cls-3" d="M278.32,429.08c-1.7.52-3.21,1.35-4.74,1.4-8.57.29-17.16.43-25.74.52-3.77,0-5.86-2.12-6.11-5.89-.46-6.89-.37-13.62,3.67-19.76a10.79,10.79,0,0,0,1.22-5.79c-.24-17.86-.62-35.71-1-53.57-.08-4.27,2-6.5,6.2-6.62,4.64-.14,9.26-.2,13.9-.27s6.66,1.88,6.76,6.66c.32,16.69.69,33.38.89,50.09,0,4.15.47,8,2.9,11.54a18.12,18.12,0,0,1,3,12.09c-.13,1.63.18,3.29,0,4.92a42.67,42.67,0,0,1-1.05,4.68"/><path class="cls-4" d="M303.72,246.55c-7.94,8.35-17.86,15.59-29.88,19.49-17.42,5.65-33.82,2.75-49.08-6.79-18.79-11.74-31.59-28.5-39-49.21-5.76-16-6.36-32.69-4-49.49,2-13.92,6-27.11,13.94-38.88,12-17.83,28.77-27.91,50-30.44,17.38-2.07,34,.53,49,10,15.95,10,25.77,24.78,31.17,42.48,6.25,20.54,7.75,41.34,1.71,62.26a94.87,94.87,0,0,1-23.86,40.61m-86-21.13c.7,6.59,1.39,13.07,2.07,19.57l.68-.06c.42-6.33.84-12.68,1.29-19.13l33,.51c.73,8.91,1.45,17.56,2.17,26.21l.82,0c.39-8.74.79-17.47,1.19-26.25l33.1-1.79c.63,5.76,1.25,11.37,1.86,17l.64,0c.41-5.8.81-11.6,1.22-17.45l12.54-1.68c0-.22,0-.46,0-.7L296,220.5c.14-13.11.27-26.14.42-39.26l20.78-2.17c0-.28,0-.57,0-.86l-20.87-1.38c-.63-13.06-1.23-26-1.84-39,4.83-.63,9.51-1.21,14.18-1.82,0-.26,0-.51,0-.78L294.06,134c-.66-5.79-1.29-11.37-1.93-17-.21,0-.42,0-.64.06q-.6,8.31-1.19,16.61l-33.15-.4q-1.08-13.07-2.19-26.2c-.26,0-.52,0-.79,0-.4,8.71-.79,17.43-1.19,26.25l-33,1.66c-.69-6.44-1.36-12.75-2-19.06-.22,0-.44,0-.67,0-.42,6.44-.84,12.86-1.28,19.42l-14.42,1.92c0,.24,0,.5.08.76l14.11,1.17c-.1,13.12-.19,26-.29,39.06l-20.87,2.21c0,.27.05.57.06.85l20.9,1.34c.6,13.3,1.18,26.27,1.75,39.2l-11.72,1.55c0,.25,0,.52,0,.77l12,1.14"/><path class="cls-3" d="M217.7,225.42l-12-1.14c0-.26,0-.52,0-.77L217.35,222c-.57-12.93-1.15-25.9-1.75-39.2l-20.9-1.34c0-.29,0-.58-.06-.85l20.87-2.21c.1-13,.2-25.94.29-39.06l-14.11-1.17c0-.26-.06-.52-.08-.76,4.8-.65,9.62-1.29,14.42-1.92.44-6.56.86-13,1.28-19.42.23,0,.45,0,.67,0,.67,6.31,1.34,12.62,2,19.05l33-1.65c.4-8.82.79-17.54,1.19-26.25.27,0,.53,0,.79,0q1.09,13.13,2.19,26.2l33.15.4q.58-8.31,1.19-16.61l.65-.06c.63,5.59,1.26,11.17,1.92,17l14.54,1.26c0,.27,0,.52,0,.78-4.67.61-9.35,1.19-14.18,1.82.61,13,1.21,25.9,1.84,39l20.87,1.38c0,.29,0,.58,0,.86l-20.78,2.17c-.15,13.12-.28,26.15-.42,39.26l12.26,1.07c0,.24,0,.48,0,.7L295.74,224c-.41,5.85-.81,11.65-1.22,17.45l-.65,0c-.6-5.6-1.22-11.21-1.85-17l-33.1,1.79c-.39,8.78-.8,17.51-1.19,26.25l-.81,0c-.73-8.65-1.45-17.31-2.18-26.22l-33-.5c-.44,6.45-.86,12.8-1.28,19.13l-.68.06c-.68-6.5-1.37-13-2.07-19.57M290,138.31,257.69,140c.49,12.26,1,24.36,1.46,36.5,10.34,0,20.41.09,30.45.15.15-12.92.28-25.45.43-38.31m1.53,81.78c-.63-12.88-1.25-25.56-1.87-38.37L259.27,183c0,12.32,0,24.42-.07,36.51,10.89.18,21.48.36,32.36.56m-37.35-.47c-.49-12.13-1-24.24-1.49-36.47-10.18-.06-20.28-.12-30.46-.16-.08,13-.18,25.7-.28,38.41l32.23-1.78m-32-41.74,30.43-1.27c0-12.19.07-24.32.1-36.55l-32.29-.43c.59,12.78,1.17,25.41,1.76,38.25"/><path class="cls-4" d="M290,138.31c-.15,12.86-.28,25.39-.43,38.31-10-.06-20.12-.11-30.45-.15-.49-12.14-1-24.25-1.47-36.5L290,138.31"/><path class="cls-4" d="M291.56,220.09c-10.87-.2-21.46-.37-32.36-.56,0-12.09.05-24.19.07-36.5l30.42-1.31c.62,12.81,1.24,25.49,1.87,38.37"/><path class="cls-4" d="M254.21,219.62,222,221.41c.09-12.71.2-25.45.28-38.42l30.47.16c.49,12.24,1,24.35,1.48,36.47"/><path class="cls-4" d="M222.18,177.88c-.59-12.84-1.17-25.47-1.76-38.25l32.29.43c0,12.23-.06,24.36-.1,36.55l-30.43,1.27"/></svg>