<svg id="Capa_1" data-name="Capa 1" xmlns="http://www.w3.org/2000/svg" viewBox="0 0 512 512"><defs><style>.cls-1{fill:#e83876;}.cls-2{fill:#dd0162;}.cls-3,.cls-4{fill-rule:evenodd;}.cls-4{fill:#e72a71;}</style></defs><rect class="cls-1" x="85.04" y="85.04" width="341.92" height="341.92" transform="translate(-106.04 256) rotate(-45)"/><path class="cls-2" d="M256,0,0,256,256,512,512,256Zm0,14.22L497.78,256,256,497.78,14.22,256Z"/><path class="cls-3" d="M321.58,102c2.68,4.38,1.81,9,1,13.51a214.77,214.77,0,0,1-14,45.81c-10.86,25.28-22.54,50.31-34,75.39a7.26,7.26,0,0,0,0,7.07c3.44,6.77,7.06,13.54,9.52,20.57,3.28,9.39,10.16,16.15,19.51,21.48,10.51,6,21.06,11.93,31.71,17.74,17.56,9.59,25.4,23.22,24.22,40.46-.67,9.88-5.39,18.37-14.95,24.52-2.94,1.89-6.61,3-9.92,4.47-.95.43-1.84,1-2.76,1.43H316.75a24.91,24.91,0,0,0-3.26-1.65c-17.82-6.08-28.9-17.22-31.72-32.78-2.3-12.6-2.51-25.54-2.71-38.34a41.31,41.31,0,0,0-11.84-29c-3.66-3.86-7.29-7.74-11.21-11.94-4.16,4.48-7.94,8.45-11.61,12.47-7,7.67-11.05,16.1-11.23,25.94-.23,12.24-.57,24.52-2,36.68-2.17,18.09-13.55,30.87-34.28,37.43-.6.19-1,.78-1.51,1.17H180.17a6.08,6.08,0,0,0-1.7-1.15c-15.49-4.26-23.56-13.9-25.59-26.69-2.62-16.58,3.92-30.7,20.22-40.9,8.7-5.44,18.22-9.95,27.19-15.1,5.67-3.26,11.12-6.79,16.41-10.43s8.16-8.61,10.43-13.93c3.24-7.55,6.73-15,10.37-22.47a6.88,6.88,0,0,0,.18-6.79c-12.78-25.69-25.24-51.5-35.21-78.08-5.8-15.52-11.45-31.11-13.33-47.38-.37-3.12.88-6.35,1.39-9.53h2.06c2,3.73,3.89,7.51,6,11.19q25,42.95,50.11,85.85c2.28,3.91,4.63,7.8,7.18,12.08.77-1,1.31-1.63,1.7-2.29q4.54-7.73,9.06-15.45,22.6-38.67,45.22-77.34c2.69-4.61,5.08-9.36,7.61-14ZM294.41,333.63c.42,9.77,4.95,18.23,14.42,24.69,11.95,8.14,26.68,5.74,34.05-5.5,9.09-13.84-.6-35.55-18.36-41-7.41-2.27-14.44-1.86-20.69,2.54-7,5-9.3,11.6-9.42,19.29m-76.51-1.46a75.82,75.82,0,0,0-2-8.38C212.08,313,199.38,307.88,187,312c-17.44,5.74-26.75,27.48-17.58,41.08,6.67,9.94,18.22,12.86,30.07,7.27,12.57-6,17.4-15.72,18.44-28.16"/><path class="cls-4" d="M269.54,237.31A13.55,13.55,0,1,1,256,223.77a13.54,13.54,0,0,1,13.55,13.54"/></svg>