<svg id="Capa_1" data-name="Capa 1" xmlns="http://www.w3.org/2000/svg" viewBox="0 0 512 512"><defs><style>.cls-1{fill:#ded300;}.cls-2{fill:#b9870f;}.cls-3,.cls-4{fill-rule:evenodd;}.cls-4{fill:#fff;}</style></defs><rect class="cls-1" x="85.04" y="85.04" width="341.92" height="341.92" transform="translate(-106.04 256) rotate(-45)"/><path class="cls-2" d="M256,0,0,256,256,512,512,256Zm0,14.22L497.78,256,256,497.78,14.22,256Z"/><path class="cls-3" d="M386.27,252.36c0,69.47-40.85,134.23-128.94,134.23-69.46,0-129-62-129-131.45s59.54-130.58,129-130.58,128.94,58.33,128.94,127.8"/><path class="cls-4" d="M206.33,294.35c-2.54-5.11-4.55-9.81-7.13-14.17C176.59,242,176,202.55,190.69,161.48c3.41-9.53,9.33-14,17.4-17.5a102.82,102.82,0,0,1,49.25-8.08c-3.78,11.34-8.3,22.49-11.19,34-7.12,28.51-5.82,56.94,2.76,85.06.56,1.85,1,4.46.18,5.9-10.13,17-23.94,29.31-42.76,33.44"/><path class="cls-4" d="M358.1,312.12c-21.47-37.68-55.87-52.93-96-58.46-4.71-.64-7.11-2.11-8.13-7-3.19-15.19-5.85-30.38-4.94-46.35,25.76-4.58,50.42-1.75,74.52,7.19,16.52,6.13,31.3,15.25,45.46,25.6,6.8,5,6.21,12.4,6.74,19,1.82,21.91-4.69,41.68-17.62,60"/><path class="cls-4" d="M305.65,276c-9.2,23.92-22.28,44.9-41.07,62.1-13,11.91-27.56,21.38-44.51,26.68-2.5.78-6,1-8.11-.14-9-5.17-18.39-10.11-26.32-16.72-9-7.54-17-16.5-24.82-25.36-3-3.37-4.37-8.16-6.36-12.07,14.38-1.15,27.57-1.24,40.41-3.43,27.54-4.71,49.39-18.6,63.91-43.07.87-1.44,3.29-3.15,4.62-2.91A140.48,140.48,0,0,1,305.65,276"/><path class="cls-4" d="M315.34,281.48c16.18,10.37,28.81,22.91,37.09,39.58,1.46,2.94,1.44,5.13-.62,7.9-22.47,30.15-51.86,45.9-90,43.6a84.28,84.28,0,0,1-10.35-1.48c-3.23-.59-6.43-1.42-10.9-2.43C277,348.92,300.29,319,315.34,281.48"/><path class="cls-4" d="M249.69,188.8c2.2-18.71,7.09-35.5,17-50.51,1-1.45,4.24-2.33,6.23-2,19.45,2.94,36.19,12.25,52.17,23.08,16.14,10.94,27.38,26.19,36.17,43.31,2,3.82,2.66,8.3,3.36,12.95-35.15-22.35-72.62-33.13-114.94-26.8"/><path class="cls-4" d="M176.39,170.11c-13.22,46-6.36,88.6,22.31,128.39-5.32,1.33-10.25,3.37-15.27,3.62-9.86.47-19.76-.11-29.64-.15-4.21,0-6.57-2.39-7.5-6-2.08-8.24-4.21-16.5-5.63-24.87-5.07-29.89,2.09-57.39,17.8-82.73,4.4-7.07,10.85-12.87,16.36-19.25.53.32,1.05.65,1.57,1"/></svg>