<svg id="Capa_1" data-name="Capa 1" xmlns="http://www.w3.org/2000/svg" xmlns:xlink="http://www.w3.org/1999/xlink" viewBox="0 0 1024 512"><defs><style>.cls-1,.cls-12,.cls-14,.cls-2{fill:none;}.cls-2{stroke:#e7334a;stroke-width:3px;}.cls-12,.cls-14,.cls-2{stroke-linecap:round;stroke-linejoin:round;}.cls-3{fill:#222b54;}.cls-4{fill:#f8b78e;}.cls-5{fill:#1db1bf;}.cls-6{clip-path:url(#clip-path);}.cls-7{fill:#ca1335;}.cls-8{fill:#f9b041;}.cls-9{fill:#f2979b;}.cls-10{fill:#eb575a;}.cls-11{fill:#8f96cb;}.cls-12{stroke:#7a7ba3;}.cls-12,.cls-14,.cls-17{stroke-width:0.5px;}.cls-13{fill:#fff;}.cls-14{stroke:#eb575a;}.cls-15{fill:#e7334a;}.cls-15,.cls-16,.cls-17,.cls-18{stroke:#fff;stroke-miterlimit:10;}.cls-16,.cls-17{fill:#615185;}.cls-18{fill:#55b682;}</style><clipPath id="clip-path"><rect class="cls-1" x="227.31" y="97.1" width="82.78" height="154.04"/></clipPath></defs><path class="cls-2" d="M318.92,344.65c-38.78,9.41-77.1,10.69-112.26,38.58-16.24,12.89-20.67,40.42-35.38,47.42-23.52,11.18-56.06-4.21-65.17-36"/><path class="cls-2" d="M76.33,159.21c0,31.54-.32,55.15,25,68.42,15.07,7.88,33.11,4.38,61,11.91,32.9,8.9,72.53,13.49,116.39-21.8"/><path class="cls-2" d="M356.23,229.81c17.21-.45,32.41,4.3,46.3-4.11,18.39-11.12,4.89-21.79,20.4-38.1,19.36-20.37-1.92-30.89,15.24-56.76"/><path class="cls-3" d="M409.53,365.88A32.71,32.71,0,0,0,437,354.49c8-9.6,9.79-23.34,7-35.55s-9.56-23.12-17.13-33.09a211,211,0,0,0-26.6-29c-5.85-5.28-12.23-10.55-15.12-17.88-1.66-4.22-2-8.83-2.14-13.35-.57-24.82,6.23-49.16,8.86-73.85s.32-51.71-15.66-70.71c-14-16.6-36.41-24.24-58.1-24.75s-43,5.29-63.78,11.6c-25.43,7.72-57.35,36.53-58.75,65.15-1,21.23,14.26,40.95,12.22,62.11-2,20.87-19.89,36.1-30.42,54.23-7.13,12.27-11,26.67-9.4,40.77s9.15,27.72,21.12,35.34c10.12,6.43,22.72,8.38,32.31,15.57,8.42,6.32,13.93,16.27,23.23,21.2a26.79,26.79,0,0,0,24.06.3"/><path class="cls-4" d="M424,367.8c-.54-7.67-1.27-15.41-3.73-22.68-3.39-10.05-9.92-18.73-17.06-26.56a174.27,174.27,0,0,0-31.66-27.29C360.69,284,348.81,277.74,340,268.08a44.83,44.83,0,0,1-6.42-9.06v0h0V238.21h-4.17c0-.23.07-.46.11-.69a62.33,62.33,0,0,0,21.95-34.69l-.72-1.69c1.09,3,5,3.68,8.26,3.83,11,.5,23.45.44,31-7.53,7.09-7.45,6.56-20.78-1.09-27.64s-21-6-27.61,1.9c2-18.32,4-37,.43-55.06S348,80.84,331.42,72.73c-18.87-9.26-44-3.54-60.46,8.3-11.72,8.43-20.73,20.19-27.63,32.87-13.13,24.12-19,52.46-14.54,79.55,1.59,9.6,4.48,19.07,9.42,27.46,11.61,19.68,35,31.65,57.69,30.1v17.78h0a71.6,71.6,0,0,1-7.27,10.5c-8.67,10.47-19.49,19-28.27,29.35-14.41,17-22.83,38.4-27.39,60.2s-5.48,44.18-6.39,66.44c-.11,2.78-.11,5.89,1.8,7.92,1.37,1.47,3.44,2,5.41,2.49a280.71,280.71,0,0,0,186.82-21.17,9.3,9.3,0,0,0,3.13-2.13c1.4-1.63,1.52-4,1.56-6.13Q425.73,392,424,367.8Z"/><path class="cls-3" d="M242.28,172c1.05-6.61,7.08-22.87,16.33-16.65,7.8,5.25,6.68,15,6.52,23.16-.05,2.64,4.07,2.64,4.12,0,.19-10.34.33-24.79-12.17-28.43-10.93-3.19-17.46,12.6-18.77,20.83-.41,2.59,3.55,3.71,4,1.09"/><path class="cls-3" d="M276.45,128.26a384.23,384.23,0,0,1-2.29,56.24c-.3,2.62,3.82,2.6,4.11,0a384.24,384.24,0,0,0,2.3-56.24c-.09-2.64-4.2-2.65-4.12,0"/><path class="cls-3" d="M296.7,180.31c-.36-7.39,1.45-26.13,12.44-24.82s11.28,17.77,11.54,25.76c.09,2.65,4.21,2.66,4.12,0-.35-10.64-1.87-29.23-16.12-30-13.54-.74-16.57,19.28-16.1,29.07.13,2.64,4.25,2.65,4.12,0"/><path class="cls-3" d="M262.54,186.93a15.29,15.29,0,0,0,15.61,12.36c2.64-.13,2.66-4.25,0-4.11a11.24,11.24,0,0,1-11.64-9.35c-.46-2.6-4.43-1.49-4,1.1"/><path class="cls-3" d="M369,163.16a76.78,76.78,0,0,0,5.15-44.56c-1.64-9.38-2.29-21.48-6.23-30.24-11.33-25.24-51-29.88-74.56-25-11.45,2.35-20.3,7.21-17.78,19.72a57.16,57.16,0,0,0,16,28.92c10.34,10.28,23.74,17,37.53,21.74a8.74,8.74,0,0,1,3.95,2.16c1.31,1.53,1.37,3.72,1.48,5.72a49.05,49.05,0,0,0,10,26.93c2.45,3.19,5.64,6.25,9.64,6.74,6.78.84,12-5.84,14.79-12.08"/><path class="cls-5" d="M399.07,374.68a12.71,12.71,0,0,0-8-7.21l-24.6-7.89c-1.34-.44-2.7-.87-4.07-1.22q1-37.33,3.55-74.6c.55-7.93-11.8-7.9-12.35,0q-2.61,37.64-3.57,75.33c-1,.39-1.95.82-2.91,1.26a219.5,219.5,0,0,0-33.28,18.84c-7.91-6.78-16-13.67-25.7-17.5a43.78,43.78,0,0,0-7.34-2c0-.14,0-.28,0-.42.89-23.24,2.27-46.43,4.32-69.6.69-7.92-11.66-7.87-12.36,0-2,22.88-3.39,45.78-4.27,68.72-8.12-.16-16.26,1.1-20.69,4.86a9.08,9.08,0,0,0-2.44,3.32c-1,20.74-2.85,41.5-3.6,62.22.92,6.53,2.15,13,3.64,19.41a281.55,281.55,0,0,0,152-13.58c.67-4.11,1.2-8.25,1.54-12.4C400.3,406.35,399.49,390.52,399.07,374.68Z"/><path class="cls-3" d="M364.53,179a124.15,124.15,0,0,0,19,16.94c2.15,1.56,4.21-2,2.08-3.56A118.37,118.37,0,0,1,367.45,176c-1.79-2-4.69,1-2.92,2.91"/><path class="cls-3" d="M365,194.4q8-7.38,16.59-14c2.07-1.59,0-5.17-2.08-3.56-6,4.62-11.85,9.48-17.42,14.65-1.95,1.8,1,4.71,2.91,2.91"/><g class="cls-6"><path class="cls-4" d="M251.48,220.21c-13.5-20.28-19-44.5-14.35-68.48a279.1,279.1,0,0,1,9.76-37.52,93.48,93.48,0,0,1,7.58-17.11c-.28.41-.58.8-.86,1.21a158.35,158.35,0,0,0-26.05,69.13,113.85,113.85,0,0,0,1.22,26c1.59,9.6,4.49,19.07,9.43,27.46,12.48,21.15,38.51,33.4,62.76,29.53a56.63,56.63,0,0,0,9.11-2.24c-23.25-.25-45.79-8.75-58.6-28"/></g><path class="cls-3" d="M321.43,168.2l7.37-2.61c2.49-.87,1.42-4.85-1.09-4l-7.38,2.61c-2.48.87-1.41,4.85,1.1,4"/><path class="cls-3" d="M322.64,176.23l6.94-.84c2.6-.32,2.63-4.44,0-4.12l-6.94.85c-2.6.31-2.63,4.44,0,4.11"/><path class="cls-3" d="M322.08,181.62a21.18,21.18,0,0,1,5.57,1.61c2.4,1.09,4.49-2.46,2.08-3.55a24.77,24.77,0,0,0-6.55-2c-2.59-.4-3.71,3.56-1.1,4"/><path class="cls-3" d="M237.36,156l4.89,5.06c1.85,1.9,4.76-1,2.92-2.92q-2.46-2.52-4.9-5c-1.85-1.9-4.76,1-2.91,2.91"/><path class="cls-3" d="M234.88,163.08a26.3,26.3,0,0,1,6,2.92c2.23,1.45,4.3-2.11,2.08-3.55a30.2,30.2,0,0,0-6.94-3.34c-2.51-.85-3.59,3.13-1.09,4"/><path class="cls-3" d="M234.28,171.54a32.08,32.08,0,0,0,5.88-.21c2.59-.34,2.63-4.46,0-4.12a31.22,31.22,0,0,1-5.88.22c-2.64-.15-2.63,4,0,4.11"/><path class="cls-7" d="M281.81,277.52l1-.48A1.36,1.36,0,0,0,281.81,277.52Z"/><path class="cls-7" d="M342.31,391.39C406.38,290.56,364,268.21,364,268.21L345.59,265c.31.3,30.39,30.72-20.91,112.62C274.31,318.3,277.4,282,281.81,277.52l-12.26,6.18c-1,2-26.26,32.08,37.57,107.62-13.25,14.5-26.36,43.46-14.24,100.29l16.6,15.56c-11-51.46,3.25-82,15.35-97.57,8.69,13.6,21.49,42.88,28.26,102.4l16.51-20.39c-6.92-60.87-18.65-88.19-28.22-100.81Z"/><path class="cls-8" d="M84.11,395.84a12.61,12.61,0,1,1,12.61-12.61,12.6,12.6,0,0,1-12.61,12.61m29-25,6.31-3.65-3.74-6.47-6.35,3.66A31.64,31.64,0,0,0,103,358l3.66-6.35L100.16,348l-3.64,6.31a31.42,31.42,0,0,0-8.67-2.3v-7.32H80.37V352a31.35,31.35,0,0,0-8.66,2.3l-3.65-6.33-6.47,3.75L65.25,358a31.64,31.64,0,0,0-6.33,6.33l-6.35-3.66-3.74,6.47,6.31,3.65a31.43,31.43,0,0,0-2.29,8.66H45.53V387h7.32a31.79,31.79,0,0,0,2.29,8.66l-6.31,3.65,3.73,6.47,6.36-3.67a31.64,31.64,0,0,0,6.33,6.33l-3.66,6.36,6.47,3.74,3.65-6.32a31.35,31.35,0,0,0,8.66,2.3v7.31h7.48V414.5a31.42,31.42,0,0,0,8.67-2.3l3.64,6.31,6.48-3.73L103,408.42a31.64,31.64,0,0,0,6.33-6.33l6.35,3.67,3.74-6.47-6.31-3.65a31.8,31.8,0,0,0,2.3-8.66h7.31v-7.49h-7.31a31.71,31.71,0,0,0-2.3-8.66"/><path class="cls-8" d="M96.73,462.25a8.93,8.93,0,1,1,8.93-8.93,8.92,8.92,0,0,1-8.93,8.93M124,456v-5.3h-5.17a22.53,22.53,0,0,0-1.64-6.14l4.48-2.58-2.65-4.58-4.5,2.6a22.17,22.17,0,0,0-4.48-4.49l2.59-4.48-4.58-2.65-2.58,4.47a21.49,21.49,0,0,0-6.14-1.63V426h-5.3v5.18A21.45,21.45,0,0,0,88,432.82l-2.59-4.48L80.78,431l2.59,4.49A22.74,22.74,0,0,0,78.88,440l-4.49-2.6L71.75,442l4.47,2.6a21.85,21.85,0,0,0-1.63,6.12H69.41V456h5.18a22.29,22.29,0,0,0,1.63,6.13l-4.47,2.58,2.64,4.58,4.49-2.59a23,23,0,0,0,4.49,4.48l-2.59,4.49,4.58,2.66L88,473.83a22.11,22.11,0,0,0,6.12,1.62v5.18h5.3v-5.18a22.15,22.15,0,0,0,6.14-1.62l2.58,4.46,4.58-2.64-2.59-4.49a22.37,22.37,0,0,0,4.48-4.48l4.5,2.59,2.65-4.58-4.48-2.58a22.63,22.63,0,0,0,1.64-6.14Z"/><path class="cls-9" d="M473.18,25.59v-17H462.27v10.5h-10V8.56H441.4v10.5h-10V8.56H420.54V34.78c0,4,4.45,7.25,9.95,7.25h32.78c5.5,0,10-3.25,10-7.25V26.31a5.68,5.68,0,0,0-.05-.72"/><path class="cls-10" d="M473.18,25.59c.14-5.11.28-10.52.48-17.52l-12.13-.25c-.06,3.07-.13,6.27-.22,10.28l-7.86-.18c0-3.25.09-6.65.15-10.64L440,7.15c0,3.29-.05,6.71-.08,10.42L433,17.52q0-5.1,0-10.52H419q0,7.71.05,15.22c.08,4.56-.05,8.73.21,13.41a8.32,8.32,0,0,0,4.42,6,13.94,13.94,0,0,0,6.72,1.69l12.29-.17c8.06-.24,15.58-.06,23-.7,3.59-.71,7.36-3.11,7.76-6.9.07-3.47-.1-6.73-.27-9.92-.05,3.16-.1,6.53-.37,9.84-.52,3.3-4,5.3-7.33,5.78-7,.24-14.83-.22-22.8-.26l-12.27-.19c-3.67,0-8-2.12-8.39-5.47-.12-4,0-8.66,0-13.06q0-6,0-12.13h7.79c0,3.6,0,7.1,0,10.48l13,0c0-3.77-.06-7.25-.08-10.59L451,9.85c.05,3.88.1,7.18.15,10.35L463.24,20c-.09-4.17-.16-7.51-.22-10.71L472.69,9c.2,6.61.34,11.72.49,16.55"/><rect class="cls-9" x="428.33" y="41.86" width="36.84" height="11.2"/><path class="cls-10" d="M465.17,53.06c-5-.38-10.65-.7-16.81-1l-9.65-.33-8.9-.2c.05.3.08-8,.08-8.17l8.57,0,9.62-.18L457,42.9l4.19-.18,2-.1,1.3-.1c.26,4.14.46,7.46.66,10.54.11-1.64.22-3.34.35-5.18.05-.92.1-1.88.16-2.88.05-1.21.1-2.47.15-3.81L457,40.81l-8.94-.28-9.62-.18-11.69-.05c0,5,.05,10,.08,14.23l11.86-.2c3.35-.11,6.56-.23,9.65-.32,6.16-.26,11.8-.58,16.81-.95"/><rect class="cls-9" x="429.88" y="53.32" width="34" height="9.6"/><rect class="cls-9" x="418.72" y="106.78" width="56.57" height="18.46"/><path class="cls-10" d="M475.3,125.24c-7.72-.37-16.37-.69-25.83-.94l-29.28-.53c0-4.63.06-10,.09-15.43l28.73-.23,13.75-.27,11.84-.36c.27,7,.5,12.57.7,17.76.11-2.69.24-5.5.37-8.54.1-3.25.21-6.75.32-10.62l-27-.63-14.75-.17-17.1-.06c0,7.61.07,15,.1,21.49l17.41-.21,14.8-.32c9.46-.25,18.11-.57,25.83-.94"/><path class="cls-9" d="M462.85,87.05c-2.86-11.16-2.59-24.13-2.59-24.13H432.48s.26,13-2.6,24.13a95,95,0,0,1-7.53,19.73h48a94.64,94.64,0,0,1-7.52-19.73"/><path class="cls-10" d="M462.84,87.05c-.4-2.73-.82-5.58-1.26-8.51-.15-3-.46-6-.51-9.18,0-1.57,0-3.17,0-4.79,1.24-3.46-3-2.32-4.09-2.57l-10.29-.22-10.77-.18-3.54,0a4.07,4.07,0,0,0-1.24.07v1.3l0,2.1c-.09,1.84-.18,3.7-.28,5.57a97.3,97.3,0,0,1-1.5,11.29c-.41,1.88-.64,3.8-1.2,5.67s-1.15,3.75-1.73,5.64a102.94,102.94,0,0,1-4.47,11l-1.29,2.63-.64,1.28c-.11.15,0,.17.12.15h1.09l4.72,0,5.75,0,22-.31,10.29-.22,5.47-.14,1.79,0c.12,0,.33,0,.39,0l-.21-.41-.43-.8-1.41-2.77c-1.49-2.79-2.59-5.65-3.8-8.36-1-2.8-1.94-5.5-2.87-8.11.71,2.67,1.39,5.47,2.23,8.34,1,2.81,1.94,5.77,3.26,8.68l.66,1.55c0,.12.37.49,0,.4l-.66,0-4.45-.13-10.29-.22-22-.32-5.75,0c-1.37,0-1,0-1.09,0s0-.06,0,0a99.35,99.35,0,0,0,4.5-11c.59-2,1.19-3.9,1.78-5.83s.8-4,1.21-5.92a93,93,0,0,0,1.39-11.67c.05-1.92.11-3.83.16-5.71v-.7c0-.06,0-.12.06-.1-.24,0,1.17,0,2,0,3.66-.06,7.26-.11,10.77-.18L457,63.83c2,.08,2.72-.5,2.52.75.1,1.64.21,3.26.31,4.85.24,3.18.75,6.24,1.12,9.19l1.94,8.43"/><path class="cls-10" d="M465.83,62.9c-4.62-.39-9.81-.71-15.5-1l-8.9-.31-8.11-.21c.05.8.07-6.94.07-6.56,2.67,0,5.27,0,7.82-.06l8.88-.18,8.25-.29,3.85-.19L464,54l1.16-.11c.25,3.54.45,6.35.63,9,.11-1.4.22-2.86.33-4.43,0-.79.11-1.61.16-2.47.05-1.06.09-2.17.15-3.34l-8.13-.39L450.09,52l-8.88-.18-10.93-.06c0,4.47,0,8.86.07,12.64l11.08-.2,8.9-.32c5.69-.26,10.88-.58,15.5-1"/><path class="cls-9" d="M492.8,139c0-.09,0-.19,0-.28v-7a6.5,6.5,0,0,0-6.51-6.51h-75a6.5,6.5,0,0,0-6.51,6.51v7a2.66,2.66,0,0,0,0,.28Z"/><path class="cls-10" d="M492.81,138.83c.06-1.64.12-3.31.18-5s.3-3.54-.6-5.24a6.85,6.85,0,0,0-4.24-3.6c-2-.51-3.77-.27-5.66-.4l-23.81-.49-26-.31-13.73-.08-7,0a8.17,8.17,0,0,0-7.37,3.77,8.08,8.08,0,0,0-1.18,3.33c-.11,1.29,0,2-.05,3,0,2.38,0,4.66,0,6.75l26.38-.21L452.8,140c14.78-.29,28.23-.67,40-1.12-11.78-.42-25.24-.75-40-1l-23.12-.28-23.29-.13c0,.75,0-2.07,0-3.66,0-2-.09-3.41.77-4.67a5.08,5.08,0,0,1,4.73-2.33l7,0,13.73-.08,26-.32,23.81-.48c1.85,0,3.81-.28,5.4.07a6.07,6.07,0,0,1,3.9,2.95c.9,1.46.8,3.21.85,4.92s.12,3.38.17,5"/><polygon class="cls-11" points="129.69 183.37 26.86 172.64 41.66 30.31 144.49 41.01 129.69 183.37"/><polygon class="cls-12" points="129.69 183.37 26.86 172.64 41.66 30.31 144.49 41.01 129.69 183.37"/><polygon class="cls-11" points="127.65 175.47 24.41 169.71 32.37 26.83 135.59 32.57 127.65 175.47"/><polygon class="cls-12" points="127.65 175.47 24.41 169.71 32.37 26.83 135.59 32.57 127.65 175.47"/><polygon class="cls-13" points="123.4 168.07 20 167.95 20.15 24.85 123.53 24.96 123.4 168.07"/><polygon class="cls-12" points="123.4 168.07 20 167.95 20.15 24.85 123.53 24.96 123.4 168.07"/><path class="cls-12" d="M86.7,142.69H33.12m53.58-9.11H33.12M86.7,115.36H33.12m53.58-9.11H33.12M86.7,87.79H33.12M86.7,78.68H33.12M86.7,69.57H33.12M86.7,51.34H33.12M86.7,42.23H33.12"/><path class="cls-14" d="M106.91,45.52,99.59,57.17l-4.48-3.83m11.8,26.46L99.59,91.44l-4.48-3.82m11.8,21.91-7.32,11.65-4.48-3.82m11.8,19.51-7.32,11.64-4.48-3.81"/><rect class="cls-1" x="311.23" y="234.83" width="50.95" height="138.38"/><path class="cls-15" d="M535,51.62c5.18-7,13-9,20.2-9,15.41,0,26.17,11.42,26.17,29.62,0,18.6-12.36,34-33.21,34-18.74,0-33.88-13.41-33.88-49.15,0-28.17,17.4-43.85,38.13-43.85a68.65,68.65,0,0,1,22,3.19l-3.59,16.08A44.85,44.85,0,0,0,554,29.43C543.73,29.43,536.42,37.27,535,51.62Zm.27,15.54c1.46,17.67,7,22.86,12.89,22.86,7.7,0,12-6,12-16.21,0-9.57-4.25-15-12-15C542.93,58.79,537.49,61.19,535.23,67.16Z"/><path class="cls-16" d="M462.21,321.61l-3.29-16.26c-.46-2.33-1.31-6.74-1.92-10.38h-.26l-.4,26.64H449.1l1.31-34.19h13.37s3.14,15.75,4.66,27h.2c1.93-11.29,5.68-27,5.68-27h13.22l1.36,34.19h-9.26L479,295h-.26c-.65,3.95-1.46,7.9-2,10.38l-3.45,16.26Z"/><path class="cls-16" d="M502,311.33c0,2.83,1.82,4.71,5.67,4.71a18.22,18.22,0,0,0,7-1.83l1.42,5.57a21.68,21.68,0,0,1-9.63,2.33c-8,0-12.56-4.91-12.56-13,0-7.5,3.6-12.87,12-12.87,7.75,0,10.84,5.52,10.84,11.75v3.3Zm3.64-9.22c-2.63,0-3.64,2.38-3.64,4.66h7.14C509.17,304.13,508.41,302.11,505.67,302.11Z"/><path class="cls-16" d="M539.2,320.34a15.25,15.25,0,0,1-7,1.77c-4.66,0-8.11-3-8.11-8.91V302.46h-3.54v-5.67h3.69v-4.25L532,290v6.79h6.33v5.67H532V313a2,2,0,0,0,2.27,2.32,8.76,8.76,0,0,0,3.75-.86Z"/><path class="cls-16" d="M567.27,309.15c0,8.51-4.36,13-12.15,13s-12.16-4.45-12.16-13c0-7.3,4.35-12.87,12.16-12.87S567.27,301.85,567.27,309.15Zm-8.26,0c0-5.78-1.57-7.09-3.89-7.09s-3.91,1.31-3.91,7.09c0,5.57,1.47,7.09,3.91,7.09S559,314.72,559,309.15Z"/><path class="cls-16" d="M588.8,298.82a12,12,0,0,1-.81-4.77v-7.39h8v34.95h-6.63l-.82-2.64a7.28,7.28,0,0,1-6.28,3.14c-5.52,0-10.18-3.9-10.18-12.91,0-8.51,5.07-12.92,10.79-12.92A7.36,7.36,0,0,1,588.8,298.82Zm-.81,4.35a8,8,0,0,0-3.75-1c-2.38,0-4.25,1.37-4.25,6.94,0,5.77,1.82,7.14,4.2,7.14a5.88,5.88,0,0,0,3.8-1.57Z"/><path class="cls-16" d="M625.78,309.15c0,8.51-4.36,13-12.16,13s-12.16-4.45-12.16-13c0-7.3,4.36-12.87,12.16-12.87S625.78,301.85,625.78,309.15Zm-8.26,0c0-5.78-1.57-7.09-3.9-7.09s-3.9,1.31-3.9,7.09c0,5.57,1.47,7.09,3.9,7.09S617.52,314.72,617.52,309.15Z"/><path class="cls-16" d="M639.25,286.66v27.25a1.67,1.67,0,0,0,1.67,1.92l2,.16v5.67a25,25,0,0,1-4.21.45c-5.06,0-7.44-2.68-7.44-6.93V286.66Z"/><path class="cls-16" d="M671.26,309.15c0,8.51-4.36,13-12.15,13s-12.16-4.45-12.16-13c0-7.3,4.36-12.87,12.16-12.87S671.26,301.85,671.26,309.15Zm-8.25,0c0-5.78-1.57-7.09-3.9-7.09s-3.9,1.31-3.9,7.09c0,5.57,1.47,7.09,3.9,7.09S663,314.72,663,309.15Z"/><path class="cls-16" d="M699.88,296.79l-.1,6.18a14.79,14.79,0,0,1-4.1-1.27,8.93,8.93,0,0,1,2,3.09c0,6.13-6.18,8.66-10.64,8.66a14.22,14.22,0,0,1-3.14-.4,1,1,0,0,0-.71,1c0,2.63,15.7-.66,15.7,8.91,0,5.83-5.72,9.12-12.41,9.12-5.37,0-10.73-2-10.73-6.48,0-3.2,2.63-4.66,6.73-5.27-3.14-.36-6.58-1.27-6.58-4.41,0-2.17,2.07-3.74,5.06-3.95a7.84,7.84,0,0,1-4.56-7.14c0-6.63,6.44-8.51,10.64-8.51C691.32,296.59,696.44,296.79,699.88,296.79Zm-14.08,23.9a2.91,2.91,0,0,0-2.68,3c0,1.72,1.42,3.09,3.85,3.09s4-1.37,4-3.29S689.15,321,685.8,320.69Zm4.92-15.95c0-2.13-2-2.84-3.7-2.84s-3.7.71-3.7,2.84c0,2.43,1.93,3.14,3.7,3.14S690.72,307.17,690.72,304.74Z"/><path class="cls-16" d="M706.82,321.61V302.46l-2.93-.66v-5h10.89v24.82Zm-1.47-28.67-.7-4.56L718.27,285l.91,5.87Z"/><path class="cls-16" d="M737.11,321.61l-1-2.84a8.47,8.47,0,0,1-7,3.34c-4.91,0-8.51-3.14-8.51-8.15,0-4.76,3.55-7.45,9.67-7.45h4.61v-.91c0-2.63-1.77-3.24-3.74-3.24a17.72,17.72,0,0,0-7.4,1.62l-2-5.67a26.56,26.56,0,0,1,10.13-2c7.64,0,10.73,3.35,10.73,9.88v15.45Zm-2.28-10.49h-3.19c-2.12,0-3.24,1-3.24,2.64a2.7,2.7,0,0,0,3,3,7.22,7.22,0,0,0,3.44-1Z"/><path class="cls-16" d="M748.41,323.89h-2.33l12.36-38.4h2.33Z"/><path class="cls-16" d="M773.28,294.16v7.69h10.54l-.51,7h-10v12.71h-8V287.42h22.08v6.74Z"/><path class="cls-16" d="M807.93,321.61l-1-2.84a8.5,8.5,0,0,1-7,3.34c-4.92,0-8.51-3.14-8.51-8.15,0-4.76,3.54-7.45,9.67-7.45h4.61v-.91c0-2.63-1.77-3.24-3.75-3.24a17.71,17.71,0,0,0-7.39,1.62l-2-5.67a26.6,26.6,0,0,1,10.13-2c7.65,0,10.74,3.35,10.74,9.88v15.45Zm-2.28-10.49h-3.19c-2.13,0-3.24,1-3.24,2.64a2.69,2.69,0,0,0,3,3,7.26,7.26,0,0,0,3.45-1Z"/><path class="cls-16" d="M835.08,303.07a15.81,15.81,0,0,0-5.77-1.11c-1.82,0-2.74.55-2.74,1.56,0,3.15,10,2.34,10,10.24,0,4.81-3.49,8.35-10.38,8.35a16.82,16.82,0,0,1-7.4-1.67l1.47-5.52a12.2,12.2,0,0,0,5.68,1.57c1.82,0,3-.76,3-2,0-3.64-9.82-2.58-9.82-11,0-3.91,2.88-7.15,10.13-7.15a24.42,24.42,0,0,1,6.78,1Z"/><path class="cls-16" d="M849.52,311.33c0,2.83,1.82,4.71,5.67,4.71a18.22,18.22,0,0,0,7-1.83l1.42,5.57a21.66,21.66,0,0,1-9.62,2.33c-8,0-12.56-4.91-12.56-13,0-7.5,3.59-12.87,12-12.87,7.75,0,10.84,5.52,10.84,11.75v3.3Zm3.65-9.22c-2.64,0-3.65,2.38-3.65,4.66h7.14C856.66,304.13,855.9,302.11,853.17,302.11Z"/><path class="cls-16" d="M885.43,303.07a15.81,15.81,0,0,0-5.77-1.11c-1.83,0-2.74.55-2.74,1.56,0,3.15,10,2.34,10,10.24,0,4.81-3.49,8.35-10.38,8.35a16.82,16.82,0,0,1-7.4-1.67l1.47-5.52a12.2,12.2,0,0,0,5.68,1.57c1.82,0,3-.76,3-2,0-3.64-9.82-2.58-9.82-11,0-3.91,2.88-7.15,10.13-7.15a24.42,24.42,0,0,1,6.78,1Z"/><path class="cls-16" d="M892.28,296.79h8.1v7.9h-8.1Zm0,16.92h8.1v7.9h-8.1Z"/><path class="cls-17" d="M463.54,360.59a7.5,7.5,0,0,1-5.71,2.79c-4.71,0-8-3.48-8-10.37,0-6,3-10.3,8.31-10.3a8.28,8.28,0,0,1,5.31,1.71,28.07,28.07,0,0,1-.16-3.25V335h3.08v28h-2.31Zm-.24-14.11a8.54,8.54,0,0,0-4.83-1.42c-3.72,0-5.51,2.92-5.51,7.95s1.58,8.06,5.31,8.06a6.72,6.72,0,0,0,5-2.51Z"/><path class="cls-17" d="M474.16,353.94c0,4.9,2.51,7.05,6.28,7.05a12.24,12.24,0,0,0,6.16-2l.77,2.18a14.14,14.14,0,0,1-7.25,2.19c-5.43,0-9-3.61-9-10.45,0-6.29,3.08-10.22,8.51-10.22,5.59,0,8,4.5,8,9.49v1.74Zm5.31-8.88c-3.77,0-5.31,3.33-5.31,6.73h10.38C484.54,348.35,483.36,345.06,479.47,345.06Z"/><path class="cls-17" d="M503.43,337.24a9.16,9.16,0,0,0-2.56-.36c-2.67,0-3.85,1.5-3.85,4.66v1.58h4.7v2.35H497V363h-3V345.47h-3.2v-2.35H494v-1.78c0-4.54,2.19-7,6.65-7a13.28,13.28,0,0,1,3.08.41Z"/><path class="cls-17" d="M506.83,363V345.59l-2.19-.45v-2h5.19V363Zm-.28-27.68h3.28v3.24h-3.28Z"/><path class="cls-17" d="M527.71,363V351c0-3.77-1.18-5.84-4.54-5.84a7.38,7.38,0,0,0-4.87,2.27V363h-3.08V343.12h2.07l.61,2.35a8.66,8.66,0,0,1,6.24-2.76c4.66,0,6.73,2.8,6.73,7.74V363Z"/><path class="cls-17" d="M537.4,363V345.59l-2.19-.45v-2h5.18V363Zm-.29-27.68h3.28v3.24h-3.28Z"/><path class="cls-17" d="M560.46,361.64a14.15,14.15,0,0,1-6.61,1.74c-5,0-8.67-3-8.67-10.33,0-6.73,3.69-10.34,8.67-10.34a12.9,12.9,0,0,1,6.49,1.58l-.9,2.19a10.74,10.74,0,0,0-5.42-1.3c-3.57,0-5.76,2.84-5.76,7.87,0,5.59,2.19,7.94,5.76,7.94a11.24,11.24,0,0,0,5.71-1.66Z"/><path class="cls-17" d="M566.09,363V345.59l-2.18-.45v-2h5.19V363Zm-.28-27.68h3.29v3.24h-3.29Z"/><path class="cls-17" d="M590.82,353c0,6.68-3.24,10.37-8.55,10.37s-8.47-3.61-8.47-10.37c0-5.84,2.75-10.3,8.47-10.3C587.78,342.71,590.82,347.09,590.82,353Zm-3.16,0c0-5.19-1.74-8-5.39-8s-5.35,2.92-5.35,8c0,4.86,1.42,8.06,5.35,8.06S587.66,358.32,587.66,353ZM578,340l-.44-1.83,9-3.32.61,2.31Z"/><path class="cls-17" d="M608,363V351c0-3.77-1.18-5.84-4.54-5.84a7.38,7.38,0,0,0-4.87,2.27V363h-3.08V343.12h2.07l.61,2.35a8.66,8.66,0,0,1,6.24-2.76c4.66,0,6.73,2.8,6.73,7.74V363Z"/><path class="cls-17" d="M638.08,360.59a7.48,7.48,0,0,1-5.71,2.79c-4.7,0-8-3.48-8-10.37,0-6,3-10.3,8.3-10.3a8.26,8.26,0,0,1,5.31,1.71,28.07,28.07,0,0,1-.16-3.25V335h3.08v28h-2.31Zm-.24-14.11a8.47,8.47,0,0,0-4.82-1.42c-3.73,0-5.51,2.92-5.51,7.95s1.58,8.06,5.31,8.06a6.71,6.71,0,0,0,5-2.51Z"/><path class="cls-17" d="M648.7,353.94c0,4.9,2.52,7.05,6.29,7.05a12.31,12.31,0,0,0,6.16-2l.77,2.18a14.22,14.22,0,0,1-7.26,2.19c-5.43,0-9-3.61-9-10.45,0-6.29,3.08-10.22,8.52-10.22,5.59,0,7.94,4.5,7.94,9.49v1.74Zm5.32-8.88c-3.77,0-5.32,3.33-5.32,6.73h10.38C659.08,348.35,657.91,345.06,654,345.06Z"/><path class="cls-17" d="M675.86,357.5V335h3v23.63c0,1.7.77,2.39,3,2.39h.65v2.11a9.27,9.27,0,0,1-1.94.24C676.8,363.38,675.86,361.23,675.86,357.5Z"/><path class="cls-17" d="M698.64,363l-.53-2.56a7.81,7.81,0,0,1-6.12,3c-4,0-6.4-2.71-6.4-6.08s2.51-5.67,7-5.67h5.15v-1.58c0-3.45-1.5-4.91-4.5-4.91a14.64,14.64,0,0,0-6,1.3l-.81-2.23a17.48,17.48,0,0,1,7.22-1.5c4.7,0,7.09,2.43,7.09,7.18V363Zm-.89-9.24h-4.66c-3.37,0-4.5,1.46-4.5,3.44,0,2.39,1.3,4,4.18,4a7,7,0,0,0,5-2.47Z"/><path class="cls-17" d="M708.29,348c0,4.26,9.85,2.76,9.85,9.49,0,3.2-2.47,5.91-6.89,5.91a12,12,0,0,1-6-1.7l.89-2.27a9.29,9.29,0,0,0,5.07,1.66c2.43,0,3.93-1.34,3.93-3.4,0-4.79-9.73-3-9.73-9.73,0-2.67,2-5.23,6.57-5.23a12.93,12.93,0,0,1,6,1.3l-.73,2.27a10.7,10.7,0,0,0-5.19-1.22C709.51,345.06,708.29,346.16,708.29,348Z"/><path class="cls-17" d="M734,353.94c0,4.9,2.51,7.05,6.28,7.05a12.31,12.31,0,0,0,6.16-2l.77,2.18a14.14,14.14,0,0,1-7.25,2.19c-5.43,0-9-3.61-9-10.45,0-6.29,3.08-10.22,8.51-10.22,5.59,0,7.94,4.5,7.94,9.49v1.74Zm5.31-8.88c-3.77,0-5.31,3.33-5.31,6.73H744.4C744.4,348.35,743.23,345.06,739.34,345.06Z"/><path class="cls-17" d="M754.38,348c0,4.26,9.85,2.76,9.85,9.49,0,3.2-2.48,5.91-6.89,5.91a12,12,0,0,1-6-1.7l.89-2.27a9.26,9.26,0,0,0,5.07,1.66c2.43,0,3.93-1.34,3.93-3.4,0-4.79-9.73-3-9.73-9.73,0-2.67,2-5.23,6.57-5.23A12.89,12.89,0,0,1,764,344l-.73,2.27a10.66,10.66,0,0,0-5.18-1.22C755.59,345.06,754.38,346.16,754.38,348Z"/><path class="cls-17" d="M775.45,363.38c-2.79,0-5.1-1.42-5.1-6.08V345.35h-3v-2.23h3v-3.61l3.08-1v4.58h5.79v2.23h-5.79v12.32c0,2.1.77,3.12,2.63,3.12a8.57,8.57,0,0,0,3.16-.85l.61,2.27A9.77,9.77,0,0,1,775.45,363.38Z"/><path class="cls-17" d="M793.94,345.79a8.08,8.08,0,0,0-2.56-.36,6.31,6.31,0,0,0-4.45,2.15V363h-3.08V343.12h2.06l.57,2.51a6.6,6.6,0,0,1,5.15-2.8,8.79,8.79,0,0,1,2.51.33Z"/><path class="cls-17" d="M809.87,363l-.53-2.56a7.81,7.81,0,0,1-6.12,3c-4.05,0-6.4-2.71-6.4-6.08s2.51-5.67,7-5.67H809v-1.58c0-3.45-1.5-4.91-4.5-4.91a14.64,14.64,0,0,0-6,1.3l-.81-2.23a17.47,17.47,0,0,1,7.21-1.5c4.7,0,7.09,2.43,7.09,7.18V363Zm-.89-9.24h-4.66c-3.37,0-4.5,1.46-4.5,3.44,0,2.39,1.29,4,4.17,4a7,7,0,0,0,5-2.47Z"/><path class="cls-17" d="M823.93,363.38c-2.79,0-5.1-1.42-5.1-6.08V345.35h-3v-2.23h3v-3.61l3.08-1v4.58h5.79v2.23h-5.79v12.32c0,2.1.77,3.12,2.63,3.12a8.62,8.62,0,0,0,3.16-.85l.61,2.27A9.81,9.81,0,0,1,823.93,363.38Z"/><path class="cls-17" d="M834.76,353.94c0,4.9,2.51,7.05,6.28,7.05a12.31,12.31,0,0,0,6.16-2l.77,2.18a14.18,14.18,0,0,1-7.26,2.19c-5.43,0-9-3.61-9-10.45,0-6.29,3.08-10.22,8.51-10.22,5.59,0,7.94,4.5,7.94,9.49v1.74Zm5.31-8.88c-3.77,0-5.31,3.33-5.31,6.73h10.37C845.13,348.35,844,345.06,840.07,345.06Z"/><path class="cls-17" d="M869.9,343.12v2.15a21.91,21.91,0,0,1-4.82-.41,6,6,0,0,1,2.71,4.74c0,4.7-4.5,6.69-7.5,6.69a8.72,8.72,0,0,1-2.59-.45c-1.46.12-2.11.69-2.11,1.42,0,2.47,13,0,13,7.05,0,4.62-4.25,6.85-8.51,6.85-3.89,0-7.9-2.06-7.9-5.87,0-2.64,2-4.26,5-4.7-2.43-.25-4.46-1.1-4.46-3,0-1.38.94-2.39,3-2.64a5.87,5.87,0,0,1-3-5.35c0-5.18,4.67-6.89,7.54-6.89C861.87,342.71,865.12,343,869.9,343.12Zm-10,17.83c-3,.08-4.74,1.62-4.74,4s2.47,4.05,5,4.05c3,0,5.35-1.37,5.35-4.53C865.52,362.45,863.86,361.36,859.89,361Zm5-11.39c0-3.69-2.71-4.58-4.66-4.58s-4.7.89-4.7,4.58,2.64,4.5,4.7,4.5S864.91,353.13,864.91,349.56Z"/><path class="cls-17" d="M875.21,363V345.59l-2.19-.45v-2h5.19V363Zm-.28-27.68h3.28v3.24h-3.28Z"/><path class="cls-17" d="M895.88,363l-.53-2.56a7.81,7.81,0,0,1-6.12,3c-4.05,0-6.4-2.71-6.4-6.08s2.51-5.67,7-5.67H895v-1.58c0-3.45-1.5-4.91-4.5-4.91a14.64,14.64,0,0,0-6,1.3l-.81-2.23a17.48,17.48,0,0,1,7.22-1.5c4.7,0,7.09,2.43,7.09,7.18V363Zm-.89-9.24h-4.66c-3.37,0-4.5,1.46-4.5,3.44,0,2.39,1.3,4,4.17,4a7,7,0,0,0,5-2.47Z"/><path class="cls-17" d="M905.53,348c0,4.26,9.85,2.76,9.85,9.49,0,3.2-2.47,5.91-6.89,5.91a12,12,0,0,1-6-1.7l.89-2.27a9.29,9.29,0,0,0,5.07,1.66c2.43,0,3.93-1.34,3.93-3.4,0-4.79-9.73-3-9.73-9.73,0-2.67,2-5.23,6.57-5.23a12.93,12.93,0,0,1,6,1.3l-.73,2.27a10.7,10.7,0,0,0-5.19-1.22C906.75,345.06,905.53,346.16,905.53,348Z"/><path class="cls-17" d="M457.3,397.6l-2,.16-6.36-19.9h3.4s3.73,12.08,5.43,18c1.75-6,5.4-18,5.4-18h3.15l-6.36,19.66c-2.06,6.32-4.13,8.35-7.94,8.35a8,8,0,0,1-4.42-1.58l1-2.07h.24a5.74,5.74,0,0,0,3.32,1.26c2.31,0,3.65-1.38,4.9-5.15Z"/><path class="cls-17" d="M490.74,397.72l-.53-2.55a7.81,7.81,0,0,1-6.12,3c-4,0-6.4-2.72-6.4-6.08s2.51-5.68,7-5.68h5.15v-1.58c0-3.44-1.5-4.9-4.5-4.9a14.64,14.64,0,0,0-6,1.3l-.81-2.23a17.47,17.47,0,0,1,7.21-1.5c4.71,0,7.1,2.43,7.1,7.17v13.09Zm-.89-9.24h-4.66c-3.37,0-4.5,1.46-4.5,3.45,0,2.39,1.3,4,4.17,4a7,7,0,0,0,5-2.47Z"/><path class="cls-17" d="M512.79,396.38a14.14,14.14,0,0,1-6.61,1.75c-5,0-8.67-3-8.67-10.34,0-6.73,3.69-10.33,8.67-10.33a12.79,12.79,0,0,1,6.49,1.58l-.89,2.19a10.74,10.74,0,0,0-5.44-1.3c-3.56,0-5.75,2.84-5.75,7.86,0,5.59,2.19,7.94,5.75,7.94a11.24,11.24,0,0,0,5.72-1.66Z"/><path class="cls-17" d="M531.52,396.38a14.14,14.14,0,0,1-6.61,1.75c-5,0-8.67-3-8.67-10.34,0-6.73,3.69-10.33,8.67-10.33A12.79,12.79,0,0,1,531.4,379l-.9,2.19a10.68,10.68,0,0,0-5.43-1.3c-3.56,0-5.75,2.84-5.75,7.86,0,5.59,2.19,7.94,5.75,7.94a11.24,11.24,0,0,0,5.72-1.66Z"/><path class="cls-17" d="M537.15,397.72V380.33l-2.18-.44v-2h5.18v19.86ZM536.87,370h3.28v3.24h-3.28Z"/><path class="cls-17" d="M561.88,387.75c0,6.69-3.25,10.38-8.55,10.38s-8.48-3.61-8.48-10.38c0-5.83,2.76-10.29,8.48-10.29C558.84,377.46,561.88,381.83,561.88,387.75Zm-3.16,0c0-5.19-1.75-8-5.39-8s-5.35,2.91-5.35,8c0,4.87,1.41,8.07,5.35,8.07S558.72,393.06,558.72,387.75Z"/><path class="cls-17" d="M579,397.72v-12c0-3.77-1.17-5.84-4.54-5.84a7.34,7.34,0,0,0-4.86,2.27v15.56h-3.08V377.86h2.07l.61,2.35a8.69,8.69,0,0,1,6.24-2.75c4.66,0,6.73,2.79,6.73,7.74v12.52Z"/><path class="cls-17" d="M589.56,388.68c0,4.91,2.52,7.05,6.29,7.05a12.31,12.31,0,0,0,6.16-2l.77,2.19a14.31,14.31,0,0,1-7.26,2.19c-5.43,0-9-3.61-9-10.46,0-6.28,3.08-10.21,8.52-10.21s7.94,4.5,7.94,9.48v1.74Zm5.31-8.87c-3.77,0-5.31,3.32-5.31,6.73h10.38C599.94,383.09,598.77,379.81,594.87,379.81Z"/><path class="cls-17" d="M609.91,382.73c0,4.25,9.85,2.75,9.85,9.48,0,3.2-2.47,5.92-6.89,5.92a12,12,0,0,1-6-1.71l.89-2.26a9.4,9.4,0,0,0,5.07,1.66c2.43,0,3.93-1.34,3.93-3.41,0-4.78-9.72-3-9.72-9.73,0-2.67,2-5.22,6.56-5.22a12.9,12.9,0,0,1,6,1.29l-.73,2.27a10.67,10.67,0,0,0-5.19-1.21C611.13,379.81,609.91,380.9,609.91,382.73Z"/><path class="cls-17" d="M645.7,397.72v-12c0-3.77-1.17-5.84-4.54-5.84a7.34,7.34,0,0,0-4.86,2.27v15.56h-3.08V377.86h2.07l.61,2.35a8.69,8.69,0,0,1,6.24-2.75c4.66,0,6.73,2.79,6.73,7.74v12.52Z"/><path class="cls-17" d="M656.25,388.68c0,4.91,2.51,7.05,6.28,7.05a12.31,12.31,0,0,0,6.16-2l.77,2.19a14.31,14.31,0,0,1-7.26,2.19c-5.43,0-9-3.61-9-10.46,0-6.28,3.09-10.21,8.52-10.21,5.59,0,7.94,4.5,7.94,9.48v1.74Zm5.31-8.87c-3.77,0-5.31,3.32-5.31,6.73h10.37C666.62,383.09,665.45,379.81,661.56,379.81Z"/><path class="cls-17" d="M689,396.38a14.14,14.14,0,0,1-6.61,1.75c-5,0-8.67-3-8.67-10.34,0-6.73,3.68-10.33,8.67-10.33a12.73,12.73,0,0,1,6.48,1.58l-.89,2.19a10.68,10.68,0,0,0-5.43-1.3c-3.57,0-5.75,2.84-5.75,7.86,0,5.59,2.18,7.94,5.75,7.94a11.24,11.24,0,0,0,5.72-1.66Z"/><path class="cls-17" d="M695.48,388.68c0,4.91,2.52,7.05,6.29,7.05a12.31,12.31,0,0,0,6.16-2l.77,2.19a14.31,14.31,0,0,1-7.26,2.19c-5.43,0-9-3.61-9-10.46,0-6.28,3.08-10.21,8.51-10.21,5.6,0,8,4.5,8,9.48v1.74Zm5.31-8.87c-3.77,0-5.31,3.32-5.31,6.73h10.38C705.86,383.09,704.68,379.81,700.79,379.81Z"/><path class="cls-17" d="M715.83,382.73c0,4.25,9.85,2.75,9.85,9.48,0,3.2-2.47,5.92-6.89,5.92a12,12,0,0,1-6-1.71l.89-2.26a9.37,9.37,0,0,0,5.07,1.66c2.43,0,3.93-1.34,3.93-3.41,0-4.78-9.72-3-9.72-9.73,0-2.67,2-5.22,6.56-5.22a12.9,12.9,0,0,1,6,1.29l-.73,2.27a10.67,10.67,0,0,0-5.19-1.21C717.05,379.81,715.83,380.9,715.83,382.73Z"/><path class="cls-17" d="M742.5,397.72l-.52-2.55a7.85,7.85,0,0,1-6.13,3c-4.05,0-6.4-2.72-6.4-6.08s2.51-5.68,7-5.68h5.15v-1.58c0-3.44-1.5-4.9-4.5-4.9a14.64,14.64,0,0,0-6,1.3L730.3,379a17.48,17.48,0,0,1,7.22-1.5c4.7,0,7.09,2.43,7.09,7.17v13.09Zm-.89-9.24H737c-3.37,0-4.5,1.46-4.5,3.45,0,2.39,1.3,4,4.18,4a7,7,0,0,0,5-2.47Z"/><path class="cls-17" d="M760,380.54a7.69,7.69,0,0,0-2.55-.37,6.37,6.37,0,0,0-4.46,2.15v15.4h-3.08V377.86H752l.56,2.52a6.59,6.59,0,0,1,5.15-2.8,9,9,0,0,1,2.51.32Z"/><path class="cls-17" d="M765.2,397.72V380.33l-2.19-.44v-2h5.19v19.86ZM764.92,370h3.28v3.24h-3.28Z"/><path class="cls-17" d="M785.87,397.72l-.52-2.55a7.84,7.84,0,0,1-6.12,3c-4.05,0-6.41-2.72-6.41-6.08s2.52-5.68,7-5.68H785v-1.58c0-3.44-1.5-4.9-4.5-4.9a14.55,14.55,0,0,0-6,1.3l-.81-2.23a17.43,17.43,0,0,1,7.21-1.5c4.7,0,7.09,2.43,7.09,7.17v13.09Zm-.89-9.24h-4.66c-3.36,0-4.5,1.46-4.5,3.45,0,2.39,1.3,4,4.18,4a7,7,0,0,0,5-2.47Z"/><path class="cls-17" d="M795.52,382.73c0,4.25,9.85,2.75,9.85,9.48,0,3.2-2.47,5.92-6.89,5.92a12,12,0,0,1-6-1.71l.89-2.26a9.4,9.4,0,0,0,5.07,1.66c2.43,0,3.93-1.34,3.93-3.41,0-4.78-9.72-3-9.72-9.73,0-2.67,2-5.22,6.56-5.22a12.9,12.9,0,0,1,6,1.29l-.73,2.27a10.67,10.67,0,0,0-5.19-1.21C796.74,379.81,795.52,380.9,795.52,382.73Z"/><path class="cls-17" d="M822,399.06v6.36h-3.12V377.86h2.39l.49,2.35a8,8,0,0,1,5.79-2.75c5.07,0,7.58,3.6,7.58,10.29,0,7-3.48,10.38-8.23,10.38a7,7,0,0,1-5.34-2.27A18.6,18.6,0,0,1,822,399.06Zm0-5.39a6.68,6.68,0,0,0,4.7,2.15c3.61,0,5.31-2.35,5.31-8.07,0-5.23-1.5-7.9-5.11-7.9a7.12,7.12,0,0,0-4.9,2.31Z"/><path class="cls-17" d="M852.07,397.72l-.53-2.55a7.83,7.83,0,0,1-6.12,3c-4,0-6.4-2.72-6.4-6.08s2.51-5.68,7-5.68h5.15v-1.58c0-3.44-1.5-4.9-4.5-4.9a14.6,14.6,0,0,0-6,1.3l-.81-2.23a17.47,17.47,0,0,1,7.21-1.5c4.7,0,7.1,2.43,7.1,7.17v13.09Zm-.89-9.24h-4.66c-3.37,0-4.5,1.46-4.5,3.45,0,2.39,1.29,4,4.17,4a7,7,0,0,0,5-2.47Z"/><path class="cls-17" d="M869.54,380.54a7.76,7.76,0,0,0-2.56-.37,6.34,6.34,0,0,0-4.45,2.15v15.4h-3.08V377.86h2.06l.57,2.52a6.57,6.57,0,0,1,5.15-2.8,9,9,0,0,1,2.51.32Z"/><path class="cls-17" d="M885.47,397.72l-.53-2.55a7.81,7.81,0,0,1-6.12,3c-4.05,0-6.4-2.72-6.4-6.08s2.51-5.68,7-5.68h5.15v-1.58c0-3.44-1.5-4.9-4.5-4.9a14.64,14.64,0,0,0-6,1.3l-.81-2.23a17.47,17.47,0,0,1,7.21-1.5c4.7,0,7.09,2.43,7.09,7.17v13.09Zm-.89-9.24h-4.66c-3.37,0-4.5,1.46-4.5,3.45,0,2.39,1.29,4,4.17,4a7,7,0,0,0,5-2.47Z"/><path class="cls-17" d="M465.12,431.13a14.15,14.15,0,0,1-6.61,1.74c-5,0-8.67-3-8.67-10.33,0-6.73,3.69-10.34,8.67-10.34a12.9,12.9,0,0,1,6.49,1.58l-.89,2.19a10.8,10.8,0,0,0-5.43-1.3c-3.57,0-5.76,2.84-5.76,7.87,0,5.59,2.19,7.94,5.76,7.94a11.21,11.21,0,0,0,5.71-1.66Z"/><path class="cls-17" d="M482.39,432.47l-.45-2.27a8.46,8.46,0,0,1-6.16,2.67c-4.41,0-6.85-2.63-6.85-8.06v-12.2H472v12c0,4.1,1.3,5.8,4.5,5.8a7.82,7.82,0,0,0,4.91-1.95V412.61h3.12v19.86Z"/><path class="cls-17" d="M505.09,419.94v12.53H502v-12c0-3.77-1.1-5.84-4.46-5.84a7.05,7.05,0,0,0-4.78,2.27v15.57h-3.08V412.61h2l.65,2.39a8.34,8.34,0,0,1,6-2.8c3,0,4.86,1.06,5.83,3a8.7,8.7,0,0,1,6.21-3c4.86,0,7,2.72,7,7.74v12.53h-3.12v-12c0-3.77-1.42-5.84-4.79-5.84a7.16,7.16,0,0,0-4.74,2.27A11.38,11.38,0,0,1,505.09,419.94Z"/><path class="cls-17" d="M525.36,433.8v6.37h-3.12V412.61h2.39l.48,2.35a8,8,0,0,1,5.8-2.76c5.07,0,7.58,3.61,7.58,10.3,0,7-3.49,10.37-8.23,10.37a7,7,0,0,1-5.35-2.27A18.38,18.38,0,0,1,525.36,433.8Zm0-5.39a6.61,6.61,0,0,0,4.7,2.15c3.6,0,5.31-2.35,5.31-8.06,0-5.23-1.5-7.91-5.11-7.91a7.14,7.14,0,0,0-4.9,2.31Z"/><path class="cls-17" d="M543.36,427V404.5h3v23.63c0,1.7.77,2.39,3,2.39H550v2.11a9.27,9.27,0,0,1-1.94.24C544.29,432.87,543.36,430.72,543.36,427Z"/><path class="cls-17" d="M555.43,432.47V415.08l-2.18-.45v-2h5.18v19.86Zm-.28-27.69h3.28V408h-3.28Z"/><path class="cls-17" d="M579.27,419.94v12.53h-3.12v-12c0-3.77-1.1-5.84-4.46-5.84a7.05,7.05,0,0,0-4.78,2.27v15.57h-3.08V412.61h2l.65,2.39a8.32,8.32,0,0,1,6-2.8c3,0,4.86,1.06,5.83,3a8.7,8.7,0,0,1,6.21-3c4.86,0,7,2.72,7,7.74v12.53h-3.12v-12c0-3.77-1.42-5.84-4.79-5.84a7.16,7.16,0,0,0-4.74,2.27A11.8,11.8,0,0,1,579.27,419.94Z"/><path class="cls-17" d="M598,432.47V415.08l-2.19-.45v-2H601v19.86Zm-.29-27.69H601V408h-3.28Z"/><path class="cls-17" d="M608.82,423.43c0,4.9,2.51,7.05,6.28,7.05a12.31,12.31,0,0,0,6.16-2l.77,2.19a14.27,14.27,0,0,1-7.25,2.19c-5.44,0-9-3.61-9-10.45,0-6.29,3.08-10.22,8.51-10.22,5.59,0,7.94,4.5,7.94,9.49v1.74Zm5.31-8.88c-3.77,0-5.31,3.33-5.31,6.73h10.37C619.19,417.83,618,414.55,614.13,414.55Z"/><path class="cls-17" d="M639.38,432.47v-12c0-3.77-1.18-5.84-4.54-5.84A7.34,7.34,0,0,0,630,416.9v15.57H626.9V412.61H629l.61,2.35a8.68,8.68,0,0,1,6.24-2.76c4.66,0,6.73,2.8,6.73,7.74v12.53Z"/><path class="cls-17" d="M654.18,432.87c-2.8,0-5.11-1.42-5.11-6.08v-12h-3v-2.23h3V409l3.08-1v4.58H658v2.23h-5.8v12.32c0,2.1.77,3.12,2.63,3.12a8.68,8.68,0,0,0,3.17-.85l.6,2.26A9.63,9.63,0,0,1,654.18,432.87Z"/><path class="cls-17" d="M678.9,422.5c0,6.68-3.24,10.37-8.55,10.37s-8.47-3.61-8.47-10.37c0-5.84,2.76-10.3,8.47-10.3C675.86,412.2,678.9,416.58,678.9,422.5Zm-3.16,0c0-5.19-1.74-8-5.39-8s-5.35,2.92-5.35,8c0,4.86,1.42,8.06,5.35,8.06S675.74,427.8,675.74,422.5Z"/><path class="cls-17" d="M705.57,430.07a7.49,7.49,0,0,1-5.71,2.8c-4.7,0-8-3.48-8-10.37,0-6,3-10.3,8.31-10.3a8.32,8.32,0,0,1,5.31,1.7,27.78,27.78,0,0,1-.16-3.24V404.5h3.08v28H706.1Zm-.24-14.1a8.5,8.5,0,0,0-4.82-1.42c-3.73,0-5.51,2.92-5.51,7.95s1.57,8.06,5.3,8.06a6.72,6.72,0,0,0,5-2.51Z"/><path class="cls-17" d="M716.19,423.43c0,4.9,2.52,7.05,6.28,7.05a12.24,12.24,0,0,0,6.16-2l.78,2.19a14.28,14.28,0,0,1-7.26,2.19c-5.43,0-9-3.61-9-10.45,0-6.29,3.08-10.22,8.51-10.22,5.6,0,8,4.5,8,9.49v1.74Zm5.31-8.88c-3.77,0-5.31,3.33-5.31,6.73h10.38C726.57,417.83,725.39,414.55,721.5,414.55Z"/><path class="cls-17" d="M743.35,427V404.5h3v23.63c0,1.7.77,2.39,3,2.39H750v2.11a9.3,9.3,0,0,1-2,.24C744.28,432.87,743.35,430.72,743.35,427Z"/><path class="cls-17" d="M770.18,422.5c0,6.68-3.24,10.37-8.55,10.37s-8.47-3.61-8.47-10.37c0-5.84,2.76-10.3,8.47-10.3C767.14,412.2,770.18,416.58,770.18,422.5Zm-3.16,0c0-5.19-1.74-8-5.39-8s-5.35,2.92-5.35,8c0,4.86,1.42,8.06,5.35,8.06S767,427.8,767,422.5Z"/><path class="cls-17" d="M777.12,417.47c0,4.26,9.84,2.76,9.84,9.48,0,3.2-2.47,5.92-6.88,5.92a11.91,11.91,0,0,1-6-1.7l.89-2.27a9.26,9.26,0,0,0,5.07,1.66c2.43,0,3.93-1.34,3.93-3.4,0-4.79-9.73-3-9.73-9.73,0-2.68,2-5.23,6.56-5.23a12.9,12.9,0,0,1,6,1.3l-.73,2.27a10.66,10.66,0,0,0-5.18-1.22C778.33,414.55,777.12,415.65,777.12,417.47Z"/><path class="cls-17" d="M466.78,457.24c0,6.69-3.24,10.38-8.55,10.38s-8.47-3.61-8.47-10.38c0-5.84,2.76-10.29,8.47-10.29C463.74,447,466.78,451.32,466.78,457.24Zm-3.16,0c0-5.19-1.74-8-5.39-8s-5.35,2.91-5.35,8c0,4.86,1.42,8.06,5.35,8.06S463.62,462.55,463.62,457.24Z"/><path class="cls-17" d="M474.2,449.62a8.52,8.52,0,0,1,5.92-2.67c5.07,0,7.7,3.6,7.7,10.29,0,7-3.49,10.38-8.27,10.38a7.66,7.66,0,0,1-5.75-2.56l-.65,2.15h-1.7v-28h3.08V447Zm.33,13.42a7,7,0,0,0,4.82,2.26c3.48,0,5.35-2.35,5.35-8.06,0-5.23-1.54-7.94-5.15-7.94a7.39,7.39,0,0,0-5,2.23Z"/><path class="cls-17" d="M497.27,467.53c0,4-2,6-4.87,6a8,8,0,0,1-2.83-.53l.36-2.59a6,6,0,0,0,1.95.37c1.54,0,2.35-1.14,2.35-3.21V449.78l-2.19-.44v-2h5.23Zm-3.29-28h3.29v3.24H494Z"/><path class="cls-17" d="M505.74,458.17c0,4.91,2.51,7.05,6.28,7.05a12.31,12.31,0,0,0,6.16-2l.77,2.19a14.27,14.27,0,0,1-7.25,2.19c-5.44,0-9-3.61-9-10.46,0-6.28,3.08-10.21,8.51-10.21,5.59,0,7.94,4.49,7.94,9.48v1.74Zm5.31-8.87c-3.77,0-5.31,3.32-5.31,6.72h10.37C516.11,452.58,514.94,449.3,511.05,449.3Z"/><path class="cls-17" d="M530.51,467.62c-2.8,0-5.11-1.42-5.11-6.08v-12h-3v-2.23h3v-3.61l3.08-1v4.58h5.79v2.23h-5.79V461.9c0,2.11.77,3.12,2.63,3.12a8.57,8.57,0,0,0,3.16-.85l.61,2.27A9.63,9.63,0,0,1,530.51,467.62Z"/><path class="cls-17" d="M540.48,467.21V449.82l-2.19-.44v-2h5.18v19.86Zm-.29-27.68h3.28v3.24h-3.28Z"/><path class="cls-17" d="M557.62,467.21H553l-6.36-19.86h3.4l5.39,17.95h.08l5.35-17.95h3.17Z"/><path class="cls-17" d="M583.6,457.24c0,6.69-3.24,10.38-8.55,10.38s-8.47-3.61-8.47-10.38c0-5.84,2.76-10.29,8.47-10.29C580.56,447,583.6,451.32,583.6,457.24Zm-3.16,0c0-5.19-1.74-8-5.39-8s-5.35,2.91-5.35,8c0,4.86,1.42,8.06,5.35,8.06S580.44,462.55,580.44,457.24Z"/><path class="cls-17" d="M590.54,452.22c0,4.25,9.85,2.75,9.85,9.48,0,3.2-2.48,5.92-6.89,5.92a11.94,11.94,0,0,1-6-1.71l.89-2.27a9.26,9.26,0,0,0,5.07,1.66c2.43,0,3.93-1.33,3.93-3.4,0-4.78-9.73-3-9.73-9.73,0-2.67,2-5.22,6.57-5.22a12.89,12.89,0,0,1,5.95,1.29l-.73,2.27a10.66,10.66,0,0,0-5.18-1.21C591.75,449.3,590.54,450.39,590.54,452.22Z"/><path class="cls-17" d="M604.36,462.67h3v4.62c0,3.49-1,4.46-3,4.78V470.9c.77-.29,1-1.1,1-3.69l-1-.2Z"/><path class="cls-17" d="M627.83,467.62c-2.8,0-5.11-1.42-5.11-6.08v-12h-3v-2.23h3v-3.61l3.08-1v4.58h5.8v2.23h-5.8V461.9c0,2.11.77,3.12,2.64,3.12a8.68,8.68,0,0,0,3.16-.85l.61,2.27A9.67,9.67,0,0,1,627.83,467.62Z"/><path class="cls-17" d="M638.65,458.17c0,4.91,2.51,7.05,6.28,7.05a12.24,12.24,0,0,0,6.16-2l.77,2.19a14.24,14.24,0,0,1-7.25,2.19c-5.43,0-9-3.61-9-10.46,0-6.28,3.08-10.21,8.51-10.21,5.6,0,7.95,4.49,7.95,9.48v1.74ZM644,449.3c-3.77,0-5.31,3.32-5.31,6.72H649C649,452.58,647.85,449.3,644,449.3Z"/><path class="cls-17" d="M669.21,467.21v-12c0-3.77-1.17-5.83-4.54-5.83a7.34,7.34,0,0,0-4.86,2.27v15.56h-3.08V447.35h2.07l.61,2.35a8.69,8.69,0,0,1,6.24-2.75c4.66,0,6.73,2.79,6.73,7.74v12.52Z"/><path class="cls-17" d="M678.9,467.21V449.82l-2.19-.44v-2h5.19v19.86Zm-.28-27.68h3.28v3.24h-3.28Z"/><path class="cls-17" d="M689.73,458.17c0,4.91,2.51,7.05,6.28,7.05a12.31,12.31,0,0,0,6.16-2l.77,2.19a14.28,14.28,0,0,1-7.26,2.19c-5.43,0-9-3.61-9-10.46,0-6.28,3.08-10.21,8.51-10.21,5.59,0,7.94,4.49,7.94,9.48v1.74ZM695,449.3c-3.77,0-5.31,3.32-5.31,6.72H700.1C700.1,452.58,698.93,449.3,695,449.3Z"/><path class="cls-17" d="M720.29,467.21v-12c0-3.77-1.18-5.83-4.54-5.83a7.29,7.29,0,0,0-4.86,2.27v15.56h-3.08V447.35h2.06l.61,2.35a8.71,8.71,0,0,1,6.24-2.75c4.66,0,6.73,2.79,6.73,7.74v12.52Z"/><path class="cls-17" d="M741.49,464.82a7.53,7.53,0,0,1-5.72,2.8c-4.7,0-8-3.49-8-10.38,0-6,3-10.29,8.31-10.29a8.36,8.36,0,0,1,5.31,1.7,27.89,27.89,0,0,1-.16-3.24v-6.16h3.08v28H742Zm-.24-14.11a8.62,8.62,0,0,0-4.83-1.41c-3.73,0-5.51,2.92-5.51,7.94s1.58,8.06,5.31,8.06a6.71,6.71,0,0,0,5-2.51Z"/><path class="cls-17" d="M766,457.24c0,6.69-3.24,10.38-8.55,10.38S749,464,749,457.24c0-5.84,2.76-10.29,8.47-10.29C763,447,766,451.32,766,457.24Zm-3.16,0c0-5.19-1.74-8-5.39-8s-5.35,2.91-5.35,8c0,4.86,1.42,8.06,5.35,8.06S762.85,462.55,762.85,457.24Z"/><path class="cls-17" d="M782.71,468.55v6.36h-3.12V447.35H782l.49,2.35a8,8,0,0,1,5.8-2.75c5.06,0,7.57,3.6,7.57,10.29,0,7-3.48,10.38-8.22,10.38a7,7,0,0,1-5.35-2.27A18.6,18.6,0,0,1,782.71,468.55Zm0-5.39a6.67,6.67,0,0,0,4.7,2.14c3.61,0,5.31-2.35,5.31-8.06,0-5.23-1.5-7.9-5.1-7.9a7.12,7.12,0,0,0-4.91,2.31Z"/><path class="cls-17" d="M810.64,450a7.73,7.73,0,0,0-2.55-.37,6.35,6.35,0,0,0-4.46,2.15v15.4h-3.08V447.35h2.07l.56,2.51a6.61,6.61,0,0,1,5.15-2.79,9,9,0,0,1,2.51.32Z"/><path class="cls-17" d="M816.72,458.17c0,4.91,2.52,7.05,6.29,7.05a12.31,12.31,0,0,0,6.16-2l.77,2.19a14.31,14.31,0,0,1-7.26,2.19c-5.43,0-9-3.61-9-10.46,0-6.28,3.08-10.21,8.51-10.21,5.6,0,8,4.49,8,9.48v1.74ZM822,449.3c-3.77,0-5.31,3.32-5.31,6.72H827.1C827.1,452.58,825.92,449.3,822,449.3Z"/><path class="cls-17" d="M837.07,452.22c0,4.25,9.85,2.75,9.85,9.48,0,3.2-2.47,5.92-6.89,5.92a12,12,0,0,1-6-1.71l.89-2.27A9.29,9.29,0,0,0,840,465.3c2.43,0,3.93-1.33,3.93-3.4,0-4.78-9.72-3-9.72-9.73,0-2.67,2-5.22,6.56-5.22a12.9,12.9,0,0,1,6,1.29l-.73,2.27a10.67,10.67,0,0,0-5.19-1.21C838.29,449.3,837.07,450.39,837.07,452.22Z"/><path class="cls-17" d="M853.89,458.17c0,4.91,2.52,7.05,6.28,7.05a12.24,12.24,0,0,0,6.16-2l.78,2.19a14.31,14.31,0,0,1-7.26,2.19c-5.43,0-9-3.61-9-10.46,0-6.28,3.08-10.21,8.51-10.21,5.6,0,7.95,4.49,7.95,9.48v1.74Zm5.31-8.87c-3.77,0-5.31,3.32-5.31,6.72h10.38C864.27,452.58,863.09,449.3,859.2,449.3Z"/><path class="cls-17" d="M884.46,467.21v-12c0-3.77-1.18-5.83-4.54-5.83a7.34,7.34,0,0,0-4.87,2.27v15.56H872V447.35H874l.61,2.35a8.69,8.69,0,0,1,6.24-2.75c4.66,0,6.73,2.79,6.73,7.74v12.52Z"/><path class="cls-17" d="M899.25,467.62c-2.79,0-5.1-1.42-5.1-6.08v-12h-3v-2.23h3v-3.61l3.08-1v4.58H903v2.23h-5.79V461.9c0,2.11.77,3.12,2.63,3.12a8.68,8.68,0,0,0,3.16-.85l.61,2.27A9.67,9.67,0,0,1,899.25,467.62Z"/><path class="cls-17" d="M910.07,458.17c0,4.91,2.52,7.05,6.29,7.05a12.31,12.31,0,0,0,6.16-2l.77,2.19a14.28,14.28,0,0,1-7.26,2.19c-5.43,0-9-3.61-9-10.46,0-6.28,3.08-10.21,8.51-10.21,5.6,0,8,4.49,8,9.48v1.74Zm5.31-8.87c-3.77,0-5.31,3.32-5.31,6.72h10.38C920.45,452.58,919.27,449.3,915.38,449.3Z"/><path class="cls-17" d="M452.88,492.92c0,4.9,2.51,7.05,6.28,7.05a12.24,12.24,0,0,0,6.16-2l.77,2.19a14.24,14.24,0,0,1-7.25,2.19c-5.43,0-9-3.61-9-10.46,0-6.28,3.08-10.21,8.51-10.21,5.59,0,7.95,4.5,7.95,9.48v1.75Zm5.31-8.88c-3.77,0-5.31,3.32-5.31,6.73h10.38C463.26,487.32,462.08,484,458.19,484Z"/><path class="cls-17" d="M471.12,496.48V474h3v23.63c0,1.7.77,2.39,3,2.39h.65v2.11a9.3,9.3,0,0,1-1.95.24C472.06,502.36,471.12,500.21,471.12,496.48Z"/><path class="cls-17" d="M492.81,487c0,4.25,9.85,2.76,9.85,9.48,0,3.2-2.48,5.92-6.89,5.92a11.94,11.94,0,0,1-6-1.7l.89-2.27a9.26,9.26,0,0,0,5.07,1.66c2.43,0,3.93-1.34,3.93-3.41,0-4.78-9.73-3-9.73-9.72,0-2.68,2-5.23,6.57-5.23a12.89,12.89,0,0,1,5.95,1.3l-.73,2.27a10.66,10.66,0,0,0-5.18-1.22C494,484,492.81,485.13,492.81,487Z"/><path class="cls-17" d="M509.63,492.92c0,4.9,2.51,7.05,6.28,7.05a12.31,12.31,0,0,0,6.16-2l.77,2.19a14.27,14.27,0,0,1-7.25,2.19c-5.43,0-9-3.61-9-10.46,0-6.28,3.08-10.21,8.51-10.21,5.59,0,7.94,4.5,7.94,9.48v1.75Zm5.31-8.88c-3.77,0-5.31,3.32-5.31,6.73H520C520,487.32,518.83,484,514.94,484Z"/><path class="cls-17" d="M544.77,482.1v2.14a21.28,21.28,0,0,1-4.82-.4,6,6,0,0,1,2.71,4.74c0,4.7-4.5,6.69-7.49,6.69a9.11,9.11,0,0,1-2.6-.45c-1.46.12-2.11.69-2.11,1.42,0,2.47,13,0,13,7.05,0,4.62-4.25,6.85-8.51,6.85-3.89,0-7.9-2.07-7.9-5.88,0-2.63,2-4.25,5-4.7-2.44-.24-4.46-1.09-4.46-3,0-1.37.93-2.39,3-2.63a5.87,5.87,0,0,1-3-5.35c0-5.19,4.66-6.89,7.53-6.89C536.75,481.69,540,482,544.77,482.1Zm-10,17.83c-3,.08-4.74,1.62-4.74,4s2.47,4.05,5,4.05c3,0,5.35-1.38,5.35-4.54C540.39,501.43,538.73,500.33,534.76,499.93Zm5-11.39c0-3.69-2.72-4.58-4.67-4.58s-4.7.89-4.7,4.58,2.64,4.5,4.7,4.5S539.79,492.11,539.79,488.54Z"/><path class="cls-17" d="M561.71,502l-.44-2.26a8.46,8.46,0,0,1-6.16,2.67c-4.42,0-6.85-2.64-6.85-8.07V482.1h3.08v12c0,4.09,1.3,5.8,4.5,5.8a7.79,7.79,0,0,0,4.9-1.95V482.1h3.12V502Z"/><path class="cls-17" d="M570.55,502V484.57l-2.19-.45v-2h5.19V502Zm-.28-27.68h3.28v3.25h-3.28Z"/><path class="cls-17" d="M594.38,489.43V502h-3.12V490c0-3.77-1.09-5.84-4.45-5.84a7.1,7.1,0,0,0-4.79,2.27V502h-3.08V482.1h2l.65,2.39a8.32,8.32,0,0,1,6-2.8c3,0,4.86,1.05,5.83,3a8.66,8.66,0,0,1,6.2-3c4.87,0,7,2.72,7,7.74V502h-3.13V490c0-3.77-1.41-5.84-4.78-5.84a7.14,7.14,0,0,0-4.74,2.27A11.82,11.82,0,0,1,594.38,489.43Z"/><path class="cls-17" d="M613.11,502V484.57l-2.19-.45v-2h5.19V502Zm-.28-27.68h3.28v3.25h-3.28Z"/><path class="cls-17" d="M623.94,492.92c0,4.9,2.51,7.05,6.28,7.05a12.31,12.31,0,0,0,6.16-2l.77,2.19a14.28,14.28,0,0,1-7.26,2.19c-5.43,0-9-3.61-9-10.46,0-6.28,3.08-10.21,8.51-10.21,5.59,0,7.94,4.5,7.94,9.48v1.75Zm5.31-8.88c-3.77,0-5.31,3.32-5.31,6.73h10.37C634.31,487.32,633.14,484,629.25,484Z"/><path class="cls-17" d="M654.5,502V490c0-3.77-1.18-5.84-4.54-5.84a7.34,7.34,0,0,0-4.86,2.27V502H642V482.1h2.06l.61,2.35a8.66,8.66,0,0,1,6.24-2.76c4.66,0,6.73,2.8,6.73,7.74V502Z"/><path class="cls-17" d="M669.29,502.36c-2.79,0-5.1-1.42-5.1-6.08v-12h-3V482.1h3v-3.61l3.08-1v4.58h5.79v2.22h-5.79v12.32c0,2.11.77,3.13,2.63,3.13a8.43,8.43,0,0,0,3.16-.86l.61,2.27A9.63,9.63,0,0,1,669.29,502.36Z"/><path class="cls-17" d="M694,492c0,6.68-3.24,10.37-8.55,10.37S677,498.75,677,492c0-5.84,2.75-10.3,8.47-10.3C691,481.69,694,486.07,694,492Zm-3.16,0c0-5.19-1.75-8-5.39-8s-5.35,2.92-5.35,8c0,4.86,1.42,8.06,5.35,8.06S690.86,497.29,690.86,492Z"/><path class="cls-17" d="M720.69,499.56a7.49,7.49,0,0,1-5.71,2.8c-4.71,0-8-3.49-8-10.37,0-6,3-10.3,8.31-10.3a8.36,8.36,0,0,1,5.31,1.7,27.78,27.78,0,0,1-.16-3.24V474h3.08v28h-2.31Zm-.24-14.1a8.51,8.51,0,0,0-4.83-1.42c-3.72,0-5.51,2.92-5.51,7.95s1.58,8.06,5.31,8.06a6.73,6.73,0,0,0,5-2.51Z"/><path class="cls-17" d="M731.31,492.92c0,4.9,2.51,7.05,6.28,7.05a12.24,12.24,0,0,0,6.16-2l.77,2.19a14.24,14.24,0,0,1-7.25,2.19c-5.43,0-9-3.61-9-10.46,0-6.28,3.08-10.21,8.51-10.21,5.6,0,8,4.5,8,9.48v1.75Zm5.31-8.88c-3.77,0-5.31,3.32-5.31,6.73h10.38C741.69,487.32,740.51,484,736.62,484Z"/><path class="cls-17" d="M760.74,492.92c0,4.9,2.51,7.05,6.28,7.05a12.27,12.27,0,0,0,6.16-2l.77,2.19a14.24,14.24,0,0,1-7.25,2.19c-5.43,0-9-3.61-9-10.46,0-6.28,3.08-10.21,8.51-10.21,5.59,0,7.94,4.5,7.94,9.48v1.75Zm5.31-8.88c-3.77,0-5.31,3.32-5.31,6.73h10.38C771.12,487.32,769.94,484,766.05,484Z"/><path class="cls-17" d="M781.09,487c0,4.25,9.85,2.76,9.85,9.48,0,3.2-2.48,5.92-6.89,5.92a12,12,0,0,1-6-1.7l.89-2.27a9.26,9.26,0,0,0,5.07,1.66c2.43,0,3.93-1.34,3.93-3.41,0-4.78-9.73-3-9.73-9.72,0-2.68,2-5.23,6.57-5.23a12.86,12.86,0,0,1,6,1.3l-.72,2.27a10.73,10.73,0,0,0-5.19-1.22C782.3,484,781.09,485.13,781.09,487Z"/><path class="cls-17" d="M802.17,502.36c-2.8,0-5.11-1.42-5.11-6.08v-12h-3V482.1h3v-3.61l3.08-1v4.58h5.8v2.22h-5.8v12.32c0,2.11.77,3.13,2.63,3.13a8.48,8.48,0,0,0,3.17-.86l.6,2.27A9.63,9.63,0,0,1,802.17,502.36Z"/><path class="cls-17" d="M822.84,502l-.53-2.55a7.81,7.81,0,0,1-6.12,3c-4.05,0-6.4-2.72-6.4-6.08s2.51-5.67,7-5.67H822V489c0-3.45-1.5-4.91-4.5-4.91a14.6,14.6,0,0,0-6,1.3l-.81-2.23a17.47,17.47,0,0,1,7.21-1.5c4.7,0,7.09,2.43,7.09,7.17V502Zm-.89-9.24h-4.67c-3.36,0-4.49,1.46-4.49,3.45,0,2.39,1.29,4,4.17,4a7,7,0,0,0,5-2.47Z"/><path class="cls-17" d="M832.49,487c0,4.25,9.84,2.76,9.84,9.48,0,3.2-2.47,5.92-6.89,5.92a12,12,0,0,1-6-1.7l.9-2.27a9.26,9.26,0,0,0,5.06,1.66c2.44,0,3.93-1.34,3.93-3.41,0-4.78-9.72-3-9.72-9.72,0-2.68,2-5.23,6.56-5.23a12.9,12.9,0,0,1,6,1.3l-.73,2.27a10.67,10.67,0,0,0-5.19-1.22C833.7,484,832.49,485.13,832.49,487Z"/><path class="cls-17" d="M846.27,497.42h3V502h-3Z"/><path class="cls-18" d="M457.68,156.29v-1.58H473.8v2.48c0,17.36-14.43,17.7-14.43,29,0,4.17,2.93,7.44,8.57,7.44a38.17,38.17,0,0,0,13.41-2.81l4.4,13.86a50.84,50.84,0,0,1-21.2,4.29c-14,0-24.12-7.56-24.12-20.18C440.43,171.51,457.68,167.22,457.68,156.29Zm16.79-7.9H457V131.15h17.47Z"/><path class="cls-18" d="M525.65,187.52C504,187.52,491.94,174,491.94,148c0-23.23,11.05-38.79,33.71-38.79,10.83,0,20.52,2.26,27.06,6.54L546.06,130c-3.72-2.82-10.26-5.07-18.27-5.07-11.27,0-17,7.1-17,22.88,0,16.58,5.64,23.79,16.8,23.79,7,0,14.43-3.16,19.62-6.88l5.64,14.55A46.88,46.88,0,0,1,525.65,187.52Z"/><path class="cls-18" d="M594.19,187.52c-26.72,0-33.48-19.39-33.48-39.8,0-19.84,6.65-38.56,33.48-38.56,27.4,0,33.83,18.49,33.83,38.56C628,168.13,620.91,187.52,594.19,187.52Zm-14.88-81.4L577.85,96l33-4.51-.23,13.08Zm14.88,18.37c-11.84,0-14.65,10.15-14.65,23.12,0,14.43,3,24.91,14.65,24.91s14.89-10.37,14.89-24.91C609.08,134.42,606,124.49,594.19,124.49Z"/><path class="cls-18" d="M666.79,186.39l-7.33-36.19c-1-5.19-2.93-15-4.28-23.11h-.57l-.9,59.3H637.59l2.93-76.1h29.77s7,35.06,10.37,60.09h.45c4.28-25.14,12.62-60.09,12.62-60.09h29.43l3.05,76.1H705.57l-1.35-59.3h-.56c-1.47,8.79-3.27,17.58-4.51,23.11l-7.67,36.19Z"/><path class="cls-18" d="M768.7,187.52c-26.72,0-33.48-19.39-33.48-39.8,0-19.84,6.65-38.56,33.48-38.56,27.39,0,33.82,18.49,33.82,38.56C802.52,168.13,795.42,187.52,768.7,187.52Zm0-63c-11.84,0-14.66,10.15-14.66,23.12,0,14.43,3.05,24.91,14.66,24.91s14.88-10.37,14.88-24.91C783.58,134.42,780.54,124.49,768.7,124.49Z"/><path class="cls-18" d="M838.59,186.39v-76.1H856.4v61.1h31.34v15Z"/><path class="cls-18" d="M926.29,187.52c-26.72,0-33.48-19.39-33.48-39.8,0-19.84,6.65-38.56,33.48-38.56,27.4,0,33.83,18.49,33.83,38.56C960.12,168.13,953,187.52,926.29,187.52Zm0-63c-11.84,0-14.65,10.15-14.65,23.12,0,14.43,3,24.91,14.65,24.91s14.88-10.37,14.88-24.91C941.17,134.42,938.13,124.49,926.29,124.49Z"/><path class="cls-18" d="M488.46,280.33V250.12h-25v30.21H445.5v-76.1h17.93V234h25V204.23h17.92v76.1Z"/><path class="cls-18" d="M559.25,264.32H535.46l-3.38,16H514.27l20.85-76.1h27.74l20.85,76.1H562.86Zm-20.63-14.2h17.47l-6.42-30.22h-3.95Z"/><path class="cls-18" d="M615.16,252.6H609.3v27.73H591.6v-76.1h26.49c15.22,0,27.29,7.1,27.29,23.23a24.17,24.17,0,0,1-13.87,22.09l15.56,30.78H626.32Zm0-34.61H609.3v20.85h5.86c8.57,0,11.28-4.06,11.28-11.38C626.44,220.69,622.83,218,615.16,218Z"/><path class="cls-18" d="M657.32,280.33v-76.1h49.16v15H675.13v15h23.45l-1.12,15.67H675.13v15.56h31.35v14.88Z"/><path class="cls-18" d="M745.25,280.33l-7.33-36.19c-1-5.18-2.93-15-4.28-23.11h-.57l-.9,59.3H716.05l2.93-76.1h29.77s7,35.06,10.37,60.09h.45c4.28-25.14,12.63-60.09,12.63-60.09h29.42l3,76.1H784L782.68,221h-.56c-1.47,8.79-3.27,17.59-4.51,23.11l-7.67,36.19Z"/><path class="cls-18" d="M847.16,281.46c-26.72,0-33.48-19.39-33.48-39.8,0-19.84,6.65-38.56,33.48-38.56,27.4,0,33.82,18.49,33.82,38.56C881,262.07,873.88,281.46,847.16,281.46Zm0-63c-11.84,0-14.66,10.14-14.66,23.11,0,14.43,3,24.92,14.66,24.92S862,256.09,862,241.55C862,228.36,859,218.44,847.16,218.44Z"/><path class="cls-18" d="M936.55,222.5a37.92,37.92,0,0,0-17.47-3.95c-6.88,0-9.69,2.59-9.69,6,0,11.61,34.38,6.76,34.38,32.8,0,12.4-10.71,24.13-28.75,24.13a42.49,42.49,0,0,1-25.59-8.34l6.65-13.53a32.3,32.3,0,0,0,19.06,6.88c6.19,0,10-3.39,10-7.9,0-14.09-34.16-6.2-34.16-33.82,0-11.95,9.47-21.65,28.3-21.65a50.8,50.8,0,0,1,23.22,5.08Z"/><path class="cls-18" d="M978.6,255.19v1.58H962.48v-2.48c0-17.36,14.43-17.7,14.43-29,0-4.18-2.93-7.45-8.57-7.45a38.14,38.14,0,0,0-13.41,2.82l-4.4-13.87a51,51,0,0,1,21.19-4.28c14,0,24.13,7.56,24.13,20.18C995.85,240,978.6,244.25,978.6,255.19Zm-16.8,7.89h17.48v17.25H961.8Z"/></svg>