<svg id="Capa_1" data-name="Capa 1" xmlns="http://www.w3.org/2000/svg" xmlns:xlink="http://www.w3.org/1999/xlink" viewBox="0 0 512 512"><defs><style>.cls-1,.cls-12,.cls-13,.cls-6,.cls-7{fill:none;}.cls-2{fill:#6bc1dc;}.cls-3{fill:#854040;}.cls-4{fill:#c8c8ca;}.cls-5{fill:#743535;}.cls-6{stroke:#da6663;}.cls-12,.cls-6{stroke-linecap:round;stroke-linejoin:round;}.cls-12,.cls-13,.cls-6,.cls-7{stroke-width:1.25px;}.cls-7{stroke:#552626;}.cls-13,.cls-18,.cls-19,.cls-20,.cls-21,.cls-7{stroke-miterlimit:10;}.cls-8{fill:#f18781;}.cls-9{fill:#f4a59e;}.cls-10{fill:#1d1a1a;}.cls-11{fill:#da3736;}.cls-12{stroke:#a31831;}.cls-13{stroke:#0f0c0c;}.cls-14{fill:#a0b61d;}.cls-15{fill:#ca1335;}.cls-16{clip-path:url(#clip-path);}.cls-17{fill:#eb575a;}.cls-18{fill:#e7334a;}.cls-18,.cls-19,.cls-20,.cls-21{stroke:#fff;}.cls-19{fill:#55b682;}.cls-20,.cls-21{fill:#615185;}.cls-20{stroke-width:0.75px;}.cls-21{stroke-width:0.5px;}</style><clipPath id="clip-path"><path class="cls-1" d="M-333.43,343.22A160.57,160.57,0,0,0-181.28,511.78,160.56,160.56,0,0,0-12.71,359.64,160.57,160.57,0,0,0-164.86,191.07c-2.8-.15-5.57-.22-8.34-.22A160.61,160.61,0,0,0-333.43,343.22"/></clipPath></defs><path class="cls-2" d="M450.88,311.2s33.36,0,42.3,33.05,9.09,139.49,9.09,139.49L349.73,486.9S321.15,345.73,382.42,301s68.46,10.18,68.46,10.18"/><path class="cls-3" d="M450.88,311.2s-35.33,15.44-53.51,9.71,7.93-16.55,7.93-16.55,56.29-15.37,45.58,6.84"/><path class="cls-3" d="M458.08,289l-7.2,22.24-41.22.41,3.59-10.95s45.23-44,44.83-11.7"/><path class="cls-3" d="M415.13,179.61s-30,55.61-29,80,17.64,43,40,40.56,50.24-27.53,56.87-43c0,0,16.92-8.25,19.81-16.37s1.33-18.07-7.34-14.14-11,6-11,6,3-25.76,13.75-39.38c0,0-41.72-65.33-83-13.7"/><path class="cls-4" d="M502.26,227.61s11.08-35.67,9.61-42.82-8.64-27.32-34-31.57-68.09,11-79-2.24c0,0-.7,24.06,27.22,31.42s35.07,5.9,35.07,5.9-12.34,2.06-21.57,1.61c0,0,32,10,54.28,5.17,0,0-10.1,19.21-9.41,37.61l.21,5.6s11.76-17.67,17.63-10.68"/><path class="cls-4" d="M392.88,227.32s5.13-2.2,6.73-2.26-.66,3.63,2.92,3.1,2.74-1.71,6-.23,12.84,11.13,16.44,11,13.15-1.7,13.15-1.7-.7,2.43,2.52,3.11,14.38-1.34,16.47,1,6.62,5.76,10.21,5.22,10.69-3.21,12.38-.86,3.9,7.86,5.9,7.78.7,8,.37,9.6-9.16,22.78-15.07,25.41l-.25-6.4s-17.24,20.68-28,23.08l1-4.84s-15.22,10.59-21.23,10.81l1.85-4.07-6.57,6.25s-7.59.69-14.76-9.06l-.18,6s-5.78-4.59-6.15-14.59l-1.42,4.86s-5.74-3.39-9-15.29l-1.78,6.08A65.74,65.74,0,0,1,382,267.79l-4.29,3s.43-31.26,15.19-43.43"/><path class="cls-5" d="M436.2,196.84c1,3-8.51,14.72-10.46,17.33a85.87,85.87,0,0,1-14.43,14.47c-4.13,3.38-12.6,7.52-12.93,13.54-.31,5.57,6.37,5.74,10.49,5.37,14.77-1.36,32.74-34.89,27.33-50.71"/><path class="cls-6" d="M426.37,254.9s17.1-3.45,23.59-1.29-8.71,13.55-17.28,9.47"/><path class="cls-7" d="M443.64,224.21s4.17-17,13.09-14.12,2.4,21.14,5.2,21"/><path class="cls-7" d="M417.26,215.18s4.22-15.78-1-15.19-9.18,11.57-10.38,11.61"/><path class="cls-8" d="M313.39,322.49a43.34,43.34,0,0,0-1-11.05l-39,2.05-1.25,9.89c10.32-1.28,29.9-3.19,41.17-.89"/><path class="cls-9" d="M221.31,236.5s-.36,25.46,8,38.74c0,0-16.67-11.66-16.19,1s11.35,22,23.06,18.44a56.38,56.38,0,0,0,49.59,24c33.71-1.71,33.37-10.91,33.37-10.91s24.45-37.76,3.12-91.78c0,0-12.69-34.18-41.12-32.23S219,197.11,221.31,236.5"/><path class="cls-8" d="M272.51,323.35c-.1,1-.22,2-.34,3.19,14,3.52,29.93,1.77,39.37.11l.29-4.44c-11.34-1.83-29.4-.09-39.32,1.14"/><path class="cls-10" d="M335.06,205.47c-11.29-20.19-43.18-40.05-64.59-37.92S234.3,173.73,211,219.34s-3.91,141-3.91,141,55,4.07,58.43,2.62c2.47-1,5.25-23.59,6.64-36.38l-.34-.08.39-3.06.29,0c.34-3.33.54-5.46.54-5.46-19.5-5.4-36.84-23.17-36.84-23.17-8.28,1.19-18.13-4.15-21.43-10.16s-1.39-13.55,3.43-13.73,11.13,4.41,11.13,4.41c-10.49-22.42-4-48.1-4-48.1l.26,7,8.19-3.82C269.79,219.33,318,207,318,207s12,24.06,12.46,39.88c1.19,43.38-18.1,66.91-18.1,66.91l-.54,8.43c.54.08,1.06.18,1.56.28a21.39,21.39,0,0,1-.57,3.94l-1.28.22-1.93,30.22,25.23-5.33,4.72-14.66c28-72.1-4.5-131.41-4.5-131.41"/><path class="cls-11" d="M272.22,323.39l-.39,3.06.34.08c.12-1.14.24-2.21.33-3.18l-.28,0"/><path class="cls-8" d="M277,225.63s10.62,25.92,21.79,31.2c0,0-11.6,6.58-16,6.74,0,0-8.59-18.53-5.81-37.94"/><path class="cls-12" d="M295.76,280.2s-12.59,3.54-24.65-2.15-10.41,3-6.72,7.71,16.66,11.66,22.61,6.61"/><path class="cls-9" d="M271.83,326.46l-.28,2.16s37.25,6.93,40.37.38a13.32,13.32,0,0,0,.9-2.58c-9.3,1.73-26.28,3.85-41,0"/><path class="cls-11" d="M313.39,322.49c-.5-.11-1-.2-1.56-.28l-.29,4.44,1.28-.22c4.32-.81,7-1.52,7-1.52a16.87,16.87,0,0,0-6.42-2.42"/><path class="cls-11" d="M272.19,327l0-3.64c-4.17.52-6.82.93-6.82.93,1.42,1.37,4.58,2.13,6.79,2.71"/><path class="cls-13" d="M292.24,233.4s16.37,3.77,27-4.09"/><path class="cls-13" d="M233.66,250.07s15,3.39,26.44-8.45"/><path class="cls-14" d="M368.5,388c-10.92-46.46-38.08-37.55-38.08-37.55-5.53-.57-11-1-16.41-1.18,2.92-6,6.16-14.82,5.8-24.38,0,0-41.38,7.7-54.41-.59l-4.21,27.38c-44.58,5.73-75.93,18.69-75.93,18.69l-1.18,80.69S407,551.49,368.5,388Z"/><path class="cls-15" d="M303.68,435.31c47.64-75,31.73-85.52,31.73-85.52l-15.6-.19c-2.87-4.33,9,14.63-29.25,75.46-40.15-47.3-32.32-73.54-28.87-73.42l-13.21,1.94c-.77,1.46-14.55,28.12,32.93,84.31-11,17.47-21.1,21.73-12.09,64l9.2,10.12c-7.75-42.45,1.46-50.63,13.48-66.09,6.46,10.12,13,21.84,18,66.09L316,494.65c1.05-31.8-2.89-42.44-13-59.78Z"/><path class="cls-15" d="M437.74,402.65c50.7-79.79,24.13-89.71,24.13-89.71l-11-1.74c.25.24,13.67,15.86-27.09,80.54-42.74-50.34-35.67-78.54-32-78.42l8.1-6.58L397.43,301s-13.59,4.73-18.27,12.35c-2.46,4-19.8,29.48,30.74,89.27C399.42,414.06,389,437,398.63,482l13.13,12.31c-8.68-40.73,2.58-64.87,12.15-77.2,6.88,10.77,17,33.94,22.37,81L459.34,482c-5.48-48.17-14.76-69.79-22.34-79.77Z"/><g class="cls-16"><path class="cls-17" d="M-69.26,308.42s9.62,7.5,15.74,25.71A91.55,91.55,0,0,1-49,368.53l112.8-34.28L37.19,255.11Z"/></g><path class="cls-18" d="M381.25,80.22h15.07V46.71s0-6.37.58-11.24c-4.41,5.33-12.64,8.11-18.43,8.58l-2.21-14.26c10.55-2.67,18.67-7.54,24.24-14.61h13.91v65h14.26V94H381.25Z"/><path class="cls-18" d="M446.87,32.57l-5-13.45a58.92,58.92,0,0,1,24-5.1c17.85,0,30,9.16,30,22.61,0,13.1-8,25.85-33.05,43.36a62.23,62.23,0,0,1,12.76-1.16h20.63V94H442.7V80.34C471.57,58.89,476.79,47.87,476.79,40c0-6-4.76-11.13-13.92-11.13A38.68,38.68,0,0,0,446.87,32.57Z"/><path class="cls-19" d="M12.18,40.37v-.92H21.6V40.9c0,10.14-8.44,10.34-8.44,16.92,0,2.44,1.72,4.35,5,4.35A22.26,22.26,0,0,0,26,60.52l2.57,8.1a29.72,29.72,0,0,1-12.39,2.51C8,71.13,2.1,66.72,2.1,59.34,2.1,49.26,12.18,46.76,12.18,40.37ZM22,35.76H11.78V25.68H22Z"/><path class="cls-19" d="M51.89,58.61c-12.65,0-19.69-7.9-19.69-23.11,0-13.57,6.45-22.66,19.69-22.66,6.32,0,12,1.32,15.81,3.82L63.81,25c-2.17-1.64-6-3-10.67-3-6.59,0-10,4.15-10,13.37,0,9.68,3.3,13.9,9.82,13.9a21,21,0,0,0,11.46-4l3.29,8.5A27.38,27.38,0,0,1,51.89,58.61Z"/><path class="cls-19" d="M91.93,58.61c-15.61,0-19.56-11.32-19.56-23.25,0-11.59,3.89-22.52,19.56-22.52,16,0,19.76,10.8,19.76,22.52C111.69,47.29,107.54,58.61,91.93,58.61ZM83.24,11.06l-.86-5.93,19.3-2.63-.13,7.64ZM91.93,21.8c-6.92,0-8.56,5.92-8.56,13.5,0,8.43,1.78,14.55,8.56,14.55s8.7-6.06,8.7-14.55C100.63,27.59,98.85,21.8,91.93,21.8Z"/><path class="cls-19" d="M134.34,58l-4.28-21.15c-.59-3-1.71-8.76-2.5-13.5h-.33L126.7,58h-9.42L119,13.5h17.38s4.09,20.48,6.06,35.1h.27c2.5-14.69,7.37-35.1,7.37-35.1h17.19L169.05,58H157l-.79-34.65h-.33c-.86,5.14-1.91,10.27-2.63,13.5L148.77,58Z"/><path class="cls-19" d="M193.88,58.61c-15.61,0-19.56-11.32-19.56-23.25,0-11.59,3.88-22.52,19.56-22.52,16,0,19.76,10.8,19.76,22.52C213.64,47.29,209.49,58.61,193.88,58.61Zm0-36.81c-6.92,0-8.56,5.92-8.56,13.5,0,8.43,1.77,14.55,8.56,14.55s8.69-6.06,8.69-14.55C202.57,27.59,200.79,21.8,193.88,21.8Z"/><path class="cls-19" d="M234.71,58V13.5h10.4V49.19h18.32V58Z"/><path class="cls-19" d="M286,58.61c-15.61,0-19.57-11.32-19.57-23.25,0-11.59,3.89-22.52,19.57-22.52,16,0,19.76,10.8,19.76,22.52C305.71,47.29,301.56,58.61,286,58.61Zm0-36.81c-6.92,0-8.57,5.92-8.57,13.5,0,8.43,1.78,14.55,8.57,14.55s8.69-6.06,8.69-14.55C294.64,27.59,292.86,21.8,286,21.8Z"/><path class="cls-19" d="M30.16,112.84V95.19H15.53v17.65H5.06V68.38H15.53V85.77H30.16V68.38H40.63v44.46Z"/><path class="cls-19" d="M49.85,112.84V68.38h10.4v44.46Z"/><path class="cls-19" d="M87.19,113.5c-12.65,0-19.69-7.91-19.69-23.12,0-13.57,6.45-22.66,19.69-22.66,6.32,0,12,1.32,15.81,3.82l-3.89,8.37c-2.17-1.65-6-3-10.67-3-6.59,0-9.94,4.15-9.94,13.37,0,9.68,3.29,13.9,9.81,13.9a21,21,0,0,0,11.46-4l3.29,8.5A27.32,27.32,0,0,1,87.19,113.5Z"/><path class="cls-19" d="M110,112.84V68.38h10.4v44.46Z"/><path class="cls-19" d="M145.34,112.84,141.06,91.7c-.59-3-1.71-8.77-2.5-13.51h-.33l-.53,34.65h-9.42L130,68.38h17.39s4.08,20.48,6.05,35.1h.27c2.5-14.68,7.37-35.1,7.37-35.1h17.2l1.77,44.46H168l-.79-34.65h-.33C166,83.33,165,88.47,164.25,91.7l-4.48,21.14Z"/><path class="cls-19" d="M204.88,113.5c-15.61,0-19.56-11.33-19.56-23.25,0-11.6,3.88-22.53,19.56-22.53,16,0,19.76,10.8,19.76,22.53C224.64,102.17,220.49,113.5,204.88,113.5Zm0-36.82c-6.92,0-8.56,5.93-8.56,13.5,0,8.43,1.78,14.56,8.56,14.56s8.69-6.06,8.69-14.56C213.57,82.47,211.79,76.68,204.88,76.68Z"/><path class="cls-19" d="M257.1,79.05a22.19,22.19,0,0,0-10.2-2.31c-4,0-5.67,1.52-5.67,3.49,0,6.79,20.09,4,20.09,19.17,0,7.25-6.26,14.1-16.79,14.1a24.82,24.82,0,0,1-15-4.88l3.89-7.9a18.87,18.87,0,0,0,11.13,4c3.62,0,5.86-2,5.86-4.61,0-8.24-19.95-3.63-19.95-19.76,0-7,5.53-12.65,16.53-12.65a29.79,29.79,0,0,1,13.57,3Z"/><path class="cls-19" d="M281.67,98.15v.92h-9.42V97.62c0-10.14,8.43-10.34,8.43-16.92,0-2.44-1.71-4.35-5-4.35A22.42,22.42,0,0,0,267.84,78l-2.57-8.1a29.83,29.83,0,0,1,12.38-2.5c8.17,0,14.1,4.41,14.1,11.79C291.75,89.26,281.67,91.76,281.67,98.15Zm-9.81,4.61h10.2v10.08h-10.2Z"/><path class="cls-20" d="M18.76,124.53a10.22,10.22,0,0,0-4.67-1c-1.84,0-2.59.69-2.59,1.6,0,3.1,9.18,1.8,9.18,8.76,0,3.31-2.86,6.44-7.67,6.44a11.4,11.4,0,0,1-6.84-2.23L8,134.44A8.62,8.62,0,0,0,13,136.27c1.65,0,2.68-.9,2.68-2.1,0-3.77-9.13-1.66-9.13-9,0-3.19,2.53-5.78,7.56-5.78a13.6,13.6,0,0,1,6.2,1.35Z"/><path class="cls-20" d="M28.33,133.87c0,1.68,1.09,2.8,3.37,2.8a10.87,10.87,0,0,0,4.16-1.09l.84,3.31A12.79,12.79,0,0,1,31,140.28c-4.72,0-7.46-2.92-7.46-7.71,0-4.45,2.13-7.64,7.13-7.64,4.61,0,6.44,3.28,6.44,7v2Zm2.17-5.48c-1.57,0-2.17,1.41-2.17,2.77h4.25C32.58,129.59,32.13,128.39,30.5,128.39Z"/><path class="cls-20" d="M54.1,125.23,54,128.9a8.93,8.93,0,0,1-2.44-.75A5.25,5.25,0,0,1,52.81,130c0,3.65-3.67,5.15-6.32,5.15a8.41,8.41,0,0,1-1.87-.24.59.59,0,0,0-.42.57c0,1.57,9.33-.39,9.33,5.3,0,3.46-3.4,5.42-7.37,5.42-3.2,0-6.39-1.21-6.39-3.86,0-1.89,1.57-2.76,4-3.13-1.87-.21-3.92-.75-3.92-2.62,0-1.29,1.24-2.22,3-2.34A4.69,4.69,0,0,1,40.16,130c0-3.94,3.83-5,6.33-5C49,125.11,52.06,125.23,54.1,125.23Zm-8.37,14.2a1.73,1.73,0,0,0-1.59,1.78c0,1,.84,1.84,2.29,1.84s2.4-.82,2.4-2S47.72,139.58,45.73,139.43ZM48.65,130c0-1.26-1.2-1.68-2.19-1.68s-2.2.42-2.2,1.68c0,1.45,1.14,1.87,2.2,1.87S48.65,131.4,48.65,130Z"/><path class="cls-20" d="M67.5,140l-.75-1.87a5.6,5.6,0,0,1-4.61,2.17c-3.88,0-5.51-2.11-5.51-6.17v-8.88h4.76v9c0,1.83.75,2.44,2.23,2.44a4.39,4.39,0,0,0,2.14-.58V125.23h4.81V140Z"/><path class="cls-20" d="M75.45,140V128.6l-1.74-.39v-3h6.47V140Zm-.09-20.89h4.76v4.15H75.36Z"/><path class="cls-20" d="M97.91,131v9H93.09v-8.7c0-1.93-.81-2.74-2.28-2.74a4.5,4.5,0,0,0-2,.51V140H84.06V125.23h3.19l.76,1.65a5.35,5.35,0,0,1,4.33-1.95c2.5,0,3.94.69,4.73,1.95a5.52,5.52,0,0,1,4.36-1.95c4.55,0,5.57,2.25,5.57,6v9h-4.82v-8.7c0-1.93-.9-2.74-2.37-2.74a4.63,4.63,0,0,0-2,.51A12.57,12.57,0,0,1,97.91,131Z"/><path class="cls-20" d="M111.88,140V128.6l-1.74-.39v-3h6.47V140Zm-.09-20.89h4.76v4.15h-4.76Z"/><path class="cls-20" d="M124.71,133.87c0,1.68,1.08,2.8,3.37,2.8a10.82,10.82,0,0,0,4.15-1.09l.85,3.31a12.87,12.87,0,0,1-5.72,1.39c-4.73,0-7.47-2.92-7.47-7.71,0-4.45,2.14-7.64,7.14-7.64,4.6,0,6.44,3.28,6.44,7v2Zm2.16-5.48c-1.56,0-2.16,1.41-2.16,2.77H129C129,129.59,128.5,128.39,126.87,128.39Z"/><path class="cls-20" d="M145.87,140v-8.7c0-1.93-.81-2.74-2.28-2.74a4.91,4.91,0,0,0-2.08.51V140h-4.76V125.23H140l.67,1.65a5.91,5.91,0,0,1,4.69-1.95c3.86,0,5.3,2.25,5.3,6v9Z"/><path class="cls-20" d="M164.33,139.22a9,9,0,0,1-4.19,1.06c-2.77,0-4.81-1.78-4.81-5.3V128.6h-2.11v-3.37h2.2V122.7l4.63-1.51v4h3.77v3.37h-3.77v6.23a1.22,1.22,0,0,0,1.36,1.38,5.3,5.3,0,0,0,2.23-.51Z"/><path class="cls-20" d="M181,132.57c0,5.06-2.59,7.71-7.23,7.71s-7.22-2.65-7.22-7.71c0-4.33,2.59-7.64,7.22-7.64S181,128.24,181,132.57Zm-4.91,0c0-3.43-.93-4.21-2.32-4.21s-2.31.78-2.31,4.21.87,4.22,2.31,4.22S176.1,135.88,176.1,132.57Z"/><path class="cls-20" d="M197.9,139.53l-3.13.63-4.42-14.93h5.35l2.68,11.83h.09l2.74-11.83h4.7l-4.52,15.35c-1.26,4-3.58,5.6-6.71,5.6a8.34,8.34,0,0,1-4.55-1.6l1.48-3.25h.45a5.09,5.09,0,0,0,2.83,1.11,3.1,3.1,0,0,0,3-2.58Z"/><path class="cls-20" d="M10.84,159.67c0,1.69,1.08,2.8,3.37,2.8a10.84,10.84,0,0,0,4.16-1.08l.84,3.31a13,13,0,0,1-5.72,1.39c-4.73,0-7.47-2.92-7.47-7.71,0-4.46,2.14-7.65,7.14-7.65,4.6,0,6.44,3.28,6.44,7v1.95ZM13,154.19c-1.57,0-2.17,1.42-2.17,2.77h4.24C15.08,155.4,14.63,154.19,13,154.19Z"/><path class="cls-20" d="M32.58,165.78H25.66L21.38,151h5.36l2.68,11.86h.12L32.19,151h4.75Z"/><path class="cls-20" d="M48.56,165.78,48,164.1a5,5,0,0,1-4.18,2,4.71,4.71,0,0,1-5.06-4.85c0-2.83,2.11-4.43,5.75-4.43h2.74v-.54c0-1.56-1.05-1.93-2.23-1.93a10.51,10.51,0,0,0-4.39,1l-1.18-3.37a15.65,15.65,0,0,1,6-1.21c4.55,0,6.39,2,6.39,5.87v9.18Zm-1.35-6.23h-1.9c-1.26,0-1.92.61-1.92,1.57a1.6,1.6,0,0,0,1.77,1.77,4.33,4.33,0,0,0,2.05-.6Z"/><path class="cls-20" d="M60.13,145v16.2a1,1,0,0,0,1,1.14l1.2.09v3.37a14.1,14.1,0,0,1-2.49.28c-3,0-4.43-1.6-4.43-4.13V145Z"/><path class="cls-20" d="M75.87,165.78l-.75-1.86a5.6,5.6,0,0,1-4.61,2.17c-3.88,0-5.51-2.11-5.51-6.18V151h4.76v9c0,1.84.75,2.44,2.23,2.44a4.39,4.39,0,0,0,2.14-.57V151h4.81v14.75Z"/><path class="cls-20" d="M91.77,165.78l-.6-1.68a5.06,5.06,0,0,1-4.19,2,4.7,4.7,0,0,1-5-4.85c0-2.83,2.11-4.43,5.75-4.43h2.74v-.54c0-1.56-1.06-1.93-2.23-1.93a10.56,10.56,0,0,0-4.4,1l-1.17-3.37a15.61,15.61,0,0,1,6-1.21c4.55,0,6.38,2,6.38,5.87v9.18Zm-1.35-6.23h-1.9c-1.26,0-1.93.61-1.93,1.57a1.6,1.6,0,0,0,1.78,1.77,4.39,4.39,0,0,0,2-.6Z"/><path class="cls-20" d="M109.59,155.13a7.38,7.38,0,0,0-3.52-.85c-1.74,0-2.89,1-2.89,4.1s1,4.09,2.92,4.09a8.83,8.83,0,0,0,3.86-1.05l.84,3.37a11.82,11.82,0,0,1-5.15,1.3c-4.7,0-7.34-2.65-7.34-7.71,0-4.73,2.62-7.65,7.31-7.65a10.23,10.23,0,0,1,5.18,1.21Z"/><path class="cls-20" d="M115.08,165.78V154.41l-1.75-.4v-3h6.47v14.75ZM115,144.89h4.75v4.16H115Z"/><path class="cls-20" d="M137.53,158.38c0,5.06-2.58,7.71-7.22,7.71s-7.22-2.65-7.22-7.71c0-4.34,2.59-7.65,7.22-7.65S137.53,154,137.53,158.38Zm-11.1-9.63L126,146l8.09-2,.54,3.49Zm6.2,9.63c0-3.43-.93-4.22-2.32-4.22S128,155,128,158.38s.88,4.21,2.32,4.21S132.63,161.69,132.63,158.38Z"/><path class="cls-20" d="M149.94,165.78v-8.7c0-1.92-.81-2.74-2.29-2.74a5,5,0,0,0-2.08.52v10.92h-4.75V151h3.28l.66,1.66a6,6,0,0,1,4.7-2c3.85,0,5.3,2.26,5.3,6v9Z"/><path class="cls-20" d="M158,151h4.82v4.7H158Zm0,10.06h4.82v4.69H158Z"/><path class="cls-21" d="M12.93,194.26c-2.07,0-3.78-1-3.78-4.5v-8.85H6.93v-1.65H9.15v-2.67l2.28-.72v3.39h4.29v1.65H11.43V190c0,1.56.57,2.31,2,2.31a6.35,6.35,0,0,0,2.34-.63l.45,1.68A7.18,7.18,0,0,1,12.93,194.26Z"/><path class="cls-21" d="M20.19,187.27c0,3.63,1.86,5.22,4.65,5.22A9.09,9.09,0,0,0,29.4,191l.57,1.62a10.54,10.54,0,0,1-5.37,1.62c-4,0-6.69-2.67-6.69-7.74,0-4.65,2.28-7.56,6.3-7.56s5.88,3.33,5.88,7v1.29Zm3.93-6.57c-2.79,0-3.93,2.46-3.93,5h7.68C27.87,183.13,27,180.7,24.12,180.7Z"/><path class="cls-21" d="M42.81,194v-8.88c0-2.79-.87-4.32-3.36-4.32a5.44,5.44,0,0,0-3.6,1.68V194H33.57v-14.7H35.1l.45,1.74a6.43,6.43,0,0,1,4.62-2c3.45,0,5,2.07,5,5.73V194Z"/><path class="cls-21" d="M50.61,187.27c0,3.63,1.86,5.22,4.65,5.22A9.09,9.09,0,0,0,59.82,191l.57,1.62A10.54,10.54,0,0,1,55,194.26c-4,0-6.69-2.67-6.69-7.74,0-4.65,2.28-7.56,6.3-7.56s5.88,3.33,5.88,7v1.29Zm3.93-6.57c-2.79,0-3.93,2.46-3.93,5h7.68C58.29,183.13,57.42,180.7,54.54,180.7Z"/><path class="cls-21" d="M75.42,184.69V194H73.11v-8.88c0-2.79-.81-4.32-3.3-4.32a5.22,5.22,0,0,0-3.54,1.68V194H64v-14.7h1.5L66,181A6.18,6.18,0,0,1,70.44,179c2.19,0,3.6.78,4.32,2.25A6.4,6.4,0,0,1,79.35,179c3.6,0,5.19,2,5.19,5.73V194H82.23v-8.88c0-2.79-1-4.32-3.54-4.32a5.27,5.27,0,0,0-3.51,1.68A8.63,8.63,0,0,1,75.42,184.69Z"/><path class="cls-21" d="M100.2,186.58c0,4.95-2.4,7.68-6.33,7.68s-6.27-2.67-6.27-7.68c0-4.32,2-7.62,6.27-7.62C98,179,100.2,182.2,100.2,186.58Zm-2.34,0c0-3.84-1.29-5.91-4-5.91s-4,2.16-4,5.91c0,3.6,1,6,4,6S97.86,190.51,97.86,186.58Z"/><path class="cls-21" d="M105.33,182.86c0,3.15,7.29,2,7.29,7,0,2.37-1.83,4.38-5.1,4.38a8.84,8.84,0,0,1-4.44-1.26l.66-1.68a6.86,6.86,0,0,0,3.75,1.23c1.8,0,2.91-1,2.91-2.52,0-3.54-7.2-2.22-7.2-7.2,0-2,1.5-3.87,4.86-3.87a9.54,9.54,0,0,1,4.41,1l-.54,1.68a7.89,7.89,0,0,0-3.84-.9C106.23,180.7,105.33,181.51,105.33,182.86Z"/><path class="cls-21" d="M133.44,193a10.46,10.46,0,0,1-4.89,1.29c-3.72,0-6.42-2.19-6.42-7.65,0-5,2.73-7.65,6.42-7.65a9.49,9.49,0,0,1,4.8,1.17l-.66,1.62a8,8,0,0,0-4-1c-2.64,0-4.26,2.1-4.26,5.82,0,4.14,1.62,5.88,4.26,5.88a8.3,8.3,0,0,0,4.23-1.23Z"/><path class="cls-21" d="M136.56,189.91V173.26h2.25v17.49c0,1.26.57,1.77,2.19,1.77h.48v1.56a6.81,6.81,0,0,1-1.44.18C137.25,194.26,136.56,192.67,136.56,189.91Z"/><path class="cls-21" d="M153.42,194l-.39-1.89a5.79,5.79,0,0,1-4.53,2.19,4.4,4.4,0,0,1-4.74-4.5c0-2.55,1.86-4.2,5.19-4.2h3.81v-1.17c0-2.55-1.11-3.63-3.33-3.63a10.84,10.84,0,0,0-4.44,1l-.6-1.65a13,13,0,0,1,5.34-1.11c3.48,0,5.25,1.8,5.25,5.31V194Zm-.66-6.84h-3.45c-2.49,0-3.33,1.08-3.33,2.55,0,1.77,1,2.94,3.09,2.94a5.17,5.17,0,0,0,3.69-1.83Z"/><path class="cls-21" d="M166.35,181.24a5.88,5.88,0,0,0-1.89-.27,4.7,4.7,0,0,0-3.3,1.59V194h-2.28v-14.7h1.53l.42,1.86a4.87,4.87,0,0,1,3.81-2.07,6.62,6.62,0,0,1,1.86.24Z"/><path class="cls-21" d="M180.39,186.58c0,4.95-2.4,7.68-6.33,7.68s-6.27-2.67-6.27-7.68c0-4.32,2-7.62,6.27-7.62C178.14,179,180.39,182.2,180.39,186.58Zm-2.34,0c0-3.84-1.29-5.91-4-5.91s-4,2.16-4,5.91c0,3.6,1.05,6,4,6S178.05,190.51,178.05,186.58Z"/><path class="cls-21" d="M8.1,217.91V201.26h2.25v17.49c0,1.26.57,1.77,2.19,1.77H13v1.56a6.81,6.81,0,0,1-1.44.18C8.79,222.26,8.1,220.67,8.1,217.91Z"/><path class="cls-21" d="M25,222l-.39-1.89A5.79,5.79,0,0,1,20,222.26a4.4,4.4,0,0,1-4.74-4.5c0-2.55,1.86-4.2,5.19-4.2H24.3v-1.17c0-2.55-1.11-3.63-3.33-3.63a10.84,10.84,0,0,0-4.44,1l-.6-1.65A13,13,0,0,1,21.27,207c3.48,0,5.25,1.8,5.25,5.31V222Zm-.66-6.84H20.85c-2.49,0-3.33,1.08-3.33,2.55,0,1.77,1,2.94,3.09,2.94a5.17,5.17,0,0,0,3.69-1.83Z"/><path class="cls-21" d="M32.1,210.86c0,3.15,7.29,2,7.29,7,0,2.37-1.83,4.38-5.1,4.38A8.84,8.84,0,0,1,29.85,221l.66-1.68a6.86,6.86,0,0,0,3.75,1.23c1.8,0,2.91-1,2.91-2.52,0-3.54-7.2-2.22-7.2-7.2,0-2,1.5-3.87,4.86-3.87a9.54,9.54,0,0,1,4.41,1l-.54,1.68a7.89,7.89,0,0,0-3.84-.9C33,208.7,32.1,209.51,32.1,210.86Z"/><path class="cls-21" d="M57.63,202.91a6.65,6.65,0,0,0-1.89-.27c-2,0-2.85,1.11-2.85,3.45v1.17h3.48V209H52.89v13H50.64V209H48.27v-1.74h2.37v-1.32c0-3.36,1.62-5.19,4.92-5.19a9.7,9.7,0,0,1,2.28.3Z"/><path class="cls-21" d="M70.32,214.58c0,4.95-2.4,7.68-6.33,7.68s-6.27-2.67-6.27-7.68c0-4.32,2-7.62,6.27-7.62C68.07,207,70.32,210.2,70.32,214.58Zm-2.34,0c0-3.84-1.29-5.91-4-5.91s-4,2.16-4,5.91c0,3.6,1,6,4,6S68,218.51,68,214.58Z"/><path class="cls-21" d="M81.24,209.24a5.88,5.88,0,0,0-1.89-.27,4.7,4.7,0,0,0-3.3,1.59V222H73.77v-14.7H75.3l.42,1.86a4.87,4.87,0,0,1,3.81-2.07,6.62,6.62,0,0,1,1.86.24Z"/><path class="cls-21" d="M95.37,212.69V222H93.06v-8.88c0-2.79-.81-4.32-3.3-4.32a5.22,5.22,0,0,0-3.54,1.68V222H83.94v-14.7h1.5l.48,1.77A6.18,6.18,0,0,1,90.39,207c2.19,0,3.6.78,4.32,2.25A6.4,6.4,0,0,1,99.3,207c3.6,0,5.19,2,5.19,5.73V222h-2.31v-8.88c0-2.79-1.05-4.32-3.54-4.32a5.27,5.27,0,0,0-3.51,1.68A8.63,8.63,0,0,1,95.37,212.69Z"/><path class="cls-21" d="M117.15,222l-.39-1.89a5.79,5.79,0,0,1-4.53,2.19,4.4,4.4,0,0,1-4.74-4.5c0-2.55,1.86-4.2,5.19-4.2h3.81v-1.17c0-2.55-1.11-3.63-3.33-3.63a10.84,10.84,0,0,0-4.44,1l-.6-1.65a13,13,0,0,1,5.34-1.11c3.48,0,5.25,1.8,5.25,5.31V222Zm-.66-6.84H113c-2.49,0-3.33,1.08-3.33,2.55,0,1.77,1,2.94,3.09,2.94a5.17,5.17,0,0,0,3.69-1.83Z"/><path class="cls-21" d="M124.29,210.86c0,3.15,7.29,2,7.29,7,0,2.37-1.83,4.38-5.1,4.38A8.84,8.84,0,0,1,122,221l.66-1.68a6.86,6.86,0,0,0,3.75,1.23c1.8,0,2.91-1,2.91-2.52,0-3.54-7.2-2.22-7.2-7.2,0-2,1.5-3.87,4.86-3.87a9.54,9.54,0,0,1,4.41,1l-.54,1.68a7.89,7.89,0,0,0-3.84-.9C125.19,208.7,124.29,209.51,124.29,210.86Z"/><path class="cls-21" d="M151.23,220.19a5.56,5.56,0,0,1-4.23,2.07c-3.48,0-5.91-2.58-5.91-7.68,0-4.47,2.22-7.62,6.15-7.62a6.17,6.17,0,0,1,3.93,1.26,20.4,20.4,0,0,1-.12-2.4v-4.56h2.28V222h-1.71Zm-.18-10.44a6.3,6.3,0,0,0-3.57-1.05c-2.76,0-4.08,2.16-4.08,5.88s1.17,6,3.93,6a5,5,0,0,0,3.72-1.86Z"/><path class="cls-21" d="M159.09,215.27c0,3.63,1.86,5.22,4.65,5.22A9.09,9.09,0,0,0,168.3,219l.57,1.62a10.54,10.54,0,0,1-5.37,1.62c-4,0-6.69-2.67-6.69-7.74,0-4.65,2.28-7.56,6.3-7.56s5.88,3.33,5.88,7v1.29ZM163,208.7c-2.79,0-3.93,2.46-3.93,5h7.68C166.77,211.13,165.9,208.7,163,208.7Z"/><path class="cls-21" d="M15.45,237.24a5.88,5.88,0,0,0-1.89-.27,4.7,4.7,0,0,0-3.3,1.59V250H8v-14.7H9.51l.42,1.86a4.87,4.87,0,0,1,3.81-2.07,6.62,6.62,0,0,1,1.86.24Z"/><path class="cls-21" d="M19.2,243.27c0,3.63,1.86,5.22,4.65,5.22A9.09,9.09,0,0,0,28.41,247l.57,1.62a10.54,10.54,0,0,1-5.37,1.62c-4,0-6.69-2.67-6.69-7.74,0-4.65,2.28-7.56,6.3-7.56s5.88,3.33,5.88,7v1.29Zm3.93-6.57c-2.79,0-3.93,2.46-3.93,5h7.68C26.88,239.13,26,236.7,23.13,236.7Z"/><path class="cls-21" d="M39.06,250H35.67L31,235.26h2.52l4,13.29h.06l4-13.29h2.34Z"/><path class="cls-21" d="M47.37,250V237.09l-1.62-.33v-1.5h3.84V250Zm-.21-20.49h2.43v2.4H47.16Z"/><path class="cls-21" d="M55.26,238.86c0,3.15,7.29,2,7.29,7,0,2.37-1.83,4.38-5.1,4.38A8.84,8.84,0,0,1,53,249l.66-1.68a6.86,6.86,0,0,0,3.75,1.23c1.8,0,2.91-1,2.91-2.52,0-3.54-7.2-2.22-7.2-7.2,0-2,1.5-3.87,4.86-3.87a9.54,9.54,0,0,1,4.41,1l-.54,1.68a7.89,7.89,0,0,0-3.84-.9C56.16,236.7,55.26,237.51,55.26,238.86Z"/><path class="cls-21" d="M67.08,250V237.09l-1.62-.33v-1.5H69.3V250Zm-.21-20.49H69.3v2.4H66.87Z"/><path class="cls-21" d="M85.38,242.58c0,4.95-2.4,7.68-6.33,7.68s-6.27-2.67-6.27-7.68c0-4.32,2-7.62,6.27-7.62C83.13,235,85.38,238.2,85.38,242.58Zm-2.34,0c0-3.84-1.29-5.91-4-5.91s-4,2.16-4,5.91c0,3.6,1,6,4,6S83,246.51,83,242.58ZM75.87,233l-.33-1.35,6.63-2.46.45,1.71Z"/><path class="cls-21" d="M98.07,250v-8.88c0-2.79-.87-4.32-3.36-4.32a5.44,5.44,0,0,0-3.6,1.68V250H88.83v-14.7h1.53l.45,1.74a6.43,6.43,0,0,1,4.62-2c3.45,0,5,2.07,5,5.73V250Z"/><path class="cls-21" d="M112.47,243.27c0,3.63,1.86,5.22,4.65,5.22a9.09,9.09,0,0,0,4.56-1.47l.57,1.62a10.54,10.54,0,0,1-5.37,1.62c-4,0-6.69-2.67-6.69-7.74,0-4.65,2.28-7.56,6.3-7.56s5.88,3.33,5.88,7v1.29Zm3.93-6.57c-2.79,0-3.93,2.46-3.93,5h7.68C120.15,239.13,119.28,236.7,116.4,236.7Z"/><path class="cls-21" d="M135.09,250v-8.88c0-2.79-.87-4.32-3.36-4.32a5.44,5.44,0,0,0-3.6,1.68V250h-2.28v-14.7h1.53l.45,1.74a6.43,6.43,0,0,1,4.62-2c3.45,0,5,2.07,5,5.73V250Z"/><path class="cls-21" d="M18.84,277A10.46,10.46,0,0,1,14,278.26c-3.72,0-6.42-2.19-6.42-7.65,0-5,2.73-7.65,6.42-7.65a9.49,9.49,0,0,1,4.8,1.17l-.66,1.62a8,8,0,0,0-4-1c-2.64,0-4.26,2.1-4.26,5.82,0,4.14,1.62,5.88,4.26,5.88a8.3,8.3,0,0,0,4.23-1.23Z"/><path class="cls-21" d="M30.93,278l-.39-1.89A5.79,5.79,0,0,1,26,278.26a4.4,4.4,0,0,1-4.74-4.5c0-2.55,1.86-4.2,5.19-4.2h3.81v-1.17c0-2.55-1.11-3.63-3.33-3.63a10.84,10.84,0,0,0-4.44,1l-.6-1.65A13,13,0,0,1,27.24,263c3.48,0,5.25,1.8,5.25,5.31V278Zm-.66-6.84H26.82c-2.49,0-3.33,1.08-3.33,2.55,0,1.77,1,2.94,3.09,2.94a5.17,5.17,0,0,0,3.69-1.83Z"/><path class="cls-21" d="M46.08,276.19a5.56,5.56,0,0,1-4.23,2.07c-3.48,0-5.91-2.58-5.91-7.68,0-4.47,2.22-7.62,6.15-7.62A6.17,6.17,0,0,1,46,264.22a20.4,20.4,0,0,1-.12-2.4v-4.56h2.28V278H46.47Zm-.18-10.44a6.3,6.3,0,0,0-3.57-1.05c-2.76,0-4.08,2.16-4.08,5.88s1.17,6,3.93,6a5,5,0,0,0,3.72-1.86Z"/><path class="cls-21" d="M61.23,278l-.39-1.89a5.79,5.79,0,0,1-4.53,2.19,4.4,4.4,0,0,1-4.74-4.5c0-2.55,1.86-4.2,5.19-4.2h3.81v-1.17c0-2.55-1.11-3.63-3.33-3.63a10.84,10.84,0,0,0-4.44,1l-.6-1.65A13,13,0,0,1,57.54,263c3.48,0,5.25,1.8,5.25,5.31V278Zm-.66-6.84H57.12c-2.49,0-3.33,1.08-3.33,2.55,0,1.77,1,2.94,3.09,2.94a5.17,5.17,0,0,0,3.69-1.83Z"/><path class="cls-21" d="M75.09,271.27c0,3.63,1.86,5.22,4.65,5.22A9.09,9.09,0,0,0,84.3,275l.57,1.62a10.54,10.54,0,0,1-5.37,1.62c-4,0-6.69-2.67-6.69-7.74,0-4.65,2.28-7.56,6.3-7.56S85,266.29,85,270v1.29ZM79,264.7c-2.79,0-3.93,2.46-3.93,5h7.68C82.77,267.13,81.9,264.7,79,264.7Z"/><path class="cls-21" d="M93.42,278.26c-2.07,0-3.78-1.05-3.78-4.5v-8.85H87.42v-1.65h2.22v-2.67l2.28-.72v3.39h4.29v1.65H91.92V274c0,1.56.57,2.31,2,2.31a6.35,6.35,0,0,0,2.34-.63l.45,1.68A7.18,7.18,0,0,1,93.42,278.26Z"/><path class="cls-21" d="M108.27,278l-.39-1.89a5.79,5.79,0,0,1-4.53,2.19,4.4,4.4,0,0,1-4.74-4.5c0-2.55,1.86-4.2,5.19-4.2h3.81v-1.17c0-2.55-1.11-3.63-3.33-3.63a10.84,10.84,0,0,0-4.44,1l-.6-1.65a13,13,0,0,1,5.34-1.11c3.48,0,5.25,1.8,5.25,5.31V278Zm-.66-6.84h-3.45c-2.49,0-3.33,1.08-3.33,2.55,0,1.77,1,2.94,3.09,2.94a5.17,5.17,0,0,0,3.69-1.83Z"/><path class="cls-21" d="M116,279v4.71h-2.31v-20.4h1.77l.36,1.74a5.92,5.92,0,0,1,4.29-2c3.75,0,5.61,2.67,5.61,7.62,0,5.19-2.58,7.68-6.09,7.68a5.17,5.17,0,0,1-4-1.68A13.67,13.67,0,0,1,116,279Zm0-4a4.92,4.92,0,0,0,3.48,1.59c2.67,0,3.93-1.74,3.93-6,0-3.87-1.11-5.85-3.78-5.85a5.27,5.27,0,0,0-3.63,1.71Z"/><path class="cls-21" d="M137.88,278l-.39-1.89a5.79,5.79,0,0,1-4.53,2.19,4.4,4.4,0,0,1-4.74-4.5c0-2.55,1.86-4.2,5.19-4.2h3.81v-1.17c0-2.55-1.11-3.63-3.33-3.63a10.84,10.84,0,0,0-4.44,1l-.6-1.65a13,13,0,0,1,5.34-1.11c3.48,0,5.25,1.8,5.25,5.31V278Zm-.66-6.84h-3.45c-2.49,0-3.33,1.08-3.33,2.55,0,1.77,1,2.94,3.09,2.94a5.17,5.17,0,0,0,3.69-1.83Z"/><path class="cls-21" d="M159.63,276.19a5.56,5.56,0,0,1-4.23,2.07c-3.48,0-5.91-2.58-5.91-7.68,0-4.47,2.22-7.62,6.15-7.62a6.17,6.17,0,0,1,3.93,1.26,20.4,20.4,0,0,1-.12-2.4v-4.56h2.28V278H160Zm-.18-10.44a6.3,6.3,0,0,0-3.57-1.05c-2.76,0-4.08,2.16-4.08,5.88s1.17,6,3.93,6a5,5,0,0,0,3.72-1.86Z"/><path class="cls-21" d="M167.49,271.27c0,3.63,1.86,5.22,4.65,5.22A9.09,9.09,0,0,0,176.7,275l.57,1.62a10.54,10.54,0,0,1-5.37,1.62c-4,0-6.69-2.67-6.69-7.74,0-4.65,2.28-7.56,6.3-7.56s5.88,3.33,5.88,7v1.29Zm3.93-6.57c-2.79,0-3.93,2.46-3.93,5h7.68C175.17,267.13,174.3,264.7,171.42,264.7Z"/><path class="cls-21" d="M17.67,304.19a5.56,5.56,0,0,1-4.23,2.07c-3.48,0-5.91-2.58-5.91-7.68,0-4.47,2.22-7.62,6.15-7.62a6.17,6.17,0,0,1,3.93,1.26,20.4,20.4,0,0,1-.12-2.4v-4.56h2.28V306H18.06Zm-.18-10.44a6.3,6.3,0,0,0-3.57-1.05c-2.76,0-4.08,2.16-4.08,5.88s1.17,6,3.93,6a5,5,0,0,0,3.72-1.86Z"/><path class="cls-21" d="M25.53,299.27c0,3.63,1.86,5.22,4.65,5.22A9.09,9.09,0,0,0,34.74,303l.57,1.62a10.54,10.54,0,0,1-5.37,1.62c-4,0-6.69-2.67-6.69-7.74,0-4.65,2.28-7.56,6.3-7.56s5.88,3.33,5.88,7v1.29Zm3.93-6.57c-2.79,0-3.93,2.46-3.93,5h7.68C33.21,295.13,32.34,292.7,29.46,292.7Z"/><path class="cls-21" d="M40.59,294.86c0,3.15,7.29,2,7.29,7,0,2.37-1.83,4.38-5.1,4.38A8.84,8.84,0,0,1,38.34,305l.66-1.68a6.86,6.86,0,0,0,3.75,1.23c1.8,0,2.91-1,2.91-2.52,0-3.54-7.2-2.22-7.2-7.2,0-2,1.5-3.87,4.86-3.87a9.54,9.54,0,0,1,4.41,1l-.54,1.68a7.89,7.89,0,0,0-3.84-.9C41.49,292.7,40.59,293.51,40.59,294.86Z"/><path class="cls-21" d="M60.33,306l-.39-1.89a5.79,5.79,0,0,1-4.53,2.19,4.4,4.4,0,0,1-4.74-4.5c0-2.55,1.86-4.2,5.19-4.2h3.81v-1.17c0-2.55-1.11-3.63-3.33-3.63a10.84,10.84,0,0,0-4.44,1l-.6-1.65A13,13,0,0,1,56.64,291c3.48,0,5.25,1.8,5.25,5.31V306Zm-.66-6.84H56.22c-2.49,0-3.33,1.08-3.33,2.55,0,1.77,1,2.94,3.09,2.94a5.17,5.17,0,0,0,3.69-1.83Z"/><path class="cls-21" d="M73.26,293.24a5.88,5.88,0,0,0-1.89-.27,4.7,4.7,0,0,0-3.3,1.59V306H65.79v-14.7h1.53l.42,1.86a4.87,4.87,0,0,1,3.81-2.07,6.62,6.62,0,0,1,1.86.24Z"/><path class="cls-21" d="M83.43,293.24a5.88,5.88,0,0,0-1.89-.27,4.7,4.7,0,0,0-3.3,1.59V306H76v-14.7h1.53l.42,1.86a4.87,4.87,0,0,1,3.81-2.07,6.62,6.62,0,0,1,1.86.24Z"/><path class="cls-21" d="M97.47,298.58c0,4.95-2.4,7.68-6.33,7.68s-6.27-2.67-6.27-7.68c0-4.32,2-7.62,6.27-7.62C95.22,291,97.47,294.2,97.47,298.58Zm-2.34,0c0-3.84-1.29-5.91-4-5.91s-4,2.16-4,5.91,1,6,4,6S95.13,302.51,95.13,298.58Z"/><path class="cls-21" d="M101,301.91V285.26h2.25v17.49c0,1.26.57,1.77,2.19,1.77H106v1.56a6.81,6.81,0,0,1-1.44.18C101.73,306.26,101,304.67,101,301.91Z"/><path class="cls-21" d="M108.93,301.91V285.26h2.25v17.49c0,1.26.57,1.77,2.19,1.77h.48v1.56a6.81,6.81,0,0,1-1.44.18C109.62,306.26,108.93,304.67,108.93,301.91Z"/><path class="cls-21" d="M128.79,298.58c0,4.95-2.4,7.68-6.33,7.68s-6.27-2.67-6.27-7.68c0-4.32,2-7.62,6.27-7.62S128.79,294.2,128.79,298.58Zm-2.34,0c0-3.84-1.29-5.91-4-5.91s-4,2.16-4,5.91,1,6,4,6S126.45,302.51,126.45,298.58Z"/><path class="cls-21" d="M143.91,305.87l-1.5.12-4.71-14.73h2.52s2.76,8.94,4,13.35c1.29-4.44,4-13.35,4-13.35h2.34l-4.71,14.55c-1.53,4.68-3.06,6.18-5.88,6.18a5.89,5.89,0,0,1-3.27-1.17l.75-1.53h.18a4.27,4.27,0,0,0,2.46.93c1.71,0,2.7-1,3.63-3.81Z"/><path class="cls-21" d="M18.84,333A10.46,10.46,0,0,1,14,334.26c-3.72,0-6.42-2.19-6.42-7.65,0-5,2.73-7.65,6.42-7.65a9.49,9.49,0,0,1,4.8,1.17l-.66,1.62a8,8,0,0,0-4-1c-2.64,0-4.26,2.1-4.26,5.82,0,4.14,1.62,5.88,4.26,5.88a8.3,8.3,0,0,0,4.23-1.23Z"/><path class="cls-21" d="M33.93,326.58c0,4.95-2.4,7.68-6.33,7.68s-6.27-2.67-6.27-7.68c0-4.32,2-7.62,6.27-7.62C31.68,319,33.93,322.2,33.93,326.58Zm-2.34,0c0-3.84-1.29-5.91-4-5.91s-4,2.16-4,5.91,1.05,6,4,6S31.59,330.51,31.59,326.58Z"/><path class="cls-21" d="M48.81,324.69V334H46.5v-8.88c0-2.79-.81-4.32-3.3-4.32a5.22,5.22,0,0,0-3.54,1.68V334H37.38v-14.7h1.5l.48,1.77A6.18,6.18,0,0,1,43.83,319c2.19,0,3.6.78,4.32,2.25A6.4,6.4,0,0,1,52.74,319c3.6,0,5.19,2,5.19,5.73V334H55.62v-8.88c0-2.79-1-4.32-3.54-4.32a5.27,5.27,0,0,0-3.51,1.68A8.63,8.63,0,0,1,48.81,324.69Z"/><path class="cls-21" d="M73.59,326.58c0,4.95-2.4,7.68-6.33,7.68S61,331.59,61,326.58c0-4.32,2-7.62,6.27-7.62C71.34,319,73.59,322.2,73.59,326.58Zm-2.34,0c0-3.84-1.29-5.91-4-5.91s-4,2.16-4,5.91,1,6,4,6S71.25,330.51,71.25,326.58Z"/><path class="cls-21" d="M9.78,355.27c0,3.63,1.86,5.22,4.65,5.22A9.09,9.09,0,0,0,19,359l.57,1.62a10.54,10.54,0,0,1-5.37,1.62c-4,0-6.69-2.67-6.69-7.74,0-4.65,2.28-7.56,6.3-7.56s5.88,3.33,5.88,7v1.29Zm3.93-6.57c-2.79,0-3.93,2.46-3.93,5h7.68C17.46,351.13,16.59,348.7,13.71,348.7Z"/><path class="cls-21" d="M29.64,362H26.25l-4.71-14.7h2.52l4,13.29h.06l4-13.29h2.34Z"/><path class="cls-21" d="M45.87,362l-.39-1.89A5.79,5.79,0,0,1,41,362.26a4.4,4.4,0,0,1-4.74-4.5c0-2.55,1.86-4.2,5.19-4.2h3.81v-1.17c0-2.55-1.11-3.63-3.33-3.63a10.84,10.84,0,0,0-4.44,1l-.6-1.65A13,13,0,0,1,42.18,347c3.48,0,5.25,1.8,5.25,5.31V362Zm-.66-6.84H41.76c-2.49,0-3.33,1.08-3.33,2.55,0,1.77,1,2.94,3.09,2.94a5.17,5.17,0,0,0,3.69-1.83Z"/><path class="cls-21" d="M51.45,357.91V341.26H53.7v17.49c0,1.26.57,1.77,2.19,1.77h.48v1.56a6.81,6.81,0,0,1-1.44.18C52.14,362.26,51.45,360.67,51.45,357.91Z"/><path class="cls-21" d="M69,362l-.33-1.68a6.25,6.25,0,0,1-4.56,2c-3.27,0-5.07-1.95-5.07-6v-9h2.28v8.88c0,3,1,4.29,3.33,4.29A5.8,5.8,0,0,0,68.28,359V347.26h2.31V362Z"/><path class="cls-21" d="M83.46,362l-.39-1.89a5.79,5.79,0,0,1-4.53,2.19,4.4,4.4,0,0,1-4.74-4.5c0-2.55,1.86-4.2,5.19-4.2H82.8v-1.17c0-2.55-1.11-3.63-3.33-3.63a10.84,10.84,0,0,0-4.44,1l-.6-1.65A13,13,0,0,1,79.77,347c3.48,0,5.25,1.8,5.25,5.31V362Zm-.66-6.84H79.35c-2.49,0-3.33,1.08-3.33,2.55,0,1.77,1,2.94,3.09,2.94a5.17,5.17,0,0,0,3.69-1.83Z"/><path class="cls-21" d="M96.39,349.24A5.88,5.88,0,0,0,94.5,349a4.7,4.7,0,0,0-3.3,1.59V362H88.92v-14.7h1.53l.42,1.86a4.87,4.87,0,0,1,3.81-2.07,6.62,6.62,0,0,1,1.86.24Z"/><path class="cls-21" d="M100.14,355.27c0,3.63,1.86,5.22,4.65,5.22a9.09,9.09,0,0,0,4.56-1.47l.57,1.62a10.54,10.54,0,0,1-5.37,1.62c-4,0-6.69-2.67-6.69-7.74,0-4.65,2.28-7.56,6.3-7.56s5.88,3.33,5.88,7v1.29Zm3.93-6.57c-2.79,0-3.93,2.46-3.93,5h7.68C107.82,351.13,107,348.7,104.07,348.7Z"/><path class="cls-21" d="M125,352.69V362h-2.31v-8.88c0-2.79-.81-4.32-3.3-4.32a5.22,5.22,0,0,0-3.54,1.68V362h-2.28v-14.7H115l.48,1.77A6.18,6.18,0,0,1,120,347c2.19,0,3.6.78,4.32,2.25a6.4,6.4,0,0,1,4.59-2.25c3.6,0,5.19,2,5.19,5.73V362h-2.31v-8.88c0-2.79-1-4.32-3.54-4.32a5.27,5.27,0,0,0-3.51,1.68A8.63,8.63,0,0,1,125,352.69Z"/><path class="cls-21" d="M149.73,354.58c0,4.95-2.4,7.68-6.33,7.68s-6.27-2.67-6.27-7.68c0-4.32,2-7.62,6.27-7.62C147.48,347,149.73,350.2,149.73,354.58Zm-2.34,0c0-3.84-1.29-5.91-4-5.91s-4,2.16-4,5.91,1.05,6,4,6S147.39,358.51,147.39,354.58Z"/><path class="cls-21" d="M154.86,350.86c0,3.15,7.29,2,7.29,7,0,2.37-1.83,4.38-5.1,4.38a8.84,8.84,0,0,1-4.44-1.26l.66-1.68a6.86,6.86,0,0,0,3.75,1.23c1.8,0,2.91-1,2.91-2.52,0-3.54-7.2-2.22-7.2-7.2,0-2,1.5-3.87,4.86-3.87a9.54,9.54,0,0,1,4.41,1l-.54,1.68a7.89,7.89,0,0,0-3.84-.9C155.76,348.7,154.86,349.51,154.86,350.86Z"/><path class="cls-21" d="M173.91,355.27c0,3.63,1.86,5.22,4.65,5.22a9.09,9.09,0,0,0,4.56-1.47l.57,1.62a10.54,10.54,0,0,1-5.37,1.62c-4,0-6.69-2.67-6.69-7.74,0-4.65,2.28-7.56,6.3-7.56s5.88,3.33,5.88,7v1.29Zm3.93-6.57c-2.79,0-3.93,2.46-3.93,5h7.68C181.59,351.13,180.72,348.7,177.84,348.7Z"/><path class="cls-21" d="M187.41,357.91V341.26h2.25v17.49c0,1.26.57,1.77,2.19,1.77h.48v1.56a6.81,6.81,0,0,1-1.44.18C188.1,362.26,187.41,360.67,187.41,357.91Z"/><path class="cls-21" d="M18.84,389A10.46,10.46,0,0,1,14,390.26c-3.72,0-6.42-2.19-6.42-7.65,0-5,2.73-7.65,6.42-7.65a9.49,9.49,0,0,1,4.8,1.17l-.66,1.62a8,8,0,0,0-4-1c-2.64,0-4.26,2.1-4.26,5.82,0,4.14,1.62,5.88,4.26,5.88a8.3,8.3,0,0,0,4.23-1.23Z"/><path class="cls-21" d="M31.62,390l-.33-1.68a6.25,6.25,0,0,1-4.56,2c-3.27,0-5.07-1.95-5.07-6v-9h2.28v8.88c0,3,1,4.29,3.33,4.29A5.8,5.8,0,0,0,30.9,387V375.26h2.31V390Z"/><path class="cls-21" d="M48.42,380.69V390H46.11v-8.88c0-2.79-.81-4.32-3.3-4.32a5.22,5.22,0,0,0-3.54,1.68V390H37v-14.7h1.5L39,377A6.18,6.18,0,0,1,43.44,375c2.19,0,3.6.78,4.32,2.25A6.4,6.4,0,0,1,52.35,375c3.6,0,5.19,2,5.19,5.73V390H55.23v-8.88c0-2.79-1-4.32-3.54-4.32a5.27,5.27,0,0,0-3.51,1.68A8.63,8.63,0,0,1,48.42,380.69Z"/><path class="cls-21" d="M63.42,391v4.71H61.11v-20.4h1.77l.36,1.74a5.92,5.92,0,0,1,4.29-2c3.75,0,5.61,2.67,5.61,7.62,0,5.19-2.58,7.68-6.09,7.68a5.17,5.17,0,0,1-4-1.68A13.67,13.67,0,0,1,63.42,391Zm0-4a4.92,4.92,0,0,0,3.48,1.59c2.67,0,3.93-1.74,3.93-6,0-3.87-1.11-5.85-3.78-5.85a5.27,5.27,0,0,0-3.63,1.71Z"/><path class="cls-21" d="M76.74,385.91V369.26H79v17.49c0,1.26.57,1.77,2.19,1.77h.48v1.56a6.81,6.81,0,0,1-1.44.18C77.43,390.26,76.74,388.67,76.74,385.91Z"/><path class="cls-21" d="M85.68,390V377.09l-1.62-.33v-1.5H87.9V390Zm-.21-20.49H87.9v2.4H85.47Z"/><path class="cls-21" d="M103.32,380.69V390H101v-8.88c0-2.79-.81-4.32-3.3-4.32a5.22,5.22,0,0,0-3.54,1.68V390H91.89v-14.7h1.5l.48,1.77A6.18,6.18,0,0,1,98.34,375c2.19,0,3.6.78,4.32,2.25a6.4,6.4,0,0,1,4.59-2.25c3.6,0,5.19,2,5.19,5.73V390h-2.31v-8.88c0-2.79-1-4.32-3.54-4.32a5.27,5.27,0,0,0-3.51,1.68A8.63,8.63,0,0,1,103.32,380.69Z"/><path class="cls-21" d="M117.18,390V377.09l-1.62-.33v-1.5h3.84V390ZM117,369.47h2.43v2.4H117Z"/><path class="cls-21" d="M125.19,383.27c0,3.63,1.86,5.22,4.65,5.22A9.09,9.09,0,0,0,134.4,387l.57,1.62a10.54,10.54,0,0,1-5.37,1.62c-4,0-6.69-2.67-6.69-7.74,0-4.65,2.28-7.56,6.3-7.56s5.88,3.33,5.88,7v1.29Zm3.93-6.57c-2.79,0-3.93,2.46-3.93,5h7.68C132.87,379.13,132,376.7,129.12,376.7Z"/><path class="cls-21" d="M147.81,390v-8.88c0-2.79-.87-4.32-3.36-4.32a5.44,5.44,0,0,0-3.6,1.68V390h-2.28v-14.7h1.53l.45,1.74a6.43,6.43,0,0,1,4.62-2c3.45,0,5,2.07,5,5.73V390Z"/><path class="cls-21" d="M158.76,390.26c-2.07,0-3.78-1.05-3.78-4.5v-8.85h-2.22v-1.65H155v-2.67l2.28-.72v3.39h4.29v1.65h-4.29V386c0,1.56.57,2.31,2,2.31a6.35,6.35,0,0,0,2.34-.63l.45,1.68A7.18,7.18,0,0,1,158.76,390.26Z"/><path class="cls-21" d="M176.31,382.58c0,4.95-2.4,7.68-6.33,7.68s-6.27-2.67-6.27-7.68c0-4.32,2-7.62,6.27-7.62S176.31,378.2,176.31,382.58Zm-2.34,0c0-3.84-1.29-5.91-4-5.91s-4,2.16-4,5.91,1,6,4,6S174,386.51,174,382.58Z"/><path class="cls-21" d="M17.67,416.19a5.56,5.56,0,0,1-4.23,2.07c-3.48,0-5.91-2.58-5.91-7.68,0-4.47,2.22-7.62,6.15-7.62a6.17,6.17,0,0,1,3.93,1.26,20.4,20.4,0,0,1-.12-2.4v-4.56h2.28V418H18.06Zm-.18-10.44a6.3,6.3,0,0,0-3.57-1.05c-2.76,0-4.08,2.16-4.08,5.88s1.17,6,3.93,6a5,5,0,0,0,3.72-1.86Z"/><path class="cls-21" d="M25.53,411.27c0,3.63,1.86,5.22,4.65,5.22A9.09,9.09,0,0,0,34.74,415l.57,1.62a10.54,10.54,0,0,1-5.37,1.62c-4,0-6.69-2.67-6.69-7.74,0-4.65,2.28-7.56,6.3-7.56s5.88,3.33,5.88,7v1.29Zm3.93-6.57c-2.79,0-3.93,2.46-3.93,5h7.68C33.21,407.13,32.34,404.7,29.46,404.7Z"/><path class="cls-21" d="M57.6,410.58c0,4.95-2.4,7.68-6.33,7.68S45,415.59,45,410.58c0-4.32,2-7.62,6.27-7.62C55.35,403,57.6,406.2,57.6,410.58Zm-2.34,0c0-3.84-1.29-5.91-4-5.91s-4,2.16-4,5.91,1,6,4,6S55.26,414.51,55.26,410.58Z"/><path class="cls-21" d="M63.09,404.94a6.31,6.31,0,0,1,4.38-2c3.75,0,5.7,2.67,5.7,7.62,0,5.19-2.58,7.68-6.12,7.68a5.69,5.69,0,0,1-4.26-1.89L62.31,418H61.05v-20.7h2.28V403Zm.24,9.93a5.21,5.21,0,0,0,3.57,1.68c2.58,0,4-1.74,4-6,0-3.87-1.14-5.88-3.81-5.88a5.49,5.49,0,0,0-3.72,1.65Z"/><path class="cls-21" d="M80.16,418.2c0,3-1.5,4.44-3.6,4.44a6.08,6.08,0,0,1-2.1-.39l.27-1.92a4.39,4.39,0,0,0,1.44.27c1.14,0,1.74-.84,1.74-2.37V405.06l-1.62-.33v-1.47h3.87Zm-2.43-20.73h2.43v2.4H77.73Z"/><path class="cls-21" d="M86.43,411.27c0,3.63,1.86,5.22,4.65,5.22A9.09,9.09,0,0,0,95.64,415l.57,1.62a10.54,10.54,0,0,1-5.37,1.62c-4,0-6.69-2.67-6.69-7.74,0-4.65,2.28-7.56,6.3-7.56s5.88,3.33,5.88,7v1.29Zm3.93-6.57c-2.79,0-3.93,2.46-3.93,5h7.68C94.11,407.13,93.24,404.7,90.36,404.7Z"/><path class="cls-21" d="M104.76,418.26c-2.07,0-3.78-1.05-3.78-4.5v-8.85H98.76v-1.65H101v-2.67l2.28-.72v3.39h4.29v1.65h-4.29V414c0,1.56.57,2.31,1.95,2.31a6.35,6.35,0,0,0,2.34-.63l.45,1.68A7.18,7.18,0,0,1,104.76,418.26Z"/><path class="cls-21" d="M112.14,418V405.09l-1.62-.33v-1.5h3.84V418Zm-.21-20.49h2.43v2.4h-2.43Z"/><path class="cls-21" d="M124.83,418h-3.39l-4.71-14.7h2.52l4,13.29h.06l4-13.29h2.34Z"/><path class="cls-21" d="M144.06,410.58c0,4.95-2.4,7.68-6.33,7.68s-6.27-2.67-6.27-7.68c0-4.32,2-7.62,6.27-7.62S144.06,406.2,144.06,410.58Zm-2.34,0c0-3.84-1.29-5.91-4-5.91s-4,2.16-4,5.91,1,6,4,6S141.72,414.51,141.72,410.58Z"/><path class="cls-21" d="M149.19,406.86c0,3.15,7.29,2,7.29,7,0,2.37-1.83,4.38-5.1,4.38a8.84,8.84,0,0,1-4.44-1.26l.66-1.68a6.86,6.86,0,0,0,3.75,1.23c1.8,0,2.91-1,2.91-2.52,0-3.54-7.2-2.22-7.2-7.2,0-2,1.5-3.87,4.86-3.87a9.54,9.54,0,0,1,4.41,1l-.54,1.68a7.89,7.89,0,0,0-3.84-.9C150.09,404.7,149.19,405.51,149.19,406.86Z"/><path class="cls-21" d="M159.39,414.6h2.25V418h-2.25Z"/></svg>