<svg id="Capa_1" data-name="Capa 1" xmlns="http://www.w3.org/2000/svg" viewBox="0 0 1024 512"><defs><style>.cls-1{fill:#6bc1dc;}.cls-2{fill:#854040;}.cls-3{fill:#c8c8ca;}.cls-4{fill:#743535;}.cls-11,.cls-12,.cls-5,.cls-6{fill:none;stroke-width:1.25px;}.cls-5{stroke:#da6663;}.cls-11,.cls-5{stroke-linecap:round;stroke-linejoin:round;}.cls-6{stroke:#552626;}.cls-12,.cls-15,.cls-16,.cls-17,.cls-18,.cls-6{stroke-miterlimit:10;}.cls-7{fill:#f18781;}.cls-8{fill:#f4a59e;}.cls-9{fill:#1d1a1a;}.cls-10{fill:#da3736;}.cls-11{stroke:#a31831;}.cls-12{stroke:#0f0c0c;}.cls-13{fill:#a0b61d;}.cls-14{fill:#ca1335;}.cls-15{fill:#e7334a;}.cls-15,.cls-16,.cls-17,.cls-18{stroke:#fff;}.cls-16{fill:#55b682;}.cls-17,.cls-18{fill:#615185;}.cls-17{stroke-width:0.5px;}</style></defs><path class="cls-1" d="M400,249.33s45.66,0,57.89,45.24,12.45,190.94,12.45,190.94l-208.81,4.34s-39.13-193.26,44.74-254.46S400,249.33,400,249.33"/><path class="cls-2" d="M400,249.33s-48.38,21.14-73.26,13.29S337.59,240,337.59,240s77.06-21,62.4,9.36"/><path class="cls-2" d="M409.83,218.89,400,249.33l-56.44.56,4.92-15s61.92-60.16,61.36-16"/><path class="cls-2" d="M351,69.2s-41,76.12-39.76,109.52,24.15,58.86,54.73,55.53,68.78-37.69,77.86-58.87c0,0,23.15-11.29,27.12-22.4s1.82-24.75-10.05-19.37-15,8.24-15,8.24,4.16-35.25,18.81-53.9c0,0-57.11-89.43-113.67-18.75"/><path class="cls-3" d="M470.31,134.9s15.17-48.83,13.15-58.62-11.82-37.39-46.59-43.22-93.21,15-108.15-3.06c0,0-1,32.94,37.27,43s48,8.07,48,8.07-16.9,2.83-29.53,2.2c0,0,43.84,13.71,74.3,7.08,0,0-13.82,26.3-12.87,51.48l.28,7.67s16.09-24.18,24.13-14.62"/><path class="cls-3" d="M320.59,134.5s7-3,9.2-3.08-.9,5,4,4.23,3.76-2.34,8.22-.31,17.57,15.24,22.5,15.06,18-2.32,18-2.32-1,3.32,3.45,4.25,19.67-1.83,22.54,1.35,9.07,7.89,14,7.15,14.64-4.39,17-1.18,5.34,10.76,8.07,10.66,1,10.93.5,13.14-12.54,31.18-20.63,34.78l-.33-8.76s-23.61,28.3-38.29,31.59l1.39-6.63s-20.84,14.5-29,14.8l2.53-5.57-9,8.56s-10.39.94-20.21-12.4l-.24,8.23s-7.91-6.28-8.42-20l-1.95,6.65s-7.85-4.64-12.31-20.92l-2.42,8.32a89.93,89.93,0,0,1-3.41-32.23L299.8,194s.58-42.8,20.79-59.46"/><path class="cls-4" d="M379.89,92.79c1.39,4.06-11.66,20.14-14.33,23.72-5.41,7.24-12.54,13.91-19.75,19.81-5.65,4.62-17.25,10.29-17.7,18.53-.42,7.62,8.73,7.86,14.36,7.35,20.22-1.86,44.82-47.76,37.42-69.41"/><path class="cls-5" d="M366.43,172.26s23.4-4.72,32.29-1.76S386.8,189,375.07,183.45"/><path class="cls-6" d="M390.07,130.24S395.78,107,408,110.93s3.28,28.93,7.12,28.79"/><path class="cls-6" d="M354,117.89s5.76-21.6-1.33-20.79S340.07,112.93,338.43,113"/><path class="cls-7" d="M177,234.78a59.45,59.45,0,0,0-1.32-15.12l-53.33,2.8L120.65,236c14.13-1.76,40.93-4.37,56.37-1.23"/><path class="cls-8" d="M51,117.08s-.49,34.84,11,53c0,0-22.82-16-22.16,1.43s15.54,30,31.57,25.24c0,0,21.74,35.2,67.88,32.87s45.67-14.93,45.67-14.93S218.4,163,189.2,89.06c0,0-17.37-46.78-56.29-44.11S47.74,63.16,51,117.08"/><path class="cls-7" d="M121.05,236c-.14,1.32-.29,2.79-.46,4.36,19.15,4.83,41,2.44,53.9.16l.39-6.08c-15.52-2.5-40.24-.12-53.83,1.56"/><path class="cls-9" d="M206.67,74.6C191.22,47,147.57,19.78,118.26,22.68S68.75,31.15,36.87,93.59s-5.36,192.94-5.36,192.94,75.26,5.57,80,3.59c3.38-1.42,7.19-32.3,9.09-49.8l-.47-.11.54-4.2.39,0c.47-4.55.75-7.47.75-7.47-26.7-7.4-50.43-31.73-50.43-31.73C60,198.39,46.54,191.09,42,182.86s-1.9-18.54,4.69-18.79,15.24,6,15.24,6c-14.36-30.68-5.47-65.84-5.47-65.84l.35,9.59,11.22-5.22c49.27-15.06,115.28-31.95,115.28-31.95s16.46,32.93,17.06,54.59c1.63,59.38-24.78,91.59-24.78,91.59l-.74,11.54c.74.12,1.45.24,2.14.38a29.93,29.93,0,0,1-.78,5.39l-1.75.32-2.66,41.36,34.55-7.3,6.45-20.06c38.32-98.71-6.16-179.89-6.16-179.89"/><path class="cls-10" d="M120.65,236l-.53,4.2.47.11c.17-1.57.32-3,.46-4.36l-.4,0"/><path class="cls-7" d="M127.26,102.2s14.54,35.48,29.82,42.71c0,0-15.88,9-21.87,9.22,0,0-11.76-25.37-8-51.93"/><path class="cls-11" d="M152.88,176.89s-17.23,4.85-33.74-2.94-14.25,4.14-9.21,10.56,22.82,16,31,9"/><path class="cls-8" d="M120.12,240.21l-.38,3s51,9.49,55.26.52a18.18,18.18,0,0,0,1.24-3.53c-12.73,2.37-36,5.26-56.12,0"/><path class="cls-10" d="M177,234.78c-.69-.14-1.41-.26-2.14-.38l-.39,6.08c.6-.1,1.19-.2,1.75-.31,5.91-1.1,9.56-2.08,9.56-2.08a23.23,23.23,0,0,0-8.78-3.31"/><path class="cls-10" d="M120.61,241l0-5c-5.7.71-9.34,1.28-9.34,1.28,2,1.88,6.28,2.92,9.29,3.7"/><path class="cls-12" d="M148.07,112.82s22.41,5.16,37-5.59"/><path class="cls-12" d="M67.87,135.65s20.59,4.63,36.19-11.57"/><path class="cls-13" d="M252.46,324.48c-15-63.59-52.14-51.4-52.14-51.4-7.57-.78-15.06-1.3-22.46-1.61,4-8.15,8.43-20.29,7.94-33.38,0,0-56.64,10.54-74.48-.8l-5.76,37.48c-61,7.84-103.94,25.59-103.94,25.59L0,410.81S305.09,548.26,252.46,324.48Z"/><path class="cls-14" d="M163.72,389.23c65.21-102.64,43.43-117.08,43.43-117.08l-21.35-.25c-3.92-5.93,12.39,20-40,103.3-55-64.76-44.25-100.67-39.53-100.51l-18.09,2.65c-1,2-25.24,34.89,39.75,111.82-13.49,14.75-26.83,44.23-14.5,102.08l16.9,15.84c-11.17-52.39,3.32-83.44,15.63-99.31,8.85,13.86,21.88,43.66,28.77,104.23l16.8-20.76c-7-61.95-19-89.77-28.73-102.61Z"/><path class="cls-14" d="M382,374.51c69.4-109.22,33-122.79,33-122.79l-15-2.39c.34.32,18.7,21.71-37.09,110.26-58.51-68.92-48.83-107.53-43.81-107.36l11.09-9-3.37-7.9s-18.6,6.47-25,16.9c-3.36,5.48-27.1,40.35,42.08,122.21-14.35,15.7-28.55,47.07-15.42,108.63l18,16.85c-11.88-55.75,3.54-88.8,16.64-105.68,9.41,14.75,23.28,46.46,30.61,110.92l17.89-22.09c-7.51-65.93-20.21-95.54-30.58-109.2Z"/><path class="cls-15" d="M490,80.75H507.5V41.8s0-7.42.67-13.08c-5.12,6.2-14.69,9.44-21.43,10l-2.56-16.58c12.27-3.1,21.7-8.76,28.17-17h16.18V80.75H545.1v16H490Z"/><path class="cls-15" d="M566.27,25.36l-5.8-15.64a68.59,68.59,0,0,1,27.9-5.93c20.76,0,34.91,10.65,34.91,26.28,0,15.23-9.3,30.06-38.41,50.41a72.33,72.33,0,0,1,14.82-1.35h24V96.79H561.42V80.88C595,56,601,43.15,601,34,601,27,595.52,21,584.87,21,578.67,21,570.85,22.93,566.27,25.36Z"/><path class="cls-16" d="M559.05,128.56v-1.44h14.73v2.27c0,15.87-13.18,16.17-13.18,26.48,0,3.81,2.68,6.8,7.83,6.8a35,35,0,0,0,12.26-2.58l4,12.67a46.53,46.53,0,0,1-19.37,3.92c-12.77,0-22-6.91-22-18.45C543.29,142.47,559.05,138.56,559.05,128.56Zm15.35-7.21h-16V105.59h16Z"/><path class="cls-16" d="M621.17,157.1c-19.78,0-30.81-12.36-30.81-36.16,0-21.22,10.1-35.44,30.81-35.44,9.89,0,18.75,2.06,24.72,6l-6.07,13.08c-3.4-2.58-9.38-4.64-16.69-4.64-10.31,0-15.56,6.49-15.56,20.92,0,15.14,5.15,21.74,15.35,21.74,6.39,0,13.19-2.89,17.93-6.29L646,149.58A42.79,42.79,0,0,1,621.17,157.1Z"/><path class="cls-16" d="M683.8,157.1c-24.42,0-30.6-17.72-30.6-36.37,0-18.13,6.08-35.23,30.6-35.23,25,0,30.91,16.9,30.91,35.23C714.71,139.38,708.22,157.1,683.8,157.1ZM670.2,82.72l-1.34-9.27,30.19-4.13-.21,12Zm13.6,16.79c-10.82,0-13.39,9.27-13.39,21.12,0,13.19,2.78,22.77,13.39,22.77s13.6-9.48,13.6-22.77C697.4,108.58,694.62,99.51,683.8,99.51Z"/><path class="cls-16" d="M750.14,156.07,743.45,123c-.93-4.74-2.68-13.7-3.92-21.12H739l-.83,54.19H723.46l2.68-69.54h27.2s6.38,32,9.47,54.91h.42c3.91-23,11.53-54.91,11.53-54.91h26.89l2.79,69.54H785.58l-1.23-54.19h-.52c-1.34,8-3,16.07-4.12,21.12l-7,33.07Z"/><path class="cls-16" d="M843.27,157.1c-24.42,0-30.6-17.72-30.6-36.37,0-18.13,6.08-35.23,30.6-35.23,25,0,30.9,16.9,30.9,35.23C874.17,139.38,867.68,157.1,843.27,157.1Zm0-57.59c-10.82,0-13.4,9.27-13.4,21.12,0,13.19,2.79,22.77,13.4,22.77s13.6-9.48,13.6-22.77C856.87,108.58,854.08,99.51,843.27,99.51Z"/><path class="cls-16" d="M907.13,156.07V86.53h16.28v55.84h28.64v13.7Z"/><path class="cls-16" d="M987.28,157.1c-24.42,0-30.6-17.72-30.6-36.37,0-18.13,6.08-35.23,30.6-35.23,25,0,30.91,16.9,30.91,35.23C1018.19,139.38,1011.7,157.1,987.28,157.1Zm0-57.59c-10.82,0-13.39,9.27-13.39,21.12,0,13.19,2.78,22.77,13.39,22.77s13.6-9.48,13.6-22.77C1000.88,108.58,998.1,99.51,987.28,99.51Z"/><path class="cls-16" d="M587.18,241.92V214.31H564.3v27.61H547.92V172.38H564.3v27.2h22.88v-27.2h16.38v69.54Z"/><path class="cls-16" d="M618,241.92V172.38h16.28v69.54Z"/><path class="cls-16" d="M676.38,243c-19.78,0-30.8-12.36-30.8-36.16,0-21.23,10.1-35.44,30.8-35.44,9.9,0,18.76,2.06,24.73,6L695,190.41c-3.4-2.58-9.37-4.64-16.69-4.64-10.3,0-15.55,6.49-15.55,20.91,0,15.15,5.15,21.74,15.35,21.74,6.39,0,13.18-2.88,17.92-6.28l5.16,13.29A42.8,42.8,0,0,1,676.38,243Z"/><path class="cls-16" d="M712,241.92V172.38H728.3v69.54Z"/><path class="cls-16" d="M767.35,241.92l-6.7-33.07c-.93-4.74-2.68-13.71-3.91-21.12h-.52l-.82,54.19H740.66l2.68-69.54h27.2s6.39,32,9.48,54.91h.41c3.92-23,11.54-54.91,11.54-54.91h26.89l2.78,69.54H802.79l-1.24-54.19H801c-1.34,8-3,16.07-4.12,21.12l-7,33.07Z"/><path class="cls-16" d="M860.47,243c-24.41,0-30.59-17.72-30.59-36.37,0-18.13,6.07-35.23,30.59-35.23,25,0,30.91,16.89,30.91,35.23C891.38,225.23,884.89,243,860.47,243Zm0-57.59c-10.81,0-13.39,9.27-13.39,21.12,0,13.18,2.78,22.77,13.39,22.77s13.6-9.48,13.6-22.77C874.07,194.42,871.29,185.36,860.47,185.36Z"/><path class="cls-16" d="M942.16,189.07a34.71,34.71,0,0,0-16-3.61c-6.29,0-8.86,2.37-8.86,5.46,0,10.61,31.42,6.18,31.42,30,0,11.33-9.79,22-26.27,22a38.8,38.8,0,0,1-23.39-7.63L905.18,223a29.5,29.5,0,0,0,17.41,6.29c5.67,0,9.17-3.09,9.17-7.22,0-12.87-31.22-5.66-31.22-30.9,0-10.92,8.66-19.78,25.86-19.78A46.58,46.58,0,0,1,947.63,176Z"/><path class="cls-16" d="M980.59,218.94v1.45H965.86v-2.27c0-15.87,13.18-16.18,13.18-26.48,0-3.81-2.68-6.8-7.83-6.8A34.77,34.77,0,0,0,959,187.42l-4-12.67a46.56,46.56,0,0,1,19.37-3.92c12.78,0,22.05,6.9,22.05,18.44C996.35,205,980.59,209,980.59,218.94Zm-15.35,7.22h16v15.76h-16Z"/><path class="cls-17" d="M562.12,362.94c-2.78,0-5.09-1.41-5.09-6.06V345h-3v-2.22h3v-3.6l3.07-1v4.56h5.77V345H560.1v12.27c0,2.1.77,3.1,2.63,3.1a8.52,8.52,0,0,0,3.14-.84l.61,2.26A9.71,9.71,0,0,1,562.12,362.94Z"/><path class="cls-17" d="M572.9,353.53c0,4.89,2.5,7,6.26,7a12.19,12.19,0,0,0,6.13-2l.77,2.18a14.19,14.19,0,0,1-7.23,2.18c-5.41,0-9-3.59-9-10.42,0-6.25,3.07-10.17,8.48-10.17,5.57,0,7.91,4.48,7.91,9.45v1.73Zm5.29-8.84c-3.76,0-5.29,3.31-5.29,6.7h10.33C583.23,348,582.06,344.69,578.19,344.69Z"/><path class="cls-17" d="M603.34,362.53V350.59c0-3.76-1.18-5.82-4.53-5.82A7.37,7.37,0,0,0,594,347v15.5H590.9V342.76H593l.61,2.34a8.65,8.65,0,0,1,6.21-2.75c4.64,0,6.7,2.79,6.7,7.71v12.47Z"/><path class="cls-17" d="M613.83,353.53c0,4.89,2.51,7,6.26,7a12.19,12.19,0,0,0,6.13-2l.77,2.18a14.16,14.16,0,0,1-7.22,2.18c-5.41,0-9-3.59-9-10.42,0-6.25,3.06-10.17,8.47-10.17,5.57,0,7.91,4.48,7.91,9.45v1.73Zm5.29-8.84c-3.75,0-5.29,3.31-5.29,6.7h10.34C624.17,348,623,344.69,619.12,344.69Z"/><path class="cls-17" d="M647.22,350.06v12.47h-3.11V350.59c0-3.76-1.09-5.82-4.44-5.82a7.06,7.06,0,0,0-4.76,2.26v15.5h-3.07V342.76h2l.64,2.38a8.33,8.33,0,0,1,6-2.79c2.94,0,4.84,1,5.81,3a8.62,8.62,0,0,1,6.17-3c4.85,0,7,2.71,7,7.71v12.47h-3.11V350.59c0-3.76-1.41-5.82-4.76-5.82a7.13,7.13,0,0,0-4.73,2.26A11.3,11.3,0,0,1,647.22,350.06Z"/><path class="cls-17" d="M680.56,352.6c0,6.66-3.23,10.34-8.52,10.34s-8.43-3.59-8.43-10.34c0-5.81,2.74-10.25,8.43-10.25C677.53,342.35,680.56,346.71,680.56,352.6Zm-3.15,0c0-5.16-1.73-8-5.37-8s-5.32,2.91-5.32,8c0,4.85,1.41,8,5.32,8S677.41,357.89,677.41,352.6Z"/><path class="cls-17" d="M687.47,347.6c0,4.24,9.81,2.74,9.81,9.44,0,3.19-2.47,5.9-6.87,5.9a11.85,11.85,0,0,1-6-1.7l.89-2.26a9.21,9.21,0,0,0,5,1.66c2.42,0,3.92-1.34,3.92-3.39,0-4.77-9.69-3-9.69-9.69,0-2.66,2-5.21,6.54-5.21a12.9,12.9,0,0,1,5.93,1.29l-.72,2.26a10.73,10.73,0,0,0-5.17-1.21C688.68,344.69,687.47,345.78,687.47,347.6Z"/><path class="cls-17" d="M725.29,361.2a14,14,0,0,1-6.58,1.74c-5,0-8.63-2.95-8.63-10.29,0-6.7,3.67-10.3,8.63-10.3a12.78,12.78,0,0,1,6.46,1.58l-.89,2.18a10.7,10.7,0,0,0-5.41-1.29c-3.55,0-5.73,2.82-5.73,7.83,0,5.57,2.18,7.91,5.73,7.91a11.13,11.13,0,0,0,5.69-1.66Z"/><path class="cls-17" d="M729.49,357.09V334.68h3v23.54c0,1.69.77,2.38,3,2.38h.64v2.09a8.92,8.92,0,0,1-1.94.25C730.42,362.94,729.49,360.8,729.49,357.09Z"/><path class="cls-17" d="M752.18,362.53l-.53-2.54a7.8,7.8,0,0,1-6.09,2.95c-4,0-6.38-2.71-6.38-6.06s2.5-5.65,7-5.65h5.13v-1.57c0-3.43-1.49-4.89-4.48-4.89a14.58,14.58,0,0,0-6,1.3l-.8-2.22a17.31,17.31,0,0,1,7.18-1.5c4.68,0,7.06,2.42,7.06,7.15v13Zm-.89-9.2h-4.64c-3.35,0-4.48,1.45-4.48,3.43,0,2.38,1.29,4,4.15,4a7,7,0,0,0,5-2.46Z"/><path class="cls-17" d="M769.57,345.42a7.94,7.94,0,0,0-2.54-.36,6.33,6.33,0,0,0-4.44,2.14v15.33h-3.06V342.76h2.05l.57,2.5a6.55,6.55,0,0,1,5.12-2.79,8.79,8.79,0,0,1,2.51.33Z"/><path class="cls-17" d="M789.48,352.6c0,6.66-3.23,10.34-8.52,10.34s-8.43-3.59-8.43-10.34c0-5.81,2.74-10.25,8.43-10.25C786.45,342.35,789.48,346.71,789.48,352.6Zm-3.15,0c0-5.16-1.74-8-5.37-8s-5.33,2.91-5.33,8c0,4.85,1.42,8,5.33,8S786.33,357.89,786.33,352.6Z"/><path class="cls-17" d="M803.16,357.09V334.68h3v23.54c0,1.69.77,2.38,2.95,2.38h.64v2.09a8.77,8.77,0,0,1-1.93.25C804.09,362.94,803.16,360.8,803.16,357.09Z"/><path class="cls-17" d="M825.85,362.53l-.53-2.54a7.79,7.79,0,0,1-6.09,2.95c-4,0-6.38-2.71-6.38-6.06s2.5-5.65,7-5.65H825v-1.57c0-3.43-1.49-4.89-4.48-4.89a14.49,14.49,0,0,0-6,1.3l-.81-2.22a17.35,17.35,0,0,1,7.18-1.5c4.69,0,7.07,2.42,7.07,7.15v13Zm-.89-9.2h-4.64c-3.35,0-4.48,1.45-4.48,3.43,0,2.38,1.29,4,4.16,4a7,7,0,0,0,5-2.46Z"/><path class="cls-17" d="M835.46,347.6c0,4.24,9.81,2.74,9.81,9.44,0,3.19-2.47,5.9-6.87,5.9a11.85,11.85,0,0,1-6-1.7l.89-2.26a9.21,9.21,0,0,0,5,1.66c2.43,0,3.92-1.34,3.92-3.39,0-4.77-9.69-3-9.69-9.69,0-2.66,2-5.21,6.54-5.21a12.9,12.9,0,0,1,5.93,1.29l-.72,2.26a10.73,10.73,0,0,0-5.17-1.21C836.67,344.69,835.46,345.78,835.46,347.6Z"/><path class="cls-17" d="M869.81,336.9a9,9,0,0,0-2.54-.36c-2.67,0-3.84,1.49-3.84,4.64v1.58h4.69v2.34h-4.69v17.43h-3V345.1h-3.19v-2.34h3.19V341c0-4.52,2.18-7,6.62-7a13.1,13.1,0,0,1,3.06.4Z"/><path class="cls-17" d="M887.9,352.6c0,6.66-3.23,10.34-8.52,10.34S871,359.35,871,352.6c0-5.81,2.74-10.25,8.43-10.25C884.87,342.35,887.9,346.71,887.9,352.6Zm-3.15,0c0-5.16-1.74-8-5.37-8s-5.33,2.91-5.33,8c0,4.85,1.42,8,5.33,8S884.75,357.89,884.75,352.6Z"/><path class="cls-17" d="M902.59,345.42a7.94,7.94,0,0,0-2.54-.36,6.31,6.31,0,0,0-4.44,2.14v15.33h-3.07V342.76h2.06l.57,2.5a6.53,6.53,0,0,1,5.12-2.79,8.76,8.76,0,0,1,2.5.33Z"/><path class="cls-17" d="M921.61,350.06v12.47H918.5V350.59c0-3.76-1.09-5.82-4.44-5.82a7.1,7.1,0,0,0-4.77,2.26v15.5h-3.06V342.76h2l.64,2.38a8.32,8.32,0,0,1,6-2.79c3,0,4.85,1,5.82,3a8.62,8.62,0,0,1,6.17-3c4.85,0,7,2.71,7,7.71v12.47h-3.11V350.59c0-3.76-1.41-5.82-4.77-5.82a7.1,7.1,0,0,0-4.72,2.26A11.72,11.72,0,0,1,921.61,350.06Z"/><path class="cls-17" d="M950.91,362.53l-.52-2.54a7.81,7.81,0,0,1-6.1,2.95c-4,0-6.37-2.71-6.37-6.06s2.5-5.65,7-5.65H950v-1.57c0-3.43-1.49-4.89-4.47-4.89a14.5,14.5,0,0,0-6,1.3l-.81-2.22a17.4,17.4,0,0,1,7.19-1.5c4.68,0,7.06,2.42,7.06,7.15v13Zm-.89-9.2h-4.64c-3.35,0-4.48,1.45-4.48,3.43,0,2.38,1.3,4,4.16,4a7,7,0,0,0,5-2.46Z"/><path class="cls-17" d="M960.52,347.6c0,4.24,9.81,2.74,9.81,9.44,0,3.19-2.46,5.9-6.86,5.9a11.85,11.85,0,0,1-6-1.7l.88-2.26a9.22,9.22,0,0,0,5,1.66c2.42,0,3.91-1.34,3.91-3.39,0-4.77-9.68-3-9.68-9.69,0-2.66,2-5.21,6.53-5.21a13,13,0,0,1,5.94,1.29l-.73,2.26a10.69,10.69,0,0,0-5.16-1.21C961.73,344.69,960.52,345.78,960.52,347.6Z"/><path class="cls-17" d="M996.77,360.15a7.46,7.46,0,0,1-5.69,2.79c-4.68,0-8-3.47-8-10.34,0-6,3-10.25,8.27-10.25a8.28,8.28,0,0,1,5.29,1.7,27.72,27.72,0,0,1-.16-3.23v-6.14h3.07v27.85h-2.3Zm-.24-14a8.43,8.43,0,0,0-4.8-1.42c-3.72,0-5.49,2.91-5.49,7.91s1.57,8,5.28,8a6.69,6.69,0,0,0,5-2.51Z"/><path class="cls-17" d="M1007.35,353.53c0,4.89,2.5,7,6.26,7a12.19,12.19,0,0,0,6.13-2l.77,2.18a14.19,14.19,0,0,1-7.23,2.18c-5.4,0-9-3.59-9-10.42,0-6.25,3.07-10.17,8.48-10.17,5.57,0,7.91,4.48,7.91,9.45v1.73Zm5.29-8.84c-3.76,0-5.29,3.31-5.29,6.7h10.33C1017.68,348,1016.51,344.69,1012.64,344.69Z"/><path class="cls-17" d="M565.51,380a8,8,0,0,0-2.54-.36,6.31,6.31,0,0,0-4.44,2.14v15.34h-3.07V377.36h2.06l.56,2.5a6.56,6.56,0,0,1,5.13-2.78,9,9,0,0,1,2.5.32Z"/><path class="cls-17" d="M571.57,388.14c0,4.88,2.5,7,6.25,7a12.2,12.2,0,0,0,6.14-2l.77,2.18a14.19,14.19,0,0,1-7.23,2.18c-5.41,0-9-3.59-9-10.41,0-6.26,3.07-10.18,8.48-10.18,5.57,0,7.91,4.49,7.91,9.45v1.74Zm5.28-8.84c-3.75,0-5.28,3.31-5.28,6.7H581.9C581.9,382.57,580.73,379.3,576.85,379.3Z"/><path class="cls-17" d="M598.29,397.14h-4.56l-6.34-19.78h3.39l5.37,17.88h.08l5.33-17.88h3.15Z"/><path class="cls-17" d="M609.47,397.14V379.82l-2.17-.44v-2h5.16v19.78Zm-.28-27.57h3.27v3.23h-3.27Z"/><path class="cls-17" d="M620.09,382.2c0,4.24,9.81,2.75,9.81,9.45,0,3.19-2.46,5.89-6.86,5.89a11.85,11.85,0,0,1-6-1.7l.88-2.26a9.22,9.22,0,0,0,5,1.66c2.42,0,3.91-1.33,3.91-3.39,0-4.76-9.68-3-9.68-9.69,0-2.66,2-5.21,6.53-5.21a12.85,12.85,0,0,1,5.94,1.3l-.73,2.26a10.58,10.58,0,0,0-5.16-1.21C621.3,379.3,620.09,380.39,620.09,382.2Z"/><path class="cls-17" d="M636,397.14V379.82l-2.18-.44v-2H639v19.78Zm-.28-27.57H639v3.23h-3.27Z"/><path class="cls-17" d="M660.62,387.21c0,6.66-3.23,10.33-8.52,10.33s-8.43-3.59-8.43-10.33c0-5.82,2.74-10.26,8.43-10.26C657.59,377,660.62,381.31,660.62,387.21Zm-3.15,0c0-5.17-1.73-7.95-5.37-7.95s-5.32,2.9-5.32,7.95c0,4.84,1.41,8,5.32,8S657.47,392.5,657.47,387.21Zm-9.64-12.92-.45-1.81,8.92-3.31.61,2.3Z"/><path class="cls-17" d="M677.7,397.14V385.19c0-3.75-1.17-5.81-4.52-5.81a7.32,7.32,0,0,0-4.85,2.26v15.5h-3.06V377.36h2.06l.6,2.34a8.66,8.66,0,0,1,6.22-2.75c4.64,0,6.7,2.79,6.7,7.71v12.48Z"/><path class="cls-17" d="M697.08,388.14c0,4.88,2.5,7,6.25,7a12.2,12.2,0,0,0,6.14-2l.76,2.18a14.12,14.12,0,0,1-7.22,2.18c-5.41,0-9-3.59-9-10.41,0-6.26,3.07-10.18,8.48-10.18,5.57,0,7.91,4.49,7.91,9.45v1.74Zm5.28-8.84c-3.75,0-5.28,3.31-5.28,6.7h10.33C707.41,382.57,706.24,379.3,702.36,379.3Z"/><path class="cls-17" d="M727.51,397.14V385.19c0-3.75-1.17-5.81-4.52-5.81a7.3,7.3,0,0,0-4.84,2.26v15.5h-3.07V377.36h2.06l.61,2.34A8.63,8.63,0,0,1,724,377c4.64,0,6.7,2.79,6.7,7.71v12.48Z"/><path class="cls-17" d="M759.08,395.8a14,14,0,0,1-6.58,1.74c-5,0-8.63-3-8.63-10.29,0-6.7,3.67-10.3,8.63-10.3a12.78,12.78,0,0,1,6.46,1.58l-.89,2.18a10.7,10.7,0,0,0-5.41-1.29c-3.55,0-5.73,2.82-5.73,7.83,0,5.57,2.18,7.91,5.73,7.91a11.17,11.17,0,0,0,5.7-1.66Z"/><path class="cls-17" d="M775.35,397.14l-.52-2.55a7.78,7.78,0,0,1-6.1,3c-4,0-6.38-2.7-6.38-6.05s2.51-5.66,7-5.66h5.12v-1.57c0-3.43-1.49-4.88-4.48-4.88a14.5,14.5,0,0,0-6,1.29l-.81-2.22a17.4,17.4,0,0,1,7.19-1.5c4.68,0,7.06,2.43,7.06,7.15v13Zm-.89-9.21h-4.64c-3.35,0-4.48,1.46-4.48,3.43,0,2.39,1.29,4,4.16,4a7,7,0,0,0,5-2.46Z"/><path class="cls-17" d="M795.74,394.76a7.48,7.48,0,0,1-5.69,2.78c-4.69,0-7.95-3.47-7.95-10.33,0-6,3-10.26,8.27-10.26a8.3,8.3,0,0,1,5.29,1.7,27.72,27.72,0,0,1-.16-3.23v-6.13h3.06v27.85h-2.3Zm-.24-14.05a8.47,8.47,0,0,0-4.81-1.41c-3.71,0-5.49,2.9-5.49,7.91s1.58,8,5.29,8a6.71,6.71,0,0,0,5-2.5Z"/><path class="cls-17" d="M816.12,397.14l-.52-2.55a7.78,7.78,0,0,1-6.1,3c-4,0-6.37-2.7-6.37-6.05s2.5-5.66,7-5.66h5.12v-1.57c0-3.43-1.49-4.88-4.48-4.88a14.5,14.5,0,0,0-6,1.29l-.81-2.22a17.4,17.4,0,0,1,7.19-1.5c4.68,0,7.06,2.43,7.06,7.15v13Zm-.89-9.21h-4.64c-3.35,0-4.48,1.46-4.48,3.43,0,2.39,1.3,4,4.16,4a7,7,0,0,0,5-2.46Z"/><path class="cls-17" d="M834.78,388.14c0,4.88,2.5,7,6.25,7a12.26,12.26,0,0,0,6.14-2l.76,2.18a14.16,14.16,0,0,1-7.22,2.18c-5.41,0-9-3.59-9-10.41,0-6.26,3.07-10.18,8.47-10.18,5.57,0,7.91,4.49,7.91,9.45v1.74Zm5.28-8.84c-3.75,0-5.28,3.31-5.28,6.7h10.33C845.11,382.57,843.94,379.3,840.06,379.3Z"/><path class="cls-17" d="M859.44,397.54c-2.79,0-5.09-1.41-5.09-6.05V379.58h-3v-2.22h3v-3.59l3.07-1v4.56h5.77v2.22h-5.77v12.27c0,2.1.77,3.11,2.63,3.11a8.57,8.57,0,0,0,3.14-.85l.61,2.26A9.71,9.71,0,0,1,859.44,397.54Z"/><path class="cls-17" d="M880,397.14l-.53-2.55a7.77,7.77,0,0,1-6.09,3c-4,0-6.38-2.7-6.38-6.05s2.5-5.66,7-5.66h5.13v-1.57c0-3.43-1.49-4.88-4.48-4.88a14.59,14.59,0,0,0-6,1.29l-.8-2.22a17.31,17.31,0,0,1,7.18-1.5c4.68,0,7.07,2.43,7.07,7.15v13Zm-.89-9.21H874.5c-3.35,0-4.48,1.46-4.48,3.43,0,2.39,1.29,4,4.15,4a7,7,0,0,0,5-2.46Z"/><path class="cls-17" d="M890.48,398.47v6.33h-3.1V377.36h2.38l.48,2.34A8,8,0,0,1,896,377c5,0,7.55,3.6,7.55,10.26,0,7-3.47,10.33-8.19,10.33a7,7,0,0,1-5.33-2.26A18.59,18.59,0,0,1,890.48,398.47Zm0-5.37a6.63,6.63,0,0,0,4.69,2.14c3.59,0,5.28-2.34,5.28-8,0-5.21-1.49-7.87-5.08-7.87a7.1,7.1,0,0,0-4.89,2.3Z"/><path class="cls-17" d="M920.48,397.14l-.53-2.55a7.77,7.77,0,0,1-6.09,3c-4,0-6.38-2.7-6.38-6.05s2.5-5.66,7-5.66h5.13v-1.57c0-3.43-1.49-4.88-4.48-4.88a14.59,14.59,0,0,0-6,1.29l-.8-2.22a17.31,17.31,0,0,1,7.18-1.5c4.68,0,7.06,2.43,7.06,7.15v13Zm-.89-9.21H915c-3.35,0-4.48,1.46-4.48,3.43,0,2.39,1.29,4,4.15,4a7,7,0,0,0,5-2.46Z"/><path class="cls-17" d="M949.74,394.76a7.48,7.48,0,0,1-5.69,2.78c-4.68,0-7.95-3.47-7.95-10.33,0-6,3-10.26,8.28-10.26a8.27,8.27,0,0,1,5.28,1.7,27.72,27.72,0,0,1-.16-3.23v-6.13h3.07v27.85h-2.3Zm-.24-14.05a8.43,8.43,0,0,0-4.8-1.41c-3.71,0-5.49,2.9-5.49,7.91s1.57,8,5.29,8a6.7,6.7,0,0,0,5-2.5Z"/><path class="cls-17" d="M960.32,388.14c0,4.88,2.5,7,6.26,7a12.19,12.19,0,0,0,6.13-2l.77,2.18a14.19,14.19,0,0,1-7.22,2.18c-5.41,0-9-3.59-9-10.41,0-6.26,3.07-10.18,8.48-10.18,5.57,0,7.91,4.49,7.91,9.45v1.74Zm5.29-8.84c-3.75,0-5.29,3.31-5.29,6.7h10.33C970.65,382.57,969.48,379.3,965.61,379.3Z"/><path class="cls-17" d="M568.5,429.36a7.48,7.48,0,0,1-5.69,2.78c-4.69,0-7.95-3.47-7.95-10.33,0-6,3-10.25,8.27-10.25a8.3,8.3,0,0,1,5.29,1.69,27.72,27.72,0,0,1-.16-3.23v-6.13h3.06v27.85H569Zm-.24-14.05a8.55,8.55,0,0,0-4.81-1.41c-3.71,0-5.49,2.9-5.49,7.91s1.58,8,5.29,8a6.71,6.71,0,0,0,5-2.5Z"/><path class="cls-17" d="M579.08,422.74c0,4.88,2.5,7,6.25,7a12.26,12.26,0,0,0,6.14-2l.76,2.18a14.16,14.16,0,0,1-7.22,2.18c-5.41,0-9-3.59-9-10.41,0-6.26,3.07-10.17,8.47-10.17,5.57,0,7.91,4.48,7.91,9.44v1.74Zm5.28-8.84c-3.75,0-5.28,3.31-5.28,6.7h10.33C589.41,417.17,588.24,413.9,584.36,413.9Z"/><path class="cls-17" d="M599.34,416.8c0,4.24,9.81,2.75,9.81,9.45,0,3.19-2.46,5.89-6.86,5.89a11.89,11.89,0,0,1-6-1.69l.89-2.26a9.3,9.3,0,0,0,5,1.65c2.42,0,3.91-1.33,3.91-3.39,0-4.76-9.68-3-9.68-9.69,0-2.66,2-5.2,6.53-5.2a12.84,12.84,0,0,1,5.94,1.29l-.73,2.26a10.59,10.59,0,0,0-5.17-1.21C600.55,413.9,599.34,415,599.34,416.8Z"/><path class="cls-17" d="M625.9,431.74l-.52-2.54a7.8,7.8,0,0,1-6.1,2.94c-4,0-6.37-2.7-6.37-6.05s2.5-5.65,7-5.65H625v-1.58c0-3.43-1.49-4.88-4.48-4.88a14.5,14.5,0,0,0-6,1.29l-.81-2.22a17.42,17.42,0,0,1,7.19-1.49c4.68,0,7.06,2.42,7.06,7.14v13Zm-.89-9.2h-4.64c-3.35,0-4.48,1.45-4.48,3.43,0,2.38,1.29,3.95,4.16,3.95a7,7,0,0,0,5-2.46Z"/><path class="cls-17" d="M643.3,414.62a7.94,7.94,0,0,0-2.54-.36,6.31,6.31,0,0,0-4.44,2.14v15.34h-3.07V412h2.06l.56,2.5a6.56,6.56,0,0,1,5.13-2.78,9,9,0,0,1,2.5.32Z"/><path class="cls-17" d="M657,414.62a8.05,8.05,0,0,0-2.55-.36A6.33,6.33,0,0,0,650,416.4v15.34h-3.06V412H649l.56,2.5a6.55,6.55,0,0,1,5.13-2.78,9,9,0,0,1,2.5.32Z"/><path class="cls-17" d="M676.89,421.81c0,6.66-3.23,10.33-8.52,10.33s-8.43-3.59-8.43-10.33c0-5.81,2.74-10.25,8.43-10.25C673.86,411.56,676.89,415.92,676.89,421.81Zm-3.15,0c0-5.17-1.74-7.95-5.37-7.95s-5.33,2.9-5.33,7.95c0,4.84,1.42,8,5.33,8S673.74,427.1,673.74,421.81Z"/><path class="cls-17" d="M681.69,426.29v-22.4h3v23.53c0,1.7.77,2.38,2.95,2.38h.64v2.1a9.24,9.24,0,0,1-1.93.24C682.62,432.14,681.69,430,681.69,426.29Z"/><path class="cls-17" d="M692.31,426.29v-22.4h3v23.53c0,1.7.76,2.38,2.94,2.38h.65v2.1a9.27,9.27,0,0,1-1.94.24C693.24,432.14,692.31,430,692.31,426.29Z"/><path class="cls-17" d="M719,421.81c0,6.66-3.23,10.33-8.52,10.33s-8.43-3.59-8.43-10.33c0-5.81,2.74-10.25,8.43-10.25C716,411.56,719,415.92,719,421.81Zm-3.15,0c0-5.17-1.73-7.95-5.37-7.95s-5.32,2.9-5.32,7.95c0,4.84,1.41,8,5.32,8S715.88,427.1,715.88,421.81Z"/><path class="cls-17" d="M739.38,431.62l-2,.16L731,412h3.39s3.72,12,5.41,18c1.74-6,5.37-18,5.37-18h3.15L742,431.54c-2.06,6.29-4.11,8.31-7.91,8.31a8,8,0,0,1-4.4-1.57l1-2.06h.24a5.8,5.8,0,0,0,3.31,1.25c2.3,0,3.64-1.37,4.89-5.13Z"/><path class="cls-17" d="M775.06,430.41a14.14,14.14,0,0,1-6.57,1.73c-5,0-8.64-2.94-8.64-10.29,0-6.7,3.67-10.29,8.64-10.29a12.71,12.71,0,0,1,6.45,1.57l-.89,2.18a10.69,10.69,0,0,0-5.4-1.29c-3.55,0-5.74,2.83-5.74,7.83,0,5.57,2.19,7.91,5.74,7.91a11.26,11.26,0,0,0,5.69-1.65Z"/><path class="cls-17" d="M795.37,421.81c0,6.66-3.23,10.33-8.52,10.33s-8.43-3.59-8.43-10.33c0-5.81,2.74-10.25,8.43-10.25C792.34,411.56,795.37,415.92,795.37,421.81Zm-3.15,0c0-5.17-1.73-7.95-5.37-7.95s-5.32,2.9-5.32,7.95c0,4.84,1.41,8,5.32,8S792.22,427.1,792.22,421.81Z"/><path class="cls-17" d="M815.39,419.27v12.47h-3.11V419.79c0-3.75-1.09-5.81-4.43-5.81a7,7,0,0,0-4.77,2.26v15.5H800V412h2l.65,2.38a8.32,8.32,0,0,1,6-2.78c2.95,0,4.85,1.05,5.82,3a8.56,8.56,0,0,1,6.17-3c4.84,0,7,2.7,7,7.71v12.47h-3.11V419.79c0-3.75-1.41-5.81-4.76-5.81a7.1,7.1,0,0,0-4.72,2.26A11.74,11.74,0,0,1,815.39,419.27Z"/><path class="cls-17" d="M848.74,421.81c0,6.66-3.23,10.33-8.52,10.33s-8.44-3.59-8.44-10.33c0-5.81,2.75-10.25,8.44-10.25C845.71,411.56,848.74,415.92,848.74,421.81Zm-3.15,0c0-5.17-1.74-7.95-5.37-7.95s-5.33,2.9-5.33,7.95c0,4.84,1.42,8,5.33,8S845.59,427.1,845.59,421.81Z"/><path class="cls-17" d="M557.88,457.34c0,4.88,2.5,7,6.26,7a12.29,12.29,0,0,0,6.13-2l.77,2.17a14.16,14.16,0,0,1-7.23,2.18c-5.4,0-9-3.59-9-10.41,0-6.25,3.07-10.17,8.48-10.17,5.57,0,7.91,4.48,7.91,9.44v1.74Zm5.29-8.84c-3.75,0-5.29,3.31-5.29,6.7h10.33C568.21,451.77,567,448.5,563.17,448.5Z"/><path class="cls-17" d="M584.61,466.34h-4.56l-6.34-19.78h3.39l5.37,17.88h.08l5.32-17.88H591Z"/><path class="cls-17" d="M606.44,466.34l-.52-2.54a7.8,7.8,0,0,1-6.1,2.94c-4,0-6.37-2.7-6.37-6.05s2.5-5.65,7-5.65h5.13v-1.57c0-3.44-1.5-4.89-4.48-4.89a14.71,14.71,0,0,0-6,1.29l-.8-2.22a17.49,17.49,0,0,1,7.18-1.49c4.68,0,7.06,2.42,7.06,7.14v13Zm-.88-9.2h-4.64c-3.36,0-4.49,1.45-4.49,3.43,0,2.38,1.3,4,4.16,4a6.94,6.94,0,0,0,5-2.47Z"/><path class="cls-17" d="M614,460.89v-22.4h3V462c0,1.7.77,2.38,2.95,2.38h.64v2.1a9.11,9.11,0,0,1-1.93.24C614.88,466.74,614,464.61,614,460.89Z"/><path class="cls-17" d="M637.57,466.34l-.45-2.26a8.4,8.4,0,0,1-6.13,2.66c-4.4,0-6.82-2.62-6.82-8V446.56h3.07v11.95c0,4.08,1.29,5.77,4.48,5.77a7.8,7.8,0,0,0,4.88-1.93V446.56h3.11v19.78Z"/><path class="cls-17" d="M657,466.34l-.53-2.54a7.8,7.8,0,0,1-6.09,2.94c-4,0-6.38-2.7-6.38-6.05s2.5-5.65,7-5.65h5.13v-1.57c0-3.44-1.5-4.89-4.48-4.89a14.71,14.71,0,0,0-6,1.29l-.8-2.22a17.49,17.49,0,0,1,7.18-1.49c4.68,0,7.07,2.42,7.07,7.14v13Zm-.89-9.2H651.5c-3.35,0-4.48,1.45-4.48,3.43,0,2.38,1.29,4,4.15,4a6.94,6.94,0,0,0,5-2.47Z"/><path class="cls-17" d="M674.43,449.23a8,8,0,0,0-2.55-.37,6.31,6.31,0,0,0-4.44,2.14v15.34h-3.07V446.56h2.06l.57,2.51a6.55,6.55,0,0,1,5.12-2.79,9.07,9.07,0,0,1,2.51.32Z"/><path class="cls-17" d="M680.48,457.34c0,4.88,2.5,7,6.26,7a12.29,12.29,0,0,0,6.13-2l.77,2.17a14.16,14.16,0,0,1-7.23,2.18c-5.4,0-9-3.59-9-10.41,0-6.25,3.07-10.17,8.48-10.17,5.57,0,7.91,4.48,7.91,9.44v1.74Zm5.29-8.84c-3.75,0-5.29,3.31-5.29,6.7h10.33C690.81,451.77,689.64,448.5,685.77,448.5Z"/><path class="cls-17" d="M713.86,453.87v12.47h-3.1V454.39c0-3.75-1.09-5.81-4.44-5.81a7,7,0,0,0-4.77,2.26v15.5h-3.06V446.56h2l.65,2.39a8.29,8.29,0,0,1,6-2.79c2.94,0,4.84,1,5.81,3a8.62,8.62,0,0,1,6.17-3c4.85,0,7,2.7,7,7.71v12.47H723V454.39c0-3.75-1.42-5.81-4.77-5.81a7.1,7.1,0,0,0-4.72,2.26A11.74,11.74,0,0,1,713.86,453.87Z"/><path class="cls-17" d="M747.21,456.41c0,6.66-3.23,10.33-8.52,10.33s-8.43-3.59-8.43-10.33c0-5.81,2.74-10.25,8.43-10.25C744.18,446.16,747.21,450.52,747.21,456.41Zm-3.15,0c0-5.16-1.73-8-5.37-8s-5.33,2.91-5.33,8c0,4.85,1.42,8,5.33,8S744.06,461.7,744.06,456.41Z"/><path class="cls-17" d="M754.11,451.41c0,4.24,9.81,2.74,9.81,9.44,0,3.19-2.46,5.89-6.86,5.89a11.86,11.86,0,0,1-6-1.69l.89-2.26a9.18,9.18,0,0,0,5,1.65c2.42,0,3.92-1.33,3.92-3.39,0-4.76-9.69-3-9.69-9.68,0-2.67,2-5.21,6.54-5.21a12.77,12.77,0,0,1,5.93,1.29l-.73,2.26a10.55,10.55,0,0,0-5.16-1.21C755.33,448.5,754.11,449.59,754.11,451.41Z"/><path class="cls-17" d="M779.75,457.34c0,4.88,2.5,7,6.25,7a12.3,12.3,0,0,0,6.14-2l.77,2.17a14.19,14.19,0,0,1-7.23,2.18c-5.4,0-9-3.59-9-10.41,0-6.25,3.07-10.17,8.48-10.17,5.57,0,7.91,4.48,7.91,9.44v1.74ZM785,448.5c-3.76,0-5.29,3.31-5.29,6.7h10.33C790.08,451.77,788.91,448.5,785,448.5Z"/><path class="cls-17" d="M797.92,460.89v-22.4h3V462c0,1.7.77,2.38,2.95,2.38h.65v2.1a9.27,9.27,0,0,1-1.94.24C798.85,466.74,797.92,464.61,797.92,460.89Z"/><path class="cls-17" d="M570.07,499.61a14,14,0,0,1-6.58,1.74c-5,0-8.63-3-8.63-10.29,0-6.7,3.67-10.3,8.63-10.3a12.78,12.78,0,0,1,6.46,1.58l-.89,2.18a10.7,10.7,0,0,0-5.41-1.29c-3.55,0-5.73,2.82-5.73,7.83,0,5.57,2.18,7.91,5.73,7.91a11.2,11.2,0,0,0,5.7-1.66Z"/><path class="cls-17" d="M587.27,500.94l-.44-2.26a8.42,8.42,0,0,1-6.14,2.67c-4.4,0-6.82-2.63-6.82-8V481.17h3.07v11.94c0,4.08,1.29,5.78,4.48,5.78A7.8,7.8,0,0,0,586.3,497V481.17h3.11v19.77Z"/><path class="cls-17" d="M609.88,488.47v12.47h-3.11V489c0-3.76-1.09-5.82-4.44-5.82a7.1,7.1,0,0,0-4.77,2.26v15.5H594.5V481.17h2l.64,2.38a8.32,8.32,0,0,1,6-2.79c3,0,4.85,1.05,5.82,3a8.62,8.62,0,0,1,6.17-3c4.85,0,7,2.71,7,7.71v12.47H619V489c0-3.76-1.41-5.82-4.77-5.82a7.1,7.1,0,0,0-4.72,2.26A11.72,11.72,0,0,1,609.88,488.47Z"/><path class="cls-17" d="M630.06,502.28v6.33H627V481.17h2.39l.48,2.34a7.94,7.94,0,0,1,5.77-2.75c5,0,7.55,3.6,7.55,10.25,0,7-3.47,10.34-8.19,10.34a7,7,0,0,1-5.33-2.26A18.42,18.42,0,0,1,630.06,502.28Zm0-5.37a6.63,6.63,0,0,0,4.68,2.14c3.6,0,5.29-2.34,5.29-8,0-5.2-1.49-7.87-5.08-7.87a7.1,7.1,0,0,0-4.89,2.3Z"/><path class="cls-17" d="M648,495.5V473.09h3v23.54c0,1.69.76,2.38,2.94,2.38h.65v2.09a8.92,8.92,0,0,1-1.94.25C648.92,501.35,648,499.21,648,495.5Z"/><path class="cls-17" d="M660,500.94V483.63l-2.18-.45v-2H663v19.77Zm-.29-27.56H663v3.23h-3.27Z"/><path class="cls-17" d="M683.75,488.47v12.47h-3.11V489c0-3.76-1.09-5.82-4.44-5.82a7.06,7.06,0,0,0-4.76,2.26v15.5h-3.07V481.17h2l.65,2.38a8.3,8.3,0,0,1,6-2.79c3,0,4.84,1.05,5.81,3a8.62,8.62,0,0,1,6.18-3c4.84,0,7,2.71,7,7.71v12.47h-3.11V489c0-3.76-1.41-5.82-4.76-5.82a7.08,7.08,0,0,0-4.72,2.26A11.74,11.74,0,0,1,683.75,488.47Z"/><path class="cls-17" d="M702.4,500.94V483.63l-2.18-.45v-2h5.17v19.77Zm-.28-27.56h3.27v3.23h-3.27Z"/><path class="cls-17" d="M713.18,491.94c0,4.89,2.5,7,6.26,7a12.29,12.29,0,0,0,6.13-2l.77,2.18a14.19,14.19,0,0,1-7.22,2.18c-5.41,0-9-3.59-9-10.42,0-6.25,3.07-10.17,8.48-10.17,5.57,0,7.91,4.48,7.91,9.45v1.73Zm5.29-8.84c-3.75,0-5.29,3.31-5.29,6.7h10.33C723.51,486.37,722.35,483.1,718.47,483.1Z"/><path class="cls-17" d="M743.62,500.94V489c0-3.76-1.17-5.82-4.52-5.82a7.39,7.39,0,0,0-4.85,2.26v15.5h-3.06V481.17h2l.61,2.34a8.66,8.66,0,0,1,6.22-2.75c4.64,0,6.7,2.79,6.7,7.71v12.47Z"/><path class="cls-17" d="M758.36,501.35c-2.79,0-5.09-1.41-5.09-6.06v-11.9h-3v-2.22h3v-3.6l3.07-1v4.56h5.77v2.22h-5.77v12.27c0,2.1.76,3.1,2.62,3.1a8.63,8.63,0,0,0,3.15-.84l.6,2.26A9.67,9.67,0,0,1,758.36,501.35Z"/><path class="cls-17" d="M783,491c0,6.66-3.23,10.34-8.52,10.34S766,497.76,766,491c0-5.81,2.74-10.25,8.43-10.25C780,480.76,783,485.12,783,491Zm-3.15,0c0-5.16-1.74-7.95-5.37-7.95s-5.33,2.91-5.33,7.95c0,4.85,1.42,8,5.33,8S779.83,496.3,779.83,491Z"/><path class="cls-17" d="M809.54,498.56a7.46,7.46,0,0,1-5.69,2.79c-4.68,0-8-3.47-8-10.34,0-6,3-10.25,8.27-10.25a8.28,8.28,0,0,1,5.29,1.7,27.72,27.72,0,0,1-.16-3.23v-6.14h3.07v27.85h-2.3Zm-.24-14a8.45,8.45,0,0,0-4.8-1.42c-3.72,0-5.49,2.91-5.49,7.91s1.57,8,5.28,8a6.69,6.69,0,0,0,5-2.51Z"/><path class="cls-17" d="M820.12,491.94c0,4.89,2.5,7,6.25,7a12.29,12.29,0,0,0,6.14-2l.77,2.18a14.19,14.19,0,0,1-7.23,2.18c-5.41,0-9-3.59-9-10.42,0-6.25,3.07-10.17,8.48-10.17,5.57,0,7.91,4.48,7.91,9.45v1.73Zm5.29-8.84c-3.76,0-5.29,3.31-5.29,6.7h10.33C830.45,486.37,829.28,483.1,825.41,483.1Z"/><path class="cls-17" d="M863.27,491c0,6.66-3.23,10.34-8.51,10.34s-8.44-3.59-8.44-10.34c0-5.81,2.74-10.25,8.44-10.25C860.24,480.76,863.27,485.12,863.27,491Zm-3.15,0c0-5.16-1.73-7.95-5.36-7.95s-5.33,2.91-5.33,7.95c0,4.85,1.41,8,5.33,8S860.12,496.3,860.12,491Z"/><path class="cls-17" d="M870.66,483.43a8.45,8.45,0,0,1,5.89-2.67c5.05,0,7.67,3.6,7.67,10.25,0,7-3.47,10.34-8.23,10.34a7.63,7.63,0,0,1-5.73-2.55l-.65,2.14h-1.69V473.09H871v7.67Zm.32,13.36a7,7,0,0,0,4.81,2.26c3.47,0,5.33-2.34,5.33-8,0-5.2-1.54-7.91-5.13-7.91a7.4,7.4,0,0,0-5,2.22Z"/><path class="cls-17" d="M893.63,501.27c0,4-2,6-4.84,6a8.3,8.3,0,0,1-2.83-.52l.37-2.59a5.91,5.91,0,0,0,1.93.37c1.54,0,2.34-1.14,2.34-3.19V483.59l-2.18-.45v-2h5.21Zm-3.27-27.89h3.27v3.23h-3.27Z"/><path class="cls-17" d="M902.07,491.94c0,4.89,2.5,7,6.26,7a12.29,12.29,0,0,0,6.13-2l.77,2.18a14.19,14.19,0,0,1-7.23,2.18c-5.41,0-9-3.59-9-10.42,0-6.25,3.07-10.17,8.48-10.17,5.57,0,7.91,4.48,7.91,9.45v1.73Zm5.29-8.84c-3.76,0-5.29,3.31-5.29,6.7H912.4C912.4,486.37,911.23,483.1,907.36,483.1Z"/><path class="cls-17" d="M926.73,501.35c-2.78,0-5.08-1.41-5.08-6.06v-11.9h-3v-2.22h3v-3.6l3.06-1v4.56h5.78v2.22h-5.78v12.27c0,2.1.77,3.1,2.63,3.1a8.63,8.63,0,0,0,3.15-.84l.6,2.26A9.68,9.68,0,0,1,926.73,501.35Z"/><path class="cls-17" d="M936.67,500.94V483.63l-2.19-.45v-2h5.17v19.77Zm-.29-27.56h3.27v3.23h-3.27Z"/><path class="cls-17" d="M953.74,500.94h-4.56l-6.34-19.77h3.39l5.37,17.88h.08L957,481.17h3.15Z"/><path class="cls-17" d="M979.61,491c0,6.66-3.22,10.34-8.51,10.34s-8.44-3.59-8.44-10.34c0-5.81,2.75-10.25,8.44-10.25C976.59,480.76,979.61,485.12,979.61,491Zm-3.14,0c0-5.16-1.74-7.95-5.37-7.95s-5.33,2.91-5.33,7.95c0,4.85,1.41,8,5.33,8S976.47,496.3,976.47,491Z"/><path class="cls-17" d="M986.52,486c0,4.24,9.81,2.74,9.81,9.44,0,3.19-2.46,5.9-6.86,5.9a11.92,11.92,0,0,1-6-1.7l.89-2.26a9.22,9.22,0,0,0,5,1.66c2.42,0,3.91-1.34,3.91-3.39,0-4.77-9.69-3-9.69-9.69,0-2.66,2-5.21,6.55-5.21a13,13,0,0,1,5.93,1.29l-.73,2.26a10.7,10.7,0,0,0-5.17-1.21C987.73,483.1,986.52,484.19,986.52,486Z"/><path class="cls-17" d="M1000.25,496.42h3v4.52h-3Z"/><path class="cls-18" d="M568.34,256.89A18.59,18.59,0,0,0,559.8,255c-3.35,0-4.73,1.27-4.73,2.92,0,5.67,16.8,3.31,16.8,16,0,6.06-5.24,11.79-14,11.79a20.76,20.76,0,0,1-12.5-4.08l3.25-6.61a15.76,15.76,0,0,0,9.31,3.36c3,0,4.9-1.65,4.9-3.86,0-6.88-16.69-3-16.69-16.52,0-5.84,4.63-10.58,13.83-10.58a24.93,24.93,0,0,1,11.34,2.48Z"/><path class="cls-18" d="M585.86,274c0,3.08,2,5.12,6.17,5.12a19.76,19.76,0,0,0,7.61-2l1.54,6.06a23.61,23.61,0,0,1-10.47,2.54c-8.64,0-13.66-5.34-13.66-14.1,0-8.16,3.91-14,13.06-14,8.43,0,11.79,6,11.79,12.77V274Zm4-10c-2.86,0-4,2.59-4,5.07h7.77C593.63,266.14,592.81,263.94,589.83,263.94Z"/><path class="cls-18" d="M633,258.16l-.11,6.72a16.23,16.23,0,0,1-4.46-1.38,9.65,9.65,0,0,1,2.2,3.36c0,6.67-6.72,9.42-11.57,9.42a15.56,15.56,0,0,1-3.41-.44,1.06,1.06,0,0,0-.77,1c0,2.87,17.07-.71,17.07,9.7,0,6.33-6.22,9.91-13.49,9.91-5.84,0-11.68-2.2-11.68-7.05,0-3.47,2.87-5.06,7.33-5.73-3.42-.38-7.16-1.37-7.16-4.79,0-2.37,2.25-4.07,5.5-4.29-2.75-1.49-5-3.91-5-7.77,0-7.21,7-9.25,11.56-9.25C623.71,257.94,629.27,258.16,633,258.16Zm-15.31,26a3.15,3.15,0,0,0-2.92,3.25c0,1.87,1.54,3.36,4.18,3.36s4.41-1.49,4.41-3.58S621.34,284.43,617.71,284.16Zm5.34-17.36c0-2.31-2.2-3.08-4-3.08s-4,.77-4,3.08c0,2.65,2.09,3.42,4,3.42S623.05,269.45,623.05,266.8Z"/><path class="cls-18" d="M657.54,285.15l-1.38-3.42a10.22,10.22,0,0,1-8.43,4c-7.11,0-10.08-3.86-10.08-11.29V258.16h8.7v16.47c0,3.36,1.38,4.46,4.08,4.46a7.88,7.88,0,0,0,3.91-1V258.16h8.81v27Z"/><path class="cls-18" d="M672.08,285.15V264.33l-3.19-.72v-5.45h11.84v27Zm-.16-38.23h8.7v7.6h-8.7Z"/><path class="cls-18" d="M713.18,268.62v16.53h-8.81V269.23c0-3.53-1.49-5-4.19-5a8.36,8.36,0,0,0-3.64.93v20h-8.7v-27h5.84l1.38,3a9.76,9.76,0,0,1,7.93-3.58c4.57,0,7.21,1.26,8.65,3.58a10,10,0,0,1,8-3.58c8.32,0,10.19,4.13,10.19,11v16.53H721V269.23c0-3.53-1.65-5-4.35-5a8.55,8.55,0,0,0-3.69.93A23.74,23.74,0,0,1,713.18,268.62Z"/><path class="cls-18" d="M738.74,285.15V264.33l-3.19-.72v-5.45h11.84v27Zm-.16-38.23h8.7v7.6h-8.7Z"/><path class="cls-18" d="M762.21,274c0,3.08,2,5.12,6.17,5.12a19.67,19.67,0,0,0,7.6-2l1.55,6.06a23.65,23.65,0,0,1-10.47,2.54c-8.65,0-13.66-5.34-13.66-14.1,0-8.16,3.91-14,13.05-14,8.43,0,11.79,6,11.79,12.77V274Zm4-10c-2.87,0-4,2.59-4,5.07H770C770,266.14,769.15,263.94,766.18,263.94Z"/><path class="cls-18" d="M800.94,285.15V269.23c0-3.53-1.48-5-4.18-5a9.1,9.1,0,0,0-3.81.93v20h-8.7v-27h6l1.21,3c1.6-2,4.57-3.58,8.59-3.58,7.05,0,9.69,4.13,9.69,11v16.53Z"/><path class="cls-18" d="M834.71,283.77a16.64,16.64,0,0,1-7.66,1.93c-5.06,0-8.81-3.25-8.81-9.7V264.33h-3.86v-6.17h4v-4.63l8.49-2.75v7.38h6.88v6.17h-6.88v11.4a2.23,2.23,0,0,0,2.48,2.53,9.65,9.65,0,0,0,4.07-.93Z"/><path class="cls-18" d="M865.23,271.6c0,9.25-4.74,14.1-13.22,14.1s-13.22-4.85-13.22-14.1c0-7.94,4.74-14,13.22-14S865.23,263.66,865.23,271.6Zm-9,0c0-6.28-1.71-7.71-4.24-7.71s-4.24,1.43-4.24,7.71c0,6.06,1.6,7.71,4.24,7.71S856.25,277.66,856.25,271.6Z"/><path class="cls-18" d="M896.14,284.32l-5.73,1.16-8.1-27.32h9.81L897,279.8h.16l5-21.64h8.59l-8.26,28.09c-2.31,7.38-6.55,10.24-12.28,10.24a15.26,15.26,0,0,1-8.32-2.91l2.7-5.95h.82a9.3,9.3,0,0,0,5.18,2c2.76,0,4.74-2,5.4-4.73Z"/><path class="cls-18" d="M553.86,321.19c0,3.08,2,5.12,6.16,5.12a19.91,19.91,0,0,0,7.61-2l1.54,6.06a23.76,23.76,0,0,1-10.47,2.53c-8.64,0-13.66-5.34-13.66-14.1,0-8.15,3.91-14,13.06-14,8.43,0,11.79,6,11.79,12.78v3.58Zm4-10c-2.86,0-4,2.59-4,5.07h7.76C561.62,313.36,560.8,311.16,557.82,311.16Z"/><path class="cls-18" d="M593.63,332.37H581l-7.83-27H583l4.9,21.7h.22l4.85-21.7h8.7Z"/><path class="cls-18" d="M622.89,332.37l-1.11-3.09a9.21,9.21,0,0,1-7.65,3.64c-5.35,0-9.26-3.42-9.26-8.87,0-5.18,3.86-8.1,10.52-8.1h5v-1c0-2.86-1.93-3.52-4.08-3.52a19.3,19.3,0,0,0-8,1.76L606.14,307a29,29,0,0,1,11-2.2c8.31,0,11.67,3.63,11.67,10.74v16.8ZM620.41,321h-3.47c-2.32,0-3.53,1.1-3.53,2.86a2.94,2.94,0,0,0,3.25,3.25,8,8,0,0,0,3.75-1.1Z"/><path class="cls-18" d="M644,294.36V324a1.82,1.82,0,0,0,1.82,2.09l2.2.17v6.17a27,27,0,0,1-4.57.49c-5.5,0-8.09-2.92-8.09-7.55v-31Z"/><path class="cls-18" d="M672.85,332.37,671.48,329a10.22,10.22,0,0,1-8.43,4c-7.11,0-10.08-3.86-10.08-11.29V305.38h8.7v16.47c0,3.36,1.38,4.46,4.08,4.46a7.88,7.88,0,0,0,3.91-1.05V305.38h8.81v27Z"/><path class="cls-18" d="M701.94,332.37l-1.1-3.09a9.21,9.21,0,0,1-7.65,3.64c-5.35,0-9.26-3.42-9.26-8.87,0-5.18,3.86-8.1,10.52-8.1h5v-1c0-2.86-1.93-3.52-4.08-3.52a19.27,19.27,0,0,0-8,1.76L685.2,307a28.91,28.91,0,0,1,11-2.2c8.32,0,11.67,3.63,11.67,10.74v16.8ZM699.47,321H696c-2.32,0-3.53,1.1-3.53,2.86a2.94,2.94,0,0,0,3.25,3.25,8,8,0,0,0,3.75-1.1Z"/><path class="cls-18" d="M734.56,312.87a13.69,13.69,0,0,0-6.44-1.54c-3.2,0-5.29,1.87-5.29,7.49,0,5.4,1.81,7.49,5.34,7.49a16,16,0,0,0,7.05-1.93l1.54,6.17a21.62,21.62,0,0,1-9.42,2.37c-8.59,0-13.44-4.85-13.44-14.1,0-8.65,4.8-14,13.39-14a18.9,18.9,0,0,1,9.47,2.2Z"/><path class="cls-18" d="M744.59,332.37V311.55l-3.2-.72v-5.45h11.85v27Zm-.17-38.23h8.71v7.6h-8.71Z"/><path class="cls-18" d="M785.68,318.82c0,9.25-4.73,14.1-13.22,14.1s-13.22-4.85-13.22-14.1c0-7.93,4.74-14,13.22-14S785.68,310.89,785.68,318.82Zm-20.32-17.63-.77-4.95,14.82-3.64,1,6.39Zm11.35,17.63c0-6.28-1.71-7.71-4.25-7.71s-4.24,1.43-4.24,7.71c0,6.06,1.6,7.71,4.24,7.71S776.71,324.88,776.71,318.82Z"/><path class="cls-18" d="M808.38,332.37V316.45c0-3.53-1.48-5-4.18-5a9,9,0,0,0-3.81.94v20h-8.7v-27h6l1.21,3c1.6-2,4.57-3.58,8.59-3.58,7,0,9.69,4.13,9.69,11v16.53Z"/><path class="cls-18" d="M823.21,305.38H832V314h-8.81Zm0,18.4H832v8.59h-8.81Z"/></svg>