<svg id="Capa_1" data-name="Capa 1" xmlns="http://www.w3.org/2000/svg" xmlns:xlink="http://www.w3.org/1999/xlink" viewBox="0 0 512 512"><defs><style>.cls-1,.cls-12,.cls-14,.cls-2{fill:none;}.cls-2{stroke:#e7334a;stroke-width:3px;}.cls-12,.cls-14,.cls-2{stroke-linecap:round;stroke-linejoin:round;}.cls-3{fill:#222b54;}.cls-4{fill:#f8b78e;}.cls-5{fill:#1db1bf;}.cls-6{clip-path:url(#clip-path);}.cls-7{fill:#ca1335;}.cls-8{fill:#f9b041;}.cls-9{fill:#f2979b;}.cls-10{fill:#eb575a;}.cls-11{fill:#8f96cb;}.cls-12{stroke:#7a7ba3;}.cls-12,.cls-14,.cls-16{stroke-width:0.5px;}.cls-13{fill:#fff;}.cls-14{stroke:#eb575a;}.cls-15{fill:#e7334a;}.cls-15,.cls-16,.cls-17,.cls-18{stroke:#fff;stroke-miterlimit:10;}.cls-16,.cls-17{fill:#615185;}.cls-17{stroke-width:0.75px;}.cls-18{fill:#55b682;}</style><clipPath id="clip-path"><rect class="cls-1" x="274.18" y="98.68" width="67.07" height="124.82"/></clipPath></defs><path class="cls-2" d="M386,345.45c22.77,27.92,55,15.77,64.78,1.65,15.37-22.1,33.5-21,39.54-7.09,9.13,21,5.26,36.79-20,59"/><path class="cls-2" d="M202.49,85.05c4.1-3.67,15.5-7.16,27.77,3.43C254,109,222.05,144.36,205,166.28c-19.27,24.81-13.95,86.4,74.14,34.19"/><path class="cls-2" d="M374.17,179c33.73,6.16,66.8-8.23,60.51-40.84-4.28-22.21-31.51-45.46,21.6-63"/><path class="cls-3" d="M421.83,316.47a26.52,26.52,0,0,0,22.26-9.23c6.51-7.78,7.93-18.92,5.68-28.81S442,259.7,435.89,251.62a171.14,171.14,0,0,0-21.55-23.47c-4.74-4.28-9.91-8.55-12.26-14.49a31.41,31.41,0,0,1-1.72-10.82c-.47-20.11,5-39.84,7.17-59.84s.27-41.9-12.68-57.29c-11.32-13.46-29.51-19.65-47.09-20.06s-34.85,4.29-51.67,9.4c-20.61,6.26-46.47,29.6-47.6,52.79C247.65,145,260,161,258.38,178.17c-1.63,16.91-16.11,29.25-24.65,43.94-5.77,9.94-8.93,21.61-7.61,33s7.41,22.47,17.11,28.64c8.2,5.21,18.41,6.79,26.18,12.62,6.82,5.11,11.29,13.18,18.83,17.17a21.65,21.65,0,0,0,19.49.24"/><path class="cls-4" d="M433.58,318c-.44-6.21-1-12.48-3-18.38-2.74-8.14-8-15.17-13.82-21.52A141.37,141.37,0,0,0,391.07,256c-8.81-5.92-18.44-11-25.61-18.79a36.59,36.59,0,0,1-5.21-7.37h0V213h-3.36c0-.19.06-.38.1-.57a50.49,50.49,0,0,0,17.76-28.09l-.58-1.37c.88,2.46,4.07,3,6.69,3.1,8.9.41,19,.36,25.14-6.1,5.75-6,5.32-16.83-.88-22.4s-17-4.82-22.37,1.55c1.63-14.85,3.26-30,.34-44.62S372,85.5,358.55,78.93c-15.3-7.5-35.65-2.86-49,6.73-9.49,6.83-16.79,16.36-22.38,26.63-10.64,19.54-15.42,42.51-11.79,64.46A64.36,64.36,0,0,0,283,199c9.41,15.95,28.33,25.64,46.74,24.39V237.8h0a57.69,57.69,0,0,1-5.89,8.5c-7,8.48-15.79,15.38-22.91,23.79-11.67,13.76-18.49,31.11-22.19,48.78s-4.44,35.8-5.17,53.83c-.1,2.26-.09,4.77,1.45,6.42a8.36,8.36,0,0,0,4.38,2A227.47,227.47,0,0,0,430.81,364a7.66,7.66,0,0,0,2.54-1.72c1.13-1.33,1.23-3.23,1.26-5Q435,337.64,433.58,318Z"/><path class="cls-3" d="M286.31,159.38c.86-5.36,5.74-18.53,13.24-13.5,6.32,4.26,5.41,12.19,5.28,18.77,0,2.14,3.3,2.14,3.34,0,.16-8.37.27-20.08-9.86-23-8.86-2.58-14.15,10.21-15.21,16.88-.34,2.1,2.88,3,3.21.89"/><path class="cls-3" d="M314,123.93a311.1,311.1,0,0,1-1.87,45.57c-.24,2.12,3.1,2.11,3.34,0a311.09,311.09,0,0,0,1.86-45.57c-.07-2.14-3.4-2.15-3.33,0"/><path class="cls-3" d="M330.41,166.1c-.29-6,1.17-21.17,10.08-20.11s9.14,14.4,9.35,20.88c.07,2.14,3.41,2.15,3.34,0-.28-8.63-1.52-23.69-13.06-24.32-11-.6-13.43,15.62-13.05,23.55.11,2.14,3.44,2.15,3.34,0"/><path class="cls-3" d="M302.73,171.47a12.4,12.4,0,0,0,12.65,10c2.14-.1,2.15-3.44,0-3.33a9.1,9.1,0,0,1-9.43-7.57c-.37-2.11-3.59-1.22-3.22.89"/><path class="cls-3" d="M389,152.21a62.28,62.28,0,0,0,4.17-36.11c-1.33-7.6-1.86-17.41-5.05-24.5-9.18-20.45-41.32-24.21-60.42-20.3-9.27,1.9-16.44,5.84-14.4,16a46.3,46.3,0,0,0,13,23.43c8.38,8.33,19.23,13.79,30.41,17.62a7.11,7.11,0,0,1,3.21,1.75c1.06,1.23,1.1,3,1.19,4.63a39.82,39.82,0,0,0,8.12,21.82c2,2.59,4.57,5.07,7.81,5.47,5.5.67,9.72-4.74,12-9.79"/><path class="cls-5" d="M413.36,323.6a10.26,10.26,0,0,0-6.46-5.84L387,311.36c-1.08-.35-2.19-.7-3.3-1q.78-30.25,2.88-60.44c.45-6.43-9.57-6.4-10,0q-2.12,30.48-2.89,61c-.8.31-1.59.66-2.36,1a178.51,178.51,0,0,0-27,15.27c-6.41-5.49-13-11.08-20.83-14.18a35.59,35.59,0,0,0-5.95-1.64l0-.35c.71-18.83,1.84-37.62,3.49-56.39.57-6.41-9.45-6.37-10,0-1.63,18.54-2.74,37.09-3.46,55.69-6.58-.14-13.17.88-16.76,3.93a7.32,7.32,0,0,0-2,2.69c-.83,16.81-2.31,33.63-2.92,50.42.75,5.28,1.74,10.54,3,15.73a228.19,228.19,0,0,0,123.16-11c.54-3.33,1-6.68,1.25-10.05C414.36,349.26,413.7,336.43,413.36,323.6Z"/><path class="cls-3" d="M385.38,165a100.33,100.33,0,0,0,15.38,13.73c1.74,1.26,3.4-1.64,1.68-2.89a96,96,0,0,1-14.71-13.2c-1.44-1.59-3.8.78-2.35,2.36"/><path class="cls-3" d="M385.78,177.52q6.45-6,13.44-11.35c1.68-1.29,0-4.18-1.68-2.88q-7.34,5.61-14.12,11.87c-1.58,1.46.78,3.82,2.36,2.36"/><g class="cls-6"><path class="cls-4" d="M293.77,198.43C282.83,182,278.34,162.37,282.14,143a227.55,227.55,0,0,1,7.91-30.41,76,76,0,0,1,6.14-13.86c-.22.33-.47.65-.69,1a128.2,128.2,0,0,0-21.11,56,92.42,92.42,0,0,0,1,21.08A64.56,64.56,0,0,0,283,199c10.11,17.14,31.2,27.06,50.85,23.93a46.25,46.25,0,0,0,7.38-1.82c-18.84-.2-37.1-7.09-47.48-22.68"/></g><path class="cls-3" d="M350.45,156.29l6-2.11c2-.71,1.15-3.94-.88-3.22l-6,2.11c-2,.71-1.15,3.94.89,3.22"/><path class="cls-3" d="M351.43,162.8l5.63-.69c2.1-.25,2.13-3.59,0-3.33l-5.63.68c-2.11.26-2.13,3.6,0,3.34"/><path class="cls-3" d="M351,167.17a16.89,16.89,0,0,1,4.51,1.3c1.94.88,3.64-2,1.68-2.88a20.12,20.12,0,0,0-5.3-1.64c-2.11-.33-3,2.89-.89,3.22"/><path class="cls-3" d="M282.33,146.42l4,4.1c1.5,1.54,3.86-.82,2.37-2.36l-4-4.1c-1.5-1.54-3.86.82-2.36,2.36"/><path class="cls-3" d="M280.32,152.14a21.17,21.17,0,0,1,4.82,2.37c1.81,1.17,3.48-1.71,1.69-2.88a24.64,24.64,0,0,0-5.62-2.7c-2-.69-2.92,2.53-.89,3.21"/><path class="cls-3" d="M279.84,159a25.25,25.25,0,0,0,4.76-.18c2.1-.27,2.13-3.61,0-3.33a25.25,25.25,0,0,1-4.76.17c-2.15-.12-2.14,3.22,0,3.34"/><path class="cls-7" d="M318.35,244.87l.78-.39A1.08,1.08,0,0,0,318.35,244.87Z"/><path class="cls-7" d="M367.37,337.14c51.91-81.7,17.6-99.82,17.6-99.82l-15-2.6c.25.24,24.63,24.89-16.94,91.26-40.81-48.07-38.3-77.45-34.73-81.11l-9.94,5c-.83,1.59-21.27,26,30.44,87.2-10.73,11.75-21.35,35.22-11.53,81.26L340.76,431c-8.89-41.69,2.64-66.43,12.44-79.06,7,11,17.42,34.74,22.91,83l13.37-16.52c-5.61-49.32-15.11-71.46-22.87-81.68Z"/><path class="cls-8" d="M470.44,444.79l5.25-3-3-5.15a25.71,25.71,0,0,0,5.13-5.13l5.15,3,3-5.24-5.11-3a25.7,25.7,0,0,0,1.87-7h5.92v-6.07h-5.92a25.63,25.63,0,0,0-1.87-7l5.11-3L483,398l-5.15,3a25.71,25.71,0,0,0-5.13-5.13l3-5.14-5.24-3-2.95,5.11a24.72,24.72,0,0,0-7-1.86v-5.94H454.4v5.94a24.75,24.75,0,0,0-7,1.86l-3-5.13-5.24,3,3,5.15a25.71,25.71,0,0,0-5.13,5.13l-5.15-3-3,5.24,5.12,3a25.36,25.36,0,0,0-1.86,7h-5.93v6.07h5.93a25.33,25.33,0,0,0,1.86,7l-5.12,3,3,5.24,5.15-3a25.71,25.71,0,0,0,5.13,5.13l-3,5.15,5.24,3,3-5.12a25.78,25.78,0,0,0,7,1.86v5.93h6.06v-5.93a25.76,25.76,0,0,0,7-1.86Zm-13-18.37a10.22,10.22,0,1,1,10.22-10.22A10.21,10.21,0,0,1,457.43,426.42Z"/><path class="cls-8" d="M506.53,485.44v-4.29h-4.19a18,18,0,0,0-1.33-5l3.63-2.09-2.15-3.72-3.64,2.11a18.41,18.41,0,0,0-3.63-3.64l2.1-3.63-3.71-2.15-2.1,3.62a17.62,17.62,0,0,0-5-1.32v-4.2h-4.29v4.2a17.71,17.71,0,0,0-5,1.32l-2.1-3.63-3.7,2.15,2.1,3.64a18.2,18.2,0,0,0-3.64,3.64l-3.64-2.11-2.14,3.72,3.62,2.1a17.8,17.8,0,0,0-1.32,5h-4.2v4.3h4.2a18.05,18.05,0,0,0,1.32,5l-3.62,2.09,2.14,3.71,3.64-2.1a18.15,18.15,0,0,0,3.64,3.63l-2.1,3.64,3.7,2.15,2.1-3.63a18.05,18.05,0,0,0,5,1.32v4.2h4.29v-4.2a18,18,0,0,0,5-1.32l2.1,3.62,3.71-2.14-2.1-3.64a18.36,18.36,0,0,0,3.63-3.63l3.64,2.1,2.15-3.71L501,490.42a18,18,0,0,0,1.33-5Zm-22.13,5.1a7.24,7.24,0,1,1,7.23-7.25A7.24,7.24,0,0,1,484.4,490.54Z"/><path class="cls-9" d="M494,17.06V3.26h-8.83v8.51h-8.08V3.26H468.3v8.51h-8.08V3.26h-8.83V24.51c0,3.24,3.61,5.87,8.07,5.87H486c4.45,0,8.07-2.63,8.07-5.87V17.65a3.81,3.81,0,0,0,0-.59"/><path class="cls-10" d="M494,17.06c.12-4.14.24-8.52.4-14.19l-9.83-.21c-.06,2.5-.11,5.09-.18,8.33l-6.37-.14c0-2.64.07-5.39.12-8.63l-11-.1c0,2.67,0,5.44-.06,8.45l-5.63,0q0-4.14,0-8.53H450.14c0,4.16,0,8.28,0,12.33.06,3.7,0,7.07.17,10.87A6.76,6.76,0,0,0,453.93,30a11.3,11.3,0,0,0,5.44,1.37l10-.14c6.52-.19,12.62-.05,18.63-.57,2.92-.57,6-2.52,6.29-5.59.06-2.81-.08-5.45-.22-8,0,2.56-.07,5.3-.29,8-.43,2.67-3.25,4.29-5.94,4.68-5.68.19-12-.18-18.47-.21l-9.95-.15c-3,0-6.45-1.72-6.8-4.44-.1-3.21,0-7,0-10.58,0-3.23,0-6.51,0-9.83H459c0,2.91,0,5.75,0,8.5l10.54,0c0-3.06-.05-5.88-.07-8.58l6.65-.09c.05,3.14.09,5.81.13,8.38l9.77-.14c-.07-3.38-.12-6.09-.17-8.68l7.83-.22c.16,5.36.28,9.5.39,13.41"/><rect class="cls-9" x="457.7" y="30.24" width="29.85" height="9.07"/><path class="cls-10" d="M487.55,39.32c-4.06-.31-8.62-.57-13.62-.77l-7.81-.26-7.22-.17c0,.24.07-6.46.07-6.62l6.95,0,7.79-.15,7.24-.22,3.39-.15,1.63-.08,1-.08c.21,3.35.38,6,.53,8.54.09-1.33.19-2.7.29-4.19,0-.75.08-1.53.13-2.34,0-1,.08-2,.12-3.08L481,29.4l-7.24-.23L465.92,29,456.44,29c0,4.09,0,8.08.07,11.54l9.61-.17,7.81-.26c5-.21,9.56-.47,13.62-.77"/><rect class="cls-9" x="458.96" y="39.53" width="27.55" height="7.78"/><rect class="cls-9" x="449.92" y="82.85" width="45.84" height="14.96"/><path class="cls-10" d="M495.76,97.81c-6.25-.3-13.26-.56-20.92-.76l-23.73-.44c0-3.74.05-8.07.07-12.5,8.13-.06,16-.12,23.28-.19l11.14-.21,9.6-.3c.22,5.64.4,10.19.56,14.4.1-2.18.2-4.46.3-6.92.08-2.64.17-5.47.27-8.6l-21.87-.52-11.95-.13-13.85,0c0,6.16,0,12.19.07,17.41l14.11-.17,12-.26c7.66-.2,14.67-.46,20.92-.76"/><path class="cls-9" d="M485.67,66.86a84.81,84.81,0,0,1-2.09-19.55H461.07A84.78,84.78,0,0,1,459,66.86a76.62,76.62,0,0,1-6.1,16h38.91a77.28,77.28,0,0,1-6.1-16"/><path class="cls-10" d="M485.67,66.86c-.33-2.21-.67-4.52-1-6.89-.12-2.41-.38-4.88-.41-7.44,0-1.27,0-2.57,0-3.88,1-2.8-2.46-1.89-3.31-2.08l-8.34-.19-8.73-.14-2.87,0a3.19,3.19,0,0,0-1,0v1.06l0,1.7c-.07,1.49-.14,3-.22,4.52a79.79,79.79,0,0,1-1.22,9.14c-.34,1.52-.52,3.08-1,4.59s-.93,3-1.4,4.58a87.65,87.65,0,0,1-3.62,8.94l-1.05,2.13-.52,1c-.09.12,0,.14.1.12h.88l3.83,0,4.65,0,17.8-.26,8.35-.18,4.43-.11,1.45,0c.1,0,.27,0,.31,0l-.17-.33-.34-.65-1.15-2.24C489.87,78,489,75.63,488,73.44c-.81-2.27-1.58-4.46-2.33-6.58.57,2.17,1.12,4.44,1.81,6.76s1.56,4.68,2.64,7l.53,1.25c0,.1.3.4,0,.33l-.53,0-3.6-.1-8.35-.18-17.8-.26-4.65,0c-1.11,0-.84,0-.89,0s0-.05,0,0a81.35,81.35,0,0,0,3.65-8.95c.48-1.58,1-3.16,1.44-4.72s.65-3.21,1-4.79a75.89,75.89,0,0,0,1.12-9.46c.05-1.55.09-3.1.14-4.63v-.56c0-.05,0-.1.06-.08-.2,0,.95,0,1.6,0l8.73-.15,8.34-.18c1.6.06,2.2-.41,2,.61.08,1.32.17,2.64.25,3.92.19,2.58.61,5.06.9,7.46.55,2.35,1.08,4.64,1.58,6.82"/><path class="cls-10" d="M488.09,47.29c-3.74-.31-7.95-.57-12.56-.78l-7.21-.26-6.57-.16c0,.64.06-5.62.06-5.32l6.33,0,7.19-.15,6.69-.24,3.12-.15,1.5-.08.94-.09c.2,2.87.36,5.15.51,7.27.09-1.13.17-2.31.27-3.59,0-.64.09-1.3.13-2,0-.85.07-1.75.12-2.7L482,38.68l-6.69-.23-7.19-.15-8.86,0c0,3.63,0,7.18.06,10.25l9-.17,7.21-.26c4.61-.21,8.82-.47,12.56-.78"/><path class="cls-9" d="M510,108.93c0-.07,0-.15,0-.23v-5.63a5.27,5.27,0,0,0-5.28-5.28H444a5.27,5.27,0,0,0-5.28,5.28v5.63a1.64,1.64,0,0,0,0,.23Z"/><path class="cls-10" d="M510,108.82c.05-1.33.1-2.68.15-4.07a8.11,8.11,0,0,0-.49-4.24,5.53,5.53,0,0,0-3.43-2.92,23.29,23.29,0,0,0-4.59-.32l-19.29-.4-21.1-.26-11.13-.06-5.68,0a6.57,6.57,0,0,0-6.93,5.76c-.09,1,0,1.64,0,2.43,0,1.93,0,3.78,0,5.47,7.35-.07,14.49-.12,21.38-.17l18.72-.3c12-.23,22.88-.54,32.42-.9-9.55-.34-20.45-.61-32.42-.8l-18.73-.23-18.87-.1c0,.61,0-1.69,0-3,0-1.63-.08-2.77.62-3.79a4.1,4.1,0,0,1,3.83-1.88l5.68,0L461.2,99l21.1-.26,19.29-.39a24.28,24.28,0,0,1,4.37.05,4.93,4.93,0,0,1,3.16,2.4,7.86,7.86,0,0,1,.7,4c0,1.39.09,2.74.13,4.07"/><polygon class="cls-11" points="196.08 148.31 112.75 139.61 124.75 24.29 208.07 32.96 196.08 148.31"/><polygon class="cls-12" points="196.08 148.31 112.75 139.61 124.75 24.29 208.07 32.96 196.08 148.31"/><polygon class="cls-11" points="194.43 141.9 110.77 137.24 117.22 21.47 200.86 26.12 194.43 141.9"/><polygon class="cls-12" points="194.43 141.9 110.77 137.24 117.22 21.47 200.86 26.12 194.43 141.9"/><polygon class="cls-13" points="190.98 135.91 107.2 135.81 107.32 19.86 191.08 19.95 190.98 135.91"/><polygon class="cls-12" points="190.98 135.91 107.2 135.81 107.32 19.86 191.08 19.95 190.98 135.91"/><path class="cls-12" d="M161.24,115.35H117.83M161.24,108H117.83M161.24,93.2H117.83m43.41-7.38H117.83m43.41-15H117.83m43.41-7.38H117.83m43.41-7.38H117.83m43.41-14.77H117.83M161.24,34H117.83"/><path class="cls-14" d="M177.62,36.61l-5.94,9.44L168.06,43m9.56,21.44-5.94,9.43-3.62-3.1m9.56,17.76-5.94,9.44-3.62-3.1m9.56,15.81-5.94,9.43L168.06,117"/><path class="cls-15" d="M44.88,184.12c4.46-6.06,11.2-7.77,17.37-7.77,13.26,0,22.52,9.83,22.52,25.49,0,16-10.63,29.25-28.57,29.25-16.12,0-29.15-11.54-29.15-42.28,0-24.23,15-37.72,32.81-37.72a59.1,59.1,0,0,1,19,2.75l-3.09,13.83A38.51,38.51,0,0,0,61.23,165C52.43,165,46.14,171.78,44.88,184.12Zm.23,13.37c1.26,15.2,6.06,19.66,11.09,19.66,6.63,0,10.28-5.14,10.28-13.94,0-8.23-3.65-12.92-10.28-12.92C51.74,190.29,47.05,192.35,45.11,197.49Z"/><path class="cls-16" d="M14.71,400.42a5.1,5.1,0,0,1-3.87,1.89c-3.19,0-5.41-2.36-5.41-7,0-4.09,2-7,5.63-7a5.6,5.6,0,0,1,3.59,1.16,19.28,19.28,0,0,1-.11-2.2V383.1h2.09V402H15.06Zm-.17-9.55a5.73,5.73,0,0,0-3.26-1c-2.53,0-3.74,2-3.74,5.38s1.08,5.46,3.6,5.46a4.54,4.54,0,0,0,3.4-1.71Z"/><path class="cls-16" d="M21.9,395.92c0,3.32,1.7,4.77,4.25,4.77a8.28,8.28,0,0,0,4.17-1.34l.52,1.48a9.68,9.68,0,0,1-4.91,1.48c-3.68,0-6.12-2.44-6.12-7.08,0-4.25,2.09-6.92,5.77-6.92S31,391.36,31,394.74v1.18Zm3.59-6c-2.55,0-3.59,2.25-3.59,4.55h7C28.92,392.13,28.13,389.91,25.49,389.91Z"/><path class="cls-16" d="M41.71,384.61a5.91,5.91,0,0,0-1.72-.25c-1.82,0-2.61,1-2.61,3.16v1.07h3.18v1.59H37.38V402H35.32V390.18H33.15v-1.59h2.17v-1.21c0-3.07,1.48-4.75,4.5-4.75a8.63,8.63,0,0,1,2.09.28Z"/><path class="cls-16" d="M44,402V390.26l-1.48-.3v-1.37h3.51V402Zm-.19-18.75h2.22v2.2H43.83Z"/><path class="cls-16" d="M58.15,402v-8.13c0-2.55-.79-4-3.07-4a5,5,0,0,0-3.29,1.54V402H49.7V388.59h1.4l.41,1.59a5.88,5.88,0,0,1,4.23-1.87c3.16,0,4.55,1.9,4.55,5.25V402Z"/><path class="cls-16" d="M64.72,402V390.26l-1.49-.3v-1.37h3.52V402Zm-.2-18.75h2.23v2.2H64.52Z"/><path class="cls-16" d="M80.33,401.13a9.5,9.5,0,0,1-4.47,1.18c-3.4,0-5.88-2-5.88-7,0-4.55,2.5-7,5.88-7a8.68,8.68,0,0,1,4.39,1.07l-.61,1.49A7.2,7.2,0,0,0,76,390c-2.42,0-3.9,1.92-3.9,5.32,0,3.79,1.48,5.38,3.9,5.38a7.66,7.66,0,0,0,3.87-1.12Z"/><path class="cls-16" d="M84.15,402V390.26l-1.48-.3v-1.37h3.51V402ZM84,383.29h2.22v2.2H84Z"/><path class="cls-16" d="M100.89,395.29c0,4.52-2.2,7-5.79,7s-5.74-2.44-5.74-7c0-4,1.87-7,5.74-7S100.89,391.28,100.89,395.29Zm-2.14,0c0-3.52-1.18-5.41-3.65-5.41s-3.62,2-3.62,5.41c0,3.29,1,5.46,3.62,5.46S98.75,398.88,98.75,395.29Zm-6.56-8.79-.3-1.23L98,383l.41,1.56Z"/><path class="cls-16" d="M112.5,402v-8.13c0-2.55-.8-4-3.08-4a5,5,0,0,0-3.29,1.54V402h-2.08V388.59h1.4l.41,1.59a5.86,5.86,0,0,1,4.22-1.87c3.16,0,4.56,1.9,4.56,5.25V402Z"/><path class="cls-16" d="M132.89,400.42a5.1,5.1,0,0,1-3.87,1.89c-3.18,0-5.4-2.36-5.4-7,0-4.09,2-7,5.62-7a5.63,5.63,0,0,1,3.6,1.16,17.23,17.23,0,0,1-.11-2.2V383.1h2.08V402h-1.56Zm-.16-9.55a5.76,5.76,0,0,0-3.27-1c-2.52,0-3.73,2-3.73,5.38s1.07,5.46,3.59,5.46a4.57,4.57,0,0,0,3.41-1.71Z"/><path class="cls-16" d="M140.08,395.92c0,3.32,1.7,4.77,4.26,4.77a8.35,8.35,0,0,0,4.17-1.34l.52,1.48a9.71,9.71,0,0,1-4.91,1.48c-3.68,0-6.12-2.44-6.12-7.08,0-4.25,2.08-6.92,5.76-6.92s5.38,3.05,5.38,6.43v1.18Zm3.6-6c-2.55,0-3.6,2.25-3.6,4.55h7C147.11,392.13,146.31,389.91,143.68,389.91Z"/><path class="cls-16" d="M158.47,398.33V383.1h2.06v16c0,1.15.52,1.62,2,1.62H163v1.43a6.4,6.4,0,0,1-1.31.16C159.1,402.31,158.47,400.86,158.47,398.33Z"/><path class="cls-16" d="M173.89,402l-.35-1.73a5.32,5.32,0,0,1-4.15,2,4,4,0,0,1-4.33-4.12c0-2.33,1.7-3.84,4.75-3.84h3.48v-1.07c0-2.33-1-3.32-3-3.32a9.91,9.91,0,0,0-4.06.88l-.55-1.51a11.86,11.86,0,0,1,4.89-1c3.18,0,4.8,1.65,4.8,4.86V402Zm-.6-6.26h-3.15c-2.28,0-3,1-3,2.33,0,1.62.88,2.69,2.83,2.69a4.74,4.74,0,0,0,3.37-1.67Z"/><path class="cls-16" d="M180.43,391.88c0,2.88,6.67,1.87,6.67,6.42,0,2.17-1.68,4-4.67,4a8.13,8.13,0,0,1-4.06-1.15l.6-1.54a6.31,6.31,0,0,0,3.43,1.13c1.65,0,2.66-.91,2.66-2.31,0-3.24-6.58-2-6.58-6.59,0-1.81,1.37-3.54,4.45-3.54a8.78,8.78,0,0,1,4,.88l-.5,1.54a7.2,7.2,0,0,0-3.51-.82C181.25,389.91,180.43,390.65,180.43,391.88Z"/><path class="cls-16" d="M197.86,395.92c0,3.32,1.7,4.77,4.25,4.77a8.31,8.31,0,0,0,4.17-1.34l.52,1.48a9.68,9.68,0,0,1-4.91,1.48c-3.68,0-6.12-2.44-6.12-7.08,0-4.25,2.09-6.92,5.76-6.92s5.38,3.05,5.38,6.43v1.18Zm3.59-6c-2.55,0-3.59,2.25-3.59,4.55h7C204.88,392.13,204.08,389.91,201.45,389.91Z"/><path class="cls-16" d="M211.63,391.88c0,2.88,6.67,1.87,6.67,6.42,0,2.17-1.67,4-4.66,4a8.13,8.13,0,0,1-4.06-1.15l.6-1.54a6.28,6.28,0,0,0,3.43,1.13c1.65,0,2.66-.91,2.66-2.31,0-3.24-6.59-2-6.59-6.59,0-1.81,1.38-3.54,4.45-3.54a8.72,8.72,0,0,1,4,.88l-.49,1.54a7.2,7.2,0,0,0-3.51-.82C212.46,389.91,211.63,390.65,211.63,391.88Z"/><path class="cls-16" d="M225.9,402.31c-1.89,0-3.45-1-3.45-4.12V390.1h-2v-1.51h2v-2.44l2.08-.66v3.1h3.93v1.51h-3.93v8.34c0,1.43.52,2.11,1.79,2.11a5.82,5.82,0,0,0,2.14-.57l.41,1.53A6.56,6.56,0,0,1,225.9,402.31Z"/><path class="cls-16" d="M238.42,390.4a5.28,5.28,0,0,0-1.73-.25,4.29,4.29,0,0,0-3,1.46V402h-2.08V388.59H233l.38,1.7a4.46,4.46,0,0,1,3.49-1.89,6,6,0,0,1,1.7.22Z"/><path class="cls-16" d="M249.21,402l-.36-1.73a5.32,5.32,0,0,1-4.14,2,4,4,0,0,1-4.34-4.12c0-2.33,1.7-3.84,4.75-3.84h3.48v-1.07c0-2.33-1-3.32-3-3.32a9.87,9.87,0,0,0-4.06.88l-.55-1.51a11.77,11.77,0,0,1,4.88-1c3.18,0,4.8,1.65,4.8,4.86V402Zm-.61-6.26h-3.15c-2.28,0-3,1-3,2.33,0,1.62.88,2.69,2.83,2.69a4.74,4.74,0,0,0,3.37-1.67Z"/><path class="cls-16" d="M258.73,402.31c-1.89,0-3.46-1-3.46-4.12V390.1h-2v-1.51h2v-2.44l2.09-.66v3.1h3.92v1.51h-3.92v8.34c0,1.43.52,2.11,1.78,2.11a5.77,5.77,0,0,0,2.14-.57l.41,1.53A6.48,6.48,0,0,1,258.73,402.31Z"/><path class="cls-16" d="M266.06,395.92c0,3.32,1.7,4.77,4.25,4.77a8.28,8.28,0,0,0,4.17-1.34l.52,1.48a9.68,9.68,0,0,1-4.91,1.48c-3.67,0-6.12-2.44-6.12-7.08,0-4.25,2.09-6.92,5.77-6.92s5.37,3.05,5.37,6.43v1.18Zm3.59-6c-2.55,0-3.59,2.25-3.59,4.55h7C273.08,392.13,272.29,389.91,269.65,389.91Z"/><path class="cls-16" d="M289.85,388.59V390a14.2,14.2,0,0,1-3.26-.27,4,4,0,0,1,1.83,3.21c0,3.18-3,4.53-5.07,4.53a6.19,6.19,0,0,1-1.76-.3c-1,.08-1.42.46-1.42,1,0,1.67,8.8,0,8.8,4.77,0,3.13-2.88,4.64-5.76,4.64-2.63,0-5.35-1.4-5.35-4,0-1.78,1.37-2.88,3.4-3.18-1.64-.17-3-.74-3-2,0-.94.64-1.62,2-1.79a4,4,0,0,1-2.06-3.62c0-3.51,3.15-4.67,5.1-4.67C284.42,388.31,286.62,388.51,289.85,388.59Zm-6.78,12.07c-2,.06-3.21,1.1-3.21,2.72s1.68,2.74,3.41,2.74c2.05,0,3.62-.93,3.62-3.07C286.89,401.68,285.76,400.94,283.07,400.66Zm3.41-7.71a3.17,3.17,0,1,0-3.16,3.05A2.9,2.9,0,0,0,286.48,393Z"/><path class="cls-16" d="M293.45,402V390.26L292,390v-1.37h3.51V402Zm-.19-18.75h2.22v2.2h-2.22Z"/><path class="cls-16" d="M307.44,402l-.35-1.73a5.32,5.32,0,0,1-4.15,2,4,4,0,0,1-4.33-4.12c0-2.33,1.7-3.84,4.75-3.84h3.48v-1.07c0-2.33-1-3.32-3-3.32a9.92,9.92,0,0,0-4.07.88l-.54-1.51a11.77,11.77,0,0,1,4.88-1c3.18,0,4.8,1.65,4.8,4.86V402Zm-.6-6.26h-3.15c-2.28,0-3.05,1-3.05,2.33,0,1.62.88,2.69,2.83,2.69a4.74,4.74,0,0,0,3.37-1.67Z"/><path class="cls-16" d="M314,391.88c0,2.88,6.67,1.87,6.67,6.42,0,2.17-1.68,4-4.67,4a8.13,8.13,0,0,1-4.06-1.15l.6-1.54a6.31,6.31,0,0,0,3.43,1.13c1.65,0,2.67-.91,2.67-2.31,0-3.24-6.59-2-6.59-6.59,0-1.81,1.37-3.54,4.45-3.54a8.78,8.78,0,0,1,4,.88l-.49,1.54a7.23,7.23,0,0,0-3.52-.82C314.8,389.91,314,390.65,314,391.88Z"/><path class="cls-16" d="M10.48,425.48l-1.37.11L4.8,412.11H7.11s2.52,8.18,3.67,12.22c1.18-4.07,3.65-12.22,3.65-12.22h2.14l-4.31,13.31c-1.4,4.28-2.79,5.66-5.37,5.66a5.39,5.39,0,0,1-3-1.07l.68-1.4h.17a3.9,3.9,0,0,0,2.25.85c1.56,0,2.47-.94,3.32-3.49Z"/><path class="cls-16" d="M33.12,425.56l-.35-1.73a5.3,5.3,0,0,1-4.15,2,4,4,0,0,1-4.33-4.12c0-2.33,1.7-3.84,4.74-3.84h3.49v-1.07c0-2.34-1-3.32-3.05-3.32a9.91,9.91,0,0,0-4.06.88l-.55-1.51a11.82,11.82,0,0,1,4.89-1c3.18,0,4.8,1.65,4.8,4.86v8.86Zm-.6-6.26H29.36c-2.27,0-3,1-3,2.34a2.48,2.48,0,0,0,2.82,2.69,4.73,4.73,0,0,0,3.38-1.68Z"/><path class="cls-16" d="M48.05,424.65a9.48,9.48,0,0,1-4.47,1.19c-3.4,0-5.87-2-5.87-7,0-4.56,2.5-7,5.87-7A8.68,8.68,0,0,1,48,412.91l-.6,1.48a7.37,7.37,0,0,0-3.68-.88c-2.42,0-3.9,1.92-3.9,5.33,0,3.78,1.48,5.38,3.9,5.38a7.57,7.57,0,0,0,3.87-1.13Z"/><path class="cls-16" d="M60.73,424.65a9.48,9.48,0,0,1-4.47,1.19c-3.4,0-5.87-2-5.87-7,0-4.56,2.5-7,5.87-7a8.68,8.68,0,0,1,4.39,1.07l-.6,1.48a7.34,7.34,0,0,0-3.68-.88c-2.41,0-3.9,1.92-3.9,5.33,0,3.78,1.49,5.38,3.9,5.38a7.57,7.57,0,0,0,3.87-1.13Z"/><path class="cls-16" d="M64.55,425.56V413.79l-1.48-.3v-1.38h3.51v13.45Zm-.19-18.74h2.22V409H64.36Z"/><path class="cls-16" d="M81.29,418.81c0,4.53-2.19,7-5.79,7s-5.73-2.45-5.73-7c0-3.95,1.86-7,5.73-7S81.29,414.8,81.29,418.81Zm-2.14,0c0-3.51-1.18-5.41-3.65-5.41s-3.62,2-3.62,5.41,1,5.46,3.62,5.46S79.15,422.4,79.15,418.81Z"/><path class="cls-16" d="M92.9,425.56v-8.12c0-2.55-.79-3.95-3.07-3.95a5,5,0,0,0-3.3,1.53v10.54H84.45V412.11h1.4l.41,1.6a5.88,5.88,0,0,1,4.23-1.87c3.15,0,4.55,1.89,4.55,5.24v8.48Z"/><path class="cls-16" d="M100,419.44c0,3.32,1.7,4.78,4.25,4.78a8.28,8.28,0,0,0,4.17-1.35l.52,1.48a9.58,9.58,0,0,1-4.91,1.49c-3.68,0-6.12-2.45-6.12-7.08,0-4.26,2.09-6.92,5.77-6.92s5.37,3.05,5.37,6.42v1.18Zm3.59-6c-2.55,0-3.59,2.25-3.59,4.56h7C107.06,415.65,106.27,413.43,103.63,413.43Z"/><path class="cls-16" d="M113.82,415.41c0,2.88,6.66,1.86,6.66,6.42,0,2.17-1.67,4-4.66,4a8,8,0,0,1-4.06-1.16l.6-1.53a6.31,6.31,0,0,0,3.43,1.12c1.65,0,2.66-.9,2.66-2.3,0-3.24-6.58-2-6.58-6.59,0-1.81,1.37-3.54,4.44-3.54a8.67,8.67,0,0,1,4,.88l-.5,1.54a7.2,7.2,0,0,0-3.51-.83C114.64,413.43,113.82,414.17,113.82,415.41Z"/><path class="cls-16" d="M138.05,425.56v-8.12c0-2.55-.79-3.95-3.07-3.95a5,5,0,0,0-3.3,1.53v10.54H129.6V412.11H131l.41,1.6a5.86,5.86,0,0,1,4.23-1.87c3.15,0,4.55,1.89,4.55,5.24v8.48Z"/><path class="cls-16" d="M145.19,419.44c0,3.32,1.7,4.78,4.25,4.78a8.28,8.28,0,0,0,4.17-1.35l.52,1.48a9.58,9.58,0,0,1-4.91,1.49c-3.68,0-6.12-2.45-6.12-7.08,0-4.26,2.09-6.92,5.76-6.92s5.38,3.05,5.38,6.42v1.18Zm3.59-6c-2.55,0-3.59,2.25-3.59,4.56h7C152.21,415.65,151.42,413.43,148.78,413.43Z"/><path class="cls-16" d="M167.36,424.65a9.48,9.48,0,0,1-4.47,1.19c-3.4,0-5.87-2-5.87-7,0-4.56,2.49-7,5.87-7a8.68,8.68,0,0,1,4.39,1.07l-.6,1.48a7.37,7.37,0,0,0-3.68-.88c-2.42,0-3.9,1.92-3.9,5.33,0,3.78,1.48,5.38,3.9,5.38a7.57,7.57,0,0,0,3.87-1.13Z"/><path class="cls-16" d="M171.76,419.44c0,3.32,1.7,4.78,4.25,4.78a8.31,8.31,0,0,0,4.17-1.35l.52,1.48a9.58,9.58,0,0,1-4.91,1.49c-3.68,0-6.12-2.45-6.12-7.08,0-4.26,2.09-6.92,5.76-6.92s5.38,3.05,5.38,6.42v1.18Zm3.59-6c-2.55,0-3.59,2.25-3.59,4.56h7C178.78,415.65,178,413.43,175.35,413.43Z"/><path class="cls-16" d="M185.53,415.41c0,2.88,6.67,1.86,6.67,6.42,0,2.17-1.67,4-4.66,4a8,8,0,0,1-4.06-1.16l.6-1.53a6.28,6.28,0,0,0,3.43,1.12c1.65,0,2.66-.9,2.66-2.3,0-3.24-6.58-2-6.58-6.59,0-1.81,1.37-3.54,4.44-3.54a8.67,8.67,0,0,1,4,.88l-.5,1.54a7.2,7.2,0,0,0-3.51-.83C186.36,413.43,185.53,414.17,185.53,415.41Z"/><path class="cls-16" d="M203.59,425.56l-.35-1.73a5.3,5.3,0,0,1-4.15,2,4,4,0,0,1-4.33-4.12c0-2.33,1.7-3.84,4.74-3.84H203v-1.07c0-2.34-1-3.32-3.05-3.32a9.91,9.91,0,0,0-4.06.88l-.55-1.51a11.78,11.78,0,0,1,4.89-1c3.18,0,4.8,1.65,4.8,4.86v8.86Zm-.6-6.26h-3.16c-2.28,0-3,1-3,2.34a2.48,2.48,0,0,0,2.82,2.69,4.73,4.73,0,0,0,3.38-1.68Z"/><path class="cls-16" d="M215.42,413.93a5.28,5.28,0,0,0-1.73-.25,4.32,4.32,0,0,0-3,1.45v10.43h-2.08V412.11H210l.38,1.71a4.47,4.47,0,0,1,3.49-1.9,5.91,5.91,0,0,1,1.7.22Z"/><path class="cls-16" d="M219,425.56V413.79l-1.48-.3v-1.38H221v13.45Zm-.19-18.74H221V409h-2.22Z"/><path class="cls-16" d="M233,425.56l-.36-1.73a5.28,5.28,0,0,1-4.14,2,4,4,0,0,1-4.34-4.12c0-2.33,1.71-3.84,4.75-3.84h3.49v-1.07c0-2.34-1-3.32-3.05-3.32a9.91,9.91,0,0,0-4.06.88l-.55-1.51a11.77,11.77,0,0,1,4.88-1c3.19,0,4.81,1.65,4.81,4.86v8.86Zm-.6-6.26H229.2c-2.28,0-3,1-3,2.34,0,1.62.88,2.69,2.83,2.69a4.73,4.73,0,0,0,3.38-1.68Z"/><path class="cls-16" d="M239.49,415.41c0,2.88,6.67,1.86,6.67,6.42,0,2.17-1.67,4-4.66,4a8,8,0,0,1-4.06-1.16l.6-1.53a6.28,6.28,0,0,0,3.43,1.12c1.64,0,2.66-.9,2.66-2.3,0-3.24-6.59-2-6.59-6.59,0-1.81,1.38-3.54,4.45-3.54a8.6,8.6,0,0,1,4,.88l-.49,1.54a7.2,7.2,0,0,0-3.51-.83C240.32,413.43,239.49,414.17,239.49,415.41Z"/><path class="cls-16" d="M257.39,426.47v4.3h-2.12V412.11h1.62l.33,1.6a5.41,5.41,0,0,1,3.93-1.87c3.43,0,5.13,2.44,5.13,7,0,4.75-2.36,7-5.57,7a4.72,4.72,0,0,1-3.62-1.54A12.63,12.63,0,0,1,257.39,426.47Zm0-3.65a4.49,4.49,0,0,0,3.18,1.45c2.44,0,3.6-1.59,3.6-5.46,0-3.54-1-5.35-3.46-5.35a4.81,4.81,0,0,0-3.32,1.56Z"/><path class="cls-16" d="M277.78,425.56l-.36-1.73a5.28,5.28,0,0,1-4.14,2,4,4,0,0,1-4.34-4.12c0-2.33,1.71-3.84,4.75-3.84h3.49v-1.07c0-2.34-1-3.32-3.05-3.32a9.91,9.91,0,0,0-4.06.88l-.55-1.51a11.77,11.77,0,0,1,4.88-1c3.19,0,4.81,1.65,4.81,4.86v8.86Zm-.6-6.26H274c-2.28,0-3,1-3,2.34,0,1.62.88,2.69,2.83,2.69a4.73,4.73,0,0,0,3.38-1.68Z"/><path class="cls-16" d="M289.61,413.93a5.33,5.33,0,0,0-1.73-.25,4.32,4.32,0,0,0-3,1.45v10.43h-2.08V412.11h1.39l.39,1.71a4.46,4.46,0,0,1,3.48-1.9,6,6,0,0,1,1.71.22Z"/><path class="cls-16" d="M300.39,425.56l-.35-1.73a5.3,5.3,0,0,1-4.15,2,4,4,0,0,1-4.33-4.12c0-2.33,1.7-3.84,4.75-3.84h3.48v-1.07c0-2.34-1-3.32-3-3.32a9.92,9.92,0,0,0-4.07.88l-.54-1.51a11.77,11.77,0,0,1,4.88-1c3.18,0,4.8,1.65,4.8,4.86v8.86Zm-.6-6.26h-3.15c-2.28,0-3.05,1-3.05,2.34,0,1.62.88,2.69,2.83,2.69a4.71,4.71,0,0,0,3.37-1.68Z"/><path class="cls-16" d="M15.78,448.18a9.58,9.58,0,0,1-4.48,1.18c-3.4,0-5.87-2-5.87-7,0-4.55,2.5-7,5.87-7a8.66,8.66,0,0,1,4.39,1.07l-.6,1.48a7.21,7.21,0,0,0-3.68-.88C9,437,7.52,439,7.52,442.36c0,3.79,1.48,5.38,3.89,5.38a7.63,7.63,0,0,0,3.87-1.12Z"/><path class="cls-16" d="M27.47,449.09l-.3-1.54A5.73,5.73,0,0,1,23,449.36c-3,0-4.64-1.78-4.64-5.46v-8.26h2.08v8.12c0,2.77.88,3.93,3,3.93a5.32,5.32,0,0,0,3.32-1.32V435.64h2.11v13.45Z"/><path class="cls-16" d="M42.84,440.61v8.48H40.73V441c0-2.55-.74-3.95-3-3.95a4.78,4.78,0,0,0-3.24,1.54v10.54H32.38V435.64h1.38l.43,1.62a5.65,5.65,0,0,1,4.09-1.89c2,0,3.3.71,3.95,2.05a5.88,5.88,0,0,1,4.2-2.05c3.3,0,4.75,1.83,4.75,5.24v8.48H49.07V441c0-2.55-1-3.95-3.24-3.95a4.81,4.81,0,0,0-3.21,1.54A8.09,8.09,0,0,1,42.84,440.61Z"/><path class="cls-16" d="M56.56,450v4.31H54.45V435.64h1.62l.33,1.59a5.41,5.41,0,0,1,3.92-1.86c3.43,0,5.13,2.44,5.13,7,0,4.74-2.36,7-5.57,7a4.74,4.74,0,0,1-3.62-1.54A12.63,12.63,0,0,1,56.56,450Zm0-3.65a4.52,4.52,0,0,0,3.19,1.46c2.44,0,3.59-1.6,3.59-5.46,0-3.54-1-5.36-3.46-5.36a4.86,4.86,0,0,0-3.32,1.57Z"/><path class="cls-16" d="M68.75,445.38V430.15h2.06v16c0,1.15.52,1.62,2,1.62h.44v1.43a6.43,6.43,0,0,1-1.32.16C69.38,449.36,68.75,447.91,68.75,445.38Z"/><path class="cls-16" d="M76.93,449.09V437.31l-1.48-.3v-1.37H79v13.45Zm-.19-18.75H79v2.2H76.74Z"/><path class="cls-16" d="M93.07,440.61v8.48H91V441c0-2.55-.74-3.95-3-3.95a4.77,4.77,0,0,0-3.23,1.54v10.54H82.61V435.64H84l.44,1.62a5.63,5.63,0,0,1,4.09-1.89c2,0,3.29.71,3.95,2.05a5.86,5.86,0,0,1,4.2-2.05c3.29,0,4.75,1.83,4.75,5.24v8.48H99.29V441c0-2.55-1-3.95-3.23-3.95a4.78,4.78,0,0,0-3.21,1.54A8.09,8.09,0,0,1,93.07,440.61Z"/><path class="cls-16" d="M105.75,449.09V437.31l-1.49-.3v-1.37h3.52v13.45Zm-.2-18.75h2.23v2.2h-2.23Z"/><path class="cls-16" d="M113.08,443c0,3.32,1.7,4.77,4.25,4.77a8.31,8.31,0,0,0,4.17-1.34l.52,1.48a9.68,9.68,0,0,1-4.91,1.48c-3.68,0-6.12-2.44-6.12-7.08,0-4.25,2.09-6.91,5.76-6.91s5.38,3,5.38,6.42V443Zm3.59-6c-2.55,0-3.59,2.25-3.59,4.55h7C120.1,439.18,119.3,437,116.67,437Z"/><path class="cls-16" d="M133.77,449.09V441c0-2.55-.8-3.95-3.08-3.95a5,5,0,0,0-3.29,1.54v10.54h-2.08V435.64h1.4l.41,1.59a5.89,5.89,0,0,1,4.22-1.86c3.16,0,4.56,1.89,4.56,5.24v8.48Z"/><path class="cls-16" d="M143.79,449.36c-1.9,0-3.46-1-3.46-4.12v-8.09h-2v-1.51h2V433.2l2.08-.66v3.1h3.93v1.51h-3.93v8.34c0,1.43.53,2.11,1.79,2.11a5.82,5.82,0,0,0,2.14-.57l.41,1.53A6.51,6.51,0,0,1,143.79,449.36Z"/><path class="cls-16" d="M160.53,442.34c0,4.52-2.2,7-5.79,7s-5.74-2.44-5.74-7c0-4,1.87-7,5.74-7S160.53,438.33,160.53,442.34Zm-2.14,0c0-3.52-1.18-5.41-3.65-5.41s-3.62,2-3.62,5.41,1,5.46,3.62,5.46S158.39,445.93,158.39,442.34Z"/><path class="cls-16" d="M178.59,447.47a5.1,5.1,0,0,1-3.87,1.89c-3.18,0-5.41-2.36-5.41-7,0-4.09,2-7,5.63-7a5.6,5.6,0,0,1,3.59,1.15,19.28,19.28,0,0,1-.11-2.2v-4.17h2.09v18.94h-1.57Zm-.17-9.55a5.73,5.73,0,0,0-3.26-1c-2.53,0-3.73,2-3.73,5.38s1.07,5.46,3.59,5.46a4.52,4.52,0,0,0,3.4-1.71Z"/><path class="cls-16" d="M185.78,443c0,3.32,1.7,4.77,4.25,4.77a8.28,8.28,0,0,0,4.17-1.34l.53,1.48a9.75,9.75,0,0,1-4.92,1.48c-3.67,0-6.12-2.44-6.12-7.08,0-4.25,2.09-6.91,5.77-6.91s5.37,3,5.37,6.42V443Zm3.59-6c-2.55,0-3.59,2.25-3.59,4.55h7C192.8,439.18,192,437,189.37,437Z"/><path class="cls-16" d="M204.17,445.38V430.15h2.06v16c0,1.15.52,1.62,2,1.62h.44v1.43a6.43,6.43,0,0,1-1.32.16C204.8,449.36,204.17,447.91,204.17,445.38Z"/><path class="cls-16" d="M222.34,442.34c0,4.52-2.2,7-5.79,7s-5.74-2.44-5.74-7c0-4,1.87-7,5.74-7S222.34,438.33,222.34,442.34Zm-2.15,0c0-3.52-1.17-5.41-3.64-5.41s-3.63,2-3.63,5.41,1,5.46,3.63,5.46S220.19,445.93,220.19,442.34Z"/><path class="cls-16" d="M227,438.93c0,2.88,6.67,1.87,6.67,6.42,0,2.17-1.68,4-4.67,4a8.13,8.13,0,0,1-4.06-1.15l.61-1.54A6.25,6.25,0,0,0,229,447.8c1.64,0,2.66-.91,2.66-2.31,0-3.24-6.59-2-6.59-6.58,0-1.82,1.37-3.54,4.45-3.54a8.78,8.78,0,0,1,4,.87l-.49,1.54a7.22,7.22,0,0,0-3.51-.82C227.85,437,227,437.7,227,438.93Z"/><path class="cls-16" d="M16.9,465.86c0,4.53-2.19,7-5.79,7s-5.73-2.45-5.73-7c0-3.95,1.86-7,5.73-7S16.9,461.86,16.9,465.86Zm-2.14,0c0-3.51-1.18-5.41-3.65-5.41s-3.62,2-3.62,5.41,1,5.46,3.62,5.46S14.76,469.46,14.76,465.86Z"/><path class="cls-16" d="M21.93,460.7a5.74,5.74,0,0,1,4-1.81c3.43,0,5.22,2.44,5.22,7,0,4.75-2.36,7-5.6,7a5.24,5.24,0,0,1-3.9-1.73l-.44,1.45H20.06V453.68h2.09v5.21Zm.22,9.08a4.74,4.74,0,0,0,3.26,1.54c2.36,0,3.62-1.59,3.62-5.46,0-3.54-1-5.38-3.48-5.38a5,5,0,0,0-3.4,1.51Z"/><path class="cls-16" d="M37.54,472.83c0,2.72-1.37,4.06-3.29,4.06a5.67,5.67,0,0,1-1.92-.35l.25-1.76a3.91,3.91,0,0,0,1.31.25c1,0,1.6-.77,1.6-2.17V460.81l-1.49-.3v-1.34h3.54Zm-2.22-19h2.22v2.19H35.32Z"/><path class="cls-16" d="M43.28,466.49c0,3.32,1.7,4.78,4.25,4.78a8.28,8.28,0,0,0,4.17-1.35l.53,1.48a9.65,9.65,0,0,1-4.92,1.49c-3.67,0-6.12-2.45-6.12-7.08,0-4.26,2.09-6.92,5.77-6.92s5.38,3.05,5.38,6.42v1.18Zm3.6-6c-2.56,0-3.6,2.25-3.6,4.56h7C50.3,462.71,49.51,460.48,46.88,460.48Z"/><path class="cls-16" d="M60.05,472.89c-1.89,0-3.46-1-3.46-4.12v-8.1h-2v-1.5h2v-2.45l2.09-.66v3.11H62.6v1.5H58.68V469c0,1.42.52,2.11,1.78,2.11a5.82,5.82,0,0,0,2.14-.58l.41,1.54A6.48,6.48,0,0,1,60.05,472.89Z"/><path class="cls-16" d="M66.8,472.61V460.84l-1.48-.3v-1.37h3.51v13.44Zm-.19-18.74h2.22v2.19H66.61Z"/><path class="cls-16" d="M78.41,472.61h-3.1L71,459.17h2.31L77,471.32H77l3.62-12.15h2.14Z"/><path class="cls-16" d="M96,465.86c0,4.53-2.19,7-5.79,7s-5.73-2.45-5.73-7c0-3.95,1.86-7,5.73-7S96,461.86,96,465.86Zm-2.14,0c0-3.51-1.18-5.41-3.65-5.41s-3.62,2-3.62,5.41,1,5.46,3.62,5.46S93.86,469.46,93.86,465.86Z"/><path class="cls-16" d="M100.7,462.46c0,2.88,6.67,1.86,6.67,6.42,0,2.17-1.68,4-4.67,4a8,8,0,0,1-4.06-1.16l.6-1.53a6.31,6.31,0,0,0,3.43,1.12c1.65,0,2.66-.9,2.66-2.3,0-3.24-6.58-2-6.58-6.59,0-1.81,1.37-3.54,4.44-3.54a8.79,8.79,0,0,1,4,.88l-.5,1.54a7.2,7.2,0,0,0-3.51-.83C101.52,460.48,100.7,461.22,100.7,462.46Z"/><path class="cls-16" d="M110.06,469.54h2v3.13c0,2.36-.65,3-2,3.24v-.8c.52-.19.66-.74.66-2.5l-.66-.14Z"/><path class="cls-16" d="M126,472.89c-1.9,0-3.46-1-3.46-4.12v-8.1h-2v-1.5h2v-2.45l2.09-.66v3.11h3.92v1.5h-3.92V469c0,1.42.52,2.11,1.78,2.11a5.82,5.82,0,0,0,2.14-.58l.41,1.54A6.55,6.55,0,0,1,126,472.89Z"/><path class="cls-16" d="M133.28,466.49c0,3.32,1.7,4.78,4.25,4.78a8.31,8.31,0,0,0,4.17-1.35l.52,1.48a9.58,9.58,0,0,1-4.91,1.49c-3.68,0-6.12-2.45-6.12-7.08,0-4.26,2.09-6.92,5.76-6.92s5.38,3.05,5.38,6.42v1.18Zm3.59-6c-2.55,0-3.59,2.25-3.59,4.56h7C140.3,462.71,139.5,460.48,136.87,460.48Z"/><path class="cls-16" d="M154,472.61v-8.12c0-2.55-.8-3.95-3.07-3.95a5,5,0,0,0-3.3,1.53v10.54h-2.08V459.17h1.4l.41,1.59a5.86,5.86,0,0,1,4.22-1.87c3.16,0,4.56,1.89,4.56,5.24v8.48Z"/><path class="cls-16" d="M160.53,472.61V460.84l-1.48-.3v-1.37h3.51v13.44Zm-.19-18.74h2.22v2.19h-2.22Z"/><path class="cls-16" d="M167.86,466.49c0,3.32,1.7,4.78,4.25,4.78a8.28,8.28,0,0,0,4.17-1.35l.52,1.48a9.58,9.58,0,0,1-4.91,1.49c-3.68,0-6.12-2.45-6.12-7.08,0-4.26,2.09-6.92,5.77-6.92s5.37,3.05,5.37,6.42v1.18Zm3.59-6c-2.55,0-3.59,2.25-3.59,4.56h7C174.88,462.71,174.09,460.48,171.45,460.48Z"/><path class="cls-16" d="M188.55,472.61v-8.12c0-2.55-.8-3.95-3.07-3.95a5,5,0,0,0-3.3,1.53v10.54H180.1V459.17h1.4l.41,1.59a5.88,5.88,0,0,1,4.23-1.87c3.15,0,4.55,1.89,4.55,5.24v8.48Z"/><path class="cls-16" d="M202.91,471a5.08,5.08,0,0,1-3.87,1.9c-3.19,0-5.41-2.36-5.41-7,0-4.09,2-7,5.63-7a5.66,5.66,0,0,1,3.59,1.15,19.1,19.1,0,0,1-.11-2.19v-4.17h2.09v18.93h-1.57Zm-.17-9.55a5.73,5.73,0,0,0-3.26-1c-2.53,0-3.74,2-3.74,5.38s1.07,5.46,3.6,5.46a4.54,4.54,0,0,0,3.4-1.7Z"/><path class="cls-16" d="M219.51,465.86c0,4.53-2.2,7-5.79,7s-5.74-2.45-5.74-7c0-3.95,1.87-7,5.74-7S219.51,461.86,219.51,465.86Zm-2.14,0c0-3.51-1.18-5.41-3.65-5.41s-3.62,2-3.62,5.41,1,5.46,3.62,5.46S217.37,469.46,217.37,465.86Z"/><path class="cls-16" d="M230.82,473.52v4.31h-2.11V459.17h1.62l.33,1.59a5.37,5.37,0,0,1,3.92-1.87c3.43,0,5.13,2.44,5.13,7,0,4.75-2.36,7-5.57,7a4.72,4.72,0,0,1-3.62-1.54A12.63,12.63,0,0,1,230.82,473.52Zm0-3.65a4.49,4.49,0,0,0,3.18,1.45c2.44,0,3.6-1.59,3.6-5.46,0-3.54-1-5.35-3.46-5.35a4.83,4.83,0,0,0-3.32,1.56Z"/><path class="cls-16" d="M249.73,461a5.28,5.28,0,0,0-1.73-.25,4.32,4.32,0,0,0-3,1.45v10.43H242.9V459.17h1.4l.38,1.7a4.47,4.47,0,0,1,3.49-1.9,6.43,6.43,0,0,1,1.7.22Z"/><path class="cls-16" d="M253.85,466.49c0,3.32,1.7,4.78,4.25,4.78a8.28,8.28,0,0,0,4.17-1.35l.52,1.48a9.58,9.58,0,0,1-4.91,1.49c-3.68,0-6.12-2.45-6.12-7.08,0-4.26,2.09-6.92,5.76-6.92s5.38,3.05,5.38,6.42v1.18Zm3.59-6c-2.55,0-3.59,2.25-3.59,4.56h7C260.87,462.71,260.08,460.48,257.44,460.48Z"/><path class="cls-16" d="M267.63,462.46c0,2.88,6.66,1.86,6.66,6.42,0,2.17-1.67,4-4.66,4a8,8,0,0,1-4.06-1.16l.6-1.53a6.28,6.28,0,0,0,3.43,1.12c1.65,0,2.66-.9,2.66-2.3,0-3.24-6.58-2-6.58-6.59,0-1.81,1.37-3.54,4.44-3.54a8.79,8.79,0,0,1,4,.88l-.5,1.54a7.2,7.2,0,0,0-3.51-.83C268.45,460.48,267.63,461.22,267.63,462.46Z"/><path class="cls-16" d="M279,466.49c0,3.32,1.7,4.78,4.25,4.78a8.31,8.31,0,0,0,4.17-1.35l.52,1.48a9.58,9.58,0,0,1-4.91,1.49c-3.68,0-6.12-2.45-6.12-7.08,0-4.26,2.09-6.92,5.76-6.92s5.38,3.05,5.38,6.42v1.18Zm3.59-6c-2.55,0-3.59,2.25-3.59,4.56h7C286,462.71,285.24,460.48,282.61,460.48Z"/><path class="cls-16" d="M299.71,472.61v-8.12c0-2.55-.8-3.95-3.07-3.95a5,5,0,0,0-3.3,1.53v10.54h-2.08V459.17h1.4l.41,1.59a5.86,5.86,0,0,1,4.22-1.87c3.16,0,4.56,1.89,4.56,5.24v8.48Z"/><path class="cls-16" d="M309.73,472.89c-1.9,0-3.46-1-3.46-4.12v-8.1h-2v-1.5h2v-2.45l2.09-.66v3.11h3.92v1.5h-3.92V469c0,1.42.52,2.11,1.78,2.11a5.82,5.82,0,0,0,2.14-.58l.41,1.54A6.55,6.55,0,0,1,309.73,472.89Z"/><path class="cls-16" d="M317.06,466.49c0,3.32,1.7,4.78,4.25,4.78a8.31,8.31,0,0,0,4.17-1.35l.52,1.48a9.58,9.58,0,0,1-4.91,1.49c-3.68,0-6.12-2.45-6.12-7.08,0-4.26,2.09-6.92,5.76-6.92s5.38,3.05,5.38,6.42v1.18Zm3.59-6c-2.55,0-3.59,2.25-3.59,4.56h7C324.08,462.71,323.28,460.48,320.65,460.48Z"/><path class="cls-16" d="M7.49,490c0,3.32,1.7,4.77,4.25,4.77a8.28,8.28,0,0,0,4.17-1.34l.53,1.48a9.62,9.62,0,0,1-4.92,1.48c-3.67,0-6.12-2.44-6.12-7.08,0-4.25,2.09-6.91,5.77-6.91s5.38,3,5.38,6.42V490Zm3.59-6c-2.55,0-3.59,2.25-3.59,4.55h7C14.51,486.23,13.72,484,11.08,484Z"/><path class="cls-16" d="M19.84,492.43V477.2H21.9v16c0,1.15.52,1.62,2,1.62h.44v1.43a6.43,6.43,0,0,1-1.32.16C20.47,496.41,19.84,495,19.84,492.43Z"/><path class="cls-16" d="M34.52,486c0,2.88,6.67,1.87,6.67,6.43,0,2.16-1.67,4-4.66,4a8,8,0,0,1-4.06-1.15l.6-1.54a6.28,6.28,0,0,0,3.43,1.13c1.65,0,2.66-.91,2.66-2.31,0-3.24-6.58-2-6.58-6.58,0-1.81,1.37-3.54,4.44-3.54a8.67,8.67,0,0,1,4,.88l-.5,1.53a7.2,7.2,0,0,0-3.51-.82C35.35,484,34.52,484.75,34.52,486Z"/><path class="cls-16" d="M45.91,490c0,3.32,1.71,4.77,4.26,4.77a8.31,8.31,0,0,0,4.17-1.34l.52,1.48A9.61,9.61,0,0,1,50,496.41c-3.68,0-6.12-2.44-6.12-7.08,0-4.25,2.08-6.91,5.76-6.91s5.38,3,5.38,6.42V490Zm3.6-6c-2.55,0-3.6,2.25-3.6,4.55h7C52.94,486.23,52.14,484,49.51,484Z"/><path class="cls-16" d="M69.71,482.69v1.46a15,15,0,0,1-3.27-.28,4,4,0,0,1,1.84,3.21c0,3.19-3,4.53-5.08,4.53a6.07,6.07,0,0,1-1.75-.3c-1,.08-1.43.46-1.43,1,0,1.67,8.81,0,8.81,4.77,0,3.13-2.88,4.64-5.76,4.64-2.64,0-5.35-1.4-5.35-4,0-1.78,1.37-2.88,3.4-3.18-1.65-.17-3-.74-3-2,0-.94.63-1.62,2-1.79a4,4,0,0,1-2.06-3.62c0-3.51,3.16-4.66,5.11-4.66C64.27,482.42,66.47,482.61,69.71,482.69Zm-6.78,12.08c-2,.05-3.21,1.09-3.21,2.71s1.67,2.75,3.4,2.75c2.06,0,3.63-.94,3.63-3.08C66.75,495.78,65.62,495,62.93,494.77Zm3.4-7.72a3.17,3.17,0,1,0-3.15,3.05A2.89,2.89,0,0,0,66.33,487.05Z"/><path class="cls-16" d="M81.18,496.14l-.3-1.54a5.73,5.73,0,0,1-4.17,1.81c-3,0-4.64-1.78-4.64-5.46v-8.26h2.09v8.12c0,2.77.87,3.93,3,3.93a5.32,5.32,0,0,0,3.32-1.32V482.69h2.12v13.45Z"/><path class="cls-16" d="M87.16,496.14V484.36l-1.48-.3v-1.37H89.2v13.45ZM87,477.39H89.2v2.2H87Z"/><path class="cls-16" d="M103.3,487.66v8.48h-2.11V488c0-2.55-.74-3.95-3-3.95a4.8,4.8,0,0,0-3.24,1.54v10.54H92.85V482.69h1.37l.44,1.62a5.63,5.63,0,0,1,4.09-1.89c2,0,3.29.71,4,2.05a5.86,5.86,0,0,1,4.2-2.05c3.29,0,4.74,1.83,4.74,5.24v8.48h-2.11V488c0-2.55-1-3.95-3.24-3.95a4.81,4.81,0,0,0-3.21,1.54A7.66,7.66,0,0,1,103.3,487.66Z"/><path class="cls-16" d="M116,496.14V484.36l-1.48-.3v-1.37H118v13.45Zm-.19-18.75H118v2.2h-2.22Z"/><path class="cls-16" d="M123.31,490c0,3.32,1.7,4.77,4.26,4.77a8.35,8.35,0,0,0,4.17-1.34l.52,1.48a9.61,9.61,0,0,1-4.91,1.48c-3.68,0-6.12-2.44-6.12-7.08,0-4.25,2.08-6.91,5.76-6.91s5.38,3,5.38,6.42V490Zm3.6-6c-2.56,0-3.6,2.25-3.6,4.55h7C130.34,486.23,129.54,484,126.91,484Z"/><path class="cls-16" d="M144,496.14V488c0-2.55-.79-3.95-3.07-3.95a5,5,0,0,0-3.29,1.54v10.54h-2.09V482.69H137l.41,1.59a5.92,5.92,0,0,1,4.23-1.86c3.15,0,4.56,1.89,4.56,5.24v8.48Z"/><path class="cls-16" d="M154,496.41c-1.89,0-3.46-1-3.46-4.11v-8.1h-2v-1.51h2v-2.44l2.09-.66v3.1h3.93v1.51h-3.93v8.34c0,1.43.52,2.12,1.78,2.12a5.82,5.82,0,0,0,2.15-.58l.41,1.54A6.69,6.69,0,0,1,154,496.41Z"/><path class="cls-16" d="M170.76,489.39c0,4.52-2.19,7-5.79,7s-5.73-2.44-5.73-7c0-3.95,1.86-7,5.73-7S170.76,485.38,170.76,489.39Zm-2.14,0c0-3.52-1.18-5.41-3.65-5.41s-3.62,2-3.62,5.41,1,5.46,3.62,5.46S168.62,493,168.62,489.39Z"/><path class="cls-16" d="M188.82,494.52a5.07,5.07,0,0,1-3.87,1.89c-3.18,0-5.4-2.36-5.4-7,0-4.09,2-7,5.62-7a5.67,5.67,0,0,1,3.6,1.15,19.16,19.16,0,0,1-.11-2.2V477.2h2.08v18.94h-1.56Zm-.16-9.55a5.76,5.76,0,0,0-3.27-1c-2.52,0-3.73,2-3.73,5.38s1.07,5.46,3.6,5.46a4.55,4.55,0,0,0,3.4-1.7Z"/><path class="cls-16" d="M196,490c0,3.32,1.7,4.77,4.25,4.77a8.31,8.31,0,0,0,4.17-1.34l.52,1.48a9.58,9.58,0,0,1-4.91,1.48c-3.68,0-6.12-2.44-6.12-7.08,0-4.25,2.09-6.91,5.76-6.91s5.38,3,5.38,6.42V490Zm3.59-6c-2.55,0-3.59,2.25-3.59,4.55h7C203,486.23,202.24,484,199.61,484Z"/><path class="cls-16" d="M215.94,490c0,3.32,1.7,4.77,4.25,4.77a8.35,8.35,0,0,0,4.18-1.34l.52,1.48a9.62,9.62,0,0,1-4.92,1.48c-3.67,0-6.11-2.44-6.11-7.08,0-4.25,2.08-6.91,5.76-6.91s5.38,3,5.38,6.42V490Zm3.6-6c-2.56,0-3.6,2.25-3.6,4.55h7C223,486.23,222.17,484,219.54,484Z"/><path class="cls-16" d="M229.72,486c0,2.88,6.67,1.87,6.67,6.43,0,2.16-1.68,4-4.67,4a8.06,8.06,0,0,1-4.06-1.15l.61-1.54a6.25,6.25,0,0,0,3.43,1.13c1.64,0,2.66-.91,2.66-2.31,0-3.24-6.59-2-6.59-6.58,0-1.81,1.37-3.54,4.45-3.54a8.65,8.65,0,0,1,4,.88l-.49,1.53a7.23,7.23,0,0,0-3.52-.82C230.54,484,229.72,484.75,229.72,486Z"/><path class="cls-16" d="M244,496.41c-1.89,0-3.46-1-3.46-4.11v-8.1h-2v-1.51h2v-2.44l2.09-.66v3.1h3.92v1.51h-3.92v8.34c0,1.43.52,2.12,1.78,2.12a5.76,5.76,0,0,0,2.14-.58l.41,1.54A6.61,6.61,0,0,1,244,496.41Z"/><path class="cls-16" d="M258,496.14l-.36-1.73a5.3,5.3,0,0,1-4.14,2,4,4,0,0,1-4.34-4.11c0-2.34,1.7-3.85,4.75-3.85h3.48v-1.07c0-2.33-1-3.32-3-3.32a9.87,9.87,0,0,0-4.06.88l-.55-1.51a12,12,0,0,1,4.88-1c3.19,0,4.8,1.64,4.8,4.85v8.87Zm-.61-6.26h-3.15c-2.28,0-3,1-3,2.33,0,1.62.88,2.69,2.83,2.69a4.72,4.72,0,0,0,3.37-1.67Z"/><path class="cls-16" d="M264.52,486c0,2.88,6.67,1.87,6.67,6.43,0,2.16-1.68,4-4.67,4a8.06,8.06,0,0,1-4.06-1.15l.61-1.54a6.28,6.28,0,0,0,3.43,1.13c1.64,0,2.66-.91,2.66-2.31,0-3.24-6.59-2-6.59-6.58,0-1.81,1.37-3.54,4.45-3.54a8.63,8.63,0,0,1,4,.88l-.49,1.53A7.23,7.23,0,0,0,267,484C265.34,484,264.52,484.75,264.52,486Z"/><path class="cls-16" d="M273.85,493.06h2.06v3.08h-2.06Z"/><path class="cls-17" d="M15.71,369.41,14,360.76c-.24-1.24-.7-3.58-1-5.52H12.8l-.21,14.17H8.74l.7-18.19h7.11s1.67,8.38,2.48,14.36h.1c1-6,3-14.36,3-14.36h7l.73,18.19H25l-.32-14.17h-.14c-.35,2.1-.78,4.2-1.07,5.52l-1.84,8.65Z"/><path class="cls-17" d="M36.89,363.94c0,1.51,1,2.5,3,2.5a9.57,9.57,0,0,0,3.72-1l.75,3a11.62,11.62,0,0,1-5.12,1.24c-4.23,0-6.68-2.62-6.68-6.9,0-4,1.92-6.84,6.39-6.84,4.12,0,5.76,2.93,5.76,6.25v1.75ZM38.83,359c-1.4,0-1.94,1.27-1.94,2.48h3.8C40.69,360.11,40.29,359,38.83,359Z"/><path class="cls-17" d="M56.67,368.73a8.1,8.1,0,0,1-3.75.95c-2.48,0-4.31-1.59-4.31-4.75v-5.71H46.73v-3h2v-2.27l4.15-1.34v3.61h3.37v3H52.84v5.58A1.09,1.09,0,0,0,54.05,366a4.65,4.65,0,0,0,2-.46Z"/><path class="cls-17" d="M71.6,362.78c0,4.53-2.32,6.9-6.47,6.9s-6.47-2.37-6.47-6.9c0-3.88,2.32-6.84,6.47-6.84S71.6,358.9,71.6,362.78Zm-4.4,0c0-3.07-.83-3.77-2.07-3.77s-2.07.7-2.07,3.77.78,3.77,2.07,3.77S67.2,365.74,67.2,362.78Z"/><path class="cls-17" d="M83.05,357.28a6.27,6.27,0,0,1-.44-2.53v-3.93h4.23v18.59H83.32l-.43-1.4a3.92,3.92,0,0,1-3.35,1.67c-2.93,0-5.41-2.08-5.41-6.87,0-4.53,2.69-6.87,5.74-6.87A3.94,3.94,0,0,1,83.05,357.28Zm-.44,2.32a4.22,4.22,0,0,0-2-.51c-1.26,0-2.26.73-2.26,3.69s1,3.8,2.23,3.8a3.09,3.09,0,0,0,2-.84Z"/><path class="cls-17" d="M102.72,362.78c0,4.53-2.32,6.9-6.47,6.9s-6.47-2.37-6.47-6.9c0-3.88,2.32-6.84,6.47-6.84S102.72,358.9,102.72,362.78Zm-4.4,0c0-3.07-.83-3.77-2.07-3.77s-2.08.7-2.08,3.77.79,3.77,2.08,3.77S98.32,365.74,98.32,362.78Z"/><path class="cls-17" d="M109.88,350.82v14.49a.9.9,0,0,0,.89,1l1.08.08v3a12.81,12.81,0,0,1-2.24.25c-2.69,0-4-1.43-4-3.69V350.82Z"/><path class="cls-17" d="M126.91,362.78c0,4.53-2.32,6.9-6.46,6.9s-6.47-2.37-6.47-6.9c0-3.88,2.32-6.84,6.47-6.84S126.91,358.9,126.91,362.78Zm-4.39,0c0-3.07-.84-3.77-2.07-3.77s-2.08.7-2.08,3.77.78,3.77,2.08,3.77S122.52,365.74,122.52,362.78Z"/><path class="cls-17" d="M142.13,356.21l0,3.28a7.68,7.68,0,0,1-2.18-.67,4.81,4.81,0,0,1,1.08,1.64c0,3.26-3.29,4.61-5.66,4.61a7.17,7.17,0,0,1-1.67-.22.53.53,0,0,0-.38.52c0,1.4,8.35-.35,8.35,4.74,0,3.1-3,4.85-6.6,4.85-2.85,0-5.71-1.08-5.71-3.45,0-1.7,1.4-2.48,3.58-2.8-1.67-.19-3.5-.68-3.5-2.35,0-1.16,1.11-2,2.7-2.1a4.17,4.17,0,0,1-2.43-3.8c0-3.53,3.42-4.52,5.66-4.52C137.58,356.1,140.3,356.21,142.13,356.21Zm-7.49,12.71a1.54,1.54,0,0,0-1.42,1.59c0,.92.75,1.64,2,1.64s2.16-.72,2.16-1.75S136.42,369.06,134.64,368.92Zm2.62-8.49c0-1.13-1.08-1.5-2-1.5s-2,.37-2,1.5c0,1.3,1,1.68,2,1.68S137.26,361.73,137.26,360.43Z"/><path class="cls-17" d="M145.83,369.41V359.22l-1.57-.35v-2.66h5.8v13.2ZM145,354.16l-.37-2.43,7.24-1.77.49,3.12Z"/><path class="cls-17" d="M161.94,369.41l-.54-1.51a4.51,4.51,0,0,1-3.75,1.78,4.21,4.21,0,0,1-4.52-4.34c0-2.53,1.88-4,5.14-4h2.45v-.49c0-1.4-.94-1.72-2-1.72a9.4,9.4,0,0,0-3.93.86l-1.05-3a14.27,14.27,0,0,1,5.39-1.07c4.06,0,5.71,1.77,5.71,5.25v8.22Zm-1.22-5.58H159c-1.13,0-1.73.54-1.73,1.4a1.44,1.44,0,0,0,1.59,1.59,3.87,3.87,0,0,0,1.83-.54Z"/><path class="cls-17" d="M168,370.62h-1.24l6.57-20.42h1.24Z"/><path class="cls-17" d="M181.18,354.81v4.09h5.6l-.27,3.75h-5.33v6.76h-4.26V351.22h11.75v3.59Z"/><path class="cls-17" d="M199.61,369.41l-.54-1.51a4.53,4.53,0,0,1-3.75,1.78,4.21,4.21,0,0,1-4.52-4.34c0-2.53,1.88-4,5.14-4h2.45v-.49c0-1.4-.94-1.72-2-1.72a9.4,9.4,0,0,0-3.93.86l-1.05-3a14.22,14.22,0,0,1,5.38-1.07c4.07,0,5.71,1.77,5.71,5.25v8.22Zm-1.22-5.58H196.7c-1.14,0-1.73.54-1.73,1.4a1.44,1.44,0,0,0,1.59,1.59,3.9,3.9,0,0,0,1.83-.54Z"/><path class="cls-17" d="M214.05,359.55A8.43,8.43,0,0,0,211,359c-1,0-1.46.3-1.46.84,0,1.67,5.31,1.24,5.31,5.44,0,2.56-1.86,4.45-5.52,4.45a9.1,9.1,0,0,1-3.94-.89l.79-2.94a6.41,6.41,0,0,0,3,.83c1,0,1.59-.4,1.59-1.07,0-1.94-5.22-1.38-5.22-5.87,0-2.08,1.53-3.8,5.38-3.8a12.8,12.8,0,0,1,3.61.51Z"/><path class="cls-17" d="M221.73,363.94c0,1.51,1,2.5,3,2.5a9.57,9.57,0,0,0,3.71-1l.76,3a11.69,11.69,0,0,1-5.12,1.24c-4.23,0-6.68-2.62-6.68-6.9,0-4,1.91-6.84,6.38-6.84,4.13,0,5.77,2.93,5.77,6.25v1.75Zm1.94-4.91c-1.4,0-1.94,1.27-1.94,2.48h3.8C225.53,360.11,225.12,359,223.67,359Z"/><path class="cls-17" d="M240.83,359.55a8.43,8.43,0,0,0-3.07-.6c-1,0-1.46.3-1.46.84,0,1.67,5.31,1.24,5.31,5.44,0,2.56-1.86,4.45-5.52,4.45a9,9,0,0,1-3.93-.89l.78-2.94a6.45,6.45,0,0,0,3,.83c1,0,1.58-.4,1.58-1.07,0-1.94-5.22-1.38-5.22-5.87,0-2.08,1.53-3.8,5.39-3.8a12.91,12.91,0,0,1,3.61.51Z"/><path class="cls-17" d="M244.47,356.21h4.31v4.2h-4.31Zm0,9h4.31v4.21h-4.31Z"/><path class="cls-18" d="M15.78,271.4v-.93H25.2v1.45c0,10.15-8.43,10.34-8.43,16.93,0,2.44,1.71,4.35,5,4.35a22.26,22.26,0,0,0,7.84-1.65l2.57,8.1a29.67,29.67,0,0,1-12.38,2.51c-8.17,0-14.1-4.42-14.1-11.79C5.7,280.29,15.78,277.79,15.78,271.4Zm9.81-4.61H15.38V256.71H25.59Z"/><path class="cls-18" d="M55.49,289.64c-12.64,0-19.69-7.9-19.69-23.12,0-13.56,6.45-22.65,19.69-22.65,6.33,0,12,1.31,15.81,3.82l-3.89,8.36c-2.17-1.65-6-3-10.67-3-6.58,0-9.94,4.15-9.94,13.37,0,9.68,3.29,13.9,9.81,13.9a20.94,20.94,0,0,0,11.46-4l3.3,8.49A27.37,27.37,0,0,1,55.49,289.64Z"/><path class="cls-18" d="M95.53,289.64C79.92,289.64,76,278.31,76,266.39c0-11.59,3.89-22.52,19.56-22.52,16,0,19.76,10.8,19.76,22.52C115.29,278.31,111.14,289.64,95.53,289.64Zm-8.69-47.55L86,236.16l19.3-2.64-.13,7.65Zm8.69,10.73c-6.91,0-8.56,5.93-8.56,13.51,0,8.43,1.78,14.55,8.56,14.55s8.7-6.06,8.7-14.55C104.23,258.62,102.45,252.82,95.53,252.82Z"/><path class="cls-18" d="M138,289l-4.28-21.14c-.6-3-1.72-8.76-2.51-13.5h-.33L130.31,289h-9.42l1.71-44.46H140s4.08,20.49,6.06,35.11h.26c2.5-14.69,7.38-35.11,7.38-35.11h17.19L172.66,289H160.6l-.79-34.64h-.33c-.85,5.14-1.91,10.27-2.63,13.5L152.37,289Z"/><path class="cls-18" d="M197.48,289.64c-15.61,0-19.56-11.33-19.56-23.25,0-11.59,3.89-22.52,19.56-22.52,16,0,19.76,10.8,19.76,22.52C217.24,278.31,213.09,289.64,197.48,289.64Zm0-36.82c-6.91,0-8.56,5.93-8.56,13.51,0,8.43,1.78,14.55,8.56,14.55s8.7-6.06,8.7-14.55C206.18,258.62,204.4,252.82,197.48,252.82Z"/><path class="cls-18" d="M238.31,289V244.52h10.41v35.7H267V289Z"/><path class="cls-18" d="M289.55,289.64c-15.61,0-19.56-11.33-19.56-23.25,0-11.59,3.88-22.52,19.56-22.52,16,0,19.76,10.8,19.76,22.52C309.31,278.31,305.16,289.64,289.55,289.64Zm0-36.82c-6.92,0-8.56,5.93-8.56,13.51,0,8.43,1.78,14.55,8.56,14.55s8.69-6.06,8.69-14.55C298.24,258.62,296.47,252.82,289.55,252.82Z"/><path class="cls-18" d="M33.76,343.87V326.21H19.14v17.66H8.67V299.41H19.14V316.8H33.76V299.41H44.23v44.46Z"/><path class="cls-18" d="M75.12,334.51H61.22l-2,9.36H48.84L61,299.41h16.2l12.18,44.46H77.23Zm-12.05-8.3H73.28l-3.76-17.65h-2.3Z"/><path class="cls-18" d="M107.79,327.66h-3.43v16.21H94V299.41H109.5c8.89,0,15.94,4.15,15.94,13.57a14.12,14.12,0,0,1-8.11,12.9l9.09,18H114.31Zm0-20.22h-3.43v12.19h3.43c5,0,6.58-2.37,6.58-6.65C114.37,309,112.26,307.44,107.79,307.44Z"/><path class="cls-18" d="M132.41,343.87V299.41h28.72v8.76H142.82v8.76h13.7l-.66,9.15h-13v9.09h18.31v8.7Z"/><path class="cls-18" d="M183.78,343.87l-4.28-21.15c-.59-3-1.71-8.76-2.5-13.5h-.33l-.53,34.65h-9.42l1.72-44.46h17.39s4.08,20.48,6.06,35.1h.26c2.5-14.69,7.38-35.1,7.38-35.1h17.19l1.77,44.46H206.44l-.79-34.65h-.33c-.86,5.14-1.91,10.28-2.63,13.5l-4.48,21.15Z"/><path class="cls-18" d="M243.32,344.52c-15.61,0-19.56-11.32-19.56-23.25,0-11.59,3.88-22.52,19.56-22.52,16,0,19.76,10.8,19.76,22.52C263.08,333.2,258.93,344.52,243.32,344.52Zm0-36.81c-6.92,0-8.56,5.92-8.56,13.5,0,8.43,1.78,14.55,8.56,14.55S252,329.7,252,321.21C252,313.5,250.24,307.71,243.32,307.71Z"/><path class="cls-18" d="M295.55,310.08a22.23,22.23,0,0,0-10.21-2.31c-4,0-5.67,1.52-5.67,3.49,0,6.79,20.09,3.95,20.09,19.17,0,7.24-6.26,14.09-16.79,14.09a24.88,24.88,0,0,1-15-4.87l3.89-7.9a18.86,18.86,0,0,0,11.13,4c3.62,0,5.86-2,5.86-4.61,0-8.23-19.95-3.62-19.95-19.76,0-7,5.53-12.64,16.53-12.64a29.76,29.76,0,0,1,13.57,3Z"/><path class="cls-18" d="M320.11,329.18v.92h-9.42v-1.45c0-10.14,8.43-10.34,8.43-16.93,0-2.43-1.71-4.34-5-4.34a22.2,22.2,0,0,0-7.84,1.64l-2.57-8.1a29.83,29.83,0,0,1,12.38-2.5c8.17,0,14.1,4.41,14.1,11.79C330.19,320.29,320.11,322.79,320.11,329.18Zm-9.81,4.61h10.2v10.08H310.3Z"/></svg>