<svg id="Capa_1" data-name="Capa 1" xmlns="http://www.w3.org/2000/svg" xmlns:xlink="http://www.w3.org/1999/xlink" viewBox="0 0 512 512"><defs><style>.cls-1,.cls-12,.cls-9{fill:none;}.cls-2{fill:#222b54;}.cls-3{clip-path:url(#clip-path);}.cls-4{fill:#fcd6b4;}.cls-5{fill:#e9bca2;}.cls-6{fill:#7a7ba3;}.cls-7{fill:#eb575a;}.cls-8{fill:#fff;}.cls-9{stroke:#a6a2bd;}.cls-12,.cls-13,.cls-14,.cls-15,.cls-16,.cls-9{stroke-miterlimit:10;}.cls-10{fill:#a6a2bd;}.cls-11{fill:#e84a1e;}.cls-12,.cls-13,.cls-14,.cls-15,.cls-16{stroke:#fff;}.cls-13{fill:#e7334a;}.cls-14{fill:#55b682;}.cls-15,.cls-16{fill:#615185;}.cls-15{stroke-width:0.5px;}.cls-16{stroke-width:0.75px;}</style><clipPath id="clip-path"><path class="cls-1" d="M191.07,343.22A160.57,160.57,0,1,0,359.64,191.07c-2.8-.15-5.57-.22-8.34-.22A160.6,160.6,0,0,0,191.07,343.22"/></clipPath></defs><path class="cls-2" d="M511.79,359.64A160.57,160.57,0,1,1,359.64,191.07,160.58,160.58,0,0,1,511.79,359.64"/><g class="cls-3"><path class="cls-4" d="M459.94,309c4.5,5,9.24,10.63,12,17,4.44,11,12.59,22.78,10.87,34.67-6.65,5.26-19,9.86-27.32,13.32-10.39,4.51-21.77,6.66-31.65,12.18-7.53,4.52-13.19,12.13-19.89,17.7-6,5-12.67,7.73-19.7,10.72-15.71,6.42-32.65,15.24-49.7,8.78-10.68-3.79-21.75-7-32.28-12.06-7.51-3.74-19.93-9-24.85-16l.71-.56c8.58-10.75,15.59-21.69,25.39-32a192.2,192.2,0,0,1,40.2-30.89c7.53-4.53,14.89-4.93,23.21-2.68,12,3.32,24.77,6.25,36.85,3.06a160,160,0,0,0,26.19-9c9-3.82,21.55-10.19,30-14.29"/><path class="cls-5" d="M459.94,309a90.88,90.88,0,0,1,7.87,10c2.53,3.52,4.14,7.64,5.95,11.75,3.64,8.11,8.4,16.47,8.77,26l-.18,3.46c0,.22-.11.31-.28.41l-.73.51-1.47,1c-2,1.26-4.16,2.42-6.36,3.5-4.4,2.13-9,4-13.68,5.89s-9.41,3.73-14.29,5.41-9.89,3.25-14.88,5.16l-7.32,3.43a73.73,73.73,0,0,0-6.56,5c-4.13,3.6-7.78,7.72-11.89,11.28l-1.52,1.37-1.64,1.2c-1.11.78-2.17,1.64-3.33,2.35a73.94,73.94,0,0,1-7.34,3.84c-5,2.34-10.35,4.43-15.61,6.65a122.66,122.66,0,0,1-16.17,5.72,44,44,0,0,1-17,1.32,40.81,40.81,0,0,1-4.22-.82L333.92,422l-8.48-2.92c-5.66-1.93-11.35-3.88-16.88-6.22-5.82-2.45-11.61-5.29-16.95-8.09s-10.28-6-13.33-10.06c-.07.52-.15,1-.2,1.46l.38-.31a4,4,0,0,0,.51-.45l.63-.82,1.19-1.55,2.37-3.11,4.67-6.19c3-4.16,6.19-8.14,9.28-12.12q2.49-2.83,4.93-5.66c.83-.92,1.61-1.9,2.49-2.78l2.69-2.55,5.37-5.08c1.81-1.66,3.75-3.15,5.61-4.72s3.71-3.14,5.63-4.58,3.9-2.82,5.84-4.22c3.78-2.92,7.9-5.28,11.85-7.8A30.29,30.29,0,0,1,354,329,31.19,31.19,0,0,1,367.21,330c8.7,2.34,17.46,4.33,26.2,4.14a51.18,51.18,0,0,0,6.45-.57,53.59,53.59,0,0,0,6.21-1.5c4-1.27,8.05-2.27,11.88-3.72l11.24-4.49c3.64-1.61,7.12-3.41,10.6-5.07L459.94,309l-20.32,9.45c-3.51,1.6-7,3.35-10.67,4.9l-11.26,4.3c-3.84,1.39-7.88,2.33-11.88,3.54a53,53,0,0,1-6.11,1.39,49.08,49.08,0,0,1-6.31.47c-8.55.09-17.16-2-25.81-4.38a32.58,32.58,0,0,0-13.82-1.23,32,32,0,0,0-13.11,5.37c-4,2.51-8.17,4.86-12,7.77l-5.92,4.22c-2,1.45-3.8,3.06-5.72,4.6s-3.85,3.06-5.69,4.73l-5.46,5.11-2.75,2.58c-.88.89-1.68,1.87-2.53,2.81-1.67,1.9-3.34,3.81-5,5.72-3.14,4-6.34,8-9.38,12.16l-4.68,6.16-2.36,3.08-1.19,1.54-.57.74-.61.48-.81.65.6.8c3.48,4.6,8.66,7.79,14,10.74s11.13,5.65,17.13,8.18c5.63,2.38,11.35,4.34,17,6.27,2.83,1,5.64,1.94,8.45,2.89l4.31,1.42a40.84,40.84,0,0,0,4.49.86,46,46,0,0,0,17.82-1.41A125.29,125.29,0,0,0,376.23,419c5.26-2.26,10.52-4.34,15.66-6.76a76,76,0,0,0,7.51-4c1.2-.75,2.31-1.66,3.46-2.47l1.7-1.26,1.54-1.43c8.25-7.46,14.9-16.3,25.17-19.58,4.88-1.91,9.81-3.63,14.73-5.26s9.69-3.64,14.32-5.58,9.26-3.88,13.68-6.1c2.21-1.12,4.35-2.32,6.42-3.63l1.49-1.08.74-.53.51-.37c.21-.11.08-.38.13-.57l.15-3.72c-.54-9.83-5.49-18.12-9.24-26.15-1-2-1.72-4.11-2.83-6l-1.54-2.93c-.55-.94-1.22-1.81-1.82-2.72a90.92,90.92,0,0,0-8.07-9.87"/><path class="cls-4" d="M365,413.25c4.06,3.34,9.26,7.77,14.56,8.71,6.87,1.13,17.29-3.69,17.23-11.33a149.09,149.09,0,0,1-54.37-59.51l.3,0c4.71.56,12.74-.09,16.55-2.82,10.77-7.65-10.29-9.8-14.92-11-10.24-2.16-18.14-5.31-28.65-2.42-8.88,2.46-17.11,7.53-26.87,6.7-3.76-.44-18.71-8.56-18.4-8.52l-.31,0c-8,.65-13.4,11.15-16.06,17.51-3,7-7.67,27.4-1.08,33.58l-.59-.38c12.49,10,27.56,19.78,41.54,28.1,11.6,6.77,24.11,14,36.07,20.46,5.11,2.51,14.83,7,19.45,2.29,13.08,3.37,15.27-4.83,15.27-4.83-8.19-4.78-15.37-13.31-15.37-13.31,4.68,4.93,9.48,9.71,14.61,12.86s13.81-.3,14.94-7.16"/><path class="cls-5" d="M365,413.25c3.36,2.8,6.78,5.78,11,7.7,4.19,2.12,9.35,1.53,13.65-.48a15.29,15.29,0,0,0,5.7-4.48,9.57,9.57,0,0,0,1.58-3.39,10.18,10.18,0,0,0,.26-2.05,10.86,10.86,0,0,0-1.62-1.22l-6.12-4.19c-2-1.43-4-3.07-6-4.61a145,145,0,0,1-22.27-22c-1.8-2-3.32-4.27-5-6.45a74.9,74.9,0,0,1-4.68-6.79c-1.43-2.37-3.09-4.63-4.37-7.13l-2-3.72-1-1.86c-.12-.24-.19-.35-.25-.49l.55.05H345l.89,0c1.2,0,2.39-.05,3.58-.13a29,29,0,0,0,7.11-1.43,14.05,14.05,0,0,0,3.4-1.7,9.21,9.21,0,0,0,2.74-2.84,3.47,3.47,0,0,0,.39-2.36,3.77,3.77,0,0,0-1.22-2,11.38,11.38,0,0,0-3.4-2c-4.68-1.82-9.63-2.39-14.34-3.46s-9.57-2.44-14.66-3.15a35.24,35.24,0,0,0-15.42,1.18c-5,1.5-9.67,3.62-14.55,5-1.22.36-2.45.57-3.69.87s-2.48.32-3.73.41a34.69,34.69,0,0,1-3.62-.13,24.75,24.75,0,0,1-3.51-1.25c-2.38-1-4.73-2.16-7.08-3.34l-3.5-1.8-1.74-.94-.86-.47-.43-.24-.19-.12h0c0-.06-.05.06-.18.24s-.53.8-.46.64l-.1-.07c0-.34.08-.69.13-1.08a4,4,0,0,0-1.38.09,6.67,6.67,0,0,0-1.08.22,11.19,11.19,0,0,0-2.09.78,18.06,18.06,0,0,0-6,5,38.75,38.75,0,0,0-4.17,6.29A55.16,55.16,0,0,0,250.55,358a63.72,63.72,0,0,0-2,13.89,28.42,28.42,0,0,0,.58,6.83,12,12,0,0,0,3.1,6.19l1.27-1.62-.59-.39-1.21,1.67a357.08,357.08,0,0,0,34.44,23.66c5.75,3.58,11.55,6.84,17.27,10l16.82,9.45c5.52,3,10.77,6.42,16.68,8.34,2.92.92,6,1.71,9.18,1a7.4,7.4,0,0,0,2.24-.87,4.49,4.49,0,0,0,1-.7c.25-.24.27-.26.44-.22,1.43.21,2.93.56,4.41.66,3,.05,6.1-.42,8.45-2.39a8,8,0,0,0,1.52-1.66,5.19,5.19,0,0,0,.59-1,4,4,0,0,0,.47-1.35l-2-1.42-1.7-1.18a70.08,70.08,0,0,1-11.92-10.72l-.49.43c5.2,5.38,10.13,10.19,15.78,13.3,6.2,2.29,13.14-2,14-7.82-1,5.76-8,9.82-13.87,7.5-5.46-3.14-10.33-8-15.43-13.43l-.49.44A69.38,69.38,0,0,0,361,427.76l3.1,2.21a1.7,1.7,0,0,1-.21.54,4.78,4.78,0,0,1-.53.82,7.19,7.19,0,0,1-1.36,1.45c-2.09,1.71-5,2.11-7.74,2-1.41-.11-2.77-.46-4.24-.69-.28,0-.62-.22-.85,0l-.59.5a3.22,3.22,0,0,1-.82.56,5.91,5.91,0,0,1-1.89.71c-2.72.58-5.68-.16-8.48-1.09-5.66-1.9-10.88-5.34-16.38-8.42l-16.7-9.57c-5.68-3.22-11.45-6.51-17.14-10.11A365.35,365.35,0,0,1,253,383c-.34.48-.77,1.08-1.21,1.67l.59.39,7.84,5.15-6.57-6.77c-2.54-2.63-3.06-7.19-3-11.47a63.25,63.25,0,0,1,1.93-13.41,54.05,54.05,0,0,1,5.08-13.13c2.29-4.09,5.13-8.32,9.24-10.32a8.65,8.65,0,0,1,1.71-.64,4.39,4.39,0,0,1,.86-.18c.21,0,.78-.1.52-.1,4.37,2.44,9.3,5,14.12,7.05a26.38,26.38,0,0,0,3.88,1.37,31.84,31.84,0,0,0,4.19.17c1.34-.1,2.68-.27,4-.45s2.62-.55,3.88-.92c5.09-1.45,9.79-3.59,14.58-5a33.11,33.11,0,0,1,14.55-1.17c4.85.64,9.66,2.05,14.48,3s9.73,1.63,14.09,3.3c2.11.8,4.33,2.21,3.32,3.7a7.69,7.69,0,0,1-2.21,2.24A12,12,0,0,1,356,349a27.68,27.68,0,0,1-6.66,1.38c-1.14.08-2.28.17-3.41.15h-1.28l-.75-.08-3-.29,4.88,8.86c1.31,2.51,3,4.79,4.48,7.16a78.54,78.54,0,0,0,4.79,6.82c1.68,2.18,3.23,4.45,5.08,6.45a144.36,144.36,0,0,0,22.71,21.89c2,1.53,4,3.14,6.07,4.56l6.21,4.12a9.78,9.78,0,0,1,1.29.9,7.88,7.88,0,0,1-.19,1.58,8.93,8.93,0,0,1-1.42,3.18,15,15,0,0,1-5.41,4.4c-4.18,2-9.17,2.69-13.32.69-4.18-1.82-7.67-4.73-11.08-7.46"/><path class="cls-5" d="M364.13,431.08a11.3,11.3,0,0,1-7.73,3.44c-3.13.11-6.49-1.08-9.73-2.8-6.63-3.44-11.07-8.86-15.54-11.84,1.74,2,3.59,4.38,5.86,6.9a32.18,32.18,0,0,0,8.65,6.85c3.46,1.85,7.33,3,10.9,2.48a10.45,10.45,0,0,0,7.59-5"/><path class="cls-5" d="M378.85,422.24c-1.17,2.64-3.23,5.69-6.56,6.55s-7.35-.18-10.56-2.27c-6.44-5.19-12-10.71-16.84-14.08,4,4.37,8.74,10.33,15.57,15.85,3.86,2.5,8.43,3.44,12.34,2a8.67,8.67,0,0,0,4.31-3.58,15.7,15.7,0,0,0,1.12-2.25c.21-.77.42-1.51.62-2.23"/><path class="cls-5" d="M396.78,410.63a15.69,15.69,0,0,1-5,7.08,15.85,15.85,0,0,1-4.38,2.23,20.41,20.41,0,0,1-5.14,1.12c-3.47.05-6.81-1.54-9.68-3.08s-5.41-3.34-7.62-4.83a41.59,41.59,0,0,0,6.77,6.18c2.8,1.91,6.28,3.92,10.6,3.9a18.71,18.71,0,0,0,5.77-1.39,14.92,14.92,0,0,0,4.7-2.92,13.41,13.41,0,0,0,4-8.29"/><path class="cls-4" d="M446.66,315.3c-26.09,11.32-39,21.87-65.73,16.5-15-3-26.46-7.56-39.63,1.7-10.38,7.05-19.27,12.37-30.6,16.76-9.3,3.36-18.67,7.35-7,16.35,15.84,11.4,45.73-4.8,58.35-14.77"/><path class="cls-5" d="M446.66,315.3c-3.57,1.54-7.31,3.1-11.13,4.82s-7.76,3.52-11.84,5.27c-8.16,3.48-17.16,6.64-26.93,6.9-2.44-.09-4.91.11-7.39-.19s-5-.73-7.48-1.09c-5-.93-10.09-2.35-15.43-3.24s-11-1.2-16.59.39l-4.06,1.47c-1.25.69-2.48,1.43-3.73,2.16-2.5,1.44-4.71,3-7.11,4.57a153.91,153.91,0,0,1-14.41,8.31c-4.9,2.49-9.81,4.44-14.88,6.45a19.11,19.11,0,0,0-7,4.5,5.43,5.43,0,0,0-1.23,4.41,8.55,8.55,0,0,0,2,3.84A21.39,21.39,0,0,0,313.09,371a40.08,40.08,0,0,0,14.61-1.24,71.22,71.22,0,0,0,13-4.71A103.62,103.62,0,0,0,362,351.84a108.35,108.35,0,0,1-21.69,12.38,72.76,72.76,0,0,1-12.94,4.3,39.2,39.2,0,0,1-14.1.9,19.66,19.66,0,0,1-12.47-6.73,6.8,6.8,0,0,1-1.55-3,3.51,3.51,0,0,1,.86-2.85,17.78,17.78,0,0,1,6.32-3.88c4.88-1.88,10.1-3.91,15-6.4a149,149,0,0,0,14.63-8.4c2.38-1.51,4.75-3.21,7.08-4.56l3.49-2,3.75-1.37c5.1-1.49,10.47-1.27,15.66-.45s10.31,2.18,15.42,3.06l7.68,1c2.54.27,5.1,0,7.59.07,10.07-.46,19.16-3.93,27.23-7.66l22.61-10.92"/><path class="cls-4" d="M356.36,356.9a42.27,42.27,0,0,0,37.78,14"/><path class="cls-5" d="M356.36,356.9a37.18,37.18,0,0,0,16.75,12.81,35.57,35.57,0,0,0,21,1.18,55.41,55.41,0,0,1-20.27-3.21,59.81,59.81,0,0,1-17.51-10.78"/><path class="cls-5" d="M313.65,349.49c1,1.95,2.25,4.08,3.28,6.53a18.33,18.33,0,0,1,.73,1.88l.16.44v.07c0,.07,0,0-.15.1a9.48,9.48,0,0,1-3.62,1.8,12.35,12.35,0,0,1-7.87-.93,19.11,19.11,0,0,1-5.87-4.06,13.91,13.91,0,0,0,5.13,5.47,12.07,12.07,0,0,0,9.14,1.63,10.16,10.16,0,0,0,4.38-2.35l.73-.65c.26-.23.63-.43.33-.78l-.67-1.46a16.1,16.1,0,0,0-1-1.89,32.4,32.4,0,0,0-4.69-5.8"/><path class="cls-6" d="M402.83,332.15l.28-.88a3.12,3.12,0,0,1,.58-.66,2.53,2.53,0,0,1,1.69-.26,8.63,8.63,0,0,1,3.56,1.4c2.18,1.38,3.6,3.91,4.74,6.65,2.27,5.59,3.15,12.39,5,19.5A196.28,196.28,0,0,1,423,377.62a47,47,0,0,1,.43,8.72,15.4,15.4,0,0,1-.35,1.9,3.36,3.36,0,0,1-.66,1.44,1,1,0,0,1-1.47.1,5.72,5.72,0,0,1-1.24-1.26,5.78,5.78,0,0,0,1,1.76,1.54,1.54,0,0,0,2,.43,4.38,4.38,0,0,0,1.57-1.85,14.39,14.39,0,0,0,.86-2.13,36.57,36.57,0,0,0,1-9.34,94.12,94.12,0,0,0-3.26-20.55c-1.84-6.89-3.14-13.9-6.38-19.81-1.62-2.89-3.76-5.68-6.79-6.89a9.26,9.26,0,0,0-4.39-.75,3.33,3.33,0,0,0-2,.85,3.26,3.26,0,0,0-.47.93Z"/><path class="cls-7" d="M455.24,308.42s9.61,7.5,15.73,25.71a91.68,91.68,0,0,1,4.55,34.4l112.8-34.28-26.63-79.14Z"/><polygon class="cls-8" points="280.96 332.77 256.25 394.1 221.01 371.88 246.73 312.84 280.96 332.77"/><polygon class="cls-9" points="280.96 332.77 256.25 394.1 221.01 371.88 246.73 312.84 280.96 332.77"/><path class="cls-6" d="M268.43,317.61s-13.07,6.24-24.71,32.23c-7,15.58-8.41,42.86-8.17,46.6L102.81,317.75s-2-31.6,9.8-51.79,38.59-29.87,38.59-29.87Z"/></g><path class="cls-10" d="M262,374.8a9.44,9.44,0,0,1-6.4,1.55,13.45,13.45,0,0,1-6.83-3.6c-4.17-3.86-6.87-8.6-7.55-12.7-.69,4.18,1.43,10.06,6.1,14.32a12.54,12.54,0,0,0,8.17,3.56A8.37,8.37,0,0,0,262,374.8"/><path class="cls-6" d="M257.63,366.26a4.26,4.26,0,1,1-3.74-4.73,4.28,4.28,0,0,1,3.74,4.73"/><path class="cls-10" d="M414.35,324.55s10.38,17.58,13.2,30.77,3.7,26.31,3.09,30.82,13.44-4.49,13.44-4.49,3.8-13.26-4-36.35-14.6-26-14.6-26Z"/><path class="cls-4" d="M289.27,407.58c-5.6-.28-16.53,2.53-20.49-3.52-3.54-5.57,1.69-15.64,7.61-16.91,6.82-1.45,7.73,6.91,7.48,11.84s1,6.57,5.38,9.05"/><path class="cls-5" d="M289.27,407.59c-4.63-.53-10.29.59-15.7-1.09a6.55,6.55,0,0,1-4.88-5.91,13.62,13.62,0,0,1,2.78-8.54c1.81-2.56,4.6-4.44,7.27-3.95s3.74,3.66,4.17,6.36a26.26,26.26,0,0,1,.34,4.21,13.23,13.23,0,0,0,.48,4.25,6.22,6.22,0,0,0,2.36,3.27,18.69,18.69,0,0,0,3.16,1.85c-1.87-1.29-4.2-2.83-4.65-5.36a13.63,13.63,0,0,1-.08-3.95,25.72,25.72,0,0,0,0-4.47,14.06,14.06,0,0,0-1.22-4.67,6,6,0,0,0-4.12-3.47,7.86,7.86,0,0,0-5.44.95,13.1,13.1,0,0,0-4,3.7,15,15,0,0,0-3,10,7.87,7.87,0,0,0,2.13,4.8A9.36,9.36,0,0,0,273.1,408c6.2,1.44,11.52-.32,16.17-.43"/><path class="cls-4" d="M303.21,418.06c-5.61-.29-16.54,2.52-20.5-3.53-3.54-5.57,1.7-15.64,7.61-16.91,6.82-1.45,7.73,6.91,7.48,11.84s1,6.57,5.38,9.05"/><path class="cls-5" d="M303.21,418.06c-4.63-.53-10.29.59-15.7-1.08a6.57,6.57,0,0,1-4.89-5.92,13.65,13.65,0,0,1,2.78-8.53c1.82-2.57,4.6-4.45,7.27-4s3.74,3.66,4.17,6.36a26.26,26.26,0,0,1,.34,4.21,13.23,13.23,0,0,0,.48,4.25,6.18,6.18,0,0,0,2.36,3.27,18.69,18.69,0,0,0,3.16,1.85c-1.87-1.29-4.2-2.83-4.65-5.36a13.63,13.63,0,0,1-.08-3.95,25.84,25.84,0,0,0,0-4.48,14.12,14.12,0,0,0-1.22-4.67,6,6,0,0,0-4.12-3.46,7.81,7.81,0,0,0-5.44,1,13,13,0,0,0-4,3.69,15,15,0,0,0-3,10,7.87,7.87,0,0,0,2.13,4.8,9.36,9.36,0,0,0,4.3,2.45c6.2,1.43,11.51-.33,16.17-.44"/><path class="cls-4" d="M314,423.17c-5.6-.29-16.53,2.52-20.5-3.52-3.53-5.58,1.71-15.65,7.62-16.92,6.81-1.45,7.73,6.92,7.48,11.85s1,6.57,5.38,9"/><path class="cls-5" d="M314,423.17c-4.63-.52-10.29.59-15.7-1.08a6.56,6.56,0,0,1-4.88-5.91,13.65,13.65,0,0,1,2.77-8.54c1.82-2.56,4.6-4.45,7.28-4s3.74,3.66,4.17,6.37a26.23,26.23,0,0,1,.33,4.21,13.56,13.56,0,0,0,.49,4.25,6.17,6.17,0,0,0,2.35,3.26,18.12,18.12,0,0,0,3.17,1.85c-1.88-1.29-4.21-2.83-4.65-5.35a13,13,0,0,1-.08-4,25.72,25.72,0,0,0,0-4.47,14.31,14.31,0,0,0-1.22-4.67,6,6,0,0,0-4.12-3.47,7.81,7.81,0,0,0-5.44,1,13.08,13.08,0,0,0-4,3.69,15.11,15.11,0,0,0-3,10,8,8,0,0,0,2.14,4.8,9.36,9.36,0,0,0,4.29,2.44c6.2,1.44,11.51-.33,16.17-.44"/><path class="cls-4" d="M322.78,428.69c-4.62-.24-13.63,2.08-16.89-2.91-2.91-4.59,1.4-12.89,6.27-13.93,5.62-1.2,6.38,5.7,6.17,9.76s.85,5,4.45,7.08"/><path class="cls-5" d="M322.78,428.69c-3.8-.49-8.46.36-12.84-1A5.24,5.24,0,0,1,306,423a11,11,0,0,1,2.17-6.88c1.47-2.08,3.62-3.63,5.75-3.35s3.06,2.69,3.44,4.92a21,21,0,0,1,.33,3.42,12.62,12.62,0,0,0,.39,3.5,4.66,4.66,0,0,0,2,2.66,18.1,18.1,0,0,0,2.65,1.43c-1.5-1.1-3.54-2.27-3.82-4.31s.36-4.39,0-6.93a11.16,11.16,0,0,0-1.06-3.88,5.19,5.19,0,0,0-3.63-2.8,6.79,6.79,0,0,0-4.55,1,11.14,11.14,0,0,0-3.29,3.12,12.47,12.47,0,0,0-2.41,8.37,6.78,6.78,0,0,0,1.86,4,7.88,7.88,0,0,0,3.62,2c5.15,1.12,9.48-.36,13.3-.51"/><path class="cls-11" d="M289.27,196.77A52.27,52.27,0,1,1,237,144.5a52.27,52.27,0,0,1,52.27,52.27"/><path class="cls-11" d="M506.37,192.85a52.27,52.27,0,1,1-52.27-52.26,52.27,52.27,0,0,1,52.27,52.26"/><path class="cls-8" d="M244.58,199.25a5.42,5.42,0,0,0-3.47-1.33l.11,8.78c3-.61,4.43-2.14,4.4-4.44a4.12,4.12,0,0,0-1-3m-9.92-22c-3.16.62-4.43,2.72-4.4,4.67a3.38,3.38,0,0,0,1,2.36,5.74,5.74,0,0,0,3.48,1.47Zm8.13,40.51.1,8.13-9.07.12-.09-7.78c-7.06-.13-12.91-1.71-17.72-6.55l8-8.16c2.63,2.56,7,3.44,11.06,3.46l-.12-9.5-2.82-.32c-4.53-.52-8-2.06-10.34-4.41s-3.6-5.86-3.66-10.25c-.1-8.35,5.44-14.83,15-16.17l-.09-6.55,9.08-.11.08,6.4c6.05.29,10.82,2.1,14.68,5.87L249,180c-2.27-2.21-6-2.74-8.18-2.85l.11,9,3,.4c4.61.59,8,2,10.13,4.12,2.77,2.63,3.9,6.43,4,11.19.11,9-6.52,14.48-15.22,16"/><path class="cls-12" d="M446.62,226.05l-2.22.52a2.39,2.39,0,0,1-.53.06,2.36,2.36,0,0,1-.54-4.66l20.49-4.78a2.36,2.36,0,0,1,1.07,4.6Zm-2.75-4.17a2.37,2.37,0,0,1-.54-4.67l20.49-4.78a2.36,2.36,0,0,1,1.07,4.6l-20.49,4.79A2.39,2.39,0,0,1,443.87,221.88Zm0-4.8a2.37,2.37,0,0,1-.54-4.67l20.49-4.78a2.36,2.36,0,0,1,1.07,4.6L444.4,217A1.93,1.93,0,0,1,443.87,217.08Zm33.3-39.42a23.06,23.06,0,1,0-42.66,12.14,41.48,41.48,0,0,0,2.58,3.41,66.08,66.08,0,0,1,6,9.3c1.89,4.22,1.62,9.81,1.62,9.81l19.1-4.77s-.75-.82,1.13-5a59.47,59.47,0,0,1,5.34-8.4A23,23,0,0,0,477.17,177.66Zm-15,45.36a8.08,8.08,0,0,1-15.52,3.14"/><path class="cls-13" d="M15.12,75.19H30.41v-34s0-6.47.59-11.41c-4.47,5.41-12.82,8.24-18.71,8.7L10.06,24C20.76,21.31,29,16.37,34.65,9.19H48.76v66H63.23v14H15.12Z"/><path class="cls-13" d="M84.53,75.19h15.3v-34s0-6.47.58-11.41c-4.47,5.41-12.82,8.24-18.7,8.7L79.47,24c10.71-2.71,18.94-7.65,24.59-14.83h14.12v66h14.47v14H84.53Z"/><path class="cls-14" d="M173.91,42.12v-.95h9.75v1.5c0,10.49-8.73,10.69-8.73,17.51,0,2.52,1.78,4.5,5.18,4.5A23.08,23.08,0,0,0,188.22,63l2.66,8.38a30.73,30.73,0,0,1-12.81,2.59c-8.45,0-14.58-4.56-14.58-12.19C163.49,51.32,173.91,48.73,173.91,42.12Zm10.16-4.77H173.5V26.93h10.57Z"/><path class="cls-14" d="M215,61c-13.09,0-20.38-8.18-20.38-23.92,0-14,6.68-23.44,20.38-23.44,6.54,0,12.4,1.36,16.35,3.95l-4,8.66c-2.25-1.71-6.2-3.07-11-3.07C209.48,23.18,206,27.47,206,37c0,10,3.41,14.38,10.15,14.38A21.63,21.63,0,0,0,228,47.23L231.42,56A28.31,28.31,0,0,1,215,61Z"/><path class="cls-14" d="M256.08,61c-16.15,0-20.24-11.72-20.24-24.06,0-12,4-23.3,20.24-23.3,16.56,0,20.44,11.18,20.44,23.3C276.52,49.28,272.23,61,256.08,61Zm0-38.09c-7.16,0-8.86,6.13-8.86,14,0,8.73,1.84,15.06,8.86,15.06s9-6.27,9-15.06C265.07,28.9,263.23,22.91,256.08,22.91Z"/><path class="cls-14" d="M304.66,60.31l-12.47-35.9h-.27l1,35.9h-9.61v-46h16.56l12.81,36.8H313l-1-36.8h9.81v46Z"/><path class="cls-14" d="M371.56,59.29a128,128,0,0,0,14.17.48V70.2a30.23,30.23,0,0,1-21.6-9.2C348,61,343.9,49.28,343.9,36.94c0-12,4-23.3,20.23-23.3,16.56,0,20.45,11.18,20.45,23.3C384.58,45.32,379.74,55.34,371.56,59.29Zm-7.43-36.38c-7.15,0-8.85,6.13-8.85,14,0,8.73,1.84,15.06,8.85,15.06s9-6.27,9-15.06C373.13,28.9,371.29,22.91,364.13,22.91Z"/><path class="cls-14" d="M428.11,42.74c0,9.6-5.45,18.26-18.19,18.26s-18.19-8.32-18.19-18.26V14.32h10.76V42.19c0,5.79,2.66,9.68,7.43,9.68s7.29-4,7.29-9.68V14.32h10.9Z"/><path class="cls-14" d="M437,60.31v-46h29.71v9.06H447.73v9.07H461.9l-.68,9.47H447.73v9.4h18.94v9Zm5.32-48.51-.89-6.13,20-2.73-.14,7.91Z"/><path class="cls-14" d="M487.72,45.12v1H478v-1.5c0-10.49,8.72-10.69,8.72-17.51,0-2.52-1.77-4.49-5.18-4.49a23.15,23.15,0,0,0-8.11,1.7l-2.65-8.38a30.73,30.73,0,0,1,12.81-2.59c8.45,0,14.58,4.57,14.58,12.2C498.15,35.92,487.72,38.51,487.72,45.12Zm-10.15,4.77h10.56V60.31H477.57Z"/><path class="cls-15" d="M24.87,116.88v12.68H21.71V117.42c0-3.82-1.11-5.91-4.51-5.91a7.12,7.12,0,0,0-4.84,2.3v15.75H9.24v-20.1h2l.66,2.42a8.43,8.43,0,0,1,6.11-2.83c3,0,4.92,1.07,5.9,3.08a8.78,8.78,0,0,1,6.28-3.08c4.92,0,7.09,2.75,7.09,7.83v12.68H34.17V117.42c0-3.82-1.43-5.91-4.84-5.91a7.2,7.2,0,0,0-4.79,2.3A12,12,0,0,1,24.87,116.88Z"/><path class="cls-15" d="M44.68,120.41c0,5,2.54,7.13,6.35,7.13a12.46,12.46,0,0,0,6.24-2l.77,2.21A14.33,14.33,0,0,1,50.71,130c-5.5,0-9.15-3.66-9.15-10.58,0-6.36,3.12-10.34,8.61-10.34,5.66,0,8,4.55,8,9.6v1.76Zm5.37-9c-3.82,0-5.37,3.36-5.37,6.81H55.17C55.17,114.75,54,111.43,50.05,111.43Z"/><path class="cls-15" d="M76.21,127.13A7.59,7.59,0,0,1,70.43,130c-4.75,0-8.08-3.53-8.08-10.5,0-6.11,3-10.42,8.41-10.42a8.45,8.45,0,0,1,5.37,1.72,28.49,28.49,0,0,1-.16-3.28v-6.23h3.11v28.3H76.75ZM76,112.86a8.69,8.69,0,0,0-4.88-1.43c-3.77,0-5.58,2.95-5.58,8s1.6,8.16,5.37,8.16A6.78,6.78,0,0,0,76,125.08Z"/><path class="cls-15" d="M86.1,129.56V112l-2.22-.45v-2.05h5.25v20.1Zm-.29-28h3.32v3.28H85.81Z"/><path class="cls-15" d="M107.83,127.13a7.58,7.58,0,0,1-5.78,2.84c-4.75,0-8.08-3.53-8.08-10.5,0-6.11,3-10.42,8.41-10.42a8.45,8.45,0,0,1,5.37,1.72,28.49,28.49,0,0,1-.16-3.28v-6.23h3.11v28.3h-2.33Zm-.24-14.27a8.69,8.69,0,0,0-4.88-1.43c-3.77,0-5.58,2.95-5.58,8s1.6,8.16,5.37,8.16a6.78,6.78,0,0,0,5.09-2.55Z"/><path class="cls-15" d="M128.54,129.56,128,127a7.91,7.91,0,0,1-6.19,3c-4.1,0-6.48-2.75-6.48-6.16s2.54-5.74,7.09-5.74h5.21v-1.6c0-3.48-1.51-5-4.55-5a15,15,0,0,0-6.07,1.31l-.82-2.25a17.66,17.66,0,0,1,7.3-1.52c4.76,0,7.18,2.46,7.18,7.26v13.25Zm-.9-9.35h-4.71c-3.41,0-4.56,1.47-4.56,3.48,0,2.42,1.32,4,4.23,4a7.07,7.07,0,0,0,5-2.5Z"/><path class="cls-15" d="M138.31,114.38c0,4.31,10,2.79,10,9.6,0,3.24-2.5,6-7,6a12.12,12.12,0,0,1-6.07-1.73l.9-2.29a9.48,9.48,0,0,0,5.13,1.68c2.46,0,4-1.36,4-3.45,0-4.84-9.85-3-9.85-9.84,0-2.71,2.06-5.29,6.65-5.29a13.07,13.07,0,0,1,6,1.31l-.74,2.3a10.8,10.8,0,0,0-5.25-1.23C139.54,111.43,138.31,112.54,138.31,114.38Z"/><path class="cls-15" d="M178.41,119.47c0,6.76-3.28,10.5-8.65,10.5s-8.57-3.66-8.57-10.5c0-5.91,2.79-10.42,8.57-10.42C175.34,109.05,178.41,113.48,178.41,119.47Zm-3.19,0c0-5.25-1.77-8.08-5.46-8.08s-5.41,3-5.41,8.08c0,4.92,1.43,8.16,5.41,8.16S175.22,124.84,175.22,119.47Z"/><path class="cls-15" d="M193.76,129.56V112l-2.22-.45v-2.05h5.25v20.1Zm-.29-28h3.32v3.28h-3.32Z"/><path class="cls-15" d="M214.88,129.56V117.42c0-3.82-1.19-5.91-4.6-5.91a7.42,7.42,0,0,0-4.92,2.3v15.75h-3.11v-20.1h2.09l.61,2.38a8.79,8.79,0,0,1,6.32-2.79c4.71,0,6.81,2.83,6.81,7.83v12.68Z"/><path class="cls-15" d="M224.68,129.56V112l-2.21-.45v-2.05h5.25v20.1Zm-.29-28h3.33v3.28h-3.33Z"/><path class="cls-15" d="M248,128.2a14.29,14.29,0,0,1-6.69,1.77c-5.08,0-8.77-3-8.77-10.46,0-6.81,3.73-10.46,8.77-10.46a12.91,12.91,0,0,1,6.56,1.6l-.9,2.21a10.92,10.92,0,0,0-5.5-1.31c-3.6,0-5.82,2.87-5.82,8,0,5.66,2.22,8,5.82,8a11.39,11.39,0,0,0,5.79-1.68Z"/><path class="cls-15" d="M253.72,129.56V112l-2.22-.45v-2.05h5.25v20.1Zm-.29-28h3.32v3.28h-3.32Z"/><path class="cls-15" d="M274.63,129.56,274.1,127a7.91,7.91,0,0,1-6.19,3c-4.1,0-6.48-2.75-6.48-6.16s2.54-5.74,7.09-5.74h5.21v-1.6c0-3.48-1.52-5-4.55-5a15,15,0,0,0-6.07,1.31l-.82-2.25a17.66,17.66,0,0,1,7.3-1.52c4.76,0,7.18,2.46,7.18,7.26v13.25Zm-.9-9.35H269c-3.41,0-4.55,1.47-4.55,3.48,0,2.42,1.31,4,4.22,4a7.07,7.07,0,0,0,5-2.5Z"/><path class="cls-15" d="M288.87,130c-2.83,0-5.17-1.44-5.17-6.16V111.72h-3v-2.26h3v-3.65l3.11-1v4.63h5.87v2.26h-5.87v12.46c0,2.13.78,3.16,2.67,3.16a8.65,8.65,0,0,0,3.2-.86l.62,2.3A9.9,9.9,0,0,1,288.87,130Z"/><path class="cls-15" d="M299,129.56V112l-2.22-.45v-2.05H302v20.1Zm-.29-28H302v3.28h-3.32Z"/><path class="cls-15" d="M316.3,129.56h-4.63l-6.44-20.1h3.45l5.45,18.17h.08l5.41-18.17h3.2Z"/><path class="cls-15" d="M338.49,129.56,338,127a7.93,7.93,0,0,1-6.2,3c-4.1,0-6.47-2.75-6.47-6.16s2.54-5.74,7.09-5.74h5.21v-1.6c0-3.48-1.52-5-4.55-5a14.87,14.87,0,0,0-6.07,1.31l-.82-2.25a17.63,17.63,0,0,1,7.3-1.52c4.75,0,7.17,2.46,7.17,7.26v13.25Zm-.9-9.35h-4.72c-3.4,0-4.55,1.47-4.55,3.48,0,2.42,1.31,4,4.22,4a7.09,7.09,0,0,0,5-2.5Z"/><path class="cls-15" d="M348.25,114.38c0,4.31,10,2.79,10,9.6,0,3.24-2.5,6-7,6a12.09,12.09,0,0,1-6.07-1.73l.9-2.29a9.44,9.44,0,0,0,5.12,1.68c2.47,0,4-1.36,4-3.45,0-4.84-9.84-3-9.84-9.84,0-2.71,2.05-5.29,6.65-5.29a13,13,0,0,1,6,1.31l-.74,2.3a10.74,10.74,0,0,0-5.24-1.23C349.48,111.43,348.25,112.54,348.25,114.38Z"/><path class="cls-15" d="M375,130.91v6.44h-3.15V109.46h2.41l.5,2.38a8.07,8.07,0,0,1,5.86-2.79c5.13,0,7.67,3.65,7.67,10.42,0,7.09-3.53,10.5-8.33,10.5a7.09,7.09,0,0,1-5.41-2.3A18.76,18.76,0,0,1,375,130.91Zm0-5.46a6.73,6.73,0,0,0,4.76,2.18c3.65,0,5.37-2.38,5.37-8.16,0-5.29-1.52-8-5.17-8a7.22,7.22,0,0,0-5,2.34Z"/><path class="cls-15" d="M405.46,129.56l-.53-2.59a7.91,7.91,0,0,1-6.19,3c-4.1,0-6.48-2.75-6.48-6.16s2.54-5.74,7.1-5.74h5.2v-1.6c0-3.48-1.51-5-4.55-5a15,15,0,0,0-6.07,1.31l-.82-2.25a17.66,17.66,0,0,1,7.3-1.52c4.76,0,7.18,2.46,7.18,7.26v13.25Zm-.9-9.35h-4.71c-3.41,0-4.56,1.47-4.56,3.48,0,2.42,1.32,4,4.23,4a7.07,7.07,0,0,0,5-2.5Z"/><path class="cls-15" d="M423.14,112.17a7.89,7.89,0,0,0-2.58-.37,6.42,6.42,0,0,0-4.51,2.17v15.59h-3.12v-20.1H415l.58,2.54a6.66,6.66,0,0,1,5.2-2.83,9.15,9.15,0,0,1,2.55.33Z"/><path class="cls-15" d="M439.26,129.56l-.53-2.59a7.92,7.92,0,0,1-6.19,3c-4.1,0-6.49-2.75-6.49-6.16s2.55-5.74,7.1-5.74h5.21v-1.6c0-3.48-1.52-5-4.55-5a14.87,14.87,0,0,0-6.07,1.31l-.82-2.25a17.66,17.66,0,0,1,7.3-1.52c4.75,0,7.17,2.46,7.17,7.26v13.25Zm-.9-9.35h-4.72c-3.4,0-4.55,1.47-4.55,3.48,0,2.42,1.31,4,4.22,4a7.09,7.09,0,0,0,5.05-2.5Z"/><path class="cls-15" d="M19.45,147.32a8.12,8.12,0,0,0-2.58-.37,6.39,6.39,0,0,0-4.51,2.18v15.58H9.24V144.62h2.09l.58,2.54a6.63,6.63,0,0,1,5.2-2.83,9.15,9.15,0,0,1,2.55.33Z"/><path class="cls-15" d="M25.61,155.56c0,5,2.54,7.14,6.35,7.14a12.42,12.42,0,0,0,6.23-2l.78,2.22a14.43,14.43,0,0,1-7.34,2.21c-5.49,0-9.14-3.65-9.14-10.58,0-6.36,3.12-10.33,8.61-10.33,5.66,0,8,4.55,8,9.59v1.76Zm5.37-9c-3.82,0-5.37,3.36-5.37,6.8H36.1C36.1,149.91,34.91,146.59,31,146.59Z"/><path class="cls-15" d="M58.74,163.36a14.38,14.38,0,0,1-6.68,1.76c-5.09,0-8.78-3-8.78-10.46,0-6.8,3.73-10.45,8.78-10.45a13,13,0,0,1,6.56,1.59l-.9,2.22a11,11,0,0,0-5.5-1.31c-3.61,0-5.82,2.87-5.82,7.95,0,5.66,2.21,8,5.82,8A11.32,11.32,0,0,0,58,161Z"/><path class="cls-15" d="M75.27,164.71l-.53-2.58a7.93,7.93,0,0,1-6.19,3c-4.11,0-6.48-2.75-6.48-6.15s2.54-5.74,7.09-5.74h5.21v-1.6c0-3.49-1.52-5-4.55-5A14.75,14.75,0,0,0,63.75,148l-.82-2.26a17.85,17.85,0,0,1,7.3-1.51c4.75,0,7.17,2.46,7.17,7.25v13.25Zm-.9-9.35H69.65c-3.4,0-4.55,1.48-4.55,3.48,0,2.43,1.31,4,4.23,4a7.05,7.05,0,0,0,5-2.5Z"/><path class="cls-15" d="M96.11,164.71l-.45-2.3a8.58,8.58,0,0,1-6.24,2.71c-4.47,0-6.93-2.67-6.93-8.16V144.62h3.12v12.13c0,4.15,1.31,5.87,4.55,5.87a7.89,7.89,0,0,0,5-2v-16h3.16v20.09Z"/><path class="cls-15" d="M116.69,162.29a7.58,7.58,0,0,1-5.78,2.83c-4.76,0-8.08-3.53-8.08-10.5,0-6.11,3-10.41,8.41-10.41a8.45,8.45,0,0,1,5.37,1.72,28.6,28.6,0,0,1-.16-3.28v-6.23h3.11v28.29h-2.33ZM116.45,148a8.61,8.61,0,0,0-4.88-1.43c-3.78,0-5.58,2.95-5.58,8s1.6,8.16,5.37,8.16a6.8,6.8,0,0,0,5.09-2.54Z"/><path class="cls-15" d="M137.4,164.71l-.53-2.58a7.93,7.93,0,0,1-6.19,3c-4.1,0-6.48-2.75-6.48-6.15s2.54-5.74,7.09-5.74h5.21v-1.6c0-3.49-1.52-5-4.55-5a14.79,14.79,0,0,0-6.07,1.31l-.82-2.26a17.85,17.85,0,0,1,7.3-1.51c4.76,0,7.18,2.46,7.18,7.25v13.25Zm-.9-9.35h-4.71c-3.41,0-4.55,1.48-4.55,3.48,0,2.43,1.31,4,4.22,4a7,7,0,0,0,5-2.5Z"/><path class="cls-15" d="M155.08,147.32a8.17,8.17,0,0,0-2.58-.37,6.39,6.39,0,0,0-4.51,2.18v15.58h-3.12V144.62H147l.58,2.54a6.63,6.63,0,0,1,5.2-2.83,9.15,9.15,0,0,1,2.55.33Z"/><path class="cls-15" d="M10,199.17V176.42H13v23.9c0,1.72.78,2.42,3,2.42h.66v2.13a9.25,9.25,0,0,1-2,.25C10.9,205.12,10,203,10,199.17Z"/><path class="cls-15" d="M37.11,194.62c0,6.77-3.28,10.5-8.65,10.5s-8.58-3.65-8.58-10.5c0-5.9,2.79-10.41,8.58-10.41C34,184.21,37.11,188.64,37.11,194.62Zm-3.2,0c0-5.25-1.76-8.08-5.45-8.08s-5.42,3-5.42,8.08c0,4.92,1.44,8.16,5.42,8.16S33.91,200,33.91,194.62Z"/><path class="cls-15" d="M44.12,189.54c0,4.3,10,2.79,10,9.59,0,3.24-2.5,6-7,6a12.09,12.09,0,0,1-6.07-1.72l.9-2.3a9.4,9.4,0,0,0,5.13,1.68c2.46,0,4-1.35,4-3.44,0-4.84-9.84-3-9.84-9.84,0-2.71,2-5.29,6.65-5.29a13,13,0,0,1,6,1.31l-.74,2.3a10.74,10.74,0,0,0-5.24-1.23C45.35,186.59,44.12,187.69,44.12,189.54Z"/><path class="cls-15" d="M82,178.67a9.23,9.23,0,0,0-2.58-.37c-2.71,0-3.9,1.52-3.9,4.72v1.6H80.3V187H75.54v17.71H72.47V187H69.23v-2.38h3.24v-1.81c0-4.59,2.21-7.09,6.72-7.09a13,13,0,0,1,3.12.41Z"/><path class="cls-15" d="M100.4,194.62c0,6.77-3.28,10.5-8.65,10.5s-8.57-3.65-8.57-10.5c0-5.9,2.78-10.41,8.57-10.41C97.32,184.21,100.4,188.64,100.4,194.62Zm-3.2,0c0-5.25-1.76-8.08-5.45-8.08s-5.42,3-5.42,8.08c0,4.92,1.44,8.16,5.42,8.16S97.2,200,97.2,194.62Z"/><path class="cls-15" d="M117.75,204.71V192.57c0-3.81-1.19-5.9-4.6-5.9a7.46,7.46,0,0,0-4.92,2.29v15.75h-3.11V184.62h2.09l.61,2.38a8.75,8.75,0,0,1,6.32-2.79c4.71,0,6.81,2.83,6.81,7.83v12.67Z"/><path class="cls-15" d="M139.2,202.29a7.6,7.6,0,0,1-5.79,2.83c-4.75,0-8.07-3.53-8.07-10.5,0-6.11,3-10.41,8.4-10.41a8.48,8.48,0,0,1,5.38,1.72,26.44,26.44,0,0,1-.17-3.28v-6.23h3.12v28.29h-2.34ZM139,188a8.56,8.56,0,0,0-4.88-1.43c-3.77,0-5.58,2.95-5.58,8s1.6,8.16,5.38,8.16a6.8,6.8,0,0,0,5.08-2.54Z"/><path class="cls-15" d="M164,194.62c0,6.77-3.28,10.5-8.65,10.5s-8.57-3.65-8.57-10.5c0-5.9,2.78-10.41,8.57-10.41C160.93,184.21,164,188.64,164,194.62Zm-3.2,0c0-5.25-1.76-8.08-5.45-8.08s-5.42,3-5.42,8.08c0,4.92,1.44,8.16,5.42,8.16S160.81,200,160.81,194.62Z"/><path class="cls-15" d="M171,189.54c0,4.3,10,2.79,10,9.59,0,3.24-2.5,6-7,6A12.09,12.09,0,0,1,168,203.4l.9-2.3a9.37,9.37,0,0,0,5.13,1.68c2.46,0,4-1.35,4-3.44,0-4.84-9.84-3-9.84-9.84,0-2.71,2-5.29,6.64-5.29a13,13,0,0,1,6,1.31l-.74,2.3a10.74,10.74,0,0,0-5.24-1.23C172.25,186.59,171,187.69,171,189.54Z"/><path class="cls-15" d="M21.87,239.86V227.73c0-3.82-1.19-5.91-4.59-5.91a7.42,7.42,0,0,0-4.92,2.3v15.74H9.24V219.77h2.09l.62,2.38a8.79,8.79,0,0,1,6.31-2.79c4.72,0,6.81,2.83,6.81,7.83v12.67Z"/><path class="cls-15" d="M32.54,230.72c0,5,2.54,7.13,6.35,7.13a12.39,12.39,0,0,0,6.23-2l.78,2.21a14.43,14.43,0,0,1-7.34,2.21c-5.49,0-9.14-3.65-9.14-10.58,0-6.35,3.12-10.33,8.61-10.33,5.66,0,8,4.55,8,9.6v1.76Zm5.37-9c-3.82,0-5.37,3.36-5.37,6.81H43C43,225.06,41.84,221.74,37.91,221.74Z"/><path class="cls-15" d="M65.67,238.51A14.26,14.26,0,0,1,59,240.27c-5.08,0-8.78-3-8.78-10.45,0-6.81,3.74-10.46,8.78-10.46a12.91,12.91,0,0,1,6.56,1.6l-.9,2.21a11,11,0,0,0-5.5-1.31c-3.6,0-5.82,2.87-5.82,8,0,5.66,2.22,8,5.82,8a11.39,11.39,0,0,0,5.79-1.68Z"/><path class="cls-15" d="M72.24,230.72c0,5,2.54,7.13,6.35,7.13a12.46,12.46,0,0,0,6.24-2l.78,2.21a14.47,14.47,0,0,1-7.35,2.21c-5.49,0-9.14-3.65-9.14-10.58,0-6.35,3.12-10.33,8.61-10.33,5.66,0,8,4.55,8,9.6v1.76Zm5.37-9c-3.81,0-5.37,3.36-5.37,6.81h10.5C82.74,225.06,81.55,221.74,77.61,221.74Z"/><path class="cls-15" d="M92.83,224.69c0,4.31,10,2.79,10,9.6,0,3.24-2.5,6-7,6a12.12,12.12,0,0,1-6.07-1.72l.9-2.29a9.48,9.48,0,0,0,5.13,1.68c2.46,0,4-1.36,4-3.45,0-4.84-9.85-3-9.85-9.84,0-2.71,2.06-5.29,6.65-5.29a13.07,13.07,0,0,1,6,1.31l-.74,2.3a10.8,10.8,0,0,0-5.25-1.23C94.06,221.74,92.83,222.85,92.83,224.69Z"/><path class="cls-15" d="M119.81,239.86l-.53-2.58a7.9,7.9,0,0,1-6.19,3c-4.1,0-6.48-2.74-6.48-6.15s2.54-5.74,7.09-5.74h5.21v-1.6c0-3.48-1.52-5-4.55-5a14.91,14.91,0,0,0-6.07,1.31l-.82-2.25a17.66,17.66,0,0,1,7.3-1.52c4.75,0,7.17,2.46,7.17,7.26v13.24Zm-.9-9.35h-4.72c-3.4,0-4.55,1.48-4.55,3.49,0,2.42,1.31,4,4.23,4a7.09,7.09,0,0,0,5-2.5Z"/><path class="cls-15" d="M137.49,222.48a8,8,0,0,0-2.59-.37,6.46,6.46,0,0,0-4.51,2.17v15.58h-3.11V219.77h2.09l.57,2.54a6.68,6.68,0,0,1,5.21-2.83,9,9,0,0,1,2.54.33Z"/><path class="cls-15" d="M142.78,239.86V222.27l-2.21-.45v-2h5.25v20.09Zm-.29-28h3.33v3.28h-3.33Z"/><path class="cls-15" d="M167.79,229.78c0,6.76-3.28,10.49-8.65,10.49s-8.57-3.65-8.57-10.49c0-5.91,2.79-10.42,8.57-10.42C164.72,219.36,167.79,223.79,167.79,229.78Zm-3.19,0c0-5.25-1.77-8.08-5.46-8.08s-5.41,3-5.41,8.08c0,4.92,1.43,8.16,5.41,8.16S164.6,235.15,164.6,229.78Z"/><path class="cls-15" d="M174.81,224.69c0,4.31,10,2.79,10,9.6,0,3.24-2.51,6-7,6a12.08,12.08,0,0,1-6.06-1.72l.9-2.29a9.44,9.44,0,0,0,5.12,1.68c2.46,0,4-1.36,4-3.45,0-4.84-9.84-3-9.84-9.84,0-2.71,2-5.29,6.64-5.29a13,13,0,0,1,6,1.31l-.74,2.3a10.8,10.8,0,0,0-5.25-1.23C176,221.74,174.81,222.85,174.81,224.69Z"/><path class="cls-15" d="M11,266.43c0,5,2.55,7.14,6.36,7.14a12.42,12.42,0,0,0,6.23-2l.78,2.21A14.33,14.33,0,0,1,17,276c-5.49,0-9.14-3.65-9.14-10.58,0-6.36,3.11-10.34,8.61-10.34,5.66,0,8,4.55,8,9.6v1.76Zm5.37-9c-3.81,0-5.37,3.36-5.37,6.81h10.5C21.46,260.77,20.27,257.45,16.33,257.45Z"/><path class="cls-15" d="M31.55,260.4c0,4.31,10,2.79,10,9.6,0,3.24-2.5,6-7,6a12.08,12.08,0,0,1-6.06-1.73l.9-2.29a9.36,9.36,0,0,0,5.12,1.68c2.47,0,4-1.35,4-3.45,0-4.83-9.84-3-9.84-9.84,0-2.7,2.05-5.29,6.64-5.29a12.92,12.92,0,0,1,6,1.32l-.74,2.29a10.74,10.74,0,0,0-5.24-1.23C32.78,257.45,31.55,258.56,31.55,260.4Z"/><path class="cls-15" d="M52.88,276c-2.83,0-5.17-1.44-5.17-6.15v-12.1h-3v-2.26h3v-3.65l3.12-1v4.63h5.86v2.26H50.83V270.2c0,2.14.78,3.16,2.66,3.16a8.59,8.59,0,0,0,3.2-.86l.62,2.3A9.86,9.86,0,0,1,52.88,276Z"/><path class="cls-15" d="M63,275.58V258l-2.22-.45v-2H66v20.1Zm-.29-28H66v3.28H62.68Z"/><path class="cls-15" d="M87.08,262.9v12.68H83.92V263.44c0-3.82-1.1-5.91-4.51-5.91a7.14,7.14,0,0,0-4.84,2.3v15.75H71.46v-20.1h2.05l.65,2.42a8.45,8.45,0,0,1,6.11-2.83c3,0,4.92,1.07,5.91,3.08a8.76,8.76,0,0,1,6.27-3.08c4.92,0,7.1,2.75,7.1,7.83v12.68H96.39V263.44c0-3.82-1.43-5.91-4.84-5.91a7.21,7.21,0,0,0-4.8,2.3A11.61,11.61,0,0,1,87.08,262.9Z"/><path class="cls-15" d="M116.86,275.58l-.54-2.59a7.91,7.91,0,0,1-6.19,3c-4.1,0-6.48-2.75-6.48-6.15s2.55-5.74,7.1-5.74H116v-1.61c0-3.48-1.51-5-4.55-5a14.78,14.78,0,0,0-6.07,1.32l-.82-2.26a17.66,17.66,0,0,1,7.3-1.52c4.76,0,7.18,2.46,7.18,7.26v13.25Zm-.91-9.35h-4.71c-3.4,0-4.55,1.47-4.55,3.48,0,2.42,1.31,4,4.22,4a7.05,7.05,0,0,0,5-2.5Z"/><path class="cls-15" d="M137.57,273.16a7.63,7.63,0,0,1-5.78,2.83c-4.76,0-8.08-3.53-8.08-10.5,0-6.11,3-10.42,8.4-10.42a8.42,8.42,0,0,1,5.38,1.73,26.54,26.54,0,0,1-.17-3.28v-6.24h3.12v28.3H138.1Zm-.25-14.27a8.55,8.55,0,0,0-4.88-1.44c-3.77,0-5.57,2.95-5.57,8s1.6,8.16,5.37,8.16a6.8,6.8,0,0,0,5.08-2.54Z"/><path class="cls-15" d="M162.38,265.49c0,6.76-3.28,10.5-8.65,10.5s-8.57-3.65-8.57-10.5c0-5.91,2.79-10.42,8.57-10.42C159.3,255.07,162.38,259.5,162.38,265.49Zm-3.2,0c0-5.25-1.76-8.08-5.45-8.08s-5.42,2.95-5.42,8.08c0,4.92,1.44,8.16,5.42,8.16S159.18,270.86,159.18,265.49Z"/><path class="cls-15" d="M169.39,260.4c0,4.31,10,2.79,10,9.6,0,3.24-2.5,6-7,6a12.09,12.09,0,0,1-6.07-1.73l.9-2.29a9.37,9.37,0,0,0,5.13,1.68c2.46,0,4-1.35,4-3.45,0-4.83-9.85-3-9.85-9.84,0-2.7,2.05-5.29,6.65-5.29a12.91,12.91,0,0,1,6,1.32l-.73,2.29a10.8,10.8,0,0,0-5.25-1.23C170.63,257.45,169.39,258.56,169.39,260.4Z"/><path class="cls-15" d="M183.34,271h3.08v4.6h-3.08Z"/><path class="cls-16" d="M202.17,68.6v5.83h8l-.38,5.33h-7.6v9.63h-6.06V63.5h16.72v5.1Z"/><path class="cls-16" d="M218.28,89.39V74.89l-2.22-.5V70.6h8.24V89.39Zm-.11-26.62h6.06v5.29h-6.06Z"/><path class="cls-16" d="M240.87,89.39V78.3c0-2.45-1-3.49-2.91-3.49a6.2,6.2,0,0,0-2.65.66V89.39h-6.06V70.6h4.18l.84,2.11a7.58,7.58,0,0,1,6-2.5c4.91,0,6.75,2.88,6.75,7.67V89.39Z"/><path class="cls-16" d="M263.35,89.39l-.77-2.15a6.4,6.4,0,0,1-5.33,2.53c-3.72,0-6.44-2.38-6.44-6.17,0-3.61,2.69-5.64,7.33-5.64h3.49v-.69c0-2-1.35-2.46-2.84-2.46a13.35,13.35,0,0,0-5.6,1.23l-1.5-4.29a20.16,20.16,0,0,1,7.67-1.54c5.8,0,8.13,2.53,8.13,7.48v11.7Zm-1.72-7.94h-2.42c-1.61,0-2.46.77-2.46,2A2.05,2.05,0,0,0,259,85.71a5.57,5.57,0,0,0,2.61-.77Z"/><path class="cls-16" d="M283.68,89.39V78.3c0-2.45-1-3.49-2.91-3.49a6.2,6.2,0,0,0-2.65.66V89.39h-6.06V70.6h4.18l.85,2.11a7.54,7.54,0,0,1,6-2.5c4.91,0,6.75,2.88,6.75,7.67V89.39Z"/><path class="cls-16" d="M308.39,75.81a9.56,9.56,0,0,0-4.49-1.07c-2.22,0-3.68,1.3-3.68,5.21,0,3.76,1.26,5.22,3.72,5.22a11.22,11.22,0,0,0,4.91-1.34l1.07,4.29a15,15,0,0,1-6.56,1.65c-6,0-9.36-3.37-9.36-9.82,0-6,3.34-9.74,9.32-9.74a13.07,13.07,0,0,1,6.6,1.54Z"/><path class="cls-16" d="M315.37,89.39V74.89l-2.22-.5V70.6h8.24V89.39Zm-.12-26.62h6.07v5.29h-6.07Z"/><path class="cls-16" d="M338.12,89.39l-.77-2.15A6.4,6.4,0,0,1,332,89.77c-3.72,0-6.45-2.38-6.45-6.17,0-3.61,2.69-5.64,7.33-5.64h3.49v-.69c0-2-1.34-2.46-2.84-2.46A13.35,13.35,0,0,0,328,76l-1.49-4.29a20.08,20.08,0,0,1,7.67-1.54c5.79,0,8.13,2.53,8.13,7.48v11.7Zm-1.73-7.94H334c-1.61,0-2.45.77-2.45,2a2,2,0,0,0,2.26,2.27,5.54,5.54,0,0,0,2.61-.77Z"/><path class="cls-16" d="M364.47,77.88V89.39h-6.14V78.3c0-2.45-1-3.49-2.91-3.49a5.63,5.63,0,0,0-2.53.66V89.39h-6.06V70.6h4.06l1,2.11a6.83,6.83,0,0,1,5.52-2.5c3.19,0,5,.88,6,2.5a7,7,0,0,1,5.55-2.5c5.8,0,7.1,2.88,7.1,7.67V89.39h-6.14V78.3c0-2.45-1.15-3.49-3-3.49a5.8,5.8,0,0,0-2.56.66A16.67,16.67,0,0,1,364.47,77.88Z"/><path class="cls-16" d="M382.27,89.39V74.89l-2.23-.5V70.6h8.25V89.39Zm-.12-26.62h6.06v5.29h-6.06Z"/><path class="cls-16" d="M398.61,81.6c0,2.15,1.38,3.57,4.29,3.57a13.86,13.86,0,0,0,5.3-1.38L409.27,88A16.55,16.55,0,0,1,402,89.77c-6,0-9.51-3.72-9.51-9.82,0-5.67,2.72-9.74,9.09-9.74,5.87,0,8.21,4.18,8.21,8.9V81.6Zm2.76-7c-2,0-2.76,1.81-2.76,3.53H404C404,76.16,403.44,74.62,401.37,74.62Z"/><path class="cls-16" d="M425.57,89.39V78.3c0-2.45-1-3.49-2.91-3.49a6.2,6.2,0,0,0-2.65.66V89.39H414V70.6h4.18l.85,2.11a7.54,7.54,0,0,1,6-2.5c4.91,0,6.75,2.88,6.75,7.67V89.39Z"/><path class="cls-16" d="M449.09,88.43a11.63,11.63,0,0,1-5.33,1.34c-3.53,0-6.14-2.26-6.14-6.75V74.89h-2.69V70.6h2.8V67.37l5.91-1.91V70.6h4.79v4.29h-4.79v7.94a1.55,1.55,0,0,0,1.73,1.76,6.59,6.59,0,0,0,2.84-.65Z"/><path class="cls-16" d="M470.34,80c0,6.45-3.3,9.82-9.21,9.82s-9.2-3.37-9.2-9.82c0-5.52,3.3-9.74,9.2-9.74S470.34,74.43,470.34,80Zm-6.25,0c0-4.37-1.19-5.37-3-5.37s-2.95,1-2.95,5.37c0,4.22,1.11,5.37,2.95,5.37S464.09,84.17,464.09,80Z"/><path class="cls-16" d="M474.14,70.6h6.14v6h-6.14Zm0,12.81h6.14v6h-6.14Z"/></svg>