<svg id="Capa_1" data-name="Capa 1" xmlns="http://www.w3.org/2000/svg" viewBox="0 0 1024 512"><defs><style>.cls-1{fill:#e7334a;}.cls-1,.cls-14,.cls-2,.cls-3,.cls-4{stroke:#fff;}.cls-1,.cls-10,.cls-14,.cls-2,.cls-3,.cls-4{stroke-miterlimit:10;}.cls-2{fill:#55b682;}.cls-3,.cls-4{fill:#615185;}.cls-3{stroke-width:0.5px;}.cls-5{fill:#222b54;}.cls-6{fill:#fcd6b4;}.cls-7{fill:#e9bca2;}.cls-8{fill:#7a7ba3;}.cls-9{fill:#fff;}.cls-10,.cls-11,.cls-14{fill:none;}.cls-10{stroke:#a6a2bd;}.cls-12{fill:#a6a2bd;}.cls-13{fill:#e84a1e;}.cls-14{stroke-width:3px;}.cls-15{fill:#eb575a;}</style></defs><path class="cls-1" d="M463.28,90.52h17.78V51s0-7.52.68-13.27C476.55,44,466.84,47.3,460,47.84L457.4,31c12.45-3.14,22-8.89,28.59-17.23H502.4V90.52h16.82v16.27H463.28Z"/><path class="cls-1" d="M544,90.52h17.78V51s0-7.52.68-13.27c-5.2,6.29-14.91,9.58-21.75,10.12L538.09,31c12.45-3.14,22-8.89,28.59-17.23h16.41V90.52h16.82v16.27H544Z"/><path class="cls-2" d="M459.6,175v-1.47h15.09v2.32c0,16.26-13.51,16.57-13.51,27.13,0,3.91,2.74,7,8,7a35.89,35.89,0,0,0,12.57-2.64l4.11,13a47.67,47.67,0,0,1-19.85,4c-13.08,0-22.59-7.07-22.59-18.89C443.44,189.29,459.6,185.27,459.6,175Zm15.73-7.39H459V151.49h16.37Z"/><path class="cls-2" d="M523.25,204.28c-20.27,0-31.57-12.67-31.57-37.06,0-21.74,10.35-36.31,31.57-36.31,10.13,0,19.21,2.11,25.33,6.12l-6.23,13.41c-3.48-2.64-9.6-4.75-17.1-4.75-10.55,0-15.94,6.65-15.94,21.43,0,15.52,5.28,22.27,15.73,22.27,6.55,0,13.51-2.95,18.37-6.44l5.28,13.62A43.86,43.86,0,0,1,523.25,204.28Z"/><path class="cls-2" d="M586.9,204.28c-25,0-31.36-18.16-31.36-37.27,0-18.58,6.23-36.1,31.36-36.1,25.65,0,31.67,17.31,31.67,36.1C618.57,186.12,611.92,204.28,586.9,204.28Zm0-59c-11.09,0-13.73,9.5-13.73,21.64,0,13.51,2.85,23.33,13.73,23.33s13.93-9.72,13.93-23.33C600.83,154.56,598,145.27,586.9,145.27Z"/><path class="cls-2" d="M662.16,203.22l-19.32-55.63h-.42L644,203.22H629.12V132h25.65l19.84,57H675l-1.59-57h15.2v71.25Z"/><path class="cls-2" d="M765.81,201.64c5.6.63,11.72.74,22,.74v16.15a46.77,46.77,0,0,1-33.46-14.25c-25,0-31.36-18.16-31.36-37.27,0-18.58,6.23-36.1,31.36-36.1C780,130.91,786,148.22,786,167,786,180,778.48,195.52,765.81,201.64Zm-11.5-56.37c-11.09,0-13.73,9.5-13.73,21.64,0,13.51,2.85,23.33,13.73,23.33s13.93-9.72,13.93-23.33C768.24,154.56,765.39,145.27,754.31,145.27Z"/><path class="cls-2" d="M853.42,176c0,14.88-8.44,28.29-28.18,28.29S797.05,191.4,797.05,176V132h16.68v43.17c0,9,4.12,15,11.51,15s11.29-6.12,11.29-15V132h16.89Z"/><path class="cls-2" d="M867.14,203.22V132h46v14H883.82v14h22l-1.06,14.68h-20.9v14.57h29.35v13.93Zm8.23-75.16-1.37-9.5,30.93-4.23-.21,12.25Z"/><path class="cls-2" d="M945.78,179.68v1.48h-15.1v-2.32c0-16.26,13.52-16.58,13.52-27.13,0-3.91-2.75-7-8-7a35.57,35.57,0,0,0-12.57,2.64l-4.11-13a47.78,47.78,0,0,1,19.84-4c13.09,0,22.59,7.07,22.59,18.9C961.93,165.43,945.78,169.44,945.78,179.68Zm-15.73,7.39h16.37v16.15H930.05Z"/><path class="cls-3" d="M478.68,283v16.3h-4.06V283.64c0-4.9-1.43-7.59-5.81-7.59-2.74,0-4.64,1.52-6.22,2.95v20.25h-4V273.41h2.64l.84,3.11a10.87,10.87,0,0,1,7.86-3.64c3.85,0,6.33,1.37,7.6,4a11.22,11.22,0,0,1,8.07-4c6.33,0,9.12,3.53,9.12,10.07v16.3h-4.06V283.64c0-4.9-1.84-7.59-6.22-7.59a9.25,9.25,0,0,0-6.17,2.95A15.44,15.44,0,0,1,478.68,283Z"/><path class="cls-3" d="M504.16,287.49c0,6.38,3.27,9.18,8.18,9.18a15.92,15.92,0,0,0,8-2.59l1,2.85a18.51,18.51,0,0,1-9.44,2.85c-7.07,0-11.76-4.69-11.76-13.61,0-8.17,4-13.29,11.08-13.29,7.28,0,10.33,5.86,10.33,12.34v2.27Zm6.91-11.55c-4.91,0-6.91,4.33-6.91,8.76h13.5C517.66,280.21,516.13,275.94,511.07,275.94Z"/><path class="cls-3" d="M544.72,296.14a9.75,9.75,0,0,1-7.43,3.64c-6.12,0-10.39-4.54-10.39-13.5,0-7.86,3.9-13.4,10.81-13.4a10.85,10.85,0,0,1,6.91,2.22,35.48,35.48,0,0,1-.21-4.22v-8h4v36.39h-3Zm-.31-18.35a11.05,11.05,0,0,0-6.28-1.85c-4.85,0-7.17,3.8-7.17,10.34,0,6.38,2.06,10.49,6.91,10.49,2.32,0,4.43-1,6.54-3.27Z"/><path class="cls-3" d="M557.44,299.25V276.63l-2.85-.58v-2.64h6.75v25.84Zm-.37-36h4.27v4.22h-4.27Z"/><path class="cls-3" d="M585.4,296.14a9.79,9.79,0,0,1-7.44,3.64c-6.12,0-10.39-4.54-10.39-13.5,0-7.86,3.9-13.4,10.81-13.4a10.85,10.85,0,0,1,6.91,2.22,35.48,35.48,0,0,1-.21-4.22v-8h4v36.39h-3Zm-.32-18.35a11,11,0,0,0-6.28-1.85c-4.85,0-7.17,3.8-7.17,10.34,0,6.38,2,10.49,6.91,10.49,2.32,0,4.43-1,6.54-3.27Z"/><path class="cls-3" d="M612,299.25l-.68-3.32a10.2,10.2,0,0,1-8,3.85c-5.27,0-8.33-3.53-8.33-7.91s3.27-7.38,9.13-7.38h6.69v-2.06c0-4.48-2-6.38-5.85-6.38a19.16,19.16,0,0,0-7.81,1.68l-1.05-2.9a22.87,22.87,0,0,1,9.39-1.95c6.11,0,9.23,3.17,9.23,9.34v17Zm-1.16-12h-6.06c-4.38,0-5.86,1.9-5.86,4.48,0,3.11,1.69,5.17,5.44,5.17a9.09,9.09,0,0,0,6.48-3.22Z"/><path class="cls-3" d="M624.59,279.74c0,5.54,12.82,3.58,12.82,12.34,0,4.17-3.22,7.7-9,7.7a15.67,15.67,0,0,1-7.81-2.21l1.17-3a12.06,12.06,0,0,0,6.59,2.16c3.16,0,5.11-1.74,5.11-4.43,0-6.22-12.66-3.9-12.66-12.66,0-3.48,2.64-6.8,8.55-6.8a16.76,16.76,0,0,1,7.75,1.69l-.95,2.95a13.91,13.91,0,0,0-6.75-1.58C626.17,275.94,624.59,277.36,624.59,279.74Z"/><path class="cls-3" d="M676.18,286.28c0,8.7-4.22,13.5-11.13,13.5s-11-4.69-11-13.5c0-7.6,3.58-13.4,11-13.4C672.22,272.88,676.18,278.58,676.18,286.28Zm-4.11,0c0-6.75-2.27-10.39-7-10.39s-7,3.79-7,10.39c0,6.33,1.84,10.49,7,10.49S672.07,293.19,672.07,286.28Z"/><path class="cls-3" d="M695.91,299.25V276.63l-2.84-.58v-2.64h6.75v25.84Zm-.37-36h4.28v4.22h-4.28Z"/><path class="cls-3" d="M723.08,299.25V283.64c0-4.9-1.53-7.59-5.91-7.59-2.69,0-4.75,1.52-6.33,2.95v20.25h-4V273.41h2.69l.79,3.06a11.32,11.32,0,0,1,8.13-3.59c6.06,0,8.75,3.64,8.75,10.07v16.3Z"/><path class="cls-3" d="M735.69,299.25V276.63l-2.85-.58v-2.64h6.75v25.84Zm-.37-36h4.27v4.22h-4.27Z"/><path class="cls-3" d="M765.7,297.51a18.34,18.34,0,0,1-8.6,2.27c-6.54,0-11.28-3.85-11.28-13.45,0-8.76,4.8-13.45,11.28-13.45a16.61,16.61,0,0,1,8.44,2.06l-1.16,2.85a14,14,0,0,0-7.07-1.69c-4.64,0-7.48,3.69-7.48,10.23,0,7.28,2.84,10.34,7.48,10.34a14.64,14.64,0,0,0,7.44-2.16Z"/><path class="cls-3" d="M773,299.25V276.63l-2.85-.58v-2.64h6.75v25.84Zm-.37-36h4.27v4.22h-4.27Z"/><path class="cls-3" d="M799.94,299.25l-.69-3.32a10.18,10.18,0,0,1-8,3.85c-5.27,0-8.34-3.53-8.34-7.91s3.28-7.38,9.13-7.38h6.7v-2.06c0-4.48-1.95-6.38-5.86-6.38a19.11,19.11,0,0,0-7.8,1.68l-1.06-2.9a22.91,22.91,0,0,1,9.39-1.95c6.12,0,9.23,3.17,9.23,9.34v17Zm-1.16-12h-6.07c-4.37,0-5.85,1.9-5.85,4.48,0,3.11,1.69,5.17,5.43,5.17a9.11,9.11,0,0,0,6.49-3.22Z"/><path class="cls-3" d="M818.25,299.78c-3.64,0-6.65-1.85-6.65-7.91V276.31h-3.9v-2.9h3.9v-4.7l4-1.26v6h7.54v2.9h-7.54v16c0,2.75,1,4.07,3.43,4.07a11.16,11.16,0,0,0,4.11-1.11l.79,2.95A12.55,12.55,0,0,1,818.25,299.78Z"/><path class="cls-3" d="M831.22,299.25V276.63l-2.85-.58v-2.64h6.75v25.84Zm-.37-36h4.27v4.22h-4.27Z"/><path class="cls-3" d="M853.53,299.25h-5.95l-8.29-25.84h4.43l7,23.36h.1l7-23.36h4.11Z"/><path class="cls-3" d="M882.07,299.25l-.68-3.32a10.2,10.2,0,0,1-8,3.85c-5.27,0-8.33-3.53-8.33-7.91s3.27-7.38,9.12-7.38h6.7v-2.06c0-4.48-1.95-6.38-5.85-6.38a19.16,19.16,0,0,0-7.81,1.68l-1-2.9a22.87,22.87,0,0,1,9.39-1.95c6.11,0,9.23,3.17,9.23,9.34v17Zm-1.16-12h-6.06c-4.38,0-5.86,1.9-5.86,4.48,0,3.11,1.69,5.17,5.44,5.17a9.09,9.09,0,0,0,6.48-3.22Z"/><path class="cls-3" d="M894.63,279.74c0,5.54,12.82,3.58,12.82,12.34,0,4.17-3.22,7.7-9,7.7a15.67,15.67,0,0,1-7.81-2.21l1.17-3a12.06,12.06,0,0,0,6.59,2.16c3.16,0,5.11-1.74,5.11-4.43,0-6.22-12.66-3.9-12.66-12.66,0-3.48,2.64-6.8,8.55-6.8a16.76,16.76,0,0,1,7.75,1.69l-.95,2.95a13.91,13.91,0,0,0-6.75-1.58C896.21,275.94,894.63,277.36,894.63,279.74Z"/><path class="cls-3" d="M929,301v8.28H925V273.41h3.11l.64,3.06a10.39,10.39,0,0,1,7.54-3.59c6.59,0,9.86,4.69,9.86,13.4,0,9.12-4.53,13.5-10.7,13.5a9.12,9.12,0,0,1-7-2.95A23.63,23.63,0,0,1,929,301Zm0-7a8.64,8.64,0,0,0,6.11,2.79c4.7,0,6.91-3.06,6.91-10.49,0-6.81-1.95-10.29-6.64-10.29a9.26,9.26,0,0,0-6.38,3Z"/><path class="cls-3" d="M968.22,299.25l-.69-3.32a10.16,10.16,0,0,1-8,3.85c-5.28,0-8.33-3.53-8.33-7.91s3.26-7.38,9.12-7.38h6.7v-2.06c0-4.48-1.95-6.38-5.86-6.38a19.11,19.11,0,0,0-7.8,1.68l-1.06-2.9a22.91,22.91,0,0,1,9.39-1.95c6.12,0,9.23,3.17,9.23,9.34v17Zm-1.16-12H961c-4.38,0-5.85,1.9-5.85,4.48,0,3.11,1.69,5.17,5.43,5.17a9.11,9.11,0,0,0,6.49-3.22Z"/><path class="cls-3" d="M991,276.89a10.34,10.34,0,0,0-3.32-.48,8.26,8.26,0,0,0-5.8,2.8v20h-4V273.41h2.69l.74,3.27A8.54,8.54,0,0,1,988,273a11.77,11.77,0,0,1,3.27.42Z"/><path class="cls-3" d="M1011.69,299.25l-.69-3.32a10.18,10.18,0,0,1-8,3.85c-5.28,0-8.34-3.53-8.34-7.91s3.27-7.38,9.13-7.38h6.7v-2.06c0-4.48-2-6.38-5.86-6.38a19.07,19.07,0,0,0-7.8,1.68l-1.06-2.9a22.91,22.91,0,0,1,9.39-1.95c6.12,0,9.23,3.17,9.23,9.34v17Zm-1.16-12h-6.07c-4.38,0-5.85,1.9-5.85,4.48,0,3.11,1.69,5.17,5.43,5.17a9.11,9.11,0,0,0,6.49-3.22Z"/><path class="cls-3" d="M471.72,322.11a10.18,10.18,0,0,0-3.33-.48,8.26,8.26,0,0,0-5.8,2.8v20h-4V318.63h2.69l.74,3.27a8.56,8.56,0,0,1,6.7-3.64,11.77,11.77,0,0,1,3.27.42Z"/><path class="cls-3" d="M479.63,332.71c0,6.38,3.27,9.17,8.17,9.17a15.92,15.92,0,0,0,8-2.58l1,2.85a18.48,18.48,0,0,1-9.44,2.85c-7.06,0-11.76-4.7-11.76-13.61,0-8.18,4-13.29,11.08-13.29C494,318.1,497,324,497,330.44v2.27Zm6.91-11.55c-4.91,0-6.91,4.32-6.91,8.75h13.5C493.13,325.43,491.6,321.16,486.54,321.16Z"/><path class="cls-3" d="M522.25,342.73a18.33,18.33,0,0,1-8.59,2.27c-6.54,0-11.29-3.85-11.29-13.45,0-8.76,4.8-13.45,11.29-13.45a16.69,16.69,0,0,1,8.43,2L520.93,323a14,14,0,0,0-7.06-1.69c-4.64,0-7.5,3.7-7.5,10.24,0,7.28,2.86,10.33,7.5,10.33a14.54,14.54,0,0,0,7.43-2.16Z"/><path class="cls-3" d="M543.51,344.47l-.68-3.32a10.2,10.2,0,0,1-8,3.85c-5.27,0-8.33-3.54-8.33-7.91s3.27-7.39,9.12-7.39h6.7v-2.06c0-4.48-2-6.38-5.85-6.38a19.15,19.15,0,0,0-7.81,1.69l-1.05-2.9A22.66,22.66,0,0,1,537,318.1c6.12,0,9.23,3.16,9.23,9.33v17Zm-1.16-12h-6.06c-4.38,0-5.86,1.9-5.86,4.49,0,3.11,1.69,5.17,5.43,5.17a9.09,9.09,0,0,0,6.49-3.22Z"/><path class="cls-3" d="M570.31,344.47l-.58-3a11,11,0,0,1-8,3.48c-5.75,0-8.91-3.43-8.91-10.5V318.63h4v15.61c0,5.32,1.68,7.54,5.85,7.54a10.18,10.18,0,0,0,6.38-2.53V318.63h4.07v25.84Z"/><path class="cls-3" d="M596.79,341.36a9.79,9.79,0,0,1-7.44,3.64c-6.12,0-10.39-4.54-10.39-13.5,0-7.86,3.9-13.4,10.82-13.4a10.88,10.88,0,0,1,6.91,2.21,35.41,35.41,0,0,1-.22-4.22v-8h4v36.39h-3ZM596.47,323a11.07,11.07,0,0,0-6.27-1.84c-4.86,0-7.18,3.8-7.18,10.34,0,6.38,2.06,10.49,6.91,10.49,2.33,0,4.44-1,6.54-3.27Z"/><path class="cls-3" d="M623.43,344.47l-.69-3.32a10.18,10.18,0,0,1-8,3.85c-5.27,0-8.34-3.54-8.34-7.91s3.28-7.39,9.13-7.39h6.7v-2.06c0-4.48-1.95-6.38-5.86-6.38a19.1,19.1,0,0,0-7.8,1.69l-1.06-2.9a22.75,22.75,0,0,1,9.39-1.95c6.12,0,9.23,3.16,9.23,9.33v17Zm-1.16-12H616.2c-4.37,0-5.85,1.9-5.85,4.49,0,3.11,1.69,5.17,5.43,5.17a9.11,9.11,0,0,0,6.49-3.22Z"/><path class="cls-3" d="M646.17,322.11a10.18,10.18,0,0,0-3.33-.48,8.26,8.26,0,0,0-5.8,2.8v20h-4V318.63h2.69l.74,3.27a8.56,8.56,0,0,1,6.7-3.64,11.77,11.77,0,0,1,3.27.42Z"/><path class="cls-3" d="M662.73,337.35V308.08h4v30.75c0,2.21,1,3.11,3.85,3.11h.84v2.74a11.77,11.77,0,0,1-2.53.32C664,345,662.73,342.2,662.73,337.35Z"/><path class="cls-3" d="M697.65,331.5c0,8.7-4.22,13.5-11.13,13.5s-11-4.7-11-13.5c0-7.6,3.58-13.4,11-13.4C693.69,318.1,697.65,323.79,697.65,331.5Zm-4.11,0c0-6.76-2.27-10.4-7-10.4s-7,3.8-7,10.4c0,6.32,1.84,10.49,7,10.49S693.54,338.4,693.54,331.5Z"/><path class="cls-3" d="M706.67,325c0,5.53,12.82,3.58,12.82,12.34,0,4.16-3.22,7.7-9,7.7a15.49,15.49,0,0,1-7.8-2.22l1.16-2.95a12.09,12.09,0,0,0,6.59,2.16c3.17,0,5.12-1.74,5.12-4.43,0-6.22-12.66-3.9-12.66-12.66,0-3.48,2.64-6.8,8.54-6.8a16.78,16.78,0,0,1,7.76,1.69l-1,2.95a14,14,0,0,0-6.75-1.58C708.26,321.16,706.67,322.58,706.67,325Z"/><path class="cls-3" d="M751.56,311a11.44,11.44,0,0,0-3.32-.48c-3.48,0-5,1.95-5,6.07v2.06h6.12v3.06h-6.12v22.78h-4V321.69h-4.16v-3.06h4.16v-2.32c0-5.91,2.85-9.13,8.65-9.13a16.84,16.84,0,0,1,4,.53Z"/><path class="cls-3" d="M775.2,331.5c0,8.7-4.22,13.5-11.13,13.5s-11-4.7-11-13.5c0-7.6,3.58-13.4,11-13.4C771.24,318.1,775.2,323.79,775.2,331.5Zm-4.12,0c0-6.76-2.27-10.4-7-10.4s-7,3.8-7,10.4c0,6.32,1.84,10.49,7,10.49S771.08,338.4,771.08,331.5Z"/><path class="cls-3" d="M797.51,344.47V328.86c0-4.91-1.53-7.6-5.91-7.6-2.68,0-4.74,1.53-6.32,3v20.25h-4V318.63H784l.79,3.06a11.25,11.25,0,0,1,8.12-3.59c6.06,0,8.76,3.64,8.76,10.07v16.3Z"/><path class="cls-3" d="M825.1,341.36a9.79,9.79,0,0,1-7.44,3.64c-6.11,0-10.38-4.54-10.38-13.5,0-7.86,3.9-13.4,10.81-13.4a10.88,10.88,0,0,1,6.91,2.21,35.48,35.48,0,0,1-.21-4.22v-8h4v36.39h-3ZM824.79,323a11.14,11.14,0,0,0-6.28-1.84c-4.85,0-7.17,3.8-7.17,10.34,0,6.38,2,10.49,6.91,10.49,2.32,0,4.43-1,6.54-3.27Z"/><path class="cls-3" d="M857,331.5c0,8.7-4.22,13.5-11.13,13.5s-11-4.7-11-13.5c0-7.6,3.59-13.4,11-13.4C853.06,318.1,857,323.79,857,331.5Zm-4.12,0c0-6.76-2.27-10.4-7-10.4s-7,3.8-7,10.4c0,6.32,1.85,10.49,7,10.49S852.9,338.4,852.9,331.5Z"/><path class="cls-3" d="M866,325c0,5.53,12.81,3.58,12.81,12.34,0,4.16-3.21,7.7-9,7.7a15.53,15.53,0,0,1-7.81-2.22l1.16-2.95a12.09,12.09,0,0,0,6.6,2.16c3.16,0,5.11-1.74,5.11-4.43,0-6.22-12.65-3.9-12.65-12.66,0-3.48,2.63-6.8,8.54-6.8a16.76,16.76,0,0,1,7.75,1.69l-1,2.95a13.91,13.91,0,0,0-6.75-1.58C867.62,321.16,866,322.58,866,325Z"/><path class="cls-3" d="M474.83,389.69V374.07c0-4.9-1.53-7.59-5.91-7.59-2.69,0-4.75,1.53-6.33,2.95v20.26h-4V363.84h2.69l.79,3.06a11.31,11.31,0,0,1,8.13-3.58c6.06,0,8.75,3.63,8.75,10.07v16.3Z"/><path class="cls-3" d="M488.55,377.92c0,6.39,3.27,9.18,8.17,9.18a16.06,16.06,0,0,0,8-2.58l1,2.85a18.61,18.61,0,0,1-9.44,2.84c-7.07,0-11.76-4.69-11.76-13.6,0-8.18,4-13.29,11.07-13.29,7.28,0,10.34,5.85,10.34,12.34v2.26Zm6.9-11.55c-4.9,0-6.9,4.33-6.9,8.76h13.5C502.05,370.65,500.52,366.37,495.45,366.37Z"/><path class="cls-3" d="M531.17,388a18.55,18.55,0,0,1-8.6,2.26c-6.54,0-11.29-3.85-11.29-13.45,0-8.75,4.8-13.44,11.29-13.44a16.73,16.73,0,0,1,8.44,2.05l-1.16,2.85a14,14,0,0,0-7.07-1.69c-4.64,0-7.49,3.69-7.49,10.23,0,7.28,2.85,10.34,7.49,10.34a14.58,14.58,0,0,0,7.44-2.16Z"/><path class="cls-3" d="M539.61,377.92c0,6.39,3.27,9.18,8.17,9.18a16,16,0,0,0,8-2.58l1,2.85a18.58,18.58,0,0,1-9.44,2.84c-7.06,0-11.76-4.69-11.76-13.6,0-8.18,4-13.29,11.08-13.29,7.28,0,10.34,5.85,10.34,12.34v2.26Zm6.91-11.55c-4.91,0-6.91,4.33-6.91,8.76h13.5C553.11,370.65,551.58,366.37,546.52,366.37Z"/><path class="cls-3" d="M566.09,370.17c0,5.54,12.82,3.59,12.82,12.34,0,4.17-3.22,7.7-9,7.7a15.49,15.49,0,0,1-7.8-2.21l1.16-2.95a12.06,12.06,0,0,0,6.59,2.16c3.16,0,5.11-1.74,5.11-4.43,0-6.23-12.65-3.91-12.65-12.66,0-3.48,2.64-6.8,8.54-6.8a16.77,16.77,0,0,1,7.76,1.68l-.95,3a13.87,13.87,0,0,0-6.76-1.59C567.67,366.37,566.09,367.8,566.09,370.17Z"/><path class="cls-3" d="M600.8,389.69l-.68-3.33a10.18,10.18,0,0,1-8,3.85c-5.27,0-8.33-3.53-8.33-7.91s3.27-7.38,9.12-7.38h6.7v-2.06c0-4.48-1.95-6.38-5.85-6.38a19,19,0,0,0-7.81,1.69l-1.05-2.9a22.66,22.66,0,0,1,9.38-1.95c6.12,0,9.23,3.16,9.23,9.33v17Zm-1.16-12h-6.06c-4.38,0-5.86,1.9-5.86,4.48,0,3.12,1.69,5.17,5.43,5.17a9.1,9.1,0,0,0,6.49-3.21Z"/><path class="cls-3" d="M623.54,367.32a10.5,10.5,0,0,0-3.33-.47,8.25,8.25,0,0,0-5.8,2.79v20.05h-4V363.84h2.69l.74,3.27a8.59,8.59,0,0,1,6.7-3.64,11.77,11.77,0,0,1,3.27.42Z"/><path class="cls-3" d="M630.34,389.69V367.06l-2.84-.58v-2.64h6.75v25.85Zm-.36-36h4.27v4.22H630Z"/><path class="cls-3" d="M662.52,376.71c0,8.7-4.22,13.5-11.13,13.5s-11-4.69-11-13.5c0-7.59,3.58-13.39,11-13.39C658.56,363.32,662.52,369,662.52,376.71Zm-4.11,0c0-6.75-2.27-10.39-7-10.39s-7,3.8-7,10.39c0,6.33,1.84,10.5,7,10.5S658.41,383.62,658.41,376.71Z"/><path class="cls-3" d="M671.54,370.17c0,5.54,12.82,3.59,12.82,12.34,0,4.17-3.22,7.7-9,7.7a15.49,15.49,0,0,1-7.8-2.21l1.16-2.95a12.09,12.09,0,0,0,6.59,2.16c3.17,0,5.12-1.74,5.12-4.43,0-6.23-12.66-3.91-12.66-12.66,0-3.48,2.64-6.8,8.54-6.8A16.77,16.77,0,0,1,684.1,365l-1,3a13.86,13.86,0,0,0-6.75-1.59C673.13,366.37,671.54,367.8,671.54,370.17Z"/><path class="cls-3" d="M705,377.92c0,6.39,3.27,9.18,8.18,9.18a16,16,0,0,0,8-2.58l1,2.85a18.62,18.62,0,0,1-9.45,2.84c-7.06,0-11.76-4.69-11.76-13.6,0-8.18,4-13.29,11.08-13.29,7.28,0,10.34,5.85,10.34,12.34v2.26ZM712,366.37c-4.9,0-6.91,4.33-6.91,8.76h13.5C718.54,370.65,717,366.37,712,366.37Z"/><path class="cls-3" d="M731.52,370.17c0,5.54,12.82,3.59,12.82,12.34,0,4.17-3.22,7.7-9,7.7a15.49,15.49,0,0,1-7.8-2.21l1.16-2.95a12.09,12.09,0,0,0,6.59,2.16c3.17,0,5.12-1.74,5.12-4.43,0-6.23-12.66-3.91-12.66-12.66,0-3.48,2.64-6.8,8.54-6.8a16.77,16.77,0,0,1,7.76,1.68l-1,3a13.86,13.86,0,0,0-6.75-1.59C733.11,366.37,731.52,367.8,731.52,370.17Z"/><path class="cls-3" d="M759,390.21c-3.64,0-6.64-1.84-6.64-7.91V366.74H748.4v-2.9h3.91v-4.69l4-1.27v6h7.54v2.9h-7.54v16c0,2.74,1,4.06,3.43,4.06a11.16,11.16,0,0,0,4.11-1.11l.79,2.95A12.59,12.59,0,0,1,759,390.21Z"/><path class="cls-3" d="M771.93,389.69V367.06l-2.85-.58v-2.64h6.76v25.85Zm-.37-36h4.28v4.22h-4.28Z"/><path class="cls-3" d="M803,373.39v16.3h-4.06V374.07c0-4.9-1.43-7.59-5.81-7.59-2.74,0-4.64,1.53-6.22,2.95v20.26h-4V363.84h2.64l.84,3.11a10.9,10.9,0,0,1,7.86-3.63c3.85,0,6.33,1.37,7.6,3.95a11.25,11.25,0,0,1,8.07-3.95c6.33,0,9.12,3.53,9.12,10.07v16.3h-4.06V374.07c0-4.9-1.85-7.59-6.22-7.59a9.25,9.25,0,0,0-6.17,2.95A15.47,15.47,0,0,1,803,373.39Z"/><path class="cls-3" d="M841.25,389.69l-.69-3.33a10.15,10.15,0,0,1-8,3.85c-5.28,0-8.34-3.53-8.34-7.91s3.27-7.38,9.13-7.38h6.69v-2.06c0-4.48-2-6.38-5.85-6.38a19,19,0,0,0-7.81,1.69l-1-2.9a22.75,22.75,0,0,1,9.39-1.95c6.12,0,9.23,3.16,9.23,9.33v17Zm-1.17-12H834c-4.38,0-5.85,1.9-5.85,4.48,0,3.12,1.68,5.17,5.43,5.17a9.06,9.06,0,0,0,6.48-3.21Z"/><path class="cls-3" d="M867.88,386.57a9.72,9.72,0,0,1-7.43,3.64c-6.12,0-10.39-4.53-10.39-13.5,0-7.86,3.9-13.39,10.81-13.39a10.85,10.85,0,0,1,6.91,2.21,35.48,35.48,0,0,1-.21-4.22v-8h4v36.4h-3Zm-.31-18.35a11.11,11.11,0,0,0-6.28-1.85c-4.85,0-7.17,3.8-7.17,10.34,0,6.38,2.06,10.5,6.91,10.5,2.32,0,4.43-1,6.54-3.27Z"/><path class="cls-3" d="M899.8,376.71c0,8.7-4.22,13.5-11.13,13.5s-11-4.69-11-13.5c0-7.59,3.58-13.39,11-13.39C895.84,363.32,899.8,369,899.8,376.71Zm-4.12,0c0-6.75-2.26-10.39-7-10.39s-7,3.8-7,10.39c0,6.33,1.84,10.5,7,10.5S895.68,383.62,895.68,376.71Z"/><path class="cls-3" d="M908.82,370.17c0,5.54,12.82,3.59,12.82,12.34,0,4.17-3.22,7.7-9,7.7a15.49,15.49,0,0,1-7.8-2.21l1.16-2.95a12.06,12.06,0,0,0,6.59,2.16c3.16,0,5.12-1.74,5.12-4.43,0-6.23-12.66-3.91-12.66-12.66,0-3.48,2.63-6.8,8.54-6.8a16.76,16.76,0,0,1,7.75,1.68l-.94,3a13.87,13.87,0,0,0-6.76-1.59C910.4,366.37,908.82,367.8,908.82,370.17Z"/><path class="cls-3" d="M926.76,383.78h4v5.91h-4Z"/><path class="cls-4" d="M498.47,221.27v10.14h13.88l-.66,9.29H498.47v16.75H487.92V212.39H517v8.88Z"/><path class="cls-4" d="M526.51,257.45V232.22l-3.86-.87v-6.61H537v32.71Zm-.19-46.33h10.55v9.21H526.32Z"/><path class="cls-4" d="M565.84,257.45V238.16c0-4.28-1.8-6.08-5.08-6.08a10.91,10.91,0,0,0-4.6,1.14v24.23H545.61V224.74h7.28l1.47,3.67c1.93-2.4,5.54-4.34,10.41-4.34,8.55,0,11.75,5,11.75,13.35v20Z"/><path class="cls-4" d="M605,257.45l-1.34-3.74a11.14,11.14,0,0,1-9.27,4.41c-6.48,0-11.22-4.14-11.22-10.75,0-6.28,4.68-9.81,12.75-9.81H602v-1.2c0-3.48-2.34-4.28-4.94-4.28a23.25,23.25,0,0,0-9.75,2.14l-2.61-7.48A35.08,35.08,0,0,1,598,224.07c10.08,0,14.15,4.41,14.15,13v20.36Zm-3-13.82h-4.21c-2.8,0-4.27,1.34-4.27,3.48,0,2.53,1.4,3.93,3.94,3.93a9.62,9.62,0,0,0,4.54-1.33Z"/><path class="cls-4" d="M640.36,257.45V238.16c0-4.28-1.8-6.08-5.07-6.08a10.92,10.92,0,0,0-4.61,1.14v24.23H620.14V224.74h7.27l1.47,3.67c1.94-2.4,5.54-4.34,10.41-4.34,8.55,0,11.75,5,11.75,13.35v20Z"/><path class="cls-4" d="M683.36,233.82a16.56,16.56,0,0,0-7.8-1.87c-3.88,0-6.41,2.27-6.41,9.08,0,6.54,2.2,9.08,6.47,9.08a19.32,19.32,0,0,0,8.54-2.34l1.87,7.48a26.23,26.23,0,0,1-11.41,2.87c-10.42,0-16.29-5.88-16.29-17.09,0-10.48,5.81-17,16.22-17A22.8,22.8,0,0,1,686,226.74Z"/><path class="cls-4" d="M695.52,257.45V232.22l-3.87-.87v-6.61H706v32.71Zm-.2-46.33h10.55v9.21H695.32Z"/><path class="cls-4" d="M735.11,257.45l-1.33-3.74a11.16,11.16,0,0,1-9.28,4.41c-6.48,0-11.22-4.14-11.22-10.75,0-6.28,4.68-9.81,12.75-9.81h6.08v-1.2c0-3.48-2.34-4.28-4.94-4.28a23.29,23.29,0,0,0-9.75,2.14l-2.6-7.48a35,35,0,0,1,13.35-2.67c10.08,0,14.15,4.41,14.15,13v20.36Zm-3-13.82H727.9c-2.8,0-4.27,1.34-4.27,3.48,0,2.53,1.4,3.93,3.94,3.93a9.65,9.65,0,0,0,4.54-1.33Z"/><path class="cls-4" d="M781,237.42v20H770.31V238.16c0-4.28-1.81-6.08-5.08-6.08a10,10,0,0,0-4.4,1.14v24.23H750.28V224.74h7.07l1.67,3.67a11.91,11.91,0,0,1,9.62-4.34c5.54,0,8.74,1.53,10.48,4.34a12.22,12.22,0,0,1,9.68-4.34c10.08,0,12.35,5,12.35,13.35v20H790.47V238.16c0-4.28-2-6.08-5.28-6.08a10.31,10.31,0,0,0-4.47,1.14A27.8,27.8,0,0,1,781,237.42Z"/><path class="cls-4" d="M812,257.45V232.22l-3.87-.87v-6.61h14.36v32.71Zm-.2-46.33h10.55v9.21H811.77Z"/><path class="cls-4" d="M840.42,243.9c0,3.74,2.4,6.21,7.47,6.21a24,24,0,0,0,9.22-2.41l1.87,7.35a28.73,28.73,0,0,1-12.69,3.07c-10.48,0-16.55-6.47-16.55-17.09,0-9.88,4.73-17,15.82-17,10.22,0,14.28,7.28,14.28,15.49v4.34Zm4.8-12.15c-3.47,0-4.8,3.14-4.8,6.14h9.41C849.83,234.42,848.83,231.75,845.22,231.75Z"/><path class="cls-4" d="M887.36,257.45V238.16c0-4.28-1.81-6.08-5.08-6.08a10.91,10.91,0,0,0-4.6,1.14v24.23H867.13V224.74h7.28l1.46,3.67c1.94-2.4,5.55-4.34,10.42-4.34,8.54,0,11.75,5,11.75,13.35v20Z"/><path class="cls-4" d="M928.29,255.78a20.06,20.06,0,0,1-9.28,2.34c-6.14,0-10.68-3.94-10.68-11.75V232.22h-4.68v-7.48h4.88v-5.61l10.28-3.34v9h8.34v7.48h-8.34V246c0,1.93.93,3.06,3,3.06a11.55,11.55,0,0,0,4.94-1.13Z"/><path class="cls-4" d="M965.28,241c0,11.21-5.74,17.09-16,17.09s-16-5.88-16-17.09c0-9.62,5.75-17,16-17S965.28,231.41,965.28,241Zm-10.88,0c0-7.61-2.07-9.35-5.15-9.35s-5.14,1.74-5.14,9.35c0,7.34,1.94,9.34,5.14,9.34S954.4,248.37,954.4,241Z"/><path class="cls-4" d="M971.9,224.74h10.68v10.41H971.9Zm0,22.3h10.68v10.41H971.9Z"/><path class="cls-5" d="M400.84,314.22a126.36,126.36,0,0,0-6.27-47.42c-8.43-25.1-21.69-35.44-21.69-35.44l59.55-29.82A221.4,221.4,0,0,0,33.94,187.42L115.36,244s-18,8.59-34.06,44.42C71.7,309.94,69.71,347.54,70,352.69L10,317.11c12.53,105.07,99.2,189,208.46,194.6C340.54,518,444.58,424.05,450.83,302c.05-1,.08-2,.12-3Z"/><path class="cls-6" d="M379.37,232.12c6.2,6.88,12.74,14.66,16.53,23.43,6.11,15.19,17.35,31.41,15,47.8-9.18,7.25-26.15,13.58-37.66,18.36-14.33,6.21-30,9.18-43.63,16.79-10.38,6.24-18.18,16.72-27.42,24.4-8.27,6.92-17.47,10.66-27.17,14.78-21.64,8.85-45,21-68.5,12.11-14.72-5.24-30-9.66-44.51-16.63-10.35-5.17-27.47-12.43-34.24-22l1-.76c11.83-14.83,21.49-29.91,35-44.11a265.31,265.31,0,0,1,55.42-42.58c10.38-6.24,20.53-6.79,32-3.69,16.56,4.58,34.15,8.62,50.8,4.22A221.83,221.83,0,0,0,338,251.82c12.34-5.26,29.71-14,41.34-19.7"/><path class="cls-7" d="M379.37,232.12a125.84,125.84,0,0,1,10.84,13.8c3.49,4.86,5.72,10.53,8.21,16.19,5,11.18,11.58,22.71,12.09,35.81l-.25,4.76c.05.32-.16.43-.39.57l-1,.7-2,1.41q-4.23,2.61-8.77,4.82c-6.06,2.95-12.41,5.53-18.85,8.13s-13,5.14-19.71,7.45-13.63,4.48-20.5,7.11l-10.1,4.73c-3,2.28-6.33,4.24-9,6.84-5.7,5-10.72,10.64-16.4,15.54l-2.08,1.91-2.27,1.64c-1.53,1.07-3,2.27-4.6,3.25a102.8,102.8,0,0,1-10.1,5.29c-7,3.23-14.28,6.1-21.53,9.17a169.37,169.37,0,0,1-22.29,7.87c-7.63,1.94-15.6,3-23.44,1.83a52.76,52.76,0,0,1-5.81-1.14l-5.71-1.88-11.69-4c-7.8-2.67-15.64-5.36-23.27-8.59-8-3.37-16-7.28-23.36-11.14s-14.17-8.29-18.37-13.86c-.11.71-.21,1.42-.29,2l.53-.42a5.2,5.2,0,0,0,.71-.63l.86-1.12L132.4,348l3.28-4.27q3.23-4.29,6.43-8.54c4.18-5.74,8.53-11.22,12.79-16.71l6.79-7.8c1.16-1.27,2.23-2.62,3.43-3.83l3.72-3.52,7.4-7c2.49-2.29,5.18-4.34,7.73-6.5s5.11-4.33,7.77-6.33l8-5.81c5.22-4,10.9-7.28,16.34-10.75s11-6.39,17.18-7.26a43.26,43.26,0,0,1,18.23,1.47c12,3.22,24.08,6,36.12,5.7a67.34,67.34,0,0,0,8.89-.78,71.9,71.9,0,0,0,8.57-2.07c5.52-1.75,11.09-3.12,16.37-5.13l15.5-6.18c5-2.23,9.81-4.71,14.61-7l27.78-13.56-28,13c-4.83,2.21-9.67,4.62-14.7,6.75l-15.53,5.93c-5.29,1.91-10.86,3.21-16.37,4.88a75.58,75.58,0,0,1-8.43,1.91,67.87,67.87,0,0,1-8.7.66c-11.78.11-23.65-2.71-35.57-6A45.2,45.2,0,0,0,233,257.54c-6.52.84-12.69,3.87-18.07,7.41s-11.26,6.69-16.56,10.71l-8.16,5.82c-2.69,2-5.24,4.21-7.88,6.33s-5.31,4.23-7.84,6.53l-7.53,7-3.79,3.55c-1.22,1.22-2.32,2.58-3.49,3.87l-6.93,7.89c-4.33,5.51-8.75,11-12.94,16.76l-6.44,8.5-3.26,4.24-1.64,2.13-.78,1-.84.67-1.13.9.83,1.1c4.8,6.34,11.94,10.73,19.37,14.8s15.35,7.79,23.61,11.27c7.76,3.28,15.65,6,23.47,8.65l11.64,4,6,2a54.92,54.92,0,0,0,6.19,1.19c8.33,1.18,16.69.07,24.56-2A173.82,173.82,0,0,0,264,383.82c7.26-3.12,14.51-6,21.6-9.33a105.7,105.7,0,0,0,10.35-5.5c1.66-1,3.18-2.28,4.77-3.41l2.35-1.73,2.12-2c11.36-10.29,20.53-22.47,34.69-27,6.73-2.65,13.53-5,20.31-7.26s13.36-5,19.73-7.7,12.77-5.35,18.86-8.4c3.05-1.54,6-3.21,8.85-5l2.06-1.48,1-.74.71-.51c.28-.14.1-.53.17-.78l.21-5.14c-.75-13.55-7.56-25-12.74-36-1.37-2.78-2.38-5.66-3.9-8.33l-2.13-4c-.75-1.3-1.68-2.5-2.5-3.75a127.3,127.3,0,0,0-11.12-13.61"/><path class="cls-6" d="M248.48,375.87c5.6,4.61,12.76,10.71,20.07,12,9.46,1.55,23.83-5.09,23.75-15.62a205.55,205.55,0,0,1-75-82l.43,0c6.48.77,17.56-.13,22.81-3.89,14.84-10.54-14.19-13.51-20.57-15.14-14.12-3-25-7.32-39.5-3.33-12.24,3.39-23.59,10.38-37,9.24-5.19-.61-25.79-11.8-25.36-11.75l-.43-.05c-11.07.89-18.48,15.36-22.14,24.14-4.19,9.59-10.57,37.77-1.49,46.29l-.82-.53c17.23,13.86,38,27.26,57.27,38.74,16,9.33,33.24,19.25,49.73,28.2,7,3.46,20.44,9.7,26.8,3.15,18,4.65,21.05-6.65,21.05-6.65-11.28-6.59-21.18-18.35-21.18-18.35,6.45,6.8,13.07,13.39,20.14,17.73s19-.41,20.59-9.86"/><path class="cls-7" d="M248.48,375.87c4.62,3.86,9.34,8,15.12,10.62,5.78,2.92,12.88,2.1,18.82-.66a21.27,21.27,0,0,0,7.85-6.18,13.56,13.56,0,0,0,2.18-4.68,13.36,13.36,0,0,0,.35-2.82,14.42,14.42,0,0,0-2.23-1.68l-8.44-5.78c-2.81-2-5.45-4.23-8.23-6.35A200.65,200.65,0,0,1,243.21,328c-2.49-2.76-4.58-5.87-6.84-8.88a105.52,105.52,0,0,1-6.45-9.36c-2-3.27-4.26-6.38-6-9.82l-2.77-5.13-1.39-2.58c-.17-.33-.26-.47-.34-.67l.76.07.19,0H221l1.23,0c1.64.05,3.28-.07,4.92-.17a40.1,40.1,0,0,0,9.81-2,19,19,0,0,0,4.68-2.35,12.65,12.65,0,0,0,3.78-3.91,4.7,4.7,0,0,0,.53-3.25,5.09,5.09,0,0,0-1.67-2.72,15.35,15.35,0,0,0-4.7-2.73c-6.44-2.51-13.27-3.3-19.76-4.77s-13.19-3.37-20.21-4.34a48.57,48.57,0,0,0-21.26,1.62c-6.85,2.07-13.33,5-20.05,6.89-1.68.49-3.38.78-5.08,1.19-1.71.22-3.42.45-5.15.57-1.64-.08-3.58.05-5-.18a33.68,33.68,0,0,1-4.84-1.73c-3.27-1.39-6.52-3-9.75-4.6l-4.84-2.49-2.39-1.28L120,264.8l-.58-.32-.27-.16,0,0c0-.09-.07.08-.25.33s-.73,1.1-.63.88c0,0-.11-.05-.14-.1.06-.47.11-.94.17-1.49a5.42,5.42,0,0,0-1.9.13,8.26,8.26,0,0,0-1.48.3,15.58,15.58,0,0,0-2.88,1.07,25,25,0,0,0-8.32,6.84A53.35,53.35,0,0,0,98,280.93a76.26,76.26,0,0,0-7.25,18.81A88.23,88.23,0,0,0,88,318.89a39.1,39.1,0,0,0,.8,9.41,16.5,16.5,0,0,0,4.27,8.53c.63-.8,1.25-1.6,1.76-2.23l-.81-.53-1.68,2.3C107.85,348.63,124,359.19,139.82,369c7.93,4.93,15.92,9.43,23.81,13.82l23.19,13c7.61,4.17,14.83,8.85,23,11.5,4,1.26,8.32,2.35,12.67,1.41a9.77,9.77,0,0,0,3.08-1.2,5.82,5.82,0,0,0,1.35-1c.35-.33.37-.36.61-.3,2,.28,4,.77,6.07.91,4.08.07,8.42-.57,11.66-3.3a11.08,11.08,0,0,0,2.09-2.29,6.8,6.8,0,0,0,.81-1.31,5.45,5.45,0,0,0,.65-1.86l-2.77-2-2.35-1.61c-6.25-4.23-11.55-9.54-16.42-14.79l-.68.6c7.17,7.41,14,14,21.75,18.33,8.55,3.15,18.12-2.82,19.3-10.78-1.34,7.93-11,13.53-19.12,10.34-7.53-4.32-14.23-11-21.27-18.51l-.68.6c4.85,5.41,10.07,10.82,16.4,15.23l4.27,3.05a2.05,2.05,0,0,1-.29.74,6.88,6.88,0,0,1-.73,1.14,10.07,10.07,0,0,1-1.87,2c-2.89,2.36-6.83,2.92-10.67,2.81-1.95-.16-3.82-.64-5.85-1-.38,0-.86-.31-1.17-.06l-.82.69a4,4,0,0,1-1.13.78,8.08,8.08,0,0,1-2.6,1c-3.75.79-7.84-.22-11.69-1.5-7.81-2.62-15-7.36-22.58-11.61l-23-13.19c-7.83-4.44-15.77-9-23.62-13.94a502.65,502.65,0,0,1-47-32.65l-1.67,2.3.8.53,10.82,7.11L95,334.75c-3.51-3.62-4.23-9.91-4.11-15.81a86.41,86.41,0,0,1,2.67-18.49,73.46,73.46,0,0,1,7-18.09c3.15-5.65,7.06-11.47,12.73-14.23a12.53,12.53,0,0,1,2.36-.89,8,8,0,0,1,1.18-.24c.29-.05,1.08-.14.72-.15A216.57,216.57,0,0,0,137,276.58a36.94,36.94,0,0,0,5.35,1.88,44.29,44.29,0,0,0,5.77.24c1.86-.13,3.71-.38,5.54-.62,1.78-.43,3.61-.75,5.35-1.27,7-2,13.49-4.95,20.09-6.95a45.83,45.83,0,0,1,20.06-1.61c6.69.89,13.32,2.82,20,4.2s13.4,2.23,19.42,4.54c2.9,1.1,6,3,4.57,5.1a10.35,10.35,0,0,1-3,3.09,16.8,16.8,0,0,1-4,2.05,37.83,37.83,0,0,1-9.19,1.9c-1.56.12-3.13.24-4.7.21h-1.76l-1-.1-4.13-.41Q218.66,295,222,301c1.81,3.47,4.15,6.6,6.17,9.88a109.76,109.76,0,0,0,6.61,9.39c2.32,3,4.46,6.13,7,8.89a199.84,199.84,0,0,0,31.31,30.19c2.82,2.1,5.51,4.32,8.37,6.27l8.56,5.68a14.11,14.11,0,0,1,1.77,1.25,10.25,10.25,0,0,1-.26,2.18,12.38,12.38,0,0,1-1.95,4.39,20.69,20.69,0,0,1-7.46,6.05c-5.76,2.78-12.64,3.71-18.37,1-5.75-2.51-10.56-6.52-15.26-10.29"/><path class="cls-7" d="M247.29,400.45a15.61,15.61,0,0,1-10.66,4.75c-4.31.14-8.94-1.49-13.41-3.87C214.09,396.6,208,389.12,201.8,385c2.39,2.78,4.94,6,8.08,9.5A44.17,44.17,0,0,0,221.8,404c4.77,2.55,10.1,4.13,15,3.41a14.42,14.42,0,0,0,10.46-6.93"/><path class="cls-7" d="M267.57,388.27c-1.6,3.64-4.44,7.84-9,9s-10.14-.25-14.55-3.13c-8.88-7.16-16.57-14.77-23.22-19.41,5.45,6,12,14.23,21.46,21.84,5.33,3.46,11.62,4.75,17,2.78a12,12,0,0,0,5.95-4.94,21.34,21.34,0,0,0,1.55-3.1l.84-3.07"/><path class="cls-7" d="M292.3,372.26c-1.41,3.39-3.31,7.16-6.89,9.75a21.57,21.57,0,0,1-6.05,3.09,28.15,28.15,0,0,1-7.07,1.53c-4.79.07-9.4-2.11-13.36-4.23s-7.45-4.61-10.49-6.67a55.57,55.57,0,0,0,9.33,8.52c3.86,2.63,8.65,5.41,14.6,5.38a25.4,25.4,0,0,0,8-1.92,20.66,20.66,0,0,0,6.48-4c3.72-3.38,5-7.87,5.49-11.43"/><path class="cls-6" d="M361.06,240.85c-36,15.6-53.78,30.14-90.61,22.75-20.65-4.15-36.48-10.43-54.64,2.34-14.3,9.72-26.55,17-42.17,23.1-12.82,4.63-25.74,10.12-9.67,22.53,21.83,15.72,63-6.61,80.44-20.35"/><path class="cls-7" d="M361.06,240.85c-4.92,2.13-10.08,4.27-15.35,6.64s-10.69,4.85-16.32,7.27c-11.25,4.8-23.65,9.15-37.13,9.51-3.35-.12-6.76.15-10.17-.27l-10.31-1.5c-6.95-1.28-13.92-3.23-21.28-4.47s-15.24-1.65-22.87.55l-5.59,2c-1.73.95-3.42,2-5.14,3-3.46,2-6.5,4.19-9.8,6.3a215.27,215.27,0,0,1-19.87,11.46c-6.76,3.42-13.52,6.11-20.51,8.88-3.42,1.5-6.93,3.13-9.68,6.21a7.51,7.51,0,0,0-1.7,6.08,11.66,11.66,0,0,0,2.74,5.28,29.38,29.38,0,0,0,18.85,9.83c7,.88,13.79-.13,20.14-1.7A99,99,0,0,0,215,309.43a142.66,142.66,0,0,0,29.4-18.21,149.7,149.7,0,0,1-29.9,17.06,100,100,0,0,1-17.85,5.93c-6.24,1.39-12.87,2.19-19.43,1.24A27.15,27.15,0,0,1,160,306.18a9.3,9.3,0,0,1-2.13-4.11,4.81,4.81,0,0,1,1.19-3.93c2.11-2.35,5.41-4,8.7-5.36,6.73-2.58,13.93-5.38,20.74-8.81a204.84,204.84,0,0,0,20.18-11.58c3.28-2.09,6.54-4.43,9.76-6.29l4.81-2.81,5.16-1.89c7-2,14.44-1.75,21.59-.62s14.22,3,21.26,4.21l10.59,1.37c3.5.38,7,.05,10.46.1,13.88-.64,26.41-5.41,37.54-10.56l31.17-15.05"/><path class="cls-6" d="M236.57,298.19c13.17,14.7,32.46,22.23,52.09,19.28"/><path class="cls-7" d="M236.57,298.19a51.26,51.26,0,0,0,23.09,17.66,49,49,0,0,0,29,1.62,76.34,76.34,0,0,1-27.94-4.42,82.57,82.57,0,0,1-24.15-14.86"/><path class="cls-7" d="M177.7,288c1.31,2.69,3.11,5.63,4.52,9a23.59,23.59,0,0,1,1,2.59l.22.6v.11c0,.09,0,0-.2.13a13.23,13.23,0,0,1-5,2.48,16.94,16.94,0,0,1-10.85-1.28,26.38,26.38,0,0,1-8.09-5.59,19.25,19.25,0,0,0,7.06,7.53A16.63,16.63,0,0,0,179,305.8a14.09,14.09,0,0,0,6-3.24l1-.89c.36-.32.88-.6.46-1.08l-.93-2a20.25,20.25,0,0,0-1.41-2.61,44.59,44.59,0,0,0-6.46-8"/><path class="cls-8" d="M300.63,264.08l.4-1.22a4.35,4.35,0,0,1,.79-.91,3.52,3.52,0,0,1,2.33-.36,12,12,0,0,1,4.91,1.93c3,1.9,5,5.39,6.54,9.17,3.12,7.7,4.34,17.07,6.93,26.88s4.74,18.73,5.94,27.19c.43,4.18.93,8.35.6,12a23.84,23.84,0,0,1-.49,2.63,4.69,4.69,0,0,1-.91,2,1.41,1.41,0,0,1-2,.13,8,8,0,0,1-1.71-1.72,8.32,8.32,0,0,0,1.45,2.42,2.13,2.13,0,0,0,2.77.59,6.05,6.05,0,0,0,2.17-2.55,20.28,20.28,0,0,0,1.18-2.94c1.16-4.1,1.26-8.36,1.33-12.88-.19-9-2-18.59-4.48-28.32-2.55-9.5-4.34-19.15-8.8-27.31-2.24-4-5.18-7.82-9.36-9.49a12.58,12.58,0,0,0-6.05-1,4.68,4.68,0,0,0-2.78,1.17,5.39,5.39,0,0,0-.65,1.29Z"/><polygon class="cls-9" points="132.63 264.92 98.57 349.47 50 318.85 85.45 237.45 132.63 264.92"/><polygon class="cls-10" points="132.63 264.92 98.57 349.47 50 318.85 85.45 237.45 132.63 264.92"/><path class="cls-11" d="M8.72,279.33C2.47,401.41,96.38,505.45,218.45,511.7S444.58,424.05,450.83,302,363.18,75.85,241.1,69.59c-3.86-.2-7.68-.29-11.5-.29-117,0-214.82,91.8-220.88,210"/><path class="cls-12" d="M106.53,322.87A13,13,0,0,1,97.71,325a18.44,18.44,0,0,1-9.42-5c-5.75-5.32-9.47-11.86-10.4-17.51-1,5.76,2,13.87,8.4,19.75,3.2,2.92,7.28,4.91,11.26,4.9a11.61,11.61,0,0,0,9-4.31"/><path class="cls-8" d="M100.47,311.1a5.88,5.88,0,1,1-5.15-6.52,5.86,5.86,0,0,1,5.15,6.52"/><path class="cls-12" d="M316.52,253.6s14.3,24.24,18.19,42.42,5.1,36.26,4.26,42.48,18.53-6.19,18.53-6.19S362.74,314,352,282.2s-20.13-35.85-20.13-35.85Z"/><path class="cls-6" d="M144.1,368.06c-7.73-.39-22.8,3.48-28.26-4.85-4.87-7.69,2.34-21.57,10.49-23.32,9.4-2,10.67,9.53,10.32,16.33s1.39,9.06,7.42,12.46"/><path class="cls-7" d="M144.1,368.07c-6.39-.73-14.19.81-21.65-1.5-3.64-1.15-6.6-4.11-6.73-8.15a18.86,18.86,0,0,1,3.83-11.77c2.51-3.54,6.34-6.13,10-5.45s5.16,5,5.76,8.78a37,37,0,0,1,.46,5.8,18.6,18.6,0,0,0,.66,5.85,8.65,8.65,0,0,0,3.25,4.51,25.1,25.1,0,0,0,4.37,2.54c-2.59-1.77-5.8-3.89-6.42-7.38a18.27,18.27,0,0,1-.1-5.45,35.29,35.29,0,0,0-.05-6.16,19.62,19.62,0,0,0-1.67-6.44,8.34,8.34,0,0,0-5.69-4.78,10.78,10.78,0,0,0-7.5,1.32,18,18,0,0,0-5.51,5.09,20.7,20.7,0,0,0-4.18,13.8,10.89,10.89,0,0,0,2.93,6.62,12.93,12.93,0,0,0,5.93,3.37c8.54,2,15.87-.45,22.29-.6"/><path class="cls-6" d="M163.3,382.5c-7.72-.4-22.79,3.48-28.25-4.86-4.87-7.68,2.34-21.56,10.49-23.32,9.4-2,10.66,9.53,10.32,16.33s1.39,9.06,7.41,12.47"/><path class="cls-7" d="M163.3,382.5c-6.38-.73-14.18.81-21.64-1.49-3.65-1.16-6.6-4.11-6.73-8.15a18.74,18.74,0,0,1,3.83-11.77c2.5-3.53,6.33-6.13,10-5.45s5.16,5,5.75,8.77a35.78,35.78,0,0,1,.46,5.8,18.67,18.67,0,0,0,.67,5.86,8.57,8.57,0,0,0,3.25,4.5,25.75,25.75,0,0,0,4.36,2.55c-2.59-1.77-5.8-3.9-6.41-7.38a18.33,18.33,0,0,1-.11-5.46,34.34,34.34,0,0,0-.05-6.16,19.13,19.13,0,0,0-1.67-6.44,8.34,8.34,0,0,0-5.69-4.78,10.75,10.75,0,0,0-7.49,1.33,17.89,17.89,0,0,0-5.51,5.09,20.71,20.71,0,0,0-4.19,13.8,11,11,0,0,0,2.94,6.62A12.89,12.89,0,0,0,141,383.1c8.55,2,15.88-.45,22.29-.6"/><path class="cls-6" d="M178.15,389.55c-7.73-.4-22.8,3.48-28.26-4.86-4.87-7.68,2.34-21.56,10.49-23.32,9.4-2,10.67,9.53,10.32,16.33s1.39,9.06,7.41,12.47"/><path class="cls-7" d="M178.15,389.55c-6.39-.73-14.19.81-21.65-1.49-3.65-1.16-6.6-4.11-6.73-8.15a18.86,18.86,0,0,1,3.83-11.77c2.5-3.54,6.34-6.13,10-5.45s5.16,5,5.75,8.77a35.78,35.78,0,0,1,.46,5.8,18.67,18.67,0,0,0,.67,5.86,8.52,8.52,0,0,0,3.25,4.5,25.75,25.75,0,0,0,4.36,2.55c-2.58-1.77-5.8-3.9-6.41-7.38a18.67,18.67,0,0,1-.11-5.46,34.32,34.32,0,0,0,0-6.16,19.28,19.28,0,0,0-1.68-6.43,8.31,8.31,0,0,0-5.68-4.79,10.81,10.81,0,0,0-7.5,1.32,18,18,0,0,0-5.51,5.09A20.81,20.81,0,0,0,147,380.17a11,11,0,0,0,2.94,6.62,12.87,12.87,0,0,0,5.93,3.36c8.54,2,15.86-.45,22.29-.6"/><path class="cls-6" d="M190.29,397.15c-6.37-.32-18.79,2.87-23.29-4-4-6.33,1.93-17.77,8.65-19.21,7.74-1.65,8.79,7.85,8.5,13.45s1.17,7,6.14,9.76"/><path class="cls-7" d="M190.29,397.15c-5.24-.67-11.67.5-17.7-1.39-3-.94-5.28-3.25-5.42-6.46a15.18,15.18,0,0,1,3-9.49c2-2.86,5-5,7.93-4.61,2.76.3,4.22,3.7,4.74,6.78a29.13,29.13,0,0,1,.46,4.72,16.86,16.86,0,0,0,.53,4.82,6.41,6.41,0,0,0,2.81,3.66,23.39,23.39,0,0,0,3.66,2c-2.07-1.51-4.88-3.12-5.27-5.94s.5-6,0-9.55a15.5,15.5,0,0,0-1.47-5.34,7.15,7.15,0,0,0-5-3.87,9.35,9.35,0,0,0-6.26,1.31,15.41,15.41,0,0,0-4.54,4.3,17.2,17.2,0,0,0-3.33,11.54,9.35,9.35,0,0,0,2.57,5.52,10.89,10.89,0,0,0,5,2.74c7.1,1.55,13.06-.5,18.33-.71"/><path class="cls-13" d="M144.1,77.45A72.05,72.05,0,1,1,72,5.4,72,72,0,0,1,144.1,77.45"/><path class="cls-13" d="M443.36,72A72,72,0,1,1,371.31,0a72,72,0,0,1,72.05,72"/><path class="cls-9" d="M82.49,80.87c-1.21-1.28-3.1-1.66-4.79-1.83l.15,12.1C82,90.3,84,88.19,83.92,85a5.68,5.68,0,0,0-1.43-4.14M68.81,50.56c-4.35.85-6.1,3.74-6.06,6.43a4.62,4.62,0,0,0,1.42,3.26,7.88,7.88,0,0,0,4.79,2ZM80,106.4l.14,11.21-12.5.16-.14-10.72c-9.73-.18-17.79-2.36-24.42-9l11-11.25c3.62,3.53,9.68,4.74,15.24,4.78l-.16-13.1L65.28,78C59,77.28,54.23,75.16,51,71.92s-4.95-8.07-5-14.13c-.14-11.51,7.5-20.44,20.68-22.29l-.12-9L79,26.32l.11,8.83c8.34.4,14.92,2.9,20.24,8.09l-10.78,11c-3.11-3-8.28-3.77-11.26-3.93l.15,12.4,4.07.55c6.36.81,11,2.74,14,5.68,3.82,3.62,5.38,8.87,5.45,15.42.16,12.41-9,20-21,22"/><path class="cls-14" d="M361,117.82l-3.07.71a3,3,0,0,1-.73.08,3.25,3.25,0,0,1-.74-6.42l28.24-6.59a3.25,3.25,0,1,1,1.47,6.34Zm-3.8-5.76a3.26,3.26,0,0,1-.74-6.43L384.71,99a3.26,3.26,0,0,1,1.48,6.35L357.94,112A3,3,0,0,1,357.21,112.06Zm0-6.61a3.26,3.26,0,0,1-.74-6.44l28.24-6.59a3.26,3.26,0,0,1,1.48,6.34l-28.25,6.6A3,3,0,0,1,357.21,105.45Zm45.9-54.34A31.79,31.79,0,1,0,344.3,67.84s2.24,3.27,3.56,4.71c2.88,3.92,6.71,9.4,8.25,12.82,2.6,5.82,2.23,13.51,2.23,13.51l26.33-6.57s-1-1.12,1.56-6.94c1.4-3.08,4.62-7.8,7.36-11.58A31.67,31.67,0,0,0,403.11,51.11Zm-20.66,62.53A11.13,11.13,0,0,1,361.06,118"/><path class="cls-8" d="M81.3,288.46c16-35.83,34.06-44.42,34.06-44.42L33.94,187.42A220.56,220.56,0,0,0,8.72,279.33,223.48,223.48,0,0,0,10,317.11l60,35.58C69.71,347.54,71.7,309.94,81.3,288.46Z"/><path class="cls-15" d="M394.57,266.8a126.36,126.36,0,0,1,6.27,47.42L451,299a220.41,220.41,0,0,0-18.52-97.45l-59.55,29.82S386.14,241.7,394.57,266.8Z"/></svg>