<svg id="Capa_1" data-name="Capa 1" xmlns="http://www.w3.org/2000/svg" viewBox="0 0 1024 512"><defs><style>.cls-1{fill:#34859f;}.cls-2{fill:#3b2112;}.cls-3{fill:#4eaab0;}.cls-4{fill:#e29720;}.cls-5{fill:#e26d21;}.cls-6{fill:#f4cd2c;}.cls-7{fill:#34bacc;}.cls-8{fill:#a0b61d;}.cls-9{fill:#e84a1e;}.cls-10{fill:#34768e;}.cls-11{fill:#e7334a;}.cls-11,.cls-12,.cls-13,.cls-14{stroke:#fff;stroke-miterlimit:10;}.cls-12{fill:#55b682;}.cls-13,.cls-14{fill:#615185;}.cls-13{stroke-width:0.5px;}</style></defs><path class="cls-1" d="M253.74,155.75S283,165,293.8,130.11l5.21,4s-2,38.45-42.46,36c-.4,0,0,1.6,0,1.6a43.45,43.45,0,0,1-2.81-16"/><path class="cls-2" d="M261.22,208.09s19.23,74.24,23,88.66c0,0,8.54,1.6,9.08,3.21s-15,2.13-16.56,1.07-29.91-64.1-37.39-90.27Z"/><path class="cls-2" d="M223.31,208.09s-19.22,74.24-23,88.66c0,0-8.55,1.6-9.08,3.21s14.95,2.13,16.55,1.07,29.91-64.1,37.39-90.27Z"/><path class="cls-3" d="M227.57,155.22s-8.54,42.19-6.94,55.54c0,0,29.38,5.88,44.86-1.06,0,0-2.67-37.93-9.61-53.41,0,0-4.81-5.88-28.31-1.07"/><path class="cls-4" d="M237.32,147.34l-.8,7.21s12.82,6.09,12.82.4c0-1.2-2-8.81-2-8.81Z"/><path class="cls-4" d="M253.32,137.27c0,8.08.85,14.63-7.23,14.63a14.63,14.63,0,0,1-14.63-14.63c0-8.08-4.22-14.62,14.63-14.62,8.08,0,7.23,6.54,7.23,14.62"/><path class="cls-2" d="M237.85,127.86s11.61,6.4,17.22-2c0,0-7.21-10-17.62-5.61s-7.21,8.42-7.21,8.42-4,2-2.81,7.21,6.41,9.21,6.41,9.21,8.81-8,2.4-15.22Z"/><path class="cls-5" d="M251.06,135.67s3.81,4.8,4.21,7.21c.2.6-4,.6-4,.6s-1.6-4.41-.2-7.81"/><path class="cls-6" d="M104.54,501.31c0,3.14-23.4,5.69-52.27,5.69S0,504.45,0,501.31s23.4-5.7,52.27-5.7,52.27,2.55,52.27,5.7"/><path class="cls-6" d="M477.88,501.31c0,3.14-23.4,5.69-52.28,5.69s-52.27-2.55-52.27-5.69,23.4-5.7,52.27-5.7,52.28,2.55,52.28,5.7"/><path class="cls-7" d="M327,442.36c0-6.4-3.88-12-9.78-15.42h50.28V375.32c-3.26,6.65-9.25,11.12-16.12,11.12-10.34,0-18.73-10.11-18.73-22.58s8.39-22.59,18.73-22.59c6.87,0,12.86,4.47,16.12,11.13V300.77H317.16c5.92,3.38,9.81,9,9.81,15.44,0,10.35-10.11,18.73-22.58,18.73s-22.59-8.38-22.59-18.73c0-6.41,3.89-12.06,9.81-15.44H241.3V426.94h50.29c-5.91,3.38-9.79,9-9.79,15.42,0,10.35,10.11,18.73,22.59,18.73S327,452.71,327,442.36"/><path class="cls-8" d="M352.45,270.82c.95-6.33-2.05-12.49-7.39-16.71l49.73,7.47,7.46-49.73c2.47,6.35,7.47,11,13.81,12,10.22,1.54,20-7.22,21.87-19.55s-4.94-23.58-15.17-25.12c-6.33-1-12.49,2-16.7,7.39l7.46-49.73L288.75,118.07l-7.46,49.73c-2.47-6.34-7.47-11-13.8-12-10.23-1.53-20,7.22-21.88,19.56s4.94,23.58,15.17,25.11c6.33.95,12.49-2,16.71-7.38L270,242.84l49.73,7.47c-6.35,2.46-11,7.47-12,13.8-1.54,10.23,7.22,20,19.55,21.88s23.58-4.94,25.12-15.17"/><path class="cls-9" d="M225.88,260.29c-10.34,0-18.73-10.11-18.73-22.58s8.39-22.59,18.73-22.59c6.4,0,12,3.87,15.42,9.77V174.62H190.62c5.93-3.37,9.83-9,9.83-15.45,0-10.34-10.11-18.73-22.58-18.73s-22.59,8.39-22.59,18.73c0,6.42,3.89,12.08,9.82,15.45h-50v51.63c3.26-6.66,9.25-11.13,16.12-11.13,10.34,0,18.73,10.11,18.73,22.59s-8.39,22.58-18.73,22.58c-6.87,0-12.86-4.48-16.12-11.13v51.63H241.3V250.51c-3.38,5.91-9,9.78-15.42,9.78"/><path class="cls-8" d="M200.8,410.82c0,6.87-4.47,12.86-11.13,16.12H241.3V376.65c3.37,5.91,9,9.79,15.42,9.79,10.35,0,18.73-10.11,18.73-22.58s-8.38-22.59-18.73-22.59c-6.4,0-12.05,3.88-15.42,9.79V300.77H191.05c5.89-3.38,9.75-9,9.75-15.4,0-10.35-10.11-18.73-22.59-18.73s-22.58,8.38-22.58,18.73c0,6.39,3.86,12,9.75,15.4H115.13v52.34c-3.17-7.05-9.36-11.84-16.48-11.84-10.34,0-18.72,10.11-18.72,22.59s8.38,22.58,18.72,22.58c7.12,0,13.31-4.79,16.48-11.84v52.34h51.63c-6.66-3.26-11.13-9.25-11.13-16.12,0-10.34,10.11-18.73,22.58-18.73s22.59,8.39,22.59,18.73"/><path class="cls-4" d="M71.87,345.82c0,8.08.85,14.63-7.23,14.63A14.63,14.63,0,0,1,50,345.82c0-8.07-4.22-14.62,14.63-14.62,8.08,0,7.23,6.55,7.23,14.62"/><path class="cls-4" d="M54.79,353.63,49.18,358s7.61,7.21,10.42,6.81c1.6-.4,4.4-6.81,4.4-6.81Z"/><path class="cls-4" d="M110.58,399s2.57,3.18,3.8,1.33.92-15.71,0-15.71-2.46,9.55-4.31,10.47.51,3.91.51,3.91"/><path class="cls-10" d="M54.53,368.59s19.76,29.91,55.54,25.1l-.53,5.88s-35.79,13.88-64.63-17.1c0,0-6.94-6.4-2.14-14.42s11.76.54,11.76.54"/><path class="cls-2" d="M21.14,388.08S-2.09,423.33,22.75,449c0,0-12,36-12,47.26h5.61s22.43-42.45,24-47.26-12-32.05-5.61-46.47Z"/><path class="cls-2" d="M19.27,405.63s3.48,36.53,39.53,43.74c0,0,9.75,31.95,16.7,40.75l4.4-3.48s-6.07-40.4-7.79-45.16-29.3-17.69-33.21-33Z"/><path class="cls-3" d="M50,356S23.84,368.61,9,405.81c0,0,24.15,18.79,38.76,15.87,0,0-1.86-33,13.54-58,0,0-9.48-3-11.31-7.69"/><path class="cls-4" d="M93,383.54s3.74-6.67,4.81-6.41-.27,3.47-.27,3.47,10.41,2.41,10.68,3.48-13.08,2.67-13.08,2.67Z"/><path class="cls-1" d="M39,369.65s13.35,24,21.89,31,34.19-13.88,34.19-13.88L93,382.47l-23,6.41L53.46,363.25s-5.88-6.41-11.75-3.21S39,369.65,39,369.65"/><path class="cls-2" d="M16.34,496.24s3.2,4.8,6.81,5.6c1.6,1.61-10,.8-12.82-1.2-1.6-1.2.4-4.4.4-4.4Z"/><path class="cls-2" d="M79.18,485.78s5.66,1.16,8.79-.8c2.26,0-6.57,7.61-10,8.15-2,.27-2.81-3.41-2.81-3.41Z"/><path class="cls-2" d="M56.39,336.41s11.62,6.41,17.23-2c0,0-7.21-10-17.63-5.61s-7.21,8.41-7.21,8.41-4,2-2.8,7.21,6.41,9.21,6.41,9.21,8.81-8,2.4-15.22Z"/><path class="cls-5" d="M69.61,344.22s3.81,4.81,4.21,7.21c.2.6-4,.6-4,.6s-1.6-4.41-.2-7.81"/><path class="cls-4" d="M357.59,344.33s-4,.6-3.7-1.6,10-12.17,10.65-11.54-4.66,8.69-3.93,10.62-3,2.52-3,2.52"/><path class="cls-10" d="M420.06,360.64s-34.93,8.06-57.56-20.08l-3.66,4.63s16.37,34.72,58.62,32.14c0,0,9.45.14,11.48-9s-8.88-7.71-8.88-7.71"/><path class="cls-2" d="M411.57,410s3.21,36.32,10.15,51.81,12.28,32,12.28,32l-5.88,4.27s10.15.54,13.36-1.6c1.6-3.2-4.27-55-3.74-65.69s-.53-25.64-.53-25.64-16.56-3.74-25.64,4.81"/><path class="cls-2" d="M375.17,491.63c2.56,1,6.26-.08,7.63-.55-.16-5.22-1.15-37.6-.43-41.86.77-4.65,23.81-21.09,24.82-35.72l17.45-5.91s2.95,34-28.79,46.6c0,0-3.44,29.94-8.21,39.62h0s-.13,3.51-2,3.6c-3.2.07-12.54-5.39-10.48-5.78"/><path class="cls-4" d="M411.4,339.21c0,8.08-.85,14.63,7.23,14.63a14.64,14.64,0,0,0,14.63-14.63c0-8.08,4.22-14.63-14.63-14.63-8.08,0-7.23,6.55-7.23,14.63"/><path class="cls-2" d="M426.87,329.79s-11.61,6.41-17.22-2c0,0,7.21-10,17.62-5.61s7.21,8.41,7.21,8.41,4,2,2.81,7.21-6.41,9.22-6.41,9.22-8.82-8-2.41-15.22Z"/><path class="cls-5" d="M413.65,337.61s-3.8,4.8-4.2,7.2c-.2.61,4,.61,4,.61s1.6-4.41.2-7.81"/><path class="cls-4" d="M416.64,352.83l-.8,5.07s7.48.27,9.61-2.67l-.26-5.87Z"/><path class="cls-3" d="M415.31,356.57s-8.55,44.86-10.15,59.29c0,0,20.83,10.14,33.65-3.75,0,0,1.87-41.65-13.09-58.75,0,0-7.48,3.47-10.41,3.21"/><path class="cls-4" d="M374,383.84s-3.63-6.74-4.7-6.48.21,3.47.21,3.47-10.45,2.25-10.73,3.31,13,2.87,13,2.87Z"/><path class="cls-1" d="M428.11,370.78s-13.71,23.82-22.36,30.64-34-14.41-34-14.41l2.2-4.24,22.87,6.76,16.94-25.38s6-6.32,11.8-3,2.52,9.66,2.52,9.66"/><path class="cls-4" d="M278.64,176.9s.23-3.76.92-4.51,2.93-3.93,3.12-2.85a5.94,5.94,0,0,1-.66,2.79s5.29-3.24,6.57-2.34-2.92,7.59-4.06,9a7.19,7.19,0,0,1-3.46,1.91Z"/><path class="cls-1" d="M225.18,163.75s13.35,24,21.89,31,34.19-13.89,34.19-13.89l-2.14-4.27-23,6.41L239.6,157.34s-5.88-6.41-11.75-3.21-2.67,9.62-2.67,9.62"/><path class="cls-11" d="M561.08,106.37H536.32L576,31.56h-41.3V13.37h63.87V31.56Z"/><path class="cls-12" d="M459.64,176v-1.47h15.1v2.32c0,16.26-13.52,16.57-13.52,27.13,0,3.91,2.75,7,8,7a35.79,35.79,0,0,0,12.56-2.64l4.12,13a47.71,47.71,0,0,1-19.85,4c-13.09,0-22.59-7.07-22.59-18.89C443.49,190.29,459.64,186.27,459.64,176Zm15.73-7.39H459V152.49h16.36Z"/><path class="cls-12" d="M523.29,205.28c-20.27,0-31.56-12.67-31.56-37.06,0-21.74,10.34-36.31,31.56-36.31,10.14,0,19.21,2.11,25.34,6.12l-6.23,13.41c-3.48-2.64-9.61-4.75-17.1-4.75-10.56,0-15.94,6.65-15.94,21.43,0,15.52,5.28,22.27,15.73,22.27,6.54,0,13.51-2.95,18.36-6.44l5.28,13.62A43.86,43.86,0,0,1,523.29,205.28Z"/><path class="cls-12" d="M615.13,177c0,14.88-8.45,28.29-28.19,28.29S558.75,192.4,558.75,177V133h16.68v43.17c0,9,4.12,15,11.51,15s11.3-6.12,11.3-15V133h16.89Z"/><path class="cls-12" d="M665,189.23H642.67l-3.16,15H622.83L642.36,133h26l19.53,71.25H668.33ZM641.3,129.06l-1.37-9.5,30.93-4.23-.21,12.25Zm4.33,46.87H662l-6-28.29h-3.69Z"/><path class="cls-12" d="M694.92,204.22V133H711.6v57.21H741v14Z"/><path class="cls-12" d="M748.86,204.22V133h46v14H765.54v14h22l-1.06,14.68h-20.9v14.57h29.35v13.93Z"/><path class="cls-12" d="M847.45,150.07a35.55,35.55,0,0,0-16.36-3.7c-6.44,0-9.08,2.43-9.08,5.6,0,10.87,32.2,6.33,32.2,30.72,0,11.61-10,22.59-26.92,22.59a39.78,39.78,0,0,1-24-7.81l6.22-12.67a30.27,30.27,0,0,0,17.84,6.44c5.81,0,9.4-3.17,9.4-7.39,0-13.2-32-5.81-32-31.67,0-11.19,8.87-20.27,26.5-20.27a47.72,47.72,0,0,1,21.75,4.75Z"/><path class="cls-12" d="M886.82,180.68v1.48H871.73v-2.32c0-16.26,13.51-16.58,13.51-27.13,0-3.91-2.75-7-8-7a35.57,35.57,0,0,0-12.57,2.64l-4.11-13a47.78,47.78,0,0,1,19.84-4c13.09,0,22.59,7.07,22.59,18.9C903,166.43,886.82,170.44,886.82,180.68Zm-15.73,7.39h16.37v16.15H871.09Z"/><path class="cls-13" d="M461.5,319.08a9.14,9.14,0,0,1-6.95,3.4c-5.72,0-9.71-4.24-9.71-12.62,0-7.35,3.65-12.52,10.11-12.52a10.13,10.13,0,0,1,6.46,2.07,33.24,33.24,0,0,1-.2-4V288H465v34h-2.82Zm-.29-17.16a10.37,10.37,0,0,0-5.87-1.72c-4.53,0-6.7,3.54-6.7,9.66,0,6,1.92,9.81,6.46,9.81,2.17,0,4.14-.94,6.11-3.06Z"/><path class="cls-13" d="M474.42,311c0,6,3.06,8.58,7.65,8.58a14.92,14.92,0,0,0,7.49-2.42l.94,2.67a17.38,17.38,0,0,1-8.83,2.66c-6.61,0-11-4.39-11-12.72,0-7.64,3.74-12.42,10.35-12.42,6.8,0,9.66,5.47,9.66,11.53V311Zm6.46-10.79c-4.58,0-6.46,4-6.46,8.18H487C487,304.19,485.62,300.2,480.88,300.2Z"/><path class="cls-13" d="M504.55,322.48c-3.4,0-6.21-1.73-6.21-7.4V300.54h-3.65v-2.71h3.65v-4.39l3.74-1.18v5.57h7.05v2.71h-7.05v15c0,2.56.94,3.79,3.21,3.79a10.45,10.45,0,0,0,3.84-1l.75,2.76A11.86,11.86,0,0,1,504.55,322.48Z"/><path class="cls-13" d="M529.7,322l-.65-3.11a9.52,9.52,0,0,1-7.44,3.6c-4.93,0-7.79-3.3-7.79-7.4s3.06-6.9,8.53-6.9h6.26v-1.92c0-4.19-1.82-6-5.47-6a17.82,17.82,0,0,0-7.3,1.58l-1-2.71a21.24,21.24,0,0,1,8.77-1.82c5.72,0,8.63,3,8.63,8.72V322Zm-1.09-11.24h-5.67c-4.09,0-5.47,1.77-5.47,4.19,0,2.9,1.58,4.83,5.08,4.83a8.5,8.5,0,0,0,6.06-3Z"/><path class="cls-13" d="M538.87,315.33V288h3.69v28.74c0,2.07.94,2.91,3.6,2.91H547v2.56a11,11,0,0,1-2.36.3C540,322.48,538.87,319.87,538.87,315.33Z"/><path class="cls-13" d="M551.83,315.33V288h3.7v28.74c0,2.07.94,2.91,3.6,2.91h.79v2.56a11,11,0,0,1-2.37.3C553,322.48,551.83,319.87,551.83,315.33Z"/><path class="cls-13" d="M567.56,311c0,6,3.06,8.58,7.64,8.58a14.93,14.93,0,0,0,7.5-2.42l.93,2.67a17.31,17.31,0,0,1-8.82,2.66c-6.61,0-11-4.39-11-12.72,0-7.64,3.74-12.42,10.35-12.42,6.8,0,9.66,5.47,9.66,11.53V311ZM574,300.2c-4.58,0-6.46,4-6.46,8.18h12.62C580.18,304.19,578.75,300.2,574,300.2Z"/><path class="cls-13" d="M616.32,319.08a9.14,9.14,0,0,1-7,3.4c-5.71,0-9.71-4.24-9.71-12.62,0-7.35,3.65-12.52,10.11-12.52a10.13,10.13,0,0,1,6.46,2.07,33.24,33.24,0,0,1-.2-4V288h3.75v34H617ZM616,301.92a10.32,10.32,0,0,0-5.87-1.72c-4.53,0-6.7,3.54-6.7,9.66,0,6,1.92,9.81,6.46,9.81,2.17,0,4.14-.94,6.11-3.06Z"/><path class="cls-13" d="M629.25,311c0,6,3,8.58,7.64,8.58a14.92,14.92,0,0,0,7.49-2.42l.94,2.67a17.38,17.38,0,0,1-8.83,2.66c-6.61,0-11-4.39-11-12.72,0-7.64,3.75-12.42,10.35-12.42,6.8,0,9.66,5.47,9.66,11.53V311Zm6.45-10.79c-4.58,0-6.45,4-6.45,8.18h12.62C641.87,304.19,640.44,300.2,635.7,300.2Z"/><path class="cls-13" d="M662.28,315.33V288H666v28.74c0,2.07.94,2.91,3.6,2.91h.79v2.56a11.14,11.14,0,0,1-2.37.3C663.42,322.48,662.28,319.87,662.28,315.33Z"/><path class="cls-13" d="M690,322l-.64-3.11a9.53,9.53,0,0,1-7.45,3.6c-4.93,0-7.78-3.3-7.78-7.4s3-6.9,8.52-6.9h6.27v-1.92c0-4.19-1.83-6-5.48-6a17.77,17.77,0,0,0-7.29,1.58l-1-2.71a21.25,21.25,0,0,1,8.78-1.82c5.71,0,8.62,3,8.62,8.72V322Zm-1.08-11.24h-5.67c-4.1,0-5.48,1.77-5.48,4.19,0,2.9,1.58,4.83,5.08,4.83a8.5,8.5,0,0,0,6.07-3Z"/><path class="cls-13" d="M701.73,303.74c0,5.18,12,3.36,12,11.54,0,3.9-3,7.2-8.39,7.2a14.6,14.6,0,0,1-7.29-2.07l1.08-2.76a11.28,11.28,0,0,0,6.17,2c3,0,4.78-1.63,4.78-4.14,0-5.82-11.84-3.65-11.84-11.83,0-3.26,2.47-6.36,8-6.36a15.71,15.71,0,0,1,7.25,1.57l-.89,2.76a13,13,0,0,0-6.31-1.47C703.2,300.2,701.73,301.53,701.73,303.74Z"/><path class="cls-13" d="M738.21,322.48c-3.4,0-6.21-1.73-6.21-7.4V300.54h-3.65v-2.71H732v-4.39l3.75-1.18v5.57h7v2.71h-7v15c0,2.56.93,3.79,3.2,3.79a10.56,10.56,0,0,0,3.85-1l.74,2.76A11.83,11.83,0,0,1,738.21,322.48Z"/><path class="cls-13" d="M763.36,322l-.64-3.11a9.55,9.55,0,0,1-7.45,3.6c-4.93,0-7.79-3.3-7.79-7.4s3.06-6.9,8.53-6.9h6.26v-1.92c0-4.19-1.82-6-5.47-6a17.82,17.82,0,0,0-7.3,1.58l-1-2.71a21.24,21.24,0,0,1,8.77-1.82c5.72,0,8.63,3,8.63,8.72V322Zm-1.09-11.24H756.6c-4.09,0-5.47,1.77-5.47,4.19,0,2.9,1.58,4.83,5.08,4.83a8.48,8.48,0,0,0,6.06-3Z"/><path class="cls-13" d="M784.61,301.08a9.86,9.86,0,0,0-3.11-.44,7.7,7.7,0,0,0-5.42,2.61V322h-3.75V297.83h2.52l.69,3.06a8,8,0,0,1,6.26-3.4,11,11,0,0,1,3.06.39Z"/><path class="cls-13" d="M792,311c0,6,3,8.58,7.64,8.58a14.92,14.92,0,0,0,7.49-2.42l.94,2.67a17.35,17.35,0,0,1-8.83,2.66c-6.6,0-11-4.39-11-12.72,0-7.64,3.75-12.42,10.35-12.42,6.81,0,9.67,5.47,9.67,11.53V311Zm6.45-10.79c-4.58,0-6.45,4-6.45,8.18h12.62C804.63,304.19,803.2,300.2,798.46,300.2Z"/><path class="cls-13" d="M828.94,322l-.64-3.11a9.56,9.56,0,0,1-7.45,3.6c-4.93,0-7.79-3.3-7.79-7.4s3.06-6.9,8.53-6.9h6.26v-1.92c0-4.19-1.82-6-5.47-6a17.82,17.82,0,0,0-7.3,1.58l-1-2.71a21.24,21.24,0,0,1,8.77-1.82c5.72,0,8.63,3,8.63,8.72V322Zm-1.09-11.24h-5.67c-4.09,0-5.47,1.77-5.47,4.19,0,2.9,1.58,4.83,5.08,4.83a8.5,8.5,0,0,0,6.06-3Z"/><path class="cls-13" d="M840.67,303.74c0,5.18,12,3.36,12,11.54,0,3.9-3,7.2-8.38,7.2a14.53,14.53,0,0,1-7.29-2.07l1.08-2.76a11.25,11.25,0,0,0,6.16,2c3,0,4.79-1.63,4.79-4.14,0-5.82-11.84-3.65-11.84-11.83,0-3.26,2.47-6.36,8-6.36a15.77,15.77,0,0,1,7.25,1.57l-.89,2.76a13,13,0,0,0-6.31-1.47C842.15,300.2,840.67,301.53,840.67,303.74Z"/><path class="cls-13" d="M884.65,331.35v-9.41a20.35,20.35,0,0,1,.35-2.86,9.33,9.33,0,0,1-7,3.4c-5.62,0-9.72-4.29-9.72-12.62,0-7.35,3.66-12.52,10.11-12.52a12.1,12.1,0,0,1,7,2.26l.69-1.77h2.37v33.52Zm0-29.33a9.51,9.51,0,0,0-5.81-1.82c-4.54,0-6.76,3.54-6.76,9.66,0,6,1.92,9.81,6.46,9.81,2.17,0,4.14-.94,6.11-3.06Z"/><path class="cls-13" d="M911,322l-.54-2.77a10.23,10.23,0,0,1-7.49,3.26c-5.38,0-8.33-3.2-8.33-9.81V297.83h3.74v14.59c0,5,1.58,7.05,5.48,7.05a9.54,9.54,0,0,0,6-2.36V297.83h3.79V322Z"/><path class="cls-13" d="M922.77,311c0,6,3.05,8.58,7.64,8.58a14.85,14.85,0,0,0,7.49-2.42l.94,2.67a17.34,17.34,0,0,1-8.82,2.66c-6.61,0-11-4.39-11-12.72,0-7.64,3.75-12.42,10.35-12.42,6.81,0,9.67,5.47,9.67,11.53V311Zm6.46-10.79c-4.59,0-6.46,4-6.46,8.18h12.62C935.39,304.19,934,300.2,929.23,300.2Z"/><path class="cls-13" d="M461.5,361.34a9.14,9.14,0,0,1-6.95,3.4c-5.72,0-9.71-4.24-9.71-12.62,0-7.34,3.65-12.52,10.11-12.52a10.19,10.19,0,0,1,6.46,2.07,33,33,0,0,1-.2-3.94v-7.5H465v34h-2.82Zm-.29-17.15a10.37,10.37,0,0,0-5.87-1.73c-4.53,0-6.7,3.55-6.7,9.66s1.92,9.81,6.46,9.81c2.17,0,4.14-.93,6.11-3.05Z"/><path class="cls-13" d="M474.42,353.26c0,6,3.06,8.58,7.65,8.58a15,15,0,0,0,7.49-2.42l.94,2.66a17.38,17.38,0,0,1-8.83,2.66c-6.61,0-11-4.38-11-12.72,0-7.64,3.74-12.42,10.35-12.42,6.8,0,9.66,5.47,9.66,11.54v2.12Zm6.46-10.8c-4.58,0-6.46,4-6.46,8.18H487C487,346.45,485.62,342.46,480.88,342.46Z"/><path class="cls-13" d="M499.77,342.85a10.37,10.37,0,0,1,7.2-3.25c6.16,0,9.36,4.39,9.36,12.52,0,8.53-4.24,12.62-10.05,12.62a9.38,9.38,0,0,1-7-3.1l-.78,2.61h-2.07v-34h3.74v9.37Zm.39,16.32a8.56,8.56,0,0,0,5.87,2.76c4.24,0,6.51-2.86,6.51-9.81,0-6.36-1.88-9.66-6.26-9.66a9,9,0,0,0-6.12,2.71Z"/><path class="cls-13" d="M525,353.26c0,6,3.06,8.58,7.64,8.58a15,15,0,0,0,7.5-2.42l.93,2.66a17.31,17.31,0,0,1-8.82,2.66c-6.6,0-11-4.38-11-12.72,0-7.64,3.74-12.42,10.35-12.42,6.8,0,9.66,5.47,9.66,11.54v2.12Zm6.46-10.8c-4.58,0-6.46,4-6.46,8.18h12.62C537.63,346.45,536.2,342.46,531.47,342.46Z"/><path class="cls-13" d="M565.79,349v15.23H562V349.66c0-4.59-1.33-7.1-5.42-7.1-2.56,0-4.34,1.43-5.82,2.76v18.93H547V340.09h2.46l.79,2.91a10.16,10.16,0,0,1,7.35-3.4c3.59,0,5.91,1.28,7.09,3.7a10.55,10.55,0,0,1,7.55-3.7c5.91,0,8.52,3.3,8.52,9.42v15.23H577V349.66c0-4.59-1.73-7.1-5.82-7.1a8.67,8.67,0,0,0-5.77,2.76A14,14,0,0,1,565.79,349Z"/><path class="cls-13" d="M606.51,352.12c0,8.14-3.94,12.62-10.4,12.62s-10.3-4.38-10.3-12.62c0-7.1,3.35-12.52,10.3-12.52C602.82,339.6,606.51,344.92,606.51,352.12Zm-3.84,0c0-6.31-2.12-9.71-6.56-9.71s-6.5,3.55-6.5,9.71c0,5.92,1.72,9.81,6.5,9.81S602.67,358.58,602.67,352.12Z"/><path class="cls-13" d="M615,346c0,5.18,12,3.35,12,11.53,0,3.9-3,7.2-8.38,7.2a14.5,14.5,0,0,1-7.3-2.07l1.09-2.76a11.22,11.22,0,0,0,6.16,2c3,0,4.78-1.62,4.78-4.14,0-5.81-11.83-3.65-11.83-11.83,0-3.25,2.47-6.36,8-6.36a15.58,15.58,0,0,1,7.24,1.58l-.88,2.76a13,13,0,0,0-6.31-1.48C616.43,342.46,615,343.79,615,346Z"/><path class="cls-13" d="M655.58,343.35a9.53,9.53,0,0,0-3.11-.45,7.67,7.67,0,0,0-5.42,2.62v18.73H643.3V340.09h2.52l.69,3.06a8,8,0,0,1,6.26-3.4,11,11,0,0,1,3.06.39Z"/><path class="cls-13" d="M663,353.26c0,6,3,8.58,7.64,8.58a15,15,0,0,0,7.49-2.42l.94,2.66a17.35,17.35,0,0,1-8.83,2.66c-6.6,0-11-4.38-11-12.72,0-7.64,3.75-12.42,10.35-12.42,6.81,0,9.67,5.47,9.67,11.54v2.12Zm6.45-10.8c-4.58,0-6.45,4-6.45,8.18H675.6C675.6,346.45,674.17,342.46,669.43,342.46Z"/><path class="cls-13" d="M699.91,364.25l-.64-3.11a9.53,9.53,0,0,1-7.45,3.6c-4.93,0-7.79-3.3-7.79-7.39s3.06-6.9,8.53-6.9h6.26v-1.93c0-4.19-1.82-6-5.47-6a17.82,17.82,0,0,0-7.3,1.58l-1-2.71a21.21,21.21,0,0,1,8.77-1.83c5.72,0,8.63,3,8.63,8.73v15.92ZM698.82,353h-5.67c-4.09,0-5.47,1.77-5.47,4.19,0,2.91,1.58,4.83,5.08,4.83a8.5,8.5,0,0,0,6.06-3Z"/><path class="cls-13" d="M709.08,357.6V330.23h3.7V359c0,2.07.93,2.9,3.6,2.9h.78v2.57a11.34,11.34,0,0,1-2.36.29C710.21,364.74,709.08,362.13,709.08,357.6Z"/><path class="cls-13" d="M723.77,364.25V343.1l-2.66-.54v-2.47h6.31v24.16Zm-.34-33.67h4v3.94h-4Z"/><path class="cls-13" d="M737.28,361.59h13.26v2.66H732.7v-2.17l13.55-19.27H732.7v-2.72h17.74v2.62Z"/><path class="cls-13" d="M770.71,364.25l-.64-3.11a9.5,9.5,0,0,1-7.45,3.6c-4.93,0-7.79-3.3-7.79-7.39s3.06-6.9,8.53-6.9h6.26v-1.93c0-4.19-1.82-6-5.47-6a17.77,17.77,0,0,0-7.29,1.58l-1-2.71a21.21,21.21,0,0,1,8.77-1.83c5.72,0,8.63,3,8.63,8.73v15.92ZM769.62,353H764c-4.09,0-5.47,1.77-5.47,4.19,0,2.91,1.58,4.83,5.08,4.83a8.48,8.48,0,0,0,6.06-3Z"/><path class="cls-13" d="M792,343.35a9.53,9.53,0,0,0-3.11-.45,7.69,7.69,0,0,0-5.42,2.62v18.73h-3.75V340.09h2.52l.69,3.06a8,8,0,0,1,6.26-3.4,11,11,0,0,1,3.06.39Z"/><path class="cls-13" d="M810.21,353.26c0,6,3,8.58,7.64,8.58a15,15,0,0,0,7.49-2.42l.94,2.66a17.35,17.35,0,0,1-8.83,2.66c-6.6,0-11-4.38-11-12.72,0-7.64,3.75-12.42,10.35-12.42,6.81,0,9.66,5.47,9.66,11.54v2.12Zm6.46-10.8c-4.59,0-6.46,4-6.46,8.18h12.62C822.83,346.45,821.4,342.46,816.67,342.46Z"/><path class="cls-13" d="M847.38,364.25V349.66c0-4.59-1.43-7.1-5.52-7.1a9,9,0,0,0-5.92,2.76v18.93H832.2V340.09h2.51l.74,2.86A10.57,10.57,0,0,1,843,339.6c5.67,0,8.19,3.4,8.19,9.42v15.23Z"/><path class="cls-13" d="M885.94,362.62a17.15,17.15,0,0,1-8,2.12c-6.12,0-10.56-3.6-10.56-12.57,0-8.18,4.49-12.57,10.56-12.57a15.57,15.57,0,0,1,7.88,1.92l-1.08,2.67a13,13,0,0,0-6.61-1.58c-4.33,0-7,3.45-7,9.56,0,6.81,2.67,9.67,7,9.67a13.57,13.57,0,0,0,6.95-2Z"/><path class="cls-13" d="M905.81,364.25l-.64-3.11a9.49,9.49,0,0,1-7.44,3.6c-4.93,0-7.79-3.3-7.79-7.39s3-6.9,8.53-6.9h6.26v-1.93c0-4.19-1.83-6-5.47-6a17.78,17.78,0,0,0-7.3,1.58l-1-2.71a21.27,21.27,0,0,1,8.78-1.83c5.72,0,8.63,3,8.63,8.73v15.92ZM904.73,353h-5.67c-4.09,0-5.47,1.77-5.47,4.19,0,2.91,1.57,4.83,5.07,4.83a8.5,8.5,0,0,0,6.07-3Z"/><path class="cls-13" d="M930.71,361.34a9.14,9.14,0,0,1-7,3.4c-5.72,0-9.71-4.24-9.71-12.62,0-7.34,3.65-12.52,10.11-12.52a10.16,10.16,0,0,1,6.45,2.07,35.27,35.27,0,0,1-.19-3.94v-7.5h3.74v34h-2.81Zm-.29-17.15a10.37,10.37,0,0,0-5.87-1.73c-4.54,0-6.7,3.55-6.7,9.66s1.92,9.81,6.45,9.81c2.17,0,4.14-.93,6.12-3.05Z"/><path class="cls-13" d="M955.61,364.25l-.64-3.11a9.49,9.49,0,0,1-7.44,3.6c-4.93,0-7.79-3.3-7.79-7.39s3-6.9,8.53-6.9h6.26v-1.93c0-4.19-1.83-6-5.48-6a17.77,17.77,0,0,0-7.29,1.58l-1-2.71a21.27,21.27,0,0,1,8.78-1.83c5.72,0,8.62,3,8.62,8.73v15.92ZM954.53,353h-5.67c-4.1,0-5.48,1.77-5.48,4.19,0,2.91,1.58,4.83,5.08,4.83a8.5,8.5,0,0,0,6.07-3Z"/><path class="cls-13" d="M459.19,375.21a10.86,10.86,0,0,0-3.11-.44c-3.25,0-4.68,1.82-4.68,5.67v1.92h5.72v2.86H451.4v21.29h-3.7V385.22h-3.89v-2.86h3.89v-2.17c0-5.52,2.66-8.53,8.08-8.53a16.2,16.2,0,0,1,3.75.49Z"/><path class="cls-13" d="M476.35,406.51l-.64-3.1a9.56,9.56,0,0,1-7.45,3.6c-4.93,0-7.79-3.31-7.79-7.4s3.06-6.9,8.53-6.9h6.26v-1.92c0-4.19-1.82-6-5.47-6a17.82,17.82,0,0,0-7.3,1.58l-1-2.71a21.21,21.21,0,0,1,8.77-1.83c5.72,0,8.63,3,8.63,8.73v15.92Zm-1.09-11.24h-5.67c-4.09,0-5.47,1.78-5.47,4.19,0,2.91,1.58,4.84,5.08,4.84a8.5,8.5,0,0,0,6.06-3Z"/><path class="cls-13" d="M488.08,388.27c0,5.18,12,3.36,12,11.54,0,3.89-3,7.2-8.38,7.2a14.53,14.53,0,0,1-7.29-2.07l1.08-2.76a11.33,11.33,0,0,0,6.16,2c3,0,4.79-1.63,4.79-4.14,0-5.82-11.84-3.65-11.84-11.84,0-3.25,2.47-6.36,8-6.36a15.77,15.77,0,0,1,7.25,1.58l-.89,2.76a13,13,0,0,0-6.31-1.48C489.56,384.72,488.08,386.06,488.08,388.27Z"/><path class="cls-13" d="M508.55,395.52c0,6,3.05,8.58,7.64,8.58a14.92,14.92,0,0,0,7.49-2.42l.94,2.66a17.26,17.26,0,0,1-8.83,2.67c-6.6,0-11-4.39-11-12.72,0-7.64,3.75-12.43,10.35-12.43,6.8,0,9.66,5.48,9.66,11.54v2.12Zm6.45-10.8c-4.58,0-6.45,4-6.45,8.19h12.62C521.17,388.72,519.74,384.72,515,384.72Z"/><path class="cls-13" d="M544.34,395.52c0,6,3.06,8.58,7.64,8.58a14.93,14.93,0,0,0,7.5-2.42l.93,2.66a17.22,17.22,0,0,1-8.82,2.67c-6.6,0-11-4.39-11-12.72,0-7.64,3.74-12.43,10.35-12.43,6.8,0,9.66,5.48,9.66,11.54v2.12Zm6.46-10.8c-4.58,0-6.46,4-6.46,8.19H557C557,388.72,555.53,384.72,550.8,384.72Z"/><path class="cls-13" d="M569.1,388.27c0,5.18,12,3.36,12,11.54,0,3.89-3,7.2-8.39,7.2a14.6,14.6,0,0,1-7.29-2.07l1.08-2.76a11.37,11.37,0,0,0,6.17,2c3,0,4.78-1.63,4.78-4.14,0-5.82-11.84-3.65-11.84-11.84,0-3.25,2.47-6.36,8-6.36a15.72,15.72,0,0,1,7.25,1.58l-.89,2.76a13,13,0,0,0-6.31-1.48C570.57,384.72,569.1,386.06,569.1,388.27Z"/><path class="cls-13" d="M594.73,407c-3.4,0-6.21-1.73-6.21-7.4V385.07h-3.65v-2.71h3.65V378l3.75-1.18v5.57h7.05v2.71h-7.05v15c0,2.56.94,3.79,3.2,3.79a10.51,10.51,0,0,0,3.85-1l.74,2.76A11.83,11.83,0,0,1,594.73,407Z"/><path class="cls-13" d="M619.88,406.51l-.64-3.1a9.53,9.53,0,0,1-7.45,3.6c-4.93,0-7.78-3.31-7.78-7.4s3-6.9,8.52-6.9h6.27v-1.92c0-4.19-1.83-6-5.48-6A17.77,17.77,0,0,0,606,386.4l-1-2.71a21.23,21.23,0,0,1,8.78-1.83c5.71,0,8.62,3,8.62,8.73v15.92Zm-1.08-11.24h-5.67c-4.1,0-5.48,1.78-5.48,4.19,0,2.91,1.58,4.84,5.08,4.84a8.5,8.5,0,0,0,6.07-3Z"/><path class="cls-13" d="M632.21,385.12a10.32,10.32,0,0,1,7.2-3.26c6.16,0,9.36,4.39,9.36,12.53,0,8.53-4.24,12.62-10,12.62a9.35,9.35,0,0,1-7-3.11l-.78,2.61h-2.07v-34h3.74v9.36Zm.39,16.32a8.6,8.6,0,0,0,5.87,2.76c4.24,0,6.51-2.86,6.51-9.81,0-6.36-1.88-9.67-6.26-9.67a9,9,0,0,0-6.12,2.72Z"/><path class="cls-13" d="M654.69,399.86V372.5h3.7v28.74c0,2.07.94,2.91,3.6,2.91h.79v2.56a11.14,11.14,0,0,1-2.37.3C655.83,407,654.69,404.39,654.69,399.86Z"/><path class="cls-13" d="M670.42,395.52c0,6,3.06,8.58,7.64,8.58a14.85,14.85,0,0,0,7.49-2.42l.94,2.66a17.22,17.22,0,0,1-8.82,2.67c-6.61,0-11-4.39-11-12.72,0-7.64,3.75-12.43,10.36-12.43,6.8,0,9.66,5.48,9.66,11.54v2.12Zm6.46-10.8c-4.59,0-6.46,4-6.46,8.19H683C683,388.72,681.61,384.72,676.88,384.72Z"/><path class="cls-13" d="M710.26,404.89a17.32,17.32,0,0,1-8,2.12c-6.11,0-10.55-3.6-10.55-12.57,0-8.19,4.49-12.58,10.55-12.58a15.62,15.62,0,0,1,7.89,1.93L709,386.45a13.13,13.13,0,0,0-6.6-1.58c-4.34,0-7,3.45-7,9.57,0,6.8,2.66,9.66,7,9.66a13.69,13.69,0,0,0,7-2Z"/><path class="cls-13" d="M717.11,406.51V385.37l-2.66-.55v-2.46h6.31v24.15Zm-.34-33.67h4v4h-4Z"/><path class="cls-13" d="M743.24,403.61a9.14,9.14,0,0,1-7,3.4c-5.71,0-9.71-4.24-9.71-12.62,0-7.35,3.65-12.53,10.11-12.53a10.17,10.17,0,0,1,6.46,2.07A33,33,0,0,1,743,380V372.5h3.75v34h-2.81ZM743,386.45a10.31,10.31,0,0,0-5.87-1.73c-4.53,0-6.7,3.55-6.7,9.67,0,6,1.92,9.81,6.46,9.81,2.17,0,4.14-.94,6.11-3.06Z"/><path class="cls-13" d="M768.15,406.51l-.65-3.1a9.52,9.52,0,0,1-7.44,3.6c-4.93,0-7.79-3.31-7.79-7.4s3.06-6.9,8.53-6.9h6.26v-1.92c0-4.19-1.82-6-5.47-6a17.82,17.82,0,0,0-7.3,1.58l-1-2.71a21.21,21.21,0,0,1,8.77-1.83c5.72,0,8.63,3,8.63,8.73v15.92Zm-1.09-11.24h-5.67c-4.09,0-5.47,1.78-5.47,4.19,0,2.91,1.58,4.84,5.08,4.84a8.5,8.5,0,0,0,6.06-3Z"/><path class="cls-13" d="M776.43,401h3.7v5.62c0,4.24-1.18,5.43-3.7,5.82V411c.94-.35,1.18-1.33,1.18-4.49l-1.18-.24Z"/><path class="cls-13" d="M463.43,447.15a17.2,17.2,0,0,1-8,2.12c-6.11,0-10.55-3.6-10.55-12.57,0-8.18,4.49-12.57,10.55-12.57a15.61,15.61,0,0,1,7.89,1.92l-1.08,2.66a13.19,13.19,0,0,0-6.61-1.57c-4.34,0-7,3.45-7,9.56,0,6.8,2.66,9.66,7,9.66a13.6,13.6,0,0,0,7-2Z"/><path class="cls-13" d="M488.23,436.65c0,8.14-3.94,12.62-10.4,12.62s-10.31-4.39-10.31-12.62c0-7.1,3.36-12.52,10.31-12.52C484.53,424.13,488.23,429.45,488.23,436.65Zm-3.85,0c0-6.31-2.12-9.71-6.55-9.71s-6.51,3.55-6.51,9.71c0,5.92,1.73,9.81,6.51,9.81S484.38,443.11,484.38,436.65Z"/><path class="cls-13" d="M509.09,448.78V434.19c0-4.59-1.43-7.1-5.52-7.1a8.94,8.94,0,0,0-5.92,2.76v18.93H493.9V424.62h2.52l.74,2.86a10.56,10.56,0,0,1,7.59-3.35c5.67,0,8.18,3.4,8.18,9.42v15.23Z"/><path class="cls-13" d="M521.71,430.54c0,5.17,12,3.35,12,11.53,0,3.9-3,7.2-8.38,7.2A14.43,14.43,0,0,1,518,447.2l1.08-2.76a11.22,11.22,0,0,0,6.16,2c3,0,4.78-1.63,4.78-4.14,0-5.82-11.83-3.65-11.83-11.83,0-3.25,2.47-6.36,8-6.36a15.58,15.58,0,0,1,7.24,1.58l-.88,2.76a13,13,0,0,0-6.31-1.48C523.19,427,521.71,428.32,521.71,430.54Z"/><path class="cls-13" d="M541.14,448.78V427.63l-2.66-.54v-2.47h6.31v24.16Zm-.35-33.67h4v3.94h-4Z"/><path class="cls-13" d="M567.27,445.87a9.14,9.14,0,0,1-6.95,3.4c-5.72,0-9.71-4.24-9.71-12.62,0-7.34,3.64-12.52,10.1-12.52a10.11,10.11,0,0,1,6.46,2.07,33,33,0,0,1-.2-3.95v-7.49h3.75v34h-2.81Zm-.3-17.16a10.39,10.39,0,0,0-5.86-1.72c-4.54,0-6.71,3.55-6.71,9.66s1.93,9.81,6.46,9.81c2.17,0,4.14-.94,6.11-3Z"/><path class="cls-13" d="M580.19,437.79c0,6,3.06,8.57,7.64,8.57a15,15,0,0,0,7.5-2.41l.93,2.66a17.34,17.34,0,0,1-8.82,2.66c-6.61,0-11-4.39-11-12.72,0-7.64,3.75-12.42,10.36-12.42,6.8,0,9.66,5.47,9.66,11.53v2.13Zm6.46-10.8c-4.59,0-6.46,4-6.46,8.18h12.62C592.81,431,591.38,427,586.65,427Z"/><path class="cls-13" d="M614.46,427.87a9.91,9.91,0,0,0-3.11-.44,7.7,7.7,0,0,0-5.42,2.61v18.74h-3.75V424.62h2.51l.7,3.06a8,8,0,0,1,6.26-3.4,10.84,10.84,0,0,1,3.05.39Z"/><path class="cls-13" d="M633.83,448.78l-.64-3.11a9.48,9.48,0,0,1-7.44,3.6c-4.93,0-7.79-3.3-7.79-7.39S621,435,626.49,435h6.26v-1.92c0-4.19-1.82-6-5.47-6a17.83,17.83,0,0,0-7.3,1.57L619,426a21.24,21.24,0,0,1,8.77-1.82c5.72,0,8.63,3,8.63,8.73v15.92Zm-1.08-11.24h-5.67c-4.09,0-5.47,1.77-5.47,4.19,0,2.91,1.57,4.83,5.08,4.83a8.5,8.5,0,0,0,6.06-3Z"/><path class="cls-13" d="M658,448.78V434.19c0-4.59-1.42-7.1-5.52-7.1a8.94,8.94,0,0,0-5.91,2.76v18.93h-3.75V424.62h2.52l.73,2.86a10.58,10.58,0,0,1,7.6-3.35c5.67,0,8.18,3.4,8.18,9.42v15.23Z"/><path class="cls-13" d="M683.78,445.87a9.14,9.14,0,0,1-6.95,3.4c-5.72,0-9.71-4.24-9.71-12.62,0-7.34,3.65-12.52,10.11-12.52a10.1,10.1,0,0,1,6.45,2.07,35.33,35.33,0,0,1-.19-3.95v-7.49h3.74v34h-2.81Zm-.29-17.16a10.45,10.45,0,0,0-5.87-1.72c-4.54,0-6.7,3.55-6.7,9.66s1.92,9.81,6.45,9.81c2.17,0,4.14-.94,6.12-3Z"/><path class="cls-13" d="M713.61,436.65c0,8.14-3.94,12.62-10.4,12.62s-10.31-4.39-10.31-12.62c0-7.1,3.36-12.52,10.31-12.52C709.91,424.13,713.61,429.45,713.61,436.65Zm-3.84,0c0-6.31-2.12-9.71-6.56-9.71s-6.51,3.55-6.51,9.71c0,5.92,1.73,9.81,6.51,9.81S709.77,443.11,709.77,436.65Z"/><path class="cls-13" d="M733.93,450.41v7.73h-3.8V424.62H733l.59,2.86a9.75,9.75,0,0,1,7-3.35c6.16,0,9.22,4.39,9.22,12.52,0,8.53-4.24,12.62-10,12.62a8.45,8.45,0,0,1-6.5-2.76A22.62,22.62,0,0,1,733.93,450.41Zm0-6.56a8.07,8.07,0,0,0,5.72,2.61c4.39,0,6.46-2.86,6.46-9.81,0-6.36-1.83-9.61-6.22-9.61a8.66,8.66,0,0,0-6,2.81Z"/><path class="cls-13" d="M775.49,436.65c0,8.14-3.94,12.62-10.4,12.62s-10.3-4.39-10.3-12.62c0-7.1,3.35-12.52,10.3-12.52C771.8,424.13,775.49,429.45,775.49,436.65Zm-3.84,0c0-6.31-2.12-9.71-6.56-9.71s-6.51,3.55-6.51,9.71c0,5.92,1.73,9.81,6.51,9.81S771.65,443.11,771.65,436.65Z"/><path class="cls-13" d="M783.93,430.54c0,5.17,12,3.35,12,11.53,0,3.9-3,7.2-8.38,7.2a14.5,14.5,0,0,1-7.3-2.07l1.09-2.76a11.22,11.22,0,0,0,6.16,2c3,0,4.78-1.63,4.78-4.14,0-5.82-11.83-3.65-11.83-11.83,0-3.25,2.46-6.36,8-6.36a15.58,15.58,0,0,1,7.24,1.58l-.89,2.76a12.9,12.9,0,0,0-6.31-1.48C785.41,427,783.93,428.32,783.93,430.54Z"/><path class="cls-13" d="M803.36,448.78V427.63l-2.67-.54v-2.47H807v24.16ZM803,415.11h4v3.94h-4Z"/><path class="cls-13" d="M816.92,427.38a10.35,10.35,0,0,1,7.19-3.25c6.17,0,9.37,4.39,9.37,12.52,0,8.53-4.24,12.62-10.06,12.62a9.37,9.37,0,0,1-7-3.1l-.79,2.61h-2.07v-34h3.75v9.37Zm.39,16.32a8.56,8.56,0,0,0,5.87,2.76c4.24,0,6.51-2.86,6.51-9.81,0-6.36-1.88-9.66-6.27-9.66a9,9,0,0,0-6.11,2.71Z"/><path class="cls-13" d="M839.4,442.12V414.76h3.7V443.5c0,2.07.93,2.91,3.6,2.91h.79V449a11.14,11.14,0,0,1-2.37.3C840.54,449.27,839.4,446.66,839.4,442.12Z"/><path class="cls-13" d="M855.13,437.79c0,6,3,8.57,7.64,8.57a15,15,0,0,0,7.49-2.41l.94,2.66a17.35,17.35,0,0,1-8.83,2.66c-6.6,0-11-4.39-11-12.72,0-7.64,3.75-12.42,10.35-12.42,6.81,0,9.67,5.47,9.67,11.53v2.13Zm6.45-10.8c-4.58,0-6.45,4-6.45,8.18h12.62C867.75,431,866.32,427,861.58,427Z"/><path class="cls-13" d="M879.88,430.54c0,5.17,12,3.35,12,11.53,0,3.9-3,7.2-8.38,7.2a14.5,14.5,0,0,1-7.3-2.07l1.09-2.76a11.22,11.22,0,0,0,6.16,2c3,0,4.78-1.63,4.78-4.14,0-5.82-11.83-3.65-11.83-11.83,0-3.25,2.47-6.36,8-6.36a15.58,15.58,0,0,1,7.24,1.58l-.88,2.76a13,13,0,0,0-6.31-1.48C881.36,427,879.88,428.32,879.88,430.54Z"/><path class="cls-13" d="M457.86,470.14a9.67,9.67,0,0,0-3.11-.44,7.7,7.7,0,0,0-5.42,2.61V491h-3.75V466.89h2.51l.7,3.05a8,8,0,0,1,6.26-3.4,10.64,10.64,0,0,1,3.05.4Z"/><path class="cls-13" d="M464.22,491V469.89l-2.66-.54v-2.46h6.31V491Zm-.35-33.67h4v3.95h-4Z"/><path class="cls-13" d="M477.38,480.05c0,6,3.06,8.58,7.64,8.58a14.93,14.93,0,0,0,7.5-2.42l.94,2.66a17.26,17.26,0,0,1-8.83,2.66c-6.6,0-11-4.38-11-12.71,0-7.64,3.74-12.43,10.35-12.43,6.8,0,9.66,5.48,9.66,11.54v2.12Zm6.46-10.8c-4.58,0-6.46,4-6.46,8.19H490C490,473.25,488.57,469.25,483.84,469.25Z"/><path class="cls-13" d="M502.14,472.8c0,5.18,12,3.35,12,11.54,0,3.89-3,7.19-8.39,7.19a14.5,14.5,0,0,1-7.29-2.07l1.08-2.76a11.29,11.29,0,0,0,6.17,2c2.95,0,4.78-1.63,4.78-4.15,0-5.81-11.83-3.64-11.83-11.83,0-3.25,2.46-6.36,8-6.36a15.72,15.72,0,0,1,7.25,1.58l-.89,2.76a12.9,12.9,0,0,0-6.31-1.48C503.62,469.25,502.14,470.58,502.14,472.8Z"/><path class="cls-13" d="M540.39,466.89v2.61a26.38,26.38,0,0,1-5.86-.49,7.22,7.22,0,0,1,3.3,5.76c0,5.72-5.47,8.14-9.12,8.14a11,11,0,0,1-3.15-.54c-1.78.14-2.57.83-2.57,1.72,0,3,15.83,0,15.83,8.58,0,5.62-5.18,8.33-10.35,8.33-4.74,0-9.62-2.51-9.62-7.15,0-3.2,2.47-5.17,6.12-5.72-3-.29-5.43-1.33-5.43-3.64,0-1.68,1.14-2.91,3.65-3.21a7.16,7.16,0,0,1-3.7-6.51c0-6.31,5.67-8.38,9.17-8.38C530.64,466.39,534.58,466.74,540.39,466.89Zm-12.17,21.69c-3.65.1-5.77,2-5.77,4.88s3,4.93,6.11,4.93c3.7,0,6.51-1.68,6.51-5.52C535.07,490.4,533.05,489.07,528.22,488.58Zm6.11-13.86c0-4.48-3.3-5.57-5.67-5.57s-5.71,1.09-5.71,5.57,3.2,5.48,5.71,5.48S534.33,479.06,534.33,474.72Z"/><path class="cls-13" d="M564.8,478.91c0,8.14-3.94,12.62-10.4,12.62s-10.3-4.38-10.3-12.62c0-7.09,3.35-12.52,10.3-12.52C561.1,466.39,564.8,471.72,564.8,478.91Zm-3.84,0c0-6.31-2.12-9.71-6.56-9.71s-6.51,3.55-6.51,9.71c0,5.92,1.73,9.82,6.51,9.82S561,485.37,561,478.91Z"/><path class="cls-13" d="M573.24,472.8c0,5.18,12,3.35,12,11.54,0,3.89-3,7.19-8.39,7.19a14.5,14.5,0,0,1-7.29-2.07l1.09-2.76a11.22,11.22,0,0,0,6.16,2c3,0,4.78-1.63,4.78-4.15,0-5.81-11.83-3.64-11.83-11.83,0-3.25,2.46-6.36,8-6.36A15.72,15.72,0,0,1,585,468l-.89,2.76a12.9,12.9,0,0,0-6.31-1.48C574.72,469.25,573.24,470.58,573.24,472.8Z"/><path class="cls-13" d="M604.55,480.05c0,6,3.05,8.58,7.64,8.58a14.89,14.89,0,0,0,7.49-2.42l.94,2.66a17.26,17.26,0,0,1-8.83,2.66c-6.6,0-11-4.38-11-12.71,0-7.64,3.75-12.43,10.35-12.43,6.81,0,9.67,5.48,9.67,11.54v2.12Zm6.45-10.8c-4.58,0-6.45,4-6.45,8.19h12.62C617.17,473.25,615.74,469.25,611,469.25Z"/><path class="cls-13" d="M641.72,491V476.45c0-4.58-1.43-7.1-5.52-7.1a8.94,8.94,0,0,0-5.91,2.76V491h-3.75V466.89h2.51l.74,2.85a10.62,10.62,0,0,1,7.6-3.35c5.67,0,8.18,3.4,8.18,9.42V491Z"/><path class="cls-13" d="M680.28,489.42a17.29,17.29,0,0,1-8,2.11c-6.12,0-10.55-3.59-10.55-12.57,0-8.18,4.48-12.57,10.55-12.57a15.48,15.48,0,0,1,7.88,1.93L679.05,471a13,13,0,0,0-6.61-1.58c-4.34,0-7,3.45-7,9.56,0,6.81,2.66,9.67,7,9.67a13.57,13.57,0,0,0,6.95-2Z"/><path class="cls-13" d="M700.16,491l-.65-3.1a9.52,9.52,0,0,1-7.44,3.59c-4.93,0-7.79-3.3-7.79-7.39s3.06-6.9,8.53-6.9h6.26v-1.92c0-4.2-1.82-6-5.47-6a17.82,17.82,0,0,0-7.3,1.58l-1-2.71a21.21,21.21,0,0,1,8.77-1.83c5.72,0,8.63,3,8.63,8.73V491Zm-1.09-11.24H693.4c-4.09,0-5.47,1.78-5.47,4.19,0,2.91,1.58,4.83,5.08,4.83a8.52,8.52,0,0,0,6.06-3Z"/><path class="cls-13" d="M725.05,488.13a9.11,9.11,0,0,1-6.95,3.4c-5.72,0-9.71-4.24-9.71-12.62,0-7.34,3.65-12.52,10.11-12.52a10.19,10.19,0,0,1,6.46,2.07,33,33,0,0,1-.2-3.94V457h3.75v34h-2.82ZM724.76,471a10.37,10.37,0,0,0-5.87-1.73c-4.53,0-6.7,3.55-6.7,9.66s1.92,9.82,6.46,9.82c2.16,0,4.14-.94,6.11-3.06Z"/><path class="cls-13" d="M750,491l-.64-3.1a9.52,9.52,0,0,1-7.44,3.59c-4.93,0-7.79-3.3-7.79-7.39s3.06-6.9,8.53-6.9h6.26v-1.92c0-4.2-1.83-6-5.47-6a17.78,17.78,0,0,0-7.3,1.58l-1-2.71a21.31,21.31,0,0,1,8.78-1.83c5.72,0,8.63,3,8.63,8.73V491Zm-1.08-11.24H743.2c-4.09,0-5.47,1.78-5.47,4.19,0,2.91,1.58,4.83,5.07,4.83a8.53,8.53,0,0,0,6.07-3Z"/><path class="cls-13" d="M785.85,491l-.54-2.76a10.31,10.31,0,0,1-7.5,3.25c-5.37,0-8.33-3.2-8.33-9.8V466.89h3.75v14.59c0,5,1.58,7,5.47,7a9.5,9.5,0,0,0,6-2.37V466.89h3.8V491Z"/><path class="cls-13" d="M809.86,491V476.45c0-4.58-1.43-7.1-5.52-7.1a9,9,0,0,0-5.92,2.76V491h-3.74V466.89h2.51l.74,2.85a10.59,10.59,0,0,1,7.59-3.35c5.67,0,8.19,3.4,8.19,9.42V491Z"/><path class="cls-13" d="M834.66,491l-.64-3.1a9.52,9.52,0,0,1-7.44,3.59c-4.93,0-7.79-3.3-7.79-7.39s3.05-6.9,8.53-6.9h6.26v-1.92c0-4.2-1.83-6-5.47-6a17.78,17.78,0,0,0-7.3,1.58l-1-2.71a21.27,21.27,0,0,1,8.78-1.83c5.72,0,8.62,3,8.62,8.73V491Zm-1.08-11.24h-5.67c-4.09,0-5.48,1.78-5.48,4.19,0,2.91,1.58,4.83,5.08,4.83a8.53,8.53,0,0,0,6.07-3Z"/><path class="cls-13" d="M870.41,488.13a9.11,9.11,0,0,1-6.95,3.4c-5.72,0-9.71-4.24-9.71-12.62,0-7.34,3.64-12.52,10.1-12.52a10.17,10.17,0,0,1,6.46,2.07,33,33,0,0,1-.2-3.94V457h3.75v34h-2.81Zm-.3-17.15a10.3,10.3,0,0,0-5.86-1.73c-4.54,0-6.71,3.55-6.71,9.66s1.93,9.82,6.46,9.82c2.17,0,4.14-.94,6.11-3.06Z"/><path class="cls-13" d="M883.33,480.05c0,6,3.06,8.58,7.64,8.58a14.93,14.93,0,0,0,7.5-2.42l.93,2.66a17.25,17.25,0,0,1-8.82,2.66c-6.61,0-11-4.38-11-12.71,0-7.64,3.75-12.43,10.36-12.43,6.8,0,9.66,5.48,9.66,11.54v2.12Zm6.46-10.8c-4.59,0-6.46,4-6.46,8.19H896C896,473.25,894.52,469.25,889.79,469.25Z"/><path class="cls-13" d="M919.13,480.05c0,6,3,8.58,7.64,8.58a14.92,14.92,0,0,0,7.49-2.42l.94,2.66a17.25,17.25,0,0,1-8.82,2.66c-6.61,0-11-4.38-11-12.71,0-7.64,3.75-12.43,10.35-12.43,6.81,0,9.67,5.48,9.67,11.54v2.12Zm6.46-10.8c-4.59,0-6.46,4-6.46,8.19h12.62C931.75,473.25,930.32,469.25,925.59,469.25Z"/><path class="cls-13" d="M941.32,484.39V457H945v28.74c0,2.07.94,2.91,3.6,2.91h.79v2.56a11.37,11.37,0,0,1-2.37.29C942.45,491.53,941.32,488.92,941.32,484.39Z"/><path class="cls-13" d="M954.28,484.39V457H958v28.74c0,2.07.94,2.91,3.6,2.91h.79v2.56a11.5,11.5,0,0,1-2.37.29C955.42,491.53,954.28,488.92,954.28,484.39Z"/><path class="cls-13" d="M982,491l-.64-3.1a9.52,9.52,0,0,1-7.45,3.59c-4.93,0-7.78-3.3-7.78-7.39s3-6.9,8.52-6.9h6.27v-1.92c0-4.2-1.83-6-5.48-6a17.77,17.77,0,0,0-7.29,1.58l-1-2.71a21.23,21.23,0,0,1,8.78-1.83c5.71,0,8.62,3,8.62,8.73V491Zm-1.08-11.24h-5.67c-4.1,0-5.48,1.78-5.48,4.19,0,2.91,1.58,4.83,5.08,4.83a8.53,8.53,0,0,0,6.07-3Z"/><path class="cls-13" d="M993.73,472.8c0,5.18,12,3.35,12,11.54,0,3.89-3,7.19-8.39,7.19a14.5,14.5,0,0,1-7.29-2.07l1.08-2.76a11.29,11.29,0,0,0,6.17,2c3,0,4.78-1.63,4.78-4.15,0-5.81-11.83-3.64-11.83-11.83,0-3.25,2.46-6.36,8-6.36a15.72,15.72,0,0,1,7.25,1.58l-.89,2.76a12.9,12.9,0,0,0-6.31-1.48C995.21,469.25,993.73,470.58,993.73,472.8Z"/><path class="cls-13" d="M1010.49,485.52h3.7V491h-3.7Z"/><path class="cls-14" d="M519.17,247.14H505.08l-2,9.48H492.53l12.35-45.06h16.43l12.35,45.06H521.31ZM507,238.73H517.3l-3.81-17.89h-2.33Z"/><path class="cls-14" d="M563.31,233a16.64,16.64,0,0,0-7.82-1.87c-3.87,0-6.41,2.27-6.41,9.08,0,6.54,2.21,9.08,6.48,9.08a19.41,19.41,0,0,0,8.55-2.34l1.87,7.48a26.29,26.29,0,0,1-11.42,2.87c-10.41,0-16.29-5.87-16.29-17.09,0-10.48,5.81-17,16.22-17A22.89,22.89,0,0,1,566,225.91Z"/><path class="cls-14" d="M594.89,255a20.31,20.31,0,0,1-9.28,2.33c-6.14,0-10.68-3.94-10.68-11.75V231.39h-4.68v-7.48h4.87V218.3L585.41,215v8.95h8.34v7.48h-8.34v13.82c0,1.93.93,3.07,3,3.07a11.56,11.56,0,0,0,4.94-1.14Z"/><path class="cls-14" d="M604,256.62V231.39l-3.87-.87v-6.61h14.35v32.71Zm-.2-46.33h10.55v9.21H603.84Z"/><path class="cls-14" d="M644.63,256.62H629.28l-9.48-32.71h11.88l5.94,26.3h.27l5.87-26.3h10.55Z"/><path class="cls-14" d="M662.46,256.62V231.39l-3.87-.87v-6.61h14.35v32.71Zm-.2-46.33h10.55v9.21H662.26Z"/><path class="cls-14" d="M702.65,226.58a15.9,15.9,0,0,1-1.06-6.27v-9.75h10.48v46.06h-8.74l-1.07-3.47a9.61,9.61,0,0,1-8.28,4.14c-7.28,0-13.42-5.14-13.42-17,0-11.22,6.67-17,14.22-17C698.11,223.24,700.92,224.38,702.65,226.58Zm-1.06,5.74a10.53,10.53,0,0,0-4.94-1.27c-3.14,0-5.61,1.81-5.61,9.15,0,7.61,2.4,9.41,5.54,9.41a7.72,7.72,0,0,0,5-2.07Z"/><path class="cls-14" d="M741.18,256.62l-1.33-3.74a11.17,11.17,0,0,1-9.28,4.41c-6.48,0-11.22-4.14-11.22-10.75,0-6.27,4.67-9.81,12.75-9.81h6.08v-1.2c0-3.47-2.34-4.28-4.94-4.28a23.29,23.29,0,0,0-9.75,2.14l-2.6-7.48a35,35,0,0,1,13.35-2.67c10.08,0,14.15,4.41,14.15,13v20.36Zm-3-13.82H734c-2.8,0-4.27,1.34-4.27,3.47,0,2.54,1.4,3.94,3.94,3.94a9.62,9.62,0,0,0,4.54-1.33Z"/><path class="cls-14" d="M777.45,226.58a15.71,15.71,0,0,1-1.07-6.27v-9.75h10.48v46.06h-8.75L777,253.15a9.61,9.61,0,0,1-8.28,4.14c-7.27,0-13.41-5.14-13.41-17,0-11.22,6.67-17,14.21-17C772.91,223.24,775.71,224.38,777.45,226.58Zm-1.07,5.74a10.57,10.57,0,0,0-5-1.27c-3.13,0-5.6,1.81-5.6,9.15,0,7.61,2.4,9.41,5.54,9.41a7.74,7.74,0,0,0,5-2.07Z"/><path class="cls-14" d="M804.82,243.07c0,3.74,2.4,6.21,7.48,6.21a24,24,0,0,0,9.21-2.4l1.87,7.34a28.69,28.69,0,0,1-12.68,3.07c-10.49,0-16.56-6.48-16.56-17.09,0-9.88,4.74-17,15.82-17,10.21,0,14.29,7.28,14.29,15.49v4.34Zm4.81-12.15c-3.47,0-4.81,3.14-4.81,6.14h9.41C814.23,233.59,813.23,230.92,809.63,230.92Z"/><path class="cls-14" d="M852.16,232.19a20.83,20.83,0,0,0-7.61-1.47c-2.4,0-3.6.74-3.6,2.07,0,4.14,13.15,3.07,13.15,13.48,0,6.35-4.61,11-13.69,11a22.18,22.18,0,0,1-9.74-2.2l1.93-7.28a16,16,0,0,0,7.48,2.07c2.4,0,3.94-1,3.94-2.67,0-4.81-12.95-3.4-12.95-14.56,0-5.13,3.8-9.41,13.35-9.41a31.79,31.79,0,0,1,8.94,1.27Z"/><path class="cls-14" d="M861.18,223.91h10.68v10.41H861.18Zm0,22.3h10.68v10.41H861.18Z"/></svg>