<svg id="Capa_1" data-name="Capa 1" xmlns="http://www.w3.org/2000/svg" viewBox="0 0 512 512"><defs><style>.cls-1{fill:#e7334a;}.cls-1,.cls-2,.cls-3,.cls-4{stroke:#fff;stroke-miterlimit:10;}.cls-2{fill:#55b682;}.cls-3,.cls-4{fill:#615185;}.cls-3{stroke-width:0.25px;}.cls-4{stroke-width:0.75px;}.cls-5{fill:#34859f;}.cls-6{fill:#3b2112;}.cls-7{fill:#4eaab0;}.cls-8{fill:#e29720;}.cls-9{fill:#e26d21;}.cls-10{fill:#f4cd2c;}.cls-11{fill:#34bacc;}.cls-12{fill:#a0b61d;}.cls-13{fill:#e84a1e;}.cls-14{fill:#34768e;}</style></defs><path class="cls-1" d="M474.33,86.82H453l34.12-64.35H451.62V6.82h54.94V22.47Z"/><path class="cls-2" d="M10.43,39.18v-1h9.74v1.5c0,10.49-8.72,10.69-8.72,17.51,0,2.52,1.77,4.49,5.18,4.49a23.05,23.05,0,0,0,8.1-1.7l2.66,8.38A30.73,30.73,0,0,1,14.58,71C6.13,71,0,66.44,0,58.8,0,48.38,10.43,45.79,10.43,39.18Zm10.15-4.77H10V24H20.58Z"/><path class="cls-2" d="M51.51,58.05c-13.08,0-20.37-8.17-20.37-23.91,0-14,6.67-23.44,20.37-23.44,6.54,0,12.4,1.36,16.35,4l-4,8.65c-2.25-1.7-6.2-3.06-11-3.06-6.81,0-10.29,4.29-10.29,13.83,0,10,3.41,14.38,10.16,14.38a21.63,21.63,0,0,0,11.85-4.16l3.41,8.79A28.3,28.3,0,0,1,51.51,58.05Z"/><path class="cls-2" d="M110.78,39.79c0,9.61-5.45,18.26-18.19,18.26S74.4,49.74,74.4,39.79V11.38H85.17V39.25c0,5.79,2.65,9.67,7.42,9.67s7.29-4,7.29-9.67V11.38h10.9Z"/><path class="cls-2" d="M142.94,47.7H128.56l-2,9.67H115.75l12.61-46h16.76l12.61,46H145.12ZM127.68,8.86l-.89-6.13,20-2.73-.14,7.91Zm2.79,30.25H141l-3.88-18.26h-2.39Z"/><path class="cls-2" d="M162.29,57.37v-46h10.76V48.31H192v9.06Z"/><path class="cls-2" d="M197.1,57.37v-46h29.71v9.06H207.87V29.5H222L221.36,39H207.87v9.4h18.94v9Z"/><path class="cls-2" d="M260.74,22.42A23,23,0,0,0,250.18,20c-4.16,0-5.86,1.57-5.86,3.61,0,7,20.78,4.09,20.78,19.83,0,7.5-6.47,14.58-17.37,14.58a25.65,25.65,0,0,1-15.47-5l4-8.17A19.56,19.56,0,0,0,247.79,49c3.75,0,6.07-2,6.07-4.77,0-8.52-20.65-3.75-20.65-20.44,0-7.22,5.73-13.08,17.1-13.08a30.78,30.78,0,0,1,14,3.06Z"/><path class="cls-2" d="M286.15,42.18v1h-9.74v-1.5c0-10.49,8.72-10.7,8.72-17.51,0-2.52-1.77-4.5-5.18-4.5a23.17,23.17,0,0,0-8.11,1.71L269.18,13A30.8,30.8,0,0,1,282,10.36c8.45,0,14.59,4.56,14.59,12.19C296.58,33,286.15,35.57,286.15,42.18ZM276,47h10.56V57.37H276Z"/><path class="cls-3" d="M20.72,111.65a6.12,6.12,0,0,1-4.66,2.28c-3.83,0-6.51-2.85-6.51-8.46,0-4.93,2.44-8.4,6.78-8.4a6.8,6.8,0,0,1,4.33,1.39,22.33,22.33,0,0,1-.14-2.65v-5H23V113.6H21.15Zm-.2-11.51A7,7,0,0,0,16.59,99c-3,0-4.5,2.38-4.5,6.48S13.38,112,16.43,112A5.47,5.47,0,0,0,20.52,110Z"/><path class="cls-3" d="M29.38,106.23c0,4,2.05,5.75,5.13,5.75a10,10,0,0,0,5-1.62l.63,1.78a11.59,11.59,0,0,1-5.92,1.79c-4.43,0-7.37-2.94-7.37-8.53,0-5.12,2.51-8.33,6.94-8.33s6.48,3.67,6.48,7.73v1.43ZM33.71,99c-3.07,0-4.33,2.71-4.33,5.48h8.47C37.85,101.66,36.89,99,33.71,99Z"/><path class="cls-3" d="M49.58,113.93c-2.28,0-4.16-1.16-4.16-5V99.22H43V97.4h2.45V94.46l2.51-.79V97.4h4.73v1.82H47.93v10c0,1.72.63,2.54,2.15,2.54a7.1,7.1,0,0,0,2.58-.69l.49,1.85A7.86,7.86,0,0,1,49.58,113.93Z"/><path class="cls-3" d="M66.44,113.6,66,111.51a6.37,6.37,0,0,1-5,2.42,4.85,4.85,0,0,1-5.22-5c0-2.81,2.05-4.63,5.72-4.63h4.19v-1.29c0-2.81-1.22-4-3.67-4a12,12,0,0,0-4.89,1.06l-.66-1.82a14.34,14.34,0,0,1,5.89-1.22c3.83,0,5.78,2,5.78,5.85V113.6Zm-.73-7.54h-3.8c-2.74,0-3.67,1.19-3.67,2.81,0,1.95,1.06,3.24,3.41,3.24a5.69,5.69,0,0,0,4.06-2Z"/><path class="cls-3" d="M72.59,109.13V90.79h2.48v19.27c0,1.39.63,2,2.41,2H78v1.72a7.39,7.39,0,0,1-1.58.2C73.35,113.93,72.59,112.18,72.59,109.13Z"/><path class="cls-3" d="M81.28,109.13V90.79h2.48v19.27c0,1.39.63,2,2.42,2h.53v1.72a7.54,7.54,0,0,1-1.59.2C82.05,113.93,81.28,112.18,81.28,109.13Z"/><path class="cls-3" d="M91.83,106.23c0,4,2,5.75,5.12,5.75a10,10,0,0,0,5-1.62l.62,1.78a11.52,11.52,0,0,1-5.91,1.79c-4.43,0-7.37-2.94-7.37-8.53,0-5.12,2.51-8.33,6.94-8.33s6.48,3.67,6.48,7.73v1.43ZM96.16,99c-3.07,0-4.33,2.71-4.33,5.48h8.46C100.29,101.66,99.33,99,96.16,99Z"/><path class="cls-3" d="M124.52,111.65a6.12,6.12,0,0,1-4.66,2.28c-3.83,0-6.51-2.85-6.51-8.46,0-4.93,2.45-8.4,6.78-8.4a6.8,6.8,0,0,1,4.33,1.39,22.4,22.4,0,0,1-.13-2.65v-5h2.51V113.6H125Zm-.19-11.51A7,7,0,0,0,120.39,99c-3,0-4.49,2.38-4.49,6.48s1.29,6.57,4.33,6.57a5.5,5.5,0,0,0,4.1-2.05Z"/><path class="cls-3" d="M133.19,106.23c0,4,2.05,5.75,5.12,5.75a10,10,0,0,0,5-1.62l.63,1.78a11.55,11.55,0,0,1-5.91,1.79c-4.44,0-7.38-2.94-7.38-8.53,0-5.12,2.52-8.33,7-8.33s6.47,3.67,6.47,7.73v1.43ZM137.52,99c-3.08,0-4.33,2.71-4.33,5.48h8.46C141.65,101.66,140.69,99,137.52,99Z"/><path class="cls-3" d="M155.34,109.13V90.79h2.48v19.27c0,1.39.62,2,2.41,2h.53v1.72a7.54,7.54,0,0,1-1.59.2C156.1,113.93,155.34,112.18,155.34,109.13Z"/><path class="cls-3" d="M173.91,113.6l-.43-2.09a6.35,6.35,0,0,1-5,2.42,4.85,4.85,0,0,1-5.22-5c0-2.81,2-4.63,5.72-4.63h4.2v-1.29c0-2.81-1.23-4-3.67-4a12,12,0,0,0-4.9,1.06L164,98.29a14.34,14.34,0,0,1,5.89-1.22c3.83,0,5.78,2,5.78,5.85V113.6Zm-.72-7.54h-3.81c-2.74,0-3.67,1.19-3.67,2.81,0,1.95,1.06,3.24,3.41,3.24a5.71,5.71,0,0,0,4.07-2Z"/><path class="cls-3" d="M181.78,101.37c0,3.47,8,2.24,8,7.73,0,2.61-2,4.83-5.62,4.83a9.8,9.8,0,0,1-4.89-1.39l.73-1.85a7.52,7.52,0,0,0,4.13,1.35c2,0,3.21-1.09,3.21-2.77,0-3.9-7.94-2.45-7.94-7.94,0-2.18,1.66-4.26,5.36-4.26a10.47,10.47,0,0,1,4.86,1.06l-.6,1.85a8.67,8.67,0,0,0-4.23-1C182.77,99,181.78,99.88,181.78,101.37Z"/><path class="cls-3" d="M206.25,113.93c-2.29,0-4.17-1.16-4.17-5V99.22h-2.44V97.4h2.44V94.46l2.51-.79V97.4h4.73v1.82h-4.73v10c0,1.72.63,2.54,2.15,2.54a7.1,7.1,0,0,0,2.58-.69l.5,1.85A7.94,7.94,0,0,1,206.25,113.93Z"/><path class="cls-3" d="M223.1,113.6l-.43-2.09a6.37,6.37,0,0,1-5,2.42,4.85,4.85,0,0,1-5.22-5c0-2.81,2-4.63,5.72-4.63h4.2v-1.29c0-2.81-1.23-4-3.67-4a11.91,11.91,0,0,0-4.89,1.06l-.67-1.82A14.34,14.34,0,0,1,219,97.07c3.83,0,5.78,2,5.78,5.85V113.6Zm-.72-7.54h-3.8c-2.75,0-3.67,1.19-3.67,2.81,0,1.95,1.05,3.24,3.4,3.24a5.71,5.71,0,0,0,4.07-2Z"/><path class="cls-3" d="M237.35,99.58a6.65,6.65,0,0,0-2.08-.29,5.19,5.19,0,0,0-3.64,1.75V113.6h-2.51V97.4h1.69l.46,2a5.35,5.35,0,0,1,4.2-2.28,7.59,7.59,0,0,1,2.05.26Z"/><path class="cls-3" d="M242.31,106.23c0,4,2.05,5.75,5.12,5.75a10,10,0,0,0,5-1.62l.63,1.78a11.59,11.59,0,0,1-5.92,1.79c-4.43,0-7.37-2.94-7.37-8.53,0-5.12,2.51-8.33,6.94-8.33s6.48,3.67,6.48,7.73v1.43ZM246.64,99c-3.07,0-4.33,2.71-4.33,5.48h8.46C250.77,101.66,249.81,99,246.64,99Z"/><path class="cls-3" d="M267.07,113.6l-.43-2.09a6.37,6.37,0,0,1-5,2.42,4.85,4.85,0,0,1-5.22-5c0-2.81,2.05-4.63,5.72-4.63h4.19v-1.29c0-2.81-1.22-4-3.66-4a12,12,0,0,0-4.9,1.06l-.66-1.82A14.34,14.34,0,0,1,263,97.07c3.83,0,5.78,2,5.78,5.85V113.6Zm-.73-7.54h-3.8c-2.74,0-3.66,1.19-3.66,2.81,0,1.95,1.05,3.24,3.4,3.24a5.67,5.67,0,0,0,4.06-2Z"/><path class="cls-3" d="M274.94,101.37c0,3.47,8,2.24,8,7.73,0,2.61-2,4.83-5.62,4.83a9.76,9.76,0,0,1-4.89-1.39l.73-1.85a7.52,7.52,0,0,0,4.13,1.35c2,0,3.21-1.09,3.21-2.77,0-3.9-7.94-2.45-7.94-7.94,0-2.18,1.66-4.26,5.36-4.26a10.47,10.47,0,0,1,4.86,1.06l-.6,1.85A8.7,8.7,0,0,0,278,99C275.93,99,274.94,99.88,274.94,101.37Z"/><path class="cls-3" d="M304.43,119.88v-6.32a13.91,13.91,0,0,1,.23-1.91,6.26,6.26,0,0,1-4.69,2.28c-3.77,0-6.52-2.88-6.52-8.46,0-4.93,2.45-8.4,6.78-8.4a8.12,8.12,0,0,1,4.66,1.52l.46-1.19h1.59v22.48Zm0-19.67a6.45,6.45,0,0,0-3.9-1.22c-3,0-4.53,2.38-4.53,6.48s1.29,6.57,4.33,6.57a5.49,5.49,0,0,0,4.1-2.05Z"/><path class="cls-3" d="M322.08,113.6l-.36-1.85a6.92,6.92,0,0,1-5,2.18c-3.6,0-5.58-2.15-5.58-6.58V97.4h2.51v9.78c0,3.34,1.06,4.73,3.67,4.73a6.41,6.41,0,0,0,4-1.59V97.4h2.54v16.2Z"/><path class="cls-3" d="M330,106.23c0,4,2,5.75,5.13,5.75a10,10,0,0,0,5-1.62l.63,1.78a11.59,11.59,0,0,1-5.92,1.79c-4.43,0-7.37-2.94-7.37-8.53,0-5.12,2.51-8.33,6.94-8.33s6.48,3.67,6.48,7.73v1.43ZM334.31,99c-3.07,0-4.33,2.71-4.33,5.48h8.46C338.44,101.66,337.49,99,334.31,99Z"/><path class="cls-3" d="M20.72,140a6.08,6.08,0,0,1-4.66,2.28c-3.83,0-6.51-2.84-6.51-8.46,0-4.92,2.44-8.39,6.78-8.39a6.87,6.87,0,0,1,4.33,1.38,22,22,0,0,1-.14-2.64v-5H23v22.8H21.15Zm-.2-11.5a6.91,6.91,0,0,0-3.93-1.16c-3,0-4.5,2.38-4.5,6.48s1.29,6.58,4.34,6.58a5.47,5.47,0,0,0,4.09-2Z"/><path class="cls-3" d="M29.38,134.56c0,4,2.05,5.75,5.13,5.75a10,10,0,0,0,5-1.62l.63,1.79a11.59,11.59,0,0,1-5.92,1.78c-4.43,0-7.37-2.94-7.37-8.52,0-5.13,2.51-8.33,6.94-8.33s6.48,3.67,6.48,7.73v1.42Zm4.33-7.24c-3.07,0-4.33,2.71-4.33,5.49h8.47C37.85,130,36.89,127.32,33.71,127.32Z"/><path class="cls-3" d="M46.38,127.59a6.93,6.93,0,0,1,4.82-2.18c4.13,0,6.28,2.94,6.28,8.39,0,5.72-2.84,8.46-6.74,8.46a6.25,6.25,0,0,1-4.69-2.08l-.53,1.75H44.13v-22.8h2.51v6.28Zm.26,10.94a5.72,5.72,0,0,0,3.93,1.85c2.85,0,4.37-1.92,4.37-6.58,0-4.26-1.26-6.48-4.2-6.48a6.07,6.07,0,0,0-4.1,1.82Z"/><path class="cls-3" d="M63.3,134.56c0,4,2,5.75,5.12,5.75a10,10,0,0,0,5-1.62l.63,1.79a11.59,11.59,0,0,1-5.92,1.78c-4.43,0-7.37-2.94-7.37-8.52,0-5.13,2.51-8.33,6.94-8.33s6.48,3.67,6.48,7.73v1.42Zm4.33-7.24c-3.07,0-4.33,2.71-4.33,5.49h8.46C71.76,130,70.8,127.32,67.63,127.32Z"/><path class="cls-3" d="M90.64,131.72v10.21H88.1v-9.78c0-3.07-.9-4.76-3.64-4.76a5.76,5.76,0,0,0-3.9,1.85v12.69H78.05V125.74H79.7l.53,2a6.78,6.78,0,0,1,4.92-2.28c2.42,0,4,.86,4.76,2.48A7,7,0,0,1,95,125.41c4,0,5.72,2.21,5.72,6.31v10.21H98.14v-9.78c0-3.07-1.15-4.76-3.9-4.76a5.78,5.78,0,0,0-3.86,1.85A9.45,9.45,0,0,1,90.64,131.72Z"/><path class="cls-3" d="M118,133.8c0,5.46-2.65,8.46-7,8.46s-6.91-2.94-6.91-8.46c0-4.76,2.25-8.39,6.91-8.39C115.47,125.41,118,129,118,133.8Zm-2.58,0c0-4.23-1.42-6.51-4.4-6.51s-4.36,2.38-4.36,6.51c0,4,1.16,6.58,4.36,6.58S115.37,138.13,115.37,133.8Z"/><path class="cls-3" d="M123.6,129.7c0,3.47,8,2.25,8,7.74,0,2.61-2,4.82-5.62,4.82a9.8,9.8,0,0,1-4.89-1.38l.73-1.86a7.55,7.55,0,0,0,4.13,1.36c2,0,3.21-1.09,3.21-2.78,0-3.9-7.94-2.44-7.94-7.93,0-2.18,1.66-4.26,5.36-4.26a10.59,10.59,0,0,1,4.86,1l-.6,1.85a8.67,8.67,0,0,0-4.23-1C124.59,127.32,123.6,128.22,123.6,129.7Z"/><path class="cls-3" d="M150.84,127.92a6.32,6.32,0,0,0-2.08-.3,5.19,5.19,0,0,0-3.64,1.75v12.56h-2.51V125.74h1.69l.46,2.05a5.35,5.35,0,0,1,4.2-2.28,7.59,7.59,0,0,1,2,.26Z"/><path class="cls-3" d="M155.8,134.56c0,4,2,5.75,5.12,5.75a10,10,0,0,0,5-1.62l.63,1.79a11.59,11.59,0,0,1-5.92,1.78c-4.43,0-7.37-2.94-7.37-8.52,0-5.13,2.51-8.33,6.94-8.33s6.48,3.67,6.48,7.73v1.42Zm4.33-7.24c-3.07,0-4.33,2.71-4.33,5.49h8.46C164.26,130,163.3,127.32,160.13,127.32Z"/><path class="cls-3" d="M180.56,141.93l-.43-2.08a6.39,6.39,0,0,1-5,2.41,4.84,4.84,0,0,1-5.22-4.95c0-2.81,2.05-4.63,5.72-4.63h4.19v-1.29c0-2.81-1.22-4-3.66-4a12,12,0,0,0-4.9,1.06l-.66-1.82a14.34,14.34,0,0,1,5.89-1.22c3.83,0,5.78,2,5.78,5.85v10.67Zm-.73-7.53H176c-2.74,0-3.66,1.19-3.66,2.81,0,1.95,1,3.24,3.4,3.24a5.67,5.67,0,0,0,4.06-2Z"/><path class="cls-3" d="M186.71,137.47V119.13h2.48V138.4c0,1.39.63,1.95,2.41,1.95h.53v1.72a7.75,7.75,0,0,1-1.58.19C187.47,142.26,186.71,140.51,186.71,137.47Z"/><path class="cls-3" d="M196.56,141.93V127.75l-1.78-.36v-1.65H199v16.19Zm-.23-22.57H199V122h-2.68Z"/><path class="cls-3" d="M205.62,140.15h8.89v1.78h-12v-1.45l9.09-12.92h-9.09v-1.82h11.9v1.75Z"/><path class="cls-3" d="M228,141.93l-.43-2.08a6.39,6.39,0,0,1-5,2.41,4.84,4.84,0,0,1-5.22-4.95c0-2.81,2.05-4.63,5.72-4.63h4.19v-1.29c0-2.81-1.22-4-3.66-4a12,12,0,0,0-4.9,1.06l-.66-1.82a14.34,14.34,0,0,1,5.89-1.22c3.83,0,5.78,2,5.78,5.85v10.67Zm-.73-7.53h-3.8c-2.74,0-3.66,1.19-3.66,2.81,0,1.95,1,3.24,3.4,3.24a5.67,5.67,0,0,0,4.06-2Z"/><path class="cls-3" d="M242.28,127.92a6.32,6.32,0,0,0-2.08-.3,5.17,5.17,0,0,0-3.64,1.75v12.56h-2.51V125.74h1.69l.46,2.05a5.33,5.33,0,0,1,4.2-2.28,7.59,7.59,0,0,1,2,.26Z"/><path class="cls-3" d="M254.51,134.56c0,4,2.05,5.75,5.13,5.75a10,10,0,0,0,5-1.62l.63,1.79a11.59,11.59,0,0,1-5.92,1.78c-4.43,0-7.37-2.94-7.37-8.52,0-5.13,2.51-8.33,6.94-8.33s6.48,3.67,6.48,7.73v1.42Zm4.33-7.24c-3.07,0-4.33,2.71-4.33,5.49H263C263,130,262,127.32,258.84,127.32Z"/><path class="cls-3" d="M279.44,141.93v-9.78c0-3.07-1-4.76-3.7-4.76a6,6,0,0,0-4,1.85v12.69h-2.51V125.74h1.68l.5,1.91a7.12,7.12,0,0,1,5.09-2.24c3.8,0,5.49,2.28,5.49,6.31v10.21Z"/><path class="cls-3" d="M305.29,140.84a11.55,11.55,0,0,1-5.39,1.42c-4.09,0-7.07-2.41-7.07-8.42,0-5.49,3-8.43,7.07-8.43a10.35,10.35,0,0,1,5.29,1.29l-.73,1.78a8.71,8.71,0,0,0-4.42-1.06c-2.91,0-4.7,2.32-4.7,6.42,0,4.56,1.79,6.47,4.7,6.47A9.2,9.2,0,0,0,304.7,139Z"/><path class="cls-3" d="M318.61,141.93l-.43-2.08a6.37,6.37,0,0,1-5,2.41,4.84,4.84,0,0,1-5.22-4.95c0-2.81,2-4.63,5.72-4.63h4.2v-1.29c0-2.81-1.23-4-3.67-4a11.91,11.91,0,0,0-4.89,1.06l-.66-1.82a14.28,14.28,0,0,1,5.88-1.22c3.83,0,5.78,2,5.78,5.85v10.67Zm-.72-7.53h-3.8c-2.75,0-3.67,1.19-3.67,2.81,0,1.95,1.05,3.24,3.4,3.24a5.71,5.71,0,0,0,4.07-2Z"/><path class="cls-3" d="M335.31,140a6.1,6.1,0,0,1-4.66,2.28c-3.84,0-6.51-2.84-6.51-8.46,0-4.92,2.44-8.39,6.77-8.39a6.82,6.82,0,0,1,4.33,1.38,22.12,22.12,0,0,1-.13-2.64v-5h2.51v22.8h-1.88Zm-.2-11.5a6.94,6.94,0,0,0-3.93-1.16c-3,0-4.5,2.38-4.5,6.48s1.29,6.58,4.33,6.58a5.47,5.47,0,0,0,4.1-2Z"/><path class="cls-3" d="M352,141.93l-.43-2.08a6.37,6.37,0,0,1-5,2.41,4.84,4.84,0,0,1-5.22-4.95c0-2.81,2.05-4.63,5.72-4.63h4.2v-1.29c0-2.81-1.23-4-3.67-4a12,12,0,0,0-4.9,1.06l-.66-1.82a14.34,14.34,0,0,1,5.89-1.22c3.83,0,5.78,2,5.78,5.85v10.67Zm-.72-7.53h-3.81c-2.74,0-3.67,1.19-3.67,2.81,0,1.95,1.06,3.24,3.41,3.24a5.71,5.71,0,0,0,4.07-2Z"/><path class="cls-3" d="M19.17,149.28a7.52,7.52,0,0,0-2.08-.3c-2.19,0-3.14,1.23-3.14,3.8v1.29h3.83V156H14v14.28H11.47V156H8.86v-1.92h2.61v-1.45c0-3.7,1.78-5.72,5.42-5.72a10.6,10.6,0,0,1,2.51.33Z"/><path class="cls-3" d="M30.67,170.27l-.43-2.08a6.39,6.39,0,0,1-5,2.41,4.84,4.84,0,0,1-5.22-5c0-2.81,2-4.63,5.72-4.63H30v-1.28c0-2.81-1.23-4-3.67-4a11.89,11.89,0,0,0-4.89,1.05L20.72,155a14.15,14.15,0,0,1,5.89-1.23c3.83,0,5.78,2,5.78,5.85v10.68ZM30,162.73H26.14c-2.74,0-3.66,1.19-3.66,2.81,0,2,1.05,3.24,3.4,3.24a5.7,5.7,0,0,0,4.07-2Z"/><path class="cls-3" d="M38.54,158c0,3.47,8,2.25,8,7.73,0,2.62-2,4.83-5.61,4.83a9.7,9.7,0,0,1-4.9-1.39l.73-1.85a7.55,7.55,0,0,0,4.13,1.36c2,0,3.21-1.09,3.21-2.78,0-3.9-7.93-2.45-7.93-7.93,0-2.18,1.65-4.27,5.35-4.27a10.47,10.47,0,0,1,4.86,1.06l-.6,1.85a8.67,8.67,0,0,0-4.23-1C39.53,155.66,38.54,156.55,38.54,158Z"/><path class="cls-3" d="M52.26,162.9c0,4,2.05,5.75,5.12,5.75a10,10,0,0,0,5-1.62l.63,1.78a11.59,11.59,0,0,1-5.92,1.79c-4.43,0-7.37-2.94-7.37-8.53,0-5.12,2.51-8.33,6.94-8.33s6.48,3.67,6.48,7.74v1.42Zm4.33-7.24c-3.07,0-4.33,2.71-4.33,5.49h8.46C60.72,158.34,59.76,155.66,56.59,155.66Z"/><path class="cls-3" d="M76.26,162.9c0,4,2,5.75,5.12,5.75a10,10,0,0,0,5-1.62l.63,1.78a11.59,11.59,0,0,1-5.92,1.79c-4.43,0-7.37-2.94-7.37-8.53,0-5.12,2.51-8.33,6.94-8.33s6.48,3.67,6.48,7.74v1.42Zm4.33-7.24c-3.07,0-4.33,2.71-4.33,5.49h8.46C84.72,158.34,83.76,155.66,80.59,155.66Z"/><path class="cls-3" d="M92.86,158c0,3.47,8,2.25,8,7.73,0,2.62-2,4.83-5.62,4.83a9.66,9.66,0,0,1-4.89-1.39l.73-1.85a7.52,7.52,0,0,0,4.13,1.36c2,0,3.2-1.09,3.2-2.78,0-3.9-7.93-2.45-7.93-7.93,0-2.18,1.65-4.27,5.36-4.27a10.42,10.42,0,0,1,4.85,1.06l-.59,1.85a8.72,8.72,0,0,0-4.23-1C93.85,155.66,92.86,156.55,92.86,158Z"/><path class="cls-3" d="M110.05,170.6c-2.28,0-4.17-1.16-4.17-5v-9.75h-2.44v-1.82h2.44v-2.94l2.52-.79v3.73h4.72v1.82H108.4v10.05c0,1.72.62,2.54,2.14,2.54a6.9,6.9,0,0,0,2.58-.69l.5,1.85A7.94,7.94,0,0,1,110.05,170.6Z"/><path class="cls-3" d="M126.91,170.27l-.43-2.08a6.39,6.39,0,0,1-5,2.41,4.85,4.85,0,0,1-5.23-5c0-2.81,2-4.63,5.72-4.63h4.2v-1.28c0-2.81-1.22-4-3.67-4a11.92,11.92,0,0,0-4.89,1.05L117,155a14.1,14.1,0,0,1,5.88-1.23c3.84,0,5.78,2,5.78,5.85v10.68Zm-.73-7.54h-3.8c-2.75,0-3.67,1.19-3.67,2.81,0,2,1.06,3.24,3.4,3.24a5.7,5.7,0,0,0,4.07-2Z"/><path class="cls-3" d="M135.17,155.92a7,7,0,0,1,4.83-2.18c4.13,0,6.28,2.95,6.28,8.4,0,5.72-2.84,8.46-6.74,8.46a6.27,6.27,0,0,1-4.7-2.08l-.53,1.75h-1.39V147.46h2.52v6.28Zm.27,11a5.76,5.76,0,0,0,3.93,1.85c2.84,0,4.36-1.92,4.36-6.58,0-4.26-1.25-6.48-4.19-6.48a6,6,0,0,0-4.1,1.82Z"/><path class="cls-3" d="M150.25,165.81V147.46h2.48v19.27c0,1.39.62,2,2.41,2h.53v1.72a7.54,7.54,0,0,1-1.59.2C151,170.6,150.25,168.85,150.25,165.81Z"/><path class="cls-3" d="M160.79,162.9c0,4,2.05,5.75,5.12,5.75a10,10,0,0,0,5-1.62l.63,1.78a11.59,11.59,0,0,1-5.92,1.79c-4.43,0-7.37-2.94-7.37-8.53,0-5.12,2.51-8.33,6.94-8.33s6.48,3.67,6.48,7.74v1.42Zm4.33-7.24c-3.07,0-4.33,2.71-4.33,5.49h8.46C169.25,158.34,168.29,155.66,165.12,155.66Z"/><path class="cls-3" d="M187.5,169.18a11.54,11.54,0,0,1-5.38,1.42c-4.1,0-7.08-2.41-7.08-8.43,0-5.48,3-8.43,7.08-8.43A10.44,10.44,0,0,1,187.4,155l-.72,1.79a8.78,8.78,0,0,0-4.43-1.06c-2.91,0-4.7,2.31-4.7,6.41,0,4.56,1.79,6.48,4.7,6.48a9.1,9.1,0,0,0,4.66-1.36Z"/><path class="cls-3" d="M192.1,170.27V156.09l-1.78-.36v-1.66h4.23v16.2Zm-.23-22.58h2.68v2.65h-2.68Z"/><path class="cls-3" d="M209.62,168.32A6.13,6.13,0,0,1,205,170.6c-3.84,0-6.51-2.84-6.51-8.46,0-4.93,2.44-8.4,6.77-8.4a6.76,6.76,0,0,1,4.33,1.39,22.23,22.23,0,0,1-.13-2.64v-5h2.51v22.81h-1.88Zm-.2-11.5a6.91,6.91,0,0,0-3.93-1.16c-3,0-4.5,2.38-4.5,6.48s1.29,6.58,4.33,6.58a5.47,5.47,0,0,0,4.1-2.05Z"/><path class="cls-3" d="M226.31,170.27l-.43-2.08a6.39,6.39,0,0,1-5,2.41,4.84,4.84,0,0,1-5.22-5c0-2.81,2.05-4.63,5.72-4.63h4.2v-1.28c0-2.81-1.23-4-3.67-4a11.92,11.92,0,0,0-4.89,1.05l-.67-1.81a14.15,14.15,0,0,1,5.89-1.23c3.83,0,5.78,2,5.78,5.85v10.68Zm-.72-7.54h-3.8c-2.75,0-3.67,1.19-3.67,2.81,0,2,1,3.24,3.4,3.24a5.7,5.7,0,0,0,4.07-2Z"/><path class="cls-3" d="M231.87,166.57h2.48v3.77c0,2.84-.79,3.63-2.48,3.9v-1c.63-.23.79-.9.79-3l-.79-.17Z"/><path class="cls-3" d="M22,197.52a11.55,11.55,0,0,1-5.39,1.42c-4.1,0-7.07-2.42-7.07-8.43,0-5.49,3-8.43,7.07-8.43a10.47,10.47,0,0,1,5.29,1.29l-.72,1.78a8.89,8.89,0,0,0-4.44-1.05c-2.9,0-4.69,2.31-4.69,6.41,0,4.56,1.79,6.48,4.69,6.48a9.11,9.11,0,0,0,4.67-1.36Z"/><path class="cls-3" d="M38.64,190.47c0,5.46-2.64,8.47-7,8.47s-6.91-2.94-6.91-8.47c0-4.75,2.25-8.39,6.91-8.39C36.16,182.08,38.64,185.65,38.64,190.47Zm-2.58,0c0-4.23-1.42-6.51-4.39-6.51s-4.37,2.38-4.37,6.51c0,4,1.16,6.58,4.37,6.58S36.06,194.81,36.06,190.47Z"/><path class="cls-3" d="M52.62,198.61v-9.79c0-3.07-1-4.76-3.7-4.76a6,6,0,0,0-4,1.85v12.7H42.44v-16.2h1.69l.5,1.92a7.06,7.06,0,0,1,5.09-2.25c3.8,0,5.48,2.28,5.48,6.31v10.22Z"/><path class="cls-3" d="M61.09,186.38c0,3.47,8,2.24,8,7.73,0,2.61-2,4.83-5.62,4.83a9.76,9.76,0,0,1-4.89-1.39l.73-1.85a7.52,7.52,0,0,0,4.13,1.35c2,0,3.21-1.09,3.21-2.77,0-3.9-7.94-2.45-7.94-7.94,0-2.18,1.65-4.26,5.36-4.26A10.52,10.52,0,0,1,69,183.14l-.6,1.85a8.72,8.72,0,0,0-4.23-1C62.08,184,61.09,184.89,61.09,186.38Z"/><path class="cls-3" d="M74.11,198.61V184.43l-1.78-.37v-1.65h4.23v16.2ZM73.88,176h2.68v2.65H73.88Z"/><path class="cls-3" d="M91.63,196.66A6.12,6.12,0,0,1,87,198.94c-3.83,0-6.51-2.85-6.51-8.47,0-4.92,2.45-8.39,6.78-8.39a6.8,6.8,0,0,1,4.33,1.39,22.4,22.4,0,0,1-.13-2.65v-5H94v22.81H92.06Zm-.19-11.51A7,7,0,0,0,87.5,184c-3,0-4.49,2.38-4.49,6.47s1.29,6.58,4.33,6.58a5.5,5.5,0,0,0,4.1-2.05Z"/><path class="cls-3" d="M100.3,191.24c0,4,2,5.75,5.12,5.75a10,10,0,0,0,5-1.62l.63,1.78a11.55,11.55,0,0,1-5.91,1.79c-4.44,0-7.38-2.94-7.38-8.53,0-5.12,2.52-8.33,6.94-8.33,4.57,0,6.48,3.67,6.48,7.73v1.43Zm4.33-7.24c-3.08,0-4.33,2.71-4.33,5.48h8.46C108.76,186.67,107.8,184,104.63,184Z"/><path class="cls-3" d="M123.27,184.59a6.6,6.6,0,0,0-2.08-.3,5.18,5.18,0,0,0-3.64,1.76v12.56H115v-16.2h1.69l.46,2.05a5.35,5.35,0,0,1,4.2-2.28,7.59,7.59,0,0,1,2,.26Z"/><path class="cls-3" d="M136.26,198.61l-.43-2.09a6.35,6.35,0,0,1-5,2.42,4.85,4.85,0,0,1-5.22-5c0-2.81,2-4.63,5.72-4.63h4.2v-1.29c0-2.81-1.23-4-3.67-4a11.87,11.87,0,0,0-4.89,1.06l-.67-1.82a14.34,14.34,0,0,1,5.89-1.22c3.83,0,5.78,2,5.78,5.85v10.68Zm-.72-7.54h-3.81c-2.74,0-3.66,1.19-3.66,2.81,0,2,1.05,3.24,3.4,3.24a5.71,5.71,0,0,0,4.07-2Z"/><path class="cls-3" d="M152.46,198.61v-9.79c0-3.07-1-4.76-3.7-4.76a6,6,0,0,0-4,1.85v12.7h-2.51v-16.2H144l.49,1.92a7.1,7.1,0,0,1,5.09-2.25c3.8,0,5.49,2.28,5.49,6.31v10.22Z"/><path class="cls-3" d="M169.75,196.66a6.12,6.12,0,0,1-4.66,2.28c-3.83,0-6.51-2.85-6.51-8.47,0-4.92,2.45-8.39,6.78-8.39a6.75,6.75,0,0,1,4.32,1.39,24.75,24.75,0,0,1-.13-2.65v-5h2.51v22.81h-1.88Zm-.2-11.51a7,7,0,0,0-3.93-1.15c-3,0-4.5,2.38-4.5,6.47s1.29,6.58,4.33,6.58a5.47,5.47,0,0,0,4.1-2.05Z"/><path class="cls-3" d="M189.75,190.47c0,5.46-2.64,8.47-7,8.47s-6.91-2.94-6.91-8.47c0-4.75,2.25-8.39,6.91-8.39C187.27,182.08,189.75,185.65,189.75,190.47Zm-2.58,0c0-4.23-1.42-6.51-4.39-6.51s-4.37,2.38-4.37,6.51c0,4,1.16,6.58,4.37,6.58S187.17,194.81,187.17,190.47Z"/><path class="cls-3" d="M203.37,199.7v5.19h-2.54V182.41h1.95l.39,1.92a6.54,6.54,0,0,1,4.73-2.25c4.13,0,6.18,2.94,6.18,8.39,0,5.72-2.84,8.47-6.71,8.47a5.72,5.72,0,0,1-4.36-1.85A15.09,15.09,0,0,1,203.37,199.7Zm0-4.4a5.4,5.4,0,0,0,3.84,1.75c2.94,0,4.33-1.91,4.33-6.58,0-4.26-1.23-6.44-4.17-6.44a5.83,5.83,0,0,0-4,1.88Z"/><path class="cls-3" d="M231.24,190.47c0,5.46-2.64,8.47-7,8.47s-6.91-2.94-6.91-8.47c0-4.75,2.25-8.39,6.91-8.39C228.76,182.08,231.24,185.65,231.24,190.47Zm-2.58,0c0-4.23-1.42-6.51-4.39-6.51s-4.37,2.38-4.37,6.51c0,4,1.16,6.58,4.37,6.58S228.66,194.81,228.66,190.47Z"/><path class="cls-3" d="M236.9,186.38c0,3.47,8,2.24,8,7.73,0,2.61-2,4.83-5.62,4.83a9.76,9.76,0,0,1-4.89-1.39l.72-1.85a7.58,7.58,0,0,0,4.14,1.35c2,0,3.2-1.09,3.2-2.77,0-3.9-7.93-2.45-7.93-7.94,0-2.18,1.65-4.26,5.35-4.26a10.47,10.47,0,0,1,4.86,1.06l-.59,1.85a8.72,8.72,0,0,0-4.23-1C237.89,184,236.9,184.89,236.9,186.38Z"/><path class="cls-3" d="M249.92,198.61V184.43l-1.78-.37v-1.65h4.23v16.2ZM249.69,176h2.68v2.65h-2.68Z"/><path class="cls-3" d="M259,184.26a7,7,0,0,1,4.83-2.18c4.13,0,6.28,2.94,6.28,8.39,0,5.72-2.84,8.47-6.74,8.47a6.28,6.28,0,0,1-4.7-2.09l-.53,1.76h-1.39V175.8h2.52v6.28Zm.27,10.94a5.72,5.72,0,0,0,3.93,1.85c2.84,0,4.36-1.91,4.36-6.58,0-4.26-1.25-6.47-4.19-6.47a6,6,0,0,0-4.1,1.82Z"/><path class="cls-3" d="M274.09,194.14V175.8h2.48v19.27c0,1.39.62,2,2.41,2h.53v1.72a7.54,7.54,0,0,1-1.59.2C274.85,198.94,274.09,197.19,274.09,194.14Z"/><path class="cls-3" d="M284.63,191.24c0,4,2.05,5.75,5.12,5.75a10,10,0,0,0,5-1.62l.63,1.78a11.59,11.59,0,0,1-5.92,1.79c-4.43,0-7.37-2.94-7.37-8.53,0-5.12,2.51-8.33,6.94-8.33s6.48,3.67,6.48,7.73v1.43ZM289,184c-3.07,0-4.33,2.71-4.33,5.48h8.46C293.09,186.67,292.13,184,289,184Z"/><path class="cls-3" d="M301.23,186.38c0,3.47,8,2.24,8,7.73,0,2.61-2,4.83-5.62,4.83a9.76,9.76,0,0,1-4.89-1.39l.73-1.85a7.52,7.52,0,0,0,4.13,1.35c2,0,3.2-1.09,3.2-2.77,0-3.9-7.93-2.45-7.93-7.94,0-2.18,1.65-4.26,5.36-4.26a10.42,10.42,0,0,1,4.85,1.06L308.5,185a8.72,8.72,0,0,0-4.23-1C302.22,184,301.23,184.89,301.23,186.38Z"/><path class="cls-3" d="M18.28,212.93a6.39,6.39,0,0,0-2.09-.3,5.15,5.15,0,0,0-3.63,1.75v12.56H10.05V210.75h1.68l.46,2.05a5.37,5.37,0,0,1,4.2-2.28,7.5,7.5,0,0,1,2.05.26Z"/><path class="cls-3" d="M22.54,226.94V212.76l-1.78-.36v-1.65H25v16.19Zm-.23-22.57H25V207H22.31Z"/><path class="cls-3" d="M31.37,219.57c0,4,2.05,5.75,5.12,5.75a10.06,10.06,0,0,0,5-1.62l.62,1.79a11.55,11.55,0,0,1-5.91,1.78c-4.43,0-7.37-2.94-7.37-8.52,0-5.13,2.51-8.33,6.94-8.33s6.48,3.67,6.48,7.73v1.42Zm4.33-7.24c-3.08,0-4.33,2.71-4.33,5.49h8.46C39.83,215,38.87,212.33,35.7,212.33Z"/><path class="cls-3" d="M48,214.71c0,3.47,8,2.25,8,7.74,0,2.61-2,4.82-5.62,4.82a9.73,9.73,0,0,1-4.9-1.39l.73-1.85a7.58,7.58,0,0,0,4.13,1.36c2,0,3.21-1.09,3.21-2.78,0-3.9-7.93-2.44-7.93-7.93,0-2.18,1.65-4.26,5.35-4.26a10.59,10.59,0,0,1,4.86,1.05l-.59,1.85a8.72,8.72,0,0,0-4.23-1C49,212.33,48,213.23,48,214.71Z"/><path class="cls-3" d="M73.62,210.75v1.75a17.71,17.71,0,0,1-3.94-.33A4.85,4.85,0,0,1,71.9,216c0,3.84-3.67,5.46-6.12,5.46a7,7,0,0,1-2.11-.37c-1.19.1-1.72.57-1.72,1.16,0,2,10.61,0,10.61,5.75,0,3.77-3.47,5.59-6.94,5.59-3.18,0-6.45-1.69-6.45-4.79,0-2.15,1.65-3.47,4.1-3.84-2-.2-3.64-.89-3.64-2.44,0-1.13.76-2,2.45-2.15A4.81,4.81,0,0,1,59.6,216c0-4.23,3.8-5.61,6.15-5.61C67.07,210.42,69.72,210.65,73.62,210.75Zm-8.17,14.54c-2.44.07-3.87,1.32-3.87,3.27s2,3.31,4.1,3.31c2.48,0,4.37-1.13,4.37-3.7C70.05,226.51,68.69,225.62,65.45,225.29Zm4.1-9.29a3.47,3.47,0,0,0-3.8-3.73c-1.59,0-3.83.72-3.83,3.73s2.14,3.67,3.83,3.67S69.55,218.91,69.55,216Z"/><path class="cls-3" d="M90,218.81c0,5.46-2.65,8.46-7,8.46s-6.91-2.94-6.91-8.46c0-4.76,2.24-8.39,6.91-8.39C87.5,210.42,90,214,90,218.81Zm-2.58,0c0-4.23-1.42-6.51-4.39-6.51s-4.37,2.38-4.37,6.51c0,4,1.16,6.58,4.37,6.58S87.4,223.14,87.4,218.81Z"/><path class="cls-3" d="M95.63,214.71c0,3.47,8,2.25,8,7.74,0,2.61-2,4.82-5.62,4.82a9.73,9.73,0,0,1-4.9-1.39l.73-1.85A7.58,7.58,0,0,0,98,225.39c2,0,3.21-1.09,3.21-2.78,0-3.9-7.93-2.44-7.93-7.93,0-2.18,1.65-4.26,5.35-4.26a10.59,10.59,0,0,1,4.86,1.05l-.59,1.85a8.72,8.72,0,0,0-4.23-1C96.63,212.33,95.63,213.23,95.63,214.71Z"/><path class="cls-3" d="M116.63,219.57c0,4,2.05,5.75,5.12,5.75a10,10,0,0,0,5-1.62l.63,1.79a11.55,11.55,0,0,1-5.91,1.78c-4.43,0-7.37-2.94-7.37-8.52,0-5.13,2.51-8.33,6.94-8.33s6.47,3.67,6.47,7.73v1.42Zm4.33-7.24c-3.08,0-4.33,2.71-4.33,5.49h8.46C125.09,215,124.13,212.33,121,212.33Z"/><path class="cls-3" d="M141.55,226.94v-9.78c0-3.07-1-4.76-3.7-4.76a6,6,0,0,0-4,1.85v12.69h-2.51V210.75h1.69l.49,1.91a7.14,7.14,0,0,1,5.09-2.24c3.81,0,5.49,2.28,5.49,6.31v10.21Z"/><path class="cls-3" d="M167.4,225.85a11.54,11.54,0,0,1-5.38,1.42c-4.1,0-7.08-2.41-7.08-8.42,0-5.49,3-8.43,7.08-8.43a10.34,10.34,0,0,1,5.28,1.29l-.72,1.78a8.78,8.78,0,0,0-4.43-1.06c-2.91,0-4.69,2.32-4.69,6.42,0,4.56,1.78,6.47,4.69,6.47a9.2,9.2,0,0,0,4.66-1.35Z"/><path class="cls-3" d="M180.73,226.94l-.43-2.08a6.39,6.39,0,0,1-5,2.41,4.85,4.85,0,0,1-5.23-5c0-2.8,2-4.62,5.72-4.62H180V216.4c0-2.81-1.22-4-3.67-4a11.91,11.91,0,0,0-4.89,1.06l-.66-1.82a14.32,14.32,0,0,1,5.88-1.22c3.84,0,5.79,2,5.79,5.85v10.67Zm-.73-7.53h-3.8c-2.74,0-3.67,1.19-3.67,2.81,0,1.95,1.06,3.24,3.41,3.24a5.71,5.71,0,0,0,4.06-2Z"/><path class="cls-3" d="M197.42,225a6.08,6.08,0,0,1-4.66,2.28c-3.83,0-6.51-2.84-6.51-8.46,0-4.92,2.45-8.39,6.78-8.39a6.87,6.87,0,0,1,4.33,1.38,22.16,22.16,0,0,1-.14-2.64v-5h2.52v22.8h-1.89Zm-.2-11.5a6.91,6.91,0,0,0-3.93-1.16c-3,0-4.49,2.38-4.49,6.48s1.28,6.58,4.33,6.58a5.47,5.47,0,0,0,4.09-2Z"/><path class="cls-3" d="M214.12,226.94l-.43-2.08a6.39,6.39,0,0,1-5,2.41,4.85,4.85,0,0,1-5.23-5c0-2.8,2.05-4.62,5.72-4.62h4.2V216.4c0-2.81-1.22-4-3.67-4a11.91,11.91,0,0,0-4.89,1.06l-.66-1.82a14.28,14.28,0,0,1,5.88-1.22c3.83,0,5.79,2,5.79,5.85v10.67Zm-.73-7.53h-3.8c-2.74,0-3.67,1.19-3.67,2.81,0,1.95,1.06,3.24,3.4,3.24a5.71,5.71,0,0,0,4.07-2Z"/><path class="cls-3" d="M20.85,259.26l-.37-1.85a6.89,6.89,0,0,1-5,2.18c-3.6,0-5.59-2.15-5.59-6.58v-9.95h2.51v9.79c0,3.34,1.06,4.72,3.67,4.72a6.36,6.36,0,0,0,4-1.58V243.06H22.6v16.2Z"/><path class="cls-3" d="M36.94,259.26v-9.78c0-3.08-.95-4.76-3.7-4.76a6,6,0,0,0-4,1.85v12.69H26.76v-16.2h1.69L29,245A7.06,7.06,0,0,1,34,242.73c3.8,0,5.48,2.28,5.48,6.32v10.21Z"/><path class="cls-3" d="M53.57,259.26l-.43-2.08a6.37,6.37,0,0,1-5,2.41,4.84,4.84,0,0,1-5.22-5c0-2.81,2-4.63,5.72-4.63h4.2v-1.28c0-2.81-1.23-4-3.67-4a12.09,12.09,0,0,0-4.89,1.05L43.62,244a14.15,14.15,0,0,1,5.89-1.23c3.83,0,5.78,2,5.78,5.85v10.68Zm-.72-7.54h-3.8c-2.75,0-3.67,1.19-3.67,2.81,0,2,1,3.24,3.4,3.24a5.7,5.7,0,0,0,4.07-2Z"/><path class="cls-3" d="M80.69,257.31A6.13,6.13,0,0,1,76,259.59c-3.84,0-6.51-2.84-6.51-8.46,0-4.93,2.44-8.4,6.77-8.4a6.76,6.76,0,0,1,4.33,1.39,22.23,22.23,0,0,1-.13-2.64v-5H83v22.81H81.12Zm-.2-11.5a6.91,6.91,0,0,0-3.93-1.16c-3,0-4.5,2.38-4.5,6.48s1.29,6.58,4.33,6.58a5.47,5.47,0,0,0,4.1-2Z"/><path class="cls-3" d="M89.35,251.89c0,4,2.05,5.75,5.12,5.75a10,10,0,0,0,5-1.62l.63,1.79a11.72,11.72,0,0,1-5.92,1.78c-4.43,0-7.37-2.94-7.37-8.53,0-5.12,2.51-8.33,6.94-8.33s6.48,3.67,6.48,7.74v1.42Zm4.33-7.24c-3.07,0-4.33,2.71-4.33,5.49h8.46C97.81,247.33,96.85,244.65,93.68,244.65Z"/><path class="cls-3" d="M113.35,251.89c0,4,2.05,5.75,5.13,5.75a10,10,0,0,0,5-1.62l.63,1.79a11.69,11.69,0,0,1-5.92,1.78c-4.43,0-7.37-2.94-7.37-8.53,0-5.12,2.51-8.33,6.94-8.33s6.48,3.67,6.48,7.74v1.42Zm4.33-7.24c-3.07,0-4.33,2.71-4.33,5.49h8.46C121.81,247.33,120.86,244.65,117.68,244.65Z"/><path class="cls-3" d="M128.23,254.8V236.45h2.48v19.27c0,1.39.63,2,2.41,2h.53v1.72a7.42,7.42,0,0,1-1.59.2C129,259.59,128.23,257.84,128.23,254.8Z"/><path class="cls-3" d="M136.92,254.8V236.45h2.48v19.27c0,1.39.63,2,2.41,2h.53v1.72a7.39,7.39,0,0,1-1.58.2C137.68,259.59,136.92,257.84,136.92,254.8Z"/><path class="cls-3" d="M155.5,259.26l-.43-2.08a6.39,6.39,0,0,1-5,2.41,4.84,4.84,0,0,1-5.22-5c0-2.81,2-4.63,5.71-4.63h4.2v-1.28c0-2.81-1.22-4-3.67-4a12.09,12.09,0,0,0-4.89,1.05l-.66-1.81a14.14,14.14,0,0,1,5.88-1.23c3.84,0,5.79,2,5.79,5.85v10.68Zm-.73-7.54H151c-2.74,0-3.67,1.19-3.67,2.81,0,2,1.06,3.24,3.41,3.24a5.7,5.7,0,0,0,4.06-2Z"/><path class="cls-3" d="M163.37,247c0,3.47,8,2.25,8,7.73,0,2.62-2,4.83-5.62,4.83a9.66,9.66,0,0,1-4.89-1.39l.73-1.85a7.52,7.52,0,0,0,4.13,1.36c2,0,3.2-1.09,3.2-2.78,0-3.9-7.93-2.45-7.93-7.93,0-2.18,1.65-4.27,5.36-4.27a10.42,10.42,0,0,1,4.85,1.06l-.59,1.85a8.72,8.72,0,0,0-4.23-1C164.36,244.65,163.37,245.54,163.37,247Z"/><path class="cls-3" d="M174.61,255.56h2.48v3.7h-2.48Z"/><path class="cls-4" d="M49,80.26h-7.5l-1.06,5H34.84l6.57-24h8.73l6.57,24H50.14Zm-6.5-4.48H48l-2-9.51H44.74Z"/><path class="cls-4" d="M72.48,72.73a8.77,8.77,0,0,0-4.15-1c-2.06,0-3.41,1.21-3.41,4.83s1.17,4.83,3.44,4.83a10.39,10.39,0,0,0,4.55-1.24l1,4a14,14,0,0,1-6.07,1.52c-5.54,0-8.66-3.12-8.66-9.09,0-5.57,3.09-9,8.63-9A12.1,12.1,0,0,1,73.9,69Z"/><path class="cls-4" d="M89.28,84.41a10.73,10.73,0,0,1-4.93,1.24c-3.27,0-5.69-2.09-5.69-6.25V71.88H76.18v-4h2.59v-3l5.47-1.78V67.9h4.44v4H84.24v7.35a1.43,1.43,0,0,0,1.6,1.63,6.16,6.16,0,0,0,2.62-.6Z"/><path class="cls-4" d="M94.15,85.3V71.88l-2.06-.47V67.9h7.64V85.3ZM94,60.65h5.61v4.9H94Z"/><path class="cls-4" d="M115.74,85.3h-8.17l-5-17.4h6.32l3.16,14h.14l3.13-14h5.61Z"/><path class="cls-4" d="M125.23,85.3V71.88l-2.06-.47V67.9h7.63V85.3Zm-.11-24.65h5.61v4.9h-5.61Z"/><path class="cls-4" d="M146.6,69.32A8.42,8.42,0,0,1,146,66V60.8h5.57V85.3H147l-.57-1.85a5.11,5.11,0,0,1-4.4,2.2c-3.87,0-7.14-2.73-7.14-9.05,0-6,3.55-9.06,7.57-9.06A5.13,5.13,0,0,1,146.6,69.32ZM146,72.37a5.68,5.68,0,0,0-2.63-.67c-1.67,0-3,1-3,4.86s1.28,5,2.94,5a4.14,4.14,0,0,0,2.67-1.1Z"/><path class="cls-4" d="M167.1,85.3l-.71-2a6,6,0,0,1-4.94,2.34c-3.44,0-6-2.2-6-5.71,0-3.34,2.48-5.22,6.78-5.22h3.23v-.64c0-1.85-1.24-2.28-2.63-2.28a12.42,12.42,0,0,0-5.18,1.14l-1.39-4a18.72,18.72,0,0,1,7.1-1.42c5.37,0,7.53,2.35,7.53,6.93V85.3ZM165.5,78h-2.24c-1.49,0-2.27.71-2.27,1.84a1.89,1.89,0,0,0,2.09,2.1,5.08,5.08,0,0,0,2.42-.71Z"/><path class="cls-4" d="M186.39,69.32a8.41,8.41,0,0,1-.57-3.34V60.8h5.57V85.3h-4.65l-.57-1.85a5.11,5.11,0,0,1-4.4,2.2c-3.87,0-7.14-2.73-7.14-9.05,0-6,3.55-9.06,7.56-9.06A5.17,5.17,0,0,1,186.39,69.32Zm-.57,3.05a5.68,5.68,0,0,0-2.63-.67c-1.67,0-3,1-3,4.86s1.27,5,2.94,5a4.14,4.14,0,0,0,2.67-1.1Z"/><path class="cls-4" d="M201,78.09c0,2,1.28,3.3,4,3.3a12.62,12.62,0,0,0,4.89-1.28l1,3.91a15.23,15.23,0,0,1-6.75,1.63c-5.57,0-8.8-3.44-8.8-9.09,0-5.25,2.52-9,8.41-9,5.43,0,7.6,3.87,7.6,8.24v2.31Zm2.55-6.46c-1.84,0-2.55,1.67-2.55,3.27h5C206,73.05,205.42,71.63,203.5,71.63Z"/><path class="cls-4" d="M226.13,72.3a11.15,11.15,0,0,0-4-.78c-1.28,0-1.92.39-1.92,1.1,0,2.2,7,1.63,7,7.17,0,3.38-2.45,5.86-7.28,5.86a11.74,11.74,0,0,1-5.19-1.17l1-3.87a8.55,8.55,0,0,0,4,1.1c1.28,0,2.1-.53,2.1-1.42,0-2.55-6.89-1.81-6.89-7.74,0-2.73,2-5,7.1-5a16.78,16.78,0,0,1,4.76.68Z"/><path class="cls-4" d="M230.93,67.9h5.68v5.54h-5.68Zm0,11.86h5.68V85.3h-5.68Z"/><path class="cls-5" d="M329.27,225.64s23.84,7.51,32.66-20.9l4.24,3.26s-1.63,31.35-34.61,29.39c-.33,0,0,1.31,0,1.31a35.39,35.39,0,0,1-2.29-13.06"/><path class="cls-6" d="M335.37,268.31s15.67,60.53,18.72,72.28c0,0,7,1.31,7.4,2.61S349.3,345,348,344.08s-24.39-52.26-30.49-73.59Z"/><path class="cls-6" d="M304.46,268.31s-15.67,60.53-18.72,72.28c0,0-7,1.31-7.4,2.61s12.19,1.75,13.49.88,24.39-52.26,30.49-73.59Z"/><path class="cls-7" d="M307.94,225.2s-7,34.4-5.67,45.29c0,0,24,4.79,36.58-.87,0,0-2.18-30.92-7.84-43.55,0,0-3.92-4.79-23.07-.87"/><path class="cls-8" d="M315.88,218.78l-.65,5.88s10.45,5,10.45.32c0-1-1.63-7.18-1.63-7.18Z"/><path class="cls-8" d="M328.92,210.57c0,6.59.7,11.93-5.89,11.93a11.93,11.93,0,0,1-11.92-11.93c0-6.58-3.45-11.92,11.92-11.92,6.59,0,5.89,5.34,5.89,11.92"/><path class="cls-6" d="M316.31,202.9s9.47,5.22,14-1.64c0,0-5.87-8.16-14.37-4.57s-5.87,6.86-5.87,6.86a5.06,5.06,0,0,0-2.29,5.88c1,4.24,5.22,7.51,5.22,7.51s7.19-6.53,2-12.41Z"/><path class="cls-9" d="M327.09,209.26s3.1,3.92,3.43,5.88c.16.49-3.27.49-3.27.49s-1.3-3.59-.16-6.37"/><path class="cls-10" d="M207.63,507.36c0,2.56-19.08,4.64-42.61,4.64s-42.62-2.08-42.62-4.64,19.08-4.64,42.62-4.64,42.61,2.08,42.61,4.64"/><path class="cls-10" d="M512,507.36c0,2.56-19.08,4.64-42.62,4.64s-42.61-2.08-42.61-4.64,19.08-4.64,42.61-4.64S512,504.8,512,507.36"/><path class="cls-11" d="M389,459.3c0-5.22-3.16-9.82-8-12.57h41V404.64c-2.66,5.42-7.54,9.07-13.14,9.07-8.44,0-15.27-8.24-15.27-18.41s6.83-18.42,15.27-18.42c5.6,0,10.48,3.65,13.14,9.08V343.87H381c4.83,2.75,8,7.36,8,12.59,0,8.43-8.24,15.27-18.41,15.27s-18.42-6.84-18.42-15.27c0-5.23,3.18-9.84,8-12.59h-41V446.73h41c-4.81,2.75-8,7.35-8,12.57,0,8.44,8.25,15.27,18.42,15.27S389,467.74,389,459.3"/><path class="cls-12" d="M409.74,319.45c.78-5.16-1.67-10.18-6-13.62l40.54,6.09,6.09-40.54c2,5.17,6.09,9,11.25,9.75,8.34,1.26,16.32-5.88,17.83-15.94s-4-19.22-12.36-20.47c-5.16-.78-10.19,1.66-13.62,6l6.08-40.54L357.81,194.92l-6.08,40.54c-2-5.17-6.09-9-11.25-9.76-8.34-1.25-16.33,5.89-17.84,16s4,19.22,12.37,20.47c5.16.78,10.18-1.66,13.62-6l-6.09,40.54,40.54,6.09c-5.17,2-9,6.09-9.76,11.25-1.25,8.34,5.89,16.33,15.94,17.83s19.23-4,20.48-12.36"/><path class="cls-13" d="M306.55,310.87c-8.43,0-15.26-8.25-15.26-18.42S298.12,274,306.55,274c5.22,0,9.82,3.16,12.57,8V241H277.81c4.84-2.75,8-7.36,8-12.59,0-8.44-8.24-15.27-18.41-15.27S249,220,249,228.43c0,5.23,3.17,9.84,8,12.59H216.26v42.09c2.66-5.42,7.54-9.07,13.15-9.07,8.43,0,15.26,8.24,15.26,18.41s-6.83,18.42-15.26,18.42c-5.61,0-10.49-3.65-13.15-9.07v42.08H319.12v-41c-2.75,4.82-7.35,8-12.57,8"/><path class="cls-12" d="M286.11,433.59c0,5.6-3.65,10.48-9.07,13.14h42.08v-41c2.76,4.82,7.36,8,12.58,8,8.43,0,15.27-8.24,15.27-18.41s-6.84-18.42-15.27-18.42c-5.22,0-9.82,3.17-12.58,8v-41h-41c4.8-2.76,7.95-7.35,7.95-12.56,0-8.43-8.25-15.27-18.41-15.27s-18.42,6.84-18.42,15.27c0,5.21,3.15,9.8,8,12.56h-41v42.67c-2.59-5.75-7.63-9.66-13.44-9.66-8.43,0-15.27,8.25-15.27,18.42s6.84,18.41,15.27,18.41c5.81,0,10.85-3.9,13.44-9.65v42.67h42.08c-5.42-2.66-9.07-7.54-9.07-13.14,0-8.44,8.25-15.27,18.42-15.27s18.41,6.83,18.41,15.27"/><path class="cls-8" d="M181,380.6c0,6.59.7,11.92-5.89,11.92a11.92,11.92,0,0,1-11.92-11.92c0-6.59-3.45-11.93,11.92-11.93,6.59,0,5.89,5.34,5.89,11.93"/><path class="cls-8" d="M167.07,387l-4.57,3.6s6.21,5.87,8.49,5.55c1.31-.33,3.59-5.55,3.59-5.55Z"/><path class="cls-8" d="M212.56,424s2.09,2.6,3.09,1.09.76-12.8,0-12.8-2,7.78-3.51,8.53.42,3.18.42,3.18"/><path class="cls-14" d="M166.86,399.16s16.11,24.38,45.28,20.46l-.43,4.79S182.53,435.73,159,410.48c0,0-5.66-5.23-1.75-11.76s9.59.44,9.59.44"/><path class="cls-6" d="M139.64,415.05S120.7,443.79,141,464.69c0,0-9.8,29.39-9.8,38.53h4.57s18.29-34.61,19.6-38.53-9.8-26.13-4.58-37.89Z"/><path class="cls-6" d="M138.11,429.36S141,459.14,170.34,465c0,0,7.95,26.05,13.62,33.23l3.58-2.84s-4.94-32.93-6.35-36.82-23.89-14.42-27.08-26.88Z"/><path class="cls-7" d="M163.13,388.86s-21.29,10.31-33.42,40.64c0,0,19.69,15.33,31.59,12.94,0,0-1.51-26.91,11-47.3,0,0-7.72-2.46-9.21-6.28"/><path class="cls-8" d="M198.21,411.35s3-5.44,3.92-5.23-.22,2.83-.22,2.83,8.49,2,8.7,2.83S200,414,200,414Z"/><path class="cls-5" d="M154.23,400s10.88,19.59,17.85,25.25S200,414,200,414l-1.74-3.48-18.73,5.22L166,394.8s-4.79-5.22-9.57-2.61-2.18,7.84-2.18,7.84"/><path class="cls-6" d="M135.72,503.22s2.62,3.92,5.55,4.58c1.31,1.3-8.16.65-10.45-1-1.3-1,.33-3.6.33-3.6Z"/><path class="cls-6" d="M187,494.7s4.61.95,7.16-.65c1.85,0-5.35,6.2-8.12,6.65-1.62.21-2.3-2.79-2.3-2.79Z"/><path class="cls-6" d="M168.38,372.92s9.47,5.23,14-1.63c0,0-5.88-8.17-14.37-4.57s-5.88,6.85-5.88,6.85a5.07,5.07,0,0,0-2.28,5.88c1,4.25,5.22,7.51,5.22,7.51s7.19-6.53,2-12.41Z"/><path class="cls-9" d="M179.16,379.29s3.1,3.92,3.43,5.88c.16.49-3.27.49-3.27.49s-1.31-3.59-.16-6.37"/><path class="cls-8" d="M413.93,379.38s-3.29.49-3-1.3,8.12-9.92,8.68-9.41-3.8,7.08-3.2,8.66-2.47,2.05-2.47,2.05"/><path class="cls-14" d="M464.86,392.68s-28.48,6.57-46.92-16.37l-3,3.77s13.34,28.3,47.78,26.2c0,0,7.71.12,9.36-7.32s-7.24-6.28-7.24-6.28"/><path class="cls-6" d="M457.94,432.9s2.62,29.61,8.27,42.24,10,26.12,10,26.12l-4.79,3.49s8.27.43,10.88-1.31c1.31-2.61-3.48-44.85-3-53.56s-.44-20.9-.44-20.9-13.5-3-20.9,3.92"/><path class="cls-6" d="M428.27,499.47c2.09.83,5.1-.06,6.22-.45-.14-4.26-.94-30.65-.36-34.13.64-3.79,19.41-17.19,20.24-29.11L468.6,431s2.41,27.68-23.47,38c0,0-2.81,24.4-6.7,32.3h0s-.12,2.86-1.63,2.93c-2.61.06-10.23-4.39-8.54-4.71"/><path class="cls-8" d="M457.81,375.21c0,6.58-.7,11.92,5.89,11.92a11.92,11.92,0,0,0,11.92-11.92c0-6.59,3.45-11.93-11.92-11.93-6.59,0-5.89,5.34-5.89,11.93"/><path class="cls-6" d="M470.42,367.53s-9.47,5.22-14.05-1.63c0,0,5.88-8.17,14.37-4.57s5.88,6.85,5.88,6.85a5.06,5.06,0,0,1,2.29,5.88c-1,4.25-5.23,7.51-5.23,7.51s-7.18-6.53-2-12.41Z"/><path class="cls-9" d="M459.64,373.9s-3.1,3.92-3.43,5.88c-.16.49,3.27.49,3.27.49s1.3-3.6.16-6.37"/><path class="cls-8" d="M462.08,386.31l-.66,4.14s6.1.22,7.84-2.18l-.22-4.79Z"/><path class="cls-7" d="M461,389.36s-7,36.57-8.27,48.33c0,0,17,8.28,27.43-3.05,0,0,1.52-34-10.67-47.9,0,0-6.1,2.84-8.49,2.62"/><path class="cls-8" d="M427.28,411.59s-3-5.49-3.84-5.28.18,2.83.18,2.83-8.52,1.83-8.75,2.7,10.63,2.33,10.63,2.33Z"/><path class="cls-5" d="M471.43,400.94s-11.18,19.43-18.24,25-27.69-11.74-27.69-11.74l1.8-3.46,18.64,5.51,13.81-20.69s4.87-5.15,9.62-2.47,2.06,7.87,2.06,7.87"/><path class="cls-8" d="M349.57,242.88s.19-3.06.75-3.67,2.39-3.21,2.54-2.33a4.74,4.74,0,0,1-.54,2.27s4.32-2.63,5.36-1.9-2.38,6.18-3.31,7.31a5.91,5.91,0,0,1-2.82,1.56Z"/><path class="cls-5" d="M306,232.16s10.89,19.59,17.85,25.25,27.87-11.32,27.87-11.32L350,242.61l-18.72,5.22-13.5-20.9s-4.79-5.22-9.58-2.61-2.18,7.84-2.18,7.84"/></svg>