<svg id="Capa_1" data-name="Capa 1" xmlns="http://www.w3.org/2000/svg" viewBox="0 0 1024 512"><defs><style>.cls-1{fill:#fff;}.cls-2{fill:#34bacc;}.cls-11,.cls-3,.cls-5,.cls-7,.cls-9{fill:none;}.cls-3,.cls-5,.cls-7{stroke:#222b54;}.cls-11,.cls-3,.cls-7,.cls-9{stroke-linecap:round;stroke-linejoin:round;}.cls-3,.cls-5,.cls-9{stroke-width:2px;}.cls-4{fill:#fdfdfd;}.cls-12,.cls-13,.cls-14,.cls-15,.cls-5{stroke-miterlimit:10;}.cls-6{fill:#eb575a;}.cls-8{fill:#faf8f8;}.cls-11,.cls-9{stroke:#7a7ba3;}.cls-10{fill:#f4d511;}.cls-12{fill:#e7334a;}.cls-12,.cls-13,.cls-14,.cls-15{stroke:#fff;}.cls-13{fill:#55b682;}.cls-14,.cls-15{fill:#615185;}.cls-14{stroke-width:0.5px;}</style></defs><rect class="cls-1" x="37.46" y="196.63" width="343.19" height="269.12" transform="translate(-50.85 38.21) rotate(-9.32)"/><path class="cls-2" d="M341.14,206,43.93,254.79C27.29,257.52,11.28,241.6,9.3,220.37L2.2,144.45c-1.75-18.74,8.17-35,22.85-37.38L311.83,60c14.68-2.41,29.26,9.79,33.59,28.12L363,162.36c4.9,20.75-5.19,40.95-21.82,43.68"/><line class="cls-3" x1="62.64" y1="80.38" x2="68.95" y2="118.88"/><line class="cls-3" x1="144.46" y1="66.96" x2="150.78" y2="105.46"/><line class="cls-3" x1="226.29" y1="53.54" x2="232.61" y2="92.04"/><line class="cls-3" x1="308.13" y1="40.11" x2="314.44" y2="78.61"/><line class="cls-3" x1="21.72" y1="87.09" x2="28.03" y2="125.59"/><line class="cls-3" x1="103.55" y1="73.67" x2="109.87" y2="112.17"/><line class="cls-3" x1="185.39" y1="60.25" x2="191.7" y2="98.75"/><line class="cls-3" x1="267.21" y1="46.82" x2="273.53" y2="85.32"/><rect class="cls-4" x="27.12" y="196.51" width="366.88" height="287.69" transform="translate(-52.32 38.57) rotate(-9.32)"/><rect class="cls-5" x="27.12" y="196.51" width="366.88" height="287.69" transform="translate(-52.32 38.57) rotate(-9.32)"/><path class="cls-6" d="M178.94,335.77a3.27,3.27,0,0,0-4.58.75l-6,8.4-8.4-6a3.28,3.28,0,0,0-3.83,5.33l8.4,6-6,8.39a3.28,3.28,0,0,0,5.33,3.83l6-8.39,8.39,6a3.23,3.23,0,0,0,2.44.58,3.29,3.29,0,0,0,1.39-5.91l-8.4-6,6-8.39a3.29,3.29,0,0,0-.75-4.58"/><path class="cls-6" d="M252,289.51l6-8.4a3.28,3.28,0,0,0-5.34-3.82l-6,8.39-8.39-6a3.28,3.28,0,0,0-3.83,5.33l8.4,6-6,8.4a3.27,3.27,0,1,0,5.32,3.82l6-8.39,8.4,6a3.27,3.27,0,0,0,4.58-.75,3.27,3.27,0,0,0-.75-4.57Z"/><path class="cls-6" d="M267,380.52l6-8.4a3.28,3.28,0,1,0-5.33-3.83l-6,8.4-8.39-6a3.28,3.28,0,1,0-3.83,5.33l8.39,6-6,8.39a3.29,3.29,0,0,0,3.2,5.16,3.25,3.25,0,0,0,2.13-1.33l6-8.39,8.4,6a3.28,3.28,0,1,0,3.83-5.32Z"/><path class="cls-6" d="M95.6,459.39l6-8.39a3.28,3.28,0,1,0-5.33-3.83l-6,8.4-8.39-6a3.28,3.28,0,1,0-3.83,5.33l8.39,6-6,8.39a3.28,3.28,0,0,0,3.2,5.15,3.2,3.2,0,0,0,2.13-1.32l6-8.39,8.4,6a3.28,3.28,0,0,0,3.83-5.33Z"/><path class="cls-6" d="M109.78,264.46l6-8.39a3.28,3.28,0,0,0-5.33-3.83l-6,8.39-8.4-6a3.28,3.28,0,1,0-3.82,5.33l8.39,6-6,8.39a3.28,3.28,0,0,0,3.2,5.15,3.32,3.32,0,0,0,2.13-1.32l6-8.4,8.4,6a3.28,3.28,0,0,0,4.57-.75,3.27,3.27,0,0,0-.75-4.58Z"/><path class="cls-6" d="M156.92,256.73l6-8.4a3.28,3.28,0,0,0-5.33-3.82l-6,8.39-8.39-6a3.28,3.28,0,1,0-3.83,5.32l8.39,6-6,8.4a3.28,3.28,0,1,0,5.33,3.82l6-8.39,8.4,6a3.32,3.32,0,0,0,2.44.57,3.28,3.28,0,0,0,1.39-5.9Z"/><path class="cls-7" d="M378.77,387.14,348,199.79M333.58,394.14,302.84,206.8M288.71,401.5,258,214.16m-14.13,194.7L213.12,221.52m-6.61,240.65L168.24,228.88m-6.6,240.65L123.37,236.24m-6.6,240.65L78.51,243.6m-6.6,240.65L33.64,251M72,484.76l134.6-22.08M64.32,438l314.34-51.56m-322,4.8L371,339.67M49,344.48l314.34-51.56m-322,4.79,314.34-51.56M33.64,251,348,199.4"/><path class="cls-8" d="M408.85,122.11A19,19,0,0,1,416.28,96c40.61-25.93,48.6-27,55.08-53,.34-1.4.59-2.82.82-4.22l-104-25.82c-.44,1.35-.88,2.71-1.23,4.11C360.44,43.1,367.65,47.9,391,89.7a18.89,18.89,0,0,1-5.72,26.55c-41,26.76-49.76,27.38-56.32,53.78-.3,1.22-.5,2.44-.71,3.65l104.07,25.84c.38-1.17.78-2.34,1.08-3.56,6.56-26.41-.32-30.91-24.52-73.85"/><path class="cls-9" d="M408.85,122.11A19,19,0,0,1,416.28,96c40.61-25.93,48.6-27,55.08-53,.34-1.4.59-2.82.82-4.22l-104-25.82c-.44,1.35-.88,2.71-1.23,4.11C360.44,43.1,367.65,47.9,391,89.7a18.89,18.89,0,0,1-5.72,26.55c-41,26.76-49.76,27.38-56.32,53.78-.3,1.22-.5,2.44-.71,3.65l104.07,25.84c.38-1.17.78-2.34,1.08-3.56C439.93,169.55,433.05,165.05,408.85,122.11Z"/><rect class="cls-10" x="373.38" y="127.74" width="11.15" height="128.17" transform="translate(101.47 513.4) rotate(-76.06)"/><rect class="cls-11" x="373.38" y="127.74" width="11.15" height="128.17" transform="translate(101.47 513.4) rotate(-76.06)"/><rect class="cls-10" x="415.82" y="-43.23" width="11.15" height="128.17" transform="translate(299.63 424.81) rotate(-76.06)"/><rect class="cls-11" x="415.82" y="-43.23" width="11.15" height="128.17" transform="translate(299.63 424.81) rotate(-76.06)"/><polygon class="cls-10" points="383.98 52.8 404.21 90.05 439.55 66.59 383.98 52.8"/><path class="cls-10" d="M412.81,151.35l-44.49-11c-13.5,8.08-21,10.4-24.25,23.46-.21.85-.34,1.69-.47,2.54l78.55,19.51c.27-.82.56-1.63.77-2.48,3.24-13.05-2.49-18.24-10.11-32"/><path class="cls-12" d="M579.36,55.51c9.17,3.85,17.28,9.7,17.28,22.72,0,15.28-11.43,28.56-33.62,28.56-20.59,0-32.82-11.42-32.82-27.1,0-8.51,6.92-15.55,17-19.27-8.23-4.12-15-10.36-15-22.71C532.2,21.23,547,13.79,563,13.79c16.74,0,31.36,8.64,31.36,22.85C594.38,45.28,587.86,51.39,579.36,55.51ZM558.1,64.94c-4.25,4.12-6.64,9.3-6.64,13.15,0,9.17,6.11,13.16,11.56,13.16,6.25,0,12.09-3.86,12.09-13C575.11,70.92,567.14,68.13,558.1,64.94Zm10.5-13.42a19.36,19.36,0,0,0,4.78-13c0-6-5-8.77-10.36-8.77-4.65,0-9.83,2.79-9.83,8.11C553.19,45.41,560.23,48.6,568.6,51.52Z"/><path class="cls-13" d="M459.23,174.87v-1.48h15.09v2.32c0,16.26-13.51,16.58-13.51,27.13,0,3.91,2.75,7,8,7a35.89,35.89,0,0,0,12.57-2.64l4.11,13a47.62,47.62,0,0,1-19.84,4c-13.09,0-22.6-7.08-22.6-18.9C443.07,189.12,459.23,185.11,459.23,174.87ZM475,167.48H458.59V151.33H475Z"/><path class="cls-13" d="M522.88,204.11c-20.27,0-31.57-12.67-31.57-37.05,0-21.75,10.35-36.32,31.57-36.32,10.13,0,19.21,2.11,25.33,6.12L542,150.27c-3.48-2.64-9.6-4.75-17.1-4.75-10.55,0-15.94,6.65-15.94,21.43,0,15.52,5.28,22.28,15.73,22.28,6.55,0,13.52-3,18.37-6.44l5.28,13.61A43.79,43.79,0,0,1,522.88,204.11Z"/><path class="cls-13" d="M614.71,175.82c0,14.88-8.44,28.29-28.18,28.29s-28.19-12.88-28.19-28.29v-44H575V175c0,9,4.12,15,11.51,15s11.29-6.12,11.29-15V131.8h16.89Z"/><path class="cls-13" d="M664.53,188.06H642.26l-3.17,15H622.41l19.53-71.25h26l19.53,71.25H667.91Zm-23.64-60.17-1.38-9.5,30.94-4.22-.22,12.24Zm4.33,46.87h16.36l-6-28.29h-3.69Z"/><path class="cls-13" d="M727.55,203.05l-19.32-55.63h-.42l1.58,55.63H694.51V131.8h25.65l19.85,57h.42l-1.59-57h15.21v71.25Z"/><path class="cls-13" d="M794.26,204.11a91.25,91.25,0,0,1-26.5-3.91V131.8h25.76c21.22,0,34.63,8.34,34.63,34.83C828.15,189.54,818.22,204.11,794.26,204.11ZM793,145.2h-8.55v43.5a42.65,42.65,0,0,0,10.77,1.37c7.71,0,15.2-3.8,15.2-23.44C810.41,151,806.08,145.2,793,145.2Z"/><path class="cls-13" d="M868.36,204.11c-25,0-31.35-18.16-31.35-37.27,0-18.57,6.23-36.1,31.35-36.1,25.65,0,31.67,17.32,31.67,36.1C900,186,893.38,204.11,868.36,204.11Zm0-59c-11.08,0-13.72,9.5-13.72,21.64,0,13.51,2.85,23.33,13.72,23.33s13.94-9.71,13.94-23.33C882.3,154.39,879.45,145.1,868.36,145.1Z"/><path class="cls-13" d="M932.11,179.51V181H917v-2.32c0-16.26,13.51-16.58,13.51-27.13,0-3.91-2.74-7-8-7A35.79,35.79,0,0,0,910,147.21l-4.12-13a47.83,47.83,0,0,1,19.85-4c13.09,0,22.59,7.08,22.59,18.9C948.27,165.26,932.11,169.27,932.11,179.51Zm-15.72,7.39h16.36v16.15H916.39Z"/><path class="cls-14" d="M451.58,298.82v7.61h-3.73v-33h2.86l.58,2.81a9.58,9.58,0,0,1,6.93-3.3c6.06,0,9.07,4.32,9.07,12.32,0,8.38-4.17,12.4-9.84,12.4a8.38,8.38,0,0,1-6.4-2.71A22.09,22.09,0,0,1,451.58,298.82Zm0-6.45a8,8,0,0,0,5.63,2.57c4.31,0,6.34-2.81,6.34-9.64,0-6.26-1.79-9.46-6.1-9.46a8.51,8.51,0,0,0-5.87,2.77Z"/><path class="cls-14" d="M473.11,290.67V263.78h3.63V292c0,2,.92,2.86,3.54,2.86h.77v2.52a11,11,0,0,1-2.32.29C474.22,297.7,473.11,295.13,473.11,290.67Z"/><path class="cls-14" d="M500.35,297.22l-.63-3.06a9.35,9.35,0,0,1-7.32,3.54c-4.85,0-7.66-3.25-7.66-7.27s3-6.78,8.38-6.78h6.16v-1.89c0-4.12-1.79-5.87-5.38-5.87a17.55,17.55,0,0,0-7.17,1.55l-1-2.66a20.8,20.8,0,0,1,8.62-1.8c5.63,0,8.49,2.91,8.49,8.58v15.66Zm-1.07-11.05h-5.57c-4,0-5.38,1.74-5.38,4.12,0,2.86,1.55,4.75,5,4.75a8.38,8.38,0,0,0,6-3Z"/><path class="cls-14" d="M524.1,297.22V282.87c0-4.51-1.41-7-5.43-7a8.81,8.81,0,0,0-5.82,2.72v18.61h-3.68V273.47h2.47l.73,2.81a10.36,10.36,0,0,1,7.46-3.3c5.57,0,8,3.35,8,9.26v15Z"/><path class="cls-14" d="M535.68,297.22v-20.8l-2.61-.53v-2.42h6.2v23.75Zm-.34-33.11h3.93V268h-3.93Z"/><path class="cls-14" d="M559.09,266.44A10.75,10.75,0,0,0,556,266c-3.2,0-4.6,1.79-4.6,5.57v1.89h5.62v2.81h-5.62v20.94H547.8V276.28H544v-2.81h3.83v-2.13c0-5.43,2.62-8.39,8-8.39a15.68,15.68,0,0,1,3.68.49Z"/><path class="cls-14" d="M563.17,297.22v-20.8l-2.62-.53v-2.42h6.2v23.75Zm-.34-33.11h3.92V268h-3.92Z"/><path class="cls-14" d="M590.75,295.62a17,17,0,0,1-7.9,2.08c-6,0-10.37-3.54-10.37-12.36,0-8,4.41-12.36,10.37-12.36a15.4,15.4,0,0,1,7.75,1.89l-1.06,2.62a12.87,12.87,0,0,0-6.5-1.55c-4.26,0-6.88,3.39-6.88,9.4,0,6.69,2.62,9.5,6.88,9.5a13.52,13.52,0,0,0,6.84-2Z"/><path class="cls-14" d="M610.28,297.22l-.63-3.06a9.32,9.32,0,0,1-7.32,3.54c-4.84,0-7.65-3.25-7.65-7.27s3-6.78,8.38-6.78h6.16v-1.89c0-4.12-1.8-5.87-5.38-5.87a17.55,17.55,0,0,0-7.17,1.55l-1-2.66a20.8,20.8,0,0,1,8.62-1.8c5.62,0,8.48,2.91,8.48,8.58v15.66Zm-1.06-11.05h-5.58c-4,0-5.38,1.74-5.38,4.12,0,2.86,1.55,4.75,5,4.75a8.38,8.38,0,0,0,6-3Z"/><path class="cls-14" d="M655.53,294.36a9,9,0,0,1-6.84,3.34c-5.62,0-9.54-4.17-9.54-12.4,0-7.23,3.58-12.32,9.93-12.32a10,10,0,0,1,6.35,2,34.18,34.18,0,0,1-.19-3.88v-7.36h3.68v33.44h-2.76Zm-.29-16.87a10.26,10.26,0,0,0-5.77-1.69c-4.46,0-6.59,3.49-6.59,9.5s1.89,9.64,6.35,9.64c2.13,0,4.07-.92,6-3Z"/><path class="cls-14" d="M668.23,286.41c0,5.86,3,8.43,7.51,8.43a14.71,14.71,0,0,0,7.37-2.37l.92,2.62a17.06,17.06,0,0,1-8.68,2.61c-6.49,0-10.8-4.31-10.8-12.5,0-7.52,3.68-12.22,10.17-12.22,6.69,0,9.5,5.38,9.5,11.35v2.08Zm6.35-10.61c-4.51,0-6.35,4-6.35,8h12.41C680.64,279.72,679.23,275.8,674.58,275.8Z"/><path class="cls-14" d="M710.81,290.67V263.78h3.63V292c0,2,.92,2.86,3.54,2.86h.77v2.52a11,11,0,0,1-2.32.29C711.92,297.7,710.81,295.13,710.81,290.67Z"/><path class="cls-14" d="M738.05,297.22l-.64-3.06a9.32,9.32,0,0,1-7.31,3.54c-4.85,0-7.66-3.25-7.66-7.27s3-6.78,8.38-6.78H737v-1.89c0-4.12-1.79-5.87-5.38-5.87a17.55,17.55,0,0,0-7.17,1.55l-1-2.66a20.8,20.8,0,0,1,8.62-1.8c5.63,0,8.49,2.91,8.49,8.58v15.66ZM737,286.17H731.4c-4,0-5.37,1.74-5.37,4.12,0,2.86,1.55,4.75,5,4.75a8.38,8.38,0,0,0,6-3Z"/><path class="cls-14" d="M749.58,279.29c0,5.08,11.78,3.29,11.78,11.34,0,3.82-3,7.07-8.24,7.07a14.33,14.33,0,0,1-7.17-2L747,293a11.14,11.14,0,0,0,6.06,2c2.91,0,4.7-1.6,4.7-4.07,0-5.72-11.63-3.59-11.63-11.63,0-3.2,2.42-6.26,7.85-6.26a15.39,15.39,0,0,1,7.13,1.56l-.88,2.71a12.73,12.73,0,0,0-6.2-1.45C751,275.8,749.58,277.1,749.58,279.29Z"/><path class="cls-14" d="M802.24,297.22l-.63-3.06a9.32,9.32,0,0,1-7.32,3.54c-4.84,0-7.65-3.25-7.65-7.27s3-6.78,8.38-6.78h6.16v-1.89c0-4.12-1.8-5.87-5.38-5.87a17.64,17.64,0,0,0-7.18,1.55l-1-2.66a20.81,20.81,0,0,1,8.63-1.8c5.62,0,8.48,2.91,8.48,8.58v15.66Zm-1.06-11.05H795.6c-4,0-5.38,1.74-5.38,4.12,0,2.86,1.55,4.75,5,4.75a8.38,8.38,0,0,0,6-3Z"/><path class="cls-14" d="M828.61,295.62a17,17,0,0,1-7.9,2.08c-6,0-10.37-3.54-10.37-12.36,0-8,4.41-12.36,10.37-12.36a15.44,15.44,0,0,1,7.76,1.89l-1.07,2.62a12.84,12.84,0,0,0-6.5-1.55c-4.26,0-6.88,3.39-6.88,9.4,0,6.69,2.62,9.5,6.88,9.5a13.49,13.49,0,0,0,6.84-2Z"/><path class="cls-14" d="M841.46,297.7c-3.35,0-6.11-1.7-6.11-7.27v-14.3h-3.58v-2.66h3.58v-4.31L839,268v5.48H846v2.66H839v14.74c0,2.52.93,3.73,3.15,3.73a10.18,10.18,0,0,0,3.78-1l.73,2.72A11.59,11.59,0,0,1,841.46,297.7Z"/><path class="cls-14" d="M853.38,297.22v-20.8l-2.62-.53v-2.42H857v23.75ZM853,264.11H857V268H853Z"/><path class="cls-14" d="M873.89,297.22h-5.48l-7.61-23.75h4.07l6.45,21.47h.09l6.4-21.47h3.78Z"/><path class="cls-14" d="M887.31,297.22v-20.8l-2.61-.53v-2.42h6.2v23.75ZM887,264.11h3.92V268H887Z"/><path class="cls-14" d="M913,294.36a9,9,0,0,1-6.83,3.34c-5.62,0-9.55-4.17-9.55-12.4,0-7.23,3.59-12.32,9.94-12.32a10,10,0,0,1,6.35,2,32,32,0,0,1-.2-3.88v-7.36h3.69v33.44h-2.77Zm-.29-16.87a10.2,10.2,0,0,0-5.77-1.69c-4.45,0-6.59,3.49-6.59,9.5s1.9,9.64,6.35,9.64c2.14,0,4.07-.92,6-3Z"/><path class="cls-14" d="M937.48,297.22l-.63-3.06a9.34,9.34,0,0,1-7.32,3.54c-4.84,0-7.66-3.25-7.66-7.27s3-6.78,8.39-6.78h6.15v-1.89c0-4.12-1.79-5.87-5.37-5.87a17.64,17.64,0,0,0-7.18,1.55l-1-2.66a20.85,20.85,0,0,1,8.63-1.8c5.62,0,8.48,2.91,8.48,8.58v15.66Zm-1.07-11.05h-5.57c-4,0-5.38,1.74-5.38,4.12,0,2.86,1.55,4.75,5,4.75a8.34,8.34,0,0,0,6-3Z"/><path class="cls-14" d="M962,294.36a9,9,0,0,1-6.83,3.34c-5.63,0-9.55-4.17-9.55-12.4,0-7.23,3.58-12.32,9.93-12.32a9.93,9.93,0,0,1,6.35,2,34.18,34.18,0,0,1-.19-3.88v-7.36h3.68v33.44h-2.76Zm-.29-16.87a10.23,10.23,0,0,0-5.77-1.69c-4.46,0-6.59,3.49-6.59,9.5s1.89,9.64,6.35,9.64c2.13,0,4.07-.92,6-3Z"/><path class="cls-14" d="M974.66,286.41c0,5.86,3,8.43,7.51,8.43a14.68,14.68,0,0,0,7.37-2.37l.92,2.62a17,17,0,0,1-8.67,2.61c-6.5,0-10.81-4.31-10.81-12.5,0-7.52,3.68-12.22,10.18-12.22,6.68,0,9.49,5.38,9.49,11.35v2.08ZM981,275.8c-4.51,0-6.35,4-6.35,8h12.41C987.07,279.72,985.66,275.8,981,275.8Z"/><path class="cls-14" d="M999,279.29c0,5.08,11.78,3.29,11.78,11.34,0,3.82-2.95,7.07-8.24,7.07a14.36,14.36,0,0,1-7.17-2l1.06-2.72a11.14,11.14,0,0,0,6.06,2c2.91,0,4.71-1.6,4.71-4.07,0-5.72-11.64-3.59-11.64-11.63,0-3.2,2.43-6.26,7.85-6.26a15.39,15.39,0,0,1,7.13,1.56l-.87,2.71a12.75,12.75,0,0,0-6.21-1.45C1000.45,275.8,999,277.1,999,279.29Z"/><path class="cls-14" d="M1015.52,291.79h3.64v5.52c0,4.17-1.16,5.34-3.64,5.72v-1.4c.93-.34,1.17-1.31,1.17-4.41l-1.17-.25Z"/><path class="cls-14" d="M451.58,340.36V348h-3.73V315h2.86l.58,2.81a9.58,9.58,0,0,1,6.93-3.3c6.06,0,9.07,4.32,9.07,12.31,0,8.39-4.17,12.41-9.84,12.41a8.38,8.38,0,0,1-6.4-2.71A22.09,22.09,0,0,1,451.58,340.36Zm0-6.44a8,8,0,0,0,5.63,2.57c4.31,0,6.34-2.81,6.34-9.65,0-6.25-1.79-9.45-6.1-9.45a8.51,8.51,0,0,0-5.87,2.77Z"/><path class="cls-14" d="M485,318.22a9.26,9.26,0,0,0-3.05-.44,7.58,7.58,0,0,0-5.33,2.57v18.42h-3.69V315h2.47l.68,3a7.9,7.9,0,0,1,6.16-3.34,10.53,10.53,0,0,1,3,.39Z"/><path class="cls-14" d="M508.88,326.84c0,8-3.88,12.41-10.23,12.41s-10.13-4.31-10.13-12.41c0-7,3.3-12.31,10.13-12.31C505.24,314.53,508.88,319.77,508.88,326.84Zm-3.78,0c0-6.2-2.09-9.54-6.45-9.54s-6.4,3.48-6.4,9.54c0,5.82,1.7,9.65,6.4,9.65S505.1,333.19,505.1,326.84Z"/><path class="cls-14" d="M518.19,340.36V348h-3.73V315h2.86l.58,2.81a9.54,9.54,0,0,1,6.93-3.3c6.06,0,9.06,4.32,9.06,12.31,0,8.39-4.17,12.41-9.84,12.41a8.38,8.38,0,0,1-6.4-2.71A21.71,21.71,0,0,1,518.19,340.36Zm0-6.44a8,8,0,0,0,5.62,2.57c4.31,0,6.35-2.81,6.35-9.65,0-6.25-1.79-9.45-6.11-9.45a8.47,8.47,0,0,0-5.86,2.77Z"/><path class="cls-14" d="M555.32,338.77l-.54-2.72a10.09,10.09,0,0,1-7.36,3.2c-5.29,0-8.19-3.15-8.19-9.64V315h3.68v14.34c0,4.9,1.55,6.93,5.38,6.93a9.34,9.34,0,0,0,5.86-2.32V315h3.74v23.75Z"/><path class="cls-14" d="M566.9,328c0,5.86,3,8.43,7.51,8.43a14.68,14.68,0,0,0,7.37-2.37l.92,2.61a17,17,0,0,1-8.67,2.62c-6.5,0-10.81-4.31-10.81-12.5,0-7.52,3.68-12.22,10.18-12.22,6.69,0,9.5,5.38,9.5,11.34V328Zm6.35-10.61c-4.5,0-6.35,4-6.35,8h12.41C579.31,321.27,577.9,317.35,573.25,317.35Z"/><path class="cls-14" d="M591.24,320.83c0,5.09,11.78,3.3,11.78,11.35,0,3.82-3,7.07-8.25,7.07a14.39,14.39,0,0,1-7.17-2l1.07-2.72a11.08,11.08,0,0,0,6.06,2c2.9,0,4.7-1.6,4.7-4.07,0-5.72-11.63-3.59-11.63-11.64,0-3.19,2.42-6.25,7.85-6.25a15.47,15.47,0,0,1,7.12,1.55l-.87,2.72a12.73,12.73,0,0,0-6.2-1.45C592.69,317.35,591.24,318.65,591.24,320.83Z"/><path class="cls-14" d="M616.44,339.25c-3.34,0-6.1-1.7-6.1-7.27v-14.3h-3.59V315h3.59V310.7l3.68-1.16V315H621v2.66H614v14.74c0,2.52.92,3.73,3.15,3.73a10.23,10.23,0,0,0,3.78-1l.73,2.71A11.5,11.5,0,0,1,616.44,339.25Z"/><path class="cls-14" d="M641.16,338.77l-.63-3.06a9.32,9.32,0,0,1-7.32,3.54c-4.84,0-7.65-3.25-7.65-7.27s3-6.78,8.38-6.78h6.16v-1.89c0-4.12-1.8-5.87-5.38-5.87a17.64,17.64,0,0,0-7.18,1.55l-1-2.66a20.85,20.85,0,0,1,8.63-1.8c5.62,0,8.48,2.91,8.48,8.58v15.66Zm-1.06-11h-5.58c-4,0-5.38,1.74-5.38,4.11,0,2.87,1.55,4.75,5,4.75a8.37,8.37,0,0,0,6-2.95Z"/><path class="cls-14" d="M652.7,320.83c0,5.09,11.78,3.3,11.78,11.35,0,3.82-3,7.07-8.24,7.07a14.4,14.4,0,0,1-7.18-2l1.07-2.72a11.11,11.11,0,0,0,6.06,2c2.91,0,4.7-1.6,4.7-4.07,0-5.72-11.63-3.59-11.63-11.64,0-3.19,2.42-6.25,7.85-6.25a15.44,15.44,0,0,1,7.12,1.55l-.87,2.72a12.73,12.73,0,0,0-6.2-1.45C654.15,317.35,652.7,318.65,652.7,320.83Z"/><path class="cls-14" d="M688.76,338.62l-2.42.19L678.73,315h4.07s4.46,14.44,6.5,21.56c2.08-7.17,6.44-21.56,6.44-21.56h3.78l-7.61,23.5c-2.47,7.56-4.94,10-9.5,10a9.56,9.56,0,0,1-5.28-1.89l1.21-2.47h.29a6.93,6.93,0,0,0,4,1.5c2.76,0,4.36-1.65,5.86-6.16Z"/><path class="cls-14" d="M731.61,337.17a17,17,0,0,1-7.9,2.08c-6,0-10.37-3.54-10.37-12.36,0-8,4.41-12.36,10.37-12.36a15.41,15.41,0,0,1,7.76,1.89L730.4,319a12.83,12.83,0,0,0-6.49-1.55c-4.27,0-6.89,3.39-6.89,9.4,0,6.69,2.62,9.5,6.89,9.5a13.39,13.39,0,0,0,6.83-2Z"/><path class="cls-14" d="M756,326.84c0,8-3.87,12.41-10.22,12.41s-10.13-4.31-10.13-12.41c0-7,3.29-12.31,10.13-12.31C752.36,314.53,756,319.77,756,326.84Zm-3.77,0c0-6.2-2.09-9.54-6.45-9.54s-6.4,3.48-6.4,9.54c0,5.82,1.7,9.65,6.4,9.65S752.22,333.19,752.22,326.84Z"/><path class="cls-14" d="M780,323.79v15h-3.73V324.42c0-4.51-1.31-7-5.34-7-2.52,0-4.26,1.41-5.71,2.72v18.61h-3.69V315H764l.77,2.86a10,10,0,0,1,7.22-3.35c3.54,0,5.82,1.26,7,3.64a10.36,10.36,0,0,1,7.42-3.64c5.81,0,8.38,3.25,8.38,9.26v15H791V324.42c0-4.51-1.7-7-5.72-7a8.52,8.52,0,0,0-5.67,2.72A13.89,13.89,0,0,1,780,323.79Z"/><path class="cls-14" d="M804.28,340.36V348h-3.73V315h2.85l.59,2.81a9.58,9.58,0,0,1,6.93-3.3c6.05,0,9.06,4.32,9.06,12.31,0,8.39-4.17,12.41-9.84,12.41a8.38,8.38,0,0,1-6.4-2.71A21.71,21.71,0,0,1,804.28,340.36Zm0-6.44a8,8,0,0,0,5.62,2.57c4.31,0,6.35-2.81,6.35-9.65,0-6.25-1.8-9.45-6.11-9.45a8.47,8.47,0,0,0-5.86,2.77Z"/><path class="cls-14" d="M837.68,318.22a9.32,9.32,0,0,0-3.06-.44,7.58,7.58,0,0,0-5.33,2.57v18.42h-3.68V315h2.47l.68,3a7.88,7.88,0,0,1,6.15-3.34,10.64,10.64,0,0,1,3,.39Z"/><path class="cls-14" d="M861.57,326.84c0,8-3.88,12.41-10.22,12.41s-10.13-4.31-10.13-12.41c0-7,3.29-12.31,10.13-12.31C857.94,314.53,861.57,319.77,861.57,326.84Zm-3.78,0c0-6.2-2.08-9.54-6.44-9.54s-6.4,3.48-6.4,9.54c0,5.82,1.69,9.65,6.4,9.65S857.79,333.19,857.79,326.84Z"/><path class="cls-14" d="M885.61,323.79v15h-3.73V324.42c0-4.51-1.31-7-5.33-7-2.52,0-4.26,1.41-5.72,2.72v18.61h-3.68V315h2.42l.78,2.86a10,10,0,0,1,7.22-3.35c3.54,0,5.82,1.26,7,3.64a10.35,10.35,0,0,1,7.41-3.64c5.82,0,8.39,3.25,8.39,9.26v15h-3.73V324.42c0-4.51-1.7-7-5.72-7a8.5,8.5,0,0,0-5.67,2.72A13.91,13.91,0,0,1,885.61,323.79Z"/><path class="cls-14" d="M908,338.77V318l-2.61-.53V315h6.2v23.75Zm-.34-33.11h3.93v3.88h-3.93Z"/><path class="cls-14" d="M920.76,320.83c0,5.09,11.78,3.3,11.78,11.35,0,3.82-3,7.07-8.24,7.07a14.33,14.33,0,0,1-7.17-2l1.06-2.72a11.08,11.08,0,0,0,6.06,2c2.91,0,4.7-1.6,4.7-4.07,0-5.72-11.63-3.59-11.63-11.64,0-3.19,2.42-6.25,7.85-6.25a15.51,15.51,0,0,1,7.13,1.55l-.88,2.72a12.73,12.73,0,0,0-6.2-1.45C922.21,317.35,920.76,318.65,920.76,320.83Z"/><path class="cls-14" d="M957.5,326.84c0,8-3.88,12.41-10.23,12.41s-10.13-4.31-10.13-12.41c0-7,3.3-12.31,10.13-12.31C953.87,314.53,957.5,319.77,957.5,326.84Zm-3.78,0c0-6.2-2.08-9.54-6.45-9.54s-6.39,3.48-6.39,9.54c0,5.82,1.69,9.65,6.39,9.65S953.72,333.19,953.72,326.84Z"/><path class="cls-14" d="M965.79,320.83c0,5.09,11.78,3.3,11.78,11.35,0,3.82-3,7.07-8.24,7.07a14.36,14.36,0,0,1-7.17-2l1.07-2.72a11.07,11.07,0,0,0,6,2c2.91,0,4.7-1.6,4.7-4.07,0-5.72-11.63-3.59-11.63-11.64,0-3.19,2.43-6.25,7.85-6.25a15.51,15.51,0,0,1,7.13,1.55l-.87,2.72a12.8,12.8,0,0,0-6.21-1.45C967.25,317.35,965.79,318.65,965.79,320.83Z"/><path class="cls-14" d="M982.27,333.34h3.64v5.43h-3.64Z"/><path class="cls-15" d="M511.5,248c-10.13,0-15.77-6.33-15.77-18.52,0-10.87,5.17-18.14,15.77-18.14,5.06,0,9.6,1,12.66,3l-3.11,6.7a14.67,14.67,0,0,0-8.55-2.37c-5.27,0-8,3.32-8,10.71,0,7.75,2.63,11.13,7.86,11.13a16.79,16.79,0,0,0,9.18-3.22l2.63,6.8A21.87,21.87,0,0,1,511.5,248Z"/><path class="cls-15" d="M537.94,247.46h-8.23V221.61h5.8l.79,3.59h.26a6.28,6.28,0,0,1,5.91-4.12,10.93,10.93,0,0,1,2.85.32l-.11,7.07a12.58,12.58,0,0,0-3.21-.42,7.21,7.21,0,0,0-4.06,1.21Z"/><path class="cls-15" d="M574.28,234.48c0,8.86-4.54,13.51-12.66,13.51S549,243.34,549,234.48c0-7.59,4.54-13.4,12.66-13.4S574.28,226.89,574.28,234.48Zm-8.6,0c0-6-1.63-7.38-4.06-7.38s-4.06,1.37-4.06,7.38c0,5.8,1.53,7.39,4.06,7.39S565.68,240.28,565.68,234.48Z"/><path class="cls-15" d="M596,247.46V232.22c0-3.38-1.42-4.81-4-4.81a8.72,8.72,0,0,0-3.64.9v19.15H580V221.61h5.75l1.16,2.9a10.38,10.38,0,0,1,8.23-3.43c6.75,0,9.28,4,9.28,10.55v15.83Z"/><path class="cls-15" d="M635,234.48c0,8.86-4.54,13.51-12.66,13.51s-12.66-4.65-12.66-13.51c0-7.59,4.54-13.4,12.66-13.4S635,226.89,635,234.48Zm-8.6,0c0-6-1.63-7.38-4.06-7.38s-4.06,1.37-4.06,7.38c0,5.8,1.53,7.39,4.06,7.39S626.41,240.28,626.41,234.48Z"/><path class="cls-15" d="M664.82,221.61l-.1,6.44a15.47,15.47,0,0,1-4.28-1.32,9,9,0,0,1,2.11,3.22c0,6.38-6.43,9-11.08,9a14.89,14.89,0,0,1-3.27-.42,1,1,0,0,0-.73,1c0,2.74,16.35-.69,16.35,9.28,0,6.07-6,9.5-12.93,9.5-5.59,0-11.18-2.11-11.18-6.76,0-3.32,2.74-4.85,7-5.48-3.27-.37-6.86-1.32-6.86-4.59,0-2.27,2.16-3.91,5.27-4.12A8.16,8.16,0,0,1,640.4,230c0-6.92,6.7-8.87,11.07-8.87C655.91,221.4,661.23,221.61,664.82,221.61Zm-14.66,24.9a3,3,0,0,0-2.8,3.11c0,1.8,1.48,3.22,4,3.22s4.22-1.42,4.22-3.43S653.64,246.77,650.16,246.51Zm5.11-16.62c0-2.21-2.11-2.95-3.85-2.95s-3.85.74-3.85,2.95c0,2.54,2,3.27,3.85,3.27S655.27,232.43,655.27,229.89Z"/><path class="cls-15" d="M678,247.46h-8.23V221.61h5.81l.79,3.59h.26a6.26,6.26,0,0,1,5.91-4.12,10.84,10.84,0,0,1,2.84.32l-.1,7.07a12.66,12.66,0,0,0-3.22-.42,7.21,7.21,0,0,0-4.06,1.21Z"/><path class="cls-15" d="M706.29,247.46l-1.06-3A8.83,8.83,0,0,1,697.9,248c-5.12,0-8.86-3.27-8.86-8.5,0-5,3.69-7.75,10.07-7.75h4.8v-1c0-2.74-1.84-3.38-3.9-3.38a18.45,18.45,0,0,0-7.7,1.69l-2.06-5.91a27.69,27.69,0,0,1,10.55-2.11c8,0,11.19,3.49,11.19,10.29v16.09Zm-2.38-10.92h-3.32c-2.21,0-3.37,1.05-3.37,2.74a2.8,2.8,0,0,0,3.11,3.11,7.58,7.58,0,0,0,3.58-1Z"/><path class="cls-15" d="M742.54,231.63v15.83H734.1V232.22c0-3.38-1.43-4.81-4-4.81a8,8,0,0,0-3.49.9v19.15h-8.33V221.61h5.59l1.32,2.9a9.39,9.39,0,0,1,7.6-3.43c4.37,0,6.91,1.22,8.28,3.43a9.66,9.66,0,0,1,7.65-3.43c8,0,9.76,4,9.76,10.55v15.83H750V232.22c0-3.38-1.58-4.81-4.17-4.81a8.17,8.17,0,0,0-3.53.9A23.09,23.09,0,0,1,742.54,231.63Z"/><path class="cls-15" d="M781,247.46l-1.06-3a8.83,8.83,0,0,1-7.33,3.49c-5.12,0-8.86-3.27-8.86-8.5,0-5,3.69-7.75,10.07-7.75h4.8v-1c0-2.74-1.84-3.38-3.9-3.38a18.42,18.42,0,0,0-7.7,1.69l-2.06-5.91a27.65,27.65,0,0,1,10.55-2.11c8,0,11.18,3.49,11.18,10.29v16.09Zm-2.38-10.92h-3.32c-2.22,0-3.38,1.05-3.38,2.74a2.81,2.81,0,0,0,3.11,3.11,7.62,7.62,0,0,0,3.59-1Z"/><path class="cls-15" d="M792.4,221.61h8.44v8.23H792.4Zm0,17.62h8.44v8.23H792.4Z"/></svg>