<svg id="Capa_1" data-name="Capa 1" xmlns="http://www.w3.org/2000/svg" viewBox="0 0 512 512"><defs><style>.cls-1{fill:#fff;}.cls-2{fill:#34bacc;}.cls-11,.cls-3,.cls-5,.cls-7,.cls-9{fill:none;}.cls-3,.cls-5,.cls-7{stroke:#222b54;}.cls-11,.cls-3,.cls-7,.cls-9{stroke-linecap:round;stroke-linejoin:round;}.cls-3,.cls-5,.cls-9{stroke-width:2px;}.cls-4{fill:#fdfdfd;}.cls-12,.cls-13,.cls-14,.cls-15,.cls-5{stroke-miterlimit:10;}.cls-6{fill:#eb575a;}.cls-8{fill:#faf8f8;}.cls-11,.cls-9{stroke:#7a7ba3;}.cls-10{fill:#f4d511;}.cls-12{fill:#e7334a;}.cls-12,.cls-13,.cls-14,.cls-15{stroke:#fff;}.cls-13{fill:#55b682;}.cls-14,.cls-15{fill:#615185;}.cls-14{stroke-width:0.5px;}.cls-15{stroke-width:0.75px;}</style></defs><rect class="cls-1" x="182.11" y="237.68" width="296.35" height="232.39" transform="translate(-52.93 58.13) rotate(-9.32)"/><path class="cls-2" d="M453.07,290.48,196.43,332.57c-14.36,2.36-30.78-10.24-32.49-28.57l-11.36-64.23c-1.51-16.19,8.16-32.71,20.84-34.79l254.34-40.57c12.68-2.09,30.25,7.54,34,23.36l10.16,65c4.24,17.92-4.48,35.37-18.84,37.72"/><line class="cls-3" x1="212.59" y1="181.97" x2="218.04" y2="215.22"/><line class="cls-3" x1="283.24" y1="170.38" x2="288.7" y2="203.63"/><line class="cls-3" x1="353.9" y1="158.79" x2="359.36" y2="192.04"/><line class="cls-3" x1="424.57" y1="147.2" x2="430.02" y2="180.45"/><line class="cls-3" x1="177.26" y1="187.77" x2="182.71" y2="221.01"/><line class="cls-3" x1="247.92" y1="176.18" x2="253.37" y2="209.42"/><line class="cls-3" x1="318.58" y1="164.59" x2="324.03" y2="197.83"/><line class="cls-3" x1="389.24" y1="153" x2="394.69" y2="186.24"/><rect class="cls-4" x="173.19" y="237.58" width="316.8" height="248.42" transform="translate(-54.19 58.44) rotate(-9.32)"/><rect class="cls-5" x="173.19" y="237.58" width="316.8" height="248.42" transform="translate(-54.19 58.44) rotate(-9.32)"/><path class="cls-6" d="M304.28,357.83a2.81,2.81,0,0,0-3.95.65l-5.21,7.24-7.25-5.2a2.83,2.83,0,1,0-3.31,4.6l7.25,5.21-5.2,7.25a2.82,2.82,0,0,0,.64,3.95,2.91,2.91,0,0,0,2.12.5,2.84,2.84,0,0,0,1.84-1.15l5.21-7.25,7.25,5.21a2.84,2.84,0,0,0,3.95-.65,2.84,2.84,0,0,0-.65-3.95L299.72,369l5.2-7.25a2.82,2.82,0,0,0-.64-3.95"/><path class="cls-6" d="M367.4,317.88l5.2-7.25a2.83,2.83,0,0,0-4.6-3.3l-5.21,7.24-7.25-5.2a2.83,2.83,0,0,0-3.3,4.6l7.25,5.21-5.21,7.25a2.83,2.83,0,0,0,4.6,3.3l5.21-7.25,7.25,5.21a2.83,2.83,0,0,0,2.11.49,2.83,2.83,0,0,0,1.19-5.09Z"/><path class="cls-6" d="M380.29,396.46l5.2-7.24a2.83,2.83,0,1,0-4.6-3.31l-5.21,7.25-7.25-5.2a2.83,2.83,0,1,0-3.3,4.6l7.25,5.2L367.17,405a2.83,2.83,0,0,0,.65,3.95,2.8,2.8,0,0,0,2.11.5,2.84,2.84,0,0,0,1.84-1.14l5.21-7.25,7.25,5.2a2.83,2.83,0,1,0,3.3-4.6Z"/><path class="cls-6" d="M232.32,464.58l5.2-7.25a2.83,2.83,0,1,0-4.6-3.31l-5.21,7.25-7.25-5.2a2.83,2.83,0,0,0-3.3,4.6l7.25,5.2-5.21,7.25a2.83,2.83,0,0,0,4.6,3.31l5.21-7.25,7.25,5.2a2.83,2.83,0,1,0,3.3-4.6Z"/><path class="cls-6" d="M244.56,296.25l5.21-7.25a2.83,2.83,0,0,0-4.61-3.3L240,293l-7.24-5.21a2.83,2.83,0,1,0-3.31,4.6l7.25,5.21-5.21,7.25a2.84,2.84,0,0,0,2.76,4.45A2.8,2.8,0,0,0,236,308.1l5.21-7.24,7.25,5.2a2.83,2.83,0,0,0,2.11.49,2.77,2.77,0,0,0,1.84-1.14,2.82,2.82,0,0,0-.64-4Z"/><path class="cls-6" d="M285.27,289.57l5.2-7.24a2.83,2.83,0,1,0-4.6-3.31l-5.21,7.25-7.25-5.2a2.83,2.83,0,1,0-3.3,4.6l7.25,5.2-5.21,7.25a2.83,2.83,0,0,0,4.6,3.31l5.21-7.25,7.25,5.2a2.83,2.83,0,1,0,3.3-4.6Z"/><path class="cls-7" d="M476.83,402.19,450.3,240.41M437.8,408.23,411.27,246.46M399.06,414.58,372.53,252.82m-12.2,168.12L333.79,259.17M328.09,467,295,265.53m-5.7,207.8-33-201.45m-5.7,207.8-33-201.44M211.86,486,178.81,284.59m33.12,201.88,116.23-19.06M205.3,446.1l271.43-44.52m-278,4.14L470.11,361.2m-278,4.15,271.43-44.53m-278,4.14,271.43-44.52m-278.06,4.15,271.43-44.52"/><path class="cls-8" d="M125.56,330.34A16.33,16.33,0,0,1,132,307.86c35-22.32,41.84-23.2,47.42-45.66.3-1.21.5-2.43.7-3.64L90.53,236.33c-.38,1.17-.76,2.34-1.07,3.55-5.57,22.46.64,26.59,20.71,62.57a16.23,16.23,0,0,1-4.93,22.85c-35.28,23-42.83,23.57-48.47,46.29-.26,1.06-.43,2.11-.61,3.15L145.74,397c.32-1,.66-2,.93-3.07,5.64-22.73-.28-26.6-21.11-63.57"/><path class="cls-9" d="M125.56,330.34A16.33,16.33,0,0,1,132,307.86c35-22.32,41.84-23.2,47.42-45.66.3-1.21.5-2.43.7-3.64L90.53,236.33c-.38,1.17-.76,2.34-1.07,3.55-5.57,22.46.64,26.59,20.71,62.57a16.23,16.23,0,0,1-4.93,22.85c-35.28,23-42.83,23.57-48.47,46.29-.26,1.06-.43,2.11-.61,3.15L145.74,397c.32-1,.66-2,.93-3.07C152.31,371.18,146.39,367.31,125.56,330.34Z"/><rect class="cls-10" x="95.03" y="335.2" width="9.6" height="110.33" transform="translate(-303.09 393.19) rotate(-76.06)"/><rect class="cls-11" x="95.03" y="335.2" width="9.6" height="110.33" transform="translate(-303.09 393.19) rotate(-76.06)"/><rect class="cls-10" x="131.56" y="188.02" width="9.6" height="110.33" transform="translate(-132.51 316.94) rotate(-76.06)"/><rect class="cls-11" x="131.56" y="188.02" width="9.6" height="110.33" transform="translate(-132.51 316.94) rotate(-76.06)"/><polygon class="cls-10" points="104.15 270.68 121.57 302.75 151.99 282.56 104.15 270.68"/><path class="cls-10" d="M129,355.52,90.67,346C79.05,353,72.59,355,69.8,366.2c-.18.73-.3,1.45-.41,2.19L137,385.18c.23-.71.48-1.41.66-2.13,2.79-11.24-2.14-15.71-8.7-27.53"/><path class="cls-12" d="M493,42.71c7.88,3.31,14.86,8.34,14.86,19.54,0,13.14-9.83,24.57-28.92,24.57-17.71,0-28.23-9.83-28.23-23.31,0-7.32,5.95-13.38,14.63-16.57-7.08-3.55-12.91-8.92-12.91-19.55,0-14.17,12.68-20.57,26.51-20.57,14.4,0,27,7.43,27,19.66C505.94,33.91,500.34,39.16,493,42.71Zm-18.29,8.11c-3.66,3.54-5.71,8-5.71,11.32,0,7.88,5.26,11.31,9.94,11.31,5.37,0,10.4-3.31,10.4-11.2C489.37,56,482.51,53.56,474.74,50.82Zm9-11.54a16.68,16.68,0,0,0,4.12-11.2c0-5.15-4.35-7.54-8.92-7.54-4,0-8.46,2.39-8.46,7C470.51,34,476.57,36.76,483.77,39.28Z"/><path class="cls-13" d="M10.43,39.18v-1h9.74v1.5c0,10.49-8.72,10.69-8.72,17.51,0,2.52,1.77,4.49,5.18,4.49a23.05,23.05,0,0,0,8.1-1.7l2.66,8.38A30.73,30.73,0,0,1,14.58,71C6.13,71,0,66.44,0,58.8,0,48.38,10.43,45.79,10.43,39.18Zm10.15-4.77H10V24H20.58Z"/><path class="cls-13" d="M51.51,58.05c-13.08,0-20.37-8.17-20.37-23.91,0-14,6.67-23.44,20.37-23.44,6.54,0,12.4,1.36,16.35,4l-4,8.65c-2.25-1.7-6.2-3.06-11-3.06-6.81,0-10.29,4.29-10.29,13.83,0,10,3.41,14.38,10.16,14.38a21.63,21.63,0,0,0,11.85-4.16l3.41,8.79A28.3,28.3,0,0,1,51.51,58.05Z"/><path class="cls-13" d="M110.79,39.79c0,9.61-5.46,18.26-18.2,18.26S74.4,49.74,74.4,39.79V11.38H85.17V39.25c0,5.79,2.65,9.67,7.42,9.67s7.29-4,7.29-9.67V11.38h10.91Z"/><path class="cls-13" d="M142.94,47.7H128.56l-2,9.67H115.75l12.61-46h16.76l12.61,46H145.12ZM127.68,8.86l-.89-6.13,20-2.73-.14,7.91Zm2.79,30.25H141l-3.88-18.26h-2.38Z"/><path class="cls-13" d="M183.62,57.37,171.15,21.46h-.28l1,35.91h-9.61v-46h16.56l12.81,36.79h.27l-1-36.79h9.81v46Z"/><path class="cls-13" d="M226.67,58.05a58.81,58.81,0,0,1-17.1-2.52V11.38H226.2c13.69,0,22.35,5.38,22.35,22.49C248.55,48.65,242.14,58.05,226.67,58.05Zm-.81-38h-5.52V48.11a27.35,27.35,0,0,0,6.95.88c5,0,9.81-2.45,9.81-15.12C237.1,23.78,234.31,20,225.86,20Z"/><path class="cls-13" d="M274.5,58.05c-16.15,0-20.23-11.72-20.23-24,0-12,4-23.3,20.23-23.3,16.56,0,20.44,11.17,20.44,23.3C294.94,46.33,290.65,58.05,274.5,58.05Zm0-38.09c-7.15,0-8.86,6.14-8.86,14,0,8.72,1.84,15.06,8.86,15.06s9-6.27,9-15.06C283.5,26,281.66,20,274.5,20Z"/><path class="cls-13" d="M315.65,42.18v1h-9.74v-1.5c0-10.49,8.72-10.7,8.72-17.51,0-2.52-1.77-4.5-5.18-4.5a23.17,23.17,0,0,0-8.11,1.71L298.69,13a30.73,30.73,0,0,1,12.81-2.59c8.45,0,14.58,4.56,14.58,12.19C326.08,33,315.65,35.57,315.65,42.18ZM305.5,47h10.56V57.37H305.5Z"/><path class="cls-14" d="M13.47,116v5.76H10.64v-25h2.17l.44,2.13a7.26,7.26,0,0,1,5.25-2.49c4.59,0,6.87,3.26,6.87,9.32,0,6.35-3.16,9.4-7.46,9.4a6.33,6.33,0,0,1-4.84-2.05A16.84,16.84,0,0,1,13.47,116Zm0-4.89a6,6,0,0,0,4.26,2c3.27,0,4.81-2.13,4.81-7.31,0-4.73-1.36-7.16-4.63-7.16a6.43,6.43,0,0,0-4.44,2.1Z"/><path class="cls-14" d="M29.78,109.83V89.45h2.75v21.41c0,1.54.7,2.16,2.68,2.16h.59v1.91a8.32,8.32,0,0,1-1.76.22C30.62,115.15,29.78,113.21,29.78,109.83Z"/><path class="cls-14" d="M50.41,114.79l-.47-2.32a7.09,7.09,0,0,1-5.55,2.68c-3.67,0-5.8-2.46-5.8-5.5s2.28-5.15,6.35-5.15h4.67v-1.43c0-3.12-1.36-4.44-4.08-4.44a13.18,13.18,0,0,0-5.43,1.18l-.74-2a15.93,15.93,0,0,1,6.54-1.35c4.26,0,6.42,2.2,6.42,6.5v11.86Zm-.8-8.38H45.38c-3,0-4.07,1.33-4.07,3.12,0,2.17,1.17,3.6,3.78,3.6a6.36,6.36,0,0,0,4.52-2.24Z"/><path class="cls-14" d="M68.41,114.79V103.92c0-3.42-1.07-5.29-4.11-5.29a6.61,6.61,0,0,0-4.41,2.06v14.1H57.1v-18H59l.55,2.13a7.9,7.9,0,0,1,5.66-2.49c4.22,0,6.09,2.53,6.09,7v11.35Z"/><path class="cls-14" d="M77.19,114.79V99l-2-.4V96.79h4.7v18Zm-.26-25.08h3v2.93h-3Z"/><path class="cls-14" d="M94.92,91.47a8.26,8.26,0,0,0-2.31-.33c-2.43,0-3.49,1.36-3.49,4.22v1.43h4.26v2.13H89.12v15.87H86.37V98.92h-2.9V96.79h2.9V95.18c0-4.11,2-6.35,6-6.35a11.85,11.85,0,0,1,2.79.36Z"/><path class="cls-14" d="M98,114.79V99l-2-.4V96.79h4.7v18Zm-.26-25.08h3v2.93h-3Z"/><path class="cls-14" d="M118.9,113.57a12.73,12.73,0,0,1-6,1.58c-4.55,0-7.86-2.68-7.86-9.36,0-6.1,3.34-9.36,7.86-9.36a11.61,11.61,0,0,1,5.87,1.43l-.81,2a9.7,9.7,0,0,0-4.91-1.17c-3.24,0-5.22,2.57-5.22,7.12,0,5.07,2,7.2,5.22,7.2a10.13,10.13,0,0,0,5.17-1.51Z"/><path class="cls-14" d="M133.7,114.79l-.47-2.32a7.11,7.11,0,0,1-5.55,2.68c-3.67,0-5.8-2.46-5.8-5.5s2.28-5.15,6.35-5.15h4.67v-1.43c0-3.12-1.36-4.44-4.08-4.44a13.18,13.18,0,0,0-5.43,1.18l-.74-2a15.93,15.93,0,0,1,6.54-1.35c4.26,0,6.42,2.2,6.42,6.5v11.86Zm-.8-8.38h-4.23c-3,0-4.07,1.33-4.07,3.12,0,2.17,1.17,3.6,3.78,3.6a6.36,6.36,0,0,0,4.52-2.24Z"/><path class="cls-14" d="M168,112.62a6.8,6.8,0,0,1-5.18,2.53c-4.26,0-7.23-3.15-7.23-9.4,0-5.47,2.72-9.32,7.53-9.32A7.49,7.49,0,0,1,167.9,98a27.47,27.47,0,0,1-.14-2.94V89.45h2.79v25.34h-2.09Zm-.22-12.78a7.71,7.71,0,0,0-4.37-1.28c-3.38,0-5,2.64-5,7.19s1.43,7.31,4.81,7.31a6.09,6.09,0,0,0,4.55-2.28Z"/><path class="cls-14" d="M177.6,106.6c0,4.44,2.28,6.39,5.69,6.39a11.14,11.14,0,0,0,5.58-1.8l.7,2a12.84,12.84,0,0,1-6.57,2c-4.92,0-8.19-3.27-8.19-9.47,0-5.69,2.79-9.25,7.71-9.25s7.2,4.07,7.2,8.59v1.58Zm4.81-8c-3.41,0-4.81,3-4.81,6.09H187C187,101.53,185.94,98.56,182.41,98.56Z"/><path class="cls-14" d="M209.86,109.83V89.45h2.75v21.41c0,1.54.7,2.16,2.68,2.16h.59v1.91a8.32,8.32,0,0,1-1.76.22C210.7,115.15,209.86,113.21,209.86,109.83Z"/><path class="cls-14" d="M230.49,114.79l-.47-2.32a7.09,7.09,0,0,1-5.55,2.68c-3.67,0-5.8-2.46-5.8-5.5S221,104.5,225,104.5h4.66v-1.43c0-3.12-1.35-4.44-4.07-4.44a13.18,13.18,0,0,0-5.43,1.18l-.74-2A15.93,15.93,0,0,1,226,96.43c4.26,0,6.42,2.2,6.42,6.5v11.86Zm-.81-8.38h-4.22c-3,0-4.07,1.33-4.07,3.12,0,2.17,1.17,3.6,3.78,3.6a6.32,6.32,0,0,0,4.51-2.24Z"/><path class="cls-14" d="M239.23,101.2c0,3.85,8.93,2.5,8.93,8.59,0,2.9-2.24,5.36-6.24,5.36a10.85,10.85,0,0,1-5.44-1.54l.81-2.06a8.38,8.38,0,0,0,4.59,1.51c2.2,0,3.56-1.21,3.56-3.09,0-4.33-8.81-2.71-8.81-8.81,0-2.42,1.83-4.73,5.94-4.73A11.65,11.65,0,0,1,248,97.6l-.66,2.06a9.57,9.57,0,0,0-4.7-1.1C240.34,98.56,239.23,99.55,239.23,101.2Z"/><path class="cls-14" d="M279.13,114.79l-.48-2.32a7.07,7.07,0,0,1-5.54,2.68c-3.68,0-5.8-2.46-5.8-5.5s2.27-5.15,6.35-5.15h4.66v-1.43c0-3.12-1.36-4.44-4.07-4.44a13.23,13.23,0,0,0-5.44,1.18l-.73-2a15.92,15.92,0,0,1,6.53-1.35c4.26,0,6.43,2.2,6.43,6.5v11.86Zm-.81-8.38H274.1c-3.05,0-4.08,1.33-4.08,3.12,0,2.17,1.18,3.6,3.78,3.6a6.32,6.32,0,0,0,4.52-2.24Z"/><path class="cls-14" d="M299.11,113.57a12.78,12.78,0,0,1-6,1.58c-4.55,0-7.86-2.68-7.86-9.36,0-6.1,3.34-9.36,7.86-9.36A11.64,11.64,0,0,1,299,97.86l-.81,2a9.76,9.76,0,0,0-4.92-1.17c-3.23,0-5.22,2.57-5.22,7.12,0,5.07,2,7.2,5.22,7.2a10.13,10.13,0,0,0,5.17-1.51Z"/><path class="cls-14" d="M308.84,115.15c-2.53,0-4.63-1.28-4.63-5.5V98.81H301.5v-2h2.71V93.53l2.79-.89v4.15h5.25v2H307V110c0,1.91.7,2.83,2.39,2.83a7.8,7.8,0,0,0,2.86-.77l.55,2.06A8.72,8.72,0,0,1,308.84,115.15Z"/><path class="cls-14" d="M317.87,114.79V99l-2-.4V96.79h4.7v18Zm-.25-25.08h3v2.93h-3Z"/><path class="cls-14" d="M333.41,114.79h-4.15l-5.77-18h3.09l4.88,16.27h.07l4.85-16.27h2.86Z"/><path class="cls-14" d="M343.58,114.79V99l-2-.4V96.79h4.7v18Zm-.26-25.08h3v2.93h-3Z"/><path class="cls-14" d="M363,112.62a6.8,6.8,0,0,1-5.18,2.53c-4.26,0-7.23-3.15-7.23-9.4,0-5.47,2.72-9.32,7.53-9.32A7.54,7.54,0,0,1,363,98a25,25,0,0,1-.15-2.94V89.45h2.79v25.34h-2.09Zm-.22-12.78a7.68,7.68,0,0,0-4.37-1.28c-3.38,0-5,2.64-5,7.19s1.43,7.31,4.81,7.31a6.09,6.09,0,0,0,4.55-2.28Z"/><path class="cls-14" d="M381.59,114.79l-.48-2.32a7.09,7.09,0,0,1-5.55,2.68c-3.67,0-5.8-2.46-5.8-5.5s2.28-5.15,6.35-5.15h4.67v-1.43c0-3.12-1.36-4.44-4.08-4.44a13.22,13.22,0,0,0-5.43,1.18l-.74-2a16,16,0,0,1,6.54-1.35c4.26,0,6.43,2.2,6.43,6.5v11.86Zm-.81-8.38h-4.22c-3.05,0-4.08,1.33-4.08,3.12,0,2.17,1.18,3.6,3.78,3.6a6.36,6.36,0,0,0,4.52-2.24Z"/><path class="cls-14" d="M400.13,112.62a6.8,6.8,0,0,1-5.18,2.53c-4.26,0-7.23-3.15-7.23-9.4,0-5.47,2.72-9.32,7.53-9.32A7.54,7.54,0,0,1,400.06,98a25,25,0,0,1-.15-2.94V89.45h2.79v25.34h-2.09Zm-.22-12.78a7.68,7.68,0,0,0-4.37-1.28c-3.38,0-5,2.64-5,7.19s1.43,7.31,4.81,7.31a6.09,6.09,0,0,0,4.55-2.28Z"/><path class="cls-14" d="M409.75,106.6c0,4.44,2.28,6.39,5.69,6.39a11.21,11.21,0,0,0,5.59-1.8l.69,2a12.84,12.84,0,0,1-6.57,2c-4.92,0-8.19-3.27-8.19-9.47,0-5.69,2.79-9.25,7.71-9.25s7.2,4.07,7.2,8.59v1.58Zm4.81-8c-3.41,0-4.81,3-4.81,6.09h9.4C419.15,101.53,418.09,98.56,414.56,98.56Z"/><path class="cls-14" d="M428.19,101.2c0,3.85,8.92,2.5,8.92,8.59,0,2.9-2.24,5.36-6.24,5.36a10.85,10.85,0,0,1-5.44-1.54l.81-2.06a8.38,8.38,0,0,0,4.59,1.51c2.2,0,3.56-1.21,3.56-3.09,0-4.33-8.81-2.71-8.81-8.81,0-2.42,1.84-4.73,5.95-4.73a11.65,11.65,0,0,1,5.4,1.17l-.66,2.06a9.63,9.63,0,0,0-4.7-1.1C429.29,98.56,428.19,99.55,428.19,101.2Z"/><path class="cls-14" d="M440.71,110.67h2.76v4.19c0,3.16-.89,4-2.76,4.33v-1.06c.7-.26.88-1,.88-3.34l-.88-.19Z"/><path class="cls-14" d="M13.47,147.47v5.77H10.64v-25h2.17l.44,2.13a7.27,7.27,0,0,1,5.25-2.5c4.59,0,6.87,3.27,6.87,9.33,0,6.35-3.16,9.4-7.46,9.4a6.3,6.3,0,0,1-4.84-2.06A17,17,0,0,1,13.47,147.47Zm0-4.88a6,6,0,0,0,4.26,1.95c3.27,0,4.81-2.13,4.81-7.31,0-4.74-1.36-7.16-4.63-7.16a6.47,6.47,0,0,0-4.44,2.09Z"/><path class="cls-14" d="M38.77,130.7a7,7,0,0,0-2.31-.34,5.77,5.77,0,0,0-4,1.95v13.95H29.63v-18H31.5l.52,2.28A6,6,0,0,1,36.68,128a7.92,7.92,0,0,1,2.28.3Z"/><path class="cls-14" d="M56.88,137.23c0,6.06-2.94,9.4-7.75,9.4s-7.67-3.27-7.67-9.4c0-5.29,2.49-9.33,7.67-9.33C54.12,127.9,56.88,131.87,56.88,137.23Zm-2.87,0c0-4.7-1.58-7.23-4.88-7.23s-4.85,2.64-4.85,7.23c0,4.41,1.29,7.31,4.85,7.31S54,142,54,137.23Z"/><path class="cls-14" d="M63.93,147.47v5.77H61.1v-25h2.17l.44,2.13A7.27,7.27,0,0,1,69,127.9c4.59,0,6.87,3.27,6.87,9.33,0,6.35-3.16,9.4-7.46,9.4a6.3,6.3,0,0,1-4.84-2.06A17,17,0,0,1,63.93,147.47Zm0-4.88a6,6,0,0,0,4.26,1.95c3.27,0,4.81-2.13,4.81-7.31,0-4.74-1.36-7.16-4.63-7.16a6.47,6.47,0,0,0-4.44,2.09Z"/><path class="cls-14" d="M92.06,146.26l-.4-2a7.67,7.67,0,0,1-5.58,2.42c-4,0-6.21-2.39-6.21-7.31v-11h2.79v10.87c0,3.71,1.18,5.25,4.08,5.25a7.13,7.13,0,0,0,4.44-1.76V128.27H94v18Z"/><path class="cls-14" d="M100.84,138.07c0,4.45,2.27,6.39,5.69,6.39a11.08,11.08,0,0,0,5.58-1.8l.7,2a13,13,0,0,1-6.58,2c-4.91,0-8.18-3.27-8.18-9.47,0-5.69,2.79-9.26,7.71-9.26S113,132,113,136.5v1.57Zm4.81-8c-3.42,0-4.81,3-4.81,6.1h9.4C110.24,133,109.17,130,105.65,130Z"/><path class="cls-14" d="M119.27,132.68c0,3.85,8.93,2.49,8.93,8.59,0,2.9-2.24,5.36-6.25,5.36a10.84,10.84,0,0,1-5.43-1.54l.81-2.06a8.35,8.35,0,0,0,4.59,1.51c2.2,0,3.56-1.21,3.56-3.09,0-4.33-8.81-2.71-8.81-8.81,0-2.42,1.83-4.74,6-4.74a11.64,11.64,0,0,1,5.39,1.18l-.66,2.06a9.58,9.58,0,0,0-4.7-1.11C120.37,130,119.27,131,119.27,132.68Z"/><path class="cls-14" d="M138.37,146.63c-2.54,0-4.63-1.29-4.63-5.51V130.29H131v-2h2.72V125l2.79-.88v4.15h5.25v2h-5.25v11.16c0,1.91.7,2.83,2.39,2.83a7.8,7.8,0,0,0,2.86-.77l.55,2.05A8.72,8.72,0,0,1,138.37,146.63Z"/><path class="cls-14" d="M157.09,146.26l-.47-2.31a7.09,7.09,0,0,1-5.55,2.68c-3.67,0-5.8-2.46-5.8-5.51s2.28-5.14,6.35-5.14h4.67v-1.43c0-3.12-1.36-4.44-4.08-4.44a13.4,13.4,0,0,0-5.43,1.17l-.74-2a16,16,0,0,1,6.54-1.36c4.26,0,6.42,2.21,6.42,6.5v11.86Zm-.8-8.37h-4.22c-3,0-4.08,1.32-4.08,3.12,0,2.17,1.17,3.6,3.78,3.6a6.36,6.36,0,0,0,4.52-2.24Z"/><path class="cls-14" d="M165.84,132.68c0,3.85,8.92,2.49,8.92,8.59,0,2.9-2.24,5.36-6.24,5.36a10.85,10.85,0,0,1-5.44-1.54l.81-2.06a8.38,8.38,0,0,0,4.59,1.51c2.2,0,3.56-1.21,3.56-3.09,0-4.33-8.81-2.71-8.81-8.81,0-2.42,1.84-4.74,6-4.74a11.66,11.66,0,0,1,5.4,1.18l-.67,2.06a9.58,9.58,0,0,0-4.7-1.11C166.94,130,165.84,131,165.84,132.68Z"/><path class="cls-14" d="M193.16,146.15l-1.84.15-5.76-18h3.08s3.38,10.94,4.92,16.34c1.58-5.43,4.89-16.34,4.89-16.34h2.86l-5.76,17.81c-1.88,5.73-3.75,7.56-7.2,7.56a7.21,7.21,0,0,1-4-1.43l.91-1.87h.22a5.28,5.28,0,0,0,3,1.14c2.09,0,3.3-1.25,4.44-4.67Z"/><path class="cls-14" d="M225.62,145.05a12.73,12.73,0,0,1-6,1.58c-4.56,0-7.86-2.68-7.86-9.36,0-6.1,3.34-9.37,7.86-9.37a11.61,11.61,0,0,1,5.87,1.44l-.81,2a9.71,9.71,0,0,0-4.92-1.18c-3.23,0-5.21,2.57-5.21,7.13,0,5.06,2,7.19,5.21,7.19A10.17,10.17,0,0,0,225,143Z"/><path class="cls-14" d="M244.09,137.23c0,6.06-2.94,9.4-7.74,9.4s-7.68-3.27-7.68-9.4c0-5.29,2.5-9.33,7.68-9.33C241.34,127.9,244.09,131.87,244.09,137.23Zm-2.86,0c0-4.7-1.58-7.23-4.88-7.23s-4.85,2.64-4.85,7.23c0,4.41,1.28,7.31,4.85,7.31S241.23,142,241.23,137.23Z"/><path class="cls-14" d="M262.31,134.92v11.34h-2.83V135.39c0-3.41-1-5.28-4-5.28a6.38,6.38,0,0,0-4.33,2v14.1h-2.79v-18h1.83l.59,2.17a7.56,7.56,0,0,1,5.47-2.54c2.68,0,4.41,1,5.29,2.76a7.84,7.84,0,0,1,5.62-2.76c4.4,0,6.35,2.46,6.35,7v11.34h-2.83V135.39c0-3.41-1.28-5.28-4.33-5.28a6.5,6.5,0,0,0-4.3,2A10.61,10.61,0,0,1,262.31,134.92Z"/><path class="cls-14" d="M280.67,147.47v5.77h-2.83v-25H280l.44,2.13a7.27,7.27,0,0,1,5.25-2.5c4.59,0,6.87,3.27,6.87,9.33,0,6.35-3.16,9.4-7.46,9.4a6.3,6.3,0,0,1-4.84-2.06A17,17,0,0,1,280.67,147.47Zm0-4.88a6,6,0,0,0,4.26,1.95c3.27,0,4.81-2.13,4.81-7.31,0-4.74-1.36-7.16-4.63-7.16a6.47,6.47,0,0,0-4.44,2.09Z"/><path class="cls-14" d="M306,130.7a7,7,0,0,0-2.31-.34,5.77,5.77,0,0,0-4,1.95v13.95h-2.79v-18h1.87l.52,2.28a6,6,0,0,1,4.66-2.54,7.92,7.92,0,0,1,2.28.3Z"/><path class="cls-14" d="M324.08,137.23c0,6.06-2.94,9.4-7.75,9.4s-7.67-3.27-7.67-9.4c0-5.29,2.49-9.33,7.67-9.33C321.32,127.9,324.08,131.87,324.08,137.23Zm-2.87,0c0-4.7-1.58-7.23-4.88-7.23s-4.85,2.64-4.85,7.23c0,4.41,1.29,7.31,4.85,7.31S321.21,142,321.21,137.23Z"/><path class="cls-14" d="M342.29,134.92v11.34h-2.83V135.39c0-3.41-1-5.28-4-5.28a6.41,6.41,0,0,0-4.34,2v14.1H328.3v-18h1.84l.59,2.17a7.52,7.52,0,0,1,5.47-2.54c2.68,0,4.4,1,5.28,2.76a7.84,7.84,0,0,1,5.62-2.76c4.41,0,6.35,2.46,6.35,7v11.34h-2.82V135.39c0-3.41-1.29-5.28-4.34-5.28a6.47,6.47,0,0,0-4.29,2A10.63,10.63,0,0,1,342.29,134.92Z"/><path class="cls-14" d="M359.26,146.26V130.51l-2-.4v-1.84H362v18ZM359,121.18h3v2.94h-3Z"/><path class="cls-14" d="M368.92,132.68c0,3.85,8.92,2.49,8.92,8.59,0,2.9-2.24,5.36-6.24,5.36a10.78,10.78,0,0,1-5.43-1.54L367,143a8.38,8.38,0,0,0,4.59,1.51c2.21,0,3.56-1.21,3.56-3.09,0-4.33-8.81-2.71-8.81-8.81,0-2.42,1.84-4.74,5.95-4.74a11.66,11.66,0,0,1,5.4,1.18l-.66,2.06a9.63,9.63,0,0,0-4.7-1.11C370,130,368.92,131,368.92,132.68Z"/><path class="cls-14" d="M396.75,137.23c0,6.06-2.94,9.4-7.74,9.4s-7.68-3.27-7.68-9.4c0-5.29,2.5-9.33,7.68-9.33C394,127.9,396.75,131.87,396.75,137.23Zm-2.86,0c0-4.7-1.58-7.23-4.88-7.23s-4.85,2.64-4.85,7.23c0,4.41,1.28,7.31,4.85,7.31S393.89,142,393.89,137.23Z"/><path class="cls-14" d="M403,132.68c0,3.85,8.93,2.49,8.93,8.59,0,2.9-2.24,5.36-6.25,5.36a10.84,10.84,0,0,1-5.43-1.54l.81-2.06a8.38,8.38,0,0,0,4.59,1.51c2.2,0,3.56-1.21,3.56-3.09,0-4.33-8.81-2.71-8.81-8.81,0-2.42,1.83-4.74,5.95-4.74a11.61,11.61,0,0,1,5.39,1.18l-.66,2.06a9.58,9.58,0,0,0-4.7-1.11C404.14,130,403,131,403,132.68Z"/><path class="cls-14" d="M415.52,142.15h2.75v4.11h-2.75Z"/><path class="cls-15" d="M43.8,82.68c-6.46,0-10.07-4-10.07-11.81,0-6.94,3.31-11.59,10.07-11.59a15.16,15.16,0,0,1,8.08,1.95l-2,4.28A9.35,9.35,0,0,0,44.44,64c-3.36,0-5.08,2.12-5.08,6.83,0,5,1.68,7.11,5,7.11a10.71,10.71,0,0,0,5.86-2.06l1.69,4.34A13.94,13.94,0,0,1,43.8,82.68Z"/><path class="cls-15" d="M60.68,82.35H55.42V65.85h3.71l.5,2.29h.17a4,4,0,0,1,3.77-2.63,7.16,7.16,0,0,1,1.82.2l-.07,4.52a7.82,7.82,0,0,0-2-.27,4.61,4.61,0,0,0-2.59.77Z"/><path class="cls-15" d="M83.88,74.06c0,5.66-2.9,8.62-8.08,8.62s-8.08-3-8.08-8.62c0-4.84,2.89-8.55,8.08-8.55S83.88,69.22,83.88,74.06Zm-5.49,0c0-3.83-1-4.71-2.59-4.71s-2.6.88-2.6,4.71,1,4.72,2.6,4.72S78.39,77.77,78.39,74.06Z"/><path class="cls-15" d="M97.75,82.35V72.62c0-2.16-.91-3.07-2.56-3.07a5.55,5.55,0,0,0-2.32.57V82.35H87.55V65.85h3.67L92,67.7a6.65,6.65,0,0,1,5.25-2.19c4.31,0,5.93,2.53,5.93,6.74v10.1Z"/><path class="cls-15" d="M122.64,74.06c0,5.66-2.9,8.62-8.08,8.62s-8.08-3-8.08-8.62c0-4.84,2.89-8.55,8.08-8.55S122.64,69.22,122.64,74.06Zm-5.49,0c0-3.83-1-4.71-2.59-4.71s-2.59.88-2.59,4.71,1,4.72,2.59,4.72S117.15,77.77,117.15,74.06Z"/><path class="cls-15" d="M141.67,65.85,141.6,70a10.3,10.3,0,0,1-2.73-.85,5.73,5.73,0,0,1,1.35,2.06c0,4.07-4.11,5.76-7.07,5.76a9.91,9.91,0,0,1-2.09-.27.65.65,0,0,0-.47.64c0,1.75,10.44-.44,10.44,5.92,0,3.87-3.81,6.06-8.25,6.06-3.57,0-7.14-1.34-7.14-4.31,0-2.12,1.75-3.09,4.48-3.5-2.09-.23-4.38-.84-4.38-2.93,0-1.45,1.38-2.49,3.37-2.63a5.19,5.19,0,0,1-3-4.74c0-4.41,4.27-5.66,7.07-5.66C136,65.71,139.38,65.85,141.67,65.85Zm-9.36,15.89a1.94,1.94,0,0,0-1.79,2c0,1.14.94,2,2.56,2s2.69-.91,2.69-2.19S134.53,81.91,132.31,81.74Zm3.26-10.6c0-1.42-1.34-1.89-2.45-1.89s-2.46.47-2.46,1.89c0,1.61,1.28,2.08,2.46,2.08S135.57,72.75,135.57,71.14Z"/><path class="cls-15" d="M150.09,82.35h-5.26V65.85h3.71l.5,2.29h.17A4,4,0,0,1,153,65.51a7.16,7.16,0,0,1,1.82.2l-.07,4.52a7.82,7.82,0,0,0-2-.27,4.61,4.61,0,0,0-2.59.77Z"/><path class="cls-15" d="M168.14,82.35l-.68-1.89a5.64,5.64,0,0,1-4.68,2.22c-3.26,0-5.65-2.08-5.65-5.42,0-3.16,2.35-5,6.43-5h3.06v-.6c0-1.75-1.18-2.16-2.49-2.16a11.76,11.76,0,0,0-4.92,1.08l-1.31-3.77a17.51,17.51,0,0,1,6.73-1.35c5.09,0,7.14,2.22,7.14,6.57V82.35Zm-1.52-7H164.5c-1.41,0-2.16.67-2.16,1.75a1.79,1.79,0,0,0,2,2,4.91,4.91,0,0,0,2.29-.67Z"/><path class="cls-15" d="M191.27,72.25v10.1h-5.38V72.62c0-2.16-.91-3.07-2.56-3.07a5.1,5.1,0,0,0-2.23.57V82.35h-5.32V65.85h3.57l.85,1.85A6,6,0,0,1,185,65.51c2.8,0,4.41.78,5.29,2.19a6.18,6.18,0,0,1,4.88-2.19c5.09,0,6.23,2.53,6.23,6.74v10.1h-5.39V72.62c0-2.16-1-3.07-2.66-3.07a5.22,5.22,0,0,0-2.25.57A14.25,14.25,0,0,1,191.27,72.25Z"/><path class="cls-15" d="M215.79,82.35l-.67-1.89a5.65,5.65,0,0,1-4.68,2.22c-3.27,0-5.66-2.08-5.66-5.42,0-3.16,2.35-5,6.43-5h3.06v-.6c0-1.75-1.17-2.16-2.49-2.16a11.71,11.71,0,0,0-4.91,1.08l-1.32-3.77a17.53,17.53,0,0,1,6.74-1.35c5.08,0,7.14,2.22,7.14,6.57V82.35Zm-1.52-7h-2.12c-1.41,0-2.15.67-2.15,1.75a1.79,1.79,0,0,0,2,2,4.84,4.84,0,0,0,2.29-.67Z"/><path class="cls-15" d="M223.1,65.85h5.39V71.1H223.1Zm0,11.24h5.39v5.26H223.1Z"/></svg>