<svg id="Capa_1" data-name="Capa 1" xmlns="http://www.w3.org/2000/svg" viewBox="0 0 512 512"><defs><style>.cls-1{fill:#2d5972;}.cls-2{fill:#103140;}.cls-3{fill:#e7e6e6;}.cls-4{fill:#c1d44f;}.cls-5{fill:#fcc77c;}.cls-6{fill:#e9b871;}.cls-7{fill:#a0b61d;}.cls-8{fill:#c22518;}.cls-9{fill:#a82117;}.cls-10{fill:#fff;}.cls-11{fill:#1db1bf;}.cls-12{fill:#34bacc;}.cls-13{fill:#e7334a;}.cls-13,.cls-14,.cls-15,.cls-16{stroke:#fff;stroke-miterlimit:10;}.cls-14,.cls-15{fill:#615185;}.cls-14{stroke-width:0.5px;}.cls-15{stroke-width:0.75px;}.cls-16{fill:#55b682;}</style></defs><polygon class="cls-1" points="161.73 294.69 88.69 239.06 186.36 26.44 259.41 82.07 161.73 294.69"/><polygon class="cls-2" points="161.73 294.69 251.51 313.86 349.18 101.24 259.41 82.07 161.73 294.69"/><polygon class="cls-3" points="131.49 253.22 150.25 267.51 131.49 253.22 131.49 253.22"/><polygon class="cls-1" points="324.54 369.48 414.33 388.65 512 176.04 422.21 156.86 324.54 369.48"/><polygon class="cls-2" points="324.54 369.48 251.51 313.86 349.18 101.24 422.21 156.86 324.54 369.48"/><path class="cls-3" d="M375.71,365.41l-23.07-4.93Z"/><path class="cls-4" d="M186.27,241.27,199.72,212c-29.41-2.37-58.5-1.3-83.45,1l-9.76,21.24,25,19,18.76,14.29L168,281l7.82-17Z"/><path class="cls-5" d="M252.48,97.14,189.91,52.67,116.27,213c25-2.28,54-3.35,83.45-1Z"/><path class="cls-6" d="M263.64,223.71a100.94,100.94,0,0,0,27.17,4.6L315.74,174l26.46-57.61L253,97.53l-.55-.39L199.72,212c21.66,1.75,43.47,5.36,63.92,11.73"/><path class="cls-7" d="M263.64,223.71c-20.45-6.37-42.26-10-63.92-11.73l-13.45,29.29L175.83,264,168,281l90.5,17.6,32.3-70.31a100.94,100.94,0,0,1-27.17-4.6"/><path class="cls-5" d="M290.81,228.31c47.26,1.44,86.74-31.79,114.14-63.94l-62.74-47.94L315.74,174Z"/><path class="cls-8" d="M307.71,37.48c-14.82,32.27-10.65,177.23-10.65,177.23L393,5.89a64.3,64.3,0,0,0-85.28,31.59"/><path class="cls-9" d="M393,5.89,297.06,214.71S409.75,123.44,424.58,91.16A64.3,64.3,0,0,0,393,5.89"/><path class="cls-10" d="M393.41,75.68a29.52,29.52,0,1,1-14.5-39.14,29.51,29.51,0,0,1,14.5,39.14"/><path class="cls-7" d="M346.11,322.53c41-7.53,73.27-19.87,98.41-33.53l45.28-98.57-74.51-18.5L349.08,316.06Z"/><path class="cls-11" d="M346.11,322.53l-7.47,16.26-7.82,17,21.82,4.67,23.07,4.93L406.4,372l38.12-83c-25.14,13.66-57.42,26-98.41,33.53"/><path class="cls-4" d="M349.08,316.06l66.21-144.13-.65-.16-9.69-7.4c-27.4,32.16-66.87,65.38-114.14,63.94l-32.3,70.31,38.1,30.13a458.19,458.19,0,0,0,49.5-6.22Z"/><path class="cls-12" d="M346.11,322.53a458.51,458.51,0,0,1-49.5,6.22l34.21,27.06,7.82-17Z"/><path class="cls-13" d="M39.8,289a52.2,52.2,0,0,1-24.58-5.79L19.51,269c3.48,2,12.06,4.87,18,4.87,8,0,13.69-3.95,13.69-13.45,0-7.77-4.41-11.83-10.9-11.83-4.53,0-7.54,2.09-10.32,5L16.5,249.72V209H63.8l-1.27,14.85H34.47v7.76a29.08,29.08,0,0,1-1.16,8.7c3.13-3.48,8.12-6.26,15.42-6.26,10.9,0,21.57,8,21.57,24.93C70.3,278.71,54.18,289,39.8,289Z"/><path class="cls-14" d="M7.64,383.3a6.38,6.38,0,0,1,4.45-2c3.81,0,5.79,2.72,5.79,7.75,0,5.27-2.62,7.8-6.22,7.8a5.78,5.78,0,0,1-4.33-1.92l-.48,1.61H5.57v-21H7.88v5.79Zm.24,10.08a5.29,5.29,0,0,0,3.63,1.71c2.62,0,4-1.77,4-6.06,0-3.94-1.16-6-3.87-6a5.58,5.58,0,0,0-3.78,1.68Z"/><path class="cls-14" d="M31.36,396.52l-.34-1.7a6.37,6.37,0,0,1-4.63,2c-3.33,0-5.15-2-5.15-6.07v-9.17h2.31v9c0,3.08,1,4.36,3.38,4.36a5.88,5.88,0,0,0,3.69-1.46V381.59H33v14.93Zm-7.53-17.25-.34-1.37,6.74-2.5.45,1.74Z"/><path class="cls-14" d="M38.52,385.25c0,3.2,7.41,2.07,7.41,7.13,0,2.41-1.86,4.45-5.18,4.45a9,9,0,0,1-4.51-1.28l.66-1.71a7,7,0,0,0,3.82,1.25c1.82,0,3-1,3-2.56,0-3.6-7.31-2.26-7.31-7.32,0-2,1.52-3.93,4.93-3.93a9.65,9.65,0,0,1,4.48,1L45.23,384a8,8,0,0,0-3.91-.92C39.43,383.05,38.52,383.87,38.52,385.25Z"/><path class="cls-14" d="M59,402.32v-5.83a13.06,13.06,0,0,1,.21-1.77,5.75,5.75,0,0,1-4.33,2.11c-3.47,0-6-2.65-6-7.8,0-4.55,2.25-7.75,6.24-7.75a7.39,7.39,0,0,1,4.3,1.41l.43-1.1h1.46v20.73Zm0-18.14a5.92,5.92,0,0,0-3.6-1.13c-2.81,0-4.18,2.2-4.18,6s1.19,6.06,4,6.06A5.06,5.06,0,0,0,59,393.2Z"/><path class="cls-14" d="M75.28,396.52l-.33-1.7a6.37,6.37,0,0,1-4.63,2c-3.33,0-5.16-2-5.16-6.07v-9.17h2.32v9c0,3.08,1,4.36,3.38,4.36a5.88,5.88,0,0,0,3.69-1.46V381.59H76.9v14.93Z"/><path class="cls-14" d="M82.57,389.73c0,3.68,1.89,5.3,4.73,5.3a9.24,9.24,0,0,0,4.63-1.49l.58,1.64a10.73,10.73,0,0,1-5.46,1.65c-4.08,0-6.8-2.71-6.8-7.87,0-4.72,2.32-7.68,6.41-7.68s6,3.39,6,7.14v1.31Zm4-6.68c-2.83,0-4,2.5-4,5.06h7.8C90.37,385.52,89.49,383.05,86.56,383.05Z"/><path class="cls-14" d="M106,394.72a5.64,5.64,0,0,1-4.29,2.11c-3.54,0-6-2.62-6-7.8,0-4.55,2.26-7.75,6.25-7.75a6.25,6.25,0,0,1,4,1.28,20.92,20.92,0,0,1-.12-2.43v-4.64h2.32v21h-1.74Zm-.18-10.6a6.38,6.38,0,0,0-3.63-1.07c-2.8,0-4.14,2.2-4.14,6s1.19,6.06,4,6.06a5.06,5.06,0,0,0,3.78-1.89Z"/><path class="cls-14" d="M121.41,396.52l-.4-1.92a5.87,5.87,0,0,1-4.6,2.23,4.47,4.47,0,0,1-4.82-4.57c0-2.59,1.89-4.27,5.28-4.27h3.87V386.8c0-2.59-1.13-3.69-3.38-3.69a11,11,0,0,0-4.52,1l-.61-1.68a13.15,13.15,0,0,1,5.43-1.13c3.54,0,5.33,1.83,5.33,5.4v9.84Zm-.67-6.95h-3.51c-2.53,0-3.38,1.1-3.38,2.59,0,1.8,1,3,3.14,3a5.26,5.26,0,0,0,3.75-1.86Z"/><path class="cls-14" d="M143.51,394.72a5.64,5.64,0,0,1-4.3,2.11c-3.53,0-6-2.62-6-7.8,0-4.55,2.25-7.75,6.25-7.75a6.25,6.25,0,0,1,4,1.28,20.92,20.92,0,0,1-.12-2.43v-4.64h2.32v21h-1.74Zm-.18-10.6a6.38,6.38,0,0,0-3.63-1.07c-2.8,0-4.14,2.2-4.14,6s1.19,6.06,4,6.06a5.06,5.06,0,0,0,3.78-1.89Z"/><path class="cls-14" d="M151.5,389.73c0,3.68,1.89,5.3,4.72,5.3a9.28,9.28,0,0,0,4.64-1.49l.58,1.64a10.76,10.76,0,0,1-5.46,1.65c-4.09,0-6.8-2.71-6.8-7.87,0-4.72,2.32-7.68,6.4-7.68s6,3.39,6,7.14v1.31Zm4-6.68c-2.83,0-4,2.5-4,5.06h7.8C159.3,385.52,158.42,383.05,155.49,383.05Z"/><path class="cls-14" d="M171.93,392.41V375.49h2.28v17.77c0,1.28.58,1.8,2.23,1.8h.48v1.59a7,7,0,0,1-1.46.18C172.63,396.83,171.93,395.21,171.93,392.41Z"/><path class="cls-14" d="M192.1,389c0,5-2.43,7.8-6.43,7.8s-6.37-2.71-6.37-7.8c0-4.39,2.07-7.75,6.37-7.75S192.1,384.58,192.1,389Zm-2.37,0c0-3.91-1.31-6-4.06-6s-4,2.19-4,6c0,3.65,1.07,6.06,4,6.06S189.73,393,189.73,389Z"/><path class="cls-14" d="M197.32,385.25c0,3.2,7.41,2.07,7.41,7.13,0,2.41-1.86,4.45-5.19,4.45a9,9,0,0,1-4.51-1.28l.67-1.71a7,7,0,0,0,3.81,1.25c1.83,0,3-1,3-2.56,0-3.6-7.32-2.26-7.32-7.32,0-2,1.53-3.93,4.94-3.93a9.68,9.68,0,0,1,4.48,1L204,384a8,8,0,0,0-3.91-.92C198.23,383.05,197.32,383.87,197.32,385.25Z"/><path class="cls-14" d="M216.68,389.73c0,3.68,1.89,5.3,4.72,5.3a9.28,9.28,0,0,0,4.64-1.49l.58,1.64a10.73,10.73,0,0,1-5.46,1.65c-4.08,0-6.8-2.71-6.8-7.87,0-4.72,2.32-7.68,6.4-7.68s6,3.39,6,7.14v1.31Zm4-6.68c-2.83,0-4,2.5-4,5.06h7.8C224.48,385.52,223.6,383.05,220.67,383.05Z"/><path class="cls-14" d="M232,385.25c0,3.2,7.41,2.07,7.41,7.13,0,2.41-1.86,4.45-5.18,4.45a9,9,0,0,1-4.51-1.28l.67-1.71a6.94,6.94,0,0,0,3.81,1.25c1.83,0,2.95-1,2.95-2.56,0-3.6-7.31-2.26-7.31-7.32,0-2,1.52-3.93,4.94-3.93a9.71,9.71,0,0,1,4.48,1l-.55,1.71a8,8,0,0,0-3.9-.92C232.9,383.05,232,383.87,232,385.25Z"/><path class="cls-14" d="M245.15,397.53v4.79h-2.34V381.59h1.79l.37,1.77a6,6,0,0,1,4.36-2.08c3.81,0,5.7,2.72,5.7,7.75,0,5.27-2.62,7.8-6.19,7.8a5.22,5.22,0,0,1-4-1.71A14,14,0,0,1,245.15,397.53Zm0-4a5,5,0,0,0,3.54,1.61c2.71,0,4-1.77,4-6.06,0-3.94-1.13-5.95-3.84-5.95a5.36,5.36,0,0,0-3.69,1.74Z"/><path class="cls-14" d="M267.8,396.52l-.39-1.92a5.89,5.89,0,0,1-4.6,2.23,4.47,4.47,0,0,1-4.82-4.57c0-2.59,1.89-4.27,5.27-4.27h3.87V386.8c0-2.59-1.13-3.69-3.38-3.69a11,11,0,0,0-4.51,1l-.61-1.68a13.14,13.14,0,0,1,5.42-1.13c3.54,0,5.34,1.83,5.34,5.4v9.84Zm-.67-6.95h-3.5c-2.53,0-3.39,1.1-3.39,2.59,0,1.8,1,3,3.14,3a5.22,5.22,0,0,0,3.75-1.86Z"/><path class="cls-14" d="M284.39,395.52a10.65,10.65,0,0,1-5,1.31c-3.78,0-6.52-2.23-6.52-7.77,0-5.06,2.77-7.78,6.52-7.78a9.66,9.66,0,0,1,4.87,1.19l-.66,1.65a8.12,8.12,0,0,0-4.09-1c-2.68,0-4.33,2.14-4.33,5.92,0,4.2,1.65,6,4.33,6a8.44,8.44,0,0,0,4.3-1.25Z"/><path class="cls-14" d="M288.63,396.52V383.45l-1.65-.34v-1.52h3.9v14.93Zm-.22-20.82h2.47v2.44h-2.47Z"/><path class="cls-14" d="M307.22,389c0,5-2.44,7.8-6.43,7.8s-6.37-2.71-6.37-7.8c0-4.39,2.07-7.75,6.37-7.75C304.94,381.28,307.22,384.58,307.22,389Zm-2.38,0c0-3.91-1.31-6-4-6s-4,2.19-4,6c0,3.65,1.06,6.06,4,6.06S304.84,393,304.84,389Z"/><path class="cls-14" d="M312.44,385.25c0,3.2,7.4,2.07,7.4,7.13,0,2.41-1.86,4.45-5.18,4.45a9,9,0,0,1-4.51-1.28l.67-1.71a7,7,0,0,0,3.81,1.25c1.83,0,3-1,3-2.56,0-3.6-7.32-2.26-7.32-7.32,0-2,1.53-3.93,4.94-3.93a9.71,9.71,0,0,1,4.48,1l-.55,1.71a8,8,0,0,0-3.9-.92C313.35,383.05,312.44,383.87,312.44,385.25Z"/><path class="cls-14" d="M15.23,428.45v-5.83a12.83,12.83,0,0,1,.21-1.76,5.78,5.78,0,0,1-4.33,2.1c-3.47,0-6-2.65-6-7.8,0-4.55,2.25-7.75,6.25-7.75a7.48,7.48,0,0,1,4.3,1.41l.42-1.1h1.46v20.73Zm0-18.14a5.89,5.89,0,0,0-3.6-1.13c-2.8,0-4.17,2.2-4.17,6s1.18,6.06,4,6.06a5.06,5.06,0,0,0,3.78-1.89Z"/><path class="cls-14" d="M31.51,422.66,31.17,421a6.37,6.37,0,0,1-4.63,2c-3.32,0-5.15-2-5.15-6.07v-9.17H23.7v9c0,3.08,1,4.36,3.39,4.36a5.93,5.93,0,0,0,3.69-1.46V407.72h2.34v14.94Z"/><path class="cls-14" d="M38.79,415.86c0,3.69,1.89,5.3,4.73,5.3a9.2,9.2,0,0,0,4.63-1.49l.58,1.64A10.62,10.62,0,0,1,43.28,423c-4.09,0-6.8-2.71-6.8-7.86,0-4.73,2.31-7.69,6.4-7.69s6,3.39,6,7.14v1.31Zm4-6.68c-2.84,0-4,2.5-4,5.06H46.6C46.6,411.65,45.71,409.18,42.79,409.18Z"/><path class="cls-14" d="M70.13,421.65a10.58,10.58,0,0,1-5,1.31c-3.77,0-6.52-2.23-6.52-7.77,0-5.06,2.78-7.78,6.52-7.78A9.67,9.67,0,0,1,70,408.6l-.67,1.65a8.11,8.11,0,0,0-4.08-1c-2.69,0-4.33,2.14-4.33,5.92,0,4.2,1.64,6,4.33,6a8.4,8.4,0,0,0,4.29-1.25Z"/><path class="cls-14" d="M83.12,422.66,82.78,421a6.35,6.35,0,0,1-4.63,2c-3.32,0-5.15-2-5.15-6.07v-9.17h2.32v9c0,3.08,1,4.36,3.38,4.36a5.93,5.93,0,0,0,3.69-1.46V407.72h2.34v14.94Z"/><path class="cls-14" d="M100.19,413.24v9.42H97.84v-9c0-2.83-.82-4.39-3.35-4.39a5.35,5.35,0,0,0-3.6,1.71v11.71H88.58V407.72H90.1l.49,1.8a6.26,6.26,0,0,1,4.54-2.11c2.23,0,3.66.8,4.39,2.29a6.54,6.54,0,0,1,4.66-2.29c3.66,0,5.28,2,5.28,5.83v9.42h-2.35v-9c0-2.83-1.07-4.39-3.6-4.39A5.36,5.36,0,0,0,100,411,8.9,8.9,0,0,1,100.19,413.24Z"/><path class="cls-14" d="M115.44,423.66v4.79h-2.35V407.72h1.8l.36,1.77a6,6,0,0,1,4.36-2.08c3.81,0,5.7,2.72,5.7,7.75,0,5.27-2.62,7.8-6.19,7.8a5.25,5.25,0,0,1-4-1.71A13.83,13.83,0,0,1,115.44,423.66Zm0-4.05a5,5,0,0,0,3.53,1.61c2.71,0,4-1.77,4-6.06,0-3.94-1.12-6-3.84-6a5.36,5.36,0,0,0-3.68,1.74Z"/><path class="cls-14" d="M129,418.54V401.62h2.29v17.77c0,1.28.58,1.8,2.22,1.8H134v1.59a7,7,0,0,1-1.46.18C129.67,423,129,421.34,129,418.54Z"/><path class="cls-14" d="M138.7,415.86c0,3.69,1.89,5.3,4.72,5.3a9.28,9.28,0,0,0,4.64-1.49l.57,1.64a10.62,10.62,0,0,1-5.45,1.65c-4.09,0-6.8-2.71-6.8-7.86,0-4.73,2.32-7.69,6.4-7.69s6,3.39,6,7.14v1.31Zm4-6.68c-2.83,0-4,2.5-4,5.06h7.8C146.5,411.65,145.62,409.18,142.69,409.18Z"/><path class="cls-14" d="M161.68,422.66v-9c0-2.83-.88-4.39-3.41-4.39a5.55,5.55,0,0,0-3.66,1.71v11.71h-2.32V407.72h1.56l.46,1.77a6.49,6.49,0,0,1,4.69-2.08c3.5,0,5.06,2.11,5.06,5.83v9.42Z"/><path class="cls-14" d="M185.52,421.65a10.57,10.57,0,0,1-5,1.31c-3.78,0-6.53-2.23-6.53-7.77,0-5.06,2.78-7.78,6.53-7.78a9.66,9.66,0,0,1,4.87,1.19l-.67,1.65a8.11,8.11,0,0,0-4.08-1c-2.69,0-4.33,2.14-4.33,5.92,0,4.2,1.64,6,4.33,6a8.4,8.4,0,0,0,4.29-1.25Z"/><path class="cls-14" d="M200.86,415.16c0,5-2.44,7.8-6.43,7.8s-6.38-2.71-6.38-7.8c0-4.39,2.08-7.75,6.38-7.75C198.57,407.41,200.86,410.71,200.86,415.16Zm-2.38,0c0-3.9-1.31-6-4-6s-4,2.2-4,6c0,3.65,1.07,6.06,4,6.06S198.48,419.15,198.48,415.16Z"/><path class="cls-14" d="M213.75,422.66v-9c0-2.83-.88-4.39-3.41-4.39a5.55,5.55,0,0,0-3.66,1.71v11.71h-2.31V407.72h1.55l.46,1.77a6.51,6.51,0,0,1,4.69-2.08c3.51,0,5.06,2.11,5.06,5.83v9.42Z"/><path class="cls-14" d="M226.68,418.54V401.62H229v17.77c0,1.28.58,1.8,2.22,1.8h.49v1.59a7,7,0,0,1-1.46.18C227.38,423,226.68,421.34,226.68,418.54Z"/><path class="cls-14" d="M246.86,415.16c0,5-2.44,7.8-6.43,7.8s-6.37-2.71-6.37-7.8c0-4.39,2.07-7.75,6.37-7.75C244.57,407.41,246.86,410.71,246.86,415.16Zm-2.38,0c0-3.9-1.31-6-4-6s-4,2.2-4,6c0,3.65,1.06,6.06,4,6.06S244.48,419.15,244.48,415.16Z"/><path class="cls-14" d="M252.08,411.38c0,3.2,7.4,2.07,7.4,7.13,0,2.41-1.86,4.45-5.18,4.45a9,9,0,0,1-4.51-1.28l.67-1.71a7,7,0,0,0,3.81,1.25c1.83,0,3-1,3-2.56,0-3.6-7.32-2.25-7.32-7.31,0-2,1.53-3.94,4.94-3.94a9.71,9.71,0,0,1,4.48,1l-.55,1.71a8,8,0,0,0-3.9-.92C253,409.18,252.08,410,252.08,411.38Z"/><path class="cls-14" d="M13.15,435.86a6,6,0,0,0-1.91-.27,4.77,4.77,0,0,0-3.36,1.61v11.59H5.57V433.85H7.12l.43,1.89a5,5,0,0,1,3.87-2.1,6.79,6.79,0,0,1,1.89.24Z"/><path class="cls-14" d="M17.73,442c0,3.69,1.89,5.3,4.72,5.3a9.28,9.28,0,0,0,4.64-1.49l.58,1.65a10.73,10.73,0,0,1-5.46,1.64c-4.08,0-6.8-2.71-6.8-7.86,0-4.73,2.32-7.68,6.4-7.68s6,3.38,6,7.13V442Zm4-6.68c-2.83,0-4,2.5-4,5.06h7.8C25.53,437.78,24.65,435.31,21.72,435.31Z"/><path class="cls-14" d="M41,454.58v-5.82A13.06,13.06,0,0,1,41.2,447a5.75,5.75,0,0,1-4.33,2.1c-3.47,0-6-2.65-6-7.8,0-4.54,2.25-7.74,6.25-7.74a7.49,7.49,0,0,1,4.3,1.4l.42-1.1h1.47v20.73Zm0-18.14a5.89,5.89,0,0,0-3.6-1.13c-2.8,0-4.17,2.2-4.17,6s1.19,6.06,4,6.06A5.06,5.06,0,0,0,41,445.46Z"/><path class="cls-14" d="M57.27,448.79l-.34-1.71a6.37,6.37,0,0,1-4.63,2c-3.32,0-5.15-2-5.15-6.07v-9.17h2.32v9c0,3.08,1,4.36,3.38,4.36a5.93,5.93,0,0,0,3.69-1.46V433.85h2.34v14.94Z"/><path class="cls-14" d="M63.91,448.79V435.71l-1.64-.34v-1.52h3.9v14.94ZM63.7,428h2.47v2.44H63.7Z"/><path class="cls-14" d="M71.93,437.51c0,3.2,7.41,2.07,7.41,7.13,0,2.41-1.86,4.45-5.18,4.45a9,9,0,0,1-4.51-1.28l.67-1.71a6.94,6.94,0,0,0,3.81,1.25c1.83,0,3-1,3-2.56,0-3.59-7.31-2.25-7.31-7.31,0-2,1.52-3.93,4.94-3.93a9.71,9.71,0,0,1,4.48,1l-.55,1.71a8,8,0,0,0-3.9-.92C72.85,435.31,71.93,436.14,71.93,437.51Z"/><path class="cls-14" d="M83.94,448.79V435.71l-1.64-.34v-1.52h3.9v14.94ZM83.73,428H86.2v2.44H83.73Z"/><path class="cls-14" d="M95.29,449.09c-2.11,0-3.85-1.07-3.85-4.57v-9H89.19v-1.68h2.25v-2.71l2.32-.73v3.44h4.36v1.68H93.76v9.26c0,1.59.58,2.35,2,2.35a6.57,6.57,0,0,0,2.38-.64l.46,1.71A7.41,7.41,0,0,1,95.29,449.09Z"/><path class="cls-14" d="M113.88,441.29c0,5-2.44,7.8-6.43,7.8s-6.37-2.71-6.37-7.8c0-4.39,2.07-7.74,6.37-7.74C111.59,433.55,113.88,436.84,113.88,441.29Zm-2.38,0c0-3.9-1.31-6-4-6s-4,2.2-4,6c0,3.66,1.07,6.06,4,6.06S111.5,445.28,111.5,441.29Z"/><path class="cls-14" d="M119.09,437.51c0,3.2,7.41,2.07,7.41,7.13,0,2.41-1.86,4.45-5.18,4.45a9,9,0,0,1-4.51-1.28l.67-1.71a7,7,0,0,0,3.81,1.25c1.83,0,3-1,3-2.56,0-3.59-7.32-2.25-7.32-7.31,0-2,1.52-3.93,4.94-3.93a9.71,9.71,0,0,1,4.48,1l-.55,1.71a8,8,0,0,0-3.9-.92C120,435.31,119.09,436.14,119.09,437.51Z"/><path class="cls-14" d="M139,449.79v4.79h-2.35V433.85h1.8l.37,1.77a6,6,0,0,1,4.36-2.07c3.81,0,5.7,2.71,5.7,7.74,0,5.27-2.62,7.8-6.19,7.8a5.22,5.22,0,0,1-4-1.71A14.22,14.22,0,0,1,139,449.79Zm0-4.05a5,5,0,0,0,3.54,1.61c2.71,0,4-1.76,4-6.06,0-3.93-1.13-6-3.84-6a5.4,5.4,0,0,0-3.69,1.74Z"/><path class="cls-14" d="M161.62,448.79l-.39-1.92a5.92,5.92,0,0,1-4.61,2.22,4.47,4.47,0,0,1-4.81-4.57c0-2.59,1.89-4.27,5.27-4.27H161v-1.19c0-2.59-1.13-3.69-3.38-3.69a10.94,10.94,0,0,0-4.51,1l-.61-1.68a13.28,13.28,0,0,1,5.42-1.12c3.54,0,5.34,1.82,5.34,5.39v9.85Zm-.67-7h-3.5c-2.53,0-3.39,1.09-3.39,2.59,0,1.8,1,3,3.14,3a5.25,5.25,0,0,0,3.75-1.85Z"/><path class="cls-14" d="M174.76,435.86a6,6,0,0,0-1.92-.27,4.77,4.77,0,0,0-3.35,1.61v11.59h-2.32V433.85h1.56l.42,1.89a5,5,0,0,1,3.87-2.1,6.79,6.79,0,0,1,1.89.24Z"/><path class="cls-14" d="M186.74,448.79l-.39-1.92a5.92,5.92,0,0,1-4.61,2.22,4.47,4.47,0,0,1-4.81-4.57c0-2.59,1.89-4.27,5.27-4.27h3.87v-1.19c0-2.59-1.13-3.69-3.38-3.69a10.94,10.94,0,0,0-4.51,1l-.61-1.68a13.28,13.28,0,0,1,5.42-1.12c3.54,0,5.34,1.82,5.34,5.39v9.85Zm-.67-7h-3.5c-2.53,0-3.39,1.09-3.39,2.59,0,1.8,1,3,3.14,3a5.25,5.25,0,0,0,3.75-1.85Z"/><path class="cls-14" d="M199.12,444.67V427.75h2.29v17.77c0,1.28.58,1.8,2.22,1.8h.49v1.59a7,7,0,0,1-1.46.18C199.82,449.09,199.12,447.48,199.12,444.67Z"/><path class="cls-14" d="M216.25,448.79l-.39-1.92a5.92,5.92,0,0,1-4.61,2.22,4.47,4.47,0,0,1-4.81-4.57c0-2.59,1.89-4.27,5.27-4.27h3.87v-1.19c0-2.59-1.13-3.69-3.38-3.69a10.94,10.94,0,0,0-4.51,1l-.61-1.68a13.32,13.32,0,0,1,5.42-1.12c3.54,0,5.34,1.82,5.34,5.39v9.85Zm-.67-7h-3.5c-2.53,0-3.39,1.09-3.39,2.59,0,1.8,1,3,3.14,3a5.25,5.25,0,0,0,3.75-1.85Z"/><path class="cls-14" d="M230.34,442c0,3.69,1.89,5.3,4.72,5.3a9.28,9.28,0,0,0,4.64-1.49l.57,1.65a10.72,10.72,0,0,1-5.45,1.64c-4.09,0-6.8-2.71-6.8-7.86,0-4.73,2.32-7.68,6.4-7.68s6,3.38,6,7.13V442Zm4-6.68c-2.83,0-4,2.5-4,5.06h7.8C238.14,437.78,237.26,435.31,234.33,435.31Z"/><path class="cls-14" d="M247.5,449c0,3-1.52,4.51-3.66,4.51a6,6,0,0,1-2.13-.4l.27-1.95a4.32,4.32,0,0,0,1.47.28c1.16,0,1.77-.85,1.77-2.41V435.68l-1.65-.34v-1.49h3.93ZM245,428h2.47v2.44H245Z"/><path class="cls-14" d="M253.87,442c0,3.69,1.89,5.3,4.73,5.3a9.2,9.2,0,0,0,4.63-1.49l.58,1.65a10.73,10.73,0,0,1-5.46,1.64c-4.08,0-6.79-2.71-6.79-7.86,0-4.73,2.31-7.68,6.4-7.68s6,3.38,6,7.13V442Zm4-6.68c-2.84,0-4,2.5-4,5.06h7.81C261.68,437.78,260.79,435.31,257.87,435.31Z"/><path class="cls-14" d="M278.5,447.78a10.57,10.57,0,0,1-5,1.31c-3.78,0-6.53-2.22-6.53-7.77,0-5.06,2.78-7.77,6.53-7.77a9.65,9.65,0,0,1,4.87,1.18l-.67,1.65a8.08,8.08,0,0,0-4.08-1c-2.68,0-4.33,2.14-4.33,5.92,0,4.2,1.65,6,4.33,6A8.44,8.44,0,0,0,278,446Z"/><path class="cls-14" d="M291.49,448.79l-.33-1.71a6.39,6.39,0,0,1-4.64,2c-3.32,0-5.15-2-5.15-6.07v-9.17h2.32v9c0,3.08,1,4.36,3.38,4.36a5.88,5.88,0,0,0,3.69-1.46V433.85h2.35v14.94Z"/><path class="cls-14" d="M308,447.78a10.57,10.57,0,0,1-5,1.31c-3.78,0-6.53-2.22-6.53-7.77,0-5.06,2.78-7.77,6.53-7.77a9.65,9.65,0,0,1,4.87,1.18l-.67,1.65a8.08,8.08,0,0,0-4.08-1c-2.68,0-4.33,2.14-4.33,5.92,0,4.2,1.65,6,4.33,6a8.44,8.44,0,0,0,4.3-1.25Z"/><path class="cls-14" d="M312.22,448.79V435.71l-1.64-.34v-1.52h3.9v14.94ZM312,428h2.47v2.44H312Z"/><path class="cls-14" d="M330.82,441.29c0,5-2.44,7.8-6.43,7.8s-6.37-2.71-6.37-7.8c0-4.39,2.07-7.74,6.37-7.74C328.53,433.55,330.82,436.84,330.82,441.29Zm-2.38,0c0-3.9-1.31-6-4.05-6s-4,2.2-4,6c0,3.66,1.07,6.06,4,6.06S328.44,445.28,328.44,441.29Zm-7.28-9.76-.34-1.37,6.74-2.5.45,1.74Z"/><path class="cls-14" d="M343.72,448.79v-9c0-2.83-.89-4.39-3.42-4.39a5.57,5.57,0,0,0-3.66,1.71v11.71h-2.31V433.85h1.55l.46,1.77a6.5,6.5,0,0,1,4.69-2.07c3.51,0,5.06,2.1,5.06,5.82v9.42Z"/><path class="cls-14" d="M15.41,473.12a5.63,5.63,0,0,1-4.3,2.1c-3.53,0-6-2.62-6-7.8,0-4.54,2.25-7.74,6.25-7.74a6.25,6.25,0,0,1,4,1.28,21.21,21.21,0,0,1-.12-2.44v-4.63h2.31v21H15.81Zm-.18-10.61a6.38,6.38,0,0,0-3.63-1.06c-2.8,0-4.14,2.19-4.14,6s1.18,6.06,4,6.06a5,5,0,0,0,3.78-1.89Z"/><path class="cls-14" d="M23.4,468.12c0,3.69,1.89,5.3,4.72,5.3a9.28,9.28,0,0,0,4.64-1.49l.58,1.65a10.73,10.73,0,0,1-5.46,1.64c-4.08,0-6.8-2.71-6.8-7.86,0-4.73,2.32-7.68,6.4-7.68s6,3.38,6,7.13v1.31Zm4-6.67c-2.83,0-4,2.49-4,5.06h7.8C31.2,463.91,30.32,461.45,27.39,461.45Z"/><path class="cls-14" d="M37.12,470.8V453.89h2.29v17.77c0,1.28.57,1.79,2.22,1.79h.49V475a7,7,0,0,1-1.47.18C37.82,475.22,37.12,473.61,37.12,470.8Z"/><path class="cls-14" d="M54.07,475.92v4.79H51.72V460h1.8l.37,1.77a6,6,0,0,1,4.35-2.07c3.81,0,5.7,2.71,5.7,7.74,0,5.27-2.62,7.8-6.18,7.8a5.29,5.29,0,0,1-4-1.7A13.65,13.65,0,0,1,54.07,475.92Zm0-4.05a5,5,0,0,0,3.53,1.61c2.72,0,4-1.76,4-6.06,0-3.93-1.13-5.95-3.84-5.95a5.36,5.36,0,0,0-3.69,1.74Z"/><path class="cls-14" d="M75.07,462a6,6,0,0,0-1.92-.27,4.77,4.77,0,0,0-3.35,1.61v11.59H67.48V460H69l.42,1.89a5,5,0,0,1,3.88-2.1,6.76,6.76,0,0,1,1.88.24Z"/><path class="cls-14" d="M90.1,467.42c0,5-2.44,7.8-6.43,7.8s-6.37-2.71-6.37-7.8c0-4.39,2.07-7.74,6.37-7.74C87.82,459.68,90.1,463,90.1,467.42Zm-2.38,0c0-3.9-1.31-6-4-6s-4,2.2-4,6c0,3.66,1.06,6.06,4,6.06S87.72,471.41,87.72,467.42Z"/><path class="cls-14" d="M98.76,474.83l-1.52.12-4.79-15H95s2.81,9.09,4.09,13.57c1.31-4.52,4.05-13.57,4.05-13.57h2.38l-4.79,14.78c-1.55,4.76-3.11,6.28-6,6.28a6,6,0,0,1-3.32-1.18l.76-1.56h.18a4.31,4.31,0,0,0,2.5.95c1.74,0,2.74-1,3.69-3.88Z"/><path class="cls-14" d="M109.8,468.12c0,3.69,1.89,5.3,4.72,5.3a9.2,9.2,0,0,0,4.63-1.49l.58,1.65a10.72,10.72,0,0,1-5.45,1.64c-4.09,0-6.8-2.71-6.8-7.86,0-4.73,2.32-7.68,6.4-7.68s6,3.38,6,7.13v1.31Zm4-6.67c-2.83,0-4,2.49-4,5.06h7.8C117.6,463.91,116.72,461.45,113.79,461.45Z"/><path class="cls-14" d="M134.43,473.91a10.65,10.65,0,0,1-5,1.31c-3.78,0-6.52-2.22-6.52-7.77,0-5.06,2.77-7.77,6.52-7.77a9.57,9.57,0,0,1,4.88,1.19l-.67,1.64a8.12,8.12,0,0,0-4.09-1c-2.68,0-4.33,2.13-4.33,5.91,0,4.21,1.65,6,4.33,6a8.44,8.44,0,0,0,4.3-1.25Z"/><path class="cls-14" d="M142.51,475.22c-2.1,0-3.84-1.07-3.84-4.57v-9h-2.26V460h2.26v-2.71l2.31-.73V460h4.36v1.68H141v9.26c0,1.59.58,2.35,2,2.35a6.45,6.45,0,0,0,2.37-.64l.46,1.71A7.37,7.37,0,0,1,142.51,475.22Z"/><path class="cls-14" d="M161.1,467.42c0,5-2.43,7.8-6.43,7.8s-6.37-2.71-6.37-7.8c0-4.39,2.07-7.74,6.37-7.74S161.1,463,161.1,467.42Zm-2.37,0c0-3.9-1.31-6-4.06-6s-4,2.2-4,6c0,3.66,1.07,6.06,4,6.06S158.73,471.41,158.73,467.42Z"/><path class="cls-14" d="M181.16,473.12a5.63,5.63,0,0,1-4.29,2.1c-3.54,0-6-2.62-6-7.8,0-4.54,2.26-7.74,6.25-7.74a6.25,6.25,0,0,1,4,1.28,21.21,21.21,0,0,1-.12-2.44v-4.63h2.32v21h-1.74ZM181,462.51a6.38,6.38,0,0,0-3.63-1.06c-2.8,0-4.14,2.19-4.14,6s1.19,6.06,4,6.06a5,5,0,0,0,3.78-1.89Z"/><path class="cls-14" d="M189.15,468.12c0,3.69,1.89,5.3,4.73,5.3a9.24,9.24,0,0,0,4.63-1.49l.58,1.65a10.73,10.73,0,0,1-5.46,1.64c-4.08,0-6.79-2.71-6.79-7.86,0-4.73,2.31-7.68,6.4-7.68s6,3.38,6,7.13v1.31Zm4-6.67c-2.83,0-4,2.49-4,5.06H197C197,463.91,196.07,461.45,193.14,461.45Z"/><path class="cls-14" d="M221.07,465.5v9.42h-2.35v-9c0-2.84-.82-4.39-3.35-4.39a5.32,5.32,0,0,0-3.6,1.7v11.71h-2.31V460H211l.49,1.8a6.27,6.27,0,0,1,4.54-2.1c2.23,0,3.66.79,4.39,2.28a6.51,6.51,0,0,1,4.66-2.28c3.66,0,5.28,2,5.28,5.82v9.42H228v-9c0-2.84-1.07-4.39-3.6-4.39a5.35,5.35,0,0,0-3.56,1.7A8.9,8.9,0,0,1,221.07,465.5Z"/><path class="cls-14" d="M243.2,474.92l-.39-1.92a5.89,5.89,0,0,1-4.61,2.22,4.47,4.47,0,0,1-4.81-4.57c0-2.59,1.89-4.27,5.27-4.27h3.87v-1.19c0-2.59-1.13-3.68-3.38-3.68a11,11,0,0,0-4.51,1L234,460.8a13.32,13.32,0,0,1,5.42-1.12c3.54,0,5.34,1.83,5.34,5.39v9.85Zm-.67-6.95H239c-2.53,0-3.39,1.1-3.39,2.59,0,1.8,1,3,3.14,3a5.26,5.26,0,0,0,3.75-1.86Z"/><path class="cls-14" d="M258.14,474.92v-9c0-2.84-.88-4.39-3.41-4.39a5.52,5.52,0,0,0-3.66,1.7v11.71h-2.32V460h1.56l.45,1.77a6.57,6.57,0,0,1,4.7-2.07c3.5,0,5.06,2.1,5.06,5.82v9.42Z"/><path class="cls-14" d="M266.07,468.12c0,3.69,1.89,5.3,4.72,5.3a9.28,9.28,0,0,0,4.64-1.49l.58,1.65a10.73,10.73,0,0,1-5.46,1.64c-4.08,0-6.8-2.71-6.8-7.86,0-4.73,2.32-7.68,6.4-7.68s6,3.38,6,7.13v1.31Zm4-6.67c-2.83,0-4,2.49-4,5.06h7.8C273.87,463.91,273,461.45,270.06,461.45Z"/><path class="cls-14" d="M287.25,462a6,6,0,0,0-1.91-.27,4.77,4.77,0,0,0-3.36,1.61v11.59h-2.31V460h1.55l.43,1.89a5,5,0,0,1,3.87-2.1,6.79,6.79,0,0,1,1.89.24Z"/><path class="cls-14" d="M299.24,474.92l-.4-1.92a5.87,5.87,0,0,1-4.6,2.22,4.47,4.47,0,0,1-4.82-4.57c0-2.59,1.89-4.27,5.28-4.27h3.87v-1.19c0-2.59-1.13-3.68-3.39-3.68a11,11,0,0,0-4.51,1l-.61-1.68a13.34,13.34,0,0,1,5.43-1.12c3.53,0,5.33,1.83,5.33,5.39v9.85Zm-.67-6.95h-3.51c-2.53,0-3.38,1.1-3.38,2.59,0,1.8,1,3,3.14,3a5.3,5.3,0,0,0,3.75-1.86Z"/><path class="cls-14" d="M7.27,489.77c0,3.2,7.41,2.07,7.41,7.13,0,2.41-1.86,4.45-5.18,4.45A9,9,0,0,1,5,500.07l.67-1.7a6.94,6.94,0,0,0,3.81,1.25c1.83,0,2.95-1,2.95-2.56,0-3.6-7.31-2.26-7.31-7.32,0-2,1.52-3.93,4.94-3.93a9.71,9.71,0,0,1,4.48,1L14,488.49a8,8,0,0,0-3.9-.91C8.19,487.58,7.27,488.4,7.27,489.77Z"/><path class="cls-14" d="M19.92,494.25c0,3.69,1.89,5.3,4.73,5.3a9.2,9.2,0,0,0,4.63-1.49l.58,1.65a10.72,10.72,0,0,1-5.45,1.64c-4.09,0-6.8-2.71-6.8-7.86,0-4.73,2.31-7.68,6.4-7.68s6,3.38,6,7.13v1.31Zm4-6.67c-2.84,0-4,2.5-4,5.06h7.81C27.73,490,26.84,487.58,23.92,487.58Z"/><path class="cls-14" d="M46.35,486.11v1.62a15.94,15.94,0,0,1-3.62-.31,4.49,4.49,0,0,1,2,3.57c0,3.54-3.38,5-5.64,5a6.51,6.51,0,0,1-2-.34c-1.1.1-1.59.52-1.59,1.07,0,1.86,9.79,0,9.79,5.3,0,3.48-3.2,5.16-6.4,5.16-2.93,0-5.95-1.56-5.95-4.42,0-2,1.53-3.2,3.78-3.54-1.83-.18-3.35-.82-3.35-2.26,0-1,.7-1.79,2.26-2a4.42,4.42,0,0,1-2.29-4c0-3.9,3.51-5.18,5.67-5.18C40.32,485.81,42.76,486,46.35,486.11Zm-7.52,13.41c-2.26.07-3.57,1.22-3.57,3s1.86,3,3.78,3c2.28,0,4-1,4-3.41C43.06,500.65,41.81,499.83,38.83,499.52ZM42.6,491a3.21,3.21,0,0,0-3.5-3.44A3.24,3.24,0,0,0,35.56,491c0,2.68,2,3.38,3.54,3.38A3.18,3.18,0,0,0,42.6,491Z"/><path class="cls-14" d="M59.1,501.05l-.34-1.71a6.37,6.37,0,0,1-4.63,2c-3.32,0-5.15-2-5.15-6.06v-9.18h2.31v9c0,3.07,1,4.35,3.39,4.35A5.93,5.93,0,0,0,58.37,498V486.11h2.34v14.94Z"/><path class="cls-14" d="M72.15,488.13a5.8,5.8,0,0,0-1.93-.28,4.74,4.74,0,0,0-3.35,1.62v11.58H64.56V486.11h1.55l.43,1.89a5,5,0,0,1,3.87-2.1,6.87,6.87,0,0,1,1.89.24Z"/><path class="cls-14" d="M84.13,501.05l-.4-1.92a5.87,5.87,0,0,1-4.6,2.22,4.47,4.47,0,0,1-4.82-4.57c0-2.59,1.89-4.27,5.27-4.27h3.88v-1.19c0-2.59-1.13-3.68-3.39-3.68a11.15,11.15,0,0,0-4.51,1L75,486.94a13.15,13.15,0,0,1,5.43-1.13c3.53,0,5.33,1.83,5.33,5.39v9.85Zm-.67-6.95H80c-2.53,0-3.38,1.1-3.38,2.59,0,1.8,1,3,3.14,3a5.3,5.3,0,0,0,3.75-1.86Z"/><path class="cls-14" d="M89.22,497.64H91.5v3.41H89.22Z"/><path class="cls-15" d="M37.81,369.89V350.73H42.3v15.38h7.89v3.78Z"/><path class="cls-15" d="M62.53,369.89l-.71-1.76a5.26,5.26,0,0,1-4.34,2c-3.66,0-5.19-2-5.19-5.81V356h4.48v8.49c0,1.73.71,2.3,2.1,2.3a4.12,4.12,0,0,0,2-.54V356h4.54v13.91Z"/><path class="cls-15" d="M81.75,356l-.06,3.47a8.68,8.68,0,0,1-2.3-.71,5,5,0,0,1,1.14,1.73c0,3.43-3.46,4.85-6,4.85a7.4,7.4,0,0,1-1.76-.23.56.56,0,0,0-.4.54c0,1.48,8.8-.37,8.8,5,0,3.26-3.21,5.1-6.95,5.1-3,0-6-1.13-6-3.63,0-1.79,1.48-2.61,3.77-3-1.76-.2-3.69-.71-3.69-2.47,0-1.22,1.17-2.1,2.84-2.21a4.4,4.4,0,0,1-2.55-4c0-3.72,3.6-4.77,6-4.77C77,355.87,79.82,356,81.75,356Zm-7.89,13.4a1.63,1.63,0,0,0-1.51,1.67c0,1,.8,1.73,2.16,1.73s2.27-.76,2.27-1.84S75.73,369.52,73.86,369.38Zm2.75-8.94c0-1.19-1.13-1.59-2.07-1.59s-2.07.4-2.07,1.59c0,1.36,1.08,1.76,2.07,1.76S76.61,361.8,76.61,360.44Z"/><path class="cls-15" d="M93.13,369.89l-.57-1.59a4.73,4.73,0,0,1-3.94,1.87,4.43,4.43,0,0,1-4.77-4.57c0-2.66,2-4.17,5.42-4.17h2.58v-.51c0-1.47-1-1.81-2.1-1.81a10,10,0,0,0-4.14.9l-1.11-3.17a14.75,14.75,0,0,1,5.68-1.14c4.28,0,6,1.87,6,5.53v8.66ZM91.85,364H90.06c-1.19,0-1.81.56-1.81,1.47a1.5,1.5,0,0,0,1.67,1.67,4,4,0,0,0,1.93-.56Z"/><path class="cls-15" d="M104,369.89H99.57V356h3.12l.43,1.93h.14a3.38,3.38,0,0,1,3.18-2.21,5.93,5.93,0,0,1,1.53.17l0,3.8a6.85,6.85,0,0,0-1.74-.22,3.87,3.87,0,0,0-2.18.65Z"/><path class="cls-15" d="M114.47,364.13c0,1.59,1,2.64,3.18,2.64a10.28,10.28,0,0,0,3.92-1l.79,3.12a12.25,12.25,0,0,1-5.39,1.3c-4.46,0-7-2.75-7-7.26,0-4.2,2-7.21,6.73-7.21,4.34,0,6.07,3.09,6.07,6.58v1.85Zm2-5.17c-1.48,0-2,1.34-2,2.61h4C118.48,360.1,118.05,359,116.52,359Z"/><path class="cls-15" d="M134.59,359.5a8.81,8.81,0,0,0-3.23-.62c-1,0-1.53.31-1.53.88,0,1.76,5.59,1.3,5.59,5.73,0,2.7-2,4.68-5.82,4.68a9.46,9.46,0,0,1-4.14-.93l.82-3.1a6.79,6.79,0,0,0,3.18.88c1,0,1.67-.42,1.67-1.13,0-2.05-5.5-1.45-5.5-6.19,0-2.18,1.61-4,5.67-4a13.74,13.74,0,0,1,3.81.54Z"/><path class="cls-15" d="M138.43,356H143v4.43h-4.54Zm0,9.48H143v4.43h-4.54Z"/><path class="cls-16" d="M12.67,330.11v-.95h9.74v1.5c0,10.49-8.72,10.7-8.72,17.51,0,2.52,1.77,4.5,5.18,4.5A23.17,23.17,0,0,0,27,351l2.66,8.38a30.81,30.81,0,0,1-12.82,2.59c-8.44,0-14.58-4.56-14.58-12.19C2.24,339.31,12.67,336.72,12.67,330.11Zm10.15-4.77H12.26V314.92H22.82Z"/><path class="cls-16" d="M52.53,349a59.17,59.17,0,0,1-17.11-2.52V302.31H52.05c13.69,0,22.35,5.39,22.35,22.49C74.4,339.58,68,349,52.53,349Zm-.82-38H46.19V339a27.42,27.42,0,0,0,7,.88c5,0,9.81-2.45,9.81-15.12C63,314.71,60.16,311,51.71,311Z"/><path class="cls-16" d="M100.69,349c-16.15,0-20.23-11.72-20.23-24.06,0-12,4-23.3,20.23-23.3,16.56,0,20.45,11.18,20.45,23.3C121.14,337.27,116.84,349,100.69,349Zm-9-49.2-.89-6.13,20-2.73-.14,7.91Zm9,11.11c-7.15,0-8.85,6.13-8.85,14,0,8.72,1.84,15.05,8.85,15.05s9-6.26,9-15.05C109.69,316.89,107.85,310.9,100.69,310.9Z"/><path class="cls-16" d="M149.61,348.31,137.14,312.4h-.27l1,35.91h-9.61v-46h16.56l12.81,36.8h.28l-1-36.8h9.82v46Z"/><path class="cls-16" d="M192.67,349a59.1,59.1,0,0,1-17.1-2.52V302.31h16.62c13.7,0,22.35,5.39,22.35,22.49C214.54,339.58,208.14,349,192.67,349Zm-.82-38h-5.52V339a27.48,27.48,0,0,0,6.95.88c5,0,9.82-2.45,9.82-15.12C203.1,314.71,200.3,311,191.85,311Z"/><path class="cls-16" d="M222.31,348.31v-46H252v9.06H233.07v9.07h14.17l-.68,9.47H233.07v9.4H252v9Z"/><path class="cls-16" d="M273.06,333.11v.95h-9.74v-1.49c0-10.5,8.72-10.7,8.72-17.52,0-2.52-1.77-4.49-5.18-4.49a23.15,23.15,0,0,0-8.11,1.7l-2.65-8.38a30.73,30.73,0,0,1,12.81-2.59c8.45,0,14.58,4.57,14.58,12.2C283.49,323.91,273.06,326.5,273.06,333.11Zm-10.15,4.77h10.56v10.43H262.91Z"/></svg>