<svg id="Capa_1" data-name="Capa 1" xmlns="http://www.w3.org/2000/svg" viewBox="0 0 1024 512"><defs><style>.cls-1{fill:#2d5972;}.cls-2{fill:#103140;}.cls-3{fill:#e7e6e6;}.cls-4{fill:#c1d44f;}.cls-5{fill:#fcc77c;}.cls-6{fill:#e9b871;}.cls-7{fill:#a0b61d;}.cls-8{fill:#c22518;}.cls-9{fill:#a82117;}.cls-10{fill:#fff;}.cls-11{fill:#1db1bf;}.cls-12{fill:#34bacc;}.cls-13{fill:#e7334a;}.cls-13,.cls-14,.cls-15,.cls-16{stroke:#fff;stroke-miterlimit:10;}.cls-14{fill:#55b682;}.cls-15,.cls-16{fill:#615185;}.cls-16{stroke-width:0.5px;}</style></defs><polygon class="cls-1" points="83.22 351.34 0 287.97 111.28 45.72 194.5 109.1 83.22 351.34"/><polygon class="cls-2" points="83.22 351.34 185.51 373.19 296.79 130.94 194.5 109.1 83.22 351.34"/><polygon class="cls-3" points="48.76 304.09 70.14 320.38 48.77 304.1 48.76 304.09"/><polygon class="cls-1" points="268.71 436.56 371.01 458.4 482.29 216.16 380 194.31 268.71 436.56"/><polygon class="cls-2" points="268.71 436.56 185.51 373.19 296.79 130.94 380 194.31 268.71 436.56"/><path class="cls-3" d="M327,431.92l-26.28-5.62Z"/><path class="cls-4" d="M111.18,290.48l15.33-33.36c-33.52-2.7-66.66-1.49-95.09,1.12L20.31,282.42,48.77,304.1l21.37,16.28,20.23,15.4,8.91-19.4Z"/><path class="cls-5" d="M186.62,126.27,115.32,75.6,31.42,258.23c28.43-2.6,61.58-3.81,95.09-1.11Z"/><path class="cls-6" d="M199.33,270.48a115.26,115.26,0,0,0,30.95,5.24l28.41-61.84,30.15-65.63-101.6-21.53-.62-.45L126.51,257.12c24.66,2,49.52,6.1,72.82,13.36"/><path class="cls-7" d="M199.33,270.48c-23.3-7.26-48.16-11.37-72.82-13.36l-15.33,33.36-11.9,25.9-8.91,19.4,103.11,20,36.8-80.1a115.26,115.26,0,0,1-30.95-5.24"/><path class="cls-5" d="M230.28,275.72c53.85,1.64,98.83-36.22,130-72.85l-71.49-54.63-30.15,65.64Z"/><path class="cls-8" d="M249.54,58.29c-16.89,36.78-12.13,201.93-12.13,201.93L346.7,22.3a73.28,73.28,0,0,0-97.16,36"/><path class="cls-9" d="M346.7,22.3,237.41,260.22s128.39-104,145.28-140.76a73.26,73.26,0,0,0-36-97.16"/><path class="cls-10" d="M347.18,101.82a33.63,33.63,0,1,1-16.52-44.59,33.63,33.63,0,0,1,16.52,44.59"/><path class="cls-7" d="M293.29,383.06c46.7-8.57,83.48-22.63,112.12-38.19L457,232.57l-84.89-21.09L296.67,375.69Z"/><path class="cls-11" d="M293.29,383.06l-8.51,18.53L275.86,421l24.87,5.32L327,431.92l35,7.47,43.43-94.52c-28.64,15.56-65.42,29.62-112.12,38.19"/><path class="cls-4" d="M296.67,375.69l75.44-164.21-.74-.17-11-8.44c-31.22,36.64-76.2,74.49-130,72.85l-36.8,80.11,43.41,34.33a519.51,519.51,0,0,0,56.4-7.1Z"/><path class="cls-12" d="M293.29,383.06a519.51,519.51,0,0,1-56.4,7.1l39,30.83,8.92-19.4Z"/><path class="cls-13" d="M561.5,106.79a60.52,60.52,0,0,1-28.57-6.74l5-16.58c4,2.29,14,5.66,20.89,5.66,9.3,0,15.9-4.58,15.9-15.63,0-9-5.12-13.75-12.67-13.75-5.26,0-8.76,2.43-12,5.8L534.41,61.1V13.79h55L587.92,31H555.3v9A33.82,33.82,0,0,1,554,50.18c3.64-4,9.44-7.28,17.93-7.28,12.67,0,25.07,9.3,25.07,29C597,94.79,578.22,106.79,561.5,106.79Z"/><path class="cls-14" d="M457.65,175.18V173.7h15.1V176c0,16.25-13.52,16.57-13.52,27.13,0,3.9,2.75,7,8,7a35.57,35.57,0,0,0,12.56-2.64l4.12,13a47.71,47.71,0,0,1-19.85,4c-13.09,0-22.59-7.07-22.59-18.9C441.5,189.43,457.65,185.42,457.65,175.18Zm15.73-7.39H457V151.64h16.36Z"/><path class="cls-14" d="M519.4,204.42a91.63,91.63,0,0,1-26.5-3.9V132.11h25.76c21.22,0,34.63,8.34,34.63,34.84C553.29,189.85,543.36,204.42,519.4,204.42Zm-1.27-58.9h-8.55V189a42.65,42.65,0,0,0,10.77,1.37c7.71,0,15.2-3.8,15.2-23.43C535.55,151.32,531.22,145.52,518.13,145.52Z"/><path class="cls-14" d="M594,204.42c-25,0-31.36-18.15-31.36-37.26,0-18.58,6.23-36.11,31.36-36.11,25.65,0,31.67,17.32,31.67,36.11C625.7,186.27,619.05,204.42,594,204.42ZM580.09,128.2l-1.37-9.5,30.93-4.22-.21,12.25ZM594,145.41c-11.09,0-13.73,9.5-13.73,21.64,0,13.51,2.85,23.33,13.73,23.33S608,180.67,608,167.05C608,154.7,605.11,145.41,594,145.41Z"/><path class="cls-14" d="M669.82,203.37,650.5,147.73h-.42l1.58,55.64H636.77V132.11h25.66l19.84,57h.42l-1.58-57h15.2v71.26Z"/><path class="cls-14" d="M736.53,204.42a91.63,91.63,0,0,1-26.5-3.9V132.11h25.76c21.21,0,34.62,8.34,34.62,34.84C770.41,189.85,760.49,204.42,736.53,204.42Zm-1.27-58.9h-8.55V189a42.65,42.65,0,0,0,10.77,1.37c7.7,0,15.2-3.8,15.2-23.43C752.68,151.32,748.35,145.52,735.26,145.52Z"/><path class="cls-14" d="M782.44,203.37V132.11h46v14H799.12v14h22L820,174.86h-20.9v14.57h29.35v13.94Z"/><path class="cls-14" d="M861.08,179.83v1.47H846V179c0-16.26,13.52-16.57,13.52-27.13,0-3.91-2.75-7-8-7a35.79,35.79,0,0,0-12.56,2.64l-4.12-13a47.71,47.71,0,0,1,19.85-4c13.09,0,22.59,7.07,22.59,18.89C877.23,165.57,861.08,169.59,861.08,179.83Zm-15.73,7.39h16.36v16.15H845.35Z"/><path class="cls-15" d="M489.3,258.37v-36h8.42v28.92h14.84v7.09Z"/><path class="cls-15" d="M535.77,258.37l-1.34-3.3a9.9,9.9,0,0,1-8.16,3.84c-6.88,0-9.76-3.74-9.76-10.94V232.23h8.43v16c0,3.25,1.33,4.32,3.94,4.32a7.64,7.64,0,0,0,3.79-1V232.23h8.54v26.14Z"/><path class="cls-15" d="M571.89,232.23l-.11,6.51a15.51,15.51,0,0,1-4.32-1.33,9,9,0,0,1,2.13,3.25c0,6.46-6.5,9.12-11.2,9.12a14.64,14.64,0,0,1-3.31-.42,1,1,0,0,0-.74,1c0,2.78,16.53-.69,16.53,9.39,0,6.14-6,9.6-13.06,9.6-5.66,0-11.31-2.13-11.31-6.82,0-3.37,2.77-4.91,7.09-5.55-3.31-.38-6.93-1.34-6.93-4.65,0-2.29,2.18-3.94,5.33-4.15-2.67-1.45-4.8-3.79-4.8-7.53,0-7,6.78-9,11.2-9C562.87,232,568.26,232.23,571.89,232.23Zm-14.83,25.18a3.06,3.06,0,0,0-2.83,3.15c0,1.81,1.49,3.26,4,3.26s4.27-1.45,4.27-3.47S560.58,257.68,557.06,257.41Zm5.17-16.8c0-2.24-2.13-3-3.89-3s-3.9.75-3.9,3c0,2.56,2,3.31,3.9,3.31S562.23,243.17,562.23,240.61Z"/><path class="cls-15" d="M593.29,258.37l-1.07-3a9,9,0,0,1-7.42,3.52c-5.17,0-9-3.31-9-8.59,0-5,3.74-7.84,10.19-7.84h4.86v-1c0-2.78-1.87-3.42-3.95-3.42a18.65,18.65,0,0,0-7.79,1.71l-2.08-6a28,28,0,0,1,10.67-2.13c8.06,0,11.31,3.52,11.31,10.4v16.27Zm-2.4-11h-3.37c-2.23,0-3.41,1.07-3.41,2.78a2.84,2.84,0,0,0,3.15,3.14,7.7,7.7,0,0,0,3.63-1.06Z"/><path class="cls-15" d="M613.73,258.37H605.4V232.23h5.87l.8,3.63h.27a6.34,6.34,0,0,1,6-4.16,11.26,11.26,0,0,1,2.89.32l-.11,7.15a12.53,12.53,0,0,0-3.26-.43,7.28,7.28,0,0,0-4.1,1.23Z"/><path class="cls-15" d="M633.41,247.55c0,3,1.93,5,6,5a19.31,19.31,0,0,0,7.36-1.92l1.5,5.86a22.79,22.79,0,0,1-10.14,2.46c-8.38,0-13.23-5.18-13.23-13.66,0-7.9,3.79-13.55,12.64-13.55,8.17,0,11.42,5.82,11.42,12.38v3.47Zm3.85-9.72c-2.78,0-3.85,2.51-3.85,4.91h7.53C640.94,240,640.14,237.83,637.26,237.83Z"/><path class="cls-15" d="M671.24,238.85a16.71,16.71,0,0,0-6.08-1.18c-1.92,0-2.88.59-2.88,1.66,0,3.31,10.51,2.45,10.51,10.78,0,5.06-3.68,8.8-10.94,8.8a17.83,17.83,0,0,1-7.79-1.76l1.55-5.82a12.8,12.8,0,0,0,6,1.65c1.92,0,3.14-.79,3.14-2.13,0-3.84-10.35-2.72-10.35-11.63,0-4.11,3-7.52,10.67-7.52a25.57,25.57,0,0,1,7.15,1Z"/><path class="cls-15" d="M678.45,232.23H687v8.33h-8.54Zm0,17.82H687v8.32h-8.54Z"/><path class="cls-16" d="M456.52,296.53a10.63,10.63,0,0,1,7.4-3.35c6.33,0,9.62,4.51,9.62,12.87,0,8.77-4.35,13-10.33,13a9.58,9.58,0,0,1-7.2-3.19l-.81,2.69h-2.13v-35h3.85v9.63Zm.4,16.77a8.81,8.81,0,0,0,6,2.83c4.36,0,6.69-2.93,6.69-10.08,0-6.54-1.93-9.93-6.43-9.93a9.28,9.28,0,0,0-6.29,2.79Z"/><path class="cls-16" d="M495.94,318.52l-.55-2.84a10.58,10.58,0,0,1-7.7,3.34c-5.53,0-8.57-3.29-8.57-10.08V293.69H483v15c0,5.11,1.62,7.24,5.63,7.24a9.78,9.78,0,0,0,6.13-2.43V293.69h3.9v24.83Zm-12.51-28.68-.56-2.28,11.2-4.16.76,2.89Z"/><path class="cls-16" d="M507.86,299.77c0,5.32,12.31,3.45,12.31,11.86,0,4-3.09,7.39-8.61,7.39a15,15,0,0,1-7.5-2.12l1.11-2.84a11.61,11.61,0,0,0,6.33,2.07c3,0,4.92-1.67,4.92-4.25,0-6-12.16-3.75-12.16-12.16,0-3.35,2.53-6.54,8.21-6.54a16.19,16.19,0,0,1,7.45,1.62l-.92,2.84a13.34,13.34,0,0,0-6.48-1.52C509.38,296.12,507.86,297.49,507.86,299.77Z"/><path class="cls-16" d="M541.91,328.15v-9.68a21.46,21.46,0,0,1,.35-2.94,9.56,9.56,0,0,1-7.19,3.49c-5.78,0-10-4.41-10-13,0-7.55,3.75-12.87,10.38-12.87a12.43,12.43,0,0,1,7.15,2.33l.71-1.82h2.43v34.46Zm0-30.16a9.84,9.84,0,0,0-6-1.87c-4.66,0-6.94,3.65-6.94,9.93,0,6.13,2,10.08,6.64,10.08,2.23,0,4.25-1,6.28-3.14Z"/><path class="cls-16" d="M569,318.52l-.55-2.84a10.58,10.58,0,0,1-7.71,3.34c-5.52,0-8.56-3.29-8.56-10.08V293.69H556v15c0,5.11,1.62,7.24,5.62,7.24a9.78,9.78,0,0,0,6.14-2.43V293.69h3.9v24.83Z"/><path class="cls-16" d="M581.09,307.22c0,6.13,3.14,8.81,7.85,8.81a15.29,15.29,0,0,0,7.7-2.48l1,2.74a17.81,17.81,0,0,1-9.07,2.73c-6.78,0-11.3-4.51-11.3-13.07,0-7.85,3.86-12.77,10.65-12.77,7,0,9.93,5.63,9.93,11.86v2.18Zm6.63-11.1c-4.71,0-6.63,4.16-6.63,8.41h13C594.06,300.22,592.59,296.12,587.72,296.12Z"/><path class="cls-16" d="M620.06,315.53a9.41,9.41,0,0,1-7.15,3.49c-5.88,0-10-4.35-10-13,0-7.55,3.75-12.87,10.39-12.87a10.41,10.41,0,0,1,6.63,2.13,35,35,0,0,1-.2-4.05v-7.71h3.85v35h-2.88Zm-.31-17.64a10.62,10.62,0,0,0-6-1.77c-4.66,0-6.89,3.65-6.89,9.93,0,6.13,2,10.08,6.64,10.08,2.23,0,4.25-1,6.28-3.14Z"/><path class="cls-16" d="M645.65,318.52l-.66-3.2a9.76,9.76,0,0,1-7.65,3.7c-5.07,0-8-3.39-8-7.6s3.14-7.09,8.77-7.09h6.44v-2c0-4.3-1.88-6.13-5.63-6.13a18.32,18.32,0,0,0-7.5,1.62l-1-2.78a21.84,21.84,0,0,1,9-1.88c5.87,0,8.86,3,8.86,9v16.37ZM644.54,307h-5.83c-4.21,0-5.63,1.83-5.63,4.31,0,3,1.62,5,5.22,5a8.78,8.78,0,0,0,6.24-3.09Z"/><path class="cls-16" d="M682.39,315.53a9.39,9.39,0,0,1-7.14,3.49c-5.88,0-10-4.35-10-13,0-7.55,3.74-12.87,10.38-12.87a10.46,10.46,0,0,1,6.64,2.13,35,35,0,0,1-.2-4.05v-7.71h3.85v35h-2.89Zm-.3-17.64a10.65,10.65,0,0,0-6-1.77c-4.66,0-6.89,3.65-6.89,9.93,0,6.13,2,10.08,6.64,10.08,2.22,0,4.25-1,6.28-3.14Z"/><path class="cls-16" d="M695.67,307.22c0,6.13,3.14,8.81,7.86,8.81a15.32,15.32,0,0,0,7.7-2.48l1,2.74a17.87,17.87,0,0,1-9.07,2.73c-6.79,0-11.3-4.51-11.3-13.07,0-7.85,3.85-12.77,10.64-12.77,7,0,9.93,5.63,9.93,11.86v2.18Zm6.64-11.1c-4.71,0-6.64,4.16-6.64,8.41h13C708.64,300.22,707.17,296.12,702.31,296.12Z"/><path class="cls-16" d="M729.63,311.68V283.55h3.8v29.54c0,2.13,1,3,3.7,3h.81v2.63a11.72,11.72,0,0,1-2.44.3C730.79,319,729.63,316.34,729.63,311.68Z"/><path class="cls-16" d="M763.17,306.05c0,8.36-4,13-10.69,13s-10.59-4.51-10.59-13c0-7.29,3.44-12.87,10.59-12.87C759.37,293.18,763.17,298.65,763.17,306.05Zm-3.95,0c0-6.48-2.18-10-6.74-10s-6.69,3.65-6.69,10c0,6.08,1.77,10.08,6.69,10.08S759.22,312.69,759.22,306.05Z"/><path class="cls-16" d="M771.84,299.77c0,5.32,12.32,3.45,12.32,11.86,0,4-3.1,7.39-8.62,7.39a15,15,0,0,1-7.5-2.12l1.12-2.84a11.59,11.59,0,0,0,6.33,2.07c3,0,4.91-1.67,4.91-4.25,0-6-12.16-3.75-12.16-12.16,0-3.35,2.54-6.54,8.21-6.54a16.16,16.16,0,0,1,7.45,1.62l-.91,2.84a13.38,13.38,0,0,0-6.49-1.52C773.36,296.12,771.84,297.49,771.84,299.77Z"/><path class="cls-16" d="M804,307.22c0,6.13,3.15,8.81,7.86,8.81a15.29,15.29,0,0,0,7.7-2.48l1,2.74a17.84,17.84,0,0,1-9.07,2.73c-6.79,0-11.3-4.51-11.3-13.07,0-7.85,3.85-12.77,10.64-12.77,7,0,9.94,5.63,9.94,11.86v2.18Zm6.64-11.1c-4.71,0-6.64,4.16-6.64,8.41h13C817,300.22,815.52,296.12,810.66,296.12Z"/><path class="cls-16" d="M829.47,299.77c0,5.32,12.31,3.45,12.31,11.86,0,4-3.09,7.39-8.62,7.39a15,15,0,0,1-7.5-2.12l1.12-2.84a11.61,11.61,0,0,0,6.33,2.07c3,0,4.92-1.67,4.92-4.25,0-6-12.16-3.75-12.16-12.16,0-3.35,2.53-6.54,8.21-6.54a16.12,16.12,0,0,1,7.44,1.62l-.91,2.84a13.34,13.34,0,0,0-6.48-1.52C831,296.12,829.47,297.49,829.47,299.77Z"/><path class="cls-16" d="M851.36,320.19v8h-3.9V293.69h3l.61,2.94a10,10,0,0,1,7.24-3.45c6.34,0,9.47,4.51,9.47,12.87,0,8.77-4.35,13-10.28,13a8.73,8.73,0,0,1-6.69-2.83A23,23,0,0,1,851.36,320.19Zm0-6.74a8.31,8.31,0,0,0,5.88,2.68c4.51,0,6.63-2.93,6.63-10.08,0-6.54-1.87-9.88-6.38-9.88a8.91,8.91,0,0,0-6.13,2.89Z"/><path class="cls-16" d="M889,318.52l-.66-3.2a9.76,9.76,0,0,1-7.65,3.7c-5.06,0-8-3.39-8-7.6s3.14-7.09,8.76-7.09h6.44v-2c0-4.3-1.88-6.13-5.63-6.13a18.36,18.36,0,0,0-7.5,1.62l-1-2.78a21.92,21.92,0,0,1,9-1.88c5.88,0,8.87,3,8.87,9v16.37ZM887.9,307h-5.83c-4.2,0-5.62,1.83-5.62,4.31,0,3,1.62,5,5.22,5a8.74,8.74,0,0,0,6.23-3.09Z"/><path class="cls-16" d="M916.58,316.84a17.56,17.56,0,0,1-8.26,2.18c-6.28,0-10.84-3.7-10.84-12.92,0-8.41,4.61-12.92,10.84-12.92a16,16,0,0,1,8.11,2l-1.11,2.73a13.55,13.55,0,0,0-6.8-1.62c-4.46,0-7.19,3.55-7.19,9.83,0,7,2.73,9.93,7.19,9.93a14.06,14.06,0,0,0,7.15-2.07Z"/><path class="cls-16" d="M923.63,318.52V296.78l-2.74-.56v-2.53h6.49v24.83Zm-.36-34.61h4.11v4h-4.11Z"/><path class="cls-16" d="M954.54,306.05c0,8.36-4,13-10.69,13s-10.59-4.51-10.59-13c0-7.29,3.45-12.87,10.59-12.87C950.74,293.18,954.54,298.65,954.54,306.05Zm-3.95,0c0-6.48-2.18-10-6.74-10s-6.69,3.65-6.69,10c0,6.08,1.78,10.08,6.69,10.08S950.59,312.69,950.59,306.05Z"/><path class="cls-16" d="M963.21,299.77c0,5.32,12.31,3.45,12.31,11.86,0,4-3.09,7.39-8.61,7.39a15,15,0,0,1-7.5-2.12l1.11-2.84a11.65,11.65,0,0,0,6.34,2.07c3,0,4.92-1.67,4.92-4.25,0-6-12.17-3.75-12.17-12.16,0-3.35,2.54-6.54,8.21-6.54a16.16,16.16,0,0,1,7.45,1.62l-.91,2.84a13.38,13.38,0,0,0-6.49-1.52C964.73,296.12,963.21,297.49,963.21,299.77Z"/><path class="cls-16" d="M469.13,371.59v-9.68a20.89,20.89,0,0,1,.36-2.94,9.6,9.6,0,0,1-7.2,3.49c-5.77,0-10-4.4-10-13,0-7.55,3.75-12.87,10.39-12.87a12.49,12.49,0,0,1,7.15,2.33l.7-1.82H473v34.46Zm0-30.15a9.74,9.74,0,0,0-6-1.88c-4.66,0-7,3.65-7,9.93,0,6.13,2,10.09,6.64,10.09,2.23,0,4.26-1,6.28-3.15Z"/><path class="cls-16" d="M496.2,362l-.56-2.84a10.56,10.56,0,0,1-7.7,3.34c-5.53,0-8.57-3.29-8.57-10.08V337.13h3.85v15c0,5.11,1.63,7.24,5.63,7.24a9.78,9.78,0,0,0,6.13-2.43V337.13h3.9V362Z"/><path class="cls-16" d="M508.31,350.66c0,6.13,3.14,8.81,7.86,8.81a15.32,15.32,0,0,0,7.7-2.48l1,2.74a17.87,17.87,0,0,1-9.07,2.73c-6.79,0-11.3-4.51-11.3-13.07,0-7.85,3.85-12.77,10.64-12.77,7,0,9.93,5.63,9.93,11.86v2.18Zm6.64-11.1c-4.71,0-6.64,4.16-6.64,8.41h13C521.28,343.66,519.81,339.56,515,339.56Z"/><path class="cls-16" d="M560.41,360.28a17.56,17.56,0,0,1-8.26,2.18c-6.28,0-10.85-3.7-10.85-12.92,0-8.41,4.62-12.92,10.85-12.92a16,16,0,0,1,8.11,2l-1.12,2.73a13.51,13.51,0,0,0-6.79-1.62c-4.46,0-7.2,3.55-7.2,9.83,0,7,2.74,9.93,7.2,9.93a14.09,14.09,0,0,0,7.15-2.07Z"/><path class="cls-16" d="M582,362l-.56-2.84a10.56,10.56,0,0,1-7.7,3.34c-5.52,0-8.56-3.29-8.56-10.08V337.13H569v15c0,5.11,1.62,7.24,5.62,7.24a9.78,9.78,0,0,0,6.13-2.43V337.13h3.9V362Z"/><path class="cls-16" d="M610.38,346.3V362h-3.9V347c0-4.71-1.37-7.3-5.58-7.3-2.63,0-4.46,1.47-6,2.84V362h-3.85V337.13h2.54l.81,3a10.42,10.42,0,0,1,7.55-3.5c3.69,0,6.08,1.32,7.29,3.8a10.83,10.83,0,0,1,7.76-3.8c6.08,0,8.76,3.4,8.76,9.68V362h-3.9V347c0-4.71-1.78-7.3-6-7.3A8.91,8.91,0,0,0,610,342.5,14.33,14.33,0,0,1,610.38,346.3Z"/><path class="cls-16" d="M635.72,363.63v8h-3.9V337.13h3l.6,2.94a10,10,0,0,1,7.25-3.45c6.33,0,9.48,4.51,9.48,12.87,0,8.77-4.36,13-10.29,13a8.75,8.75,0,0,1-6.69-2.83A23,23,0,0,1,635.72,363.63Zm0-6.74a8.32,8.32,0,0,0,5.88,2.69c4.51,0,6.64-2.94,6.64-10.09,0-6.53-1.88-9.88-6.39-9.88a8.91,8.91,0,0,0-6.13,2.89Z"/><path class="cls-16" d="M658.22,355.12V327H662v29.54c0,2.13,1,3,3.7,3h.81v2.63a11.57,11.57,0,0,1-2.43.3C659.39,362.46,658.22,359.78,658.22,355.12Z"/><path class="cls-16" d="M674.39,350.66c0,6.13,3.14,8.81,7.85,8.81A15.36,15.36,0,0,0,690,357l1,2.74a17.87,17.87,0,0,1-9.07,2.73c-6.79,0-11.3-4.51-11.3-13.07,0-7.85,3.85-12.77,10.64-12.77,7,0,9.93,5.63,9.93,11.86v2.18Zm6.64-11.1c-4.72,0-6.64,4.16-6.64,8.41h13C687.36,343.66,685.89,339.56,681,339.56Z"/><path class="cls-16" d="M712.6,362V347c0-4.71-1.47-7.3-5.68-7.3a9.18,9.18,0,0,0-6.08,2.84V362H697V337.13h2.59l.76,2.94a10.85,10.85,0,0,1,7.8-3.45c5.83,0,8.41,3.5,8.41,9.68V362Z"/><path class="cls-16" d="M752.23,360.28a17.56,17.56,0,0,1-8.26,2.18c-6.28,0-10.84-3.7-10.84-12.92,0-8.41,4.61-12.92,10.84-12.92a16,16,0,0,1,8.11,2L751,341.33a13.47,13.47,0,0,0-6.78-1.62c-4.46,0-7.2,3.55-7.2,9.83,0,7,2.74,9.93,7.2,9.93a14.08,14.08,0,0,0,7.14-2.07Z"/><path class="cls-16" d="M777.72,349.49c0,8.36-4.05,13-10.69,13s-10.59-4.51-10.59-13c0-7.29,3.45-12.87,10.59-12.87C773.92,336.62,777.72,342.09,777.72,349.49Zm-4,0c0-6.48-2.18-10-6.74-10s-6.69,3.65-6.69,10c0,6.08,1.78,10.09,6.69,10.09S773.77,356.13,773.77,349.49Z"/><path class="cls-16" d="M799.16,362V347c0-4.71-1.47-7.3-5.67-7.3a9.16,9.16,0,0,0-6.08,2.84V362h-3.86V337.13h2.59l.76,2.94a10.85,10.85,0,0,1,7.8-3.45c5.83,0,8.41,3.5,8.41,9.68V362Z"/><path class="cls-16" d="M820.65,355.12V327h3.8v29.54c0,2.13,1,3,3.7,3H829v2.63a11.57,11.57,0,0,1-2.43.3C821.82,362.46,820.65,359.78,820.65,355.12Z"/><path class="cls-16" d="M854.2,349.49c0,8.36-4.05,13-10.69,13s-10.59-4.51-10.59-13c0-7.29,3.44-12.87,10.59-12.87C850.4,336.62,854.2,342.09,854.2,349.49Zm-4,0c0-6.48-2.17-10-6.73-10s-6.69,3.65-6.69,10c0,6.08,1.77,10.09,6.69,10.09S850.24,356.13,850.24,349.49Z"/><path class="cls-16" d="M862.87,343.21c0,5.32,12.31,3.45,12.31,11.86,0,4-3.09,7.39-8.61,7.39a15,15,0,0,1-7.5-2.12l1.11-2.84a11.62,11.62,0,0,0,6.34,2.08c3,0,4.91-1.68,4.91-4.26,0-6-12.16-3.75-12.16-12.16,0-3.35,2.53-6.54,8.21-6.54a16.19,16.19,0,0,1,7.45,1.62l-.91,2.84a13.41,13.41,0,0,0-6.49-1.52C864.39,339.56,862.87,340.93,862.87,343.21Z"/><path class="cls-16" d="M465.69,383.91a10.09,10.09,0,0,0-3.19-.45,8,8,0,0,0-5.58,2.68V405.4h-3.85V380.57h2.59l.7,3.14a8.24,8.24,0,0,1,6.44-3.5,11,11,0,0,1,3.14.41Z"/><path class="cls-16" d="M473.29,394.1c0,6.13,3.15,8.81,7.86,8.81a15.29,15.29,0,0,0,7.7-2.48l1,2.74a17.87,17.87,0,0,1-9.07,2.73c-6.79,0-11.3-4.51-11.3-13.07,0-7.85,3.85-12.77,10.64-12.77,7,0,9.93,5.63,9.93,11.86v2.18Zm6.64-11.1c-4.71,0-6.64,4.16-6.64,8.41h13C486.27,387.1,484.8,383,479.93,383Z"/><path class="cls-16" d="M512,415v-9.68a21.46,21.46,0,0,1,.35-2.94,9.56,9.56,0,0,1-7.19,3.49c-5.78,0-10-4.4-10-13,0-7.55,3.75-12.87,10.38-12.87a12.43,12.43,0,0,1,7.15,2.33l.71-1.82h2.43V415Zm0-30.15a9.77,9.77,0,0,0-6-1.88c-4.66,0-6.94,3.65-6.94,9.93,0,6.13,2,10.09,6.64,10.09,2.23,0,4.25-1,6.28-3.15Z"/><path class="cls-16" d="M539,405.4l-.55-2.84a10.58,10.58,0,0,1-7.71,3.34c-5.52,0-8.56-3.29-8.56-10.08V380.57h3.85v15c0,5.11,1.62,7.24,5.62,7.24a9.78,9.78,0,0,0,6.14-2.43V380.57h3.9V405.4Z"/><path class="cls-16" d="M550.07,405.4V383.66l-2.73-.56v-2.53h6.48V405.4Zm-.35-34.61h4.1v4h-4.1Z"/><path class="cls-16" d="M563.4,386.65c0,5.32,12.31,3.45,12.31,11.86,0,4-3.09,7.39-8.61,7.39a15,15,0,0,1-7.5-2.12l1.11-2.84a11.65,11.65,0,0,0,6.34,2.08c3,0,4.92-1.68,4.92-4.26,0-6-12.17-3.75-12.17-12.16,0-3.35,2.54-6.54,8.21-6.54a16.16,16.16,0,0,1,7.45,1.62l-.91,2.84a13.38,13.38,0,0,0-6.49-1.52C564.92,383,563.4,384.37,563.4,386.65Z"/><path class="cls-16" d="M583.37,405.4V383.66l-2.74-.56v-2.53h6.49V405.4ZM583,370.79h4.11v4H583Z"/><path class="cls-16" d="M602.22,405.9c-3.5,0-6.39-1.77-6.39-7.6V383.36h-3.74v-2.79h3.74v-4.51l3.86-1.22v5.73h7.24v2.79h-7.24v15.4c0,2.63,1,3.9,3.29,3.9a10.8,10.8,0,0,0,3.95-1.06l.76,2.83A12.07,12.07,0,0,1,602.22,405.9Z"/><path class="cls-16" d="M633.13,392.93c0,8.36-4,13-10.69,13s-10.59-4.51-10.59-13c0-7.29,3.45-12.87,10.59-12.87C629.33,380.06,633.13,385.54,633.13,392.93Zm-4,0c0-6.48-2.18-10-6.74-10s-6.69,3.65-6.69,10c0,6.08,1.78,10.09,6.69,10.09S629.18,399.57,629.18,392.93Z"/><path class="cls-16" d="M641.8,386.65c0,5.32,12.31,3.45,12.31,11.86,0,4-3.09,7.39-8.61,7.39a15,15,0,0,1-7.5-2.12l1.11-2.84a11.65,11.65,0,0,0,6.34,2.08c3,0,4.92-1.68,4.92-4.26,0-6-12.17-3.75-12.17-12.16,0-3.35,2.54-6.54,8.21-6.54a16.16,16.16,0,0,1,7.45,1.62l-.91,2.84a13.38,13.38,0,0,0-6.49-1.52C643.32,383,641.8,384.37,641.8,386.65Z"/><path class="cls-16" d="M674.84,407.07v8h-3.9V380.57h3l.61,2.94a10,10,0,0,1,7.25-3.45c6.33,0,9.47,4.51,9.47,12.87,0,8.77-4.35,13-10.28,13a8.73,8.73,0,0,1-6.69-2.83A23.34,23.34,0,0,1,674.84,407.07Zm0-6.74a8.34,8.34,0,0,0,5.88,2.69c4.51,0,6.64-2.94,6.64-10.09,0-6.53-1.87-9.88-6.38-9.88a8.91,8.91,0,0,0-6.14,2.89Z"/><path class="cls-16" d="M712.5,405.4l-.66-3.2a9.76,9.76,0,0,1-7.65,3.7c-5.07,0-8-3.39-8-7.6s3.15-7.09,8.77-7.09h6.43v-2c0-4.3-1.87-6.13-5.62-6.13a18.32,18.32,0,0,0-7.5,1.62l-1-2.78a21.84,21.84,0,0,1,9-1.88c5.87,0,8.87,3,8.87,9V405.4Zm-1.12-11.55h-5.82c-4.21,0-5.63,1.82-5.63,4.3,0,3,1.63,5,5.22,5a8.74,8.74,0,0,0,6.23-3.09Z"/><path class="cls-16" d="M734.34,383.91a10,10,0,0,0-3.19-.45,7.94,7.94,0,0,0-5.57,2.68V405.4h-3.86V380.57h2.59l.71,3.14a8.2,8.2,0,0,1,6.43-3.5,11.21,11.21,0,0,1,3.15.41Z"/><path class="cls-16" d="M754.26,405.4l-.66-3.2a9.76,9.76,0,0,1-7.65,3.7c-5.07,0-8-3.39-8-7.6s3.14-7.09,8.77-7.09h6.44v-2c0-4.3-1.88-6.13-5.63-6.13a18.32,18.32,0,0,0-7.5,1.62l-1-2.78a21.84,21.84,0,0,1,9-1.88c5.87,0,8.86,3,8.86,9V405.4Zm-1.11-11.55h-5.83c-4.21,0-5.63,1.82-5.63,4.3,0,3,1.62,5,5.22,5a8.78,8.78,0,0,0,6.24-3.09Z"/><path class="cls-16" d="M774.84,398.56V370.44h3.8V400c0,2.12,1,3,3.7,3h.81v2.63a11.69,11.69,0,0,1-2.43.3C776,405.9,774.84,403.22,774.84,398.56Z"/><path class="cls-16" d="M803.32,405.4l-.66-3.2a9.78,9.78,0,0,1-7.65,3.7c-5.07,0-8-3.39-8-7.6s3.14-7.09,8.77-7.09h6.43v-2c0-4.3-1.87-6.13-5.62-6.13a18.28,18.28,0,0,0-7.5,1.62l-1-2.78a21.92,21.92,0,0,1,9-1.88c5.88,0,8.87,3,8.87,9V405.4Zm-1.12-11.55h-5.83c-4.2,0-5.62,1.82-5.62,4.3,0,3,1.62,5,5.22,5A8.74,8.74,0,0,0,802.2,400Z"/><path class="cls-16" d="M826.73,394.1c0,6.13,3.14,8.81,7.86,8.81a15.29,15.29,0,0,0,7.7-2.48l1,2.74a17.87,17.87,0,0,1-9.07,2.73c-6.79,0-11.3-4.51-11.3-13.07,0-7.85,3.85-12.77,10.64-12.77,7,0,9.93,5.63,9.93,11.86v2.18Zm6.64-11.1c-4.71,0-6.64,4.16-6.64,8.41h13C839.7,387.1,838.23,383,833.37,383Z"/><path class="cls-16" d="M855.26,405.8c0,5-2.53,7.5-6.08,7.5a10.08,10.08,0,0,1-3.54-.66l.45-3.24a7.5,7.5,0,0,0,2.43.46c1.93,0,2.94-1.42,2.94-4V383.61l-2.73-.56v-2.48h6.53Zm-4.1-35h4.1v4h-4.1Z"/><path class="cls-16" d="M865.86,394.1c0,6.13,3.14,8.81,7.85,8.81a15.29,15.29,0,0,0,7.7-2.48l1,2.74a17.88,17.88,0,0,1-9.08,2.73c-6.78,0-11.29-4.51-11.29-13.07,0-7.85,3.85-12.77,10.64-12.77,7,0,9.93,5.63,9.93,11.86v2.18Zm6.63-11.1c-4.71,0-6.63,4.16-6.63,8.41h13C878.83,387.1,877.36,383,872.49,383Z"/><path class="cls-16" d="M906.8,403.72a17.56,17.56,0,0,1-8.26,2.18c-6.28,0-10.84-3.7-10.84-12.92,0-8.41,4.61-12.92,10.84-12.92a16,16,0,0,1,8.11,2l-1.11,2.73a13.54,13.54,0,0,0-6.79-1.62c-4.46,0-7.2,3.55-7.2,9.83,0,7,2.74,9.93,7.2,9.93a14,14,0,0,0,7.14-2.07Z"/><path class="cls-16" d="M928.39,405.4l-.55-2.84a10.56,10.56,0,0,1-7.71,3.34c-5.52,0-8.56-3.29-8.56-10.08V380.57h3.85v15c0,5.11,1.62,7.24,5.63,7.24a9.78,9.78,0,0,0,6.13-2.43V380.57h3.9V405.4Z"/><path class="cls-16" d="M955.81,403.72a17.56,17.56,0,0,1-8.26,2.18c-6.28,0-10.84-3.7-10.84-12.92,0-8.41,4.61-12.92,10.84-12.92a16,16,0,0,1,8.11,2l-1.12,2.73a13.49,13.49,0,0,0-6.79-1.62c-4.45,0-7.19,3.55-7.19,9.83,0,7,2.74,9.93,7.19,9.93a14.09,14.09,0,0,0,7.15-2.07Z"/><path class="cls-16" d="M962.86,405.4V383.66l-2.74-.56v-2.53h6.49V405.4Zm-.36-34.61h4.11v4H962.5Z"/><path class="cls-16" d="M993.77,392.93c0,8.36-4.06,13-10.69,13s-10.59-4.51-10.59-13c0-7.29,3.44-12.87,10.59-12.87C990,380.06,993.77,385.54,993.77,392.93Zm-3.95,0c0-6.48-2.18-10-6.74-10s-6.69,3.65-6.69,10c0,6.08,1.77,10.09,6.69,10.09S989.82,399.57,989.82,392.93Zm-12.11-16.21-.56-2.28,11.2-4.16.76,2.89Z"/><path class="cls-16" d="M1015.21,405.4v-15c0-4.71-1.47-7.3-5.68-7.3a9.18,9.18,0,0,0-6.08,2.84V405.4H999.6V380.57h2.59l.76,2.94a10.83,10.83,0,0,1,7.8-3.45c5.83,0,8.41,3.5,8.41,9.68V405.4Z"/><path class="cls-16" d="M469.44,445.85a9.42,9.42,0,0,1-7.15,3.5c-5.87,0-10-4.36-10-13,0-7.55,3.75-12.87,10.39-12.87a10.46,10.46,0,0,1,6.64,2.13,34.8,34.8,0,0,1-.21-4.05v-7.7H473v35H470.1Zm-.31-17.64a10.61,10.61,0,0,0-6-1.77c-4.67,0-6.9,3.65-6.9,9.93,0,6.13,2,10.09,6.64,10.09,2.23,0,4.26-1,6.28-3.15Z"/><path class="cls-16" d="M482.72,437.54c0,6.13,3.14,8.81,7.85,8.81a15.29,15.29,0,0,0,7.7-2.48l1,2.74a17.87,17.87,0,0,1-9.07,2.74c-6.79,0-11.3-4.52-11.3-13.08,0-7.85,3.85-12.77,10.64-12.77,7,0,9.93,5.63,9.93,11.86v2.18Zm6.63-11.1c-4.71,0-6.63,4.16-6.63,8.41h13C495.69,430.55,494.22,426.44,489.35,426.44Z"/><path class="cls-16" d="M505.52,442V413.88h3.81v29.54c0,2.12,1,3,3.69,3h.81V449a11.22,11.22,0,0,1-2.43.31C506.69,449.35,505.52,446.66,505.52,442Z"/><path class="cls-16" d="M533.7,450.51v8h-3.9V424h3l.61,2.94a10,10,0,0,1,7.24-3.45c6.34,0,9.48,4.51,9.48,12.87,0,8.77-4.36,13-10.29,13a8.76,8.76,0,0,1-6.69-2.84A23,23,0,0,1,533.7,450.51Zm0-6.74a8.32,8.32,0,0,0,5.88,2.69c4.51,0,6.64-2.94,6.64-10.09,0-6.53-1.88-9.88-6.39-9.88a8.91,8.91,0,0,0-6.13,2.89Z"/><path class="cls-16" d="M568.62,427.35a10.09,10.09,0,0,0-3.19-.45,8,8,0,0,0-5.58,2.68v19.26H556V424h2.59l.7,3.14a8.24,8.24,0,0,1,6.44-3.5,11,11,0,0,1,3.14.41Z"/><path class="cls-16" d="M593.61,436.37c0,8.36-4.06,13-10.7,13s-10.59-4.52-10.59-13c0-7.29,3.45-12.87,10.59-12.87C589.8,423.5,593.61,429,593.61,436.37Zm-4,0c0-6.48-2.18-10-6.74-10s-6.69,3.65-6.69,10c0,6.08,1.78,10.09,6.69,10.09S589.65,443,589.65,436.37Z"/><path class="cls-16" d="M608,448.69l-2.54.2-8-24.88h4.26s4.66,15.1,6.79,22.55c2.17-7.5,6.74-22.55,6.74-22.55h4l-8,24.57c-2.58,7.91-5.17,10.44-9.93,10.44a9.93,9.93,0,0,1-5.52-2l1.26-2.59h.31a7.19,7.19,0,0,0,4.15,1.57c2.89,0,4.56-1.72,6.13-6.43Z"/><path class="cls-16" d="M626.35,437.54c0,6.13,3.14,8.81,7.85,8.81a15.29,15.29,0,0,0,7.7-2.48l1,2.74a17.84,17.84,0,0,1-9.07,2.74c-6.78,0-11.3-4.52-11.3-13.08,0-7.85,3.86-12.77,10.65-12.77,7,0,9.93,5.63,9.93,11.86v2.18Zm6.63-11.1c-4.71,0-6.63,4.16-6.63,8.41h13C639.32,430.55,637.85,426.44,633,426.44Z"/><path class="cls-16" d="M667.29,447.17a17.68,17.68,0,0,1-8.26,2.18c-6.28,0-10.84-3.7-10.84-12.93,0-8.41,4.61-12.92,10.84-12.92a16,16,0,0,1,8.11,2L666,428.21a13.47,13.47,0,0,0-6.78-1.62c-4.46,0-7.2,3.55-7.2,9.83,0,7,2.74,9.93,7.2,9.93a14,14,0,0,0,7.14-2.07Z"/><path class="cls-16" d="M680.73,449.35c-3.5,0-6.39-1.78-6.39-7.61V426.8h-3.75V424h3.75V419.5l3.85-1.22V424h7.25v2.79h-7.25v15.4c0,2.63,1,3.9,3.29,3.9a10.85,10.85,0,0,0,4-1.06l.76,2.83A12.14,12.14,0,0,1,680.73,449.35Z"/><path class="cls-16" d="M711.64,436.37c0,8.36-4.06,13-10.7,13s-10.58-4.52-10.58-13c0-7.29,3.44-12.87,10.58-12.87C707.84,423.5,711.64,429,711.64,436.37Zm-4,0c0-6.48-2.17-10-6.74-10s-6.68,3.65-6.68,10c0,6.08,1.77,10.09,6.68,10.09S707.68,443,707.68,436.37Z"/><path class="cls-16" d="M745,445.85a9.42,9.42,0,0,1-7.15,3.5c-5.88,0-10-4.36-10-13,0-7.55,3.75-12.87,10.39-12.87a10.43,10.43,0,0,1,6.63,2.13,34.87,34.87,0,0,1-.2-4.05v-7.7h3.85v35h-2.89Zm-.31-17.64a10.62,10.62,0,0,0-6-1.77c-4.66,0-6.89,3.65-6.89,9.93,0,6.13,2,10.09,6.64,10.09,2.23,0,4.25-1,6.28-3.15Z"/><path class="cls-16" d="M758.26,437.54c0,6.13,3.15,8.81,7.86,8.81a15.29,15.29,0,0,0,7.7-2.48l1,2.74a17.84,17.84,0,0,1-9.07,2.74c-6.79,0-11.3-4.52-11.3-13.08,0-7.85,3.85-12.77,10.64-12.77,7,0,9.94,5.63,9.94,11.86v2.18Zm6.64-11.1c-4.71,0-6.64,4.16-6.64,8.41h13C771.24,430.55,769.77,426.44,764.9,426.44Z"/><path class="cls-16" d="M811.33,433.18v15.66h-3.91v-15c0-4.71-1.36-7.3-5.57-7.3-2.64,0-4.46,1.47-6,2.84v19.46H792V424h2.53l.81,3a10.44,10.44,0,0,1,7.55-3.5c3.7,0,6.08,1.32,7.3,3.8a10.83,10.83,0,0,1,7.75-3.8c6.08,0,8.77,3.4,8.77,9.68v15.66h-3.9v-15c0-4.71-1.78-7.3-6-7.3a8.91,8.91,0,0,0-5.93,2.84A14.76,14.76,0,0,1,811.33,433.18Z"/><path class="cls-16" d="M848.12,448.84l-.66-3.19a9.81,9.81,0,0,1-7.65,3.7c-5.07,0-8-3.4-8-7.61s3.14-7.09,8.77-7.09H847v-2c0-4.3-1.87-6.13-5.62-6.13a18.32,18.32,0,0,0-7.5,1.62l-1-2.78a21.84,21.84,0,0,1,9-1.88c5.87,0,8.86,3,8.86,9v16.37ZM847,437.29h-5.82c-4.21,0-5.63,1.82-5.63,4.3,0,3,1.62,5,5.22,5a8.74,8.74,0,0,0,6.23-3.09Z"/><path class="cls-16" d="M873,448.84v-15c0-4.71-1.47-7.3-5.67-7.3a9.19,9.19,0,0,0-6.09,2.84v19.46h-3.85V424h2.59l.76,2.94a10.85,10.85,0,0,1,7.8-3.45c5.83,0,8.41,3.5,8.41,9.68v15.66Z"/><path class="cls-16" d="M886.13,437.54c0,6.13,3.14,8.81,7.85,8.81a15.25,15.25,0,0,0,7.7-2.48l1,2.74a17.87,17.87,0,0,1-9.07,2.74c-6.79,0-11.3-4.52-11.3-13.08,0-7.85,3.85-12.77,10.64-12.77,7,0,9.93,5.63,9.93,11.86v2.18Zm6.64-11.1c-4.72,0-6.64,4.16-6.64,8.41h13C899.1,430.55,897.63,426.44,892.77,426.44Z"/><path class="cls-16" d="M921.35,427.35a10,10,0,0,0-3.19-.45,8,8,0,0,0-5.58,2.68v19.26h-3.85V424h2.59l.71,3.14a8.2,8.2,0,0,1,6.43-3.5,11,11,0,0,1,3.14.41Z"/><path class="cls-16" d="M941.27,448.84l-.66-3.19a9.81,9.81,0,0,1-7.65,3.7c-5.07,0-8-3.4-8-7.61s3.14-7.09,8.77-7.09h6.43v-2c0-4.3-1.87-6.13-5.62-6.13a18.32,18.32,0,0,0-7.5,1.62l-1-2.78a21.84,21.84,0,0,1,9-1.88c5.87,0,8.86,3,8.86,9v16.37Zm-1.12-11.55h-5.82c-4.21,0-5.63,1.82-5.63,4.3,0,3,1.62,5,5.22,5a8.74,8.74,0,0,0,6.23-3.09Z"/><path class="cls-16" d="M455.91,473.53c0,5.32,12.31,3.45,12.31,11.86,0,4-3.09,7.4-8.61,7.4a15,15,0,0,1-7.5-2.13l1.12-2.84a11.59,11.59,0,0,0,6.33,2.08c3,0,4.91-1.67,4.91-4.26,0-6-12.16-3.75-12.16-12.16,0-3.35,2.54-6.54,8.21-6.54a16.16,16.16,0,0,1,7.45,1.62l-.91,2.84a13.38,13.38,0,0,0-6.49-1.52C457.43,469.88,455.91,471.25,455.91,473.53Z"/><path class="cls-16" d="M476.94,481c0,6.13,3.14,8.81,7.86,8.81a15.29,15.29,0,0,0,7.7-2.48l1,2.74a17.87,17.87,0,0,1-9.07,2.74c-6.79,0-11.3-4.52-11.3-13.08,0-7.85,3.85-12.77,10.64-12.77,7,0,9.93,5.63,9.93,11.86V481Zm6.64-11.1c-4.71,0-6.64,4.16-6.64,8.41h13C489.91,474,488.45,469.88,483.58,469.88Z"/><path class="cls-16" d="M520.88,467.45v2.68a26.74,26.74,0,0,1-6-.5,7.44,7.44,0,0,1,3.39,5.93c0,5.88-5.62,8.36-9.37,8.36a11.32,11.32,0,0,1-3.24-.56c-1.83.15-2.64.86-2.64,1.77,0,3.1,16.27-.05,16.27,8.82,0,5.78-5.32,8.56-10.65,8.56-4.86,0-9.88-2.58-9.88-7.34,0-3.3,2.54-5.32,6.29-5.88-3-.31-5.58-1.37-5.58-3.75,0-1.72,1.17-3,3.75-3.29a7.38,7.38,0,0,1-3.8-6.69c0-6.49,5.83-8.62,9.43-8.62C510.84,466.94,514.9,467.3,520.88,467.45Zm-12.52,22.3c-3.75.1-5.92,2-5.92,5s3.08,5.07,6.28,5.07c3.8,0,6.69-1.73,6.69-5.68C515.41,491.62,513.33,490.25,508.36,489.75Zm6.29-14.24c0-4.61-3.4-5.73-5.83-5.73s-5.88,1.12-5.88,5.73c0,4.45,3.29,5.62,5.88,5.62S514.65,480,514.65,475.51Z"/><path class="cls-16" d="M542.06,492.28l-.55-2.84a10.59,10.59,0,0,1-7.71,3.35c-5.52,0-8.56-3.3-8.56-10.09V467.45h3.85v15c0,5.12,1.62,7.24,5.62,7.24a9.78,9.78,0,0,0,6.14-2.43V467.45h3.9v24.83Z"/><path class="cls-16" d="M563.75,470.79a10,10,0,0,0-3.19-.45A7.94,7.94,0,0,0,555,473v19.26h-3.85V467.45h2.58l.71,3.14a8.2,8.2,0,0,1,6.43-3.5,11.21,11.21,0,0,1,3.15.41Z"/><path class="cls-16" d="M583.67,492.28l-.66-3.19a9.79,9.79,0,0,1-7.65,3.7c-5.07,0-8-3.4-8-7.61s3.13-7.09,8.76-7.09h6.44v-2c0-4.3-1.88-6.13-5.63-6.13a18.18,18.18,0,0,0-7.5,1.63l-1-2.79a21.88,21.88,0,0,1,9-1.88c5.88,0,8.86,3,8.86,9v16.37Zm-1.11-11.55h-5.83c-4.21,0-5.63,1.82-5.63,4.3,0,3,1.62,5,5.22,5a8.77,8.77,0,0,0,6.24-3.09Z"/><path class="cls-16" d="M592.13,486.6h3.81v5.68h-3.81Z"/></svg>