<svg id="Capa_1" data-name="Capa 1" xmlns="http://www.w3.org/2000/svg" viewBox="0 0 1024 512"><defs><style>.cls-1{fill:#a0b61d;}.cls-2{fill:#f69f21;}.cls-3{fill:#133a4d;}.cls-4{fill:#e5756f;}.cls-16,.cls-17,.cls-18,.cls-5{fill:none;stroke-width:1.25px;}.cls-5{stroke:#e5756f;}.cls-17,.cls-18,.cls-5{stroke-linecap:round;stroke-linejoin:round;}.cls-6{fill:#74353a;}.cls-7{fill:#e83f41;}.cls-8{fill:#f18781;}.cls-9{fill:#c75c5c;}.cls-10{fill:#d66661;}.cls-11{fill:#f0a39e;}.cls-12{fill:#f6b6b0;}.cls-13{fill:#e88a4a;}.cls-14{fill:#863d40;}.cls-15{fill:#e94b4a;}.cls-16{stroke:#552626;}.cls-16,.cls-21,.cls-22,.cls-23,.cls-24{stroke-miterlimit:10;}.cls-17{stroke:#d05b58;}.cls-18{stroke:#a31831;}.cls-19{fill:#552626;}.cls-20{fill:#fdeceb;}.cls-21{fill:#55b682;}.cls-21,.cls-22,.cls-23,.cls-24{stroke:#fff;}.cls-22{fill:#e7334a;}.cls-23,.cls-24{fill:#615185;}.cls-24{stroke-width:0.5px;}</style></defs><path class="cls-1" d="M427.19,217s30.44,39.82,30.16,47.35-21.48,203-21.48,203l-92.14-92.8s-4.55-147.15,16.82-172.28S427.19,217,427.19,217"/><path class="cls-2" d="M295.5,239.55s-59.84-3-81.2-3.84-39.47-2-46.62,6.89c-58.5,72.45,46.93,186.27,46.93,186.27L366.32,404.1Z"/><path class="cls-3" d="M367.47,379.25s63.94,6.18,74.71,54.4-23.73,57.67-23.73,57.67L317.18,512s-23.34-48.69-54.75-49.87,44.16-70.07,44.16-70.07"/><path class="cls-3" d="M371,363s12.15.85,11.19,5.53l-2.6,12.77c-1.74,8.56-3.66,18-3.66,18s-26.08,24.56-53.74,7.81L314,364.8Z"/><path class="cls-4" d="M370.93,354.76l.72,12.21s-21.4,15.31-42.4,9.41l-2.63-13.46s21.52-29.05,44.31-8.16"/><path class="cls-5" d="M370.93,354.76l.72,12.21s-21.4,15.31-42.4,9.41l-2.63-13.46S348.14,333.87,370.93,354.76Z"/><path class="cls-6" d="M292.6,86.59s44,53.13,41.27,83.28-19.25,20.89-10.35,35,6.28,21.07,6.28,21.07l-34.3,13.64-42.74-2.39Z"/><path class="cls-7" d="M317,356.67s-1.07,7.42-15.57,6.48-22.73-22.46-22.73-22.46,16.85,11.63,18.63-4.41-18.88-41.18-12.05-76.68,31-41.66,42.68-37.69,8.94,107.21,8.94,107.21Z"/><path class="cls-8" d="M316.87,245.85s-27.27,4.09-24.52,35.62,15.91,78.4,30.34,81.31,61.23-8.71,57.11-45.4c0,0,13-1.87,13.51-14.43s-7.43-21.89-14.19-9.18l-6.77,12.72s-.73-32.65-8.07-36.06-42.13-8.27-47.41-24.58"/><path class="cls-9" d="M270.82,206s-9,29.52-5.49,31.23,30.17,2.31,30.17,2.31S281.13,255.9,251,252.81s-36.68-17.1-36.68-17.1l17.35-1.7s2.12-25.07,1.89-29.4,37.27,1.4,37.27,1.4"/><path class="cls-10" d="M288.53,101s13.9,6.41,9.76,53.8-22.7,49.83-43.79,56.9c0,0-35.57-4.87-46.72-32.4L204,164.6s-8.26-10.14-6.91-14.8S204,145,204,145l1.1-8.21s47.88,1.4,63-14.53S288.53,101,288.53,101"/><path class="cls-11" d="M425.22,154.45s-3.4,27.77-13.54,46.64-39.93-3.86-39.93-3.86,5.54-11.58,6.3-21.37,47.28-34.77,47.17-21.41"/><path class="cls-12" d="M337.85,95.36s8.36,28.61,6.66,52.91l14.31-4.57,4.43,7.63s12.79-5.81,17.53-16.63,9.58,6.25,1.05,13.79-19.68,11.44-19.68,11.44,6.47,16,19.78,17.25,36.87-8.83,43.8-25.86,6.41-34.73,6.41-34.73,9.67-6.31,8.15-18.16-7.55-29-14.55-20.58-7.26,15.44-7.26,15.44S404,60.52,391.06,59.64,338,50.18,337.85,95.36"/><path class="cls-13" d="M330,104.89S313,99.14,313.2,82.26s5.38-17.87,5.38-17.87-8,4.41-7.67-5,8.1-27.2,41.61-30.26c0,0-2.38-20.13,18.43-19.74,0,0-11,0-1.85-3.21s35.59-16.35,35.79,9.59c0,0,48.08-14.3,44.35,32.71,0,0,22.1,7.91,21.47,24.78s-7.17,13.09-7.17,13.09,12.78,4.8,11.6,15.37-9.24,15.76-12.38,15.64c0,0-.32,29.46-20.85,32.22s-10.14,8.26-10.14,8.26-9.72-2.72-4.73-10c0,0,4.61-7.69,1.84-7s-5.51.19-5.4-3c0,0,7,2.23,7.27-5.23s-3.59-8.78-3.59-8.78,4.28.95,4.4-2.19-8.92-3.09-8.8-6.23c0,0,6.94,3.41,9.38,1.14S439.77,102,436.21,92s-15.48-16.69-16.8-2.6S424,104.1,424,104.1s-10.25.8-10.56-11.79c0,0-2.4,11.7-18.71,6.37,0,0,6.91-6,7.16-12.7,0,0-1.82,6.62-10.83,5.88,0,0,8.13-7.16,7-18.6,0,0-9.15,13.41-19.63,9.88s-17.76-18.75-17.76-18.75-7.28,26.45-22.78,31c0,0,2.93-4.6,1-7,0,0-.47,12.56-8.87,16.56"/><path class="cls-14" d="M292.6,86.59s-5.58,54.41-48.39,54S204,145,204,145s-13,1.08,0,19.65c0,0,2.52,27.2,29.54,40,0,0,2.15,26.41-1.89,29.4s-64,8.59-64,8.59S154.5,217,171.17,191.65s12.06-38.84,11.65-69.5,38.91-83.8,109.78-35.56"/><path class="cls-15" d="M316.87,245.85s8.9-27.56,29.37-28.75,70.25,33.68,70.32,84-17.78,65.34-58.87,50.43c0,0,22.29-7.41,22.11-34.13,0,0,11.92-3.48,10.8-15.32s-5-12.76-8.26-10.52S373,310.44,371.83,310s1-36.11-7.55-39.57-44-1.26-47.41-24.58"/><path class="cls-4" d="M307.74,279.7s-.63,37.69-7.85,52c0,0,31.36,12.57,7.85-52"/><path class="cls-5" d="M307.74,279.7s-.63,37.69-7.85,52C299.89,331.66,331.25,344.23,307.74,279.7Z"/><path class="cls-16" d="M323.39,312.9s8,7.76,28.75-1.67a18.15,18.15,0,0,0-3.59-9.17"/><path class="cls-16" d="M328.42,315.05s-1.1-2.2,1.66-12.9"/><path class="cls-16" d="M297.44,302.88a31,31,0,0,0-1.17,10.18"/><path class="cls-16" d="M303.38,312.14s-6.38,2.32-10.63.39"/><path class="cls-17" d="M318.74,337.28s9-3.39,14.06-3,4,13.91-6.49,10.76"/><path class="cls-9" d="M252.42,141.66s12.46,34.26,3,34.7-9.58-6.65-3-34.7"/><path class="cls-18" d="M264.17,184.54s-8.86,5.56-17.31.53-12.55-11.08-13.85-8,1.88,12.65,9.32,13.32"/><path class="cls-16" d="M235.62,159.89s-1.05-13.79-7.33-14-7.59,13.86-8.76,13.43a22.74,22.74,0,0,1-3.45-2.1"/><path class="cls-16" d="M269.37,161.16s2.08-13.67,8.36-13.44,6.53,14.39,7.73,14.05a22.74,22.74,0,0,0,3.6-1.83"/><path class="cls-19" d="M358.08,121.67a.82.82,0,0,0,.59-.24.78.78,0,0,0,0-1.11c-3.92-3.84-5.1-14.16-5.11-14.26a.78.78,0,1,0-1.56.17c.05.44,1.25,11,5.57,15.21a.85.85,0,0,0,.52.23"/><path class="cls-19" d="M354.85,123.9a.52.52,0,0,0,.25,0c6.07-1.77,16-11,16.46-11.36l.37-.35-.17-.49c0-.09-.83-2.25-4.43-4.85a.8.8,0,0,0-1.1.18.78.78,0,0,0,.18,1.09,13,13,0,0,1,3.64,3.67c-2,1.8-10.36,9.13-15.39,10.6a.8.8,0,0,0-.53,1,.79.79,0,0,0,.72.56"/><path class="cls-12" d="M337.85,95.36s20.9,29.47,21,48.34l-14.31,4.57s-1.58-31.1-6.66-52.91"/><path class="cls-20" d="M385.12,197l44.26-17.2L427.19,217s-37.84,3.3-46.77,10.82Z"/><path class="cls-20" d="M382.35,197.23s-7.22-16.77-10-16.87l-11.83,21.95S371.86,214.92,371.6,222c0,0,8-24.46,10.75-24.75"/><path class="cls-21" d="M459.88,166.08v-1.46h14.93v2.3c0,16.08-13.36,16.39-13.36,26.83,0,3.86,2.71,6.89,7.93,6.89A35.49,35.49,0,0,0,481.81,198l4.07,12.84a47.23,47.23,0,0,1-19.63,4c-12.94,0-22.34-7-22.34-18.69C443.91,180.18,459.88,176.21,459.88,166.08Zm15.56-7.31H459.26v-16h16.18Z"/><path class="cls-21" d="M510.72,170.68V194H494.23V123.49H517c14.83,0,27.67,7.2,27.67,22.65,0,13.16-10,24.54-27.67,24.54Zm6-33.31h-6v20.57h6c6.69,0,10.34-5,10.34-11.07C527.11,141.24,523.46,137.37,516.77,137.37Z"/><path class="cls-21" d="M588.6,179.13h-22L563.44,194h-16.5l19.32-70.47h25.68L611.25,194H591.94ZM569.49,166h16.18l-5.95-28h-3.65Z"/><path class="cls-21" d="M640.37,168.28h-5.43V194H618.55V123.49h24.54c14.09,0,25.26,6.57,25.26,21.5a22.4,22.4,0,0,1-12.84,20.47L669.92,194H650.71Zm0-32.05h-5.43v19.31h5.43c7.94,0,10.44-3.76,10.44-10.55C650.81,138.73,647.47,136.23,640.37,136.23Z"/><path class="cls-21" d="M714.8,179.13h-22L689.65,194h-16.5l19.31-70.47h25.69L737.46,194H718.15ZM695.7,166h16.18l-6-28h-3.65Z"/><path class="cls-21" d="M488.38,287.78c5.54.63,11.59.73,21.72.73v16a46.27,46.27,0,0,1-33.1-14.1c-24.74,0-31-17.95-31-36.85,0-18.37,6.16-35.7,31-35.7,25.37,0,31.32,17.12,31.32,35.7C508.32,266.38,500.91,281.73,488.38,287.78ZM477,232c-11,0-13.57,9.4-13.57,21.41,0,13.36,2.82,23.07,13.57,23.07s13.78-9.61,13.78-23.07C490.78,241.22,488,232,477,232Z"/><path class="cls-21" d="M575,262.41c0,14.73-8.35,28-27.88,28s-27.87-12.73-27.87-28V218.88h16.49v42.7c0,8.87,4.08,14.82,11.38,14.82s11.17-6,11.17-14.82v-42.7H575Z"/><path class="cls-21" d="M589.64,289.35V218.88h16.49v70.47Z"/><path class="cls-21" d="M620.75,289.35V218.88h45.51v13.88h-29v13.89H659l-1.05,14.51H637.24v14.41h29v13.78ZM628.89,215l-1.36-9.4,30.59-4.18-.21,12.12Z"/><path class="cls-21" d="M709.9,289.35l-19.11-55h-.41l1.56,55H677.22V218.88h25.37l19.63,56.38h.42l-1.57-56.38h15v70.47Z"/><path class="cls-21" d="M749.67,289.35V218.88h45.52v13.88h-29v13.89h21.72l-1,14.51H766.16v14.41h29v13.78Z"/><path class="cls-21" d="M847.17,235.79A35.22,35.22,0,0,0,831,232.14c-6.37,0-9,2.4-9,5.53,0,10.75,31.84,6.27,31.84,30.38,0,11.49-9.92,22.34-26.62,22.34a39.38,39.38,0,0,1-23.7-7.72l6.16-12.53a29.93,29.93,0,0,0,17.65,6.37c5.74,0,9.29-3.13,9.29-7.31,0-13.05-31.64-5.74-31.64-31.32,0-11.07,8.77-20,26.21-20a47.18,47.18,0,0,1,21.5,4.69Z"/><path class="cls-21" d="M886.11,266.07v1.46H871.18v-2.3c0-16.07,13.36-16.39,13.36-26.83,0-3.86-2.72-6.89-7.93-6.89a35.49,35.49,0,0,0-12.43,2.61l-4.07-12.84a47.19,47.19,0,0,1,19.63-4c12.94,0,22.34,7,22.34,18.69C902.08,252,886.11,255.94,886.11,266.07Zm-15.56,7.31h16.18v16H870.55Z"/><path class="cls-22" d="M585,85.73v21.06H563.64V85.73H526.16V73l37.2-59.22H585v54.7h10.26V85.73ZM563.64,68.49V39.64L545.31,68.49Z"/><path class="cls-23" d="M458.09,328.53v11.65h-8.25V304.93h11.38c7.42,0,13.84,3.6,13.84,11.33,0,6.58-5,12.27-13.84,12.27Zm3-16.66h-3v10.29h3c3.34,0,5.17-2.51,5.17-5.53C466.29,313.8,464.46,311.87,461.12,311.87Z"/><path class="cls-23" d="M487.13,329.58c0,2.92,1.88,4.85,5.85,4.85a18.66,18.66,0,0,0,7.21-1.88l1.46,5.75a22.49,22.49,0,0,1-9.92,2.4c-8.2,0-13-5.07-13-13.37,0-7.73,3.7-13.26,12.37-13.26,8,0,11.18,5.69,11.18,12.11v3.4Zm3.76-9.51c-2.71,0-3.76,2.46-3.76,4.8h7.36C494.49,322.16,493.71,320.07,490.89,320.07Z"/><path class="cls-23" d="M516.17,340.18H508V314.59h5.74l.78,3.55h.26a6.21,6.21,0,0,1,5.85-4.07,10.72,10.72,0,0,1,2.82.31l-.1,7a12,12,0,0,0-3.19-.42,7.2,7.2,0,0,0-4,1.2Z"/><path class="cls-23" d="M544.27,321.06a16.54,16.54,0,0,0-5.95-1.15c-1.88,0-2.82.58-2.82,1.62,0,3.24,10.29,2.41,10.29,10.55,0,5-3.61,8.62-10.71,8.62a17.45,17.45,0,0,1-7.63-1.72l1.52-5.7a12.55,12.55,0,0,0,5.85,1.62c1.88,0,3.08-.78,3.08-2.09,0-3.76-10.13-2.66-10.13-11.38,0-4,3-7.36,10.44-7.36a25,25,0,0,1,7,1Z"/><path class="cls-23" d="M575.87,327.33c0,8.77-4.49,13.37-12.54,13.37s-12.53-4.6-12.53-13.37c0-7.52,4.49-13.26,12.53-13.26S575.87,319.81,575.87,327.33Zm-8.51,0c0-5.95-1.62-7.31-4-7.31s-4,1.36-4,7.31c0,5.74,1.52,7.31,4,7.31S567.36,333.07,567.36,327.33Z"/><path class="cls-23" d="M597.39,340.18v-15.1c0-3.34-1.41-4.75-4-4.75a8.49,8.49,0,0,0-3.6.89v19h-8.25V314.59h5.69l1.15,2.87a10.26,10.26,0,0,1,8.14-3.39c6.69,0,9.19,3.91,9.19,10.44v15.67Z"/><path class="cls-23" d="M628,340.18l-1-2.93a8.71,8.71,0,0,1-7.25,3.45c-5.07,0-8.78-3.24-8.78-8.41,0-4.91,3.65-7.68,10-7.68h4.76v-.94c0-2.71-1.83-3.34-3.87-3.34a18.23,18.23,0,0,0-7.62,1.67l-2-5.85a27.36,27.36,0,0,1,10.45-2.08c7.88,0,11.07,3.44,11.07,10.18v15.93Zm-2.35-10.81h-3.29c-2.2,0-3.35,1-3.35,2.71a2.78,2.78,0,0,0,3.08,3.08,7.49,7.49,0,0,0,3.56-1Z"/><path class="cls-23" d="M656,321.06a16.46,16.46,0,0,0-6-1.15c-1.88,0-2.82.58-2.82,1.62,0,3.24,10.29,2.41,10.29,10.55,0,5-3.61,8.62-10.71,8.62a17.4,17.4,0,0,1-7.62-1.72l1.52-5.7a12.54,12.54,0,0,0,5.84,1.62c1.88,0,3.08-.78,3.08-2.09,0-3.76-10.13-2.66-10.13-11.38,0-4,3-7.36,10.45-7.36a25.09,25.09,0,0,1,7,1Z"/><path class="cls-23" d="M692.56,316.68a12.29,12.29,0,0,1-.84-4.91v-7.63h8.2v36h-6.84l-.84-2.72a7.51,7.51,0,0,1-6.47,3.24c-5.7,0-10.5-4-10.5-13.32,0-8.77,5.22-13.31,11.12-13.31A7.55,7.55,0,0,1,692.56,316.68Zm-.84,4.49a8.27,8.27,0,0,0-3.86-1c-2.46,0-4.39,1.41-4.39,7.15,0,5.95,1.88,7.36,4.33,7.36a6.06,6.06,0,0,0,3.92-1.62Z"/><path class="cls-23" d="M708.91,340.18V320.44l-3-.68v-5.17h11.23v25.59Zm-.16-36.25H717v7.21h-8.25Z"/><path class="cls-23" d="M732,340.18h-8.15V314.59h5.75l.78,3.55h.26a6.21,6.21,0,0,1,5.85-4.07,10.72,10.72,0,0,1,2.82.31l-.1,7A12,12,0,0,0,736,321a7.18,7.18,0,0,0-4,1.2Z"/><path class="cls-23" d="M746.2,340.18V320.44l-3-.68v-5.17H754.4v25.59ZM746,303.93h8.25v7.21H746Z"/><path class="cls-23" d="M785,314.59l-.11,6.37a15.25,15.25,0,0,1-4.23-1.31,9.06,9.06,0,0,1,2.09,3.19c0,6.32-6.37,8.93-11,8.93a14.56,14.56,0,0,1-3.24-.42,1,1,0,0,0-.73,1c0,2.72,16.18-.67,16.18,9.19,0,6-5.89,9.4-12.79,9.4-5.53,0-11.07-2.08-11.07-6.68,0-3.29,2.72-4.8,6.94-5.43-3.23-.37-6.78-1.31-6.78-4.55,0-2.24,2.14-3.86,5.22-4.07a8.09,8.09,0,0,1-4.7-7.36c0-6.84,6.63-8.77,11-8.77C776.12,314.38,781.4,314.59,785,314.59Zm-14.52,24.65a3,3,0,0,0-2.77,3.08c0,1.77,1.46,3.18,4,3.18s4.18-1.41,4.18-3.39S773.88,339.5,770.43,339.24Zm5.07-16.45c0-2.2-2.09-2.93-3.82-2.93s-3.81.73-3.81,2.93c0,2.5,2,3.24,3.81,3.24S775.5,325.29,775.5,322.79Z"/><path class="cls-23" d="M792.11,340.18V320.44l-3-.68v-5.17h11.23v25.59ZM792,303.93h8.25v7.21H792Z"/><path class="cls-23" d="M823.55,316.68a12.3,12.3,0,0,1-.83-4.91v-7.63h8.19v36h-6.84l-.83-2.72a7.53,7.53,0,0,1-6.48,3.24c-5.69,0-10.5-4-10.5-13.32,0-8.77,5.22-13.31,11.13-13.31A7.54,7.54,0,0,1,823.55,316.68Zm-.83,4.49a8.35,8.35,0,0,0-3.87-1c-2.45,0-4.39,1.41-4.39,7.15,0,5.95,1.88,7.36,4.34,7.36a6.08,6.08,0,0,0,3.92-1.62Z"/><path class="cls-23" d="M853.68,340.18l-1-2.93a8.73,8.73,0,0,1-7.26,3.45c-5.06,0-8.77-3.24-8.77-8.41,0-4.91,3.65-7.68,10-7.68h4.75v-.94c0-2.71-1.82-3.34-3.86-3.34a18.31,18.31,0,0,0-7.63,1.67l-2-5.85a27.35,27.35,0,0,1,10.44-2.08c7.89,0,11.07,3.44,11.07,10.18v15.93Zm-2.35-10.81H848c-2.19,0-3.34,1-3.34,2.71a2.78,2.78,0,0,0,3.08,3.08,7.45,7.45,0,0,0,3.55-1Z"/><path class="cls-23" d="M881.68,321.06a16.5,16.5,0,0,0-5.95-1.15c-1.88,0-2.82.58-2.82,1.62,0,3.24,10.29,2.41,10.29,10.55,0,5-3.61,8.62-10.71,8.62a17.4,17.4,0,0,1-7.62-1.72l1.51-5.7a12.55,12.55,0,0,0,5.85,1.62c1.88,0,3.08-.78,3.08-2.09,0-3.76-10.13-2.66-10.13-11.38,0-4,3-7.36,10.44-7.36a25,25,0,0,1,7,1Z"/><path class="cls-23" d="M888.73,314.59h8.36v8.14h-8.36Zm0,17.44h8.36v8.15h-8.36Z"/><path class="cls-24" d="M465.07,396.16v-9.54a20.79,20.79,0,0,1,.35-2.89,9.46,9.46,0,0,1-7.09,3.44c-5.69,0-9.84-4.34-9.84-12.78,0-7.44,3.7-12.69,10.24-12.69a12.21,12.21,0,0,1,7,2.3l.7-1.8h2.4v34Zm0-29.71a9.65,9.65,0,0,0-5.89-1.85c-4.6,0-6.84,3.6-6.84,9.79s2,9.93,6.54,9.93c2.2,0,4.2-.94,6.19-3.09Z"/><path class="cls-24" d="M491.74,386.67l-.54-2.79a10.46,10.46,0,0,1-7.6,3.29c-5.44,0-8.44-3.24-8.44-9.94v-15H479V377c0,5,1.6,7.14,5.54,7.14a9.67,9.67,0,0,0,6.05-2.4V362.2h3.84v24.47Z"/><path class="cls-24" d="M502.63,386.67V365.25l-2.69-.55v-2.5h6.39v24.47Zm-.35-34.11h4.05v4h-4.05Z"/><path class="cls-24" d="M516,375.54c0,6,3.1,8.69,7.74,8.69a15.12,15.12,0,0,0,7.59-2.45l1,2.7a17.62,17.62,0,0,1-8.94,2.69c-6.69,0-11.14-4.44-11.14-12.88,0-7.74,3.8-12.59,10.49-12.59,6.89,0,9.79,5.55,9.79,11.69v2.15Zm6.54-10.94c-4.64,0-6.54,4.1-6.54,8.29h12.78C528.75,368.64,527.3,364.6,522.51,364.6Z"/><path class="cls-24" d="M553.63,386.67V371.89c0-4.64-1.45-7.19-5.6-7.19a9.06,9.06,0,0,0-6,2.8v19.17h-3.79V362.2h2.54l.75,2.9a10.71,10.71,0,0,1,7.69-3.4c5.75,0,8.29,3.45,8.29,9.54v15.43Z"/><path class="cls-24" d="M566.62,375.54c0,6,3.09,8.69,7.74,8.69a15.15,15.15,0,0,0,7.59-2.45l.95,2.7a17.65,17.65,0,0,1-8.94,2.69c-6.7,0-11.14-4.44-11.14-12.88,0-7.74,3.8-12.59,10.49-12.59,6.89,0,9.79,5.55,9.79,11.69v2.15Zm6.54-10.94c-4.65,0-6.54,4.1-6.54,8.29H579.4C579.4,368.64,578,364.6,573.16,364.6Z"/><path class="cls-24" d="M591.69,368.2c0,5.24,12.13,3.39,12.13,11.68,0,3.95-3,7.29-8.48,7.29a14.77,14.77,0,0,1-7.39-2.09l1.09-2.8a11.43,11.43,0,0,0,6.25,2c3,0,4.84-1.64,4.84-4.19,0-5.89-12-3.7-12-12,0-3.29,2.49-6.44,8.08-6.44a15.89,15.89,0,0,1,7.35,1.6l-.9,2.8a13.16,13.16,0,0,0-6.4-1.5C593.19,364.6,591.69,366,591.69,368.2Z"/><path class="cls-24" d="M623.21,368.2c0,5.24,12.13,3.39,12.13,11.68,0,3.95-3,7.29-8.49,7.29a14.83,14.83,0,0,1-7.39-2.09l1.1-2.8a11.43,11.43,0,0,0,6.24,2c3,0,4.85-1.64,4.85-4.19,0-5.89-12-3.7-12-12,0-3.29,2.5-6.44,8.09-6.44a15.82,15.82,0,0,1,7.34,1.6l-.9,2.8a13.09,13.09,0,0,0-6.39-1.5C624.71,364.6,623.21,366,623.21,368.2Z"/><path class="cls-24" d="M643.94,375.54c0,6,3.09,8.69,7.74,8.69a15.15,15.15,0,0,0,7.59-2.45l1,2.7a17.65,17.65,0,0,1-8.94,2.69c-6.7,0-11.14-4.44-11.14-12.88,0-7.74,3.8-12.59,10.49-12.59,6.89,0,9.79,5.55,9.79,11.69v2.15Zm6.54-10.94c-4.65,0-6.54,4.1-6.54,8.29h12.78C656.72,368.64,655.27,364.6,650.48,364.6Z"/><path class="cls-24" d="M678.65,365.5a9.81,9.81,0,0,0-3.15-.45A7.8,7.8,0,0,0,670,367.7v19h-3.8V362.2h2.55l.7,3.1a8.11,8.11,0,0,1,6.34-3.45,11,11,0,0,1,3.1.4Z"/><path class="cls-24" d="M698.28,386.67l-.65-3.14a9.67,9.67,0,0,1-7.54,3.64c-5,0-7.89-3.34-7.89-7.49s3.09-7,8.64-7h6.34v-1.95c0-4.24-1.85-6-5.55-6a18.06,18.06,0,0,0-7.39,1.6l-1-2.75a21.48,21.48,0,0,1,8.88-1.85c5.8,0,8.74,3,8.74,8.84v16.13Zm-1.1-11.38h-5.74c-4.15,0-5.55,1.79-5.55,4.24,0,3,1.6,4.89,5.15,4.89a8.61,8.61,0,0,0,6.14-3Zm-10.54-16.88-.55-2.25,11-4.1.75,2.85Z"/><path class="cls-24" d="M722.75,386.67V371.89c0-4.64-1.45-7.19-5.59-7.19a9.06,9.06,0,0,0-6,2.8v19.17h-3.79V362.2h2.55l.74,2.9a10.72,10.72,0,0,1,7.7-3.4c5.74,0,8.29,3.45,8.29,9.54v15.43Z"/><path class="cls-24" d="M745.68,386.67V365.25l-2.7-.55v-2.5h6.4v24.47Zm-.35-34.11h4v4h-4Z"/><path class="cls-24" d="M775.05,371.24v15.43H771.2V371.89c0-4.64-1.35-7.19-5.49-7.19-2.6,0-4.4,1.45-5.9,2.8v19.17H756V362.2h2.5l.79,2.95a10.3,10.3,0,0,1,7.44-3.45c3.65,0,6,1.3,7.2,3.75a10.63,10.63,0,0,1,7.64-3.75c6,0,8.64,3.35,8.64,9.54v15.43h-3.85V371.89c0-4.64-1.75-7.19-5.89-7.19a8.74,8.74,0,0,0-5.84,2.8A14.74,14.74,0,0,1,775.05,371.24Z"/><path class="cls-24" d="M800,388.32v7.84h-3.84v-34h2.94l.6,2.9a9.86,9.86,0,0,1,7.14-3.4c6.25,0,9.34,4.45,9.34,12.69,0,8.64-4.29,12.78-10.14,12.78a8.63,8.63,0,0,1-6.59-2.79A22.6,22.6,0,0,1,800,388.32Zm0-6.64a8.18,8.18,0,0,0,5.79,2.64c4.45,0,6.55-2.89,6.55-9.93,0-6.44-1.85-9.74-6.3-9.74a8.78,8.78,0,0,0-6,2.85Z"/><path class="cls-24" d="M837.13,386.67l-.65-3.14a9.66,9.66,0,0,1-7.54,3.64c-5,0-7.89-3.34-7.89-7.49s3.1-7,8.64-7H836v-1.95c0-4.24-1.85-6-5.54-6a18,18,0,0,0-7.39,1.6l-1-2.75A21.53,21.53,0,0,1,831,361.7c5.79,0,8.74,3,8.74,8.84v16.13ZM836,375.29h-5.74c-4.14,0-5.54,1.79-5.54,4.24,0,3,1.6,4.89,5.14,4.89a8.59,8.59,0,0,0,6.14-3Z"/><path class="cls-24" d="M864.3,385a17.39,17.39,0,0,1-8.14,2.15c-6.19,0-10.68-3.64-10.68-12.73,0-8.29,4.54-12.74,10.68-12.74a15.77,15.77,0,0,1,8,1.95l-1.1,2.7a13.25,13.25,0,0,0-6.69-1.6c-4.39,0-7.09,3.49-7.09,9.69,0,6.89,2.7,9.79,7.09,9.79a13.76,13.76,0,0,0,7-2.05Z"/><path class="cls-24" d="M877.54,387.17c-3.45,0-6.29-1.75-6.29-7.49V365h-3.7V362.2h3.7v-4.44l3.79-1.2v5.64h7.14V365H875v15.18c0,2.6,1,3.85,3.25,3.85a10.52,10.52,0,0,0,3.89-1.05l.75,2.79A11.92,11.92,0,0,1,877.54,387.17Z"/><path class="cls-24" d="M903,386.67l-.65-3.14a9.66,9.66,0,0,1-7.54,3.64c-5,0-7.89-3.34-7.89-7.49s3.1-7,8.64-7h6.34v-1.95c0-4.24-1.85-6-5.54-6a18,18,0,0,0-7.39,1.6l-1-2.75a21.53,21.53,0,0,1,8.89-1.85c5.79,0,8.74,3,8.74,8.84v16.13Zm-1.1-11.38h-5.74c-4.15,0-5.55,1.79-5.55,4.24,0,3,1.6,4.89,5.15,4.89a8.59,8.59,0,0,0,6.14-3Z"/><path class="cls-24" d="M928.23,383.73a9.25,9.25,0,0,1-7,3.44c-5.79,0-9.84-4.29-9.84-12.78,0-7.44,3.7-12.69,10.24-12.69a10.25,10.25,0,0,1,6.54,2.1,33.93,33.93,0,0,1-.2-4v-7.59h3.8v34.45h-2.85Zm-.3-17.38A10.46,10.46,0,0,0,922,364.6c-4.59,0-6.79,3.6-6.79,9.79s1.95,9.93,6.54,9.93c2.2,0,4.19-.94,6.19-3.09Z"/><path class="cls-24" d="M953.45,386.67l-.64-3.14a9.68,9.68,0,0,1-7.55,3.64c-5,0-7.88-3.34-7.88-7.49s3.09-7,8.63-7h6.35v-1.95c0-4.24-1.85-6-5.55-6a18.06,18.06,0,0,0-7.39,1.6l-1-2.75a21.57,21.57,0,0,1,8.89-1.85c5.8,0,8.74,3,8.74,8.84v16.13Zm-1.09-11.38h-5.75c-4.14,0-5.54,1.79-5.54,4.24,0,3,1.6,4.89,5.14,4.89a8.61,8.61,0,0,0,6.15-3Z"/><path class="cls-24" d="M965.34,368.2c0,5.24,12.14,3.39,12.14,11.68,0,3.95-3.05,7.29-8.49,7.29a14.8,14.8,0,0,1-7.39-2.09l1.1-2.8a11.4,11.4,0,0,0,6.24,2c3,0,4.84-1.64,4.84-4.19,0-5.89-12-3.7-12-12,0-3.29,2.5-6.44,8.09-6.44a15.85,15.85,0,0,1,7.34,1.6l-.9,2.8a13.12,13.12,0,0,0-6.39-1.5C966.84,364.6,965.34,366,965.34,368.2Z"/><path class="cls-24" d="M1014.19,374.39c0,8.24-4,12.78-10.54,12.78s-10.44-4.44-10.44-12.78c0-7.19,3.4-12.69,10.44-12.69C1010.44,361.7,1014.19,367.1,1014.19,374.39Zm-3.89,0c0-6.39-2.15-9.84-6.65-9.84s-6.59,3.59-6.59,9.84c0,6,1.75,9.93,6.59,9.93S1010.3,380.93,1010.3,374.39Z"/><path class="cls-24" d="M452.64,407.81a10.48,10.48,0,0,1,7.29-3.29c6.24,0,9.49,4.44,9.49,12.68,0,8.64-4.3,12.78-10.19,12.78a9.47,9.47,0,0,1-7.09-3.14l-.8,2.65h-2.1V395H453v9.49Zm.4,16.53a8.64,8.64,0,0,0,5.94,2.8c4.3,0,6.59-2.9,6.59-9.94,0-6.44-1.89-9.79-6.34-9.79a9.13,9.13,0,0,0-6.19,2.75Z"/><path class="cls-24" d="M478.21,418.35c0,6,3.1,8.69,7.74,8.69a15.12,15.12,0,0,0,7.59-2.45l.95,2.7a17.49,17.49,0,0,1-8.94,2.69c-6.69,0-11.13-4.44-11.13-12.88,0-7.74,3.79-12.58,10.48-12.58,6.89,0,9.79,5.54,9.79,11.68v2.15Zm6.54-10.94c-4.64,0-6.54,4.1-6.54,8.29H491C491,411.46,489.55,407.41,484.75,407.41Z"/><path class="cls-24" d="M515.87,429.49V414.7c0-4.64-1.45-7.19-5.59-7.19a9.06,9.06,0,0,0-6,2.8v19.18h-3.79V405H503l.74,2.89a10.71,10.71,0,0,1,7.7-3.39c5.74,0,8.28,3.44,8.28,9.53v15.44Z"/><path class="cls-24" d="M528.86,418.35c0,6,3.09,8.69,7.74,8.69a15.15,15.15,0,0,0,7.59-2.45l.95,2.7A17.56,17.56,0,0,1,536.2,430c-6.69,0-11.14-4.44-11.14-12.88,0-7.74,3.8-12.58,10.49-12.58,6.89,0,9.79,5.54,9.79,11.68v2.15Zm6.54-10.94c-4.64,0-6.54,4.1-6.54,8.29h12.78C541.64,411.46,540.2,407.41,535.4,407.41Z"/><path class="cls-24" d="M564.92,397.77a11.11,11.11,0,0,0-3.15-.44c-3.29,0-4.74,1.84-4.74,5.74V405h5.79v2.89H557v21.58h-3.75V407.91h-3.94V405h3.94v-2.2c0-5.59,2.7-8.64,8.19-8.64a16.17,16.17,0,0,1,3.8.5Z"/><path class="cls-24" d="M569.12,429.49V408.06l-2.7-.55V405h6.39v24.47Zm-.35-34.11h4v4h-4Z"/><path class="cls-24" d="M597.53,427.84A17.36,17.36,0,0,1,589.4,430c-6.2,0-10.69-3.64-10.69-12.73,0-8.29,4.54-12.73,10.69-12.73a15.9,15.9,0,0,1,8,1.94l-1.11,2.7a13.21,13.21,0,0,0-6.68-1.6c-4.4,0-7.1,3.5-7.1,9.69,0,6.89,2.7,9.79,7.1,9.79a13.82,13.82,0,0,0,7-2.05Z"/><path class="cls-24" d="M604.48,429.49V408.06l-2.7-.55V405h6.4v24.47Zm-.35-34.11h4v4h-4Z"/><path class="cls-24" d="M630,429.49l-.65-3.15a9.61,9.61,0,0,1-7.54,3.64c-5,0-7.89-3.34-7.89-7.49s3.1-7,8.64-7h6.34v-1.95c0-4.24-1.84-6-5.54-6a18,18,0,0,0-7.39,1.6l-1-2.75a21.72,21.72,0,0,1,8.89-1.84c5.79,0,8.74,3,8.74,8.83v16.14Zm-1.1-11.39h-5.74c-4.15,0-5.54,1.8-5.54,4.24,0,3,1.59,4.9,5.14,4.9a8.6,8.6,0,0,0,6.14-3.05Z"/><path class="cls-24" d="M655.18,426.54a9.25,9.25,0,0,1-7,3.44c-5.79,0-9.84-4.29-9.84-12.78,0-7.44,3.7-12.68,10.24-12.68a10.31,10.31,0,0,1,6.54,2.09,33.71,33.71,0,0,1-.2-4V395h3.8v34.46h-2.85Zm-.31-17.38a10.43,10.43,0,0,0-5.94-1.75c-4.59,0-6.79,3.6-6.79,9.79s2,9.94,6.54,9.94c2.2,0,4.2-.95,6.19-3.1Z"/><path class="cls-24" d="M680.4,429.49l-.65-3.15a9.64,9.64,0,0,1-7.54,3.64c-5,0-7.89-3.34-7.89-7.49s3.09-7,8.64-7h6.34v-1.95c0-4.24-1.85-6-5.55-6a18.06,18.06,0,0,0-7.39,1.6l-1-2.75a21.76,21.76,0,0,1,8.89-1.84c5.8,0,8.74,3,8.74,8.83v16.14Zm-1.1-11.39h-5.75c-4.14,0-5.54,1.8-5.54,4.24,0,3,1.6,4.9,5.15,4.9a8.62,8.62,0,0,0,6.14-3.05Z"/><path class="cls-24" d="M692.29,411c0,5.24,12.13,3.39,12.13,11.68,0,3.95-3,7.29-8.49,7.29a14.7,14.7,0,0,1-7.39-2.09l1.1-2.8a11.4,11.4,0,0,0,6.24,2.05c3,0,4.84-1.65,4.84-4.2,0-5.89-12-3.69-12-12,0-3.3,2.5-6.44,8.09-6.44a16,16,0,0,1,7.34,1.59l-.9,2.8a13.12,13.12,0,0,0-6.39-1.5C693.78,407.41,692.29,408.76,692.29,411Z"/><path class="cls-24" d="M724.85,431.13V439H721V405H724l.6,2.89a9.85,9.85,0,0,1,7.14-3.39c6.24,0,9.34,4.44,9.34,12.68,0,8.64-4.29,12.78-10.14,12.78a8.6,8.6,0,0,1-6.59-2.79A22.78,22.78,0,0,1,724.85,431.13Zm0-6.64a8.19,8.19,0,0,0,5.79,2.65c4.45,0,6.55-2.9,6.55-9.94,0-6.44-1.85-9.74-6.3-9.74a8.78,8.78,0,0,0-6,2.85Z"/><path class="cls-24" d="M767,417.2c0,8.24-4,12.78-10.53,12.78S746,425.54,746,417.2c0-7.19,3.4-12.68,10.44-12.68C763.21,404.52,767,409.91,767,417.2Zm-3.89,0c0-6.39-2.15-9.84-6.64-9.84s-6.59,3.6-6.59,9.84c0,6,1.74,9.94,6.59,9.94S763.06,423.74,763.06,417.2Z"/><path class="cls-24" d="M785.14,408.31a9.81,9.81,0,0,0-3.15-.45,7.82,7.82,0,0,0-5.49,2.65v19h-3.8V405h2.55l.7,3.09a8.09,8.09,0,0,1,6.34-3.45,11.47,11.47,0,0,1,3.1.4Z"/><path class="cls-24" d="M816,429.49V414.7c0-4.64-1.44-7.19-5.59-7.19a9.06,9.06,0,0,0-6,2.8v19.18h-3.8V405h2.55l.75,2.89a10.69,10.69,0,0,1,7.69-3.39c5.74,0,8.29,3.44,8.29,9.53v15.44Z"/><path class="cls-24" d="M842.28,429.49l-.55-2.8a10.42,10.42,0,0,1-7.59,3.29c-5.45,0-8.44-3.24-8.44-9.93V405h3.79V419.8c0,5,1.6,7.14,5.55,7.14a9.66,9.66,0,0,0,6-2.4V405h3.84v24.47Z"/><path class="cls-24" d="M854.22,418.35c0,6,3.09,8.69,7.74,8.69a15.15,15.15,0,0,0,7.59-2.45l1,2.7a17.56,17.56,0,0,1-8.94,2.69c-6.7,0-11.14-4.44-11.14-12.88,0-7.74,3.8-12.58,10.49-12.58,6.89,0,9.79,5.54,9.79,11.68v2.15Zm6.54-10.94c-4.65,0-6.54,4.1-6.54,8.29H867C867,411.46,865.55,407.41,860.76,407.41Z"/><path class="cls-24" d="M879.29,411c0,5.24,12.13,3.39,12.13,11.68,0,3.95-3,7.29-8.48,7.29a14.67,14.67,0,0,1-7.39-2.09l1.09-2.8a11.44,11.44,0,0,0,6.25,2.05c3,0,4.84-1.65,4.84-4.2,0-5.89-12-3.69-12-12,0-3.3,2.49-6.44,8.08-6.44a16,16,0,0,1,7.35,1.59l-.9,2.8a13.16,13.16,0,0,0-6.4-1.5C880.79,407.41,879.29,408.76,879.29,411Z"/><path class="cls-24" d="M905.26,430c-3.44,0-6.29-1.74-6.29-7.49V407.76h-3.7V405H899v-4.45l3.79-1.2V405h7.15v2.74h-7.15v15.18c0,2.6,1,3.85,3.25,3.85a10.58,10.58,0,0,0,3.9-1.05l.75,2.8A12,12,0,0,1,905.26,430Z"/><path class="cls-24" d="M928,408.31a9.69,9.69,0,0,0-3.14-.45,7.78,7.78,0,0,0-5.49,2.65v19h-3.8V405h2.55l.7,3.09a8.09,8.09,0,0,1,6.34-3.45,11.47,11.47,0,0,1,3.1.4Z"/><path class="cls-24" d="M952.66,417.2c0,8.24-4,12.78-10.54,12.78s-10.43-4.44-10.43-12.78c0-7.19,3.39-12.68,10.43-12.68C948.91,404.52,952.66,409.91,952.66,417.2Zm-3.9,0c0-6.39-2.14-9.84-6.64-9.84s-6.59,3.6-6.59,9.84c0,6,1.75,9.94,6.59,9.94S948.76,423.74,948.76,417.2Z"/><path class="cls-24" d="M453.09,473.94v7.85h-3.85v-34h2.95l.6,2.89a9.87,9.87,0,0,1,7.14-3.39c6.24,0,9.34,4.44,9.34,12.68,0,8.64-4.3,12.79-10.14,12.79a8.59,8.59,0,0,1-6.59-2.8A22.78,22.78,0,0,1,453.09,473.94Zm0-6.64a8.16,8.16,0,0,0,5.79,2.65c4.45,0,6.54-2.9,6.54-9.94,0-6.44-1.85-9.74-6.29-9.74a8.76,8.76,0,0,0-6,2.85Z"/><path class="cls-24" d="M487.5,451.12a9.78,9.78,0,0,0-3.14-.45,7.83,7.83,0,0,0-5.5,2.65v19h-3.79V447.83h2.54l.7,3.09a8.13,8.13,0,0,1,6.34-3.44,11,11,0,0,1,3.1.4Z"/><path class="cls-24" d="M512.12,460c0,8.24-4,12.79-10.53,12.79s-10.44-4.45-10.44-12.79c0-7.19,3.39-12.68,10.44-12.68C508.38,447.33,512.12,452.72,512.12,460Zm-3.89,0c0-6.39-2.15-9.84-6.64-9.84S495,453.77,495,460c0,6,1.74,9.94,6.59,9.94S508.23,466.55,508.23,460Z"/><path class="cls-24" d="M526.31,472.15l-2.49.2L516,447.83h4.2s4.59,14.88,6.69,22.22c2.15-7.39,6.64-22.22,6.64-22.22h3.9l-7.84,24.22c-2.55,7.79-5.1,10.28-9.79,10.28a9.75,9.75,0,0,1-5.44-1.94l1.24-2.55h.3a7.12,7.12,0,0,0,4.1,1.55c2.85,0,4.49-1.7,6-6.34Z"/><path class="cls-24" d="M544.39,461.16c0,6,3.1,8.69,7.74,8.69a15.16,15.16,0,0,0,7.6-2.45l.94,2.7a17.52,17.52,0,0,1-8.94,2.7c-6.69,0-11.13-4.45-11.13-12.89,0-7.74,3.79-12.58,10.48-12.58,6.9,0,9.79,5.54,9.79,11.68v2.15Zm6.55-10.93c-4.65,0-6.55,4.09-6.55,8.28h12.79C557.18,454.27,555.73,450.23,550.94,450.23Z"/><path class="cls-24" d="M584.75,470.65a17.43,17.43,0,0,1-8.14,2.15c-6.2,0-10.69-3.65-10.69-12.74,0-8.29,4.55-12.73,10.69-12.73a15.8,15.8,0,0,1,8,1.95L583.5,452a13.25,13.25,0,0,0-6.69-1.6c-4.4,0-7.09,3.5-7.09,9.69,0,6.89,2.69,9.79,7.09,9.79a13.82,13.82,0,0,0,7-2.05Z"/><path class="cls-24" d="M598,472.8c-3.44,0-6.28-1.75-6.28-7.49V450.57H588v-2.74h3.7v-4.45l3.79-1.2v5.65h7.14v2.74h-7.14v15.18c0,2.6,1,3.85,3.25,3.85a10.58,10.58,0,0,0,3.89-1.05l.75,2.8A12,12,0,0,1,598,472.8Z"/><path class="cls-24" d="M628.45,460c0,8.24-4,12.79-10.54,12.79s-10.43-4.45-10.43-12.79c0-7.19,3.39-12.68,10.43-12.68C624.71,447.33,628.45,452.72,628.45,460Zm-3.89,0c0-6.39-2.15-9.84-6.65-9.84s-6.59,3.6-6.59,9.84c0,6,1.75,9.94,6.59,9.94S624.56,466.55,624.56,460Z"/><path class="cls-24" d="M633.45,466.7h3.74v5.6h-3.74Z"/></svg>