<svg id="Capa_1" data-name="Capa 1" xmlns="http://www.w3.org/2000/svg" viewBox="0 0 1024 512"><defs><style>.cls-1{fill:#f2979b;}.cls-2{fill:#fff;}.cls-3{fill:#222b54;}.cls-4{fill:#fcc77c;}.cls-5{fill:#f4d511;}.cls-6{fill:#7a7ba3;}.cls-7{fill:#f8b78e;}.cls-12,.cls-8{fill:none;}.cls-9{fill:#c1d44f;}.cls-10{fill:#fff5d9;}.cls-11{fill:#ca1335;}.cls-12{stroke:#e7334a;stroke-linecap:round;stroke-linejoin:round;stroke-width:2px;}.cls-13{fill:#e7334a;}.cls-13,.cls-14,.cls-15,.cls-16{stroke:#fff;stroke-miterlimit:10;}.cls-14{fill:#55b682;}.cls-15,.cls-16{fill:#615185;}.cls-16{stroke-width:0.5px;}</style></defs><path class="cls-1" d="M203.83,31.53A31.53,31.53,0,1,1,172.3,0a31.53,31.53,0,0,1,31.53,31.53"/><path class="cls-2" d="M168,42.11H177v8.57H168Zm13.47-11.65-3.67,4.63a4.35,4.35,0,0,0-1,2.5v.48h-8.73V36.85a8.16,8.16,0,0,1,2.19-5.91l3.72-4.36a5.35,5.35,0,0,0,1.44-3,3,3,0,0,0-3.2-3.25c-2.23,0-3.19,1.43-3.19,3.35h-8.73c0-7.23,5.49-11.22,11.92-11.22,6.28,0,11.92,3.77,11.92,11.17a10.85,10.85,0,0,1-2.71,6.81"/><path class="cls-3" d="M465.07,342.81,136.19,381.3a16.89,16.89,0,0,1-18.73-14.81L92,148.55a16.87,16.87,0,0,1,14.8-18.73L435.64,91.33a16.89,16.89,0,0,1,18.73,14.81l25.5,217.94a16.88,16.88,0,0,1-14.8,18.73"/><path class="cls-4" d="M455.56,334.79l-312,36.51a16.4,16.4,0,0,1-18.19-14.37L102,157.08a16.4,16.4,0,0,1,14.37-18.19l312-36.5a16.4,16.4,0,0,1,18.19,14.37l23.38,199.85a16.38,16.38,0,0,1-14.37,18.18"/><path class="cls-3" d="M281.46,197.65l-144.92,17a1.63,1.63,0,0,1-.38-3.24l144.92-17a1.63,1.63,0,0,1,.38,3.24"/><path class="cls-3" d="M282.78,209l-144.91,17a1.63,1.63,0,0,1-.38-3.24l144.91-17a1.63,1.63,0,0,1,.38,3.24"/><path class="cls-3" d="M284.11,220.27l-144.92,17a1.63,1.63,0,1,1-.38-3.24l144.92-17a1.63,1.63,0,0,1,.38,3.24"/><path class="cls-3" d="M285.43,231.6l-144.92,17a1.63,1.63,0,0,1-.37-3.23l144.91-17a1.63,1.63,0,1,1,.38,3.23"/><path class="cls-3" d="M286.76,243l-144.92,17a1.63,1.63,0,0,1-.37-3.24l144.91-17a1.63,1.63,0,0,1,.38,3.24"/><path class="cls-3" d="M288.08,254.25l-144.91,17a1.62,1.62,0,0,1-1.81-1.43,1.64,1.64,0,0,1,1.43-1.81L287.7,251a1.63,1.63,0,1,1,.38,3.23"/><path class="cls-3" d="M289.41,265.56l-144.92,17a1.63,1.63,0,0,1-.38-3.24l144.92-17a1.63,1.63,0,0,1,.38,3.24"/><path class="cls-5" d="M63,246.5A31.52,31.52,0,1,1,31.52,215,31.52,31.52,0,0,1,63,246.5"/><path class="cls-6" d="M298.63,59.88a9.2,9.2,0,1,1,9.2-9.2,9.19,9.19,0,0,1-9.2,9.2m28.14-6.47V48h-5.33a22.61,22.61,0,0,0-1.68-6.31L324.37,39l-2.73-4.72L317,36.92a23.25,23.25,0,0,0-4.62-4.62l2.67-4.63L310.33,25l-2.65,4.6a22.73,22.73,0,0,0-6.33-1.67V22.54H295.9v5.34a22.66,22.66,0,0,0-6.32,1.67l-2.66-4.61-4.73,2.73,2.68,4.63a23.25,23.25,0,0,0-4.62,4.62l-4.64-2.67L272.89,39l4.61,2.67A22.61,22.61,0,0,0,275.82,48h-5.34v5.46h5.34a22.74,22.74,0,0,0,1.68,6.33l-4.61,2.66,2.72,4.72,4.64-2.68a22.73,22.73,0,0,0,4.62,4.62l-2.68,4.64,4.72,2.73,2.67-4.61a23,23,0,0,0,6.32,1.67v5.34h5.45V73.49a23.08,23.08,0,0,0,6.33-1.67l2.66,4.6,4.72-2.72-2.67-4.64A22.73,22.73,0,0,0,317,64.44l4.63,2.68,2.73-4.72-4.61-2.66a22.74,22.74,0,0,0,1.68-6.33Z"/><path class="cls-6" d="M345.78,28.45a5.61,5.61,0,1,1,5.61-5.62,5.62,5.62,0,0,1-5.61,5.62m17.15-4V21.18h-3.25a14.27,14.27,0,0,0-1-3.86l2.8-1.62-1.66-2.88L357,14.45a14.12,14.12,0,0,0-2.81-2.81l1.62-2.83-2.87-1.65L351.29,10a13.74,13.74,0,0,0-3.85-1V5.69h-3.32V8.94a13.74,13.74,0,0,0-3.85,1l-1.63-2.8-2.87,1.66,1.63,2.83a13.91,13.91,0,0,0-2.82,2.81l-2.82-1.63L330.1,15.7l2.81,1.62a13.93,13.93,0,0,0-1,3.86h-3.25V24.5h3.25a13.86,13.86,0,0,0,1,3.85L330.1,30l1.66,2.88,2.82-1.63A14.22,14.22,0,0,0,337.4,34l-1.63,2.82,2.87,1.66,1.63-2.8a13.74,13.74,0,0,0,3.85,1V40h3.32V36.73a13.74,13.74,0,0,0,3.85-1l1.63,2.8,2.88-1.66L354.17,34A14.44,14.44,0,0,0,357,31.22l2.82,1.63L361.46,30l-2.8-1.62a14.17,14.17,0,0,0,1-3.86Z"/><path class="cls-3" d="M308.22,382.09a13,13,0,0,1-15.86-1.26,14.93,14.93,0,0,1-26.5-9.22c-.06-3.76,1.3-7.42,1.32-11.18,0-9.81-7.68-14.6-13.33-21.22a92.77,92.77,0,0,1-14.27-22.9c-3.71-8.74-5.24-18.66-2.71-27.81s9.55-17.3,18.72-19.72a6.94,6.94,0,0,0,3.17-1.35,6.24,6.24,0,0,0,1.42-3.06c2.9-10.93,8.2-21.51,16.69-29,6.37-5.63,14.27-9.28,22.35-11.91a106,106,0,0,1,44.49-4.56c7.46.85,15,2.57,21.42,6.39a36.17,36.17,0,0,1,9.9,53.61,28.32,28.32,0,0,1,7,42.16c-2.06,2.51-4.76,5.26-4.09,8.45a10.47,10.47,0,0,0,2.14,3.81,35.81,35.81,0,0,1,6.61,17.25c.38,3.76.12,7.73-1.71,11-4.22,7.64-14.52,8.82-23.25,9.1l-19.34.61"/><path class="cls-7" d="M437.23,390.79s-30.74,55.9-34.23,66.26c-2.11,6.27-8.7.61-13.57-4.82-5.46-15.84-15.85-30.07-30.84-37.14-9.81-4.62-22.14-6.87-27.27-16.43a19.75,19.75,0,0,1-1.76-4.76h0V383c.9-.17,1.8-.35,2.69-.56.13,0,.25-.06.37-.09L334,382l.69-.2,1-.3.74-.25.91-.32.76-.3.84-.34.77-.34.78-.36.79-.38.72-.37c.27-.14.54-.28.8-.43l.63-.36.86-.5.3-.19c1.19-.75,2.35-1.55,3.47-2.41l.26-.2c.34-.26.67-.53,1-.81l.3-.25c.33-.27.65-.55,1-.84l.29-.25,1-.9c.08-.08.15-.16.23-.23.34-.32.67-.65,1-1l.15-.16c1.11-1.14,2.19-2.34,3.22-3.61a29.32,29.32,0,0,0,5.51-11.91v0c.12-.49.22-1,.32-1.45v-.05c.1-.48.19-1,.28-1.44v-.06c.08-.48.16-.95.23-1.43v-.07c.07-.48.14-1,.2-1.45v0c.13-1,.23-2,.31-2.95a85.87,85.87,0,0,0-.31-16.66,133.74,133.74,0,0,0-4.12-20.7q-.66-2.4-1.38-4.79c-.7-2.31-1.45-4.61-2.22-6.91-.55-1.64-1.12-3.29-1.7-4.92l-.18-.49c-.31-.88-.64-1.76-1-2.64-.1-.26-.19-.51-.29-.76-.39-1-.8-2.08-1.22-3.12-.07-.17-.15-.35-.22-.53-.45-1.11-.92-2.22-1.41-3.32l0-.06q-1.56-3.53-3.36-6.93a.54.54,0,0,1-.07-.13c-.6-1.12-1.23-2.23-1.88-3.33l0,0a72.44,72.44,0,0,0-4.25-6.4l0-.06h0c-1-1.37-2.09-2.71-3.23-4-7.69-8.65-22.63-7.89-32.82-5.86-9,1.8-18,4.88-25.21,10.57-10.47,8.28-16.28,21.49-17.63,34.77s1.37,26.68,5.53,39.36l1,1c-4.06-4-11.53-2.95-15.07,1.5s-3.29,11.2-.21,16,8.51,7.71,14.11,8.75a37,37,0,0,0,11.17.2c2.46-.3,6.58-2.42,8.66-.49a10.83,10.83,0,0,1,2.07,3.34c3.8,7.72,11.29,11.92,19.35,13.77v13h0c-4.47,14.81-16,26.79-22.27,41.11-5,11.52-6.46,24.35-5.93,36.91s3,25,5.37,37.29c21,1.93,42.21-.2,63-3.75,16.29-2.78,33.17-6.79,45.69-17.57a6.46,6.46,0,0,0,1.12-1.16c5.55,3.27,11.24,6,15.29,6.45,10.88,1.17,30.46-70.71,38.22-91.58S437.23,390.79,437.23,390.79Z"/><path class="cls-3" d="M300.64,335.13a23.92,23.92,0,0,1-1.46-9.56c.13-2.56.73-10.21,4-11.13,7.24-2,11.05,11.23,12.05,16.33.36,1.83,3.16,1.06,2.81-.77-1.17-5.94-6.15-21.41-14.9-18.68s-7.71,18.07-5.33,24.59c.63,1.74,3.44,1,2.8-.78"/><path class="cls-3" d="M340,324c-1.72-4.08-2.93-11.78.8-15.33,4.7-4.48,10.26,6.22,11.34,9.71.56,1.78,3.36,1,2.81-.77-1.48-4.76-7.29-15.36-13.78-12.9-7.08,2.68-6.26,14.64-4,20.07.71,1.7,3.53.95,2.8-.78"/><path class="cls-3" d="M319.91,296.69a83.19,83.19,0,0,0,10.49,37c.91,1.64,3.42.17,2.51-1.47a79.67,79.67,0,0,1-10.09-35.54c-.09-1.86-3-1.87-2.91,0"/><path class="cls-3" d="M321.07,332.85c1.51,5.44,6.42,10.62,12.43,10.53,6.73-.11,7.76-7.45,7-12.62-.27-1.85-3.07-1.06-2.81.77.67,4.7-.8,10.47-6.78,8.47a11.36,11.36,0,0,1-7.06-7.92,1.45,1.45,0,0,0-2.8.77"/><path class="cls-3" d="M275.79,358.22l-6.35-6c.73-.67,1.46-1.34,2.17-2,1.35-1.3-.7-3.35-2.05-2.06-.74.71-1.49,1.39-2.24,2.08l-6-5.66c-1.37-1.28-3.43.77-2.06,2.06l5.94,5.58q-1.92,1.74-3.9,3.41c-1.43,1.21.63,3.26,2.06,2.06s2.66-2.3,4-3.47l6.42,6C275.09,361.56,277.16,359.51,275.79,358.22Z"/><path class="cls-3" d="M264.66,335.53c.89,2.49,1.84,5.1,3.8,6.88s5.25,2.41,7.22.64c1.58-1.42,1.8-3.78,1.8-5.9A59.94,59.94,0,0,0,273.23,315c10.81-.54,20.69-7.17,27.08-15.92s9.63-19.41,11.46-30.08a23.28,23.28,0,0,0,37.62-24.29,11.58,11.58,0,0,0-4.11-6.35c-2-1.38-4.53-1.73-7-1.91a82.82,82.82,0,0,0-39.45,7.29,74.59,74.59,0,0,0-14.08,8c-7.37,5.46-13.39,12.5-19.35,19.47-4.14,4.86-8.38,9.87-10.38,15.93-4.59,13.93,3.71,28.88,2.66,43.51"/><rect class="cls-8" x="326.49" y="262.77" width="37.07" height="120.7"/><path class="cls-9" d="M392.51,463.89c-3.79-20.22-15.31-40-33.92-48.8-6.94-3.27-15.13-5.36-21.15-9.68a22.23,22.23,0,0,1-15.37,7.68,22.46,22.46,0,0,1-18.19-8.41c-5.45,11.05-13.81,21-18.78,32.38s-6.45,24.36-5.92,36.92,2.95,25,5.37,37.29c21,1.93,42.2-.2,63-3.75,16.29-2.78,33.17-6.79,45.69-17.57a5.3,5.3,0,0,0,1.36-1.55,5.48,5.48,0,0,0,.29-2.82,189.76,189.76,0,0,0-2.38-21.69"/><path class="cls-10" d="M337.44,405.41a21.49,21.49,0,0,1-33.56-.73,150.08,150.08,0,0,1-8.55,14.48c7.58,3.71,16.23,4.62,24.68,4.62,5.88,0,11.87-.45,17.33-2.64,4.81-1.95,9.19-5.44,11.43-10.06a52.64,52.64,0,0,1-11.33-5.67"/><path class="cls-11" d="M339.46,463.65l1-1.33h0c18.35-23.16,14.65-48.74,14.65-48.74L344,409.07c1.53,19.11-2.74,29.35-12.54,44.51h0c-.67,1-1.4,2-2.15,3.14-17.78-8.18-23.72-17.3-30-43.79l-7,11c2.06,22.47,14.05,35.33,30.88,42h0l.1,0,.25.1h0c-6.2,11.38-11.43,26.83-6.25,45.22l5.9-.43c0-19.93,3.9-29.68,9.83-38.47,9.14,6.93,16.78,16.58,15.78,34.92l5.24-1C358.07,485.41,350.77,472.83,339.46,463.65Z"/><path class="cls-12" d="M184.38,167.37a48.16,48.16,0,0,1-28.1-29.81c-2.8-8.72-3-18-2.81-27.2.19-8.56.87-17.59,5.71-24.65"/><path class="cls-12" d="M129.47,96.81l33.4-19A41.24,41.24,0,0,0,179,108.39"/><path class="cls-12" d="M51.85,293.92c14.6,30.81,49.14,49.41,83.23,50,7.63.14,15.37-.54,22.51-3.22,18.62-7,29.67-25.84,38.33-43.75"/><path class="cls-12" d="M46.5,322.14l.06-30.26c7.38.92,14.49,3.28,21.78,4.77s15,2.05,22-.56"/><path class="cls-12" d="M304.16,206.72c24.48-7.65,44.93-29.62,53.46-56.61s5.14-58.27-8.42-82.51"/><path class="cls-12" d="M342.07,85.71q0-14.88,0-29.74c-.76,1,.86,2.12,2.28,2.73q15.76,6.75,32.43,12.41"/><polygon class="cls-2" points="31.89 267.05 16.59 253.98 22.92 246.57 29.65 252.32 44.71 228.4 52.95 233.59 31.89 267.05"/><path class="cls-13" d="M556.18,30.8c-5,0-12.89,1.59-17.4,4l-5.85-15.41a67.09,67.09,0,0,1,27.63-5.58c18.74,0,30.83,9.7,30.83,22.19,0,13-8.77,20.32-17.14,22.32V59c11,1.2,19.79,7.58,19.79,20.6,0,16.87-16.74,27.23-33.61,27.23a61.85,61.85,0,0,1-27.63-6.51l4.78-16.34c4,2.26,13.29,5.45,20.06,5.45,8.11,0,14.88-3.33,14.88-11.69,0-6.78-5.31-9.84-14.75-9.84h-6.11V51.79h4.25c9.44,0,13.56-4.92,13.56-11.43C569.47,34.12,564.55,30.8,556.18,30.8Z"/><path class="cls-14" d="M459.57,175.75v-1.47h15v2.31c0,16.15-13.42,16.47-13.42,26.95,0,3.88,2.72,6.92,8,6.92a35.6,35.6,0,0,0,12.48-2.62l4.09,12.9a47.43,47.43,0,0,1-19.72,4c-13,0-22.44-7-22.44-18.78C443.52,189.91,459.57,185.92,459.57,175.75Zm15.62-7.34H458.94v-16h16.25Z"/><path class="cls-14" d="M510.63,180.37v23.38H494.06V133h22.86c14.9,0,27.79,7.23,27.79,22.75,0,13.22-10.06,24.65-27.79,24.65Zm6.08-33.46h-6.08v20.66h6.08c6.71,0,10.39-5,10.39-11.11C527.1,150.79,523.42,146.91,516.71,146.91Z"/><path class="cls-14" d="M588.86,188.86H566.73l-3.14,14.89H547L566.42,133h25.79l19.41,70.78H592.21Zm-19.19-13.21h16.25l-6-28.11h-3.66Z"/><path class="cls-14" d="M640.87,178h-5.46v25.79H619V133H643.6c14.15,0,25.37,6.6,25.37,21.6a22.48,22.48,0,0,1-12.9,20.55l14.48,28.63h-19.3Zm0-32.2h-5.46v19.4h5.46c8,0,10.48-3.78,10.48-10.59C651.35,148.28,648,145.76,640.87,145.76Z"/><path class="cls-14" d="M715.63,188.86H693.51l-3.15,14.89H673.79L693.19,133H719l19.4,70.78H719Zm-19.19-13.21H712.7l-6-28.11h-3.67Z"/><path class="cls-14" d="M808.75,202.18c5.56.63,11.64.73,21.81.73V219a46.47,46.47,0,0,1-33.24-14.16c-24.86,0-31.15-18-31.15-37,0-18.46,6.19-35.86,31.15-35.86,25.48,0,31.46,17.2,31.46,35.86C828.78,180.68,821.33,196.1,808.75,202.18Zm-11.43-56c-11,0-13.63,9.44-13.63,21.5,0,13.42,2.83,23.17,13.63,23.17s13.84-9.65,13.84-23.17C811.16,155.41,808.33,146.18,797.32,146.18Z"/><path class="cls-14" d="M895.78,176.7c0,14.78-8.39,28.1-28,28.1s-28-12.79-28-28.1V133h16.57v42.89c0,8.91,4.09,14.89,11.43,14.89S879,184.67,879,175.86V133h16.78Z"/><path class="cls-14" d="M909.41,203.75V133h45.72v13.94H926v14h21.81l-1,14.58H926v14.47h29.15v13.84Zm8.18-74.66-1.36-9.44,30.72-4.2-.21,12.17Z"/><path class="cls-14" d="M987.53,180.37v1.46h-15v-2.3c0-16.15,13.43-16.47,13.43-26.95,0-3.88-2.73-6.93-8-6.93a35.35,35.35,0,0,0-12.48,2.63l-4.09-12.9a47.42,47.42,0,0,1,19.71-4c13,0,22.45,7,22.45,18.77C1003.58,166.21,987.53,170.19,987.53,180.37Zm-15.62,7.34h16.25v16H971.91Z"/><path class="cls-15" d="M504.1,262c-11.7,0-14.67-8.49-14.67-17.43,0-8.69,2.92-16.89,14.67-16.89,12,0,14.82,8.1,14.82,16.89C518.92,253.53,515.81,262,504.1,262Zm0-27.61c-5.18,0-6.42,4.45-6.42,10.13,0,6.32,1.34,10.92,6.42,10.92s6.52-4.55,6.52-10.92C510.62,238.76,509.29,234.41,504.1,234.41Z"/><path class="cls-15" d="M528.41,261.53h-4.1V227.45h7.81v8l-.45,4.25c.79-1.33,3.31-2.81,6-2.81,5.38,0,9.92,3.85,9.92,12.49,0,8.3-5.28,12.69-10.81,12.69-3.76,0-5.54-1.28-7-3.55Zm3.71-7.56a4.52,4.52,0,0,0,3.65,2.32c2.12,0,4.05-1.68,4.05-6.91,0-5.48-1.78-6.91-4-6.91a5.81,5.81,0,0,0-3.7,1.53Z"/><path class="cls-15" d="M562.64,261.83c0,7.35-3.36,9.33-8.1,9.33a15.76,15.76,0,0,1-4.74-.74l.89-6.22a6.17,6.17,0,0,0,2.12.39c1.39,0,2.07-.89,2.07-2.27V242.71L552,242v-4.69h10.62Zm-7.8-34.58h7.8v6.82h-7.8Z"/><path class="cls-15" d="M576.42,251.5c0,2.77,1.78,4.6,5.53,4.6a17.82,17.82,0,0,0,6.82-1.78l1.38,5.43a21.14,21.14,0,0,1-9.38,2.27c-7.76,0-12.25-4.79-12.25-12.64,0-7.31,3.51-12.54,11.7-12.54,7.56,0,10.57,5.38,10.57,11.45v3.21Zm3.56-9c-2.57,0-3.56,2.33-3.56,4.55h7C583.39,244.49,582.64,242.51,580,242.51Z"/><path class="cls-15" d="M612.68,260.29a15,15,0,0,1-6.87,1.73c-4.54,0-7.9-2.91-7.9-8.69V242.86h-3.46v-5.53h3.61v-4.15l7.6-2.47v6.62h6.17v5.53h-6.17v10.23a2,2,0,0,0,2.22,2.26,8.66,8.66,0,0,0,3.66-.83Z"/><path class="cls-15" d="M619.45,261.53V242.86l-2.87-.64v-4.89H627.2v24.2Zm-.15-34.28h7.8v6.82h-7.8Z"/><path class="cls-15" d="M649.48,261.53H638.11l-7-24.2h8.79l4.4,19.46h.2l4.34-19.46h7.81Z"/><path class="cls-15" d="M683.26,249.38c0,8.3-4.25,12.64-11.85,12.64s-11.85-4.34-11.85-12.64c0-7.11,4.24-12.54,11.85-12.54S683.26,242.27,683.26,249.38Zm-8,0c0-5.63-1.53-6.91-3.8-6.91s-3.81,1.28-3.81,6.91c0,5.43,1.44,6.91,3.81,6.91S675.21,254.81,675.21,249.38Z"/><path class="cls-15" d="M703.91,243.45a15.46,15.46,0,0,0-5.63-1.08c-1.78,0-2.67.54-2.67,1.53,0,3.06,9.73,2.27,9.73,10,0,4.69-3.4,8.14-10.12,8.14a16.34,16.34,0,0,1-7.21-1.63l1.43-5.38a11.91,11.91,0,0,0,5.53,1.53c1.78,0,2.92-.74,2.92-2,0-3.55-9.59-2.51-9.59-10.76,0-3.8,2.82-7,9.88-7a23.78,23.78,0,0,1,6.62.93Z"/><path class="cls-15" d="M745.4,237.33l-.1,6a14.25,14.25,0,0,1-4-1.23,8.63,8.63,0,0,1,2,3c0,6-6,8.45-10.37,8.45a13.47,13.47,0,0,1-3.06-.4,1,1,0,0,0-.7.94c0,2.57,15.31-.64,15.31,8.69,0,5.68-5.58,8.89-12.09,8.89-5.24,0-10.47-2-10.47-6.32,0-3.11,2.56-4.54,6.56-5.13C725.4,259.9,722,259,722,256c0-2.13,2-3.66,4.94-3.85a7.66,7.66,0,0,1-4.44-7c0-6.47,6.27-8.29,10.37-8.29C737.06,237.13,742.05,237.33,745.4,237.33Zm-13.73,23.31a2.82,2.82,0,0,0-2.61,2.92c0,1.67,1.38,3,3.75,3s4-1.34,4-3.21S734.93,260.89,731.67,260.64Zm4.79-15.56c0-2.07-2-2.76-3.6-2.76s-3.61.69-3.61,2.76c0,2.37,1.88,3.07,3.61,3.07S736.46,247.45,736.46,245.08Z"/><path class="cls-15" d="M757,251.5c0,2.77,1.78,4.6,5.53,4.6a17.82,17.82,0,0,0,6.82-1.78l1.38,5.43a21.14,21.14,0,0,1-9.38,2.27c-7.76,0-12.25-4.79-12.25-12.64,0-7.31,3.51-12.54,11.7-12.54,7.56,0,10.57,5.38,10.57,11.45v3.21Zm3.56-9c-2.57,0-3.56,2.33-3.56,4.55h7C763.93,244.49,763.18,242.51,760.52,242.51Z"/><path class="cls-15" d="M791.69,261.53V247.25c0-3.16-1.34-4.49-3.76-4.49a8.16,8.16,0,0,0-3.41.84v17.93h-7.8v-24.2h5.39l1.08,2.72a9.73,9.73,0,0,1,7.71-3.21c6.32,0,8.69,3.7,8.69,9.87v14.82Z"/><path class="cls-15" d="M812.38,251.5c0,2.77,1.78,4.6,5.54,4.6a17.82,17.82,0,0,0,6.81-1.78l1.38,5.43a21.14,21.14,0,0,1-9.38,2.27c-7.76,0-12.25-4.79-12.25-12.64,0-7.31,3.51-12.54,11.71-12.54,7.55,0,10.56,5.38,10.56,11.45v3.21Zm3.56-9c-2.57,0-3.56,2.33-3.56,4.55h7C819.35,244.49,818.6,242.51,815.94,242.51Z"/><path class="cls-15" d="M839.85,261.53h-7.71v-24.2h5.44l.74,3.36h.25a5.85,5.85,0,0,1,5.53-3.85,10.09,10.09,0,0,1,2.66.29l-.09,6.62a11.66,11.66,0,0,0-3-.4,6.8,6.8,0,0,0-3.8,1.14Z"/><path class="cls-15" d="M866.32,261.53l-1-2.77a8.29,8.29,0,0,1-6.87,3.26c-4.79,0-8.29-3.06-8.29-7.95,0-4.64,3.45-7.26,9.43-7.26h4.49v-.89c0-2.57-1.73-3.16-3.65-3.16a17.16,17.16,0,0,0-7.21,1.58l-1.93-5.53a26,26,0,0,1,9.88-2c7.46,0,10.47,3.25,10.47,9.62v15.07Zm-2.22-10.22H861c-2.07,0-3.16,1-3.16,2.57a2.63,2.63,0,0,0,2.91,2.91,7.12,7.12,0,0,0,3.36-1Z"/><path class="cls-15" d="M885.29,227.45V254a1.64,1.64,0,0,0,1.64,1.88l2,.15v5.53a24.22,24.22,0,0,1-4.1.44c-4.94,0-7.26-2.61-7.26-6.76V227.45Z"/><path class="cls-15" d="M900.71,251.5c0,2.77,1.78,4.6,5.53,4.6a17.82,17.82,0,0,0,6.81-1.78l1.39,5.43a21.19,21.19,0,0,1-9.39,2.27c-7.75,0-12.24-4.79-12.24-12.64,0-7.31,3.5-12.54,11.7-12.54,7.56,0,10.57,5.38,10.57,11.45v3.21Zm3.55-9c-2.56,0-3.55,2.33-3.55,4.55h7C907.67,244.49,906.93,242.51,904.26,242.51Z"/><path class="cls-15" d="M935.73,243.45a15.51,15.51,0,0,0-5.63-1.08c-1.78,0-2.67.54-2.67,1.53,0,3.06,9.73,2.27,9.73,10,0,4.69-3.41,8.14-10.13,8.14a16.38,16.38,0,0,1-7.21-1.63l1.43-5.38a11.91,11.91,0,0,0,5.54,1.53c1.77,0,2.91-.74,2.91-2,0-3.55-9.58-2.51-9.58-10.76,0-3.8,2.82-7,9.88-7a23.76,23.76,0,0,1,6.61.93Z"/><path class="cls-15" d="M965.22,260.79l-5.14,1-7.26-24.5h8.79l4.4,19.41h.15l4.49-19.41h7.71L971,262.52c-2.08,6.62-5.88,9.18-11,9.18a13.64,13.64,0,0,1-7.45-2.61l2.42-5.34h.74a8.27,8.27,0,0,0,4.64,1.83c2.47,0,4.25-1.83,4.84-4.25Z"/><path class="cls-15" d="M497.34,293.85c0,2.76,1.77,4.59,5.53,4.59a17.69,17.69,0,0,0,6.82-1.78l1.38,5.43a21.22,21.22,0,0,1-9.39,2.27c-7.75,0-12.25-4.79-12.25-12.64,0-7.31,3.51-12.54,11.71-12.54,7.56,0,10.57,5.38,10.57,11.45v3.22Zm3.55-9c-2.57,0-3.55,2.33-3.55,4.55h7C504.3,286.83,503.56,284.85,500.89,284.85Z"/><path class="cls-15" d="M532.36,285.79a15.46,15.46,0,0,0-5.63-1.08c-1.78,0-2.67.54-2.67,1.53,0,3.06,9.73,2.27,9.73,10,0,4.69-3.4,8.14-10.12,8.14a16.49,16.49,0,0,1-7.21-1.62l1.43-5.39a11.91,11.91,0,0,0,5.53,1.53c1.78,0,2.92-.74,2.92-2,0-3.56-9.59-2.52-9.59-10.77,0-3.8,2.82-7,9.88-7a23.78,23.78,0,0,1,6.62.93Z"/><path class="cls-15" d="M547.43,306.49v6.76h-7.9V279.67h6.86l.49,2.47a7.63,7.63,0,0,1,6-3c5.38,0,9.93,3.85,9.93,12.49,0,8.3-5.29,12.69-10.82,12.69a5.9,5.9,0,0,1-5.53-2.86A16.93,16.93,0,0,1,547.43,306.49Zm0-10.13a4.3,4.3,0,0,0,3.55,2.27c2.13,0,4-1.67,4-6.91,0-5.48-1.78-6.91-4-6.91a5.55,5.55,0,0,0-3.6,1.53Z"/><path class="cls-15" d="M575.14,293.85c0,2.76,1.78,4.59,5.53,4.59a17.73,17.73,0,0,0,6.82-1.78l1.38,5.43a21.17,21.17,0,0,1-9.38,2.27c-7.76,0-12.25-4.79-12.25-12.64,0-7.31,3.5-12.54,11.7-12.54,7.56,0,10.57,5.38,10.57,11.45v3.22Zm3.56-9c-2.57,0-3.56,2.33-3.56,4.55h7C582.1,286.83,581.36,284.85,578.7,284.85Z"/><path class="cls-15" d="M612.92,286.39a12.3,12.3,0,0,0-5.78-1.39c-2.86,0-4.74,1.68-4.74,6.72,0,4.84,1.63,6.72,4.79,6.72a14.38,14.38,0,0,0,6.33-1.73l1.38,5.53a19.39,19.39,0,0,1-8.44,2.12c-7.71,0-12.06-4.34-12.06-12.64,0-7.75,4.3-12.54,12-12.54a16.94,16.94,0,0,1,8.5,2Z"/><path class="cls-15" d="M621.92,303.87V285.2l-2.87-.64v-4.89h10.62v24.2Zm-1.43-27.95-.7-4.45,13.29-3.26.89,5.73Z"/><path class="cls-15" d="M651.5,275.52a10.38,10.38,0,0,0-3-.39,2.71,2.71,0,0,0-3,2.91v1.63h5.24v5.53h-5.24v18.67h-7.8V285.2h-3.41v-5.53h3.41v-2c0-5.72,3.46-8.74,10.23-8.74a19.89,19.89,0,0,1,4.09.45Z"/><path class="cls-15" d="M656.84,303.87V285.2l-2.87-.64v-4.89h10.62v24.2Zm-.15-34.28h7.8v6.82h-7.8Z"/><path class="cls-15" d="M689,286.39a12.29,12.29,0,0,0-5.77-1.39c-2.87,0-4.75,1.68-4.75,6.72,0,4.84,1.63,6.72,4.79,6.72a14.42,14.42,0,0,0,6.33-1.73l1.38,5.53a19.44,19.44,0,0,1-8.45,2.12c-7.7,0-12-4.34-12-12.64,0-7.75,4.3-12.54,12-12.54a16.94,16.94,0,0,1,8.5,2Z"/><path class="cls-15" d="M718.58,291.72c0,8.3-4.25,12.64-11.86,12.64s-11.85-4.34-11.85-12.64c0-7.11,4.25-12.54,11.85-12.54S718.58,284.61,718.58,291.72Zm-8.05,0c0-5.63-1.53-6.91-3.81-6.91s-3.8,1.28-3.8,6.91c0,5.43,1.43,6.91,3.8,6.91S710.53,297.15,710.53,291.72Z"/><path class="cls-15" d="M739.23,285.79a15.51,15.51,0,0,0-5.63-1.08c-1.78,0-2.67.54-2.67,1.53,0,3.06,9.73,2.27,9.73,10,0,4.69-3.41,8.14-10.12,8.14a16.49,16.49,0,0,1-7.21-1.62l1.43-5.39a11.87,11.87,0,0,0,5.53,1.53c1.78,0,2.91-.74,2.91-2,0-3.56-9.58-2.52-9.58-10.77,0-3.8,2.82-7,9.88-7a23.78,23.78,0,0,1,6.62.93Z"/><path class="cls-15" d="M745.9,279.67h7.9v7.7h-7.9Zm0,16.5h7.9v7.7h-7.9Z"/><path class="cls-16" d="M494.64,357.55v8.07h-3.95V330.69h3l.61,3a10.15,10.15,0,0,1,7.35-3.49c6.42,0,9.6,4.57,9.6,13,0,8.89-4.42,13.15-10.42,13.15a8.84,8.84,0,0,1-6.78-2.87A23.5,23.5,0,0,1,494.64,357.55Zm0-6.83a8.43,8.43,0,0,0,6,2.72c4.57,0,6.73-3,6.73-10.22,0-6.62-1.9-10-6.47-10a9,9,0,0,0-6.22,2.93Z"/><path class="cls-16" d="M530,334.08a10.06,10.06,0,0,0-3.24-.46,8,8,0,0,0-5.65,2.72v19.52h-3.9V330.69h2.61l.73,3.19a8.3,8.3,0,0,1,6.52-3.55,11.3,11.3,0,0,1,3.18.41Z"/><path class="cls-16" d="M555.36,343.22c0,8.48-4.11,13.15-10.84,13.15s-10.73-4.57-10.73-13.15c0-7.39,3.49-13,10.73-13C551.51,330.18,555.36,335.72,555.36,343.22Zm-4,0c0-6.57-2.21-10.12-6.83-10.12s-6.78,3.7-6.78,10.12c0,6.17,1.8,10.22,6.78,10.22S551.35,350,551.35,343.22Z"/><path class="cls-16" d="M565.22,357.55v8.07h-4V330.69h3l.62,3a10.11,10.11,0,0,1,7.34-3.49c6.42,0,9.6,4.57,9.6,13,0,8.89-4.41,13.15-10.42,13.15a8.88,8.88,0,0,1-6.78-2.87A23.5,23.5,0,0,1,565.22,357.55Zm0-6.83a8.45,8.45,0,0,0,6,2.72c4.57,0,6.73-3,6.73-10.22,0-6.62-1.9-10-6.47-10a9,9,0,0,0-6.22,2.93Z"/><path class="cls-16" d="M608.53,343.22c0,8.48-4.11,13.15-10.84,13.15S587,351.8,587,343.22c0-7.39,3.49-13,10.73-13C604.68,330.18,608.53,335.72,608.53,343.22Zm-4,0c0-6.57-2.21-10.12-6.83-10.12s-6.78,3.7-6.78,10.12c0,6.17,1.8,10.22,6.78,10.22S604.52,350,604.52,343.22Zm-12.27-16.43-.57-2.31L603,320.26l.77,2.93Z"/><path class="cls-16" d="M617.31,336.85c0,5.4,12.48,3.5,12.48,12,0,4.06-3.13,7.5-8.72,7.5a15.14,15.14,0,0,1-7.61-2.16l1.13-2.87a11.8,11.8,0,0,0,6.42,2.1c3.08,0,5-1.69,5-4.31,0-6.06-12.33-3.8-12.33-12.33,0-3.39,2.56-6.62,8.32-6.62a16.34,16.34,0,0,1,7.55,1.64l-.93,2.88a13.46,13.46,0,0,0-6.57-1.54C618.86,333.16,617.31,334.54,617.31,336.85Z"/><path class="cls-16" d="M637.55,355.86v-22l-2.77-.56v-2.57h6.58v25.17Zm-.36-35.08h4.17v4.11h-4.17Z"/><path class="cls-16" d="M656.66,356.37c-3.54,0-6.47-1.8-6.47-7.7V333.51h-3.8v-2.82h3.8v-4.57l3.9-1.23v5.8h7.35v2.82h-7.35v15.62c0,2.67,1,3.95,3.34,3.95a10.68,10.68,0,0,0,4-1.08l.77,2.88A12.26,12.26,0,0,1,656.66,356.37Z"/><path class="cls-16" d="M688,343.22c0,8.48-4.11,13.15-10.84,13.15s-10.74-4.57-10.74-13.15c0-7.39,3.5-13,10.74-13C684.14,330.18,688,335.72,688,343.22Zm-4,0c0-6.57-2.21-10.12-6.83-10.12s-6.78,3.7-6.78,10.12c0,6.17,1.8,10.22,6.78,10.22S684,350,684,343.22Z"/><path class="cls-16" d="M696.78,336.85c0,5.4,12.48,3.5,12.48,12,0,4.06-3.13,7.5-8.73,7.5a15.13,15.13,0,0,1-7.6-2.16l1.13-2.87a11.77,11.77,0,0,0,6.42,2.1c3.08,0,5-1.69,5-4.31,0-6.06-12.32-3.8-12.32-12.33,0-3.39,2.56-6.62,8.31-6.62a16.35,16.35,0,0,1,7.56,1.64l-.93,2.88a13.46,13.46,0,0,0-6.57-1.54C698.32,333.16,696.78,334.54,696.78,336.85Z"/><path class="cls-16" d="M735,355.7l-2.57.21-8.06-25.22h4.31s4.73,15.31,6.89,22.86c2.2-7.61,6.82-22.86,6.82-22.86h4l-8.06,24.91c-2.62,8-5.24,10.58-10.07,10.58a10.11,10.11,0,0,1-5.6-2l1.29-2.62h.31a7.31,7.31,0,0,0,4.21,1.59c2.93,0,4.62-1.75,6.21-6.52Z"/><path class="cls-16" d="M777.38,355.86l-.67-3.24a9.92,9.92,0,0,1-7.76,3.75c-5.13,0-8.11-3.44-8.11-7.7s3.18-7.19,8.89-7.19h6.52v-2c0-4.36-1.9-6.21-5.7-6.21a18.57,18.57,0,0,0-7.6,1.64l-1-2.82a22,22,0,0,1,9.14-1.9c6,0,9,3.08,9,9.09v16.59Zm-1.13-11.71h-5.91c-4.26,0-5.7,1.85-5.7,4.36,0,3,1.64,5,5.29,5a8.84,8.84,0,0,0,6.32-3.14Z"/><path class="cls-16" d="M790.68,357.55v8.07h-3.95V330.69h3l.62,3a10.11,10.11,0,0,1,7.34-3.49c6.42,0,9.6,4.57,9.6,13,0,8.89-4.41,13.15-10.42,13.15a8.88,8.88,0,0,1-6.78-2.87A23.5,23.5,0,0,1,790.68,357.55Zm0-6.83a8.45,8.45,0,0,0,6,2.72c4.57,0,6.73-3,6.73-10.22,0-6.62-1.9-10-6.47-10a9,9,0,0,0-6.22,2.93Z"/><path class="cls-16" d="M834,343.22c0,8.48-4.11,13.15-10.84,13.15s-10.73-4.57-10.73-13.15c0-7.39,3.49-13,10.73-13C830.13,330.18,834,335.72,834,343.22Zm-4,0c0-6.57-2.21-10.12-6.83-10.12s-6.78,3.7-6.78,10.12c0,6.17,1.8,10.22,6.78,10.22S830,350,830,343.22Z"/><path class="cls-16" d="M852.69,334.08a10,10,0,0,0-3.24-.46,8.08,8.08,0,0,0-5.65,2.72v19.52h-3.9V330.69h2.62l.72,3.19a8.32,8.32,0,0,1,6.52-3.55,11.3,11.3,0,0,1,3.18.41Z"/><path class="cls-16" d="M865.79,356.37c-3.55,0-6.48-1.8-6.48-7.7V333.51h-3.79v-2.82h3.79v-4.57l3.91-1.23v5.8h7.34v2.82h-7.34v15.62c0,2.67,1,3.95,3.34,3.95a10.68,10.68,0,0,0,4-1.08l.78,2.88A12.3,12.3,0,0,1,865.79,356.37Z"/><path class="cls-16" d="M879.5,344.4c0,6.22,3.19,8.94,8,8.94a15.52,15.52,0,0,0,7.8-2.52l1,2.78a18.12,18.12,0,0,1-9.2,2.77c-6.88,0-11.45-4.57-11.45-13.25,0-8,3.9-12.94,10.79-12.94,7.08,0,10.06,5.7,10.06,12v2.2Zm6.73-11.24c-4.78,0-6.73,4.21-6.73,8.52h13.15C892.65,337.32,891.16,333.16,886.23,333.16Z"/><path class="cls-16" d="M930,365.62v-9.81a21.55,21.55,0,0,1,.36-3,9.72,9.72,0,0,1-7.3,3.54c-5.85,0-10.12-4.47-10.12-13.15,0-7.65,3.81-13,10.53-13a12.58,12.58,0,0,1,7.25,2.36l.71-1.85h2.47v34.93Zm0-30.56a9.92,9.92,0,0,0-6.06-1.9c-4.73,0-7,3.69-7,10.06,0,6.22,2,10.22,6.73,10.22,2.26,0,4.31-1,6.37-3.18Z"/><path class="cls-16" d="M957.43,355.86l-.57-2.88a10.68,10.68,0,0,1-7.81,3.39c-5.59,0-8.67-3.34-8.67-10.22V330.69h3.9v15.2c0,5.19,1.64,7.35,5.7,7.35a9.9,9.9,0,0,0,6.21-2.47V330.69h4v25.17Z"/><path class="cls-16" d="M969.71,344.4c0,6.22,3.18,8.94,8,8.94a15.52,15.52,0,0,0,7.8-2.52l1,2.78a18.08,18.08,0,0,1-9.19,2.77c-6.89,0-11.46-4.57-11.46-13.25,0-8,3.91-12.94,10.79-12.94,7.09,0,10.06,5.7,10.06,12v2.2Zm6.73-11.24c-4.78,0-6.73,4.21-6.73,8.52h13.14C982.85,337.32,981.37,333.16,976.44,333.16Zm-5.66-6.37-.56-2.31,11.35-4.22.77,2.93Z"/><path class="cls-16" d="M507,409.65v-9.81a21.55,21.55,0,0,1,.36-3,9.72,9.72,0,0,1-7.3,3.54c-5.85,0-10.11-4.47-10.11-13.15,0-7.65,3.8-13,10.52-13a12.58,12.58,0,0,1,7.25,2.36l.72-1.85h2.46v34.93Zm0-30.56a9.92,9.92,0,0,0-6.06-1.9c-4.73,0-7,3.7-7,10.06s2,10.22,6.73,10.22c2.26,0,4.31-1,6.37-3.18Z"/><path class="cls-16" d="M534.4,399.89l-.57-2.88a10.67,10.67,0,0,1-7.8,3.39c-5.6,0-8.68-3.34-8.68-10.22V374.72h3.9v15.21c0,5.18,1.64,7.34,5.7,7.34a9.9,9.9,0,0,0,6.21-2.47V374.72h4v25.17Z"/><path class="cls-16" d="M546.68,388.43c0,6.22,3.18,8.94,8,8.94a15.62,15.62,0,0,0,7.8-2.51l1,2.77a18.06,18.06,0,0,1-9.2,2.77c-6.87,0-11.45-4.57-11.45-13.25,0-8,3.91-12.94,10.79-12.94,7.09,0,10.07,5.7,10.07,12v2.2Zm6.72-11.24c-4.77,0-6.72,4.21-6.72,8.52h13.14C559.82,381.35,558.33,377.19,553.4,377.19Z"/><path class="cls-16" d="M582.38,378.11a10,10,0,0,0-3.24-.46,8.06,8.06,0,0,0-5.65,2.72v19.52h-3.9V374.72h2.62l.71,3.19a8.34,8.34,0,0,1,6.53-3.55,11.3,11.3,0,0,1,3.18.41Z"/><path class="cls-16" d="M590.08,388.43c0,6.22,3.19,8.94,8,8.94a15.62,15.62,0,0,0,7.8-2.51l1,2.77a18.11,18.11,0,0,1-9.19,2.77c-6.89,0-11.46-4.57-11.46-13.25,0-8,3.9-12.94,10.79-12.94,7.08,0,10.06,5.7,10.06,12v2.2Zm6.73-11.24c-4.77,0-6.73,4.21-6.73,8.52h13.15C603.23,381.35,601.74,377.19,596.81,377.19Z"/><path class="cls-16" d="M632.56,384v15.87h-3.95v-15.2c0-4.78-1.39-7.4-5.65-7.4-2.67,0-4.52,1.49-6.06,2.88v19.72H613V374.72h2.56l.83,3a10.55,10.55,0,0,1,7.65-3.54c3.75,0,6.16,1.33,7.39,3.85a11,11,0,0,1,7.86-3.85c6.17,0,8.89,3.44,8.89,9.81v15.87h-4v-15.2c0-4.78-1.79-7.4-6.06-7.4a9,9,0,0,0-6,2.88A14.67,14.67,0,0,1,632.56,384Z"/><path class="cls-16" d="M675,387.25c0,8.48-4.11,13.15-10.84,13.15s-10.74-4.57-10.74-13.15c0-7.39,3.5-13,10.74-13C671.14,374.21,675,379.76,675,387.25Zm-4,0c0-6.57-2.21-10.11-6.83-10.11s-6.78,3.69-6.78,10.11c0,6.17,1.8,10.22,6.78,10.22S671,394,671,387.25Z"/><path class="cls-16" d="M683.78,380.89c0,5.39,12.48,3.49,12.48,12,0,4.06-3.13,7.5-8.73,7.5a15.23,15.23,0,0,1-7.6-2.15l1.13-2.88a11.77,11.77,0,0,0,6.42,2.1c3.08,0,5-1.69,5-4.31,0-6.06-12.32-3.8-12.32-12.33,0-3.39,2.56-6.62,8.31-6.62a16.35,16.35,0,0,1,7.56,1.64l-.93,2.88a13.46,13.46,0,0,0-6.57-1.54C685.32,377.19,683.78,378.57,683.78,380.89Z"/><path class="cls-16" d="M731.91,398.19a17.81,17.81,0,0,1-8.37,2.21c-6.37,0-11-3.75-11-13.1,0-8.52,4.67-13.09,11-13.09a16.31,16.31,0,0,1,8.22,2L730.63,379a13.66,13.66,0,0,0-6.88-1.64c-4.52,0-7.3,3.6-7.3,10,0,7.09,2.78,10.07,7.3,10.07a14.31,14.31,0,0,0,7.24-2.1Z"/><path class="cls-16" d="M757.75,387.25c0,8.48-4.11,13.15-10.84,13.15s-10.73-4.57-10.73-13.15c0-7.39,3.49-13,10.73-13C753.9,374.21,757.75,379.76,757.75,387.25Zm-4,0c0-6.57-2.21-10.11-6.84-10.11s-6.78,3.69-6.78,10.11c0,6.17,1.8,10.22,6.78,10.22S753.75,394,753.75,387.25Z"/><path class="cls-16" d="M779.48,399.89v-15.2c0-4.78-1.49-7.4-5.75-7.4-2.62,0-4.62,1.49-6.16,2.88v19.72h-3.91V374.72h2.62l.77,3a11,11,0,0,1,7.91-3.49c5.91,0,8.53,3.54,8.53,9.81v15.87Z"/><path class="cls-16" d="M792.63,380.89c0,5.39,12.49,3.49,12.49,12,0,4.06-3.14,7.5-8.74,7.5a15.23,15.23,0,0,1-7.6-2.15l1.13-2.88a11.83,11.83,0,0,0,6.42,2.1c3.08,0,5-1.69,5-4.31,0-6.06-12.32-3.8-12.32-12.33,0-3.39,2.57-6.62,8.32-6.62a16.34,16.34,0,0,1,7.55,1.64l-.93,2.88a13.46,13.46,0,0,0-6.57-1.54C794.18,377.19,792.63,378.57,792.63,380.89Z"/><path class="cls-16" d="M814,388.43c0,6.22,3.19,8.94,8,8.94a15.62,15.62,0,0,0,7.81-2.51l1,2.77a18.12,18.12,0,0,1-9.2,2.77c-6.88,0-11.45-4.57-11.45-13.25,0-8,3.9-12.94,10.79-12.94,7.08,0,10.06,5.7,10.06,12v2.2Zm6.73-11.24c-4.78,0-6.73,4.21-6.73,8.52H827.1C827.1,381.35,825.61,377.19,820.68,377.19Z"/><path class="cls-16" d="M858.49,374.72v2.72a26.94,26.94,0,0,1-6.11-.51,7.56,7.56,0,0,1,3.44,6c0,6-5.7,8.47-9.51,8.47a11.29,11.29,0,0,1-3.28-.56c-1.85.15-2.67.87-2.67,1.8,0,3.13,16.48,0,16.48,8.93,0,5.86-5.39,8.68-10.78,8.68-4.93,0-10-2.62-10-7.44,0-3.34,2.57-5.4,6.37-6-3.08-.31-5.65-1.39-5.65-3.8,0-1.75,1.18-3,3.8-3.34a7.45,7.45,0,0,1-3.85-6.78c0-6.57,5.91-8.73,9.55-8.73C848.32,374.21,852.43,374.57,858.49,374.72Zm-12.69,22.6c-3.8.1-6,2.06-6,5.08s3.13,5.14,6.37,5.14c3.85,0,6.78-1.75,6.78-5.75C852.94,399.22,850.83,397.83,845.8,397.32Zm6.37-14.43c0-4.68-3.44-5.81-5.91-5.81s-6,1.13-6,5.81c0,4.52,3.34,5.7,6,5.7S852.17,387.41,852.17,382.89Z"/><path class="cls-16" d="M880,399.89,879.4,397a10.72,10.72,0,0,1-7.81,3.39c-5.6,0-8.68-3.34-8.68-10.22V374.72h3.9v15.21c0,5.18,1.64,7.34,5.7,7.34a9.9,9.9,0,0,0,6.22-2.47V374.72h3.95v25.17Z"/><path class="cls-16" d="M891.16,399.89v-22l-2.77-.56v-2.57H895v25.17Zm-.36-35.08H895v4.11H890.8Z"/><path class="cls-16" d="M914.58,378.11a10,10,0,0,0-3.23-.46,8,8,0,0,0-5.65,2.72v19.52h-3.91V374.72h2.62l.72,3.19a8.34,8.34,0,0,1,6.52-3.55,11.49,11.49,0,0,1,3.19.41Z"/><path class="cls-16" d="M918.44,394.14h3.85v5.75h-3.85Z"/></svg>