<svg id="Capa_1" data-name="Capa 1" xmlns="http://www.w3.org/2000/svg" viewBox="0 0 512 512"><defs><style>.cls-1{fill:#222b54;}.cls-2{fill:#fcc77c;}.cls-3{fill:#7a7ba3;}.cls-13,.cls-4{fill:#e7334a;}.cls-5{fill:#f4d511;}.cls-6{fill:#fff;}.cls-7{fill:#f2979b;}.cls-8{fill:#f8b78e;}.cls-9{fill:#c1d44f;}.cls-10{fill:#fff5d9;}.cls-11{fill:#ca1335;}.cls-12{fill:#55b682;}.cls-12,.cls-13,.cls-14,.cls-15{stroke:#fff;stroke-miterlimit:10;}.cls-14,.cls-15{fill:#615185;}.cls-14{stroke-width:0.75px;}.cls-15{stroke-width:0.5px;}</style></defs><path class="cls-1" d="M387,232.23,361.55,14.88A16.85,16.85,0,0,0,342.87.12L14.88,38.5A16.82,16.82,0,0,0,.12,57.18L25.55,274.53A16.83,16.83,0,0,0,44.23,289.3l328-38.39A16.83,16.83,0,0,0,387,232.23Zm-24.25,10.69L51.62,279.33A16.35,16.35,0,0,1,33.48,265L10.16,65.69A16.34,16.34,0,0,1,24.49,47.55L335.61,11.14a16.33,16.33,0,0,1,18.13,14.34l23.33,199.31A16.35,16.35,0,0,1,362.73,242.92Z"/><path class="cls-2" d="M353.74,25.48a16.33,16.33,0,0,0-18.13-14.34L24.49,47.55A16.34,16.34,0,0,0,10.16,65.69L33.48,265a16.35,16.35,0,0,0,18.14,14.33l311.11-36.41a16.35,16.35,0,0,0,14.34-18.13Zm-311,96.15a1.61,1.61,0,0,1,1.42-1.8l144.53-16.91a1.61,1.61,0,0,1,1.8,1.42,1.64,1.64,0,0,1-1.43,1.81L44.58,123.06A1.62,1.62,0,0,1,42.78,121.63Zm1.32,11.29a1.61,1.61,0,0,1,1.42-1.8l144.53-16.91a1.62,1.62,0,0,1,.38,3.22L45.9,134.35A1.63,1.63,0,0,1,44.1,132.92Zm1.32,11.28a1.63,1.63,0,0,1,1.42-1.81l144.53-16.91a1.63,1.63,0,0,1,.37,3.23L47.22,145.62A1.61,1.61,0,0,1,45.42,144.2Zm1.32,11.3a1.63,1.63,0,0,1,1.42-1.81l144.53-16.91a1.63,1.63,0,0,1,.38,3.23L48.54,156.92A1.61,1.61,0,0,1,46.74,155.5Zm1.32,11.31a1.63,1.63,0,0,1,1.43-1.8L194,148.09a1.63,1.63,0,1,1,.38,3.23L49.86,168.24A1.63,1.63,0,0,1,48.06,166.81Zm1.32,11.28a1.64,1.64,0,0,1,1.43-1.81l144.52-16.91a1.63,1.63,0,1,1,.38,3.23L51.18,179.51A1.62,1.62,0,0,1,49.38,178.09ZM197,173.87,52.5,190.79a1.63,1.63,0,1,1-.37-3.23l144.52-16.92a1.63,1.63,0,1,1,.38,3.23Z"/><path class="cls-1" d="M44.58,123.06,189.1,106.15a1.64,1.64,0,0,0,1.43-1.81,1.61,1.61,0,0,0-1.8-1.42L44.2,119.83a1.63,1.63,0,0,0,.38,3.23Z"/><path class="cls-1" d="M45.9,134.35l144.53-16.92a1.62,1.62,0,0,0-.38-3.22L45.52,131.12a1.63,1.63,0,0,0,.38,3.23Z"/><path class="cls-1" d="M47.22,145.62l144.52-16.91a1.63,1.63,0,0,0-.37-3.23L46.84,142.39a1.63,1.63,0,0,0,.38,3.23Z"/><path class="cls-1" d="M48.54,156.92,193.07,140a1.63,1.63,0,0,0-.38-3.23L48.16,153.69a1.63,1.63,0,0,0,.38,3.23Z"/><path class="cls-1" d="M49.86,168.24l144.53-16.92a1.63,1.63,0,1,0-.38-3.23L49.49,165a1.63,1.63,0,0,0,.37,3.23Z"/><path class="cls-1" d="M51.18,179.51,195.71,162.6a1.63,1.63,0,1,0-.38-3.23L50.81,176.28a1.64,1.64,0,0,0-1.43,1.81A1.62,1.62,0,0,0,51.18,179.51Z"/><path class="cls-1" d="M196.65,170.64,52.13,187.56a1.63,1.63,0,1,0,.37,3.23L197,173.87a1.63,1.63,0,1,0-.38-3.23Z"/><path class="cls-3" d="M306.31,44.55l5.14.4.4-5.27-5.16-.4a22.43,22.43,0,0,0-1.17-6.23l4.67-2.24L307.91,26l-4.65,2.23a22.13,22.13,0,0,0-4.14-4.8l2.93-4.28-4.37-3-2.92,4.28a22.17,22.17,0,0,0-6-2.13l.4-5.15-5.27-.4-.4,5.17a22.07,22.07,0,0,0-6.23,1.17L275,14.46l-4.77,2.28,2.23,4.66a22.13,22.13,0,0,0-4.81,4.13l-4.26-2.92-3,4.37,4.27,2.92a22.49,22.49,0,0,0-2.12,6l-5.14-.4L257,40.75l5.17.4a22.43,22.43,0,0,0,1.17,6.23l-4.69,2.24L261,54.39l4.65-2.23a22.41,22.41,0,0,0,4.14,4.8l-2.92,4.27,4.36,3L274.13,60a22.11,22.11,0,0,0,6,2.13l-.39,5.14,5.27.41.4-5.17a22.43,22.43,0,0,0,6.23-1.17L293.85,66l4.77-2.28L296.39,59a21.86,21.86,0,0,0,4.8-4.14l4.27,2.93,3-4.37-4.28-2.93A21.66,21.66,0,0,0,306.31,44.55Zm-26.91,3a8.92,8.92,0,1,1,12.41-2.32A8.92,8.92,0,0,1,279.4,47.57Z"/><path class="cls-3" d="M350.23,54.5l1.82-2.66-2.6-1.78a13.68,13.68,0,0,0,1.3-3.64l3.13.24.24-3.22L351,43.21a14,14,0,0,0-.71-3.8L353.11,38l-1.39-2.9-2.83,1.35a13.19,13.19,0,0,0-2.53-2.92l1.79-2.6-2.66-1.82-1.78,2.6a13.46,13.46,0,0,0-3.64-1.3l.24-3.13-3.22-.25-.24,3.15a13.58,13.58,0,0,0-3.79.71l-1.37-2.85-2.9,1.39,1.35,2.84a13.69,13.69,0,0,0-2.93,2.52l-2.6-1.78-1.82,2.66,2.6,1.78a13.65,13.65,0,0,0-1.29,3.64L321,40.89l-.25,3.21,3.15.25a13.65,13.65,0,0,0,.71,3.79l-2.86,1.37,1.4,2.9L326,51.06A13.45,13.45,0,0,0,328.48,54l-1.78,2.6,2.65,1.82,1.79-2.6a13.27,13.27,0,0,0,3.63,1.3l-.23,3.13,3.21.25.24-3.15a14,14,0,0,0,3.8-.71l1.36,2.84,2.9-1.38-1.35-2.84a13.69,13.69,0,0,0,2.93-2.52Zm-15.88-6.24a5.44,5.44,0,1,1,7.56-1.42A5.43,5.43,0,0,1,334.35,48.26Z"/><path class="cls-4" d="M95.6,102.2a36.5,36.5,0,0,1-3.86-30.53C94,65,98.19,58.94,102.44,53.37c3.62-4.75,8-9.93,13.59-12.19a35.69,35.69,0,0,0-.6,22.22,2.57,2.57,0,0,0,1,1.35,2.62,2.62,0,0,0,4-2.87,30.42,30.42,0,0,1,3.7-25.41,2.58,2.58,0,0,0,.19-2.55,2.61,2.61,0,0,0-2.08-1.5L91.45,29a2.62,2.62,0,0,0-.59,5.21l22.39,2.52c-6.43,2.87-11.09,8.42-15,13.51-4.52,5.93-9,12.44-11.5,19.83a41.24,41.24,0,0,0,4.43,35,2.46,2.46,0,0,0,.66.7,2.61,2.61,0,0,0,3.74-3.53Z"/><path class="cls-4" d="M101.6,196.22a1.8,1.8,0,0,0-.54,2.49c6,9.36,11.28,19.42,9.33,29.53a31.73,31.73,0,0,1-4.75,11C95.89,254.51,78.88,264,62.55,263.48l.82-.81c1.13-1.11,2.27-2.22,3.35-3.39,3.75-4,5.84-7.65,6.58-11.46a1.81,1.81,0,0,0-3.55-.69c-.6,3.12-2.4,6.2-5.66,9.69C63,258,61.94,259,60.84,260.09a64.84,64.84,0,0,0-5.42,5.77,1.8,1.8,0,0,0,.46,2.66l14.31,8.81a1.8,1.8,0,0,0,2.48-.6h0a1.8,1.8,0,0,0-.59-2.48l-11.89-7.32c18.25,1.51,37.62-8.73,48.49-25.79.19-.29.37-.58.55-.87a33.87,33.87,0,0,0,4.7-11.35c2.2-11.35-3.43-22.16-9.84-32.15A1.8,1.8,0,0,0,101.6,196.22Z"/><path class="cls-4" d="M323.78,100.12c-4.42-7.64-8.54-15.44-12.24-23.17-.05-.09-.08-.18-.12-.26a2.43,2.43,0,0,0,.07-2.63,2.47,2.47,0,0,0-2.66-1.15,3.16,3.16,0,0,0-2.16,1.7.93.93,0,0,0-.05.1l-14,16a2.47,2.47,0,0,0,3.72,3.25l8.57-9.77c-5.13,18.54-18,35.78-34.37,45.7-17.93,10.88-39.64,13-56.65,5.44a2.47,2.47,0,0,0-2.62,4.12,2.64,2.64,0,0,0,.62.4c18.47,8.16,41.92,6,61.21-5.74,17.64-10.7,31.48-29.4,36.79-49.43,3,6,6.2,12,9.62,17.93a2.47,2.47,0,1,0,4.28-2.47Z"/><path class="cls-5" d="M29.55,255A24.43,24.43,0,1,0,54,279.45,24.42,24.42,0,0,0,29.55,255Zm.29,40.35L18,285.24l4.9-5.74L28.1,284l11.66-18.53,6.39,4Z"/><polygon class="cls-6" points="28.1 283.96 22.88 279.5 17.98 285.24 29.84 295.37 46.15 269.45 39.76 265.43 28.1 283.96"/><path class="cls-7" d="M179.79,25a25,25,0,1,1-25-25,25,25,0,0,1,25,25"/><path class="cls-6" d="M151.4,33.41h7.09v6.8H151.4Zm10.68-9.24-2.92,3.67a3.52,3.52,0,0,0-.75,2v.39h-6.93v-1a6.47,6.47,0,0,1,1.73-4.69l3-3.46a4.26,4.26,0,0,0,1.14-2.37,2.54,2.54,0,1,0-5.07.08h-6.92c0-5.74,4.35-8.9,9.45-8.9s9.46,3,9.46,8.86a8.63,8.63,0,0,1-2.15,5.41"/><path class="cls-1" d="M355.21,289.7a14.41,14.41,0,0,1-17.57-1.4,16.54,16.54,0,0,1-29.36-10.21c-.06-4.16,1.45-8.22,1.47-12.38.05-10.86-8.5-16.17-14.76-23.51a102.71,102.71,0,0,1-15.8-25.36c-4.11-9.68-5.81-20.67-3-30.8s10.57-19.17,20.73-21.85a7.72,7.72,0,0,0,3.52-1.49,6.94,6.94,0,0,0,1.57-3.39c3.21-12.11,9.08-23.82,18.48-32.11,7.06-6.23,15.81-10.28,24.77-13.19A117.21,117.21,0,0,1,394.52,109c8.26.94,16.56,2.84,23.72,7.07a40.06,40.06,0,0,1,11,59.38,31.38,31.38,0,0,1,7.74,46.7c-2.29,2.78-5.28,5.83-4.54,9.36a11.65,11.65,0,0,0,2.37,4.22,39.6,39.6,0,0,1,7.32,19.11c.43,4.17.14,8.56-1.89,12.23-4.68,8.46-16.08,9.77-25.75,10.08l-21.42.67"/><path class="cls-8" d="M498.11,299.33s-34.06,61.93-37.92,73.4c-2.34,6.95-9.65.67-15-5.36-6-17.53-17.55-33.29-34.15-41.11-10.86-5.13-24.52-7.62-30.2-18.2a21.78,21.78,0,0,1-1.95-5.28h0V290.64c1-.19,2-.37,3-.59,10.93-2.49,19.66-8.72,26.76-17.4,5.2-6.37,6.95-15.13,7.63-23.11,1.33-15.77-1.92-31.66-6.44-46.68-1.33-4.42-2.79-8.78-4.34-13.12-4.47-12.53-10.13-25.2-19-35.2-8.52-9.58-25.07-8.74-36.36-6.49-10,2-19.92,5.39-27.91,11.71-11.61,9.16-18,23.79-19.54,38.5s1.53,29.55,6.13,43.6l1.15,1.09c-4.5-4.41-12.76-3.27-16.68,1.66s-3.65,12.4-.23,17.7,9.42,8.54,15.61,9.69a41.11,41.11,0,0,0,12.38.22c2.72-.33,7.29-2.68,9.59-.54a12.26,12.26,0,0,1,2.3,3.7c4.21,8.55,12.5,13.2,21.43,15.24v14.44h0c-4.94,16.4-17.76,29.66-24.66,45.52-5.56,12.77-7.15,27-6.56,40.89s3.27,27.64,5.94,41.31c23.27,2.13,46.75-.22,69.79-4.16,18-3.08,36.73-7.52,50.6-19.46a7.16,7.16,0,0,0,1.21-1.31c6.16,3.64,12.48,6.69,17,7.17,12,1.29,33.73-78.32,42.33-101.43S498.11,299.33,498.11,299.33ZM391.75,204c7.19-2.72,13.62,9,15.26,14.28.62,2-2.49,2.83-3.11.86-1.2-3.86-7.35-15.71-12.57-10.75-4.12,3.93-2.78,12.45-.87,17,.8,1.91-2.32,2.73-3.11.85C384.82,220.16,383.91,206.92,391.75,204ZM363,232.86c-1.11-5.65-5.34-20.33-13.35-18.09-3.66,1-4.32,9.49-4.46,12.33a26.5,26.5,0,0,0,1.61,10.59c.71,2-2.4,2.79-3.1.86-2.64-7.23-3.8-24.21,5.91-27.24s15.21,14.11,16.5,20.69C366.51,234,363.41,234.89,363,232.86Zm8.37-37.75a88.17,88.17,0,0,0,11.18,39.37c1,1.81-1.78,3.43-2.78,1.62a92.05,92.05,0,0,1-11.62-41C368.06,193,371.28,193,371.38,195.11Zm-1.94,40a1.61,1.61,0,0,1,3.11-.86,12.59,12.59,0,0,0,7.81,8.78c6.63,2.21,8.26-4.17,7.52-9.38-.29-2,2.81-2.9,3.1-.86.82,5.74-.31,13.86-7.77,14C376.55,246.93,371.11,241.18,369.44,235.16Z"/><path class="cls-1" d="M307,238.12c1,2.77,2,5.65,4.21,7.63s5.82,2.67,8,.7c1.74-1.56,2-4.18,2-6.53a66.44,66.44,0,0,0-4.71-24.52c12-.6,22.92-8,30-17.63s10.67-21.5,12.7-33.32a25.79,25.79,0,0,0,41.67-26.91c-.83-2.72-2.2-5.42-4.55-7s-5-1.91-7.71-2.11c-14.92-1.11-30,2-43.69,8.07a81.61,81.61,0,0,0-15.6,8.91c-8.16,6-14.84,13.84-21.43,21.56-4.59,5.38-9.28,10.94-11.5,17.65-5.09,15.42,4.11,32,2.95,48.19"/><path class="cls-9" d="M448.57,380.3c-4.2-22.39-17-44.33-37.57-54-7.68-3.63-16.76-5.95-23.42-10.73a23.81,23.81,0,0,1-37.18-.8c-6,12.23-15.29,23.22-20.8,35.86s-7.14,27-6.55,40.89,3.26,27.64,5.94,41.31c23.27,2.13,46.75-.22,69.78-4.16,18.05-3.08,36.74-7.52,50.61-19.47a5.66,5.66,0,0,0,1.5-1.7,6.13,6.13,0,0,0,.33-3.13,210.43,210.43,0,0,0-2.64-24"/><path class="cls-10" d="M387.58,315.53a23.8,23.8,0,0,1-37.18-.81,166.43,166.43,0,0,1-9.47,16c8.4,4.1,18,5.12,27.33,5.12,6.52,0,13.16-.5,19.2-2.93,5.34-2.15,10.18-6,12.67-11.14a57.75,57.75,0,0,1-12.55-6.28"/><path class="cls-11" d="M344.88,327.87l.74-.38A1.09,1.09,0,0,0,344.88,327.87Z"/><path class="cls-11" d="M392.37,417.29c50.32-79.17,17.06-96.73,17.06-96.73L395,318c.24.23,23.84,24.13-16.43,88.42-39.57-46.61-37.11-75.09-33.64-78.59l-9.64,4.86c-.81,1.54-20.59,25.2,29.51,84.5C354.35,428.61,344,451.35,353.56,496l13,12.22c-8.62-40.42,2.56-64.38,12-76.61,6.83,10.69,16.88,33.67,22.2,80.4l13-16c-5.44-47.79-14.65-69.25-22.17-79.15Z"/><path class="cls-12" d="M13.17,367.63v-.95h9.74v1.5c0,10.49-8.72,10.7-8.72,17.51,0,2.52,1.77,4.5,5.18,4.5a23.17,23.17,0,0,0,8.11-1.71l2.65,8.38a30.73,30.73,0,0,1-12.81,2.59c-8.45,0-14.58-4.56-14.58-12.19C2.74,376.83,13.17,374.24,13.17,367.63Zm10.15-4.77H12.76V352.44H23.32Z"/><path class="cls-12" d="M46.35,370.63v15.2H35.58v-46H50.43c9.68,0,18.06,4.7,18.06,14.79,0,8.58-6.54,16-18.06,16Zm3.95-21.74H46.35v13.43H50.3c4.36,0,6.74-3.27,6.74-7.22C57,351.42,54.66,348.89,50.3,348.89Z"/><path class="cls-12" d="M97.17,376.15H82.8l-2,9.68H70l12.6-46H99.35l12.61,46H99.35ZM84.7,367.56H95.27L91.38,349.3H89Z"/><path class="cls-12" d="M131,369.06h-3.55v16.77h-10.7v-46h16c9.2,0,16.49,4.29,16.49,14a14.61,14.61,0,0,1-8.39,13.35l9.41,18.61H137.71Zm0-20.91h-3.55v12.6H131c5.17,0,6.81-2.45,6.81-6.88C137.78,349.78,135.6,348.15,131,348.15Z"/><path class="cls-12" d="M179.54,376.15H165.17l-2,9.68H152.36l12.6-46h16.76l12.61,46H181.72Zm-12.47-8.59h10.57l-3.89-18.26h-2.38Z"/><path class="cls-12" d="M240,384.8a128.19,128.19,0,0,0,14.18.48v10.43a30.21,30.21,0,0,1-21.6-9.2c-16.15,0-20.24-11.72-20.24-24.06,0-12,4-23.3,20.24-23.3,16.55,0,20.44,11.18,20.44,23.3C253.06,370.84,248.22,380.85,240,384.8Zm-7.42-36.38c-7.16,0-8.86,6.13-8.86,14,0,8.72,1.84,15.05,8.86,15.05s9-6.26,9-15.05C241.61,354.41,239.77,348.42,232.62,348.42Z"/><path class="cls-12" d="M296.59,368.25c0,9.6-5.45,18.26-18.19,18.26s-18.19-8.32-18.19-18.26V339.83H271V367.7c0,5.79,2.66,9.68,7.43,9.68s7.29-4,7.29-9.68V339.83h10.9Z"/><path class="cls-12" d="M305.45,385.83v-46h29.71v9.06h-19V358h14.18l-.69,9.47H316.21v9.4h19v9Zm5.31-48.52-.88-6.13,20-2.73-.14,7.91Z"/><path class="cls-12" d="M356.21,370.63v.95h-9.75v-1.49c0-10.5,8.72-10.7,8.72-17.52,0-2.52-1.77-4.49-5.17-4.49a23.06,23.06,0,0,0-8.11,1.7l-2.66-8.38a30.73,30.73,0,0,1,12.81-2.59c8.45,0,14.58,4.57,14.58,12.2C366.63,361.43,356.21,364,356.21,370.63Zm-10.16,4.77h10.56v10.43H346.05Z"/><path class="cls-13" d="M252.14,270c-4.34,0-11.09,1.37-15,3.43l-5-13.26a57.77,57.77,0,0,1,23.77-4.8c16.11,0,26.51,8.34,26.51,19.09,0,11.2-7.54,17.48-14.74,19.2v.57c9.49,1,17,6.51,17,17.71,0,14.52-14.4,23.43-28.91,23.43a53.25,53.25,0,0,1-23.78-5.6l4.12-14c3.43,1.94,11.43,4.68,17.26,4.68,7,0,12.8-2.86,12.8-10.06,0-5.83-4.57-8.45-12.69-8.45h-5.26V288.06h3.66c8.11,0,11.66-4.23,11.66-9.83C263.57,272.86,259.34,270,252.14,270Z"/><path class="cls-14" d="M43.37,409.82c-6.4,0-8-4.64-8-9.53s1.6-9.23,8-9.23,8.1,4.43,8.1,9.23S49.77,409.82,43.37,409.82Zm0-15.09c-2.84,0-3.51,2.43-3.51,5.53,0,3.46.73,6,3.51,6s3.56-2.48,3.56-6C46.93,397.11,46.2,394.73,43.37,394.73Z"/><path class="cls-14" d="M56.65,409.55H54.41V390.92h4.27v4.35l-.25,2.32a4.14,4.14,0,0,1,3.3-1.54c2.94,0,5.42,2.11,5.42,6.83,0,4.54-2.89,6.94-5.91,6.94a3.92,3.92,0,0,1-3.81-1.94Zm2-4.13a2.48,2.48,0,0,0,2,1.27c1.16,0,2.22-.92,2.22-3.78s-1-3.78-2.19-3.78a3.16,3.16,0,0,0-2,.84Z"/><path class="cls-14" d="M75.36,409.71c0,4-1.84,5.1-4.43,5.1a8.75,8.75,0,0,1-2.59-.4l.49-3.4a3.49,3.49,0,0,0,1.16.21c.75,0,1.13-.48,1.13-1.24V399.26l-1.56-.37v-2.57h5.8Zm-4.27-18.89h4.27v3.72H71.09Z"/><path class="cls-14" d="M82.89,404.07c0,1.51,1,2.51,3,2.51a9.84,9.84,0,0,0,3.73-1l.75,3a11.62,11.62,0,0,1-5.12,1.24c-4.24,0-6.7-2.62-6.7-6.91,0-4,1.92-6.86,6.4-6.86,4.13,0,5.78,2.95,5.78,6.27v1.75Zm2-4.91c-1.41,0-2,1.27-2,2.48H86.7C86.7,400.24,86.29,399.16,84.84,399.16Z"/><path class="cls-14" d="M102.7,408.87a8.07,8.07,0,0,1-3.75.95c-2.48,0-4.32-1.59-4.32-4.75v-5.72H92.74v-3h2v-2.26l4.15-1.35v3.61h3.38v3H98.87v5.58a1.09,1.09,0,0,0,1.22,1.24,4.78,4.78,0,0,0,2-.45Z"/><path class="cls-14" d="M106.4,409.55v-10.2l-1.56-.35v-2.68h5.8v13.23Zm-.08-18.73h4.27v3.72h-4.27Z"/><path class="cls-14" d="M122.82,409.55h-6.21l-3.83-13.23h4.8L120,407h.11l2.37-10.64h4.27Z"/><path class="cls-14" d="M141.28,402.91c0,4.53-2.32,6.91-6.48,6.91s-6.47-2.38-6.47-6.91c0-3.89,2.32-6.86,6.47-6.86S141.28,399,141.28,402.91Zm-4.4,0c0-3.08-.84-3.78-2.08-3.78s-2.08.7-2.08,3.78.79,3.78,2.08,3.78S136.88,405.88,136.88,402.91Z"/><path class="cls-14" d="M152.57,399.67a8.49,8.49,0,0,0-3.08-.59c-1,0-1.46.29-1.46.83,0,1.68,5.32,1.25,5.32,5.46,0,2.56-1.86,4.45-5.53,4.45a9,9,0,0,1-3.95-.89l.79-2.94a6.57,6.57,0,0,0,3,.83c1,0,1.59-.4,1.59-1.08,0-1.94-5.23-1.37-5.23-5.88,0-2.08,1.53-3.81,5.39-3.81a12.83,12.83,0,0,1,3.62.52Z"/><path class="cls-14" d="M175.24,396.32l-.05,3.3a7.79,7.79,0,0,1-2.19-.68,4.61,4.61,0,0,1,1.08,1.65c0,3.26-3.29,4.61-5.67,4.61a7.79,7.79,0,0,1-1.67-.21.52.52,0,0,0-.38.51c0,1.4,8.37-.35,8.37,4.75,0,3.11-3,4.86-6.61,4.86-2.87,0-5.73-1.08-5.73-3.46,0-1.7,1.41-2.48,3.59-2.8-1.67-.19-3.51-.68-3.51-2.35,0-1.16,1.11-2,2.7-2.11a4.17,4.17,0,0,1-2.43-3.8c0-3.54,3.43-4.54,5.67-4.54C170.68,396.22,173.41,396.32,175.24,396.32Zm-7.5,12.74a1.55,1.55,0,0,0-1.43,1.6c0,.91.75,1.64,2.05,1.64s2.16-.73,2.16-1.75S169.52,409.2,167.74,409.06Zm2.62-8.5c0-1.13-1.08-1.51-2-1.51s-2,.38-2,1.51c0,1.3,1,1.67,2,1.67S170.36,401.86,170.36,400.56Z"/><path class="cls-14" d="M181.56,404.07c0,1.51,1,2.51,3,2.51a9.84,9.84,0,0,0,3.73-1l.75,3a11.67,11.67,0,0,1-5.13,1.24c-4.23,0-6.69-2.62-6.69-6.91,0-4,1.92-6.86,6.4-6.86,4.13,0,5.77,2.95,5.77,6.27v1.75Zm1.94-4.91c-1.4,0-1.94,1.27-1.94,2.48h3.8C185.36,400.24,185,399.16,183.5,399.16Z"/><path class="cls-14" d="M200.54,409.55v-7.8c0-1.73-.73-2.46-2.06-2.46a4.47,4.47,0,0,0-1.86.46v9.8h-4.26V396.32h2.94l.59,1.49a5.33,5.33,0,0,1,4.21-1.76c3.46,0,4.75,2,4.75,5.4v8.1Z"/><path class="cls-14" d="M211.85,404.07c0,1.51,1,2.51,3,2.51a9.75,9.75,0,0,0,3.72-1l.76,3a11.7,11.7,0,0,1-5.13,1.24c-4.24,0-6.69-2.62-6.69-6.91,0-4,1.91-6.86,6.4-6.86,4.12,0,5.77,2.95,5.77,6.27v1.75Zm1.94-4.91c-1.4,0-1.94,1.27-1.94,2.48h3.8C215.65,400.24,215.25,399.16,213.79,399.16Z"/><path class="cls-14" d="M226.86,409.55h-4.21V396.32h3l.4,1.84h.14a3.21,3.21,0,0,1,3-2.11,5.52,5.52,0,0,1,1.46.17l-.06,3.61a6.57,6.57,0,0,0-1.64-.21,3.68,3.68,0,0,0-2.08.62Z"/><path class="cls-14" d="M241.33,409.55l-.54-1.51a4.53,4.53,0,0,1-3.75,1.78,4.22,4.22,0,0,1-4.54-4.35c0-2.53,1.89-4,5.16-4h2.45V401c0-1.4-.94-1.73-2-1.73a9.34,9.34,0,0,0-4,.87l-1-3a14.17,14.17,0,0,1,5.4-1.08c4.07,0,5.72,1.78,5.72,5.27v8.23ZM240.11,404h-1.7c-1.13,0-1.73.54-1.73,1.41a1.44,1.44,0,0,0,1.6,1.59,3.9,3.9,0,0,0,1.83-.54Z"/><path class="cls-14" d="M251.69,390.92v14.53a.89.89,0,0,0,.9,1l1.08.08v3a13.35,13.35,0,0,1-2.25.24c-2.69,0-4-1.43-4-3.7v-15.2Z"/><path class="cls-14" d="M260.12,404.07c0,1.51,1,2.51,3,2.51a9.75,9.75,0,0,0,3.72-1l.76,3a11.7,11.7,0,0,1-5.13,1.24c-4.24,0-6.69-2.62-6.69-6.91,0-4,1.92-6.86,6.4-6.86,4.12,0,5.77,2.95,5.77,6.27v1.75Zm1.94-4.91c-1.4,0-1.94,1.27-1.94,2.48h3.8C263.92,400.24,263.52,399.16,262.06,399.16Z"/><path class="cls-14" d="M279.26,399.67a8.49,8.49,0,0,0-3.08-.59c-1,0-1.46.29-1.46.83,0,1.68,5.32,1.25,5.32,5.46,0,2.56-1.86,4.45-5.54,4.45a9,9,0,0,1-3.94-.89l.79-2.94a6.57,6.57,0,0,0,3,.83c1,0,1.59-.4,1.59-1.08,0-1.94-5.23-1.37-5.23-5.88,0-2.08,1.54-3.81,5.39-3.81a12.89,12.89,0,0,1,3.62.52Z"/><path class="cls-14" d="M295.37,409.14l-2.8.57-4-13.39h4.8l2.41,10.61h.08l2.45-10.61h4.21l-4.05,13.77c-1.13,3.62-3.21,5-6,5a7.47,7.47,0,0,1-4.07-1.43l1.32-2.92h.41a4.49,4.49,0,0,0,2.53,1,2.79,2.79,0,0,0,2.65-2.32Z"/><path class="cls-14" d="M39.67,427.21c0,1.51,1,2.51,3,2.51a9.84,9.84,0,0,0,3.73-1l.76,3A11.7,11.7,0,0,1,42.05,433c-4.24,0-6.7-2.62-6.7-6.91,0-4,1.92-6.86,6.4-6.86,4.13,0,5.78,2.95,5.78,6.26v1.76Zm1.94-4.91c-1.4,0-1.94,1.27-1.94,2.48h3.81C43.48,423.38,43.07,422.3,41.61,422.3Z"/><path class="cls-14" d="M58.81,422.81a8.49,8.49,0,0,0-3.08-.59c-1,0-1.45.29-1.45.83,0,1.68,5.31,1.24,5.31,5.46,0,2.56-1.86,4.45-5.53,4.45a8.92,8.92,0,0,1-3.94-.89l.78-2.94a6.61,6.61,0,0,0,3,.83c1,0,1.59-.4,1.59-1.08,0-1.94-5.24-1.37-5.24-5.88,0-2.08,1.54-3.81,5.4-3.81a12.89,12.89,0,0,1,3.62.52Z"/><path class="cls-14" d="M67.05,434.12v3.7H62.73V419.46h3.75l.27,1.35A4.16,4.16,0,0,1,70,419.19c2.94,0,5.43,2.11,5.43,6.83,0,4.54-2.89,6.94-5.91,6.94a3.24,3.24,0,0,1-3-1.57A9.21,9.21,0,0,1,67.05,434.12Zm0-5.53A2.35,2.35,0,0,0,69,429.83c1.16,0,2.21-.92,2.21-3.78s-1-3.78-2.18-3.78a3,3,0,0,0-2,.84Z"/><path class="cls-14" d="M82.19,427.21c0,1.51,1,2.51,3,2.51a9.84,9.84,0,0,0,3.73-1l.75,3A11.62,11.62,0,0,1,84.57,433c-4.24,0-6.7-2.62-6.7-6.91,0-4,1.92-6.86,6.4-6.86,4.13,0,5.78,2.95,5.78,6.26v1.76Zm1.94-4.91c-1.4,0-1.94,1.27-1.94,2.48H86C86,423.38,85.59,422.3,84.13,422.3Z"/><path class="cls-14" d="M102.84,423.13a6.78,6.78,0,0,0-3.16-.75c-1.56,0-2.59.92-2.59,3.67s.89,3.67,2.62,3.67a7.81,7.81,0,0,0,3.45-1l.76,3A10.55,10.55,0,0,1,99.3,433c-4.21,0-6.58-2.38-6.58-6.91,0-4.24,2.35-6.86,6.56-6.86a9.21,9.21,0,0,1,4.64,1.08Z"/><path class="cls-14" d="M107.76,432.69v-10.2l-1.57-.35v-2.68H112v13.23ZM107,417.41l-.38-2.43,7.27-1.78.48,3.13Z"/><path class="cls-14" d="M123.92,417.2a5.33,5.33,0,0,0-1.64-.22,1.48,1.48,0,0,0-1.62,1.59v.89h2.86v3h-2.86v10.2h-4.27v-10.2h-1.86v-3h1.86v-1.08c0-3.13,1.89-4.77,5.59-4.77a11,11,0,0,1,2.24.24Z"/><path class="cls-14" d="M126.84,432.69v-10.2l-1.57-.35v-2.68h5.81v13.23ZM126.76,414H131v3.72h-4.26Z"/><path class="cls-14" d="M144.41,423.13a6.71,6.71,0,0,0-3.15-.75c-1.57,0-2.6.92-2.6,3.67s.89,3.67,2.62,3.67a7.89,7.89,0,0,0,3.46-1l.75,3a10.54,10.54,0,0,1-4.61,1.16c-4.21,0-6.59-2.38-6.59-6.91,0-4.24,2.35-6.86,6.56-6.86a9.21,9.21,0,0,1,4.64,1.08Z"/><path class="cls-14" d="M160.58,426.05c0,4.53-2.32,6.91-6.48,6.91s-6.47-2.38-6.47-6.91c0-3.89,2.32-6.86,6.47-6.86S160.58,422.16,160.58,426.05Zm-4.4,0c0-3.08-.83-3.78-2.08-3.78s-2.07.7-2.07,3.78.78,3.78,2.07,3.78S156.18,429,156.18,426.05Z"/><path class="cls-14" d="M171.87,422.81a8.49,8.49,0,0,0-3.08-.59c-1,0-1.46.29-1.46.83,0,1.68,5.32,1.24,5.32,5.46,0,2.56-1.86,4.45-5.53,4.45a8.92,8.92,0,0,1-3.94-.89l.78-2.94a6.57,6.57,0,0,0,3,.83c1,0,1.59-.4,1.59-1.08,0-1.94-5.23-1.37-5.23-5.88,0-2.08,1.54-3.81,5.4-3.81a12.81,12.81,0,0,1,3.61.52Z"/><path class="cls-14" d="M175.51,419.46h4.32v4.21h-4.32Zm0,9h4.32v4.21h-4.32Z"/><path class="cls-15" d="M10.53,464.7v5.49H7.84V446.4H9.9l.42,2a6.9,6.9,0,0,1,5-2.38c4.37,0,6.55,3.12,6.55,8.89,0,6.05-3,8.95-7.11,8.95a6,6,0,0,1-4.61-2A16.15,16.15,0,0,1,10.53,464.7Zm0-4.66a5.71,5.71,0,0,0,4.06,1.86c3.11,0,4.58-2,4.58-7,0-4.52-1.29-6.82-4.41-6.82a6.14,6.14,0,0,0-4.23,2Z"/><path class="cls-15" d="M34.64,448.71a7,7,0,0,0-2.21-.31,5.49,5.49,0,0,0-3.85,1.85v13.29H25.93V446.4h1.78l.49,2.17a5.66,5.66,0,0,1,4.44-2.41,7.51,7.51,0,0,1,2.17.28Z"/><path class="cls-15" d="M51.88,454.94c0,5.77-2.8,8.95-7.38,8.95s-7.31-3.11-7.31-8.95c0-5,2.38-8.89,7.31-8.89C49.26,446.05,51.88,449.83,51.88,454.94Zm-2.72,0c0-4.48-1.51-6.89-4.66-6.89s-4.61,2.51-4.61,6.89c0,4.2,1.22,7,4.61,7S49.16,459.52,49.16,454.94Z"/><path class="cls-15" d="M58.6,464.7v5.49H55.91V446.4H58l.42,2a6.91,6.91,0,0,1,5-2.38c4.37,0,6.54,3.12,6.54,8.89,0,6.05-3,8.95-7.1,8.95a6,6,0,0,1-4.62-2A16.15,16.15,0,0,1,58.6,464.7Zm0-4.66a5.73,5.73,0,0,0,4.06,1.86c3.11,0,4.58-2,4.58-7,0-4.52-1.29-6.82-4.4-6.82a6.17,6.17,0,0,0-4.24,2Z"/><path class="cls-15" d="M88.1,454.94c0,5.77-2.8,8.95-7.39,8.95s-7.31-3.11-7.31-8.95c0-5,2.38-8.89,7.31-8.89C85.47,446.05,88.1,449.83,88.1,454.94Zm-2.73,0c0-4.48-1.51-6.89-4.66-6.89s-4.61,2.51-4.61,6.89c0,4.2,1.22,7,4.61,7S85.37,459.52,85.37,454.94ZM77,443.74l-.39-1.57,7.73-2.87.53,2Z"/><path class="cls-15" d="M94.08,450.6c0,3.67,8.5,2.38,8.5,8.19,0,2.76-2.13,5.1-6,5.1a10.21,10.21,0,0,1-5.17-1.47l.76-2a8,8,0,0,0,4.38,1.44c2.1,0,3.39-1.16,3.39-2.94,0-4.13-8.39-2.59-8.39-8.4,0-2.3,1.74-4.51,5.66-4.51a11.08,11.08,0,0,1,5.14,1.12l-.62,2a9.21,9.21,0,0,0-4.48-1.05C95.13,448.08,94.08,449,94.08,450.6Z"/><path class="cls-15" d="M107.86,463.54v-15l-1.88-.39V446.4h4.47v17.14Zm-.24-23.89h2.83v2.8h-2.83Z"/><path class="cls-15" d="M120.88,463.89c-2.42,0-4.41-1.22-4.41-5.24V448.33h-2.59V446.4h2.59v-3.11l2.66-.84v3.95h5v1.93h-5V459c0,1.82.66,2.69,2.27,2.69a7.41,7.41,0,0,0,2.73-.73l.53,2A8.46,8.46,0,0,1,120.88,463.89Z"/><path class="cls-15" d="M142.22,454.94c0,5.77-2.8,8.95-7.38,8.95s-7.31-3.11-7.31-8.95c0-5,2.38-8.89,7.31-8.89C139.59,446.05,142.22,449.83,142.22,454.94Zm-2.73,0c0-4.48-1.51-6.89-4.65-6.89s-4.62,2.51-4.62,6.89c0,4.2,1.22,7,4.62,7S139.49,459.52,139.49,454.94Z"/><path class="cls-15" d="M148.2,450.6c0,3.67,8.5,2.38,8.5,8.19,0,2.76-2.13,5.1-5.94,5.1a10.25,10.25,0,0,1-5.18-1.47l.77-2a8,8,0,0,0,4.37,1.44c2.1,0,3.39-1.16,3.39-2.94,0-4.13-8.39-2.59-8.39-8.4,0-2.3,1.75-4.51,5.66-4.51a11.15,11.15,0,0,1,5.15,1.12l-.63,2a9.21,9.21,0,0,0-4.48-1.05C149.25,448.08,148.2,449,148.2,450.6Z"/><path class="cls-15" d="M174.23,463.44l-1.75.14L167,446.4h2.94s3.22,10.43,4.69,15.57c1.5-5.18,4.65-15.57,4.65-15.57H182l-5.5,17c-1.78,5.45-3.56,7.2-6.85,7.2a6.85,6.85,0,0,1-3.81-1.36l.87-1.79h.21a5,5,0,0,0,2.87,1.09c2,0,3.15-1.19,4.23-4.44Z"/><path class="cls-15" d="M203.09,463.54l-.45-2.2a6.76,6.76,0,0,1-5.28,2.55c-3.5,0-5.53-2.34-5.53-5.24s2.17-4.9,6-4.9h4.44v-1.37c0-3-1.29-4.23-3.88-4.23a12.65,12.65,0,0,0-5.18,1.12l-.7-1.92a15.06,15.06,0,0,1,6.23-1.3c4.06,0,6.12,2.1,6.12,6.19v11.3Zm-.77-8h-4c-2.9,0-3.88,1.26-3.88,3,0,2.06,1.12,3.43,3.6,3.43a6,6,0,0,0,4.3-2.14Z"/><path class="cls-15" d="M212.16,464.7v5.49h-2.7V446.4h2.07l.42,2a6.87,6.87,0,0,1,5-2.38c4.37,0,6.54,3.12,6.54,8.89,0,6.05-3,8.95-7.1,8.95a6,6,0,0,1-4.62-2A15.76,15.76,0,0,1,212.16,464.7Zm0-4.66a5.71,5.71,0,0,0,4.05,1.86c3.12,0,4.59-2,4.59-7,0-4.52-1.3-6.82-4.41-6.82a6.12,6.12,0,0,0-4.23,2Z"/><path class="cls-15" d="M241.65,454.94c0,5.77-2.8,8.95-7.38,8.95s-7.31-3.11-7.31-8.95c0-5,2.38-8.89,7.31-8.89C239,446.05,241.65,449.83,241.65,454.94Zm-2.73,0c0-4.48-1.5-6.89-4.65-6.89s-4.62,2.51-4.62,6.89c0,4.2,1.22,7,4.62,7S238.92,459.52,238.92,454.94Z"/><path class="cls-15" d="M254.38,448.71a7,7,0,0,0-2.2-.31,5.49,5.49,0,0,0-3.85,1.85v13.29h-2.66V446.4h1.79l.49,2.17a5.66,5.66,0,0,1,4.44-2.41,7.51,7.51,0,0,1,2.17.28Z"/><path class="cls-15" d="M263.31,463.89c-2.42,0-4.41-1.22-4.41-5.24V448.33h-2.59V446.4h2.59v-3.11l2.66-.84v3.95h5v1.93h-5V459c0,1.82.66,2.69,2.27,2.69a7.41,7.41,0,0,0,2.73-.73l.52,2A8.38,8.38,0,0,1,263.31,463.89Z"/><path class="cls-15" d="M272.65,455.74c0,4.23,2.17,6.09,5.42,6.09a10.64,10.64,0,0,0,5.32-1.72l.66,1.89a12.21,12.21,0,0,1-6.26,1.89c-4.69,0-7.8-3.11-7.8-9,0-5.43,2.66-8.82,7.34-8.82,4.83,0,6.86,3.88,6.86,8.19v1.5Zm4.58-7.66c-3.25,0-4.58,2.87-4.58,5.81h9C281.6,450.91,280.59,448.08,277.23,448.08Z"/><path class="cls-15" d="M307,470.19v-6.68a14.88,14.88,0,0,1,.24-2,6.62,6.62,0,0,1-5,2.41c-4,0-6.89-3-6.89-8.95,0-5.22,2.59-8.89,7.17-8.89a8.64,8.64,0,0,1,4.94,1.61l.49-1.26h1.67v23.79Zm0-20.82a6.86,6.86,0,0,0-4.13-1.29c-3.22,0-4.79,2.52-4.79,6.86s1.36,7,4.58,7a5.82,5.82,0,0,0,4.34-2.17Z"/><path class="cls-15" d="M325.72,463.54l-.39-2a7.25,7.25,0,0,1-5.31,2.31c-3.82,0-5.91-2.27-5.91-7V446.4h2.65v10.36c0,3.53,1.12,5,3.89,5a6.78,6.78,0,0,0,4.23-1.68V446.4h2.69v17.14Z"/><path class="cls-15" d="M334.08,455.74c0,4.23,2.17,6.09,5.42,6.09a10.57,10.57,0,0,0,5.32-1.72l.66,1.89a12.21,12.21,0,0,1-6.26,1.89c-4.68,0-7.8-3.11-7.8-9,0-5.43,2.66-8.82,7.35-8.82s6.85,3.88,6.85,8.19v1.5Zm4.58-7.66c-3.25,0-4.58,2.87-4.58,5.81h9C343,450.91,342,448.08,338.66,448.08Zm-3.84-4.34-.39-1.57,7.73-2.87.53,2Z"/><path class="cls-15" d="M18.93,500.18v-6.69a14.89,14.89,0,0,1,.24-2,6.62,6.62,0,0,1-5,2.41c-4,0-6.89-3-6.89-8.95,0-5.22,2.59-8.89,7.17-8.89a8.56,8.56,0,0,1,4.94,1.61l.49-1.26h1.68v23.79Zm0-20.82a6.79,6.79,0,0,0-4.13-1.29c-3.22,0-4.79,2.52-4.79,6.86s1.36,7,4.58,7a5.82,5.82,0,0,0,4.34-2.17Z"/><path class="cls-15" d="M37.61,493.53l-.39-2a7.27,7.27,0,0,1-5.31,2.31c-3.82,0-5.92-2.27-5.92-7V476.39h2.66v10.35c0,3.54,1.12,5,3.88,5a6.78,6.78,0,0,0,4.24-1.68V476.39h2.69v17.14Z"/><path class="cls-15" d="M46,485.73c0,4.23,2.17,6.09,5.42,6.09a10.61,10.61,0,0,0,5.32-1.72l.66,1.89a12.21,12.21,0,0,1-6.26,1.89c-4.68,0-7.8-3.11-7.8-9,0-5.43,2.66-8.82,7.35-8.82s6.85,3.88,6.85,8.19v1.5Zm4.58-7.66c-3.25,0-4.58,2.87-4.58,5.81h9C54.93,480.9,53.91,478.07,50.55,478.07Z"/><path class="cls-15" d="M70.28,478.7a6.65,6.65,0,0,0-2.2-.32,5.5,5.5,0,0,0-3.85,1.86v13.29H61.57V476.39h1.79l.49,2.17a5.67,5.67,0,0,1,4.44-2.42,7.94,7.94,0,0,1,2.17.28Z"/><path class="cls-15" d="M75.53,485.73c0,4.23,2.17,6.09,5.43,6.09a10.57,10.57,0,0,0,5.31-1.72l.67,1.89a12.27,12.27,0,0,1-6.26,1.89c-4.69,0-7.8-3.11-7.8-9,0-5.43,2.65-8.82,7.34-8.82s6.86,3.88,6.86,8.19v1.5Zm4.59-7.66c-3.26,0-4.59,2.87-4.59,5.81h9C84.49,480.9,83.48,478.07,80.12,478.07Z"/><path class="cls-15" d="M104.47,482.72v10.81h-2.7V483.18c0-3.26-.94-5-3.85-5a6.07,6.07,0,0,0-4.12,2v13.43H91.14V476.39h1.75l.56,2.06A7.22,7.22,0,0,1,98.66,476c2.55,0,4.2.91,5,2.62a7.46,7.46,0,0,1,5.35-2.62c4.2,0,6,2.34,6,6.68v10.81h-2.69V483.18c0-3.26-1.23-5-4.13-5a6.1,6.1,0,0,0-4.09,2A10.48,10.48,0,0,1,104.47,482.72Z"/><path class="cls-15" d="M133.36,484.93c0,5.77-2.79,8.95-7.38,8.95s-7.31-3.11-7.31-8.95c0-5,2.38-8.89,7.31-8.89C130.74,476,133.36,479.82,133.36,484.93Zm-2.73,0c0-4.48-1.5-6.9-4.65-6.9s-4.61,2.52-4.61,6.9c0,4.19,1.22,7,4.61,7S130.63,489.51,130.63,484.93Z"/><path class="cls-15" d="M139.35,480.59c0,3.67,8.5,2.38,8.5,8.18,0,2.77-2.14,5.11-5.95,5.11a10.21,10.21,0,0,1-5.17-1.47l.76-2a8,8,0,0,0,4.38,1.44c2.1,0,3.39-1.16,3.39-2.94,0-4.13-8.39-2.59-8.39-8.4,0-2.31,1.74-4.51,5.66-4.51a11.1,11.1,0,0,1,5.14,1.12l-.63,2a9.17,9.17,0,0,0-4.47-1.05C140.4,478.07,139.35,479,139.35,480.59Z"/><path class="cls-15" d="M172.13,492.38a12.27,12.27,0,0,1-5.7,1.5c-4.34,0-7.49-2.55-7.49-8.92,0-5.81,3.18-8.92,7.49-8.92A11.05,11.05,0,0,1,172,477.4l-.77,1.89a9.26,9.26,0,0,0-4.68-1.12c-3.08,0-5,2.45-5,6.79,0,4.83,1.89,6.86,5,6.86a9.64,9.64,0,0,0,4.93-1.44Z"/><path class="cls-15" d="M189.73,484.93c0,5.77-2.8,8.95-7.38,8.95s-7.32-3.11-7.32-8.95c0-5,2.38-8.89,7.32-8.89C187.1,476,189.73,479.82,189.73,484.93Zm-2.73,0c0-4.48-1.51-6.9-4.65-6.9s-4.62,2.52-4.62,6.9c0,4.19,1.22,7,4.62,7S187,489.51,187,484.93Z"/><path class="cls-15" d="M204.53,493.53V483.18c0-3.26-1-5-3.92-5a6.31,6.31,0,0,0-4.2,2v13.43h-2.66V476.39h1.79l.52,2a7.48,7.48,0,0,1,5.39-2.38c4,0,5.8,2.41,5.8,6.68v10.81Z"/><path class="cls-15" d="M213.48,480.59c0,3.67,8.51,2.38,8.51,8.18,0,2.77-2.14,5.11-6,5.11a10.25,10.25,0,0,1-5.18-1.47l.77-2a8,8,0,0,0,4.37,1.44c2.1,0,3.4-1.16,3.4-2.94,0-4.13-8.4-2.59-8.4-8.4,0-2.31,1.75-4.51,5.67-4.51a11.1,11.1,0,0,1,5.14,1.12l-.63,2a9.21,9.21,0,0,0-4.48-1.05C214.53,478.07,213.48,479,213.48,480.59Z"/><path class="cls-15" d="M228,485.73c0,4.23,2.17,6.09,5.43,6.09a10.57,10.57,0,0,0,5.31-1.72l.67,1.89a12.27,12.27,0,0,1-6.26,1.89c-4.69,0-7.81-3.11-7.81-9,0-5.43,2.66-8.82,7.35-8.82s6.86,3.88,6.86,8.19v1.5Zm4.59-7.66c-3.26,0-4.59,2.87-4.59,5.81h9C237,480.9,235.94,478.07,232.59,478.07Z"/><path class="cls-15" d="M258.33,476.39v1.85a18.07,18.07,0,0,1-4.16-.35,5.17,5.17,0,0,1,2.35,4.1c0,4.06-3.89,5.77-6.48,5.77a7.49,7.49,0,0,1-2.23-.39c-1.26.11-1.82.6-1.82,1.23,0,2.13,11.23,0,11.23,6.08,0,4-3.68,5.92-7.35,5.92-3.36,0-6.82-1.79-6.82-5.08,0-2.27,1.75-3.67,4.34-4-2.1-.21-3.85-1-3.85-2.59,0-1.19.8-2.07,2.59-2.28A5,5,0,0,1,243.5,482c0-4.48,4-5.95,6.51-5.95C251.41,476,254.21,476.28,258.33,476.39Zm-8.64,15.39c-2.58.07-4.09,1.4-4.09,3.46s2.14,3.5,4.34,3.5c2.62,0,4.62-1.19,4.62-3.92C254.56,493.08,253.12,492.13,249.69,491.78ZM254,482c0-3.18-2.34-3.95-4-3.95S246,478.77,246,482s2.27,3.89,4.06,3.89S254,485,254,482Z"/><path class="cls-15" d="M273,493.53l-.39-2a7.27,7.27,0,0,1-5.31,2.31c-3.82,0-5.92-2.27-5.92-7V476.39H264v10.35c0,3.54,1.12,5,3.89,5a6.78,6.78,0,0,0,4.23-1.68V476.39h2.69v17.14Z"/><path class="cls-15" d="M280.59,493.53v-15l-1.89-.38v-1.75h4.48v17.14Zm-.25-23.89h2.84v2.8h-2.84Z"/><path class="cls-15" d="M296.54,478.7a6.72,6.72,0,0,0-2.21-.32,5.46,5.46,0,0,0-3.84,1.86v13.29h-2.66V476.39h1.78l.49,2.17a5.69,5.69,0,0,1,4.44-2.42,7.94,7.94,0,0,1,2.17.28Z"/><path class="cls-15" d="M299.17,489.61h2.62v3.92h-2.62Z"/><path class="cls-1" d="M313.53,261.75,308.46,257c.58-.53,1.17-1.06,1.73-1.61,1.08-1-.56-2.68-1.64-1.64-.58.56-1.19,1.11-1.78,1.66L302,250.87c-1.09-1-2.74.61-1.65,1.64l4.75,4.46c-1,.92-2.06,1.83-3.12,2.72s.51,2.61,1.65,1.65,2.12-1.84,3.16-2.77l5.13,4.82C313,264.41,314.62,262.77,313.53,261.75Z"/></svg>