<svg id="Capa_1" data-name="Capa 1" xmlns="http://www.w3.org/2000/svg" viewBox="0 0 512 512"><defs><style>.cls-1{fill:#a0b61d;}.cls-2{fill:#f69f21;}.cls-3{fill:#133a4d;}.cls-4{fill:#e5756f;}.cls-16,.cls-17,.cls-18,.cls-5{fill:none;stroke-width:1.25px;}.cls-5{stroke:#e5756f;}.cls-17,.cls-18,.cls-5{stroke-linecap:round;stroke-linejoin:round;}.cls-6{fill:#74353a;}.cls-7{fill:#e83f41;}.cls-8{fill:#f18781;}.cls-9{fill:#c75c5c;}.cls-10{fill:#d66661;}.cls-11{fill:#f0a39e;}.cls-12{fill:#f6b6b0;}.cls-13{fill:#e88a4a;}.cls-14{fill:#863d40;}.cls-15{fill:#e94b4a;}.cls-16{stroke:#552626;}.cls-16,.cls-21,.cls-22,.cls-23,.cls-24{stroke-miterlimit:10;}.cls-17{stroke:#d05b58;}.cls-18{stroke:#a31831;}.cls-19{fill:#552626;}.cls-20{fill:#fdeceb;}.cls-21{fill:#e7334a;}.cls-21,.cls-22,.cls-23,.cls-24{stroke:#fff;}.cls-22{fill:#55b682;}.cls-23,.cls-24{fill:#615185;}.cls-23{stroke-width:0.5px;}.cls-24{stroke-width:0.75px;}</style></defs><path class="cls-1" d="M48,217s-30.45,39.82-30.16,47.35,21.47,203,21.47,203l92.14-92.8S136,227.44,114.67,202.31,48,217,48,217"/><path class="cls-2" d="M179.72,239.55s59.83-3,81.19-3.84,39.47-2,46.63,6.89c58.5,72.45-46.93,186.27-46.93,186.27L108.89,404.1Z"/><path class="cls-3" d="M107.75,379.25S43.81,385.43,33,433.65s23.73,57.67,23.73,57.67L158,512s23.33-48.69,54.75-49.87-44.16-70.07-44.16-70.07"/><path class="cls-3" d="M104.2,363s-12.15.85-11.19,5.53c.39,1.86,1.46,7.12,2.61,12.77,1.74,8.56,3.66,18,3.66,18s26.07,24.56,53.73,7.81l8.23-42.36Z"/><path class="cls-4" d="M104.29,354.76,103.56,367S125,382.28,146,376.38l2.64-13.46s-21.52-29.05-44.31-8.16"/><path class="cls-5" d="M104.29,354.76,103.56,367S125,382.28,146,376.38l2.64-13.46S127.08,333.87,104.29,354.76Z"/><path class="cls-6" d="M182.61,86.59s-44,53.13-41.27,83.28,19.26,20.89,10.36,35-6.29,21.07-6.29,21.07l34.31,13.64,42.74-2.39Z"/><path class="cls-7" d="M158.19,356.67s1.07,7.42,15.57,6.48,22.73-22.46,22.73-22.46-16.85,11.63-18.63-4.41,18.88-41.18,12-76.68-31-41.66-42.67-37.69-8.94,107.21-8.94,107.21Z"/><path class="cls-8" d="M158.35,245.85s27.26,4.09,24.52,35.62-15.92,78.4-30.34,81.31-61.24-8.71-57.12-45.4c0,0-13-1.87-13.51-14.43s7.43-21.89,14.2-9.18l6.76,12.72s.74-32.65,8.08-36.06,42.12-8.27,47.41-24.58"/><path class="cls-9" d="M204.39,206s9,29.52,5.5,31.23-30.17,2.31-30.17,2.31,14.37,16.35,44.5,13.26,36.69-17.1,36.69-17.1L243.56,234s-2.12-25.07-1.89-29.4-37.28,1.4-37.28,1.4"/><path class="cls-10" d="M186.69,101s-13.9,6.41-9.76,53.8,22.69,49.83,43.79,56.9c0,0,35.57-4.87,46.71-32.4l3.77-14.68s8.27-10.14,6.91-14.8-6.86-4.85-6.86-4.85l-1.09-8.21s-47.89,1.4-63-14.53S186.69,101,186.69,101"/><path class="cls-11" d="M50,154.45s3.4,27.77,13.54,46.64,39.93-3.86,39.93-3.86-5.54-11.58-6.3-21.37S49.89,141.09,50,154.45"/><path class="cls-12" d="M137.36,95.36S129,124,130.71,148.27l-14.32-4.57L112,151.33s-12.79-5.81-17.52-16.63-9.59,6.25-1,13.79,19.68,11.44,19.68,11.44-6.47,16-19.78,17.25-36.88-8.83-43.8-25.86-6.42-34.73-6.42-34.73-9.67-6.31-8.15-18.16,7.56-29,14.55-20.58,7.27,15.44,7.27,15.44S71.22,60.52,84.15,59.64s53.09-9.46,53.21,35.72"/><path class="cls-13" d="M145.19,104.89S162.26,99.14,162,82.26s-5.39-17.87-5.39-17.87,8,4.41,7.67-5-8.09-27.2-41.61-30.26c0,0,2.39-20.13-18.42-19.74,0,0,11,0,1.84-3.21S70.53-10.18,70.32,15.76c0,0-48.08-14.3-44.35,32.71,0,0-22.1,7.91-21.46,24.78s7.17,13.09,7.17,13.09S-1.11,91.14.08,101.71s9.23,15.76,12.37,15.64c0,0,.32,29.46,20.86,32.22s10.13,8.26,10.13,8.26,9.73-2.72,4.73-10c0,0-4.6-7.69-1.83-7s5.51.19,5.39-3c0,0-7,2.23-7.27-5.23s3.6-8.78,3.6-8.78-4.28.95-4.4-2.19,8.92-3.09,8.8-6.23c0,0-6.94,3.41-9.39,1.14S35.45,102,39,92s15.49-16.69,16.8-2.6-4.55,14.71-4.55,14.71,10.24.8,10.56-11.79c0,0,2.4,11.7,18.7,6.37,0,0-6.9-6-7.16-12.7,0,0,1.82,6.62,10.84,5.88,0,0-8.13-7.16-7-18.6,0,0,9.15,13.41,19.62,9.88s17.77-18.75,17.77-18.75,7.28,26.45,22.77,31c0,0-2.92-4.6-1.05-7,0,0,.47,12.56,8.88,16.56"/><path class="cls-14" d="M182.61,86.59s5.58,54.41,48.4,54S271.25,145,271.25,145s13,1.08-.05,19.65c0,0-2.51,27.2-29.53,40,0,0-2.15,26.41,1.89,29.4s64,8.59,64,8.59,13.18-25.64-3.49-50.95S292,152.81,292.4,122.15s-38.91-83.8-109.79-35.56"/><path class="cls-15" d="M158.35,245.85s-8.9-27.56-29.38-28.75-70.24,33.68-70.32,84,17.78,65.34,58.87,50.43c0,0-22.28-7.41-22.11-34.13,0,0-11.91-3.48-10.79-15.32s5-12.76,8.25-10.52,9.36,18.9,10.52,18.46-1-36.11,7.55-39.57,44-1.26,47.41-24.58"/><path class="cls-4" d="M167.48,279.7s.63,37.69,7.84,52c0,0-31.35,12.57-7.84-52"/><path class="cls-5" d="M167.48,279.7s.63,37.69,7.84,52C175.32,331.66,144,344.23,167.48,279.7Z"/><path class="cls-16" d="M151.83,312.9s-8,7.76-28.75-1.67a18.15,18.15,0,0,1,3.59-9.17"/><path class="cls-16" d="M146.8,315.05s1.1-2.2-1.66-12.9"/><path class="cls-16" d="M177.78,302.88A31.29,31.29,0,0,1,179,313.06"/><path class="cls-16" d="M171.84,312.14s6.37,2.32,10.62.39"/><path class="cls-17" d="M156.48,337.28s-9-3.39-14.07-3-4,13.91,6.5,10.76"/><path class="cls-9" d="M222.8,141.66s-12.47,34.26-3,34.7,9.57-6.65,3-34.7"/><path class="cls-18" d="M211.05,184.54s8.85,5.56,17.31.53,12.55-11.08,13.84-8-1.88,12.65-9.32,13.32"/><path class="cls-16" d="M239.59,159.89s1.06-13.79,7.34-14,7.59,13.86,8.75,13.43a23,23,0,0,0,3.46-2.1"/><path class="cls-16" d="M205.85,161.16s-2.09-13.67-8.36-13.44-6.54,14.39-7.73,14.05a22.74,22.74,0,0,1-3.6-1.83"/><path class="cls-19" d="M117.13,121.67a.86.86,0,0,1-.59-.24.79.79,0,0,1,0-1.11c3.92-3.84,5.1-14.16,5.11-14.26a.78.78,0,1,1,1.56.17c0,.44-1.25,11-5.57,15.21a.8.8,0,0,1-.52.23"/><path class="cls-19" d="M120.36,123.9a.55.55,0,0,1-.25,0c-6.07-1.77-16-11-16.45-11.36l-.38-.35.17-.49c0-.09.84-2.25,4.44-4.85a.8.8,0,0,1,1.1.18.78.78,0,0,1-.18,1.09,12.86,12.86,0,0,0-3.64,3.67c2,1.8,10.35,9.13,15.38,10.6a.78.78,0,0,1-.19,1.54"/><path class="cls-12" d="M137.36,95.36s-20.89,29.47-21,48.34l14.32,4.57s1.58-31.1,6.65-52.91"/><path class="cls-20" d="M90.1,197l-44.26-17.2L48,217s37.84,3.3,46.77,10.82Z"/><path class="cls-20" d="M92.86,197.23s7.23-16.77,10-16.87l11.82,21.95s-11.31,12.61-11,19.67c0,0-8-24.46-10.75-24.75"/><path class="cls-21" d="M462.22,329.85V348H443.87V329.85H411.63V318.91l32-50.94h18.59V315H471v14.82ZM443.87,315V290.2L428.1,315Z"/><path class="cls-22" d="M213.19,330v-.92h9.43v1.45c0,10.16-8.44,10.35-8.44,16.95,0,2.44,1.71,4.35,5,4.35a22.36,22.36,0,0,0,7.85-1.65l2.57,8.11a29.77,29.77,0,0,1-12.4,2.51c-8.17,0-14.11-4.42-14.11-11.81C203.1,338.87,213.19,336.37,213.19,330Zm9.82-4.61H212.8V315.27H223Z"/><path class="cls-22" d="M245.3,332.87v14.71H234.88V303.07h14.38c9.36,0,17.47,4.55,17.47,14.31,0,8.31-6.33,15.49-17.47,15.49Zm3.82-21H245.3v13h3.82c4.22,0,6.53-3.16,6.53-7C255.65,314.28,253.34,311.84,249.12,311.84Z"/><path class="cls-22" d="M294.48,338.22H280.57l-2,9.36H268.18l12.19-44.51h16.22l12.2,44.51h-12.2Zm-12.06-8.31h10.22l-3.76-17.67h-2.31Z"/><path class="cls-22" d="M327.19,331.36h-3.43v16.22H313.4V303.07h15.5c8.9,0,16,4.15,16,13.58a14.15,14.15,0,0,1-8.11,12.93l9.1,18H333.71Zm0-20.24h-3.43v12.19h3.43c5,0,6.59-2.37,6.59-6.66C333.78,312.7,331.67,311.12,327.19,311.12Z"/><path class="cls-22" d="M374.19,338.22H360.28l-2,9.36H347.89l12.19-44.51H376.3l12.2,44.51H376.3Zm-12.06-8.31h10.22l-3.76-17.67h-2.31Z"/><path class="cls-22" d="M231.19,403.52a123.36,123.36,0,0,0,13.72.46v10.09a29.22,29.22,0,0,1-20.91-8.9c-15.62,0-19.58-11.34-19.58-23.28,0-11.6,3.89-22.55,19.58-22.55,16,0,19.78,10.82,19.78,22.55C243.78,390,239.1,399.7,231.19,403.52ZM224,368.31c-6.92,0-8.57,5.93-8.57,13.52,0,8.44,1.78,14.57,8.57,14.57s8.71-6.07,8.71-14.57C232.71,374.11,230.93,368.31,224,368.31Z"/><path class="cls-22" d="M285.91,387.5c0,9.3-5.27,17.67-17.6,17.67s-17.61-8-17.61-17.67V360h10.42v27c0,5.61,2.57,9.36,7.19,9.36s7.05-3.82,7.05-9.36V360h10.55Z"/><path class="cls-22" d="M295.14,404.51V360h10.42v44.51Z"/><path class="cls-22" d="M314.79,404.51V360h28.75v8.77H325.21v8.77h13.71l-.66,9.17H325.21v9.1h18.33v8.7Zm5.14-46.95-.86-5.93L338.39,349l-.13,7.65Z"/><path class="cls-22" d="M371.1,404.51,359,369.76h-.26l1,34.75h-9.29V360h16l12.4,35.61h.26l-1-35.61h9.5v44.51Z"/><path class="cls-22" d="M396.21,404.51V360H425v8.77H406.63v8.77h13.72l-.66,9.17H406.63v9.1H425v8.7Z"/><path class="cls-22" d="M457.79,370.68a22.24,22.24,0,0,0-10.22-2.3c-4,0-5.67,1.51-5.67,3.49,0,6.79,20.11,4,20.11,19.19,0,7.25-6.26,14.11-16.81,14.11a24.83,24.83,0,0,1-15-4.88l3.89-7.91a18.91,18.91,0,0,0,11.15,4c3.62,0,5.86-2,5.86-4.62,0-8.24-20-3.62-20-19.78,0-7,5.54-12.66,16.55-12.66a29.83,29.83,0,0,1,13.59,3Z"/><path class="cls-22" d="M482.38,389.81v.92H473v-1.45c0-10.16,8.44-10.35,8.44-16.95,0-2.44-1.71-4.35-5-4.35a22.26,22.26,0,0,0-7.84,1.65L466,361.52A29.68,29.68,0,0,1,478.36,359c8.18,0,14.11,4.42,14.11,11.81C492.47,380.9,482.38,383.41,482.38,389.81Zm-9.82,4.61h10.22v10.09H472.56Z"/><path class="cls-23" d="M232.81,458.49v-4.71a10.46,10.46,0,0,1,.17-1.43,4.66,4.66,0,0,1-3.5,1.7c-2.81,0-4.86-2.15-4.86-6.32,0-3.68,1.82-6.27,5.06-6.27a6,6,0,0,1,3.48,1.14l.34-.89h1.19v16.78Zm0-14.68a4.75,4.75,0,0,0-2.91-.92c-2.27,0-3.38,1.78-3.38,4.84s1,4.91,3.23,4.91a4.09,4.09,0,0,0,3.06-1.53Z"/><path class="cls-23" d="M246,453.8l-.27-1.38a5.12,5.12,0,0,1-3.75,1.63c-2.69,0-4.17-1.61-4.17-4.91v-7.43h1.88V449c0,2.5.79,3.53,2.74,3.53a4.75,4.75,0,0,0,3-1.18v-9.65h1.9V453.8Z"/><path class="cls-23" d="M251.38,453.8V443.21l-1.33-.27v-1.23h3.16V453.8Zm-.17-16.86h2v2h-2Z"/><path class="cls-23" d="M258,448.3c0,3,1.53,4.29,3.83,4.29a7.45,7.45,0,0,0,3.75-1.21l.47,1.34a8.73,8.73,0,0,1-4.42,1.33c-3.31,0-5.51-2.2-5.51-6.37,0-3.83,1.88-6.22,5.19-6.22s4.84,2.74,4.84,5.78v1.06Zm3.23-5.41c-2.29,0-3.23,2-3.23,4.1h6.32C264.29,444.89,263.57,442.89,261.2,442.89Z"/><path class="cls-23" d="M276.58,453.8v-7.3c0-2.3-.71-3.56-2.76-3.56a4.49,4.49,0,0,0-3,1.38v9.48H269V441.71h1.26l.37,1.43a5.28,5.28,0,0,1,3.8-1.68c2.84,0,4.1,1.7,4.1,4.71v7.63Z"/><path class="cls-23" d="M283,448.3c0,3,1.54,4.29,3.83,4.29a7.38,7.38,0,0,0,3.75-1.21l.47,1.34a8.73,8.73,0,0,1-4.42,1.33c-3.3,0-5.5-2.2-5.5-6.37,0-3.83,1.87-6.22,5.18-6.22s4.84,2.74,4.84,5.78v1.06Zm3.24-5.41c-2.3,0-3.24,2-3.24,4.1h6.32C289.32,444.89,288.61,442.89,286.24,442.89Z"/><path class="cls-23" d="M295.4,444.67c0,2.59,6,1.68,6,5.78,0,1.95-1.51,3.6-4.2,3.6a7.24,7.24,0,0,1-3.65-1l.54-1.38a5.63,5.63,0,0,0,3.09,1c1.48,0,2.39-.81,2.39-2.07,0-2.91-5.92-1.83-5.92-5.93,0-1.62,1.23-3.18,4-3.18a7.85,7.85,0,0,1,3.63.79l-.44,1.38a6.56,6.56,0,0,0-3.16-.74C296.14,442.89,295.4,443.56,295.4,444.67Z"/><path class="cls-23" d="M311,444.67c0,2.59,6,1.68,6,5.78,0,1.95-1.51,3.6-4.2,3.6a7.24,7.24,0,0,1-3.65-1l.54-1.38a5.63,5.63,0,0,0,3.09,1c1.48,0,2.39-.81,2.39-2.07,0-2.91-5.93-1.83-5.93-5.93,0-1.62,1.24-3.18,4-3.18a7.85,7.85,0,0,1,3.63.79l-.44,1.38a6.56,6.56,0,0,0-3.16-.74C311.72,442.89,311,443.56,311,444.67Z"/><path class="cls-23" d="M321.22,448.3c0,3,1.53,4.29,3.83,4.29a7.42,7.42,0,0,0,3.75-1.21l.47,1.34a8.73,8.73,0,0,1-4.42,1.33c-3.31,0-5.5-2.2-5.5-6.37,0-3.83,1.87-6.22,5.18-6.22s4.84,2.74,4.84,5.78v1.06Zm3.24-5.41c-2.3,0-3.24,2-3.24,4.1h6.32C327.54,444.89,326.83,442.89,324.46,442.89Z"/><path class="cls-23" d="M338.38,443.34a4.6,4.6,0,0,0-1.55-.23,3.89,3.89,0,0,0-2.72,1.31v9.38h-1.87V441.71h1.25l.35,1.53a4,4,0,0,1,3.13-1.71,5.7,5.7,0,0,1,1.54.2Z"/><path class="cls-23" d="M348.08,453.8l-.32-1.55a4.75,4.75,0,0,1-3.72,1.8,3.61,3.61,0,0,1-3.9-3.7c0-2.1,1.53-3.46,4.27-3.46h3.13v-1c0-2.1-.91-3-2.74-3a9,9,0,0,0-3.65.79l-.5-1.36a10.72,10.72,0,0,1,4.4-.91c2.86,0,4.32,1.48,4.32,4.37v8Zm-.54-5.63H344.7c-2.05,0-2.74.89-2.74,2.1a2.24,2.24,0,0,0,2.55,2.42,4.25,4.25,0,0,0,3-1.5Zm-5.21-8.34-.27-1.11,5.46-2,.37,1.4Z"/><path class="cls-23" d="M360.18,453.8v-7.3c0-2.3-.71-3.56-2.76-3.56a4.49,4.49,0,0,0-3,1.38v9.48h-1.88V441.71h1.26l.37,1.43a5.26,5.26,0,0,1,3.8-1.68c2.84,0,4.1,1.7,4.1,4.71v7.63Z"/><path class="cls-23" d="M371.52,453.8V443.21l-1.34-.27v-1.23h3.16V453.8Zm-.18-16.86h2v2h-2Z"/><path class="cls-23" d="M386,446.17v7.63h-1.9v-7.3c0-2.3-.67-3.56-2.71-3.56a4.33,4.33,0,0,0-2.92,1.38v9.48h-1.87V441.71h1.23l.4,1.45a5.1,5.1,0,0,1,3.67-1.7c1.81,0,3,.64,3.56,1.85a5.28,5.28,0,0,1,3.78-1.85c3,0,4.27,1.65,4.27,4.71v7.63h-1.91v-7.3c0-2.3-.86-3.56-2.91-3.56a4.38,4.38,0,0,0-2.89,1.38A7,7,0,0,1,386,446.17Z"/><path class="cls-23" d="M398.38,454.62v3.87h-1.9V441.71h1.45l.3,1.43a4.86,4.86,0,0,1,3.53-1.68c3.09,0,4.61,2.2,4.61,6.27,0,4.27-2.12,6.32-5,6.32a4.25,4.25,0,0,1-3.25-1.38A11.22,11.22,0,0,1,398.38,454.62Zm0-3.29a4,4,0,0,0,2.86,1.31c2.2,0,3.23-1.43,3.23-4.91,0-3.18-.91-4.81-3.11-4.81a4.32,4.32,0,0,0-3,1.4Z"/><path class="cls-23" d="M416.72,453.8l-.32-1.55a4.78,4.78,0,0,1-3.73,1.8,3.61,3.61,0,0,1-3.9-3.7c0-2.1,1.53-3.46,4.27-3.46h3.14v-1c0-2.1-.92-3-2.74-3a9,9,0,0,0-3.66.79l-.49-1.36a10.67,10.67,0,0,1,4.39-.91c2.87,0,4.33,1.48,4.33,4.37v8Zm-.54-5.63h-2.84c-2,0-2.74.89-2.74,2.1a2.23,2.23,0,0,0,2.54,2.42,4.27,4.27,0,0,0,3-1.5Z"/><path class="cls-23" d="M430.15,453a8.6,8.6,0,0,1-4,1.06c-3.06,0-5.28-1.8-5.28-6.3,0-4.09,2.24-6.29,5.28-6.29a7.89,7.89,0,0,1,3.95,1l-.55,1.34a6.45,6.45,0,0,0-3.3-.79c-2.18,0-3.51,1.72-3.51,4.78,0,3.41,1.33,4.84,3.51,4.84a6.85,6.85,0,0,0,3.48-1Z"/><path class="cls-23" d="M436.69,454.05c-1.7,0-3.1-.86-3.1-3.7v-7.29h-1.83v-1.35h1.83v-2.2l1.87-.59v2.79H439v1.35h-3.53v7.51c0,1.28.47,1.9,1.61,1.9A5.13,5.13,0,0,0,439,452l.37,1.38A5.93,5.93,0,0,1,436.69,454.05Z"/><path class="cls-23" d="M449.28,453.8l-.32-1.55a4.75,4.75,0,0,1-3.72,1.8,3.61,3.61,0,0,1-3.9-3.7c0-2.1,1.53-3.46,4.27-3.46h3.13v-1c0-2.1-.91-3-2.74-3a9,9,0,0,0-3.65.79l-.49-1.36a10.63,10.63,0,0,1,4.39-.91c2.86,0,4.32,1.48,4.32,4.37v8Zm-.54-5.63H445.9c-2,0-2.74.89-2.74,2.1a2.24,2.24,0,0,0,2.55,2.42,4.25,4.25,0,0,0,3-1.5Z"/><path class="cls-23" d="M461.75,452.35a4.58,4.58,0,0,1-3.48,1.7c-2.86,0-4.86-2.12-4.86-6.32,0-3.68,1.83-6.27,5.06-6.27a5,5,0,0,1,3.23,1,17.72,17.72,0,0,1-.1-2v-3.75h1.88v17h-1.41Zm-.15-8.59a5.11,5.11,0,0,0-2.93-.87c-2.27,0-3.36,1.78-3.36,4.84s1,4.91,3.23,4.91a4.08,4.08,0,0,0,3.06-1.53Z"/><path class="cls-23" d="M474.22,453.8l-.32-1.55a4.78,4.78,0,0,1-3.73,1.8,3.61,3.61,0,0,1-3.9-3.7c0-2.1,1.53-3.46,4.27-3.46h3.14v-1c0-2.1-.92-3-2.74-3a9,9,0,0,0-3.66.79l-.49-1.36a10.63,10.63,0,0,1,4.39-.91c2.87,0,4.32,1.48,4.32,4.37v8Zm-.54-5.63h-2.84c-2,0-2.74.89-2.74,2.1a2.23,2.23,0,0,0,2.54,2.42,4.27,4.27,0,0,0,3-1.5Z"/><path class="cls-23" d="M480.1,444.67c0,2.59,6,1.68,6,5.78,0,1.95-1.51,3.6-4.2,3.6a7.31,7.31,0,0,1-3.66-1l.55-1.38a5.62,5.62,0,0,0,3.08,1c1.49,0,2.4-.81,2.4-2.07,0-2.91-5.93-1.83-5.93-5.93,0-1.62,1.24-3.18,4-3.18a7.88,7.88,0,0,1,3.63.79l-.44,1.38a6.56,6.56,0,0,0-3.16-.74C480.84,442.89,480.1,443.56,480.1,444.67Z"/><path class="cls-23" d="M504.24,447.73c0,4.07-2,6.32-5.21,6.32s-5.16-2.2-5.16-6.32c0-3.55,1.68-6.27,5.16-6.27S504.24,444.13,504.24,447.73Zm-1.92,0c0-3.16-1.07-4.86-3.29-4.86s-3.26,1.77-3.26,4.86.87,4.91,3.26,4.91S502.32,451,502.32,447.73Z"/><path class="cls-23" d="M226.67,464.25a5.17,5.17,0,0,1,3.6-1.63c3.08,0,4.69,2.2,4.69,6.27,0,4.27-2.12,6.32-5,6.32a4.7,4.7,0,0,1-3.5-1.55L226,475h-1v-17h1.87v4.69Zm.19,8.17a4.29,4.29,0,0,0,2.94,1.38c2.12,0,3.26-1.43,3.26-4.91,0-3.18-.94-4.84-3.14-4.84a4.53,4.53,0,0,0-3.06,1.36Z"/><path class="cls-23" d="M239.31,469.46c0,3,1.53,4.3,3.82,4.3a7.48,7.48,0,0,0,3.75-1.21l.47,1.33a8.63,8.63,0,0,1-4.42,1.33c-3.3,0-5.5-2.2-5.5-6.37,0-3.82,1.88-6.22,5.18-6.22s4.84,2.74,4.84,5.78v1.06Zm3.23-5.41c-2.3,0-3.23,2-3.23,4.1h6.32C245.63,466.05,244.91,464.05,242.54,464.05Z"/><path class="cls-23" d="M257.92,475v-7.31c0-2.3-.71-3.56-2.76-3.56a4.48,4.48,0,0,0-3,1.39V475h-1.87v-12.1h1.26l.37,1.43a5.26,5.26,0,0,1,3.8-1.68c2.84,0,4.1,1.71,4.1,4.72V475Z"/><path class="cls-23" d="M264.34,469.46c0,3,1.53,4.3,3.83,4.3a7.55,7.55,0,0,0,3.75-1.21l.47,1.33a8.63,8.63,0,0,1-4.42,1.33c-3.31,0-5.51-2.2-5.51-6.37,0-3.82,1.88-6.22,5.19-6.22s4.84,2.74,4.84,5.78v1.06Zm3.24-5.41c-2.3,0-3.24,2-3.24,4.1h6.32C270.66,466.05,269.94,464.05,267.58,464.05Z"/><path class="cls-23" d="M282.17,459.29a5.62,5.62,0,0,0-1.56-.22c-1.63,0-2.34.91-2.34,2.84v1h2.86v1.43h-2.86V475h-1.86V464.3h-2v-1.43h2v-1.09c0-2.76,1.34-4.27,4-4.27a7.88,7.88,0,0,1,1.88.25Z"/><path class="cls-23" d="M284.24,475v-10.6l-1.33-.27v-1.23h3.16V475Zm-.17-16.87h2v2h-2Z"/><path class="cls-23" d="M298.29,474.15a8.61,8.61,0,0,1-4,1.06c-3.06,0-5.28-1.8-5.28-6.29,0-4.1,2.25-6.3,5.28-6.3a7.84,7.84,0,0,1,3.95,1l-.54,1.34a6.49,6.49,0,0,0-3.31-.79c-2.17,0-3.5,1.73-3.5,4.79,0,3.4,1.33,4.84,3.5,4.84a6.79,6.79,0,0,0,3.48-1Z"/><path class="cls-23" d="M301.72,475v-10.6l-1.33-.27v-1.23h3.16V475Zm-.17-16.87h2v2h-2Z"/><path class="cls-23" d="M314.31,475l-.32-1.56a4.76,4.76,0,0,1-3.73,1.8,3.61,3.61,0,0,1-3.9-3.7c0-2.1,1.53-3.46,4.27-3.46h3.14v-1c0-2.1-.91-3-2.74-3a9,9,0,0,0-3.65.79l-.5-1.35a10.66,10.66,0,0,1,4.4-.92c2.86,0,4.31,1.48,4.31,4.37v8Zm-.54-5.63h-2.84c-2.05,0-2.74.89-2.74,2.09a2.23,2.23,0,0,0,2.54,2.42,4.27,4.27,0,0,0,3-1.5Z"/><path class="cls-23" d="M326.78,473.51a4.58,4.58,0,0,1-3.48,1.7c-2.87,0-4.87-2.12-4.87-6.32,0-3.68,1.83-6.27,5.07-6.27a5.09,5.09,0,0,1,3.23,1,17.72,17.72,0,0,1-.1-2v-3.75h1.88v17H327.1Zm-.15-8.59a5.15,5.15,0,0,0-2.94-.87c-2.27,0-3.35,1.78-3.35,4.84s1,4.91,3.23,4.91a4.06,4.06,0,0,0,3.06-1.53Z"/><path class="cls-23" d="M339.25,475l-.32-1.56a4.79,4.79,0,0,1-3.73,1.8,3.61,3.61,0,0,1-3.9-3.7c0-2.1,1.53-3.46,4.27-3.46h3.13v-1c0-2.1-.91-3-2.74-3a9,9,0,0,0-3.65.79l-.49-1.35a10.6,10.6,0,0,1,4.39-.92c2.86,0,4.32,1.48,4.32,4.37v8Zm-.55-5.63h-2.84c-2,0-2.74.89-2.74,2.09a2.24,2.24,0,0,0,2.55,2.42,4.25,4.25,0,0,0,3-1.5Z"/><path class="cls-23" d="M345.12,465.83c0,2.59,6,1.68,6,5.78,0,1.95-1.5,3.6-4.2,3.6a7.37,7.37,0,0,1-3.65-1l.55-1.39a5.62,5.62,0,0,0,3.08,1c1.48,0,2.39-.81,2.39-2.07,0-2.91-5.92-1.83-5.92-5.92,0-1.63,1.24-3.19,4-3.19a7.91,7.91,0,0,1,3.63.79l-.45,1.39a6.39,6.39,0,0,0-3.16-.75C345.86,464.05,345.12,464.72,345.12,465.83Z"/><path class="cls-23" d="M361.22,475.78v3.88h-1.9V462.87h1.46l.29,1.43a4.88,4.88,0,0,1,3.53-1.68c3.09,0,4.62,2.2,4.62,6.27,0,4.27-2.13,6.32-5,6.32a4.26,4.26,0,0,1-3.26-1.38A11.22,11.22,0,0,1,361.22,475.78Zm0-3.28a4.05,4.05,0,0,0,2.86,1.3c2.2,0,3.24-1.43,3.24-4.91,0-3.18-.92-4.81-3.11-4.81a4.35,4.35,0,0,0-3,1.41Z"/><path class="cls-23" d="M382,468.89c0,4.08-2,6.32-5.21,6.32s-5.16-2.2-5.16-6.32c0-3.55,1.68-6.27,5.16-6.27S382,465.29,382,468.89Zm-1.92,0c0-3.16-1.06-4.86-3.29-4.86s-3.25,1.78-3.25,4.86.86,4.91,3.25,4.91S380.11,472.13,380.11,468.89Z"/><path class="cls-23" d="M391,464.5a4.66,4.66,0,0,0-1.56-.22,3.88,3.88,0,0,0-2.71,1.3V475h-1.88v-12.1h1.26l.35,1.53a4,4,0,0,1,3.13-1.7,5.81,5.81,0,0,1,1.53.19Z"/><path class="cls-23" d="M406.28,475v-7.31c0-2.3-.72-3.56-2.77-3.56a4.48,4.48,0,0,0-3,1.39V475h-1.87v-12.1h1.25l.37,1.43a5.31,5.31,0,0,1,3.81-1.68c2.83,0,4.09,1.71,4.09,4.72V475Z"/><path class="cls-23" d="M419.26,475l-.27-1.39a5.12,5.12,0,0,1-3.75,1.63c-2.69,0-4.17-1.6-4.17-4.91v-7.43H413v7.31c0,2.49.79,3.53,2.74,3.53a4.76,4.76,0,0,0,3-1.19v-9.65h1.9V475Z"/><path class="cls-23" d="M425.17,469.46c0,3,1.53,4.3,3.82,4.3a7.48,7.48,0,0,0,3.75-1.21l.47,1.33a8.62,8.62,0,0,1-4.41,1.33c-3.31,0-5.51-2.2-5.51-6.37,0-3.82,1.88-6.22,5.18-6.22s4.84,2.74,4.84,5.78v1.06Zm3.23-5.41c-2.3,0-3.23,2-3.23,4.1h6.32C431.49,466.05,430.77,464.05,428.4,464.05Z"/><path class="cls-23" d="M437.56,465.83c0,2.59,6,1.68,6,5.78,0,1.95-1.51,3.6-4.2,3.6a7.37,7.37,0,0,1-3.65-1l.54-1.39a5.63,5.63,0,0,0,3.09,1c1.48,0,2.39-.81,2.39-2.07,0-2.91-5.92-1.83-5.92-5.92,0-1.63,1.23-3.19,4-3.19a7.84,7.84,0,0,1,3.62.79L443,464.8a6.42,6.42,0,0,0-3.16-.75C438.3,464.05,437.56,464.72,437.56,465.83Z"/><path class="cls-23" d="M450.4,475.21c-1.71,0-3.11-.86-3.11-3.7v-7.28h-1.83v-1.36h1.83v-2.2l1.87-.59v2.79h3.53v1.36h-3.53v7.5c0,1.28.47,1.9,1.61,1.9a5.13,5.13,0,0,0,1.92-.52l.37,1.39A5.86,5.86,0,0,1,450.4,475.21Z"/><path class="cls-23" d="M461.65,464.5a4.6,4.6,0,0,0-1.55-.22,3.88,3.88,0,0,0-2.72,1.3V475h-1.87v-12.1h1.26l.34,1.53a4,4,0,0,1,3.14-1.7,5.81,5.81,0,0,1,1.53.19Z"/><path class="cls-23" d="M473.83,468.89c0,4.08-2,6.32-5.21,6.32s-5.16-2.2-5.16-6.32c0-3.55,1.68-6.27,5.16-6.27S473.83,465.29,473.83,468.89Zm-1.93,0c0-3.16-1.06-4.86-3.28-4.86s-3.26,1.78-3.26,4.86.86,4.91,3.26,4.91S471.9,472.13,471.9,468.89Z"/><path class="cls-23" d="M226.89,496.94v3.88H225V484h1.45l.3,1.43a4.89,4.89,0,0,1,3.53-1.67c3.08,0,4.62,2.19,4.62,6.26,0,4.27-2.13,6.32-5,6.32a4.22,4.22,0,0,1-3.25-1.38A11.4,11.4,0,0,1,226.89,496.94Zm0-3.28a4.06,4.06,0,0,0,2.86,1.31c2.2,0,3.23-1.44,3.23-4.92,0-3.18-.91-4.81-3.11-4.81a4.33,4.33,0,0,0-3,1.41Z"/><path class="cls-23" d="M243.9,485.66a5,5,0,0,0-1.56-.22,3.87,3.87,0,0,0-2.71,1.31v9.38h-1.88V484H239l.35,1.53a4,4,0,0,1,3.13-1.7,5.18,5.18,0,0,1,1.53.2Z"/><path class="cls-23" d="M256.07,490.05c0,4.08-2,6.32-5.21,6.32s-5.16-2.19-5.16-6.32c0-3.55,1.68-6.26,5.16-6.26S256.07,486.45,256.07,490.05Zm-1.93,0c0-3.15-1.06-4.86-3.28-4.86s-3.26,1.78-3.26,4.86.87,4.92,3.26,4.92S254.14,493.29,254.14,490.05Z"/><path class="cls-23" d="M263.08,496.05l-1.23.1L258,484h2.08s2.27,7.36,3.3,11c1.07-3.66,3.29-11,3.29-11h1.92l-3.87,12c-1.26,3.85-2.52,5.09-4.84,5.09a4.84,4.84,0,0,1-2.69-1l.61-1.26h.15a3.56,3.56,0,0,0,2,.76c1.4,0,2.22-.84,3-3.13Z"/><path class="cls-23" d="M272,490.62c0,3,1.53,4.3,3.83,4.3a7.55,7.55,0,0,0,3.75-1.21l.47,1.33a8.7,8.7,0,0,1-4.42,1.33c-3.31,0-5.51-2.19-5.51-6.36,0-3.83,1.88-6.22,5.19-6.22s4.84,2.73,4.84,5.77v1.06Zm3.23-5.4c-2.29,0-3.23,2-3.23,4.09h6.32C278.34,487.22,277.62,485.22,275.25,485.22Z"/><path class="cls-23" d="M292,495.31a8.61,8.61,0,0,1-4,1.06c-3.06,0-5.28-1.8-5.28-6.29,0-4.1,2.25-6.29,5.28-6.29a7.74,7.74,0,0,1,3.95,1l-.54,1.33a6.59,6.59,0,0,0-3.31-.79c-2.17,0-3.5,1.73-3.5,4.79,0,3.41,1.33,4.84,3.5,4.84a6.88,6.88,0,0,0,3.48-1Z"/><path class="cls-23" d="M298.51,496.37c-1.7,0-3.11-.86-3.11-3.7v-7.28h-1.83V484h1.83v-2.2l1.88-.59V484h3.53v1.36h-3.53v7.5c0,1.29.47,1.9,1.6,1.9a5.44,5.44,0,0,0,1.93-.51l.37,1.38A5.94,5.94,0,0,1,298.51,496.37Z"/><path class="cls-23" d="M313.57,490.05c0,4.08-2,6.32-5.21,6.32s-5.16-2.19-5.16-6.32c0-3.55,1.68-6.26,5.16-6.26S313.57,486.45,313.57,490.05Zm-1.93,0c0-3.15-1.06-4.86-3.28-4.86s-3.26,1.78-3.26,4.86S306,495,308.36,495,311.64,493.29,311.64,490.05Z"/><path class="cls-23" d="M316,493.36h1.85v2.77H316Z"/><path class="cls-24" d="M256.35,420.09v6.19H252V407.54h6c4,0,7.36,1.91,7.36,6,0,3.5-2.66,6.53-7.36,6.53Zm1.62-8.86h-1.62v5.47H258a2.71,2.71,0,0,0,2.75-2.94A2.45,2.45,0,0,0,258,411.23Z"/><path class="cls-24" d="M271.8,420.65c0,1.55,1,2.58,3.12,2.58a10,10,0,0,0,3.83-1l.77,3a11.77,11.77,0,0,1-5.27,1.28c-4.36,0-6.89-2.69-6.89-7.11,0-4.11,2-7.05,6.58-7.05,4.25,0,5.95,3,5.95,6.44v1.81Zm2-5.06c-1.44,0-2,1.31-2,2.56h3.92C275.72,416.7,275.3,415.59,273.8,415.59Z"/><path class="cls-24" d="M287.25,426.28h-4.33V412.67H286l.42,1.89h.14a3.29,3.29,0,0,1,3.11-2.16,5.84,5.84,0,0,1,1.5.16l-.06,3.72a7,7,0,0,0-1.69-.22,3.81,3.81,0,0,0-2.14.64Z"/><path class="cls-24" d="M302.2,416.12a8.73,8.73,0,0,0-3.17-.61c-1,0-1.5.3-1.5.86,0,1.72,5.47,1.28,5.47,5.61,0,2.64-1.91,4.58-5.69,4.58a9.27,9.27,0,0,1-4.06-.91l.81-3a6.64,6.64,0,0,0,3.11.86c1,0,1.64-.42,1.64-1.11,0-2-5.39-1.42-5.39-6.06,0-2.14,1.58-3.91,5.55-3.91a13.69,13.69,0,0,1,3.73.52Z"/><path class="cls-24" d="M319,419.45c0,4.67-2.38,7.11-6.66,7.11s-6.67-2.44-6.67-7.11c0-4,2.39-7.05,6.67-7.05S319,415.45,319,419.45Zm-4.52,0c0-3.17-.86-3.89-2.14-3.89s-2.14.72-2.14,3.89.8,3.89,2.14,3.89S314.48,422.51,314.48,419.45Z"/><path class="cls-24" d="M330.45,426.28v-8c0-1.78-.75-2.53-2.11-2.53a4.57,4.57,0,0,0-1.92.47v10.08H322V412.67h3l.61,1.53a5.48,5.48,0,0,1,4.34-1.8c3.55,0,4.88,2.08,4.88,5.55v8.33Z"/><path class="cls-24" d="M346.73,426.28l-.55-1.55a4.66,4.66,0,0,1-3.86,1.83,4.34,4.34,0,0,1-4.67-4.47c0-2.61,1.94-4.08,5.3-4.08h2.53v-.5c0-1.45-1-1.78-2.05-1.78a9.67,9.67,0,0,0-4.06.89l-1.08-3.11a14.49,14.49,0,0,1,5.55-1.11c4.2,0,5.89,1.83,5.89,5.41v8.47Zm-1.25-5.74h-1.75c-1.17,0-1.78.55-1.78,1.44a1.49,1.49,0,0,0,1.64,1.64,3.93,3.93,0,0,0,1.89-.56Z"/><path class="cls-24" d="M361.62,416.12a8.67,8.67,0,0,0-3.16-.61c-1,0-1.5.3-1.5.86,0,1.72,5.47,1.28,5.47,5.61,0,2.64-1.92,4.58-5.7,4.58a9.26,9.26,0,0,1-4.05-.91l.81-3a6.61,6.61,0,0,0,3.11.86c1,0,1.64-.42,1.64-1.11,0-2-5.39-1.42-5.39-6.06,0-2.14,1.58-3.91,5.55-3.91a13.56,13.56,0,0,1,3.72.52Z"/><path class="cls-24" d="M381.07,413.78a6.65,6.65,0,0,1-.44-2.61v-4.05H385v19.16h-3.64l-.45-1.44a4,4,0,0,1-3.44,1.72c-3,0-5.58-2.14-5.58-7.08,0-4.67,2.77-7.08,5.91-7.08A4,4,0,0,1,381.07,413.78Zm-.44,2.39a4.49,4.49,0,0,0-2.06-.52c-1.3,0-2.33.75-2.33,3.8s1,3.92,2.3,3.92a3.25,3.25,0,0,0,2.09-.86Z"/><path class="cls-24" d="M389.77,426.28v-10.5l-1.61-.36v-2.75h6v13.61ZM389.69,407h4.39v3.83h-4.39Z"/><path class="cls-24" d="M402.05,426.28h-4.34V412.67h3.06l.42,1.89h.14a3.29,3.29,0,0,1,3.11-2.16,5.84,5.84,0,0,1,1.5.16l-.06,3.72a7,7,0,0,0-1.69-.22,3.79,3.79,0,0,0-2.14.64Z"/><path class="cls-24" d="M409.6,426.28v-10.5l-1.61-.36v-2.75h6v13.61ZM409.52,407h4.39v3.83h-4.39Z"/><path class="cls-24" d="M430.22,412.67l-.06,3.39a8,8,0,0,1-2.25-.69,4.8,4.8,0,0,1,1.11,1.69c0,3.36-3.39,4.75-5.83,4.75a7.58,7.58,0,0,1-1.72-.22.53.53,0,0,0-.39.53c0,1.44,8.61-.36,8.61,4.89,0,3.19-3.14,5-6.81,5-2.94,0-5.88-1.11-5.88-3.56,0-1.75,1.44-2.55,3.69-2.89-1.72-.19-3.61-.69-3.61-2.41,0-1.2,1.14-2.06,2.78-2.17a4.31,4.31,0,0,1-2.51-3.92c0-3.64,3.53-4.66,5.84-4.66C425.52,412.56,428.33,412.67,430.22,412.67Zm-7.73,13.11a1.59,1.59,0,0,0-1.47,1.64c0,.95.78,1.7,2.11,1.7s2.22-.75,2.22-1.81S424.33,425.92,422.49,425.78Zm2.7-8.75c0-1.16-1.11-1.55-2-1.55s-2,.39-2,1.55c0,1.34,1.06,1.73,2,1.73S425.19,418.37,425.19,417Z"/><path class="cls-24" d="M434,426.28v-10.5l-1.61-.36v-2.75h6v13.61ZM433.94,407h4.39v3.83h-4.39Z"/><path class="cls-24" d="M450.75,413.78a6.47,6.47,0,0,1-.44-2.61v-4.05h4.35v19.16H451l-.45-1.44a4,4,0,0,1-3.44,1.72c-3,0-5.59-2.14-5.59-7.08,0-4.67,2.78-7.08,5.92-7.08A4,4,0,0,1,450.75,413.78Zm-.44,2.39a4.56,4.56,0,0,0-2.06-.52c-1.31,0-2.33.75-2.33,3.8s1,3.92,2.3,3.92a3.27,3.27,0,0,0,2.09-.86Z"/><path class="cls-24" d="M466.78,426.28l-.56-1.55a4.64,4.64,0,0,1-3.86,1.83,4.33,4.33,0,0,1-4.66-4.47c0-2.61,1.94-4.08,5.3-4.08h2.53v-.5c0-1.45-1-1.78-2.06-1.78a9.62,9.62,0,0,0-4.05.89l-1.09-3.11a14.55,14.55,0,0,1,5.56-1.11c4.19,0,5.89,1.83,5.89,5.41v8.47Zm-1.25-5.74h-1.75c-1.17,0-1.78.55-1.78,1.44a1.48,1.48,0,0,0,1.64,1.64,4,4,0,0,0,1.89-.56Z"/><path class="cls-24" d="M481.67,416.12a8.69,8.69,0,0,0-3.17-.61c-1,0-1.5.3-1.5.86,0,1.72,5.48,1.28,5.48,5.61,0,2.64-1.92,4.58-5.7,4.58a9.22,9.22,0,0,1-4-.91l.8-3a6.68,6.68,0,0,0,3.11.86c1,0,1.64-.42,1.64-1.11,0-2-5.39-1.42-5.39-6.06,0-2.14,1.59-3.91,5.56-3.91a13.56,13.56,0,0,1,3.72.52Z"/><path class="cls-24" d="M485.42,412.67h4.45V417h-4.45Zm0,9.28h4.45v4.33h-4.45Z"/></svg>