<svg id="Capa_1" data-name="Capa 1" xmlns="http://www.w3.org/2000/svg" viewBox="0 0 1024 512"><defs><style>.cls-1{fill:none;}.cls-2{fill:#fff;}.cls-3{fill:#e26872;}.cls-4{fill:#5790c1;}.cls-5{fill:#f39568;}.cls-6{fill:#4e484e;}.cls-7{fill:#2e4c9b;}.cls-8{fill:#5e5861;}.cls-9{fill:#f4f1ed;}.cls-10{fill:#cc4f49;}.cls-11{fill:#f0ece3;}.cls-12{fill:#e7334a;}.cls-12,.cls-13,.cls-14,.cls-15{stroke:#fff;stroke-miterlimit:10;}.cls-13{fill:#55b682;}.cls-14,.cls-15{fill:#615185;}.cls-15{stroke-width:0.5px;}</style></defs><rect class="cls-1" x="311.23" y="234.83" width="50.95" height="138.38"/><path class="cls-2" d="M426.88,205.12c0,113.29-91.83,205.13-205.12,205.13S16.64,318.41,16.64,205.12,108.48,0,221.76,0,426.88,91.84,426.88,205.12"/><path class="cls-3" d="M5,254c16.74.07,35-5.85,47.91-16.77,16.25-13.77,19.38-37.48,21.55-57.46,1.34-12.3-1-35.89,7.15-45.82,10.62-12.87,24.43,5.67,35.08,6.31,5.71.34,10.7-1.79,15.42-4.87,2.84-1.84,5.11-4.55,7.94-6.36,9.9-6.33,14.45-5,24.22.12,15.15,8,39,10.25,55.68,6,21-5.31,20.53-25,28.38-41.95C251,87.6,255,79,259.63,74.94c12.89-11.43,26.45-2.8,38.11,2.74,13,6.15,24.6,14.79,37.39,21.07,14.3,7,26.12-1,40.33-5.91,6.26-2.16,3.57-12.16-2.75-10-6.58,2.27-15.83,7.39-22.94,8.29-11.38,1.43-24.13-10.62-34-15.93-14.57-7.8-36.83-22.64-54-14.72-17.47,8.06-22.43,29.81-29.15,45.76-4.46,10.61-11.86,19.3-24.12,19.82a143,143,0,0,1-16.69-.39c-9.69-.74-16.19-2.27-24.8-6.8-3.48-1.83-7.08-5.24-11.17-6-18.12-3.6-27.13,22.26-44.43,15-12.53-5.24-24.74-19.11-36.48-3.66-11.35,14.94-9.18,44.16-11.58,61.72-2.23,16.35-5.45,34.43-19.3,45-10.84,8.28-25.46,12.8-39,12.75-6.66,0-6.67,10.32,0,10.35"/><path class="cls-4" d="M315.68,309.16a4.28,4.28,0,0,1-3.4-1.36,4.32,4.32,0,0,1,.2-6.12,132.74,132.74,0,0,0,42.37-95.19,4.33,4.33,0,1,1,8.66.16A141.26,141.26,0,0,1,318.4,308a4.3,4.3,0,0,1-2.72,1.16"/><path class="cls-4" d="M96.25,82l24.57,26.52a4.36,4.36,0,0,0,3.08,1.39h.34a4.35,4.35,0,0,0,2.8-1.24,133.63,133.63,0,0,1,40.67-27.48l11.84,31.47a4.35,4.35,0,0,0,2.31,2.45,4.33,4.33,0,0,0,3.37,0,96.23,96.23,0,0,1,38.45-6.89,4.33,4.33,0,1,0,.22-8.66,105.07,105.07,0,0,0-37.77,6L175.77,78a133.81,133.81,0,0,1,37.87-7.67c3.69-.21,7.43-.26,11.09-.16a4.33,4.33,0,1,0,.23-8.66c-3.9-.1-7.87-.05-11.8.17a142.69,142.69,0,0,0-44.08,9.6,4,4,0,0,0-.43.12,5.55,5.55,0,0,0-.6.29,142.36,142.36,0,0,0-43.87,27.72L102.45,75.94a174.4,174.4,0,0,1,245.16,7.82,4.34,4.34,0,0,0,6.29-6,183.07,183.07,0,0,0-260-5.68,4.91,4.91,0,0,0-.53.4,4.85,4.85,0,0,0-.63.74,182.9,182.9,0,0,0-54.67,140.8,4.34,4.34,0,0,0,8.66-.48A174.1,174.1,0,0,1,96.25,82Z"/><path class="cls-4" d="M388.87,277.34a183.19,183.19,0,0,0-13.66-172.43,4.33,4.33,0,1,0-7.29,4.69A174.57,174.57,0,0,1,382.4,270.45l-32.77-15.38a4.33,4.33,0,0,0-3.68,7.84l32.94,15.46A174.67,174.67,0,0,1,154.74,365.5l12-29.77a141,141,0,0,0,52.86,10.73,4.34,4.34,0,1,0,.08-8.67A132.33,132.33,0,0,1,166.11,326a4.35,4.35,0,0,0-5.8,2.34L146.8,362A174.06,174.06,0,0,1,60.09,271.7l30.07-11.32a142.46,142.46,0,0,0,28.3,42.51,0,0,0,0,0,0,0l0,0c.12.12.26.21.39.32s.21.18.32.25a3.06,3.06,0,0,0,.57.29,2,2,0,0,0,.25.13,3.74,3.74,0,0,0,.73.19l.15,0a4.53,4.53,0,0,0,.9,0,4.85,4.85,0,0,0,.75-.11l.34-.11.39-.13.32-.17c.12-.07.25-.13.37-.21s.17-.14.26-.21.23-.17.34-.27l0,0h0l24-23.84a104.4,104.4,0,0,0,168.7-34.77,4.33,4.33,0,1,0-8-3.36,95.76,95.76,0,0,1-154.58,32l22.74-22.61a63.65,63.65,0,0,0,92.17-87.51l22.92-22.55a95.64,95.64,0,0,1,24,58.32,97.3,97.3,0,0,1,0,9.81,4.34,4.34,0,0,0,4.12,4.53h.45a4.34,4.34,0,0,0,4.08-4.13,102.84,102.84,0,0,0-.05-10.68,104.18,104.18,0,0,0-5.69-28.65l31.95-10.87a4.32,4.32,0,0,0,2.65-5.64,143.45,143.45,0,0,0-76.81-80,4.35,4.35,0,0,0-5.7,2.27l-15,35a4.33,4.33,0,0,0,8,3.41l13.26-30.92A134.83,134.83,0,0,1,344.39,152l-28,9.52a104.25,104.25,0,0,0-20.57-30.36,4.32,4.32,0,0,0-6.14-.06l-26.05,25.62a63.67,63.67,0,0,0-84.61-.61L154.77,129.8a4.33,4.33,0,0,0-6.37,5.87l24.49,26.55A63.35,63.35,0,0,0,157.46,200l-32.07-.41A94.31,94.31,0,0,1,133.53,165a4.33,4.33,0,1,0-7.91-3.52,103,103,0,0,0-8.9,38l-29.45-.37a133.93,133.93,0,0,1,11.78-50.34,4.33,4.33,0,0,0-7.89-3.57A142.67,142.67,0,0,0,87,252.32L52.88,265.16a4.35,4.35,0,0,0-2.43,2.3,4.3,4.3,0,0,0-.07,3.34,183.23,183.23,0,0,0,337.89,7.9,3.86,3.86,0,0,0,.32-.56A3.46,3.46,0,0,0,388.87,277.34ZM116.73,208.15c0,.52,0,1,.06,1.55a104.22,104.22,0,0,0,7.83,34.37,4.33,4.33,0,0,0,8-3.33,95.47,95.47,0,0,1-7.18-31.51c0-.33,0-.65,0-1l36.22.46a4.35,4.35,0,0,0,3.11-1.26,4.31,4.31,0,0,0,1.28-3.1,54.81,54.81,0,0,1,15.63-38.85l.1-.08a3.08,3.08,0,0,0,.24-.27,55,55,0,1,1-1.31,76.18,4.34,4.34,0,0,0-6.23-.12L121.7,293.64a133.79,133.79,0,0,1-34.32-82.31c-.07-1.19-.11-2.37-.14-3.56Z"/><polygon class="cls-5" points="400.73 94.41 405.08 112.82 418.03 108.67 414.23 88.85 400.73 94.41"/><path class="cls-5" d="M406.6,73.69a12.73,12.73,0,1,1-15.25,9.57,12.74,12.74,0,0,1,15.25-9.57"/><path class="cls-5" d="M259.19,377.51a12.73,12.73,0,1,1-15.25,9.57,12.73,12.73,0,0,1,15.25-9.57"/><rect class="cls-5" x="315.18" y="180.38" width="21.35" height="28.68"/><polygon class="cls-6" points="328.89 318.14 324.83 318.14 285.8 318.14 292.91 512 315.4 512 318.89 361.8 334.82 361.8 338.32 512 360.81 512 367.92 318.14 328.89 318.14"/><path class="cls-5" d="M304.6,163.14a7.1,7.1,0,1,1-7.1-7.1,7.09,7.09,0,0,1,7.1,7.1"/><path class="cls-5" d="M361.63,163.14a7.1,7.1,0,1,1-7.09-7.1,7.08,7.08,0,0,1,7.09,7.1"/><path class="cls-6" d="M355.17,157A29.18,29.18,0,1,1,326,127.85,29.17,29.17,0,0,1,355.17,157"/><path class="cls-7" d="M406.36,176.61a.1.1,0,0,0,0,0,3,3,0,0,0,.25.25s.09.05,0,0l-.2-.18Z"/><path class="cls-7" d="M406.9,171.32h0l.08,0-.06,0"/><path class="cls-8" d="M347.33,354l-11.95-8.28V329.49h23.89v15.94Zm-10.23-9.18,10.21,7.08,10.23-7.34V331.21H337.1Z"/><path class="cls-8" d="M306.41,354l-12-8.28V329.49h23.89v15.94Zm-10.23-9.18,10.21,7.08,10.23-7.34V331.21H296.18Z"/><path class="cls-9" d="M432.35,166.78l-.08-.57-.06-.26-.1-.53L430.5,157l-3.18-16.9c-1.71-9.49-4.5-25.79-6.4-37.47a3.48,3.48,0,0,0-4.18-2.84l-18.16,3.91a3.47,3.47,0,0,0-2.7,4c2.16,11.58,4.88,27.48,6.54,36.82l2.87,17,1.54,9.92-3.75,2.23-2.32,1.4L386,183.86c-6.31,3.78-24.88,11.34-37.47,16.32a26.6,26.6,0,0,0-2.71-.13H307.9a24,24,0,0,0-17.51,7.21l-.18-.16c-63.49,74.48-50.86,171.84-50.29,176l28.27-3.91c-.1-.69-7-54,16-108.23l1.64,47.23h82.11l3.16-90.6c0-.14,0-.27,0-.41a13.86,13.86,0,0,0,1.61-.95c9.32-6.38,18.64-12.74,28-19L415,197.68l3.59-2.36,1.8-1.18,1.17-.79a24.91,24.91,0,0,0,2-1.53c4.62-3.88,8.26-11.6,8.7-17.48a23.36,23.36,0,0,0,.31-5.07c0-.84-.15-1.66-.27-2.49m-25.7,10.12a1.45,1.45,0,0,1-.26-.24l0,0,.13.13.2.18c.05.05,0,0,0,0m3.8-10.4h0Z"/><rect class="cls-10" x="381.02" y="79.96" width="36.93" height="6.92" transform="translate(-8.05 61.89) rotate(-8.77)"/><path class="cls-11" d="M381.76,89.65l-6.1-1.71a.92.92,0,0,1-.26-1.66l5.31-3.46Z"/><path class="cls-5" d="M396.65,94.11a4.47,4.47,0,0,1-3.72-2l-4.14-6.23A4.46,4.46,0,0,1,396.22,81l4.14,6.23a4.46,4.46,0,0,1-3.71,6.93"/><path class="cls-12" d="M536.61,35.36l-5.8-15.64a68.59,68.59,0,0,1,27.9-5.93c20.76,0,34.91,10.65,34.91,26.28,0,15.23-9.3,30.06-38.41,50.41A72.33,72.33,0,0,1,570,89.13h24v17.66H531.76V90.88C565.32,66,571.38,53.15,571.38,44c0-7-5.52-12.94-16.17-12.94C549,31,541.19,32.93,536.61,35.36Z"/><path class="cls-13" d="M459.43,175.26v-1.48h15.1v2.32c0,16.26-13.52,16.58-13.52,27.13,0,3.91,2.75,7,8,7a35.79,35.79,0,0,0,12.56-2.64l4.12,13a47.86,47.86,0,0,1-19.85,4c-13.09,0-22.59-7.07-22.59-18.9C443.28,189.51,459.43,185.5,459.43,175.26Zm15.73-7.39H458.8V151.72h16.36Z"/><path class="cls-13" d="M510.84,179.9v23.54H494.16V132.19h23c15,0,28,7.28,28,22.9,0,13.31-10.13,24.81-28,24.81ZM517,146.23h-6.12V167H517c6.75,0,10.45-5.06,10.45-11.18C527.41,150.13,523.71,146.23,517,146.23Z"/><path class="cls-13" d="M582,204.5c-25,0-31.35-18.16-31.35-37.27,0-18.57,6.23-36.1,31.35-36.1,25.65,0,31.67,17.32,31.67,36.1C613.65,186.34,607,204.5,582,204.5Zm0-59c-11.08,0-13.72,9.5-13.72,21.64,0,13.51,2.85,23.33,13.72,23.33s13.93-9.71,13.93-23.33C595.91,154.78,593.07,145.49,582,145.49Z"/><path class="cls-13" d="M646.26,177.48h-5.49v26H624.2V132.19H649c14.25,0,25.54,6.65,25.54,21.75a22.63,22.63,0,0,1-13,20.68l14.57,28.82H656.71Zm0-32.41h-5.49V164.6h5.49c8,0,10.56-3.8,10.56-10.66C656.82,147.6,653.44,145.07,646.26,145.07Z"/><path class="cls-13" d="M749.18,201.86c5.6.64,11.72.74,22,.74v16.15a46.79,46.79,0,0,1-33.47-14.25c-25,0-31.35-18.16-31.35-37.27,0-18.57,6.23-36.1,31.35-36.1,25.66,0,31.67,17.32,31.67,36.1C769.34,180.22,761.85,195.74,749.18,201.86Zm-11.51-56.37c-11.08,0-13.72,9.5-13.72,21.64,0,13.51,2.85,23.33,13.72,23.33s13.94-9.71,13.94-23.33C751.61,154.78,748.76,145.49,737.67,145.49Z"/><path class="cls-13" d="M836.79,176.21c0,14.88-8.44,28.29-28.18,28.29s-28.19-12.88-28.19-28.29v-44H797.1v43.17c0,9,4.12,15,11.51,15s11.29-6.13,11.29-15V132.19h16.89Z"/><path class="cls-13" d="M850.51,203.44V132.19h46v14H867.19v14h22l-1.06,14.67h-20.9v14.57h29.35v13.93Zm8.23-75.16-1.37-9.5,30.93-4.22-.21,12.24Z"/><path class="cls-13" d="M929.15,179.9v1.48h-15.1v-2.32c0-16.26,13.51-16.58,13.51-27.13,0-3.91-2.74-7-8-7A35.79,35.79,0,0,0,907,147.6l-4.12-13a47.7,47.7,0,0,1,19.85-4c13.09,0,22.59,7.08,22.59,18.9C945.3,165.65,929.15,169.66,929.15,179.9Zm-15.73,7.39h16.36v16.15H913.42Z"/><path class="cls-14" d="M461.28,261a41.87,41.87,0,0,1-12.15-1.79V227.82H461c9.73,0,15.88,3.82,15.88,16C476.83,254.31,472.27,261,461.28,261Zm-.58-27h-3.92v19.95a19.49,19.49,0,0,0,4.94.63c3.53,0,7-1.74,7-10.75C468.69,236.63,466.71,234,460.7,234Z"/><path class="cls-14" d="M484.87,260.51V242.2l-2.8-.63v-4.79h10.41v23.73Zm-.14-33.61h7.65v6.68h-7.65Z"/><path class="cls-14" d="M513.59,260.51l-1-2.72a8.09,8.09,0,0,1-6.73,3.2c-4.7,0-8.13-3-8.13-7.8,0-4.55,3.38-7.12,9.25-7.12h4.4v-.87c0-2.51-1.69-3.1-3.58-3.1a16.88,16.88,0,0,0-7.07,1.55l-1.89-5.42a25.36,25.36,0,0,1,9.68-1.94c7.32,0,10.27,3.2,10.27,9.44v14.78Zm-2.18-10h-3.05c-2,0-3.1,1-3.1,2.52a2.58,2.58,0,0,0,2.86,2.86,7,7,0,0,0,3.29-1Z"/><path class="cls-14" d="M546.67,236.78l-.1,5.91a14.44,14.44,0,0,1-3.92-1.22,8.46,8.46,0,0,1,1.94,3c0,5.86-5.91,8.28-10.17,8.28a13.51,13.51,0,0,1-3-.39,1,1,0,0,0-.68.92c0,2.52,15-.63,15,8.52,0,5.57-5.47,8.72-11.86,8.72-5.14,0-10.27-1.94-10.27-6.2,0-3,2.52-4.45,6.44-5-3-.34-6.29-1.21-6.29-4.22,0-2.08,2-3.58,4.84-3.77a7.51,7.51,0,0,1-4.36-6.83c0-6.34,6.15-8.14,10.17-8.14C538.49,236.58,543.38,236.78,546.67,236.78Zm-13.46,22.85a2.78,2.78,0,0,0-2.57,2.86c0,1.65,1.36,2.95,3.68,2.95s3.88-1.3,3.88-3.14S536.41,259.87,533.21,259.63Zm4.7-15.25c0-2-1.94-2.71-3.54-2.71s-3.53.68-3.53,2.71c0,2.32,1.84,3,3.53,3S537.91,246.7,537.91,244.38Z"/><path class="cls-14" d="M565.9,260.51v-14c0-3.1-1.31-4.41-3.68-4.41a7.83,7.83,0,0,0-3.34.83v17.58h-7.65V236.78h5.27l1.07,2.66a9.53,9.53,0,0,1,7.55-3.15c6.2,0,8.53,3.63,8.53,9.69v14.53Z"/><path class="cls-14" d="M601.69,248.59c0,8.14-4.17,12.4-11.62,12.4s-11.62-4.26-11.62-12.4c0-7,4.16-12.3,11.62-12.3S601.69,241.62,601.69,248.59ZM583.82,233.1l-.68-4.36,13-3.2.87,5.62Zm10,15.49c0-5.52-1.5-6.78-3.73-6.78s-3.73,1.26-3.73,6.78c0,5.33,1.41,6.78,3.73,6.78S593.8,253.92,593.8,248.59Z"/><path class="cls-14" d="M621.94,242.78a15.17,15.17,0,0,0-5.53-1.06c-1.74,0-2.61.53-2.61,1.5,0,3,9.54,2.23,9.54,9.78,0,4.6-3.34,8-9.93,8a16.12,16.12,0,0,1-7.07-1.6l1.41-5.28a11.59,11.59,0,0,0,5.42,1.5c1.74,0,2.86-.72,2.86-1.93,0-3.49-9.4-2.47-9.4-10.56,0-3.73,2.76-6.83,9.69-6.83a23.36,23.36,0,0,1,6.49.92Z"/><path class="cls-14" d="M645.13,259.29a14.47,14.47,0,0,1-6.73,1.7c-4.45,0-7.74-2.86-7.74-8.52V242.2h-3.39v-5.42h3.53v-4.07l7.46-2.42v6.49h6v5.42h-6v10a2,2,0,0,0,2.18,2.22,8.44,8.44,0,0,0,3.58-.82Z"/><path class="cls-14" d="M651.77,260.51V242.2l-2.8-.63v-4.79h10.41v23.73Zm-.14-33.61h7.65v6.68h-7.65Z"/><path class="cls-14" d="M683.3,243.36a12.09,12.09,0,0,0-5.67-1.35c-2.81,0-4.64,1.64-4.64,6.58,0,4.75,1.59,6.59,4.69,6.59a14,14,0,0,0,6.2-1.7l1.36,5.43A19,19,0,0,1,677,261c-7.55,0-11.81-4.26-11.81-12.4,0-7.6,4.21-12.3,11.77-12.3a16.56,16.56,0,0,1,8.33,1.94Z"/><path class="cls-14" d="M712.31,248.59c0,8.14-4.17,12.4-11.62,12.4s-11.62-4.26-11.62-12.4c0-7,4.16-12.3,11.62-12.3S712.31,241.62,712.31,248.59Zm-7.89,0c0-5.52-1.51-6.78-3.73-6.78s-3.73,1.26-3.73,6.78c0,5.33,1.4,6.78,3.73,6.78S704.42,253.92,704.42,248.59Z"/><path class="cls-14" d="M717.11,253h7.75V261c0,4-2.91,6-7.75,6.49v-4.46c.87-.1,1.69-.87,1.69-2.56l-1.69-1Z"/><path class="cls-14" d="M752.7,260.8c0,7.21-3.29,9.15-7.94,9.15a15.31,15.31,0,0,1-4.65-.73l.87-6.1a6,6,0,0,0,2.09.39c1.35,0,2-.87,2-2.23V242.05l-2.81-.67v-4.6H752.7Zm-7.65-33.9h7.65v6.68h-7.65Z"/><path class="cls-14" d="M776.43,260.51l-1.21-3a9,9,0,0,1-7.41,3.49c-6.25,0-8.86-3.39-8.86-9.93V236.78h7.65v14.48c0,3,1.21,3.92,3.59,3.92a7,7,0,0,0,3.43-.92V236.78h7.75v23.73Z"/><path class="cls-14" d="M802.1,242.78a15.11,15.11,0,0,0-5.52-1.06c-1.74,0-2.61.53-2.61,1.5,0,3,9.54,2.23,9.54,9.78,0,4.6-3.34,8-9.93,8a16.09,16.09,0,0,1-7.07-1.6l1.41-5.28a11.59,11.59,0,0,0,5.42,1.5c1.74,0,2.86-.72,2.86-1.93,0-3.49-9.4-2.47-9.4-10.56,0-3.73,2.76-6.83,9.69-6.83a23.22,23.22,0,0,1,6.48.92Z"/><path class="cls-14" d="M825.3,259.29a14.5,14.5,0,0,1-6.73,1.7c-4.46,0-7.75-2.86-7.75-8.52V242.2h-3.39v-5.42H811v-4.07l7.46-2.42v6.49h6.05v5.42h-6.05v10a2,2,0,0,0,2.17,2.22,8.49,8.49,0,0,0,3.59-.82Z"/><path class="cls-14" d="M831.94,260.51V242.2l-2.81-.63v-4.79h10.41v23.73Zm-.14-33.61h7.64v6.68H831.8Z"/><path class="cls-14" d="M860.71,232.71a10.06,10.06,0,0,0-3-.39,2.66,2.66,0,0,0-2.9,2.86v1.6H860v5.42h-5.13v18.31H847.2V242.2h-3.35v-5.42h3.35v-1.94c0-5.62,3.39-8.57,10-8.57a19.31,19.31,0,0,1,4,.44Z"/><path class="cls-14" d="M865.94,260.51V242.2l-2.81-.63v-4.79h10.41v23.73Zm-.15-33.61h7.65v6.68h-7.65Z"/><path class="cls-14" d="M897.47,243.36A12.09,12.09,0,0,0,891.8,242c-2.81,0-4.65,1.64-4.65,6.58,0,4.75,1.6,6.59,4.7,6.59a14,14,0,0,0,6.2-1.7l1.35,5.43a19,19,0,0,1-8.28,2.08c-7.55,0-11.81-4.26-11.81-12.4,0-7.6,4.21-12.3,11.76-12.3a16.53,16.53,0,0,1,8.33,1.94Z"/><path class="cls-14" d="M919.07,260.51l-1-2.72a8.13,8.13,0,0,1-6.74,3.2c-4.69,0-8.13-3-8.13-7.8,0-4.55,3.39-7.12,9.25-7.12h4.41v-.87c0-2.51-1.7-3.1-3.59-3.1a16.92,16.92,0,0,0-7.07,1.55l-1.89-5.42a25.46,25.46,0,0,1,9.69-1.94c7.31,0,10.26,3.2,10.26,9.44v14.78Zm-2.18-10h-3c-2,0-3.1,1-3.1,2.52a2.58,2.58,0,0,0,2.85,2.86,7,7,0,0,0,3.3-1Z"/><path class="cls-14" d="M947.74,243.36a12.09,12.09,0,0,0-5.67-1.35c-2.8,0-4.65,1.64-4.65,6.58,0,4.75,1.6,6.59,4.7,6.59a14,14,0,0,0,6.2-1.7l1.36,5.43A19,19,0,0,1,941.4,261c-7.56,0-11.82-4.26-11.82-12.4,0-7.6,4.21-12.3,11.77-12.3a16.56,16.56,0,0,1,8.33,1.94Z"/><path class="cls-14" d="M956.55,260.51V242.2l-2.8-.63v-4.79h10.41v23.73Zm-.14-33.61h7.65v6.68h-7.65Z"/><path class="cls-14" d="M992.68,248.59c0,8.14-4.16,12.4-11.62,12.4s-11.62-4.26-11.62-12.4c0-7,4.16-12.3,11.62-12.3S992.68,241.62,992.68,248.59ZM974.81,233.1l-.67-4.36,13-3.2.87,5.62Zm10,15.49c0-5.52-1.5-6.78-3.73-6.78s-3.73,1.26-3.73,6.78c0,5.33,1.41,6.78,3.73,6.78S984.79,253.92,984.79,248.59Z"/><path class="cls-14" d="M1012.64,260.51v-14c0-3.1-1.31-4.41-3.68-4.41a7.83,7.83,0,0,0-3.34.83v17.58H998V236.78h5.27l1.07,2.66a9.53,9.53,0,0,1,7.55-3.15c6.2,0,8.53,3.63,8.53,9.69v14.53Z"/><path class="cls-14" d="M459,301.29l-5,1-7.11-24h8.61l4.31,19h.15l4.41-19h7.55L464.58,303c-2,6.49-5.77,9-10.8,9a13.33,13.33,0,0,1-7.31-2.57l2.37-5.23h.72a8.18,8.18,0,0,0,4.56,1.79c2.42,0,4.16-1.79,4.74-4.16Z"/><path class="cls-14" d="M502.4,274.22a10,10,0,0,0-2.95-.38,2.66,2.66,0,0,0-2.91,2.85v1.6h5.14v5.43h-5.14V302h-7.65v-18.3h-3.34v-5.43h3.34v-1.94c0-5.61,3.39-8.57,10-8.57a20.14,20.14,0,0,1,4,.44Z"/><path class="cls-14" d="M522.55,302l-1.21-3a9,9,0,0,1-7.41,3.48c-6.24,0-8.86-3.39-8.86-9.92V278.29h7.65v14.48c0,3,1.21,3.92,3.58,3.92a6.89,6.89,0,0,0,3.44-.92V278.29h7.75V302Z"/><path class="cls-14" d="M547.93,302V288c0-3.1-1.31-4.4-3.68-4.4a8,8,0,0,0-3.34.82V302h-7.65V278.29h5.27L539.6,281a9.52,9.52,0,0,1,7.55-3.15c6.2,0,8.53,3.63,8.53,9.68V302Z"/><path class="cls-14" d="M576.75,280.23a11.5,11.5,0,0,1-.78-4.55v-7.07h7.61V302h-6.35l-.77-2.52a7,7,0,0,1-6,3c-5.27,0-9.73-3.72-9.73-12.35,0-8.13,4.84-12.34,10.31-12.34A7,7,0,0,1,576.75,280.23Zm-.78,4.16a7.7,7.7,0,0,0-3.58-.92c-2.28,0-4.07,1.31-4.07,6.64,0,5.52,1.74,6.82,4,6.82a5.56,5.56,0,0,0,3.63-1.5Z"/><path class="cls-14" d="M604.69,302l-1-2.71A8.09,8.09,0,0,1,597,302.5c-4.69,0-8.13-3-8.13-7.79,0-4.56,3.39-7.12,9.25-7.12h4.4v-.87c0-2.52-1.69-3.1-3.58-3.1a16.88,16.88,0,0,0-7.07,1.55L590,279.74a25.42,25.42,0,0,1,9.69-1.93c7.31,0,10.26,3.19,10.26,9.44V302Zm-2.18-10h-3c-2,0-3.1,1-3.1,2.52a2.58,2.58,0,0,0,2.86,2.85,6.94,6.94,0,0,0,3.29-1Z"/><path class="cls-14" d="M638,287.49V302h-7.75V288c0-3.1-1.31-4.4-3.68-4.4a7.34,7.34,0,0,0-3.2.82V302h-7.65V278.29h5.13L622,281a8.61,8.61,0,0,1,7-3.15c4,0,6.34,1.11,7.6,3.15a8.85,8.85,0,0,1,7-3.15c7.31,0,9,3.63,9,9.68V302h-7.75V288c0-3.1-1.45-4.4-3.82-4.4a7.56,7.56,0,0,0-3.25.82A19.62,19.62,0,0,1,638,287.49Z"/><path class="cls-14" d="M665.14,292.19c0,2.71,1.74,4.5,5.42,4.5a17.31,17.31,0,0,0,6.69-1.74l1.35,5.33a20.89,20.89,0,0,1-9.2,2.22c-7.6,0-12-4.69-12-12.39,0-7.17,3.44-12.3,11.48-12.3,7.41,0,10.36,5.28,10.36,11.23v3.15Zm3.49-8.81c-2.52,0-3.49,2.27-3.49,4.45H672C672,285.31,671.24,283.38,668.63,283.38Z"/><path class="cls-14" d="M699.18,302V288c0-3.1-1.3-4.4-3.68-4.4a8,8,0,0,0-3.34.82V302h-7.65V278.29h5.28l1.07,2.67a9.49,9.49,0,0,1,7.55-3.15c6.2,0,8.52,3.63,8.52,9.68V302Z"/><path class="cls-14" d="M728.87,300.81a14.63,14.63,0,0,1-6.73,1.69c-4.45,0-7.75-2.85-7.75-8.52V283.72H711v-5.43h3.54v-4.07L722,271.8v6.49h6v5.43h-6v10a2,2,0,0,0,2.18,2.23,8.34,8.34,0,0,0,3.58-.83Z"/><path class="cls-14" d="M755.7,290.11c0,8.13-4.16,12.39-11.62,12.39s-11.62-4.26-11.62-12.39c0-7,4.16-12.3,11.62-12.3S755.7,283.13,755.7,290.11Zm-7.89,0c0-5.52-1.5-6.78-3.73-6.78s-3.73,1.26-3.73,6.78c0,5.32,1.41,6.78,3.73,6.78S747.81,295.43,747.81,290.11Z"/><path class="cls-14" d="M776,284.3a15.11,15.11,0,0,0-5.52-1.07c-1.74,0-2.62.53-2.62,1.5,0,3,9.54,2.23,9.54,9.79,0,4.59-3.34,8-9.92,8a16.1,16.1,0,0,1-7.07-1.59l1.4-5.28a11.6,11.6,0,0,0,5.43,1.5c1.74,0,2.85-.73,2.85-1.94,0-3.49-9.39-2.47-9.39-10.55,0-3.73,2.76-6.83,9.68-6.83a22.93,22.93,0,0,1,6.49.92Z"/><path class="cls-14" d="M782.49,278.29h7.75v7.56h-7.75Zm0,16.18h7.75V302h-7.75Z"/><path class="cls-15" d="M448.23,360V323.67h4V334a13.68,13.68,0,0,1-.36,3.26,10.63,10.63,0,0,1,7.79-3.63c6.31,0,8.89,3.53,8.89,10.05V360h-4.11V344.41c0-4.79-1.89-7.58-5.89-7.58-2.68,0-4.74,1.52-6.32,2.95V360Z"/><path class="cls-15" d="M477.92,348.25c0,6.37,3.27,9.16,8.16,9.16a15.94,15.94,0,0,0,8-2.58l1,2.84a18.4,18.4,0,0,1-9.42,2.84c-7.05,0-11.74-4.68-11.74-13.58,0-8.16,4-13.26,11.06-13.26,7.26,0,10.31,5.84,10.31,12.32v2.26Zm6.9-11.53c-4.9,0-6.9,4.32-6.9,8.74H491.4C491.4,341,489.87,336.72,484.82,336.72Z"/><path class="cls-15" d="M521.46,343.72V360H517.4V344.41c0-4.9-1.42-7.58-5.79-7.58-2.73,0-4.63,1.52-6.21,2.95V360h-4V334.2H504l.84,3.1a10.85,10.85,0,0,1,7.84-3.63c3.84,0,6.32,1.37,7.58,3.95a11.22,11.22,0,0,1,8.05-3.95c6.32,0,9.11,3.53,9.11,10.05V360h-4.05V344.41c0-4.9-1.85-7.58-6.22-7.58a9.22,9.22,0,0,0-6.15,2.95A15.31,15.31,0,0,1,521.46,343.72Z"/><path class="cls-15" d="M564.94,347c0,8.68-4.21,13.47-11.1,13.47s-11-4.68-11-13.47c0-7.58,3.58-13.37,11-13.37C561,333.67,564.94,339.36,564.94,347Zm-4.1,0c0-6.74-2.27-10.37-7-10.37s-7,3.79-7,10.37c0,6.32,1.84,10.47,7,10.47S560.84,353.93,560.84,347Z"/><path class="cls-15" d="M574,340.51c0,5.53,12.79,3.58,12.79,12.32,0,4.16-3.21,7.68-9,7.68A15.45,15.45,0,0,1,570,358.3l1.16-2.94a12.1,12.1,0,0,0,6.58,2.15c3.15,0,5.1-1.73,5.1-4.42,0-6.21-12.63-3.89-12.63-12.63,0-3.47,2.63-6.79,8.53-6.79a16.8,16.8,0,0,1,7.73,1.68l-.94,2.95a13.9,13.9,0,0,0-6.74-1.58C575.53,336.72,574,338.14,574,340.51Z"/><path class="cls-15" d="M606.27,360V337.41l-2.84-.58V334.2h6.74V360ZM605.9,324h4.27v4.21H605.9Z"/><path class="cls-15" d="M634.17,356.88a9.75,9.75,0,0,1-7.42,3.63c-6.11,0-10.37-4.52-10.37-13.47,0-7.84,3.89-13.37,10.79-13.37a10.84,10.84,0,0,1,6.9,2.21,35.31,35.31,0,0,1-.21-4.21v-8h4V360h-3Zm-.31-18.32a11.1,11.1,0,0,0-6.27-1.84c-4.84,0-7.16,3.79-7.16,10.32,0,6.37,2.06,10.47,6.9,10.47,2.31,0,4.42-1,6.53-3.26Z"/><path class="cls-15" d="M648,348.25c0,6.37,3.27,9.16,8.16,9.16a15.94,15.94,0,0,0,8-2.58l1,2.84a18.43,18.43,0,0,1-9.42,2.84c-7.05,0-11.74-4.68-11.74-13.58,0-8.16,4-13.26,11.06-13.26,7.26,0,10.31,5.84,10.31,12.32v2.26Zm6.9-11.53c-4.9,0-6.9,4.32-6.9,8.74h13.48C661.44,341,659.91,336.72,654.86,336.72Z"/><path class="cls-15" d="M687.66,360V344.41c0-4.9-1.53-7.58-5.9-7.58-2.68,0-4.74,1.52-6.32,2.95V360h-4V334.2h2.69l.79,3.05a11.26,11.26,0,0,1,8.1-3.58c6.06,0,8.74,3.63,8.74,10.05V360Z"/><path class="cls-15" d="M706.87,360.51c-3.63,0-6.63-1.84-6.63-7.89V337.09h-3.89V334.2h3.89v-4.69l4-1.26v5.95h7.53v2.89h-7.53v16c0,2.74,1,4.06,3.42,4.06a11.16,11.16,0,0,0,4.11-1.11l.79,2.95A12.68,12.68,0,0,1,706.87,360.51Z"/><path class="cls-15" d="M719.82,360V337.41l-2.84-.58V334.2h6.74V360ZM719.45,324h4.27v4.21h-4.27Z"/><path class="cls-15" d="M745.25,326.56a11.82,11.82,0,0,0-3.32-.47c-3.47,0-5,2-5,6.05v2.06H743v3.05h-6.11V360H733V337.25h-4.16V334.2H733v-2.32c0-5.89,2.84-9.11,8.63-9.11a16.89,16.89,0,0,1,4,.53Z"/><path class="cls-15" d="M749.67,360V337.41l-2.84-.58V334.2h6.74V360ZM749.31,324h4.26v4.21h-4.26Z"/><path class="cls-15" d="M779.63,358.25a18.34,18.34,0,0,1-8.59,2.26c-6.52,0-11.26-3.84-11.26-13.42,0-8.74,4.79-13.42,11.26-13.42a16.69,16.69,0,0,1,8.43,2.05l-1.16,2.84a14.06,14.06,0,0,0-7-1.68c-4.64,0-7.48,3.68-7.48,10.21,0,7.26,2.84,10.32,7.48,10.32a14.6,14.6,0,0,0,7.42-2.16Z"/><path class="cls-15" d="M800.84,360l-.68-3.32a10.17,10.17,0,0,1-7.95,3.84c-5.26,0-8.32-3.52-8.32-7.89s3.27-7.37,9.11-7.37h6.68V343.2c0-4.48-1.94-6.37-5.84-6.37a19.1,19.1,0,0,0-7.79,1.68l-1-2.89a22.64,22.64,0,0,1,9.37-1.95c6.1,0,9.21,3.16,9.21,9.32v17Zm-1.16-12h-6c-4.37,0-5.84,1.89-5.84,4.47,0,3.11,1.68,5.16,5.42,5.16a9.07,9.07,0,0,0,6.47-3.21Z"/><path class="cls-15" d="M827.43,356.88a9.76,9.76,0,0,1-7.43,3.63c-6.1,0-10.36-4.52-10.36-13.47,0-7.84,3.89-13.37,10.79-13.37a10.79,10.79,0,0,1,6.89,2.21,35.31,35.31,0,0,1-.21-4.21v-8h4V360h-3Zm-.32-18.32a11.06,11.06,0,0,0-6.26-1.84c-4.85,0-7.16,3.79-7.16,10.32,0,6.37,2,10.47,6.9,10.47,2.31,0,4.42-1,6.52-3.26Z"/><path class="cls-15" d="M859.28,347c0,8.68-4.22,13.47-11.11,13.47s-11-4.68-11-13.47c0-7.58,3.58-13.37,11-13.37C855.33,333.67,859.28,339.36,859.28,347Zm-4.11,0c0-6.74-2.26-10.37-7-10.37s-6.95,3.79-6.95,10.37c0,6.32,1.84,10.47,6.95,10.47S855.17,353.93,855.17,347Z"/><path class="cls-15" d="M894.07,360,893.5,357a11,11,0,0,1-8,3.47c-5.74,0-8.9-3.42-8.9-10.47V334.2h4v15.58c0,5.31,1.68,7.52,5.84,7.52a10.2,10.2,0,0,0,6.37-2.52V334.2h4.05V360Z"/><path class="cls-15" d="M919.71,360V344.41c0-4.9-1.53-7.58-5.89-7.58-2.69,0-4.74,1.52-6.32,2.95V360h-4V334.2h2.68l.79,3.05a11.28,11.28,0,0,1,8.11-3.58c6,0,8.74,3.63,8.74,10.05V360Z"/><path class="cls-15" d="M946.19,360l-.68-3.32a10.17,10.17,0,0,1-8,3.84c-5.27,0-8.32-3.52-8.32-7.89s3.26-7.37,9.11-7.37H945V343.2c0-4.48-1.94-6.37-5.84-6.37a19.1,19.1,0,0,0-7.79,1.68l-1-2.89a22.6,22.6,0,0,1,9.37-1.95c6.1,0,9.21,3.16,9.21,9.32v17ZM945,348h-6c-4.37,0-5.84,1.89-5.84,4.47,0,3.11,1.68,5.16,5.42,5.16a9.07,9.07,0,0,0,6.47-3.21Z"/><path class="cls-15" d="M469.44,392.16c0,8.69-4.21,13.48-11.1,13.48s-11-4.69-11-13.48c0-7.58,3.58-13.37,11-13.37C465.5,378.79,469.44,384.48,469.44,392.16Zm-4.1,0c0-6.73-2.26-10.37-7-10.37s-6.95,3.79-6.95,10.37c0,6.32,1.84,10.48,6.95,10.48S465.34,399.06,465.34,392.16Z"/><path class="cls-15" d="M479.55,406.85v8.26H475.5V379.32h3.11l.63,3.05a10.38,10.38,0,0,1,7.53-3.58c6.58,0,9.84,4.69,9.84,13.37,0,9.11-4.53,13.48-10.69,13.48a9.07,9.07,0,0,1-6.94-2.95A24.4,24.4,0,0,1,479.55,406.85Zm0-7a8.66,8.66,0,0,0,6.11,2.79c4.69,0,6.9-3.06,6.9-10.48,0-6.79-1.95-10.26-6.64-10.26a9.27,9.27,0,0,0-6.37,3Z"/><path class="cls-15" d="M523.93,392.16c0,8.69-4.21,13.48-11.1,13.48s-11-4.69-11-13.48c0-7.58,3.58-13.37,11-13.37C520,378.79,523.93,384.48,523.93,392.16Zm-4.1,0c0-6.73-2.27-10.37-7-10.37s-7,3.79-7,10.37c0,6.32,1.84,10.48,7,10.48S519.83,399.06,519.83,392.16Z"/><path class="cls-15" d="M543.1,382.79a10.48,10.48,0,0,0-3.32-.47,8.25,8.25,0,0,0-5.79,2.79v20h-4V379.32h2.68l.74,3.26A8.56,8.56,0,0,1,540.1,379a11.74,11.74,0,0,1,3.26.42Z"/><path class="cls-15" d="M556.52,405.64c-3.63,0-6.63-1.84-6.63-7.9V382.21H546v-2.89h3.89v-4.68l4-1.27v5.95h7.53v2.89h-7.53v16c0,2.73,1,4,3.42,4a11.16,11.16,0,0,0,4.11-1.11l.79,2.95A12.55,12.55,0,0,1,556.52,405.64Z"/><path class="cls-15" d="M584.58,405.11l-.58-2.95a11,11,0,0,1-8,3.48c-5.74,0-8.9-3.42-8.9-10.48V379.32h4V394.9c0,5.32,1.69,7.53,5.85,7.53a10.18,10.18,0,0,0,6.37-2.53V379.32h4v25.79Z"/><path class="cls-15" d="M610.22,405.11V389.53c0-4.89-1.53-7.58-5.9-7.58-2.68,0-4.74,1.53-6.32,2.95v20.21h-4V379.32h2.69l.79,3.05a11.29,11.29,0,0,1,8.1-3.58c6.06,0,8.74,3.64,8.74,10.06v16.26Z"/><path class="cls-15" d="M622.8,405.11V382.53L620,382v-2.63h6.74v25.79Zm-.37-35.95h4.27v4.21h-4.27Z"/><path class="cls-15" d="M650.7,402a9.78,9.78,0,0,1-7.42,3.63c-6.11,0-10.37-4.53-10.37-13.48,0-7.84,3.89-13.37,10.79-13.37a10.84,10.84,0,0,1,6.9,2.22,35.48,35.48,0,0,1-.21-4.22v-8h4v36.32h-3Zm-.31-18.32a11.1,11.1,0,0,0-6.27-1.84c-4.84,0-7.16,3.79-7.16,10.31,0,6.37,2.06,10.48,6.9,10.48,2.31,0,4.42-1,6.53-3.27Z"/><path class="cls-15" d="M677.29,405.11l-.69-3.32a10.17,10.17,0,0,1-8,3.85c-5.26,0-8.32-3.53-8.32-7.9s3.27-7.37,9.11-7.37h6.69v-2.05c0-4.47-2-6.37-5.85-6.37a18.92,18.92,0,0,0-7.79,1.69l-1-2.9a22.81,22.81,0,0,1,9.37-1.95c6.11,0,9.21,3.16,9.21,9.32v17Zm-1.16-12h-6.06c-4.36,0-5.84,1.9-5.84,4.47,0,3.11,1.69,5.16,5.42,5.16a9.08,9.08,0,0,0,6.48-3.21Z"/><path class="cls-15" d="M703.87,402a9.78,9.78,0,0,1-7.42,3.63c-6.11,0-10.37-4.53-10.37-13.48,0-7.84,3.89-13.37,10.79-13.37a10.79,10.79,0,0,1,6.89,2.22,37.72,37.72,0,0,1-.21-4.22v-8h4v36.32h-3Zm-.32-18.32a11,11,0,0,0-6.26-1.84c-4.84,0-7.16,3.79-7.16,10.31,0,6.37,2,10.48,6.9,10.48,2.31,0,4.42-1,6.52-3.27Z"/><path class="cls-15" d="M713.77,399.22h3.94v6c0,4.52-1.26,5.79-3.94,6.21V409.9c1-.37,1.26-1.42,1.26-4.79l-1.26-.26Z"/><path class="cls-15" d="M751.78,405.11V389.53c0-4.89-1.53-7.58-5.9-7.58-2.69,0-4.74,1.53-6.32,2.95v20.21h-4V379.32h2.69l.79,3.05a11.29,11.29,0,0,1,8.1-3.58c6.06,0,8.74,3.64,8.74,10.06v16.26Z"/><path class="cls-15" d="M765.47,393.37c0,6.37,3.26,9.16,8.15,9.16a15.92,15.92,0,0,0,8-2.58l1,2.85a18.5,18.5,0,0,1-9.42,2.84c-7.05,0-11.74-4.69-11.74-13.58,0-8.16,4-13.27,11.06-13.27,7.26,0,10.31,5.85,10.31,12.32v2.26Zm6.89-11.52c-4.89,0-6.89,4.31-6.89,8.73h13.47C778.94,386.11,777.41,381.85,772.36,381.85Z"/><path class="cls-15" d="M808,403.37a18.28,18.28,0,0,1-8.58,2.27c-6.53,0-11.26-3.85-11.26-13.42,0-8.74,4.79-13.43,11.26-13.43a16.66,16.66,0,0,1,8.42,2.06l-1.16,2.84a14,14,0,0,0-7-1.69c-4.63,0-7.47,3.69-7.47,10.22,0,7.26,2.84,10.31,7.47,10.31a14.59,14.59,0,0,0,7.42-2.15Z"/><path class="cls-15" d="M816.43,393.37c0,6.37,3.26,9.16,8.16,9.16a15.91,15.91,0,0,0,8-2.58l1,2.85a18.5,18.5,0,0,1-9.42,2.84c-7,0-11.73-4.69-11.73-13.58,0-8.16,4-13.27,11.05-13.27,7.26,0,10.32,5.85,10.32,12.32v2.26Zm6.89-11.52c-4.89,0-6.89,4.31-6.89,8.73H829.9C829.9,386.11,828.38,381.85,823.32,381.85Z"/><path class="cls-15" d="M842.85,385.64c0,5.52,12.79,3.58,12.79,12.31,0,4.16-3.21,7.69-8.94,7.69a15.52,15.52,0,0,1-7.79-2.21l1.15-2.95a12.08,12.08,0,0,0,6.58,2.16c3.16,0,5.11-1.74,5.11-4.42,0-6.22-12.63-3.9-12.63-12.64,0-3.47,2.63-6.79,8.52-6.79a16.69,16.69,0,0,1,7.74,1.69l-1,2.95a13.75,13.75,0,0,0-6.73-1.58C844.43,381.85,842.85,383.27,842.85,385.64Z"/><path class="cls-15" d="M863.59,405.11V382.53l-2.84-.58v-2.63h6.74v25.79Zm-.36-35.95h4.26v4.21h-4.26Z"/><path class="cls-15" d="M891.49,402a9.75,9.75,0,0,1-7.42,3.63c-6.1,0-10.36-4.53-10.36-13.48,0-7.84,3.89-13.37,10.78-13.37a10.82,10.82,0,0,1,6.9,2.22,35.48,35.48,0,0,1-.21-4.22v-8h4v36.32h-3Zm-.31-18.32a11.06,11.06,0,0,0-6.26-1.84c-4.85,0-7.16,3.79-7.16,10.31,0,6.37,2,10.48,6.89,10.48,2.32,0,4.42-1,6.53-3.27Z"/><path class="cls-15" d="M918.08,405.11l-.69-3.32a10.13,10.13,0,0,1-7.94,3.85c-5.27,0-8.32-3.53-8.32-7.9s3.26-7.37,9.11-7.37h6.68v-2.05c0-4.47-1.95-6.37-5.84-6.37a18.88,18.88,0,0,0-7.79,1.69l-1-2.9a22.75,22.75,0,0,1,9.36-1.95c6.11,0,9.22,3.16,9.22,9.32v17Zm-1.16-12h-6c-4.37,0-5.84,1.9-5.84,4.47,0,3.11,1.68,5.16,5.42,5.16a9.07,9.07,0,0,0,6.47-3.21Z"/><path class="cls-15" d="M944.66,402a9.77,9.77,0,0,1-7.42,3.63c-6.1,0-10.37-4.53-10.37-13.48,0-7.84,3.9-13.37,10.79-13.37a10.82,10.82,0,0,1,6.9,2.22,35.48,35.48,0,0,1-.21-4.22v-8h4v36.32h-3Zm-.31-18.32a11.07,11.07,0,0,0-6.27-1.84c-4.84,0-7.15,3.79-7.15,10.31,0,6.37,2.05,10.48,6.89,10.48,2.32,0,4.42-1,6.53-3.27Z"/><path class="cls-15" d="M469.44,437.29c0,8.68-4.21,13.47-11.1,13.47s-11-4.68-11-13.47c0-7.58,3.58-13.37,11-13.37C465.5,423.92,469.44,429.6,469.44,437.29Zm-4.1,0c0-6.74-2.26-10.37-7-10.37s-6.95,3.79-6.95,10.37c0,6.31,1.84,10.47,6.95,10.47S465.34,444.18,465.34,437.29Z"/><path class="cls-15" d="M491.14,452v8.27h-4.06V424.45h3.11l.63,3.05a10.4,10.4,0,0,1,7.53-3.58c6.58,0,9.84,4.68,9.84,13.37,0,9.1-4.53,13.47-10.68,13.47a9.06,9.06,0,0,1-6.95-2.94A23.83,23.83,0,0,1,491.14,452Zm0-7a8.6,8.6,0,0,0,6.1,2.79c4.69,0,6.9-3.05,6.9-10.47,0-6.79-1.95-10.27-6.63-10.27a9.27,9.27,0,0,0-6.37,3Z"/><path class="cls-15" d="M527.41,427.92a10.11,10.11,0,0,0-3.32-.48,8.26,8.26,0,0,0-5.79,2.8v20h-4V424.45H517l.74,3.26a8.49,8.49,0,0,1,6.68-3.63,11.74,11.74,0,0,1,3.26.42Z"/><path class="cls-15" d="M553.36,437.29c0,8.68-4.21,13.47-11.1,13.47s-11-4.68-11-13.47c0-7.58,3.58-13.37,11-13.37C549.41,423.92,553.36,429.6,553.36,437.29Zm-4.1,0c0-6.74-2.27-10.37-7-10.37s-7,3.79-7,10.37c0,6.31,1.84,10.47,7,10.47S549.26,444.18,549.26,437.29Z"/><path class="cls-15" d="M563,427.39a11.07,11.07,0,0,1,7.68-3.47c6.58,0,10,4.68,10,13.37,0,9.1-4.52,13.47-10.73,13.47a10,10,0,0,1-7.48-3.31l-.84,2.79h-2.21V413.92h4v10Zm.42,17.42a9.12,9.12,0,0,0,6.26,2.95c4.53,0,7-3.05,7-10.47,0-6.79-2-10.32-6.68-10.32a9.64,9.64,0,0,0-6.53,2.9Z"/><path class="cls-15" d="M587,443.13V413.92H591V444.6c0,2.21,1,3.11,3.85,3.11h.84v2.74a12.26,12.26,0,0,1-2.53.31C588.22,450.76,587,448,587,443.13Z"/><path class="cls-15" d="M603.8,438.5c0,6.37,3.26,9.16,8.15,9.16a15.94,15.94,0,0,0,8-2.58l1,2.84a18.47,18.47,0,0,1-9.43,2.84c-7,0-11.73-4.68-11.73-13.58,0-8.16,4-13.26,11.05-13.26,7.26,0,10.32,5.84,10.32,12.32v2.26ZM610.69,427c-4.89,0-6.89,4.32-6.89,8.74h13.47C617.27,431.23,615.74,427,610.69,427Z"/><path class="cls-15" d="M647.33,434v16.27h-4.05V434.66c0-4.9-1.42-7.58-5.79-7.58-2.74,0-4.63,1.52-6.21,2.94v20.22h-4V424.45h2.63l.84,3.1a10.84,10.84,0,0,1,7.85-3.63c3.84,0,6.31,1.37,7.57,3.95a11.23,11.23,0,0,1,8.06-3.95c6.31,0,9.1,3.52,9.1,10.05v16.27h-4.05V434.66c0-4.9-1.84-7.58-6.21-7.58a9.28,9.28,0,0,0-6.16,2.94A15,15,0,0,1,647.33,434Z"/><path class="cls-15" d="M685.55,450.24l-.68-3.32a10.17,10.17,0,0,1-8,3.84c-5.27,0-8.32-3.53-8.32-7.89s3.27-7.37,9.11-7.37h6.68v-2.06c0-4.47-1.94-6.36-5.84-6.36a19.1,19.1,0,0,0-7.79,1.68l-1-2.89a22.6,22.6,0,0,1,9.37-1.95c6.1,0,9.21,3.16,9.21,9.31v17Zm-1.16-12h-6c-4.37,0-5.84,1.89-5.84,4.47,0,3.11,1.68,5.16,5.42,5.16a9.07,9.07,0,0,0,6.47-3.21Z"/><path class="cls-15" d="M715.61,450.08l-2.63.21-8.26-25.84h4.42s4.84,15.68,7.05,23.42c2.26-7.79,7-23.42,7-23.42h4.11L719,450c-2.68,8.21-5.37,10.84-10.31,10.84a10.29,10.29,0,0,1-5.74-2.05l1.32-2.68h.31a7.5,7.5,0,0,0,4.32,1.63c3,0,4.73-1.79,6.37-6.69Z"/><path class="cls-15" d="M746,430.76c0,5.53,12.79,3.58,12.79,12.32,0,4.15-3.21,7.68-9,7.68a15.48,15.48,0,0,1-7.79-2.21l1.16-2.95a12.05,12.05,0,0,0,6.58,2.16c3.16,0,5.11-1.73,5.11-4.42,0-6.21-12.64-3.9-12.64-12.63,0-3.48,2.64-6.79,8.53-6.79a16.84,16.84,0,0,1,7.74,1.68l-1,2.95a13.87,13.87,0,0,0-6.74-1.58C747.62,427,746,428.39,746,430.76Z"/><path class="cls-15" d="M785.94,437.29c0,8.68-4.21,13.47-11.1,13.47s-11-4.68-11-13.47c0-7.58,3.58-13.37,11-13.37C782,423.92,785.94,429.6,785.94,437.29Zm-4.1,0c0-6.74-2.27-10.37-7-10.37s-7,3.79-7,10.37c0,6.31,1.84,10.47,7,10.47S781.84,444.18,781.84,437.29Z"/><path class="cls-15" d="M808.21,450.24V434.66c0-4.9-1.53-7.58-5.89-7.58-2.69,0-4.74,1.52-6.32,2.94v20.22h-4V424.45h2.68l.79,3.05a11.3,11.3,0,0,1,8.11-3.58c6,0,8.74,3.63,8.74,10.05v16.27Zm-3.52-30.38L799.47,418a2.81,2.81,0,0,0-3.78,1.48l-2.16-.95c.68-2.79,3.05-4.74,6.37-3.53l5,1.79a2.46,2.46,0,0,0,3.42-1.52l2,.78C810,419.13,807.85,421,804.69,419.86Z"/><path class="cls-15" d="M834.69,450.24l-.68-3.32a10.17,10.17,0,0,1-8,3.84c-5.26,0-8.31-3.53-8.31-7.89s3.26-7.37,9.1-7.37h6.69v-2.06c0-4.47-1.95-6.36-5.85-6.36a19.1,19.1,0,0,0-7.79,1.68l-1-2.89a22.6,22.6,0,0,1,9.37-1.95c6.1,0,9.21,3.16,9.21,9.31v17Zm-1.15-12h-6.06c-4.37,0-5.84,1.89-5.84,4.47,0,3.11,1.68,5.16,5.42,5.16a9.11,9.11,0,0,0,6.48-3.21Z"/><path class="cls-15" d="M864.33,434v16.27h-4.05V434.66c0-4.9-1.43-7.58-5.79-7.58-2.74,0-4.63,1.52-6.21,2.94v20.22h-4V424.45h2.63l.84,3.1a10.82,10.82,0,0,1,7.84-3.63c3.84,0,6.32,1.37,7.58,3.95a11.23,11.23,0,0,1,8.06-3.95c6.31,0,9.1,3.52,9.1,10.05v16.27h-4.05V434.66c0-4.9-1.85-7.58-6.21-7.58a9.28,9.28,0,0,0-6.16,2.94A15,15,0,0,1,864.33,434Z"/><path class="cls-15" d="M907.81,437.29c0,8.68-4.21,13.47-11.1,13.47s-11-4.68-11-13.47c0-7.58,3.58-13.37,11-13.37C903.87,423.92,907.81,429.6,907.81,437.29Zm-4.1,0c0-6.74-2.27-10.37-7-10.37s-7,3.79-7,10.37c0,6.31,1.84,10.47,7,10.47S903.71,444.18,903.71,437.29Z"/><path class="cls-15" d="M916.82,430.76c0,5.53,12.79,3.58,12.79,12.32,0,4.15-3.21,7.68-9,7.68a15.48,15.48,0,0,1-7.79-2.21L914,445.6a12,12,0,0,0,6.58,2.16c3.16,0,5.1-1.73,5.1-4.42,0-6.21-12.63-3.9-12.63-12.63,0-3.48,2.64-6.79,8.53-6.79a16.84,16.84,0,0,1,7.74,1.68l-1,2.95a13.9,13.9,0,0,0-6.74-1.58C918.4,427,916.82,428.39,916.82,430.76Z"/><path class="cls-15" d="M966.14,448.5a18.38,18.38,0,0,1-8.58,2.26c-6.52,0-11.26-3.84-11.26-13.42,0-8.74,4.79-13.42,11.26-13.42A16.69,16.69,0,0,1,966,426l-1.16,2.84a14,14,0,0,0-7.06-1.68c-4.63,0-7.47,3.68-7.47,10.21,0,7.26,2.84,10.32,7.47,10.32a14.6,14.6,0,0,0,7.43-2.16Z"/><path class="cls-15" d="M992.63,437.29c0,8.68-4.21,13.47-11.11,13.47s-11-4.68-11-13.47c0-7.58,3.58-13.37,11-13.37C988.68,423.92,992.63,429.6,992.63,437.29Zm-4.11,0c0-6.74-2.26-10.37-7-10.37s-6.95,3.79-6.95,10.37c0,6.31,1.84,10.47,6.95,10.47S988.52,444.18,988.52,437.29Z"/><path class="cls-15" d="M1014.89,450.24V434.66c0-4.9-1.52-7.58-5.89-7.58-2.68,0-4.74,1.52-6.32,2.94v20.22h-4V424.45h2.69l.79,3.05a11.26,11.26,0,0,1,8.1-3.58c6,0,8.74,3.63,8.74,10.05v16.27Z"/><path class="cls-15" d="M467.29,493.62a18.32,18.32,0,0,1-8.58,2.27c-6.53,0-11.27-3.85-11.27-13.43,0-8.73,4.79-13.42,11.27-13.42a16.68,16.68,0,0,1,8.42,2L466,473.94a14,14,0,0,0-7.05-1.69c-4.64,0-7.48,3.69-7.48,10.21,0,7.27,2.84,10.32,7.48,10.32a14.5,14.5,0,0,0,7.42-2.16Z"/><path class="cls-15" d="M488.5,495.36l-.68-3.32a10.17,10.17,0,0,1-7.95,3.85c-5.26,0-8.32-3.53-8.32-7.9s3.27-7.37,9.11-7.37h6.68v-2.05c0-4.47-1.94-6.37-5.84-6.37a18.92,18.92,0,0,0-7.79,1.69l-1-2.9A22.81,22.81,0,0,1,482,469c6.1,0,9.21,3.16,9.21,9.32v17Zm-1.16-12h-6c-4.37,0-5.84,1.89-5.84,4.47,0,3.11,1.68,5.16,5.42,5.16a9,9,0,0,0,6.47-3.21Z"/><path class="cls-15" d="M518.14,479.1v16.26h-4V479.78c0-4.9-1.42-7.58-5.79-7.58-2.74,0-4.63,1.53-6.21,2.95v20.21h-4V469.57h2.63l.84,3.1A10.85,10.85,0,0,1,509.4,469c3.85,0,6.32,1.37,7.58,3.95A11.24,11.24,0,0,1,525,469c6.31,0,9.1,3.53,9.1,10.06v16.26h-4V479.78c0-4.9-1.84-7.58-6.21-7.58a9.25,9.25,0,0,0-6.16,2.95A15.39,15.39,0,0,1,518.14,479.1Z"/><path class="cls-15" d="M544,472.52a11.06,11.06,0,0,1,7.69-3.48c6.58,0,10,4.69,10,13.37,0,9.11-4.53,13.48-10.74,13.48a10,10,0,0,1-7.47-3.32l-.85,2.79h-2.21V459h4v10Zm.42,17.42a9.18,9.18,0,0,0,6.27,2.95c4.52,0,7-3.06,7-10.48,0-6.79-2-10.31-6.69-10.31a9.63,9.63,0,0,0-6.53,2.89Z"/><path class="cls-15" d="M569.84,495.36V472.78L567,472.2v-2.63h6.73v25.79Zm-.37-35.95h4.26v4.21h-4.26Z"/><path class="cls-15" d="M596.69,495.36,596,492a10.15,10.15,0,0,1-7.94,3.85c-5.27,0-8.32-3.53-8.32-7.9s3.26-7.37,9.1-7.37h6.69v-2.05c0-4.47-1.95-6.37-5.84-6.37a18.84,18.84,0,0,0-7.79,1.69l-1.06-2.9a22.81,22.81,0,0,1,9.37-1.95c6.11,0,9.21,3.16,9.21,9.32v17Zm-1.16-12h-6c-4.37,0-5.85,1.89-5.85,4.47,0,3.11,1.69,5.16,5.42,5.16a9.08,9.08,0,0,0,6.48-3.21Z"/><path class="cls-15" d="M619.38,473a10.48,10.48,0,0,0-3.32-.47,8.23,8.23,0,0,0-5.79,2.79v20h-4V469.57H609l.74,3.26a8.56,8.56,0,0,1,6.69-3.63,11.74,11.74,0,0,1,3.26.42Z"/><path class="cls-15" d="M624.33,488.25V459h3.94v30.69c0,2.21,1,3.1,3.85,3.1H633v2.74a11.77,11.77,0,0,1-2.53.32C625.54,495.89,624.33,493.1,624.33,488.25Z"/><path class="cls-15" d="M659.17,482.41c0,8.69-4.21,13.48-11.1,13.48s-11-4.69-11-13.48c0-7.58,3.58-13.37,11-13.37C655.23,469,659.17,474.73,659.17,482.41Zm-4.1,0c0-6.73-2.27-10.37-7-10.37s-7,3.79-7,10.37c0,6.32,1.84,10.48,7,10.48S655.07,489.31,655.07,482.41Z"/><path class="cls-15" d="M698,482.41c0,8.69-4.21,13.48-11.11,13.48s-11-4.69-11-13.48c0-7.58,3.58-13.37,11-13.37C694.08,469,698,474.73,698,482.41Zm-4.11,0c0-6.73-2.26-10.37-7-10.37S680,475.83,680,482.41c0,6.32,1.84,10.48,6.95,10.48S693.92,489.31,693.92,482.41Z"/><path class="cls-15" d="M731.61,495.36l-.68-3.32a10.17,10.17,0,0,1-7.95,3.85c-5.26,0-8.32-3.53-8.32-7.9s3.27-7.37,9.11-7.37h6.68v-2.05c0-4.47-1.94-6.37-5.84-6.37a18.92,18.92,0,0,0-7.79,1.69l-1.05-2.9a22.81,22.81,0,0,1,9.37-1.95c6.11,0,9.21,3.16,9.21,9.32v17Zm-1.16-12H724.4c-4.36,0-5.84,1.89-5.84,4.47,0,3.11,1.69,5.16,5.42,5.16a9,9,0,0,0,6.47-3.21Z"/><path class="cls-15" d="M745.25,497.1v8.26h-4V469.57h3.1l.63,3.05a10.4,10.4,0,0,1,7.53-3.58c6.58,0,9.84,4.69,9.84,13.37,0,9.11-4.52,13.48-10.68,13.48a9.07,9.07,0,0,1-7-2.95A24,24,0,0,1,745.25,497.1Zm0-7a8.64,8.64,0,0,0,6.11,2.79c4.68,0,6.89-3.06,6.89-10.48,0-6.79-2-10.26-6.63-10.26a9.25,9.25,0,0,0-6.37,3Z"/><path class="cls-15" d="M781.52,473a10.41,10.41,0,0,0-3.31-.47,8.21,8.21,0,0,0-5.79,2.79v20h-4V469.57h2.68l.74,3.26a8.54,8.54,0,0,1,6.68-3.63,11.66,11.66,0,0,1,3.26.42Z"/><path class="cls-15" d="M807.47,482.41c0,8.69-4.21,13.48-11.1,13.48s-11-4.69-11-13.48c0-7.58,3.58-13.37,11-13.37C803.53,469,807.47,474.73,807.47,482.41Zm-4.1,0c0-6.73-2.26-10.37-7-10.37s-7,3.79-7,10.37c0,6.32,1.84,10.48,7,10.48S803.37,489.31,803.37,482.41Z"/><path class="cls-15" d="M824.9,495.36H819l-8.26-25.79h4.42l7,23.32h.11l6.94-23.32h4.11Z"/><path class="cls-15" d="M840.59,483.62c0,6.37,3.26,9.16,8.16,9.16a15.88,15.88,0,0,0,8-2.58l1,2.84a18.43,18.43,0,0,1-9.42,2.85c-7.05,0-11.74-4.69-11.74-13.58,0-8.16,4-13.27,11-13.27,7.27,0,10.32,5.84,10.32,12.32v2.26Zm6.9-11.52c-4.9,0-6.9,4.31-6.9,8.73h13.48C854.07,476.36,852.54,472.1,847.49,472.1Z"/><path class="cls-15" d="M883.13,493.62a18.32,18.32,0,0,1-8.58,2.27c-6.53,0-11.27-3.85-11.27-13.43,0-8.73,4.79-13.42,11.27-13.42a16.68,16.68,0,0,1,8.42,2l-1.16,2.85a14,14,0,0,0-7-1.69c-4.63,0-7.48,3.69-7.48,10.21,0,7.27,2.85,10.32,7.48,10.32a14.53,14.53,0,0,0,7.42-2.16Z"/><path class="cls-15" d="M888.39,495.36V459h4v10.37a13.62,13.62,0,0,1-.36,3.26,10.63,10.63,0,0,1,7.79-3.63c6.31,0,8.89,3.53,8.89,10.06v16.26h-4.1V479.78c0-4.79-1.9-7.58-5.9-7.58-2.68,0-4.74,1.53-6.32,2.95v20.21Z"/><path class="cls-15" d="M930.87,495.36l-.68-3.32a10.14,10.14,0,0,1-8,3.85c-5.26,0-8.31-3.53-8.31-7.9s3.26-7.37,9.1-7.37h6.69v-2.05c0-4.47-2-6.37-5.85-6.37a18.92,18.92,0,0,0-7.79,1.69L915,471A22.85,22.85,0,0,1,924.4,469c6.11,0,9.21,3.16,9.21,9.32v17Zm-1.15-12h-6.06c-4.37,0-5.84,1.89-5.84,4.47,0,3.11,1.68,5.16,5.42,5.16a9.08,9.08,0,0,0,6.48-3.21Z"/><path class="cls-15" d="M953.56,473a10.36,10.36,0,0,0-3.31-.47,8.23,8.23,0,0,0-5.79,2.79v20h-4V469.57h2.68l.74,3.26a8.56,8.56,0,0,1,6.68-3.63,11.77,11.77,0,0,1,3.27.42Z"/><path class="cls-15" d="M958.52,488.25V459h3.94v30.69c0,2.21,1,3.1,3.85,3.1h.84v2.74a11.77,11.77,0,0,1-2.53.32C959.73,495.89,958.52,493.1,958.52,488.25Z"/><path class="cls-15" d="M993.36,482.41c0,8.69-4.21,13.48-11.1,13.48s-11-4.69-11-13.48c0-7.58,3.58-13.37,11-13.37C989.41,469,993.36,474.73,993.36,482.41Zm-4.1,0c0-6.73-2.27-10.37-7-10.37s-7,3.79-7,10.37c0,6.32,1.84,10.48,7,10.48S989.26,489.31,989.26,482.41Z"/><path class="cls-15" d="M998.63,489.47h4v5.89h-4Z"/></svg>