<svg id="Capa_1" data-name="Capa 1" xmlns="http://www.w3.org/2000/svg" viewBox="0 0 512 512"><defs><style>.cls-1{fill:#fff;}.cls-2{fill:#e26872;}.cls-3{fill:#5790c1;}.cls-4{fill:#f39568;}.cls-5{fill:#4e484e;}.cls-6{fill:#2e4c9b;}.cls-7{fill:#5e5861;}.cls-8{fill:#302930;}.cls-9{fill:#6bb4cf;}.cls-10{fill:#f4f1ed;}.cls-11{fill:#cc4f49;}.cls-12{fill:#f0ece3;}.cls-13{fill:#e7334a;}.cls-13,.cls-14,.cls-15,.cls-16{stroke:#fff;stroke-miterlimit:10;}.cls-14{fill:#55b682;}.cls-15,.cls-16{fill:#615185;}.cls-15{stroke-width:0.5px;}.cls-16{stroke-width:0.75px;}</style></defs><path class="cls-1" d="M507.23,169.65A169.65,169.65,0,1,1,337.58,0,169.65,169.65,0,0,1,507.23,169.65"/><path class="cls-2" d="M158.3,210.1c13.84.06,29-4.83,39.63-13.87,13.43-11.39,16-31,17.82-47.52,1.1-10.18-.87-29.68,5.91-37.9,8.79-10.64,20.21,4.69,29,5.22,4.72.28,8.84-1.48,12.75-4,2.34-1.52,4.23-3.77,6.57-5.27,8.18-5.23,11.95-4.18,20,.1,12.54,6.64,32.31,8.48,46.06,5,17.34-4.39,17-20.7,23.47-34.69,2.18-4.68,5.55-11.79,9.35-15.16,10.66-9.45,21.87-2.31,31.52,2.27,10.73,5.08,20.35,12.23,30.92,17.43,11.83,5.81,21.61-.84,33.36-4.9,5.17-1.78,2.95-10-2.27-8.25-5.45,1.88-13.1,6.12-19,6.86-9.41,1.18-20-8.79-28.15-13.18C403.25,55.77,384.83,43.49,370.64,50c-14.45,6.67-18.55,24.65-24.1,37.85-3.69,8.77-9.82,16-20,16.39a120,120,0,0,1-13.81-.32c-8-.62-13.39-1.88-20.51-5.63-2.88-1.51-5.86-4.33-9.24-5-15-3-22.44,18.41-36.75,12.42-10.36-4.34-20.46-15.81-30.17-3-9.38,12.36-7.59,36.53-9.58,51.05-1.84,13.52-4.5,28.48-16,37.23a54.37,54.37,0,0,1-32.27,10.55c-5.51,0-5.52,8.53,0,8.55"/><path class="cls-3" d="M415.26,255.71a3.62,3.62,0,0,1-2.82-1.13,3.59,3.59,0,0,1,.17-5.07,109.72,109.72,0,0,0,35-78.72,3.58,3.58,0,1,1,7.16.13,116.84,116.84,0,0,1-37.3,83.82,3.6,3.6,0,0,1-2.25,1"/><path class="cls-3" d="M233.77,67.82l20.32,21.93a3.58,3.58,0,0,0,2.55,1.14h.28a3.61,3.61,0,0,0,2.32-1,110.5,110.5,0,0,1,33.64-22.72l9.79,26a3.61,3.61,0,0,0,1.91,2,3.7,3.7,0,0,0,1.64.29,3.54,3.54,0,0,0,1.14-.25,79.39,79.39,0,0,1,31.8-5.69,3.59,3.59,0,1,0,.19-7.17,86.79,86.79,0,0,0-31.24,4.92L299.54,64.5a110.77,110.77,0,0,1,31.32-6.35C333.92,58,337,57.94,340,58a3.58,3.58,0,0,0,.18-7.16c-3.22-.09-6.5,0-9.75.14A117.71,117.71,0,0,0,294,58.94l-.36.09a3.75,3.75,0,0,0-.49.25,117.72,117.72,0,0,0-36.29,22.93l-18-19.4a144.27,144.27,0,0,1,202.77,6.46,3.58,3.58,0,0,0,5.19-4.93,151.41,151.41,0,0,0-215-4.7,4.59,4.59,0,0,0-.44.33,3.8,3.8,0,0,0-.52.62A151.24,151.24,0,0,0,185.65,177a3.59,3.59,0,0,0,7.16-.4A144,144,0,0,1,233.77,67.82Z"/><path class="cls-3" d="M475.79,229.38a151.49,151.49,0,0,0-11.3-142.61,3.58,3.58,0,0,0-6,3.88,144.44,144.44,0,0,1,12,133L443.33,211a3.58,3.58,0,0,0-3,6.49l27.25,12.78A144.48,144.48,0,0,1,282.15,302.3L292,277.68a116.61,116.61,0,0,0,43.73,8.87,3.59,3.59,0,1,0,.06-7.17,109.61,109.61,0,0,1-44.27-9.71,3.57,3.57,0,0,0-4.79,1.93l-11.18,27.83a144,144,0,0,1-71.72-74.71l24.87-9.37a117.83,117.83,0,0,0,23.4,35.17l0,0h0a2.78,2.78,0,0,0,.33.27c.09.07.17.15.26.21a3,3,0,0,0,.47.24c.07,0,.13.08.21.11a3.77,3.77,0,0,0,.6.16.53.53,0,0,1,.12,0,3.78,3.78,0,0,0,.75,0,6.17,6.17,0,0,0,.62-.09l.28-.09.32-.11c.09,0,.18-.1.27-.15l.3-.16a1.92,1.92,0,0,0,.22-.18l.28-.22s0,0,0,0l0,0,19.83-19.71A86.36,86.36,0,0,0,416.6,202.1a3.59,3.59,0,1,0-6.61-2.78,79.18,79.18,0,0,1-127.84,26.49l18.8-18.7a52.65,52.65,0,0,0,76.24-72.38l18.95-18.65A79.17,79.17,0,0,1,416,164.32c.15,2.7.16,5.42,0,8.11a3.57,3.57,0,0,0,3.41,3.74,2.29,2.29,0,0,0,.37,0,3.58,3.58,0,0,0,3.37-3.41,86.47,86.47,0,0,0-4.74-32.53l26.42-9a3.55,3.55,0,0,0,2.09-1.86,3.61,3.61,0,0,0,.1-2.81,118.58,118.58,0,0,0-63.53-66.18,3.58,3.58,0,0,0-4.71,1.88L366.43,91.19A3.58,3.58,0,1,0,373,94l11-25.57a111.48,111.48,0,0,1,55,57.23l-23.17,7.88a86,86,0,0,0-17-25.11,3.53,3.53,0,0,0-2.53-1.08,3.59,3.59,0,0,0-2.55,1l-21.54,21.2a52.63,52.63,0,0,0-70-.5l-20.05-21.74a3.58,3.58,0,0,0-5.27,4.86l20.26,22a52.33,52.33,0,0,0-12.76,31.25l-26.53-.34a77.9,77.9,0,0,1,6.73-28.57,3.58,3.58,0,1,0-6.54-2.92A85.17,85.17,0,0,0,250.7,165l-24.36-.31a110.76,110.76,0,0,1,9.74-41.63,3.58,3.58,0,1,0-6.52-3,118,118,0,0,0-3.46,88.6l-28.2,10.62a3.58,3.58,0,0,0-2.07,4.66,151.55,151.55,0,0,0,279.47,6.54,3.54,3.54,0,0,0,.26-.47A3,3,0,0,0,475.79,229.38ZM250.71,172.16c0,.42,0,.85,0,1.28a86.07,86.07,0,0,0,6.47,28.42,3.58,3.58,0,0,0,3.51,2.21,3.75,3.75,0,0,0,1.17-.27,3.59,3.59,0,0,0,1.94-4.69,79,79,0,0,1-5.94-26.06c0-.27,0-.54,0-.8l30,.38a3.6,3.6,0,0,0,2.57-1,3.56,3.56,0,0,0,1.06-2.57,45.25,45.25,0,0,1,12.92-32.13l.09-.07a1.37,1.37,0,0,0,.19-.22,45.52,45.52,0,1,1-1.08,63,3.58,3.58,0,0,0-2.55-1.14,3.53,3.53,0,0,0-2.6,1l-43.62,43.36a110.7,110.7,0,0,1-28.39-68.09q-.08-1.46-.12-2.94Z"/><polygon class="cls-4" points="485.6 78.08 489.2 93.31 499.91 89.88 496.77 73.48 485.6 78.08"/><path class="cls-4" d="M490.46,61a10.53,10.53,0,1,1-12.62,7.92A10.53,10.53,0,0,1,490.46,61"/><path class="cls-4" d="M368.53,312.23a10.53,10.53,0,1,1-12.61,7.92,10.53,10.53,0,0,1,12.61-7.92"/><rect class="cls-4" x="414.84" y="149.19" width="17.66" height="23.72"/><rect class="cls-4" x="400.07" y="457.57" width="11.78" height="38.88"/><rect class="cls-4" x="437.16" y="457.57" width="11.78" height="39.77"/><polygon class="cls-5" points="426.18 263.13 422.82 263.13 390.55 263.13 396.43 463.01 415.02 463.01 417.92 299.24 431.09 299.24 433.98 463.01 452.58 463.01 458.46 263.13 426.18 263.13"/><path class="cls-4" d="M406.09,134.93a5.87,5.87,0,1,1-5.87-5.87,5.87,5.87,0,0,1,5.87,5.87"/><path class="cls-4" d="M453.26,134.93a5.87,5.87,0,1,1-5.86-5.87,5.86,5.86,0,0,1,5.86,5.87"/><path class="cls-5" d="M447.91,129.87a24.13,24.13,0,1,1-24.12-24.13,24.13,24.13,0,0,1,24.12,24.13"/><path class="cls-6" d="M490.26,146.08l0,0a1.39,1.39,0,0,0,.21.21s.07.05,0,0l-.16-.15Z"/><path class="cls-6" d="M490.7,141.69s0,0,0,0l.06,0-.05,0"/><path class="cls-7" d="M441.43,292.78l-9.88-6.85V272.51H451.3V285.7ZM433,285.19l8.45,5.85,8.46-6.07v-11H433Z"/><path class="cls-7" d="M407.59,292.78l-9.89-6.85V272.51h19.76V285.7Zm-8.47-7.59,8.45,5.85L416,285v-11H399.12Z"/><path class="cls-8" d="M414.67,508l-2.22,2.23a6,6,0,0,1-4.22,1.75H365.67a6,6,0,0,1-4.6-2.16l-1.5-1.82Z"/><path class="cls-9" d="M395.46,495.18a2.37,2.37,0,0,0-.7.1c-3.36,1-30.09,8.52-30.46,8.52s-4.73,1.41-4.73,4.22c0,0,55.29.19,55.1,0s.13-6.69.3-10.48a2.26,2.26,0,0,0-2.26-2.36Z"/><path class="cls-1" d="M390.76,502.27a1.41,1.41,0,0,1-1.4-1.28v-4.94a1.4,1.4,0,0,1,1.27-1.53,1.39,1.39,0,0,1,1.53,1.27v4.94a1.41,1.41,0,0,1-1.28,1.53h-.13"/><path class="cls-1" d="M385,503.5a1.41,1.41,0,0,1-1.4-1.28v-4.94a1.41,1.41,0,1,1,2.8-.25V502a1.39,1.39,0,0,1-1.27,1.52H385"/><path class="cls-1" d="M379.27,505.09a1.4,1.4,0,0,1-1.4-1.28v-4.93a1.4,1.4,0,0,1,1.27-1.53,1.43,1.43,0,0,1,1.53,1.27v4.94a1.4,1.4,0,0,1-1.27,1.53h-.13"/><path class="cls-8" d="M434.18,508l2.22,2.23a5.94,5.94,0,0,0,4.22,1.75h42.56a5.94,5.94,0,0,0,4.59-2.16l1.5-1.82Z"/><path class="cls-9" d="M453.38,495.18a2.44,2.44,0,0,1,.71.1c3.35,1,30.09,8.52,30.45,8.52s4.73,1.41,4.73,4.22c0,0-55.28.19-55.09,0s-.13-6.69-.3-10.48a2.26,2.26,0,0,1,2.26-2.36Z"/><path class="cls-1" d="M458.08,502.27a1.4,1.4,0,0,0,1.4-1.28v-4.94a1.4,1.4,0,0,0-1.27-1.53,1.38,1.38,0,0,0-1.53,1.27v4.94a1.41,1.41,0,0,0,1.27,1.53h.13"/><path class="cls-1" d="M463.86,503.5a1.4,1.4,0,0,0,1.4-1.28v-4.94a1.41,1.41,0,1,0-2.8-.25V502a1.4,1.4,0,0,0,1.28,1.52h.12"/><path class="cls-1" d="M469.57,505.09a1.4,1.4,0,0,0,1.4-1.28v-4.93a1.41,1.41,0,0,0-2.8-.26v4.94a1.41,1.41,0,0,0,1.28,1.53h.12"/><path class="cls-10" d="M511.75,137.94l-.07-.47,0-.22-.09-.44-1.33-7-2.63-14c-1.41-7.85-3.72-21.33-5.29-31a2.87,2.87,0,0,0-3.46-2.35l-15,3.23a2.89,2.89,0,0,0-2.24,3.35c1.8,9.57,4,22.73,5.42,30.45l2.37,14,1.28,8.21-3.11,1.84-1.92,1.16-12.21,7.3c-5.21,3.13-20.57,9.37-31,13.5a20.62,20.62,0,0,0-2.24-.11H408.82a19.84,19.84,0,0,0-14.48,6l-.15-.13c-52.51,61.6-42.06,142.13-41.59,145.53L376,313.58c-.07-.57-5.81-44.69,13.21-89.51l1.37,39.06h67.91l2.61-74.94c0-.11,0-.22,0-.33a15,15,0,0,0,1.33-.79c7.71-5.27,15.42-10.54,23.19-15.7l11.85-7.87,3-2,1.49-1,1-.65c.56-.41,1.13-.81,1.66-1.27,3.83-3.21,6.84-9.59,7.2-14.45a18.18,18.18,0,0,0,0-6.26m-21.25,8.37a1.37,1.37,0,0,1-.22-.2l0,0,.11.11.16.15s0,0,0,0m3.14-8.6s0,0,0,0h0Z"/><rect class="cls-11" x="469.3" y="66.14" width="30.54" height="5.72" transform="translate(-4.85 74.69) rotate(-8.77)"/><path class="cls-12" d="M469.91,74.15l-5.05-1.41a.77.77,0,0,1-.21-1.38L469,68.5Z"/><path class="cls-4" d="M482.23,77.84a3.68,3.68,0,0,1-3.08-1.65L475.72,71A3.69,3.69,0,0,1,481.87,67l3.42,5.16a3.69,3.69,0,0,1-3.06,5.73"/><rect class="cls-1" x="400.07" y="477.01" width="11.78" height="18.17"/><rect class="cls-1" x="437.16" y="477.01" width="11.78" height="18.17"/><path class="cls-13" d="M10.26,251.07l-5-13.45a58.83,58.83,0,0,1,24-5.11c17.86,0,30,9.16,30,22.61,0,13.1-8,25.86-33,43.37A61.44,61.44,0,0,1,39,297.33H59.65v15.18H6.09V298.83C35,277.38,40.17,266.37,40.17,258.49c0-6-4.75-11.14-13.91-11.14A38.65,38.65,0,0,0,10.26,251.07Z"/><path class="cls-14" d="M12.94,348.65v-.95h9.74v1.5c0,10.49-8.72,10.7-8.72,17.51,0,2.52,1.77,4.5,5.18,4.5a22.9,22.9,0,0,0,8.11-1.71l2.66,8.38a30.77,30.77,0,0,1-12.81,2.59c-8.45,0-14.59-4.56-14.59-12.19C2.51,357.85,12.94,355.26,12.94,348.65Zm10.15-4.77H12.53V333.46H23.09Z"/><path class="cls-14" d="M46.12,351.65v15.2H35.35v-46H50.21c9.67,0,18.06,4.7,18.06,14.79,0,8.58-6.55,16-18.06,16Zm4-21.73h-4v13.42h4c4.36,0,6.75-3.27,6.75-7.22C56.82,332.44,54.43,329.92,50.07,329.92Z"/><path class="cls-14" d="M92,367.53c-16.15,0-20.24-11.72-20.24-24,0-12,4-23.31,20.24-23.31,16.56,0,20.44,11.18,20.44,23.31C112.48,355.81,108.19,367.53,92,367.53Zm0-38.09c-7.15,0-8.86,6.13-8.86,14,0,8.72,1.84,15.06,8.86,15.06s9-6.27,9-15.06C101,335.44,99.2,329.44,92,329.44Z"/><path class="cls-14" d="M133.53,350.09H130v16.76h-10.7v-46h16c9.19,0,16.48,4.3,16.48,14a14.59,14.59,0,0,1-8.38,13.35l9.41,18.61H140.28Zm0-20.92H130v12.6h3.54c5.18,0,6.82-2.45,6.82-6.88C140.35,330.8,138.17,329.17,133.53,329.17Z"/><path class="cls-14" d="M200,365.83a131,131,0,0,0,14.17.47v10.43a30.23,30.23,0,0,1-21.6-9.2c-16.14,0-20.23-11.72-20.23-24,0-12,4-23.31,20.23-23.31,16.56,0,20.45,11.18,20.45,23.31C213,351.86,208.14,361.87,200,365.83Zm-7.43-36.39c-7.15,0-8.85,6.13-8.85,14,0,8.72,1.84,15.06,8.85,15.06s9-6.27,9-15.06C201.53,335.44,199.69,329.44,192.53,329.44Z"/><path class="cls-14" d="M256.51,349.27c0,9.61-5.45,18.26-18.19,18.26s-18.19-8.31-18.19-18.26V320.85h10.76v27.87c0,5.79,2.66,9.68,7.43,9.68s7.29-3.95,7.29-9.68V320.85h10.9Z"/><path class="cls-14" d="M265.36,366.85v-46h29.71v9.07H276.13V339H290.3l-.68,9.47H276.13v9.4h18.94v9Zm5.32-48.52-.89-6.13,20-2.73-.14,7.91Z"/><path class="cls-14" d="M316.12,351.65v1h-9.74v-1.5c0-10.5,8.72-10.7,8.72-17.51,0-2.53-1.77-4.5-5.18-4.5a23.15,23.15,0,0,0-8.11,1.7l-2.65-8.38A30.73,30.73,0,0,1,312,319.83c8.45,0,14.58,4.57,14.58,12.2C326.55,342.45,316.12,345,316.12,351.65ZM306,356.42h10.56v10.43H306Z"/><path class="cls-15" d="M35.06,441V424h1.87v4.86a6.26,6.26,0,0,1-.17,1.52,5,5,0,0,1,3.65-1.7c3,0,4.17,1.65,4.17,4.71V441H42.65v-7.3c0-2.24-.89-3.55-2.76-3.55a4.49,4.49,0,0,0-3,1.38V441Z"/><path class="cls-15" d="M49,435.51c0,3,1.52,4.29,3.82,4.29a7.38,7.38,0,0,0,3.74-1.21l.47,1.33a8.62,8.62,0,0,1-4.41,1.34c-3.3,0-5.5-2.2-5.5-6.36,0-3.83,1.88-6.22,5.18-6.22s4.83,2.74,4.83,5.77v1.06Zm3.22-5.4c-2.29,0-3.22,2-3.22,4.1h6.31C55.28,432.11,54.56,430.11,52.19,430.11Z"/><path class="cls-15" d="M69.35,433.39V441H67.46v-7.3c0-2.29-.67-3.55-2.72-3.55a4.3,4.3,0,0,0-2.9,1.38V441H60V428.93h1.23l.4,1.45a5.1,5.1,0,0,1,3.67-1.7c1.8,0,3,.64,3.55,1.85a5.27,5.27,0,0,1,3.77-1.85c3,0,4.27,1.65,4.27,4.71V441H75v-7.3c0-2.29-.86-3.55-2.91-3.55a4.35,4.35,0,0,0-2.88,1.38A7.06,7.06,0,0,1,69.35,433.39Z"/><path class="cls-15" d="M89.72,434.94c0,4.07-2,6.32-5.2,6.32s-5.15-2.2-5.15-6.32c0-3.55,1.67-6.26,5.15-6.26S89.72,431.35,89.72,434.94Zm-1.92,0c0-3.15-1.06-4.85-3.28-4.85s-3.26,1.77-3.26,4.85.87,4.91,3.26,4.91S87.8,438.17,87.8,434.94Z"/><path class="cls-15" d="M93.94,431.89c0,2.59,6,1.67,6,5.77,0,1.94-1.51,3.6-4.19,3.6a7.24,7.24,0,0,1-3.65-1l.54-1.38a5.62,5.62,0,0,0,3.08,1c1.48,0,2.39-.81,2.39-2.07,0-2.91-5.91-1.83-5.91-5.92,0-1.62,1.23-3.18,4-3.18a7.84,7.84,0,0,1,3.62.79l-.44,1.38a6.52,6.52,0,0,0-3.15-.74C94.68,430.11,93.94,430.78,93.94,431.89Z"/><path class="cls-15" d="M109.08,441V430.43l-1.33-.27v-1.23h3.15V441Zm-.18-16.84h2v2h-2Z"/><path class="cls-15" d="M122.14,439.55a4.54,4.54,0,0,1-3.47,1.71c-2.86,0-4.86-2.12-4.86-6.32,0-3.67,1.82-6.26,5-6.26a5.07,5.07,0,0,1,3.23,1,17.66,17.66,0,0,1-.1-2V424h1.88v17h-1.41ZM122,431a5.08,5.08,0,0,0-2.93-.87c-2.27,0-3.35,1.78-3.35,4.83s1,4.91,3.23,4.91a4.07,4.07,0,0,0,3-1.53Z"/><path class="cls-15" d="M128.6,435.51c0,3,1.53,4.29,3.82,4.29a7.38,7.38,0,0,0,3.75-1.21l.47,1.33a8.62,8.62,0,0,1-4.41,1.34c-3.31,0-5.5-2.2-5.5-6.36,0-3.83,1.87-6.22,5.18-6.22s4.83,2.74,4.83,5.77v1.06Zm3.23-5.4c-2.29,0-3.23,2-3.23,4.1h6.31C134.91,432.11,134.2,430.11,131.83,430.11Z"/><path class="cls-15" d="M147.19,441v-7.3c0-2.29-.71-3.55-2.76-3.55a4.49,4.49,0,0,0-3,1.38V441H139.6V428.93h1.26l.37,1.43a5.26,5.26,0,0,1,3.79-1.68c2.84,0,4.09,1.7,4.09,4.71V441Z"/><path class="cls-15" d="M156.19,441.26c-1.7,0-3.1-.87-3.1-3.7v-7.27h-1.83v-1.36h1.83v-2.19l1.87-.6v2.79h3.52v1.36H155v7.49c0,1.28.47,1.9,1.6,1.9a5.13,5.13,0,0,0,1.92-.52l.37,1.38A5.85,5.85,0,0,1,156.19,441.26Z"/><path class="cls-15" d="M162.26,441V430.43l-1.33-.27v-1.23h3.15V441Zm-.18-16.84h2v2h-2Z"/><path class="cls-15" d="M174.16,425.35a5.55,5.55,0,0,0-1.55-.22c-1.62,0-2.34.92-2.34,2.84v1h2.86v1.43h-2.86V441h-1.85V430.36h-1.95v-1.43h1.95v-1.08c0-2.77,1.33-4.27,4-4.27a7.88,7.88,0,0,1,1.88.25Z"/><path class="cls-15" d="M176.24,441V430.43l-1.33-.27v-1.23h3.15V441Zm-.18-16.84h2v2h-2Z"/><path class="cls-15" d="M190.27,440.19a8.58,8.58,0,0,1-4,1.07c-3.06,0-5.28-1.8-5.28-6.29,0-4.09,2.24-6.29,5.28-6.29a7.83,7.83,0,0,1,3.94,1l-.54,1.34a6.49,6.49,0,0,0-3.31-.79c-2.16,0-3.49,1.72-3.49,4.78,0,3.4,1.33,4.83,3.49,4.83a6.79,6.79,0,0,0,3.48-1Z"/><path class="cls-15" d="M200.2,441l-.32-1.55a4.75,4.75,0,0,1-3.72,1.8,3.62,3.62,0,0,1-3.9-3.7c0-2.1,1.53-3.45,4.27-3.45h3.13v-1c0-2.09-.91-3-2.74-3a9,9,0,0,0-3.65.79l-.49-1.36a10.79,10.79,0,0,1,4.39-.91c2.86,0,4.31,1.48,4.31,4.37v8Zm-.54-5.62h-2.84c-2,0-2.73.89-2.73,2.09a2.23,2.23,0,0,0,2.54,2.42,4.27,4.27,0,0,0,3-1.5Z"/><path class="cls-15" d="M212.65,439.55a4.54,4.54,0,0,1-3.47,1.71c-2.86,0-4.86-2.12-4.86-6.32,0-3.67,1.82-6.26,5.05-6.26a5.07,5.07,0,0,1,3.23,1,17.73,17.73,0,0,1-.09-2V424h1.87v17H213Zm-.14-8.57a5.15,5.15,0,0,0-2.94-.87c-2.27,0-3.35,1.78-3.35,4.83s1,4.91,3.23,4.91a4.11,4.11,0,0,0,3.06-1.53Z"/><path class="cls-15" d="M227.57,434.94c0,4.07-2,6.32-5.2,6.32s-5.15-2.2-5.15-6.32c0-3.55,1.67-6.26,5.15-6.26S227.57,431.35,227.57,434.94Zm-1.93,0c0-3.15-1-4.85-3.27-4.85s-3.26,1.77-3.26,4.85.87,4.91,3.26,4.91S225.64,438.17,225.64,434.94Z"/><path class="cls-15" d="M243.87,441l-.27-1.38a5.19,5.19,0,0,1-3.75,1.63c-2.69,0-4.17-1.61-4.17-4.91v-7.42h1.88v7.3c0,2.49.78,3.52,2.73,3.52a4.75,4.75,0,0,0,3-1.18v-9.64h1.9V441Z"/><path class="cls-15" d="M255.87,441v-7.3c0-2.29-.71-3.55-2.76-3.55a4.51,4.51,0,0,0-3,1.38V441h-1.87V428.93h1.26l.37,1.43a5.26,5.26,0,0,1,3.79-1.68c2.84,0,4.1,1.7,4.1,4.71V441Z"/><path class="cls-15" d="M268.27,441l-.32-1.55a4.75,4.75,0,0,1-3.72,1.8,3.62,3.62,0,0,1-3.89-3.7c0-2.1,1.52-3.45,4.26-3.45h3.13v-1c0-2.09-.91-3-2.73-3a9,9,0,0,0-3.65.79l-.5-1.36a10.87,10.87,0,0,1,4.39-.91c2.86,0,4.32,1.48,4.32,4.37v8Zm-.54-5.62H264.9c-2,0-2.74.89-2.74,2.09a2.23,2.23,0,0,0,2.54,2.42,4.25,4.25,0,0,0,3-1.5Z"/><path class="cls-15" d="M45,456.08c0,4.07-2,6.31-5.2,6.31s-5.15-2.2-5.15-6.31c0-3.55,1.68-6.26,5.15-6.26S45,452.48,45,456.08Zm-1.92,0c0-3.16-1.06-4.86-3.28-4.86s-3.25,1.78-3.25,4.86.86,4.9,3.25,4.9S43.07,459.31,43.07,456.08Z"/><path class="cls-15" d="M49.73,463v3.87h-1.9V450.06h1.46l.29,1.43a4.89,4.89,0,0,1,3.53-1.67c3.08,0,4.61,2.19,4.61,6.26,0,4.26-2.12,6.31-5,6.31A4.25,4.25,0,0,1,49.46,461,11.22,11.22,0,0,1,49.73,463Zm0-3.28a4.05,4.05,0,0,0,2.86,1.3c2.19,0,3.23-1.43,3.23-4.9,0-3.18-.91-4.81-3.11-4.81a4.33,4.33,0,0,0-3,1.41Z"/><path class="cls-15" d="M70.51,456.08c0,4.07-2,6.31-5.2,6.31s-5.15-2.2-5.15-6.31c0-3.55,1.68-6.26,5.15-6.26S70.51,452.48,70.51,456.08Zm-1.92,0c0-3.16-1.06-4.86-3.28-4.86s-3.25,1.78-3.25,4.86.86,4.9,3.25,4.9S68.59,459.31,68.59,456.08Z"/><path class="cls-15" d="M79.49,451.69a5,5,0,0,0-1.55-.22,3.85,3.85,0,0,0-2.72,1.31v9.36H73.35V450.06h1.26l.34,1.53a4,4,0,0,1,3.13-1.7,5.18,5.18,0,0,1,1.53.2Z"/><path class="cls-15" d="M85.78,462.39c-1.7,0-3.11-.86-3.11-3.7v-7.27H80.85v-1.36h1.82v-2.19l1.87-.59v2.78h3.53v1.36H84.54v7.49c0,1.28.47,1.9,1.61,1.9a5.18,5.18,0,0,0,1.92-.52l.37,1.38A5.92,5.92,0,0,1,85.78,462.39Z"/><path class="cls-15" d="M98.92,462.14l-.27-1.38a5.16,5.16,0,0,1-3.75,1.63c-2.69,0-4.17-1.6-4.17-4.91v-7.42h1.88v7.3c0,2.49.78,3.52,2.73,3.52a4.8,4.8,0,0,0,3-1.18v-9.64h1.89v12.08Z"/><path class="cls-15" d="M110.92,462.14v-7.29c0-2.3-.71-3.55-2.76-3.55a4.47,4.47,0,0,0-3,1.38v9.46h-1.87V450.06h1.26l.37,1.43a5.29,5.29,0,0,1,3.79-1.67c2.84,0,4.1,1.7,4.1,4.7v7.62Z"/><path class="cls-15" d="M116.82,462.14V451.57l-1.33-.27v-1.24h3.15v12.08Zm-.17-16.83h2v2h-2Z"/><path class="cls-15" d="M129.88,460.69a4.56,4.56,0,0,1-3.47,1.7c-2.86,0-4.86-2.12-4.86-6.31,0-3.68,1.83-6.26,5.06-6.26a5.12,5.12,0,0,1,3.23,1,15.55,15.55,0,0,1-.1-2v-3.75h1.87v17H130.2Zm-.14-8.58a5.15,5.15,0,0,0-2.94-.86c-2.27,0-3.35,1.77-3.35,4.83s1,4.9,3.23,4.9a4.07,4.07,0,0,0,3.06-1.53Z"/><path class="cls-15" d="M142.34,462.14l-.33-1.55a4.75,4.75,0,0,1-3.72,1.8,3.61,3.61,0,0,1-3.89-3.7c0-2.09,1.53-3.45,4.26-3.45h3.13v-1c0-2.1-.91-3-2.73-3a9,9,0,0,0-3.65.78l-.5-1.35a10.7,10.7,0,0,1,4.39-.91c2.86,0,4.32,1.48,4.32,4.36v8Zm-.55-5.62H139c-2.05,0-2.74.89-2.74,2.1a2.23,2.23,0,0,0,2.54,2.41,4.25,4.25,0,0,0,3-1.5Z"/><path class="cls-15" d="M154.78,460.69a4.56,4.56,0,0,1-3.47,1.7c-2.86,0-4.86-2.12-4.86-6.31,0-3.68,1.83-6.26,5.06-6.26a5.09,5.09,0,0,1,3.23,1,15.55,15.55,0,0,1-.1-2v-3.75h1.87v17h-1.4Zm-.14-8.58a5.15,5.15,0,0,0-2.94-.86c-2.26,0-3.35,1.77-3.35,4.83s1,4.9,3.23,4.9a4.06,4.06,0,0,0,3.06-1.53Z"/><path class="cls-15" d="M159.42,459.38h1.85v2.81c0,2.12-.59,2.71-1.85,2.91v-.71c.47-.18.59-.67.59-2.25l-.59-.12Z"/><path class="cls-15" d="M177.22,462.14v-7.29c0-2.3-.71-3.55-2.76-3.55a4.45,4.45,0,0,0-3,1.38v9.46h-1.87V450.06h1.26l.37,1.43a5.29,5.29,0,0,1,3.79-1.67c2.84,0,4.09,1.7,4.09,4.7v7.62Z"/><path class="cls-15" d="M183.63,456.64c0,3,1.53,4.29,3.82,4.29a7.48,7.48,0,0,0,3.75-1.2l.47,1.33a8.72,8.72,0,0,1-4.41,1.33c-3.31,0-5.5-2.2-5.5-6.36,0-3.82,1.87-6.21,5.18-6.21s4.83,2.73,4.83,5.77v1.05Zm3.23-5.39c-2.29,0-3.23,2-3.23,4.09h6.31C189.94,453.24,189.23,451.25,186.86,451.25Z"/><path class="cls-15" d="M203.55,461.33a8.55,8.55,0,0,1-4,1.06c-3.06,0-5.28-1.8-5.28-6.29,0-4.09,2.24-6.28,5.28-6.28a7.75,7.75,0,0,1,3.94,1l-.54,1.33a6.59,6.59,0,0,0-3.31-.79c-2.17,0-3.5,1.73-3.5,4.78,0,3.4,1.33,4.83,3.5,4.83a6.79,6.79,0,0,0,3.48-1Z"/><path class="cls-15" d="M207.5,456.64c0,3,1.53,4.29,3.82,4.29a7.55,7.55,0,0,0,3.75-1.2l.47,1.33a8.73,8.73,0,0,1-4.42,1.33c-3.3,0-5.49-2.2-5.49-6.36,0-3.82,1.87-6.21,5.17-6.21s4.84,2.73,4.84,5.77v1.05Zm3.23-5.39c-2.29,0-3.23,2-3.23,4.09h6.31C213.81,453.24,213.1,451.25,210.73,451.25Z"/><path class="cls-15" d="M219.88,453c0,2.59,6,1.68,6,5.77,0,1.95-1.51,3.6-4.19,3.6a7.24,7.24,0,0,1-3.65-1l.54-1.38a5.62,5.62,0,0,0,3.08,1c1.48,0,2.39-.81,2.39-2.07,0-2.91-5.91-1.82-5.91-5.91,0-1.63,1.23-3.18,4-3.18a7.71,7.71,0,0,1,3.62.79L225.3,452a6.4,6.4,0,0,0-3.15-.74C220.62,451.25,219.88,451.91,219.88,453Z"/><path class="cls-15" d="M229.59,462.14V451.57l-1.33-.27v-1.24h3.16v12.08Zm-.17-16.83h2v2h-2Z"/><path class="cls-15" d="M242.66,460.69a4.58,4.58,0,0,1-3.48,1.7c-2.86,0-4.85-2.12-4.85-6.31,0-3.68,1.82-6.26,5-6.26a5.09,5.09,0,0,1,3.23,1,15.55,15.55,0,0,1-.1-2v-3.75h1.87v17H243Zm-.15-8.58a5.14,5.14,0,0,0-2.93-.86c-2.27,0-3.36,1.77-3.36,4.83s1,4.9,3.23,4.9a4.06,4.06,0,0,0,3.06-1.53Z"/><path class="cls-15" d="M255.11,462.14l-.32-1.55a4.77,4.77,0,0,1-3.72,1.8,3.61,3.61,0,0,1-3.9-3.7c0-2.09,1.53-3.45,4.27-3.45h3.13v-1c0-2.1-.92-3-2.74-3a9,9,0,0,0-3.65.78l-.49-1.35a10.63,10.63,0,0,1,4.39-.91c2.86,0,4.31,1.48,4.31,4.36v8Zm-.54-5.62h-2.84c-2,0-2.73.89-2.73,2.1a2.22,2.22,0,0,0,2.53,2.41,4.27,4.27,0,0,0,3-1.5Z"/><path class="cls-15" d="M267.56,460.69a4.58,4.58,0,0,1-3.48,1.7c-2.86,0-4.85-2.12-4.85-6.31,0-3.68,1.82-6.26,5-6.26a5.09,5.09,0,0,1,3.23,1,17.66,17.66,0,0,1-.1-2v-3.75h1.88v17h-1.41Zm-.15-8.58a5.14,5.14,0,0,0-2.93-.86c-2.27,0-3.35,1.77-3.35,4.83s1,4.9,3.23,4.9a4,4,0,0,0,3.05-1.53Z"/><path class="cls-15" d="M45,477.21c0,4.07-2,6.31-5.2,6.31s-5.15-2.19-5.15-6.31c0-3.55,1.68-6.26,5.15-6.26S45,473.61,45,477.21Zm-1.92,0c0-3.15-1.06-4.86-3.28-4.86s-3.25,1.78-3.25,4.86.86,4.91,3.25,4.91S43.07,480.44,43.07,477.21Z"/><path class="cls-15" d="M55.15,484.09V488H53.26V471.2h1.45l.3,1.43A4.84,4.84,0,0,1,58.53,471c3.08,0,4.61,2.19,4.61,6.26,0,4.27-2.12,6.31-5,6.31a4.27,4.27,0,0,1-3.26-1.38A11.4,11.4,0,0,1,55.15,484.09Zm0-3.28A4.06,4.06,0,0,0,58,482.12c2.2,0,3.23-1.43,3.23-4.91,0-3.18-.91-4.81-3.1-4.81a4.35,4.35,0,0,0-3,1.41Z"/><path class="cls-15" d="M72.14,472.82a4.92,4.92,0,0,0-1.55-.22,3.85,3.85,0,0,0-2.71,1.31v9.37H66V471.2h1.26l.35,1.53A4,4,0,0,1,70.74,471a5.48,5.48,0,0,1,1.52.2Z"/><path class="cls-15" d="M84.3,477.21c0,4.07-2,6.31-5.21,6.31s-5.15-2.19-5.15-6.31c0-3.55,1.68-6.26,5.15-6.26S84.3,473.61,84.3,477.21Zm-1.93,0c0-3.15-1.06-4.86-3.28-4.86s-3.25,1.78-3.25,4.86.86,4.91,3.25,4.91S82.37,480.44,82.37,477.21Z"/><path class="cls-15" d="M88.81,472.58a5.17,5.17,0,0,1,3.6-1.63c3.08,0,4.68,2.19,4.68,6.26,0,4.27-2.12,6.31-5,6.31a4.68,4.68,0,0,1-3.5-1.55l-.39,1.31h-1v-17H89V471Zm.2,8.16a4.27,4.27,0,0,0,2.93,1.38c2.12,0,3.26-1.43,3.26-4.91,0-3.18-.94-4.83-3.14-4.83a4.49,4.49,0,0,0-3,1.36Z"/><path class="cls-15" d="M100.05,480V466.27h1.85v14.37c0,1,.47,1.45,1.8,1.45h.4v1.28a5.65,5.65,0,0,1-1.19.15C100.62,483.52,100.05,482.22,100.05,480Z"/><path class="cls-15" d="M107.92,477.78c0,3,1.53,4.29,3.82,4.29a7.47,7.47,0,0,0,3.74-1.21l.47,1.33a8.59,8.59,0,0,1-4.41,1.33c-3.3,0-5.5-2.19-5.5-6.36,0-3.82,1.88-6.21,5.18-6.21s4.83,2.74,4.83,5.77v1.06Zm3.23-5.4c-2.3,0-3.23,2-3.23,4.09h6.31C114.23,474.38,113.51,472.38,111.15,472.38Z"/><path class="cls-15" d="M128.31,475.66v7.62h-1.9V476c0-2.29-.67-3.55-2.71-3.55a4.26,4.26,0,0,0-2.91,1.38v9.47h-1.88V471.2h1.24l.39,1.45a5.1,5.1,0,0,1,3.67-1.7c1.8,0,3,.64,3.55,1.85a5.28,5.28,0,0,1,3.78-1.85c3,0,4.26,1.65,4.26,4.71v7.62h-1.9V476c0-2.29-.86-3.55-2.91-3.55a4.31,4.31,0,0,0-2.88,1.38A7,7,0,0,1,128.31,475.66Z"/><path class="cls-15" d="M146.21,483.28l-.32-1.56a4.76,4.76,0,0,1-3.73,1.8,3.61,3.61,0,0,1-3.89-3.7c0-2.09,1.53-3.45,4.26-3.45h3.13v-1c0-2.09-.91-3-2.73-3a8.83,8.83,0,0,0-3.65.79l-.49-1.36a10.61,10.61,0,0,1,4.38-.91c2.86,0,4.32,1.48,4.32,4.36v8Zm-.55-5.62h-2.83c-2.05,0-2.74.88-2.74,2.09a2.23,2.23,0,0,0,2.54,2.42,4.21,4.21,0,0,0,3-1.51Z"/><path class="cls-15" d="M160.29,483.2l-1.24.1-3.87-12.1h2.07s2.27,7.34,3.31,11c1.06-3.65,3.28-11,3.28-11h1.92l-3.87,11.95c-1.26,3.85-2.52,5.08-4.83,5.08a4.84,4.84,0,0,1-2.69-1L155,486h.14a3.55,3.55,0,0,0,2,.77c1.41,0,2.22-.84,3-3.13Z"/><path class="cls-15" d="M174.54,474.16c0,2.58,6,1.67,6,5.76,0,1.95-1.51,3.6-4.19,3.6a7.34,7.34,0,0,1-3.65-1l.54-1.38a5.71,5.71,0,0,0,3.08,1c1.48,0,2.39-.82,2.39-2.07,0-2.91-5.91-1.83-5.91-5.92,0-1.63,1.23-3.18,4-3.18a7.84,7.84,0,0,1,3.62.79l-.44,1.38a6.53,6.53,0,0,0-3.16-.74C175.28,472.38,174.54,473.05,174.54,474.16Z"/><path class="cls-15" d="M193.22,477.21c0,4.07-2,6.31-5.2,6.31s-5.15-2.19-5.15-6.31c0-3.55,1.68-6.26,5.15-6.26S193.22,473.61,193.22,477.21Zm-1.92,0c0-3.15-1.06-4.86-3.28-4.86s-3.25,1.78-3.25,4.86.86,4.91,3.25,4.91S191.3,480.44,191.3,477.21Z"/><path class="cls-15" d="M203.65,483.28V476c0-2.29-.71-3.55-2.76-3.55a4.47,4.47,0,0,0-3,1.38v9.47h-1.87V471.2h1.26l.37,1.43a5.26,5.26,0,0,1,3.79-1.68c2.84,0,4.1,1.7,4.1,4.71v7.62ZM202,469.05l-2.44-.86a1.3,1.3,0,0,0-1.77.69l-1-.44a2.15,2.15,0,0,1,3-1.66l2.34.84a1.15,1.15,0,0,0,1.6-.71l1,.37A1.89,1.89,0,0,1,202,469.05Z"/><path class="cls-15" d="M216.05,483.28l-.32-1.56a4.72,4.72,0,0,1-3.72,1.8,3.61,3.61,0,0,1-3.89-3.7c0-2.09,1.53-3.45,4.26-3.45h3.13v-1c0-2.09-.91-3-2.73-3a8.83,8.83,0,0,0-3.65.79l-.49-1.36A10.61,10.61,0,0,1,213,471c2.86,0,4.32,1.48,4.32,4.36v8Zm-.54-5.62h-2.83c-2.05,0-2.74.88-2.74,2.09a2.23,2.23,0,0,0,2.54,2.42,4.23,4.23,0,0,0,3-1.51Z"/><path class="cls-15" d="M229.94,475.66v7.62H228V476c0-2.29-.67-3.55-2.71-3.55a4.26,4.26,0,0,0-2.91,1.38v9.47h-1.88V471.2h1.24l.39,1.45a5.1,5.1,0,0,1,3.67-1.7c1.8,0,3,.64,3.55,1.85a5.28,5.28,0,0,1,3.78-1.85c3,0,4.26,1.65,4.26,4.71v7.62h-1.9V476c0-2.29-.86-3.55-2.91-3.55a4.31,4.31,0,0,0-2.88,1.38A7,7,0,0,1,229.94,475.66Z"/><path class="cls-15" d="M250.3,477.21c0,4.07-2,6.31-5.2,6.31s-5.15-2.19-5.15-6.31c0-3.55,1.67-6.26,5.15-6.26S250.3,473.61,250.3,477.21Zm-1.92,0c0-3.15-1.06-4.86-3.28-4.86s-3.25,1.78-3.25,4.86.86,4.91,3.25,4.91S248.38,480.44,248.38,477.21Z"/><path class="cls-15" d="M254.52,474.16c0,2.58,6,1.67,6,5.76,0,1.95-1.5,3.6-4.19,3.6a7.34,7.34,0,0,1-3.65-1l.54-1.38a5.71,5.71,0,0,0,3.08,1c1.48,0,2.39-.82,2.39-2.07,0-2.91-5.91-1.83-5.91-5.92,0-1.63,1.23-3.18,4-3.18a7.91,7.91,0,0,1,3.63.79l-.45,1.38a6.49,6.49,0,0,0-3.15-.74C255.26,472.38,254.52,473.05,254.52,474.16Z"/><path class="cls-15" d="M277.62,482.46a8.6,8.6,0,0,1-4,1.06c-3.06,0-5.27-1.8-5.27-6.28,0-4.1,2.24-6.29,5.27-6.29a7.89,7.89,0,0,1,3.95,1l-.55,1.33a6.55,6.55,0,0,0-3.3-.79c-2.17,0-3.5,1.73-3.5,4.79,0,3.4,1.33,4.83,3.5,4.83a6.92,6.92,0,0,0,3.48-1Z"/><path class="cls-15" d="M290,477.21c0,4.07-2,6.31-5.2,6.31s-5.15-2.19-5.15-6.31c0-3.55,1.67-6.26,5.15-6.26S290,473.61,290,477.21Zm-1.92,0c0-3.15-1.06-4.86-3.28-4.86s-3.25,1.78-3.25,4.86.86,4.91,3.25,4.91S288.1,480.44,288.1,477.21Z"/><path class="cls-15" d="M300.45,483.28V476c0-2.29-.71-3.55-2.76-3.55a4.45,4.45,0,0,0-3,1.38v9.47h-1.87V471.2h1.26l.37,1.43a5.26,5.26,0,0,1,3.79-1.68c2.84,0,4.09,1.7,4.09,4.71v7.62Z"/><path class="cls-15" d="M44,503.6a8.56,8.56,0,0,1-4,1.06c-3.05,0-5.27-1.8-5.27-6.29,0-4.09,2.24-6.29,5.27-6.29a7.86,7.86,0,0,1,3.95,1l-.54,1.34a6.49,6.49,0,0,0-3.31-.79c-2.17,0-3.5,1.72-3.5,4.78,0,3.4,1.33,4.83,3.5,4.83a6.79,6.79,0,0,0,3.48-1Z"/><path class="cls-15" d="M53.92,504.41l-.32-1.55a4.77,4.77,0,0,1-3.72,1.8A3.62,3.62,0,0,1,46,501c0-2.1,1.53-3.45,4.27-3.45h3.13v-1c0-2.1-.91-3-2.74-3a9,9,0,0,0-3.65.79L46.5,493a10.6,10.6,0,0,1,4.39-.92c2.86,0,4.31,1.48,4.31,4.37v8Zm-.54-5.62H50.54c-2,0-2.73.89-2.73,2.09a2.23,2.23,0,0,0,2.54,2.42,4.27,4.27,0,0,0,3-1.5Z"/><path class="cls-15" d="M67.8,496.79v7.62H65.9v-7.3c0-2.29-.66-3.55-2.71-3.55a4.32,4.32,0,0,0-2.91,1.38v9.47H58.41V492.33h1.23l.4,1.45a5.08,5.08,0,0,1,3.67-1.7c1.8,0,3,.64,3.55,1.85A5.27,5.27,0,0,1,71,492.08c3,0,4.27,1.66,4.27,4.71v7.62H73.4v-7.3c0-2.29-.87-3.55-2.91-3.55a4.36,4.36,0,0,0-2.89,1.38A7,7,0,0,1,67.8,496.79Z"/><path class="cls-15" d="M79.91,493.71a5.17,5.17,0,0,1,3.6-1.63c3.08,0,4.68,2.2,4.68,6.27,0,4.26-2.12,6.31-5,6.31a4.67,4.67,0,0,1-3.5-1.56l-.39,1.31h-1v-17h1.88v4.68Zm.2,8.16A4.25,4.25,0,0,0,83,503.25c2.12,0,3.25-1.43,3.25-4.9,0-3.19-.93-4.84-3.13-4.84a4.49,4.49,0,0,0-3,1.36Z"/><path class="cls-15" d="M92,504.41V493.83l-1.33-.27v-1.23h3.16v12.08Zm-.17-16.84h2v2h-2Z"/><path class="cls-15" d="M104.59,504.41l-.32-1.55a4.78,4.78,0,0,1-3.73,1.8,3.62,3.62,0,0,1-3.89-3.7c0-2.1,1.53-3.45,4.26-3.45H104v-1c0-2.1-.91-3-2.73-3a9,9,0,0,0-3.65.79L97.17,493a10.6,10.6,0,0,1,4.39-.92c2.85,0,4.31,1.48,4.31,4.37v8Zm-.55-5.62h-2.83c-2,0-2.74.89-2.74,2.09A2.23,2.23,0,0,0,101,503.3a4.23,4.23,0,0,0,3-1.5Z"/><path class="cls-15" d="M115.21,494a4.6,4.6,0,0,0-1.55-.22A3.86,3.86,0,0,0,111,495v9.37h-1.87V492.33h1.25l.35,1.53a4,4,0,0,1,3.13-1.7,5.81,5.81,0,0,1,1.53.19Z"/><path class="cls-15" d="M117.53,501.08V487.4h1.85v14.37c0,1,.47,1.46,1.8,1.46h.4v1.28a5.65,5.65,0,0,1-1.19.15C118.1,504.66,117.53,503.35,117.53,501.08Z"/><path class="cls-15" d="M133.85,498.35c0,4.06-2,6.31-5.2,6.31s-5.15-2.2-5.15-6.31c0-3.55,1.68-6.27,5.15-6.27S133.85,494.75,133.85,498.35Zm-1.92,0c0-3.16-1.06-4.86-3.28-4.86s-3.25,1.77-3.25,4.86.86,4.9,3.25,4.9S131.93,501.57,131.93,498.35Z"/><path class="cls-15" d="M152.05,498.35c0,4.06-2,6.31-5.2,6.31s-5.15-2.2-5.15-6.31c0-3.55,1.67-6.27,5.15-6.27S152.05,494.75,152.05,498.35Zm-1.93,0c0-3.16-1.05-4.86-3.27-4.86s-3.26,1.77-3.26,4.86.87,4.9,3.26,4.9S150.12,501.57,150.12,498.35Z"/><path class="cls-15" d="M167.78,504.41l-.32-1.55a4.77,4.77,0,0,1-3.72,1.8,3.62,3.62,0,0,1-3.9-3.7c0-2.1,1.53-3.45,4.27-3.45h3.13v-1c0-2.1-.92-3-2.74-3a9,9,0,0,0-3.65.79l-.49-1.35a10.6,10.6,0,0,1,4.39-.92c2.86,0,4.31,1.48,4.31,4.37v8Zm-.54-5.62H164.4c-2,0-2.73.89-2.73,2.09a2.23,2.23,0,0,0,2.53,2.42,4.27,4.27,0,0,0,3-1.5Z"/><path class="cls-15" d="M174.17,505.22v3.87h-1.9V492.33h1.45l.3,1.43a4.86,4.86,0,0,1,3.52-1.68c3.08,0,4.61,2.2,4.61,6.27,0,4.26-2.12,6.31-5,6.31a4.27,4.27,0,0,1-3.26-1.38A10.84,10.84,0,0,1,174.17,505.22Zm0-3.28a4,4,0,0,0,2.86,1.31c2.19,0,3.22-1.43,3.22-4.9,0-3.19-.91-4.81-3.1-4.81a4.32,4.32,0,0,0-3,1.4Z"/><path class="cls-15" d="M191.15,494a4.6,4.6,0,0,0-1.55-.22,3.86,3.86,0,0,0-2.71,1.3v9.37H185V492.33h1.26l.35,1.53a4,4,0,0,1,3.13-1.7,5.81,5.81,0,0,1,1.53.19Z"/><path class="cls-15" d="M203.31,498.35c0,4.06-2,6.31-5.2,6.31s-5.16-2.2-5.16-6.31c0-3.55,1.68-6.27,5.16-6.27S203.31,494.75,203.31,498.35Zm-1.92,0c0-3.16-1.06-4.86-3.28-4.86s-3.26,1.77-3.26,4.86.86,4.9,3.26,4.9S201.39,501.57,201.39,498.35Z"/><path class="cls-15" d="M211.47,504.41h-2.79l-3.87-12.08h2.07l3.28,10.92h.05l3.26-10.92h1.92Z"/><path class="cls-15" d="M218.82,498.91c0,3,1.53,4.29,3.82,4.29a7.45,7.45,0,0,0,3.75-1.21l.46,1.33a8.59,8.59,0,0,1-4.41,1.34c-3.3,0-5.5-2.2-5.5-6.36,0-3.83,1.88-6.22,5.18-6.22s4.83,2.74,4.83,5.77v1.06Zm3.23-5.4c-2.3,0-3.23,2-3.23,4.1h6.31C225.13,495.51,224.41,493.51,222.05,493.51Z"/><path class="cls-15" d="M238.74,503.6a8.6,8.6,0,0,1-4,1.06c-3.06,0-5.28-1.8-5.28-6.29,0-4.09,2.25-6.29,5.28-6.29a7.89,7.89,0,0,1,3.95,1l-.55,1.34a6.45,6.45,0,0,0-3.3-.79c-2.17,0-3.5,1.72-3.5,4.78,0,3.4,1.33,4.83,3.5,4.83a6.78,6.78,0,0,0,3.47-1Z"/><path class="cls-15" d="M241.21,504.41v-17h1.87v4.86a6.26,6.26,0,0,1-.17,1.52,5,5,0,0,1,3.65-1.7c2.95,0,4.16,1.66,4.16,4.71v7.62H248.8v-7.3c0-2.24-.89-3.55-2.76-3.55a4.49,4.49,0,0,0-3,1.38v9.47Z"/><path class="cls-15" d="M261.1,504.41l-.32-1.55a4.75,4.75,0,0,1-3.72,1.8,3.62,3.62,0,0,1-3.9-3.7c0-2.1,1.53-3.45,4.27-3.45h3.13v-1c0-2.1-.91-3-2.74-3a9,9,0,0,0-3.65.79l-.49-1.35a10.6,10.6,0,0,1,4.39-.92c2.86,0,4.31,1.48,4.31,4.37v8Zm-.54-5.62h-2.84c-2,0-2.73.89-2.73,2.09a2.23,2.23,0,0,0,2.54,2.42,4.27,4.27,0,0,0,3-1.5Z"/><path class="cls-15" d="M271.73,494a4.69,4.69,0,0,0-1.55-.22,3.88,3.88,0,0,0-2.72,1.3v9.37h-1.87V492.33h1.26l.34,1.53a4,4,0,0,1,3.13-1.7,5.81,5.81,0,0,1,1.53.19Z"/><path class="cls-15" d="M274.05,501.08V487.4h1.85v14.37c0,1,.46,1.46,1.8,1.46h.39v1.28a5.49,5.49,0,0,1-1.18.15C274.61,504.66,274.05,503.35,274.05,501.08Z"/><path class="cls-15" d="M290.37,498.35c0,4.06-2,6.31-5.2,6.31s-5.16-2.2-5.16-6.31c0-3.55,1.68-6.27,5.16-6.27S290.37,494.75,290.37,498.35Zm-1.93,0c0-3.16-1.06-4.86-3.27-4.86s-3.26,1.77-3.26,4.86.86,4.9,3.26,4.9S288.44,501.57,288.44,498.35Z"/><path class="cls-15" d="M292.83,501.65h1.85v2.76h-1.85Z"/><path class="cls-16" d="M43.21,390.69a23.21,23.21,0,0,1-6.73-1V372.31H43c5.4,0,8.81,2.12,8.81,8.85C51.83,387,49.3,390.69,43.21,390.69Zm-.32-15H40.72v11.06a10.73,10.73,0,0,0,2.73.35c2,0,3.87-1,3.87-6C47.32,377.19,46.22,375.71,42.89,375.71Z"/><path class="cls-16" d="M56.29,390.42V380.28l-1.56-.35v-2.66H60.5v13.15Zm-.08-18.63h4.24v3.71H56.21Z"/><path class="cls-16" d="M72.21,390.42l-.54-1.5a4.48,4.48,0,0,1-3.73,1.77,4.19,4.19,0,0,1-4.51-4.32c0-2.52,1.88-3.95,5.13-3.95H71v-.48c0-1.39-.94-1.72-2-1.72a9.39,9.39,0,0,0-3.92.86l-1-3A14,14,0,0,1,69.42,377c4,0,5.69,1.77,5.69,5.24v8.18ZM71,384.87H69.31c-1.13,0-1.72.53-1.72,1.39a1.43,1.43,0,0,0,1.58,1.59,3.87,3.87,0,0,0,1.83-.54Z"/><path class="cls-16" d="M90.55,377.27l-.06,3.28a7.69,7.69,0,0,1-2.17-.68,4.77,4.77,0,0,1,1.07,1.64c0,3.25-3.27,4.59-5.64,4.59a7.62,7.62,0,0,1-1.66-.21.52.52,0,0,0-.38.51c0,1.39,8.33-.35,8.33,4.72,0,3.09-3,4.83-6.58,4.83-2.85,0-5.69-1.07-5.69-3.43,0-1.69,1.39-2.47,3.57-2.79-1.67-.19-3.49-.67-3.49-2.34,0-1.15,1.1-2,2.68-2.09a4.17,4.17,0,0,1-2.41-3.79c0-3.51,3.41-4.51,5.63-4.51C86,377.16,88.72,377.27,90.55,377.27Zm-7.47,12.67a1.54,1.54,0,0,0-1.42,1.59c0,.91.75,1.63,2,1.63s2.15-.72,2.15-1.74S84.85,390.07,83.08,389.94Zm2.61-8.46c0-1.12-1.08-1.5-2-1.5s-2,.38-2,1.5c0,1.29,1,1.67,2,1.67S85.69,382.77,85.69,381.48Z"/><path class="cls-16" d="M101.2,390.42v-7.75c0-1.72-.72-2.45-2-2.45a4.43,4.43,0,0,0-1.85.46v9.74H93.07V377.27H96l.59,1.48a5.26,5.26,0,0,1,4.18-1.75c3.44,0,4.73,2,4.73,5.37v8.05Z"/><path class="cls-16" d="M121,383.82c0,4.51-2.31,6.87-6.44,6.87s-6.44-2.36-6.44-6.87c0-3.86,2.31-6.82,6.44-6.82S121,380,121,383.82Zm-9.9-8.59-.38-2.42L118,371l.49,3.12Zm5.53,8.59c0-3.06-.83-3.76-2.07-3.76s-2.07.7-2.07,3.76.78,3.76,2.07,3.76S116.67,386.77,116.67,383.82Z"/><path class="cls-16" d="M132.27,380.6a8.42,8.42,0,0,0-3.06-.59c-1,0-1.45.29-1.45.83,0,1.67,5.28,1.24,5.28,5.42,0,2.55-1.85,4.43-5.5,4.43a9,9,0,0,1-3.92-.88l.78-2.93a6.41,6.41,0,0,0,3,.83c1,0,1.58-.4,1.58-1.07,0-1.93-5.21-1.37-5.21-5.85,0-2.07,1.53-3.79,5.37-3.79a12.78,12.78,0,0,1,3.6.51Z"/><path class="cls-16" d="M145.13,389.75a8.05,8.05,0,0,1-3.73.94c-2.47,0-4.3-1.58-4.3-4.72v-5.69h-1.88v-3h2V375l4.14-1.35v3.6h3.35v3h-3.35v5.55a1.09,1.09,0,0,0,1.2,1.24,4.6,4.6,0,0,0,2-.46Z"/><path class="cls-16" d="M148.81,390.42V380.28l-1.56-.35v-2.66H153v13.15Zm-.08-18.63H153v3.71h-4.24Z"/><path class="cls-16" d="M166.28,380.92a6.67,6.67,0,0,0-3.14-.75c-1.56,0-2.58.91-2.58,3.65s.89,3.65,2.61,3.65a7.75,7.75,0,0,0,3.43-.94l.76,3a10.69,10.69,0,0,1-4.6,1.15c-4.18,0-6.55-2.36-6.55-6.87,0-4.21,2.34-6.82,6.53-6.82a9.15,9.15,0,0,1,4.62,1.08Z"/><path class="cls-16" d="M182.36,383.82c0,4.51-2.31,6.87-6.44,6.87s-6.44-2.36-6.44-6.87c0-3.86,2.31-6.82,6.44-6.82S182.36,380,182.36,383.82Zm-4.37,0c0-3.06-.84-3.76-2.07-3.76s-2.07.7-2.07,3.76.78,3.76,2.07,3.76S178,386.77,178,383.82Z"/><path class="cls-16" d="M185,386.24h4.3v4.48c0,2.23-1.61,3.35-4.3,3.6v-2.47c.48-.06.94-.49.94-1.43l-.94-.53Z"/><path class="cls-16" d="M204.75,390.59c0,4-1.82,5.07-4.4,5.07a8.61,8.61,0,0,1-2.57-.4l.48-3.39a3.22,3.22,0,0,0,1.15.22c.75,0,1.13-.48,1.13-1.24V380.2l-1.56-.38v-2.55h5.77Zm-4.24-18.8h4.24v3.71h-4.24Z"/><path class="cls-16" d="M217.91,390.42l-.67-1.66a5,5,0,0,1-4.11,1.93c-3.46,0-4.91-1.88-4.91-5.5v-7.92h4.24v8c0,1.63.67,2.17,2,2.17a3.8,3.8,0,0,0,1.9-.51v-9.69h4.3v13.15Z"/><path class="cls-16" d="M232.14,380.6a8.38,8.38,0,0,0-3.06-.59c-1,0-1.45.29-1.45.83,0,1.67,5.29,1.24,5.29,5.42,0,2.55-1.86,4.43-5.51,4.43a9,9,0,0,1-3.92-.88l.78-2.93a6.44,6.44,0,0,0,3,.83c1,0,1.58-.4,1.58-1.07,0-1.93-5.2-1.37-5.2-5.85,0-2.07,1.53-3.79,5.36-3.79a12.78,12.78,0,0,1,3.6.51Z"/><path class="cls-16" d="M245,389.75a8.05,8.05,0,0,1-3.73.94c-2.47,0-4.3-1.58-4.3-4.72v-5.69h-1.88v-3h2V375l4.14-1.35v3.6h3.35v3h-3.35v5.55a1.09,1.09,0,0,0,1.2,1.24,4.6,4.6,0,0,0,2-.46Z"/><path class="cls-16" d="M248.68,390.42V380.28l-1.56-.35v-2.66h5.77v13.15Zm-.08-18.63h4.24v3.71H248.6Z"/><path class="cls-16" d="M264.62,375a5.26,5.26,0,0,0-1.63-.22,1.48,1.48,0,0,0-1.61,1.59v.88h2.84v3h-2.84v10.14h-4.25V380.28h-1.85v-3h1.85V376.2c0-3.12,1.88-4.75,5.56-4.75a10.87,10.87,0,0,1,2.23.24Z"/><path class="cls-16" d="M267.52,390.42V380.28l-1.55-.35v-2.66h5.77v13.15Zm-.08-18.63h4.24v3.71h-4.24Z"/><path class="cls-16" d="M285,380.92a6.67,6.67,0,0,0-3.14-.75c-1.56,0-2.58.91-2.58,3.65s.89,3.65,2.61,3.65a7.75,7.75,0,0,0,3.43-.94l.75,3a10.6,10.6,0,0,1-4.59,1.15c-4.18,0-6.55-2.36-6.55-6.87,0-4.21,2.34-6.82,6.53-6.82a9.09,9.09,0,0,1,4.61,1.08Z"/><path class="cls-16" d="M297,390.42l-.53-1.5a4.5,4.5,0,0,1-3.74,1.77,4.19,4.19,0,0,1-4.51-4.32c0-2.52,1.89-3.95,5.13-3.95h2.45v-.48c0-1.39-.94-1.72-2-1.72a9.35,9.35,0,0,0-3.92.86l-1.05-3a14,14,0,0,1,5.37-1.08c4.06,0,5.69,1.77,5.69,5.24v8.18Zm-1.2-5.55h-1.7c-1.12,0-1.71.53-1.71,1.39a1.43,1.43,0,0,0,1.58,1.59,3.94,3.94,0,0,0,1.83-.54Z"/><path class="cls-16" d="M312.87,380.92a6.7,6.7,0,0,0-3.14-.75c-1.56,0-2.58.91-2.58,3.65s.89,3.65,2.6,3.65a7.76,7.76,0,0,0,3.44-.94l.75,3a10.64,10.64,0,0,1-4.59,1.15c-4.19,0-6.55-2.36-6.55-6.87,0-4.21,2.34-6.82,6.52-6.82a9.1,9.1,0,0,1,4.62,1.08Z"/><path class="cls-16" d="M317.75,390.42V380.28l-1.55-.35v-2.66H322v13.15Zm-.08-18.63h4.24v3.71h-4.24Z"/><path class="cls-16" d="M337.78,383.82c0,4.51-2.31,6.87-6.44,6.87s-6.44-2.36-6.44-6.87c0-3.86,2.31-6.82,6.44-6.82S337.78,380,337.78,383.82Zm-9.9-8.59-.38-2.42,7.22-1.77.48,3.12Zm5.53,8.59c0-3.06-.84-3.76-2.07-3.76s-2.07.7-2.07,3.76.78,3.76,2.07,3.76S333.41,386.77,333.41,383.82Z"/><path class="cls-16" d="M348.84,390.42v-7.75c0-1.72-.72-2.45-2-2.45a4.43,4.43,0,0,0-1.85.46v9.74h-4.24V377.27h2.93l.59,1.48a5.26,5.26,0,0,1,4.18-1.75c3.44,0,4.73,2,4.73,5.37v8.05Z"/><path class="cls-16" d="M41.92,413l-2.79.57-3.94-13.32H40l2.39,10.55h.08l2.45-10.55h4.18L45,414c-1.13,3.6-3.2,5-6,5a7.32,7.32,0,0,1-4-1.43l1.31-2.89h.41a4.51,4.51,0,0,0,2.52,1,2.76,2.76,0,0,0,2.63-2.31Z"/><path class="cls-16" d="M66,398a5.53,5.53,0,0,0-1.63-.22,1.48,1.48,0,0,0-1.61,1.59v.88H65.6v3H62.76v10.15H58.52V403.29H56.66v-3h1.86v-1.07c0-3.11,1.88-4.75,5.55-4.75a10.87,10.87,0,0,1,2.23.24Z"/><path class="cls-16" d="M77.17,413.44l-.67-1.67a5,5,0,0,1-4.1,1.93c-3.47,0-4.92-1.87-4.92-5.5v-7.92h4.25v8c0,1.64.67,2.17,2,2.17a3.84,3.84,0,0,0,1.91-.51v-9.69h4.29v13.16Z"/><path class="cls-16" d="M91.24,413.44v-7.76c0-1.72-.72-2.44-2-2.44a4.39,4.39,0,0,0-1.85.45v9.75H83.11V400.28H86l.6,1.48A5.24,5.24,0,0,1,90.81,400c3.44,0,4.73,2,4.73,5.36v8.06Z"/><path class="cls-16" d="M107.22,401.36a6.28,6.28,0,0,1-.43-2.53v-3.92H111v18.53h-3.51l-.43-1.4a3.89,3.89,0,0,1-3.33,1.66c-2.93,0-5.4-2.06-5.4-6.84,0-4.51,2.69-6.84,5.72-6.84A3.88,3.88,0,0,1,107.22,401.36Zm-.43,2.31a4.26,4.26,0,0,0-2-.51c-1.26,0-2.25.72-2.25,3.67s1,3.79,2.22,3.79a3.16,3.16,0,0,0,2-.83Z"/><path class="cls-16" d="M122.71,413.44l-.54-1.51a4.48,4.48,0,0,1-3.73,1.77,4.19,4.19,0,0,1-4.51-4.32c0-2.52,1.88-3.94,5.13-3.94h2.44V405c0-1.39-.94-1.71-2-1.71a9.39,9.39,0,0,0-3.92.86l-1-3a14,14,0,0,1,5.37-1.07c4,0,5.69,1.77,5.69,5.23v8.19Zm-1.21-5.56h-1.69c-1.13,0-1.72.54-1.72,1.4a1.42,1.42,0,0,0,1.58,1.58,3.87,3.87,0,0,0,1.83-.54Z"/><path class="cls-16" d="M141.15,405.38v8.06h-4.29v-7.76c0-1.72-.73-2.44-2-2.44a4.1,4.1,0,0,0-1.78.45v9.75h-4.23V400.28h2.84l.67,1.48a4.77,4.77,0,0,1,3.87-1.74c2.22,0,3.51.61,4.21,1.74a4.9,4.9,0,0,1,3.89-1.74c4.06,0,5,2,5,5.36v8.06H145v-7.76c0-1.72-.8-2.44-2.12-2.44a4.11,4.11,0,0,0-1.79.45A11.3,11.3,0,0,1,141.15,405.38Z"/><path class="cls-16" d="M156.21,408c0,1.5,1,2.49,3,2.49a9.68,9.68,0,0,0,3.71-1l.75,3a11.61,11.61,0,0,1-5.1,1.23c-4.22,0-6.66-2.6-6.66-6.87,0-4,1.91-6.81,6.36-6.81,4.11,0,5.75,2.92,5.75,6.22V408Zm1.94-4.89c-1.4,0-1.94,1.26-1.94,2.47H160C160,404.18,159.6,403.1,158.15,403.1Z"/><path class="cls-16" d="M175.09,413.44v-7.76c0-1.72-.73-2.44-2-2.44a4.47,4.47,0,0,0-1.86.45v9.75H167V400.28h2.93l.59,1.48a5.28,5.28,0,0,1,4.19-1.74c3.43,0,4.72,2,4.72,5.36v8.06Z"/><path class="cls-16" d="M191.55,412.76a8.06,8.06,0,0,1-3.74.94c-2.47,0-4.29-1.58-4.29-4.72v-5.69h-1.88v-3h2V398l4.13-1.34v3.59h3.36v3h-3.36v5.56a1.09,1.09,0,0,0,1.21,1.23,4.6,4.6,0,0,0,2-.46Z"/><path class="cls-16" d="M206.42,406.83c0,4.51-2.31,6.87-6.44,6.87s-6.45-2.36-6.45-6.87c0-3.86,2.31-6.81,6.45-6.81S206.42,403,206.42,406.83Zm-4.38,0c0-3.06-.83-3.75-2.06-3.75s-2.07.69-2.07,3.75.78,3.76,2.07,3.76S202,409.79,202,406.83Z"/><path class="cls-16" d="M217.64,403.61a8.38,8.38,0,0,0-3.06-.59c-1,0-1.45.3-1.45.83,0,1.67,5.29,1.24,5.29,5.43,0,2.55-1.85,4.42-5.5,4.42a8.84,8.84,0,0,1-3.92-.88l.78-2.93a6.36,6.36,0,0,0,3,.83c1,0,1.59-.4,1.59-1.07,0-1.93-5.21-1.37-5.21-5.85,0-2.07,1.53-3.78,5.37-3.78a13.11,13.11,0,0,1,3.59.5Z"/><path class="cls-16" d="M221.26,400.28h4.3v4.19h-4.3Zm0,9h4.3v4.19h-4.3Z"/></svg>