<svg id="Capa_1" data-name="Capa 1" xmlns="http://www.w3.org/2000/svg" xmlns:xlink="http://www.w3.org/1999/xlink" viewBox="0 0 512 512"><defs><style>.cls-1,.cls-14,.cls-16,.cls-2,.cls-23,.cls-24{fill:none;}.cls-2{stroke:#e7334a;stroke-linecap:round;stroke-linejoin:round;stroke-width:3px;}.cls-3{fill:#593a12;}.cls-4{fill:#e9b871;}.cls-5{fill:#7b5227;}.cls-6{fill:#c1d44f;}.cls-7{fill:#a0b61d;}.cls-8{fill:#34bacc;}.cls-9{fill:#f69f21;}.cls-10{fill:#fff;}.cls-11{fill:#103140;}.cls-12{fill:#8f96cb;}.cls-13{fill:#faea27;}.cls-14{stroke:#f4d511;}.cls-14,.cls-16,.cls-23,.cls-24,.cls-32,.cls-33,.cls-34,.cls-35{stroke-miterlimit:10;}.cls-14,.cls-24{stroke-width:2px;}.cls-15{fill:#f4d511;}.cls-16{stroke:#f4d40d;stroke-width:0.75px;}.cls-17{fill:#222b54;}.cls-18{fill:#f8b78e;}.cls-19{fill:#fedc67;}.cls-20{clip-path:url(#clip-path);}.cls-21{fill:#7a7ba3;}.cls-22{fill:#e1ddcf;}.cls-23,.cls-32,.cls-33,.cls-34,.cls-35{stroke:#fff;}.cls-24{stroke:#7a7ba3;}.cls-25{fill:#eb575a;}.cls-26{fill:#8ac6e2;}.cls-27{fill:#2d5972;}.cls-28{fill:#133a4d;}.cls-29{fill:#c99e61;}.cls-30{fill:#9f7d4d;}.cls-31{fill:#ca1335;}.cls-32,.cls-33{fill:#615185;}.cls-33{stroke-width:0.5px;}.cls-34{fill:#55b682;}.cls-35{fill:#e7334a;}</style><clipPath id="clip-path"><rect class="cls-1" x="420.76" y="195.61" width="42.93" height="116.6"/></clipPath></defs><path class="cls-2" d="M456.31,170.64c-3.6-12.88-34.1-116.11-132.09-139.44C243.8,12.05,132.09,46.84,104.56,60.94"/><rect class="cls-3" x="56.75" y="3.68" width="12.17" height="36.24" transform="matrix(0.05, -1, 1, 0.05, 38.05, 83.52)"/><path class="cls-4" d="M63,18.13A9.07,9.07,0,1,1,72.51,9.5,9.09,9.09,0,0,1,63,18.13m.69-14.46a5.41,5.41,0,1,0,5.14,5.66,5.41,5.41,0,0,0-5.14-5.66"/><path class="cls-5" d="M63.37,16.36a10.89,10.89,0,0,1-4.54-1.16L58.07,31l8.64.41.75-15.61a11.28,11.28,0,0,1-4.09.53"/><path class="cls-5" d="M67.4,17.18l.18-4-.65,0a5.34,5.34,0,0,1-7.34-.35l-.65,0-.19,4a8.68,8.68,0,0,0,8.65.41"/><path class="cls-6" d="M10.06,71.35a50.35,50.35,0,0,0,47.87,52.71L62.76,23.49a50.33,50.33,0,0,0-52.7,47.86"/><path class="cls-7" d="M62.76,23.49,57.93,124.06A50.34,50.34,0,1,0,62.76,23.49"/><path class="cls-3" d="M62.32,32.63l-4,82.28a41.19,41.19,0,0,0,4-82.28"/><path class="cls-5" d="M19.2,71.79a41.24,41.24,0,0,0,39.17,43.12l4-82.28A41.23,41.23,0,0,0,19.2,71.79"/><polygon class="cls-8" points="55.66 80.99 25.76 51.46 65.03 66.43 55.66 80.99"/><polygon class="cls-9" points="55.66 80.99 94.94 95.96 65.03 66.43 55.66 80.99"/><polygon class="cls-10" points="66.31 53.41 63.6 53.28 59.67 45.71 59.63 45.73 59.27 53.07 56.56 52.94 57.12 41.24 59.84 41.37 63.76 48.93 63.81 48.92 64.17 41.58 66.87 41.71 66.31 53.41"/><polygon class="cls-10" points="61.67 102.15 61.72 102.15 63.5 94.63 66.24 94.76 63 106.33 60.45 106.21 58.82 98.89 58.77 98.89 56.48 106.02 53.92 105.9 51.79 94.07 54.54 94.2 55.59 101.86 55.64 101.87 57.99 94.37 60.04 94.47 61.67 102.15"/><path class="cls-11" d="M59.7,80.3a6.24,6.24,0,1,1,6.53-5.94A6.25,6.25,0,0,1,59.7,80.3"/><path class="cls-10" d="M64.4,74.28a4.41,4.41,0,1,1-4.19-4.62,4.41,4.41,0,0,1,4.19,4.62"/><path class="cls-12" d="M467.29,91.29a7.52,7.52,0,1,1-7.42-7.62,7.51,7.51,0,0,1,7.42,7.62"/><path class="cls-13" d="M481.77,49.23A21.47,21.47,0,1,0,441.91,60h0v0a21.59,21.59,0,0,0,2.35,3.18A60.91,60.91,0,0,1,449.74,72a23.32,23.32,0,0,1,1.39,9.15L469,76.91s-.69-.77,1.12-4.68a55.64,55.64,0,0,1,5.05-7.76,21.35,21.35,0,0,0,6.63-15.24"/><path class="cls-14" d="M481.77,49.23A21.47,21.47,0,1,0,441.91,60h0v0a21.59,21.59,0,0,0,2.35,3.18A60.91,60.91,0,0,1,449.74,72a23.32,23.32,0,0,1,1.39,9.15L469,76.91s-.69-.77,1.12-4.68a55.64,55.64,0,0,1,5.05-7.76A21.35,21.35,0,0,0,481.77,49.23Z"/><path class="cls-12" d="M450.31,85.54a2.2,2.2,0,0,1-.45-4.35L469,77a2.2,2.2,0,1,1,.95,4.29l-19.13,4.22a2.92,2.92,0,0,1-.5.05"/><path class="cls-12" d="M450.25,90a2.21,2.21,0,0,1-.44-4.36l19.12-4.2a2.2,2.2,0,1,1,.95,4.29L450.75,90a2.83,2.83,0,0,1-.5,0"/><path class="cls-12" d="M450.2,94.44a2.2,2.2,0,0,1-.45-4.35l19.13-4.21a2.2,2.2,0,1,1,.94,4.3l-19.13,4.21a2,2,0,0,1-.49,0"/><path class="cls-15" d="M460.66,20.71a.63.63,0,0,1-.62-.63l.09-6.67a.62.62,0,0,1,1.24,0l-.08,6.66a.63.63,0,0,1-.63.62"/><path class="cls-16" d="M460.66,20.71a.63.63,0,0,1-.62-.63l.09-6.67a.62.62,0,0,1,1.24,0l-.08,6.66a.63.63,0,0,1-.63.62"/><path class="cls-15" d="M485.74,35.79a.65.65,0,0,1-.54-.32.63.63,0,0,1,.24-.86l6-3.33a.62.62,0,0,1,.85.24.62.62,0,0,1-.24.85l-6,3.34a.68.68,0,0,1-.31.08"/><path class="cls-16" d="M485.74,35.79a.65.65,0,0,1-.54-.32.63.63,0,0,1,.24-.86l6-3.33a.62.62,0,0,1,.85.24.62.62,0,0,1-.24.85l-6,3.34a.68.68,0,0,1-.31.08"/><path class="cls-15" d="M428.88,67.67a.64.64,0,0,1-.54-.32.63.63,0,0,1,.24-.85L434.86,63a.63.63,0,0,1,.85.24.63.63,0,0,1-.24.85l-6.28,3.52a.58.58,0,0,1-.31.08"/><path class="cls-16" d="M428.88,67.67a.64.64,0,0,1-.54-.32.63.63,0,0,1,.24-.85L434.86,63a.63.63,0,0,1,.85.24.63.63,0,0,1-.24.85l-6.28,3.52a.58.58,0,0,1-.31.08"/><path class="cls-15" d="M475.26,24.87a.65.65,0,0,1-.31-.08.63.63,0,0,1-.22-.86l3.43-5.78a.62.62,0,0,1,1.07.64l-3.43,5.78a.6.6,0,0,1-.54.3"/><path class="cls-16" d="M475.26,24.87a.65.65,0,0,1-.31-.08.63.63,0,0,1-.22-.86l3.43-5.78a.62.62,0,0,1,1.07.64l-3.43,5.78a.6.6,0,0,1-.54.3"/><path class="cls-15" d="M441.89,81a.69.69,0,0,1-.31-.09.63.63,0,0,1-.22-.86l3.74-6.29a.63.63,0,0,1,1.08.63l-3.74,6.3a.64.64,0,0,1-.55.31"/><path class="cls-16" d="M441.89,81a.69.69,0,0,1-.31-.09.63.63,0,0,1-.22-.86l3.74-6.29a.63.63,0,0,1,1.08.63l-3.74,6.3a.64.64,0,0,1-.55.31"/><path class="cls-15" d="M446,24.5a.64.64,0,0,1-.54-.32l-3.28-5.85a.62.62,0,0,1,1.09-.61l3.28,5.85a.62.62,0,0,1-.24.85.58.58,0,0,1-.31.08"/><path class="cls-16" d="M446,24.5a.64.64,0,0,1-.54-.32l-3.28-5.85a.62.62,0,0,1,1.09-.61l3.28,5.85a.62.62,0,0,1-.24.85.58.58,0,0,1-.31.08"/><path class="cls-15" d="M477.9,81.47a.63.63,0,0,1-.54-.32l-3.54-6.42a.62.62,0,0,1,.25-.84.63.63,0,0,1,.85.24l3.54,6.41a.64.64,0,0,1-.25.85.68.68,0,0,1-.31.08"/><path class="cls-16" d="M477.9,81.47a.63.63,0,0,1-.54-.32l-3.54-6.42a.62.62,0,0,1,.25-.84.63.63,0,0,1,.85.24l3.54,6.41a.64.64,0,0,1-.25.85.68.68,0,0,1-.31.08"/><path class="cls-15" d="M435.21,35.15a.59.59,0,0,1-.31-.09L429,31.58a.64.64,0,0,1-.22-.86.63.63,0,0,1,.86-.22L435.54,34a.64.64,0,0,1,.22.86.65.65,0,0,1-.55.3"/><path class="cls-16" d="M435.21,35.15a.59.59,0,0,1-.31-.09L429,31.58a.64.64,0,0,1-.22-.86.63.63,0,0,1,.86-.22L435.54,34a.64.64,0,0,1,.22.86.65.65,0,0,1-.55.3"/><path class="cls-15" d="M491.25,68.45a.68.68,0,0,1-.31-.08l-6.2-3.65a.62.62,0,1,1,.63-1.07l6.2,3.64a.62.62,0,0,1,.22.86.58.58,0,0,1-.54.3"/><path class="cls-16" d="M491.25,68.45a.68.68,0,0,1-.31-.08l-6.2-3.65a.62.62,0,1,1,.63-1.07l6.2,3.64a.62.62,0,0,1,.22.86.58.58,0,0,1-.54.3"/><path class="cls-15" d="M424.28,49.61a.62.62,0,0,1-.61-.6.61.61,0,0,1,.59-.65l7-.27a.6.6,0,0,1,.64.61.62.62,0,0,1-.6.64l-7,.27Z"/><path class="cls-16" d="M424.28,49.61a.62.62,0,0,1-.61-.6.61.61,0,0,1,.59-.65l7-.27a.6.6,0,0,1,.64.61.62.62,0,0,1-.6.64l-7,.27Z"/><path class="cls-15" d="M496.3,50.51h0l-7-.44a.63.63,0,0,1-.59-.66.64.64,0,0,1,.64-.59h0l7,.44a.63.63,0,0,1,.59.67.62.62,0,0,1-.63.58"/><path class="cls-16" d="M496.3,50.51h0l-7-.44a.63.63,0,0,1-.59-.66.64.64,0,0,1,.64-.59h0l7,.44a.63.63,0,0,1,.59.67.62.62,0,0,1-.63.58"/><path class="cls-2" d="M260.94,287.22a24.25,24.25,0,0,1,13.1-6c12-1.48,23,6,32.72,13.1s38.42,43.93,83.89-12.1"/><path class="cls-2" d="M418.3,184.55c1.19-12.29,2.66-24.61,2.6-37-.14-28.25-32.82-35.32-53.07-20.57-11,8-28.44,28.41-45.36,13.92"/><path class="cls-17" d="M383.16,280.6a23,23,0,0,1-29.1-9.53c-2.86-4.95-3.7-10.68-3.79-16.31-.06-4.5,2.46-12.13.74-16.21a8.31,8.31,0,0,0-2.37-2.88c-3.5-3.12-7.33-6-9.92-9.91-4.5-6.78-3.72-17.16,1.59-23.23,3.17-3.64,7.82-4.09,11-7.13,3.41-3.27,4-9.46,4.83-13.82,2.14-11.28,6.62-22.73,15.62-29.86a32.74,32.74,0,0,1,31.06-4.89c5,1.84,9.8,4.95,15.1,4.62,4.9-.3,9.06-3.48,13.56-5.44,12.68-5.53,27.44-1.15,39.94,4.78C483,156.27,494.67,164,499,176c2.09,5.77,2.27,12.07,1.76,18.18-.42,5-1.53,10.46-5.36,13.74-5.51,4.73-2.28,6.89.29,12.41,2.89,6.2,6.67,12.28,5.8,19.43-1.12,9.24-9.6,15.88-18.21,19.43s-19.13,4.73-26.18-1.18"/><path class="cls-18" d="M511.77,396.66c-.86-3.62-2.66-7.25-3.58-11a81.63,81.63,0,0,0-24.54-40.59c-7.26-6.48-16.75-7.24-26.3-7.62-6.76-.27-15.9-.61-20-7.15-2-3.22-3.09-7.74-3.74-12.48v-7.5c10-3.06,18.42-9.86,23.75-20.53,4.68-9.35,6.28-23.33,6.3-33.66,0-12.53-2.67-25.06-5.76-37.14-2.71-10.59-6.35-24.82-17.41-29.78-15.69-7-32.35-8.3-48.6-2.15-15.52,5.86-26.67,23.31-26.7,39.71l1.22,3.09c-3.22-4.56-10.24-5.52-15-2.55s-7,9.1-6,14.6,4.75,10.26,9.51,13.17a32.8,32.8,0,0,0,16,4.35,59.4,59.4,0,0,0,11.24,32.86c5.59,7.71,13.4,14.12,22.45,17.28.64.22,1.29.42,1.94.61v18.07h.17a23.53,23.53,0,0,1-4.5,10.3c-3.63,4.63-9.08,7.43-14.52,9.67-9.2,3.81-18.9,6.46-27.7,11.12-21.76,11.52-36.13,35.77-35.81,60.39,10.6,4.28,22.07,6,33.45,7.05,23.53,2.22,47.45,1.18,71,.69a186.17,186.17,0,0,0,58.6-11,66.26,66.26,0,0,0,20.35-12C510.62,401.93,512.71,400.57,511.77,396.66Z"/><path class="cls-11" d="M508.19,385.68a81.56,81.56,0,0,0-24.54-40.58c-7.26-6.49-16.75-7.25-26.3-7.63-4.9-.19-11-.44-15.61-3.05A40.32,40.32,0,0,1,404,336a21.23,21.23,0,0,1-1.71,2.57c-3.63,4.63-9.08,7.43-14.52,9.67-9.2,3.81-18.9,6.46-27.7,11.12-21.76,11.52-36.13,35.77-35.81,60.39,10.6,4.29,22.06,6,33.45,7.05,23.54,2.22,47.45,1.18,71,.69a186.24,186.24,0,0,0,58.61-11,66.26,66.26,0,0,0,20.35-12c3-2.59,5.09-3.95,4.15-7.86-.86-3.62-2.66-7.25-3.58-11"/><path class="cls-8" d="M391.41,394.28c28.67.27,57.29-3.94,85-11.24,9.54-2.5,19.68-5.89,25.84-13.39a83.08,83.08,0,0,0-10.4-16,15.94,15.94,0,0,1-2.25,1.61c-19,11.45-40.48,14.95-62.31,16.79a301.09,301.09,0,0,1-68.93-2.1q-5.47-.79-10.91-1.81h0a69.72,69.72,0,0,0-15.07,19.15,276.06,276.06,0,0,0,59,7"/><path class="cls-8" d="M382,364.59c28.68.27,57.3-3.94,85-11.24,6.21-1.63,12.66-3.64,18.12-6.9l-1.46-1.36c-7.26-6.48-16.75-7.23-26.3-7.62-1.76-.07-3.68-.15-5.62-.34a206.85,206.85,0,0,1-33.86,5.22c-6.91.58-13.85.9-20.79,1a47.52,47.52,0,0,1-9.35,4.89c-9.2,3.81-18.91,6.46-27.7,11.12a63.84,63.84,0,0,0-5.85,3.52A274.32,274.32,0,0,0,382,364.59"/><path class="cls-19" d="M404.31,332.88A25.94,25.94,0,0,0,438,331.72l6.72,3.59a2.25,2.25,0,0,1,.81.62c.45.67,0,1.58-.44,2.26a25.24,25.24,0,0,1-11.94,9.26,43,43,0,0,1-8.85,2c-4.69.65-9.49,1.06-14.13.16s-9.19-3.26-11.82-7.19l5.06-8.29"/><path class="cls-17" d="M439.94,207.24c10.17-3.5,18.15-9.83,16-21.27-3.93-21.16-37.68-22-53.74-19-9.69,1.85-19.06,6.3-25.77,13.55A63.92,63.92,0,0,0,362,207c-1.74,7.09.52,12.95,3,19.53,1.79,4.69,3.16,9.5,4.84,14.22,1.59,4.44,3.49,7.95,7.11,3,5.32-7.25,6-16.93,6.67-25.54.2-2.53.63-5.24,2.45-7s4.75-2.15,7.31-1.67c3.1.58,5.84,2.28,9,2.49s7-.37,10.26-.48c6.89-.24,18-1.09,27.3-4.3"/><path class="cls-17" d="M388.09,227.19c.78,7.57,3.51,20.66,13.37,21.24,10.13.59,9.91-15.75,8.83-22-.35-2-3.43-1.16-3.08.85.79,4.56.8,22.39-8.29,17-5.77-3.43-7-11-7.63-17.06-.21-2-3.41-2-3.2,0"/><path class="cls-17" d="M429.76,222.72c-.44,7.15,4.05,20.34,13.34,19.33,10.6-1.16,7.83-16.92,5.82-23.54-.59-2-3.68-1.12-3.08.85a37.76,37.76,0,0,1,1.74,9.54c.13,2.91-.12,9.36-4.19,9.87-7.73,1-10.78-10.43-10.43-16.05.12-2.06-3.07-2.05-3.2,0"/><path class="cls-17" d="M417.52,214.88a81.68,81.68,0,0,0,9.17,41.94c.95,1.83,3.7.21,2.76-1.61a78.23,78.23,0,0,1-8.74-40.33c.1-2.06-3.09-2-3.19,0"/><path class="cls-17" d="M413.15,248.52c1.07,5.86,5.06,14.85,12.09,15.2,8.39.41,9.48-9.59,8.8-15.66-.23-2-3.42-2-3.19,0,.47,4.27.12,15.36-7.3,11.9-4.36-2-6.52-7.92-7.32-12.29-.37-2-3.44-1.16-3.08.85"/><path class="cls-8" d="M508.19,385.68c-.1-.43-.23-.86-.34-1.28-14.62,12.8-34.86,17.46-54.23,20.22a425.17,425.17,0,0,1-114.91.61c-4.17-.54-8.57-1.29-12.21-3.22a64.71,64.71,0,0,0-2.28,17.74c10.6,4.29,22.06,6,33.45,7.05,23.54,2.22,47.45,1.18,71,.69a186.24,186.24,0,0,0,58.61-11,66.26,66.26,0,0,0,20.35-12c3-2.59,5.09-3.95,4.15-7.86-.86-3.62-2.66-7.25-3.58-11"/><path class="cls-17" d="M367.67,252.15,363.1,242.1c1-.83,2.1-1.64,3.12-2.49,1.59-1.31-.68-3.56-2.26-2.26-.73.6-1.48,1.18-2.22,1.77l-2.85-6.27c-.85-1.86-3.6-.24-2.75,1.62l3,6.69c-1.91,1.47-3.85,2.92-5.83,4.32-1.66,1.17-.07,3.94,1.61,2.75,1.89-1.33,3.74-2.7,5.57-4.1q2.21,4.81,4.39,9.63C365.77,255.63,368.52,254,367.67,252.15Z"/><g class="cls-20"><path class="cls-18" d="M453.29,296.49a72.75,72.75,0,0,0,9.07-23.63,109.43,109.43,0,0,0,1.33-16.71c0-12.52-2.67-25.07-5.76-37.14-1.93-7.51-4.33-16.83-9.49-23.39L445.65,197a119,119,0,0,1,10,32.41c1.47,9.83-.31,18.31-.56,27.94-.29,11.79-3.34,23.67-9.83,33.6a52.22,52.22,0,0,1-12.06,13c-3.6,2.73-9.8,4.45-12.39,8.28,13,0,24.67-5.2,32.53-15.73"/></g><polyline class="cls-21" points="243.81 122.9 254.49 120.87 244.4 124.95"/><path class="cls-22" d="M332.16,109.32a59.72,59.72,0,1,1-60.31-59.13,59.72,59.72,0,0,1,60.31,59.13"/><path class="cls-23" d="M332.16,109.32a59.72,59.72,0,1,1-60.31-59.13,59.72,59.72,0,0,1,60.31,59.13"/><path class="cls-24" d="M332.16,109.32a59.72,59.72,0,1,1-60.31-59.13A59.72,59.72,0,0,1,332.16,109.32Z"/><path class="cls-25" d="M315.1,109.49A42.66,42.66,0,1,1,272,67.26a42.65,42.65,0,0,1,43.08,42.23"/><path class="cls-22" d="M298.34,109.65A25.9,25.9,0,1,1,272.19,84a25.91,25.91,0,0,1,26.15,25.63"/><path class="cls-25" d="M281.78,109.82a9.34,9.34,0,1,1-9.43-9.24,9.33,9.33,0,0,1,9.43,9.24"/><path class="cls-26" d="M214.2,136.46a28.09,28.09,0,0,1-2.29,5.92c-1.26,2-1.14,2.45-6.55,3.91s-7.78.92-9.37-1.6a6.35,6.35,0,0,1-.49-5.37"/><path class="cls-26" d="M212.17,129.57a28.64,28.64,0,0,0-5.13-3.75c-2.17-1-2.29-1.44-7.62.26s-7,3.44-7,6.42a6.32,6.32,0,0,0,2.49,4.78"/><path class="cls-26" d="M230.82,132.66,243.27,129a2.8,2.8,0,0,0,1.46-2.94c-.15-.49-.36-1.2-.57-1.93l-.06-.2-.06-.19c-.21-.72-.41-1.44-.56-1.93a2.82,2.82,0,0,0-2.83-1.69l-12.44,3.66"/><polygon class="cls-21" points="228.17 123.65 230.85 132.78 194.21 139.43 193.77 137.89 228.17 123.65"/><path class="cls-27" d="M238.22,209c-9.55,0-17.32-6.19-17.32-13.79s7.77-13.78,17.32-13.78,17.32,6.18,17.32,13.78S247.77,209,238.22,209m0-22.44c-6.72,0-12.19,3.88-12.19,8.65s5.47,8.65,12.19,8.65,12.19-3.88,12.19-8.65-5.47-8.65-12.19-8.65"/><path class="cls-27" d="M304.5,194.93a13.38,13.38,0,0,0-3.12-5.46c-4.62-4.7-9.46-5.26-12.71-4.9-11.14,1.25-19.88,14.86-20.84,16.41l8,5c2.16-3.48,8-10.65,13.08-11.85,4.21-1.49,13.1-3.93,15.58.84"/><path class="cls-11" d="M304.5,194.93c-2.48-4.77-11.37-2.33-15.58-.84a5.82,5.82,0,0,1,.79-.16c1.1-.12,2.82,0,5,2.15,8.23,8.36-14.63,61.92-26.44,76l7.23,6c8.13-9.72,35.74-61.87,29.05-83.24"/><path class="cls-27" d="M175.4,194.93a13.27,13.27,0,0,1,3.12-5.46c4.62-4.7,9.45-5.26,12.7-4.9,11.14,1.25,19.88,14.86,20.84,16.41l-8,5c-2.16-3.48-8-10.65-13.09-11.85-4.2-1.49-13.09-3.93-15.57.84"/><path class="cls-11" d="M175.4,194.93c2.48-4.77,11.37-2.33,15.57-.84a5.82,5.82,0,0,0-.79-.16c-1.1-.12-2.81,0-5,2.15-8.23,8.36,14.63,61.92,26.44,76l-7.22,6c-8.13-9.72-35.74-61.87-29-83.24"/><path class="cls-27" d="M285.39,221c-1.08-15.57-20.83-28.18-33.32-28.18H226.93c-12.49,0-32.24,12.61-33.32,28.18l2.44,31.78H283Z"/><path class="cls-11" d="M278.6,253.69H200.4L198.34,221c1.22-12.84,18.43-23.55,28.59-23.55h25.14c10.16,0,27.36,10.71,28.59,23.4Zm-76.43-1.89h74.66l1.95-30.89c-1.11-11.4-17.43-21.55-26.71-21.55H226.93c-9.28,0-25.6,10.15-26.71,21.7Z"/><path class="cls-11" d="M248.71,233H230.3A34,34,0,0,1,198,209.31c-.3.45-.62.89-.9,1.35a34,34,0,0,0,33.2,27h18.41a34,34,0,0,0,33.19-27c-.28-.46-.59-.9-.9-1.35A34,34,0,0,1,248.71,233"/><path class="cls-28" d="M230.29,233h18.42A34,34,0,0,0,281,209.31c-6.75-9.75-19.78-16.54-28.93-16.54H226.93c-9.16,0-22.18,6.79-28.92,16.54A33.92,33.92,0,0,0,230.29,233"/><path class="cls-11" d="M277,249h-74.9a10.65,10.65,0,0,0-10.38,9.36L189.75,277a26,26,0,0,0,26.31,28.18H263A26,26,0,0,0,289.25,277l-1.92-18.66A10.65,10.65,0,0,0,277,249"/><rect class="cls-29" x="216.23" y="229.94" width="9.59" height="6.7"/><rect class="cls-30" x="216.23" y="236.63" width="9.59" height="3.38"/><rect class="cls-29" x="254.7" y="229.94" width="9.59" height="6.7"/><rect class="cls-30" x="254.7" y="236.63" width="9.59" height="3.38"/><path class="cls-29" d="M207.8,264.55V282c0,4.09,5.62,7.41,12.56,7.41V264.55Z"/><path class="cls-30" d="M220.36,264.55v24.83c6.93,0,12.55-3.32,12.55-7.41V264.55Z"/><path class="cls-29" d="M246.94,264.55V282c0,4.09,5.62,7.41,12.56,7.41V264.55Z"/><path class="cls-30" d="M259.49,264.55v24.83c6.94,0,12.56-3.32,12.56-7.41V264.55Z"/><path class="cls-31" d="M396.54,343.81l.68-.35A1,1,0,0,0,396.54,343.81Z"/><path class="cls-31" d="M439.93,425.49c45.95-72.32,15.58-88.36,15.58-88.36l-13.23-2.3c.22.21,21.8,22-15,80.77C391.12,373,393.37,347,396.54,343.81l-8.81,4.43c-.73,1.41-18.82,23,26.95,77.2-9.5,10.4-18.9,31.17-10.21,71.93l11.91,11.16c-7.87-36.91,2.34-58.8,11-70,6.23,9.76,15.42,30.76,20.27,73.44l11.85-14.63c-5-43.65-13.38-63.25-20.25-72.3Z"/><path class="cls-32" d="M11.32,376.45A25,25,0,0,1,4,375.37V356.48h7.11c5.86,0,9.57,2.31,9.57,9.62C20.68,372.43,17.94,376.45,11.32,376.45ZM11,360.19H8.61v12a12,12,0,0,0,3,.37c2.13,0,4.2-1,4.2-6.47C15.78,361.79,14.58,360.19,11,360.19Z"/><path class="cls-32" d="M27.78,370.24c0,1.64,1,2.71,3.27,2.71a10.47,10.47,0,0,0,4-1l.82,3.2a12.58,12.58,0,0,1-5.54,1.34c-4.58,0-7.23-2.82-7.23-7.46,0-4.31,2.07-7.4,6.91-7.4,4.46,0,6.24,3.17,6.24,6.76v1.89Zm2.1-5.3c-1.51,0-2.1,1.37-2.1,2.68h4.11C31.89,366.1,31.46,364.94,29.88,364.94Z"/><path class="cls-32" d="M47.89,365.49a9,9,0,0,0-3.32-.64c-1,0-1.57.32-1.57.9,0,1.81,5.74,1.35,5.74,5.89,0,2.77-2,4.81-6,4.81a9.57,9.57,0,0,1-4.25-1l.84-3.18a7,7,0,0,0,3.27.91c1.05,0,1.72-.44,1.72-1.17,0-2.1-5.66-1.49-5.66-6.35,0-2.25,1.67-4.11,5.83-4.11a14,14,0,0,1,3.91.55Z"/><path class="cls-32" d="M62.21,365.84A7.32,7.32,0,0,0,58.8,365c-1.69,0-2.8,1-2.8,4s1,4,2.82,4a8.46,8.46,0,0,0,3.74-1l.81,3.27a11.43,11.43,0,0,1-5,1.25c-4.55,0-7.12-2.56-7.12-7.46,0-4.58,2.54-7.4,7.09-7.4a9.93,9.93,0,0,1,5,1.16Z"/><path class="cls-32" d="M70.25,376.16H65.7V361.88h3.21l.43,2h.15a3.46,3.46,0,0,1,3.27-2.27,5.88,5.88,0,0,1,1.57.17l-.06,3.91a6.66,6.66,0,0,0-1.78-.24,4.06,4.06,0,0,0-2.24.67Z"/><path class="cls-32" d="M77.62,376.16v-11l-1.69-.38v-2.88H82.2v14.28Zm-.09-20.23h4.61v4H77.53Z"/><path class="cls-32" d="M90.07,377.71v4H85.4V361.88h4.06l.29,1.45a4.49,4.49,0,0,1,3.55-1.74c3.18,0,5.86,2.27,5.86,7.37,0,4.9-3.12,7.49-6.38,7.49a3.49,3.49,0,0,1-3.27-1.69A10,10,0,0,1,90.07,377.71Zm0-6a2.53,2.53,0,0,0,2.1,1.34c1.25,0,2.39-1,2.39-4.08,0-3.24-1-4.08-2.36-4.08a3.31,3.31,0,0,0-2.13.9Z"/><path class="cls-32" d="M112.42,365.84A7.29,7.29,0,0,0,109,365c-1.69,0-2.8,1-2.8,4s1,4,2.83,4a8.42,8.42,0,0,0,3.73-1l.82,3.27a11.43,11.43,0,0,1-5,1.25c-4.55,0-7.12-2.56-7.12-7.46,0-4.58,2.54-7.4,7.09-7.4a9.93,9.93,0,0,1,5,1.16Z"/><path class="cls-32" d="M117.17,376.16v-11l-1.69-.38v-2.88h6.27v14.28Zm-.08-20.23h4.6v4h-4.6Z"/><path class="cls-32" d="M138.36,369c0,4.9-2.5,7.46-7,7.46s-7-2.56-7-7.46c0-4.2,2.51-7.4,7-7.4S138.36,364.79,138.36,369Zm-10.75-9.33L127.2,357l7.84-1.93.53,3.38Zm6,9.33c0-3.32-.9-4.08-2.24-4.08s-2.25.76-2.25,4.08.85,4.08,2.25,4.08S133.61,372.2,133.61,369Z"/><path class="cls-32" d="M149.82,376.16v-8.42c0-1.87-.79-2.66-2.22-2.66a4.76,4.76,0,0,0-2,.5v10.58H141V361.88h3.17l.64,1.6a5.74,5.74,0,0,1,4.55-1.89c3.73,0,5.13,2.18,5.13,5.82v8.75Z"/><path class="cls-32" d="M173,363a6.87,6.87,0,0,1-.47-2.74v-4.25h4.58v20.11h-3.82l-.47-1.51a4.2,4.2,0,0,1-3.61,1.8c-3.18,0-5.86-2.24-5.86-7.43,0-4.9,2.91-7.43,6.21-7.43A4.24,4.24,0,0,1,173,363Zm-.47,2.51a4.61,4.61,0,0,0-2.16-.55c-1.37,0-2.45.78-2.45,4s1.05,4.11,2.42,4.11a3.4,3.4,0,0,0,2.19-.9Z"/><path class="cls-32" d="M184.41,370.24c0,1.64,1.05,2.71,3.27,2.71a10.47,10.47,0,0,0,4-1l.82,3.2a12.58,12.58,0,0,1-5.54,1.34c-4.58,0-7.23-2.82-7.23-7.46,0-4.31,2.07-7.4,6.91-7.4,4.46,0,6.23,3.17,6.23,6.76v1.89Zm2.1-5.3c-1.52,0-2.1,1.37-2.1,2.68h4.11C188.52,366.1,188.08,364.94,186.51,364.94Z"/><path class="cls-32" d="M200.09,356.05v15.68a1,1,0,0,0,1,1.11l1.17.09v3.26a14.27,14.27,0,0,1-2.42.26c-2.92,0-4.28-1.54-4.28-4V356.05Z"/><path class="cls-32" d="M215.63,377.71v4H211V361.88h4l.3,1.45a4.49,4.49,0,0,1,3.55-1.74c3.18,0,5.86,2.27,5.86,7.37,0,4.9-3.12,7.49-6.38,7.49a3.48,3.48,0,0,1-3.27-1.69A10,10,0,0,1,215.63,377.71Zm0-6a2.53,2.53,0,0,0,2.09,1.34c1.26,0,2.4-1,2.4-4.08,0-3.24-1.06-4.08-2.37-4.08a3.3,3.3,0,0,0-2.12.9Z"/><path class="cls-32" d="M231.89,376.16h-4.55V361.88h3.21l.44,2h.14a3.46,3.46,0,0,1,3.27-2.27,5.88,5.88,0,0,1,1.57.17l-.06,3.91a6.66,6.66,0,0,0-1.78-.24,4.06,4.06,0,0,0-2.24.67Z"/><path class="cls-32" d="M251.13,369c0,4.9-2.51,7.46-7,7.46s-7-2.56-7-7.46c0-4.2,2.51-7.4,7-7.4S251.13,364.79,251.13,369Zm-4.75,0c0-3.32-.91-4.08-2.25-4.08s-2.24.76-2.24,4.08.84,4.08,2.24,4.08S246.38,372.2,246.38,369Z"/><path class="cls-32" d="M260,375.72l-3,.62-4.28-14.46h5.19l2.59,11.45h.09l2.65-11.45h4.55l-4.37,14.86c-1.23,3.91-3.47,5.43-6.5,5.43a8,8,0,0,1-4.4-1.55l1.42-3.15h.44a4.88,4.88,0,0,0,2.74,1.08A3,3,0,0,0,259.9,376Z"/><path class="cls-32" d="M273.1,370.24c0,1.64,1,2.71,3.27,2.71a10.47,10.47,0,0,0,4-1l.82,3.2a12.58,12.58,0,0,1-5.54,1.34c-4.58,0-7.23-2.82-7.23-7.46,0-4.31,2.07-7.4,6.91-7.4,4.46,0,6.23,3.17,6.23,6.76v1.89Zm2.1-5.3c-1.52,0-2.1,1.37-2.1,2.68h4.11C277.21,366.1,276.77,364.94,275.2,364.94Z"/><path class="cls-32" d="M294.84,365.84a7.29,7.29,0,0,0-3.41-.81c-1.69,0-2.79,1-2.79,4s1,4,2.82,4a8.38,8.38,0,0,0,3.73-1l.82,3.27a11.43,11.43,0,0,1-5,1.25c-4.55,0-7.12-2.56-7.12-7.46,0-4.58,2.54-7.4,7.09-7.4a9.93,9.93,0,0,1,5,1.16Z"/><path class="cls-32" d="M308.08,375.43a8.73,8.73,0,0,1-4.05,1c-2.69,0-4.67-1.72-4.67-5.13v-6.18h-2v-3.26h2.13v-2.45l4.49-1.46v3.91h3.64v3.26h-3.64v6a1.18,1.18,0,0,0,1.31,1.34,5.1,5.1,0,0,0,2.16-.5Z"/><path class="cls-32" d="M322.8,369c0,4.9-2.51,7.46-7,7.46s-7-2.56-7-7.46c0-4.2,2.51-7.4,7-7.4S322.8,364.79,322.8,369ZM318,369c0-3.32-.9-4.08-2.24-4.08s-2.24.76-2.24,4.08.84,4.08,2.24,4.08S318,372.2,318,369Z"/><path class="cls-32" d="M325.13,361.88h4.66v4.54h-4.66Zm0,9.73h4.66v4.55h-4.66Z"/><path class="cls-33" d="M6.15,406.2V385.32h2.3v6a7.88,7.88,0,0,1-.21,1.88,6.08,6.08,0,0,1,4.48-2.09c3.63,0,5.11,2,5.11,5.78v9.35H15.47v-9c0-2.75-1.09-4.35-3.39-4.35a5.48,5.48,0,0,0-3.63,1.69V406.2Z"/><path class="cls-33" d="M23.22,399.45c0,3.67,1.88,5.27,4.69,5.27a9.22,9.22,0,0,0,4.6-1.48l.57,1.63a10.56,10.56,0,0,1-5.41,1.64c-4.06,0-6.75-2.7-6.75-7.81,0-4.69,2.3-7.63,6.35-7.63s5.94,3.36,5.94,7.08v1.3Zm4-6.62c-2.81,0-4,2.48-4,5H31C31,395.28,30.09,392.83,27.18,392.83Z"/><path class="cls-33" d="M48.25,396.85v9.35H45.92v-9c0-2.81-.82-4.35-3.33-4.35A5.26,5.26,0,0,0,39,394.58V406.2h-2.3V391.37h1.51l.49,1.79a6.21,6.21,0,0,1,4.51-2.09c2.2,0,3.63.79,4.35,2.27a6.45,6.45,0,0,1,4.63-2.27c3.63,0,5.24,2,5.24,5.78v9.35H55.12v-9c0-2.81-1.06-4.35-3.57-4.35A5.29,5.29,0,0,0,48,394.58,8.79,8.79,0,0,1,48.25,396.85Z"/><path class="cls-33" d="M73.25,398.76c0,5-2.42,7.75-6.39,7.75s-6.32-2.7-6.32-7.75c0-4.36,2.06-7.69,6.32-7.69S73.25,394.34,73.25,398.76Zm-2.36,0c0-3.88-1.3-6-4-6s-4,2.17-4,6c0,3.63,1.06,6,4,6S70.89,402.72,70.89,398.76Z"/><path class="cls-33" d="M78.43,395c0,3.17,7.35,2.05,7.35,7.08,0,2.39-1.85,4.42-5.14,4.42a8.87,8.87,0,0,1-4.48-1.28l.66-1.69a6.9,6.9,0,0,0,3.79,1.24c1.81,0,2.93-1,2.93-2.54,0-3.57-7.26-2.24-7.26-7.27,0-2,1.51-3.9,4.9-3.9a9.58,9.58,0,0,1,4.45,1l-.55,1.69a8,8,0,0,0-3.87-.9C79.33,392.83,78.43,393.64,78.43,395Z"/><path class="cls-33" d="M98.74,395c0,3.17,7.35,2.05,7.35,7.08,0,2.39-1.84,4.42-5.14,4.42a8.87,8.87,0,0,1-4.48-1.28l.66-1.69a6.9,6.9,0,0,0,3.79,1.24c1.81,0,2.93-1,2.93-2.54,0-3.57-7.26-2.24-7.26-7.27,0-2,1.51-3.9,4.9-3.9a9.55,9.55,0,0,1,4.45,1l-.54,1.69a8.05,8.05,0,0,0-3.88-.9C99.65,392.83,98.74,393.64,98.74,395Z"/><path class="cls-33" d="M121.68,398.76c0,5-2.42,7.75-6.39,7.75s-6.32-2.7-6.32-7.75c0-4.36,2.06-7.69,6.32-7.69S121.68,394.34,121.68,398.76Zm-2.36,0c0-3.88-1.3-6-4-6s-4,2.17-4,6c0,3.63,1.06,6,4,6S119.32,402.72,119.32,398.76Z"/><path class="cls-33" d="M134.48,406.2v-9c0-2.81-.88-4.35-3.39-4.35a5.48,5.48,0,0,0-3.63,1.69V406.2h-2.3V391.37h1.54l.46,1.76a6.48,6.48,0,0,1,4.66-2.06c3.48,0,5,2.09,5,5.78v9.35Zm-2-17.46-3-1.06a1.62,1.62,0,0,0-2.18.85L126,388a2.63,2.63,0,0,1,3.66-2l2.88,1a1.41,1.41,0,0,0,2-.88l1.18.45C135.51,388.32,134.27,389.38,132.45,388.74Z"/><path class="cls-33" d="M149.71,406.2l-.4-1.9a5.83,5.83,0,0,1-4.57,2.21A4.44,4.44,0,0,1,140,402c0-2.58,1.88-4.24,5.24-4.24H149v-1.18c0-2.57-1.12-3.66-3.36-3.66a10.87,10.87,0,0,0-4.48,1l-.6-1.67a13.11,13.11,0,0,1,5.38-1.12c3.51,0,5.3,1.82,5.3,5.36v9.77Zm-.67-6.9h-3.48c-2.51,0-3.36,1.09-3.36,2.57,0,1.79,1,3,3.12,3A5.22,5.22,0,0,0,149,403Z"/><path class="cls-33" d="M165,404.42a5.61,5.61,0,0,1-4.27,2.09c-3.51,0-6-2.61-6-7.75,0-4.51,2.24-7.69,6.21-7.69a6.26,6.26,0,0,1,4,1.27,20.63,20.63,0,0,1-.12-2.42v-4.6h2.3V406.2h-1.73Zm-.18-10.53a6.32,6.32,0,0,0-3.6-1.06c-2.79,0-4.12,2.18-4.12,5.93s1.18,6,4,6a5,5,0,0,0,3.75-1.88Z"/><path class="cls-33" d="M183.3,398.76c0,5-2.42,7.75-6.38,7.75s-6.33-2.7-6.33-7.75c0-4.36,2.06-7.69,6.33-7.69C181,391.07,183.3,394.34,183.3,398.76Zm-2.36,0c0-3.88-1.3-6-4-6s-4,2.17-4,6c0,3.63,1.06,6,4,6S180.94,402.72,180.94,398.76Z"/><path class="cls-33" d="M204.52,406.2l-.33-1.69a6.31,6.31,0,0,1-4.6,2c-3.3,0-5.12-2-5.12-6v-9.11h2.3v9c0,3.06,1,4.33,3.36,4.33a5.9,5.9,0,0,0,3.67-1.45V391.37h2.33V406.2Z"/><path class="cls-33" d="M219.26,406.2v-9c0-2.81-.88-4.35-3.39-4.35a5.48,5.48,0,0,0-3.63,1.69V406.2h-2.3V391.37h1.54l.46,1.76a6.48,6.48,0,0,1,4.66-2.06c3.48,0,5,2.09,5,5.78v9.35Z"/><path class="cls-33" d="M244.14,405.2a10.43,10.43,0,0,1-4.93,1.31c-3.75,0-6.48-2.21-6.48-7.72,0-5,2.76-7.72,6.48-7.72a9.54,9.54,0,0,1,4.84,1.18l-.66,1.64a8,8,0,0,0-4.06-1c-2.66,0-4.3,2.12-4.3,5.87,0,4.17,1.64,5.93,4.3,5.93a8.32,8.32,0,0,0,4.27-1.24Z"/><path class="cls-33" d="M256.34,406.2l-.39-1.9a5.84,5.84,0,0,1-4.57,2.21A4.43,4.43,0,0,1,246.6,402c0-2.58,1.87-4.24,5.23-4.24h3.84v-1.18c0-2.57-1.11-3.66-3.35-3.66a10.83,10.83,0,0,0-4.48,1l-.61-1.67a13.16,13.16,0,0,1,5.39-1.12c3.51,0,5.29,1.82,5.29,5.36v9.77Zm-.67-6.9h-3.48c-2.51,0-3.35,1.09-3.35,2.57,0,1.79,1,3,3.11,3a5.18,5.18,0,0,0,3.72-1.85Z"/><path class="cls-33" d="M273.38,396.85v9.35h-2.33v-9c0-2.81-.82-4.35-3.33-4.35a5.26,5.26,0,0,0-3.57,1.69V406.2h-2.3V391.37h1.51l.49,1.79a6.21,6.21,0,0,1,4.51-2.09c2.21,0,3.63.79,4.35,2.27a6.47,6.47,0,0,1,4.63-2.27c3.64,0,5.24,2,5.24,5.78v9.35h-2.33v-9c0-2.81-1.06-4.35-3.57-4.35a5.31,5.31,0,0,0-3.54,1.69A8.79,8.79,0,0,1,273.38,396.85Z"/><path class="cls-33" d="M288.24,393.07a6.38,6.38,0,0,1,4.42-2c3.78,0,5.75,2.69,5.75,7.69,0,5.23-2.6,7.75-6.17,7.75a5.74,5.74,0,0,1-4.3-1.91l-.48,1.6h-1.27V385.32h2.3v5.75Zm.25,10a5.22,5.22,0,0,0,3.6,1.7c2.6,0,4-1.75,4-6,0-3.91-1.15-5.93-3.84-5.93a5.51,5.51,0,0,0-3.75,1.66Z"/><path class="cls-33" d="M303.1,406.2v-13l-1.63-.33v-1.52h3.87V406.2Zm-.21-20.67h2.45V388h-2.45Z"/><path class="cls-33" d="M321.56,398.76c0,5-2.42,7.75-6.38,7.75s-6.33-2.7-6.33-7.75c0-4.36,2.06-7.69,6.33-7.69S321.56,394.34,321.56,398.76Zm-2.36,0c0-3.88-1.3-6-4-6s-4,2.17-4,6c0,3.63,1.05,6,4,6S319.2,402.72,319.2,398.76Z"/><path class="cls-33" d="M11.26,436.38l-1.51.12L5,421.64H7.54s2.78,9,4.06,13.47c1.3-4.48,4-13.47,4-13.47H18l-4.75,14.68c-1.54,4.72-3.09,6.23-5.93,6.23A5.92,5.92,0,0,1,4,441.37l.76-1.54h.18a4.31,4.31,0,0,0,2.48.94c1.72,0,2.72-1,3.66-3.85Z"/><path class="cls-33" d="M30.84,432.38V415.59h2.27v17.64c0,1.27.57,1.79,2.21,1.79h.48v1.57a6.84,6.84,0,0,1-1.45.18C31.54,436.77,30.84,435.17,30.84,432.38Z"/><path class="cls-33" d="M50.87,429c0,5-2.42,7.74-6.38,7.74s-6.33-2.69-6.33-7.74c0-4.36,2.06-7.69,6.33-7.69C48.6,421.34,50.87,424.61,50.87,429Zm-2.36,0c0-3.88-1.3-6-4-6s-4,2.18-4,6c0,3.63,1.06,6,4,6S48.51,433,48.51,429Z"/><path class="cls-33" d="M74.26,442.22v-5.78a12.27,12.27,0,0,1,.22-1.76,5.74,5.74,0,0,1-4.3,2.09c-3.45,0-6-2.63-6-7.74,0-4.51,2.24-7.69,6.2-7.69a7.38,7.38,0,0,1,4.27,1.39l.42-1.09h1.45v20.58Zm0-18a5.86,5.86,0,0,0-3.57-1.12c-2.78,0-4.14,2.18-4.14,5.94s1.18,6,4,6a5,5,0,0,0,3.75-1.88Z"/><path class="cls-33" d="M90.43,436.47l-.34-1.69a6.32,6.32,0,0,1-4.6,2c-3.29,0-5.11-2-5.11-6v-9.11h2.3v9c0,3.06,1,4.33,3.36,4.33a5.84,5.84,0,0,0,3.66-1.46V421.64H92v14.83Z"/><path class="cls-33" d="M97.66,429.72c0,3.66,1.88,5.27,4.69,5.27a9.12,9.12,0,0,0,4.6-1.49l.58,1.64a10.7,10.7,0,0,1-5.42,1.63c-4,0-6.75-2.69-6.75-7.8,0-4.7,2.3-7.63,6.36-7.63s5.93,3.36,5.93,7.08v1.3Zm4-6.63c-2.82,0-4,2.49-4,5h7.75C105.41,425.55,104.53,423.09,101.63,423.09Zm-3.33-3.75L98,418l6.69-2.48.46,1.72Z"/><path class="cls-33" d="M131.07,442.22v-5.78a12.83,12.83,0,0,1,.21-1.76,5.72,5.72,0,0,1-4.3,2.09c-3.45,0-6-2.63-6-7.74,0-4.51,2.24-7.69,6.21-7.69a7.35,7.35,0,0,1,4.26,1.39l.43-1.09h1.45v20.58Zm0-18a5.91,5.91,0,0,0-3.57-1.12c-2.79,0-4.15,2.18-4.15,5.94s1.18,6,4,6a5,5,0,0,0,3.75-1.88Z"/><path class="cls-33" d="M147.23,436.47l-.33-1.69a6.34,6.34,0,0,1-4.6,2c-3.3,0-5.11-2-5.11-6v-9.11h2.29v9c0,3.06,1,4.33,3.36,4.33a5.85,5.85,0,0,0,3.67-1.46V421.64h2.33v14.83Z"/><path class="cls-33" d="M154.47,429.72c0,3.66,1.87,5.27,4.69,5.27a9.15,9.15,0,0,0,4.6-1.49l.57,1.64a10.66,10.66,0,0,1-5.41,1.63c-4.06,0-6.75-2.69-6.75-7.8,0-4.7,2.3-7.63,6.35-7.63s5.93,3.36,5.93,7.08v1.3Zm4-6.63c-2.81,0-4,2.49-4,5h7.74C162.21,425.55,161.34,423.09,158.43,423.09Z"/><path class="cls-33" d="M175.5,423.64a6,6,0,0,0-1.9-.27,4.7,4.7,0,0,0-3.33,1.6v11.5H168V421.64h1.54l.42,1.88a4.92,4.92,0,0,1,3.85-2.09,6.65,6.65,0,0,1,1.87.24Z"/><path class="cls-33" d="M179.29,429.72c0,3.66,1.87,5.27,4.69,5.27a9.15,9.15,0,0,0,4.6-1.49l.57,1.64a10.69,10.69,0,0,1-5.41,1.63c-4.06,0-6.75-2.69-6.75-7.8,0-4.7,2.3-7.63,6.35-7.63s5.93,3.36,5.93,7.08v1.3Zm4-6.63c-2.81,0-4,2.49-4,5H187C187,425.55,186.16,423.09,183.25,423.09Z"/><path class="cls-33" d="M204.32,427.12v9.35H202v-9c0-2.81-.82-4.36-3.33-4.36a5.23,5.23,0,0,0-3.57,1.7v11.62h-2.3V421.64h1.51l.48,1.79a6.23,6.23,0,0,1,4.51-2.09c2.21,0,3.63.79,4.36,2.27a6.45,6.45,0,0,1,4.63-2.27c3.63,0,5.24,2,5.24,5.78v9.35h-2.33v-9c0-2.81-1.06-4.36-3.58-4.36a5.32,5.32,0,0,0-3.54,1.7A8.35,8.35,0,0,1,204.32,427.12Z"/><path class="cls-33" d="M229.32,429c0,5-2.42,7.74-6.39,7.74s-6.32-2.69-6.32-7.74c0-4.36,2-7.69,6.32-7.69C227.05,421.34,229.32,424.61,229.32,429ZM227,429c0-3.88-1.31-6-4-6s-4,2.18-4,6c0,3.63,1.06,6,4,6S227,433,227,429Z"/><path class="cls-33" d="M234.49,425.27c0,3.18,7.36,2.06,7.36,7.08,0,2.4-1.85,4.42-5.15,4.42a8.9,8.9,0,0,1-4.48-1.27l.67-1.69a7,7,0,0,0,3.78,1.24c1.82,0,2.94-1,2.94-2.54,0-3.57-7.26-2.24-7.26-7.27,0-2,1.51-3.9,4.9-3.9a9.58,9.58,0,0,1,4.45,1l-.55,1.69a8,8,0,0,0-3.87-.91C235.4,423.09,234.49,423.91,234.49,425.27Z"/><path class="cls-33" d="M255.55,436.47V415.59h2.3v6a7.94,7.94,0,0,1-.21,1.88,6.1,6.1,0,0,1,4.48-2.09c3.63,0,5.11,2,5.11,5.78v9.35h-2.36v-9c0-2.75-1.08-4.36-3.38-4.36a5.49,5.49,0,0,0-3.64,1.7v11.62Z"/><path class="cls-33" d="M280,436.47l-.4-1.91a5.82,5.82,0,0,1-4.56,2.21,4.44,4.44,0,0,1-4.79-4.54c0-2.57,1.88-4.23,5.24-4.23h3.84v-1.18c0-2.58-1.12-3.67-3.36-3.67a11,11,0,0,0-4.48,1l-.6-1.66a13,13,0,0,1,5.39-1.12c3.51,0,5.29,1.81,5.29,5.35v9.78Zm-.67-6.9h-3.48c-2.51,0-3.36,1.09-3.36,2.57,0,1.79,1,3,3.12,3a5.22,5.22,0,0,0,3.72-1.85Z"/><path class="cls-33" d="M296.44,435.47a10.48,10.48,0,0,1-4.93,1.3c-3.75,0-6.48-2.21-6.48-7.71,0-5,2.76-7.72,6.48-7.72a9.54,9.54,0,0,1,4.84,1.18l-.66,1.63a8.13,8.13,0,0,0-4.06-1c-2.66,0-4.3,2.12-4.3,5.88,0,4.17,1.64,5.93,4.3,5.93a8.42,8.42,0,0,0,4.27-1.24Z"/><path class="cls-33" d="M301.29,429.72c0,3.66,1.87,5.27,4.69,5.27a9.15,9.15,0,0,0,4.6-1.49l.57,1.64a10.69,10.69,0,0,1-5.41,1.63c-4.06,0-6.75-2.69-6.75-7.8,0-4.7,2.3-7.63,6.35-7.63s5.93,3.36,5.93,7.08v1.3Zm4-6.63c-2.81,0-4,2.49-4,5H309C309,425.55,308.16,423.09,305.25,423.09Z"/><path class="cls-33" d="M322.32,423.64a6,6,0,0,0-1.9-.27,4.7,4.7,0,0,0-3.33,1.6v11.5h-2.3V421.64h1.54l.42,1.88a4.92,4.92,0,0,1,3.85-2.09,6.65,6.65,0,0,1,1.87.24Z"/><path class="cls-33" d="M13.68,453.91a5.91,5.91,0,0,0-1.9-.28,4.74,4.74,0,0,0-3.33,1.61v11.5H6.15V451.91H7.69l.43,1.88A4.88,4.88,0,0,1,12,451.7a6.84,6.84,0,0,1,1.88.24Z"/><path class="cls-33" d="M17.47,460c0,3.66,1.87,5.27,4.69,5.27a9.12,9.12,0,0,0,4.6-1.49l.57,1.64A10.66,10.66,0,0,1,21.92,467c-4.06,0-6.75-2.69-6.75-7.81,0-4.69,2.3-7.62,6.35-7.62s5.93,3.36,5.93,7.08V460Zm4-6.63c-2.81,0-4,2.48-4,5h7.75C25.22,455.81,24.34,453.36,21.43,453.36Z"/><path class="cls-33" d="M40.14,466.74l-.4-1.91A5.83,5.83,0,0,1,35.17,467a4.44,4.44,0,0,1-4.78-4.54c0-2.57,1.88-4.24,5.24-4.24h3.84v-1.18c0-2.57-1.12-3.66-3.36-3.66a11,11,0,0,0-4.48,1l-.6-1.66a12.94,12.94,0,0,1,5.38-1.12c3.52,0,5.3,1.81,5.3,5.35v9.78Zm-.67-6.9H36c-2.51,0-3.36,1.09-3.36,2.57,0,1.79,1,3,3.12,3a5.22,5.22,0,0,0,3.72-1.85Z"/><path class="cls-33" d="M45.77,462.65V445.86H48V463.5c0,1.27.57,1.79,2.21,1.79h.48v1.57a7,7,0,0,1-1.45.18C46.46,467,45.77,465.44,45.77,462.65Z"/><path class="cls-33" d="M54.79,466.74v-13l-1.64-.34v-1.51H57v14.83Zm-.22-20.67H57v2.42H54.57Z"/><path class="cls-33" d="M70.83,465A5.63,5.63,0,0,1,66.56,467c-3.51,0-6-2.6-6-7.75,0-4.51,2.24-7.68,6.2-7.68a6.21,6.21,0,0,1,4,1.27,18.71,18.71,0,0,1-.13-2.42v-4.6h2.3v20.88H71.22Zm-.19-10.53a6.35,6.35,0,0,0-3.6-1.06c-2.78,0-4.11,2.18-4.11,5.93s1.18,6,4,6a5,5,0,0,0,3.75-1.87Z"/><path class="cls-33" d="M86.11,466.74l-.39-1.91A5.84,5.84,0,0,1,81.15,467a4.43,4.43,0,0,1-4.78-4.54c0-2.57,1.87-4.24,5.23-4.24h3.85v-1.18c0-2.57-1.12-3.66-3.36-3.66a11,11,0,0,0-4.48,1L77,452.73a13,13,0,0,1,5.39-1.12c3.51,0,5.29,1.81,5.29,5.35v9.78Zm-.66-6.9H82c-2.52,0-3.36,1.09-3.36,2.57,0,1.79,1,3,3.11,3a5.22,5.22,0,0,0,3.73-1.85Z"/><path class="cls-33" d="M101.4,465A5.63,5.63,0,0,1,97.13,467c-3.51,0-6-2.6-6-7.75,0-4.51,2.24-7.68,6.2-7.68a6.21,6.21,0,0,1,4,1.27,18.71,18.71,0,0,1-.13-2.42v-4.6h2.3v20.88h-1.72Zm-.19-10.53a6.35,6.35,0,0,0-3.6-1.06c-2.78,0-4.11,2.18-4.11,5.93s1.18,6,4,6a5,5,0,0,0,3.75-1.87Z"/><path class="cls-33" d="M107.06,463.35h2.27v3.39h-2.27Z"/><path class="cls-34" d="M11.49,274.68v-1h9.83v1.52c0,10.59-8.8,10.8-8.8,17.68,0,2.54,1.79,4.54,5.23,4.54a23.29,23.29,0,0,0,8.18-1.72l2.69,8.46a31.16,31.16,0,0,1-12.94,2.61C7.15,306.81,1,302.21,1,294.5,1,284,11.49,281.36,11.49,274.68Zm10.25-4.81H11.07V259.34H21.74Z"/><path class="cls-34" d="M60.67,292A128,128,0,0,0,75,292.5V303a30.48,30.48,0,0,1-21.81-9.29c-16.3,0-20.43-11.83-20.43-24.28,0-12.11,4.06-23.53,20.43-23.53,16.72,0,20.64,11.28,20.64,23.53C73.81,277.92,68.93,288,60.67,292Zm-7.5-36.74c-7.22,0-8.94,6.2-8.94,14.11,0,8.8,1.86,15.2,8.94,15.2s9.09-6.33,9.09-15.2C62.26,261.34,60.4,255.28,53.17,255.28Z"/><path class="cls-34" d="M117.77,275.3c0,9.71-5.5,18.44-18.37,18.44S81,285.35,81,275.3V246.62H91.9v28.13c0,5.85,2.69,9.77,7.5,9.77s7.36-4,7.36-9.77V246.62h11Z"/><path class="cls-34" d="M126.71,293.05V246.62h30v9.14H137.58v9.16h14.31l-.69,9.56H137.58V284h19.13v9.08Zm5.37-49-.9-6.19,20.16-2.76-.14,8Z"/><path class="cls-34" d="M30.27,353.25V334.81H15v18.44H4.06V306.81H15V325H30.27V306.81H41.21v46.44Z"/><path class="cls-34" d="M73.47,343.48H59l-2.06,9.77H46l12.73-46.44H75.67L88.4,353.25H75.67Zm-12.59-8.67H71.54l-3.92-18.44H65.21Z"/><path class="cls-34" d="M107.59,336.32H104v16.93H93.21V306.81h16.17c9.29,0,16.65,4.33,16.65,14.17a14.76,14.76,0,0,1-8.46,13.49l9.49,18.78H114.4Zm0-21.12H104v12.73h3.58c5.23,0,6.88-2.48,6.88-6.95C114.47,316.85,112.27,315.2,107.59,315.2Z"/><path class="cls-34" d="M133.32,353.25V306.81h30V316H144.19v9.15H158.5l-.69,9.56H144.19v9.5h19.12v9.08Z"/><path class="cls-34" d="M187,353.25l-4.48-22.09c-.61-3.16-1.78-9.15-2.61-14.1h-.34L179,353.25h-9.84L171,306.81h18.16s4.26,21.4,6.33,36.67h.27c2.62-15.34,7.71-36.67,7.71-36.67h18l1.85,46.44H210.64l-.82-36.19h-.35c-.89,5.37-2,10.73-2.75,14.1L202,353.25Z"/><path class="cls-34" d="M249.17,353.94c-16.31,0-20.44-11.84-20.44-24.29,0-12.11,4.06-23.53,20.44-23.53,16.71,0,20.64,11.28,20.64,23.53C269.81,342.1,265.47,353.94,249.17,353.94Zm0-38.46c-7.23,0-8.95,6.19-8.95,14.1,0,8.81,1.86,15.21,8.95,15.21s9.08-6.33,9.08-15.21C258.25,321.53,256.39,315.48,249.17,315.48Z"/><path class="cls-34" d="M303.72,318a23.27,23.27,0,0,0-10.67-2.4c-4.19,0-5.91,1.58-5.91,3.64,0,7.09,21,4.13,21,20,0,7.57-6.53,14.73-17.54,14.73A25.94,25.94,0,0,1,275,348.85l4.06-8.26a19.69,19.69,0,0,0,11.63,4.2c3.78,0,6.12-2.07,6.12-4.82,0-8.6-20.85-3.78-20.85-20.64,0-7.29,5.78-13.21,17.27-13.21a31,31,0,0,1,14.18,3.1Z"/><path class="cls-34" d="M329.38,337.91v1h-9.84v-1.51c0-10.6,8.8-10.81,8.8-17.69,0-2.54-1.78-4.54-5.22-4.54a23.34,23.34,0,0,0-8.19,1.72l-2.68-8.46a31.08,31.08,0,0,1,12.93-2.61c8.53,0,14.72,4.61,14.72,12.31C339.9,328.62,329.38,331.23,329.38,337.91Zm-10.25,4.81h10.66v10.53H319.13Z"/><path class="cls-35" d="M14.89,226.28H30.18v-34s0-6.47.59-11.41c-4.47,5.41-12.82,8.24-18.71,8.71L9.83,175.1c10.7-2.71,18.94-7.65,24.59-14.82H48.53v66H63v14H14.89Z"/></svg>