<svg id="Capa_1" data-name="Capa 1" xmlns="http://www.w3.org/2000/svg" viewBox="0 0 1024 512"><defs><style>.cls-1,.cls-13,.cls-15,.cls-21,.cls-22,.cls-34{fill:none;}.cls-1{stroke:#e7334a;stroke-linecap:round;stroke-linejoin:round;stroke-width:3px;}.cls-2{fill:#fff;}.cls-3{fill:#593a12;}.cls-4{fill:#e9b871;}.cls-5{fill:#7b5227;}.cls-6{fill:#c1d44f;}.cls-7{fill:#a0b61d;}.cls-8{fill:#34bacc;}.cls-9{fill:#f69f21;}.cls-10{fill:#103140;}.cls-11{fill:#8f96cb;}.cls-12{fill:#faea27;}.cls-13{stroke:#f4d511;}.cls-13,.cls-15,.cls-21,.cls-22,.cls-30,.cls-31,.cls-32,.cls-33{stroke-miterlimit:10;}.cls-13,.cls-22{stroke-width:2px;}.cls-14{fill:#f4d511;}.cls-15{stroke:#f4d40d;stroke-width:0.75px;}.cls-16{fill:#222b54;}.cls-17{fill:#f8b78e;}.cls-18{fill:#fedc67;}.cls-19{fill:#7a7ba3;}.cls-20{fill:#e1ddcf;}.cls-21,.cls-30,.cls-31,.cls-32,.cls-33{stroke:#fff;}.cls-22{stroke:#7a7ba3;}.cls-23{fill:#eb575a;}.cls-24{fill:#8ac6e2;}.cls-25{fill:#2d5972;}.cls-26{fill:#133a4d;}.cls-27{fill:#c99e61;}.cls-28{fill:#9f7d4d;}.cls-29{fill:#ca1335;}.cls-30,.cls-31{fill:#615185;}.cls-31{stroke-width:0.5px;}.cls-32{fill:#55b682;}.cls-33{fill:#e7334a;}</style></defs><path class="cls-1" d="M339.2,297.66c17.33-43.83,55.61-43.66,69.35-53.12,16.19-11.16,15.94-31.92,18-50.4,2.55-23.4,33.35-39.12,33.35-59.32"/><path class="cls-2" d="M296.16,463.33c.48-.22.93-.46,1.4-.68l-1.44.09Z"/><rect class="cls-3" x="452.03" y="6.2" width="15.25" height="45.4" transform="translate(408.72 486.65) rotate(-87.25)"/><path class="cls-4" d="M459.88,24.3a11.36,11.36,0,1,1,11.89-10.8,11.37,11.37,0,0,1-11.89,10.8m.87-18.11a6.77,6.77,0,1,0,6.44,7.09,6.78,6.78,0,0,0-6.44-7.09"/><path class="cls-5" d="M460.33,22.09a13.76,13.76,0,0,1-5.7-1.46l-.95,19.84,10.83.52.94-19.57a14.1,14.1,0,0,1-5.12.67"/><path class="cls-5" d="M465.37,23.12l.23-5-.82,0a6.68,6.68,0,0,1-9.19-.45l-.82,0-.24,5a10.93,10.93,0,0,0,10.84.52"/><path class="cls-6" d="M393.53,91a63.08,63.08,0,0,0,60,66l6.06-126a63.07,63.07,0,0,0-66,60"/><path class="cls-7" d="M459.56,31,453.5,157a63.07,63.07,0,0,0,6.06-126"/><path class="cls-3" d="M459,42.47l-4.95,103.09A51.6,51.6,0,0,0,459,42.47"/><path class="cls-5" d="M405,91.54a51.67,51.67,0,0,0,49.07,54l5-103.09a51.67,51.67,0,0,0-54,49.07"/><polygon class="cls-8" points="450.67 103.06 413.2 66.07 462.4 84.83 450.67 103.06"/><polygon class="cls-9" points="450.67 103.06 499.87 121.82 462.4 84.83 450.67 103.06"/><polygon class="cls-2" points="464.01 68.51 460.62 68.35 455.69 58.87 455.63 58.88 455.19 68.08 451.79 67.92 452.49 53.26 455.89 53.43 460.81 62.9 460.88 62.88 461.32 53.69 464.71 53.85 464.01 68.51"/><polygon class="cls-2" points="458.19 129.57 458.26 129.57 460.48 120.15 463.92 120.32 459.86 134.82 456.66 134.66 454.62 125.49 454.57 125.49 451.69 134.42 448.48 134.27 445.81 119.45 449.26 119.61 450.58 129.22 450.64 129.23 453.58 119.82 456.15 119.94 458.19 129.57"/><path class="cls-10" d="M455.72,102.2a7.82,7.82,0,1,1,8.18-7.44,7.83,7.83,0,0,1-8.18,7.44"/><path class="cls-2" d="M461.62,94.65a5.53,5.53,0,1,1-5.26-5.79,5.54,5.54,0,0,1,5.26,5.79"/><path class="cls-11" d="M279,124.3a11.91,11.91,0,1,1-11.76-12.06A11.92,11.92,0,0,1,279,124.3"/><path class="cls-12" d="M301.94,57.69a34,34,0,1,0-63.12,17.12h0l0,0a33.53,33.53,0,0,0,3.72,5c3,4.23,7.05,10.14,8.65,13.82,2.71,6.26,2.2,14.49,2.2,14.49l28.25-6.68s-1.09-1.22,1.78-7.41c1.52-3.27,5-8.28,8-12.28a33.93,33.93,0,0,0,10.49-24.14"/><path class="cls-13" d="M301.94,57.69a34,34,0,1,0-63.12,17.12h0l0,0a33.53,33.53,0,0,0,3.72,5c3,4.23,7.05,10.14,8.65,13.82,2.71,6.26,2.2,14.49,2.2,14.49l28.25-6.68s-1.09-1.22,1.78-7.41c1.52-3.27,5-8.28,8-12.28A33.93,33.93,0,0,0,301.94,57.69Z"/><path class="cls-11" d="M252.11,115.19a3.49,3.49,0,0,1-.7-6.89l30.29-6.67a3.49,3.49,0,0,1,1.5,6.81l-30.3,6.67a3,3,0,0,1-.79.08"/><path class="cls-11" d="M252,122.28a3.49,3.49,0,0,1-.71-6.89l30.29-6.66a3.48,3.48,0,1,1,1.5,6.8l-30.29,6.67a3.07,3.07,0,0,1-.79.08"/><path class="cls-11" d="M251.94,129.29a3.49,3.49,0,0,1-.71-6.89l30.29-6.67a3.49,3.49,0,0,1,1.5,6.81l-30.29,6.67a3.59,3.59,0,0,1-.79.08"/><path class="cls-14" d="M268.5,12.53a1,1,0,0,1-1-1L267.66,1a1,1,0,1,1,2,0l-.13,10.55a1,1,0,0,1-1,1"/><path class="cls-15" d="M268.5,12.53a1,1,0,0,1-1-1L267.66,1a1,1,0,1,1,2,0l-.13,10.55a1,1,0,0,1-1,1"/><path class="cls-14" d="M308.22,36.41a1,1,0,0,1-.47-1.86l9.44-5.29a1,1,0,0,1,1.35.39,1,1,0,0,1-.39,1.34l-9.43,5.29a1,1,0,0,1-.5.13"/><path class="cls-15" d="M308.22,36.41a1,1,0,0,1-.47-1.86l9.44-5.29a1,1,0,0,1,1.35.39,1,1,0,0,1-.39,1.34l-9.43,5.29a1,1,0,0,1-.5.13"/><path class="cls-14" d="M218.18,86.9a1,1,0,0,1-.47-1.86l9.94-5.57a1,1,0,1,1,1,1.72l-9.93,5.59a1.11,1.11,0,0,1-.5.12"/><path class="cls-15" d="M218.18,86.9a1,1,0,0,1-.47-1.86l9.94-5.57a1,1,0,1,1,1,1.72l-9.93,5.59a1.11,1.11,0,0,1-.5.12"/><path class="cls-14" d="M291.62,19.13a1.07,1.07,0,0,1-.49-.14,1,1,0,0,1-.34-1.36l5.43-9.15a1,1,0,0,1,1.7,1l-5.43,9.15a1,1,0,0,1-.87.49"/><path class="cls-15" d="M291.62,19.13a1.07,1.07,0,0,1-.49-.14,1,1,0,0,1-.34-1.36l5.43-9.15a1,1,0,0,1,1.7,1l-5.43,9.15a1,1,0,0,1-.87.49"/><path class="cls-14" d="M238.79,108a1,1,0,0,1-.5-.14,1,1,0,0,1-.34-1.36l5.92-10a1,1,0,1,1,1.7,1l-5.92,10a1,1,0,0,1-.86.48"/><path class="cls-15" d="M238.79,108a1,1,0,0,1-.5-.14,1,1,0,0,1-.34-1.36l5.92-10a1,1,0,1,1,1.7,1l-5.92,10a1,1,0,0,1-.86.48"/><path class="cls-14" d="M245.23,18.53a1,1,0,0,1-.85-.5l-5.2-9.27a1,1,0,0,1,.38-1.35,1,1,0,0,1,1.35.38l5.2,9.27a1,1,0,0,1-.39,1.35.85.85,0,0,1-.49.12"/><path class="cls-15" d="M245.23,18.53a1,1,0,0,1-.85-.5l-5.2-9.27a1,1,0,0,1,.38-1.35,1,1,0,0,1,1.35.38l5.2,9.27a1,1,0,0,1-.39,1.35.85.85,0,0,1-.49.12"/><path class="cls-14" d="M295.81,108.75a1,1,0,0,1-.85-.51l-5.61-10.16a1,1,0,0,1,.39-1.34,1,1,0,0,1,1.35.39l5.6,10.15a1,1,0,0,1-.39,1.35,1,1,0,0,1-.49.12"/><path class="cls-15" d="M295.81,108.75a1,1,0,0,1-.85-.51l-5.61-10.16a1,1,0,0,1,.39-1.34,1,1,0,0,1,1.35.39l5.6,10.15a1,1,0,0,1-.39,1.35,1,1,0,0,1-.49.12"/><path class="cls-14" d="M228.21,35.4a1,1,0,0,1-.5-.14l-9.3-5.52a1,1,0,1,1,1-1.7l9.31,5.52a1,1,0,0,1-.52,1.84"/><path class="cls-15" d="M228.21,35.4a1,1,0,0,1-.5-.14l-9.3-5.52a1,1,0,1,1,1-1.7l9.31,5.52a1,1,0,0,1-.52,1.84"/><path class="cls-14" d="M317,88.14a1.07,1.07,0,0,1-.49-.14l-9.82-5.77a1,1,0,1,1,1-1.71l9.82,5.78a1,1,0,0,1-.51,1.84"/><path class="cls-15" d="M317,88.14a1.07,1.07,0,0,1-.49-.14l-9.82-5.77a1,1,0,1,1,1-1.71l9.82,5.78a1,1,0,0,1-.51,1.84"/><path class="cls-14" d="M210.9,58.29a1,1,0,0,1,0-2L222,55.89a1,1,0,0,1,1,1,1,1,0,0,1-1,1L211,58.29Z"/><path class="cls-15" d="M210.9,58.29a1,1,0,0,1,0-2L222,55.89a1,1,0,0,1,1,1,1,1,0,0,1-1,1L211,58.29Z"/><path class="cls-14" d="M324.94,59.72h-.05L313.8,59a1,1,0,0,1,.07-2h.05l11.1.7a1,1,0,0,1-.08,2"/><path class="cls-15" d="M324.94,59.72h-.05L313.8,59a1,1,0,0,1,.07-2h.05l11.1.7a1,1,0,0,1-.08,2"/><path class="cls-1" d="M83.51,385.93c4.42-4-6.77-62.74,33.83-67.6,18-2.16,27.78,5.14,59,20.46,27,13.24,50,21.17,105.47-47.14"/><path class="cls-1" d="M312,213.78c-4.24-40-15-62.11-41.68-54.55-23,6.55-39.27,4.47-58.92-14.27-19.31-18.41-48-12.76-62.17,8.36"/><path class="cls-16" d="M269.16,330.89a28.05,28.05,0,0,1-35.48-11.62c-3.49-6-4.52-13-4.62-19.89-.08-5.49,3-14.78.91-19.76a10.39,10.39,0,0,0-2.89-3.51c-4.27-3.81-9-7.31-12.1-12.08-5.48-8.26-4.53-20.92,1.93-28.33,3.88-4.43,9.54-5,13.39-8.68,4.15-4,4.87-11.54,5.88-16.86,2.61-13.75,8.07-27.71,19-36.4a39.94,39.94,0,0,1,37.88-6c6.08,2.24,11.94,6,18.41,5.64,6-.37,11-4.25,16.52-6.64,15.47-6.74,33.46-1.4,48.7,5.83,14.11,6.69,28.39,16,33.69,30.73,2.54,7,2.77,14.71,2.14,22.17-.51,6.13-1.86,12.74-6.53,16.75-6.72,5.76-2.78,8.4.36,15.13,3.52,7.55,8.13,15,7.06,23.68-1.37,11.28-11.69,19.37-22.19,23.7s-23.34,5.76-31.93-1.44"/><path class="cls-17" d="M426,472.39c-1.06-4.41-3.25-8.84-4.37-13.38a99.53,99.53,0,0,0-29.92-49.49c-8.85-7.91-20.42-8.83-32.07-9.29-8.23-.33-19.38-.74-24.34-8.72-2.45-3.93-3.77-9.44-4.56-15.22v-9.12l.51-.17c.46-.14.91-.29,1.36-.45l1.12-.41,1.28-.5,1.25-.55,1.1-.49c.74-.35,1.47-.73,2.2-1.12l.81-.47c.49-.28,1-.57,1.46-.87l.84-.54c.47-.3.93-.62,1.39-.94l.77-.56q.74-.54,1.44-1.11l.64-.51c.56-.46,1.1-.94,1.64-1.44l.36-.31a49,49,0,0,0,3.9-4.1l.14-.17c.55-.67,1.1-1.35,1.62-2l.12-.15,0-.05a54,54,0,0,0,5-8.09c5.7-11.4,7.65-28.44,7.67-41,0-12.33-2.11-24.67-4.92-36.72-.67-2.87-1.37-5.73-2.1-8.56-.15-.61-.31-1.22-.47-1.85-.11-.42-.22-.84-.34-1.27-.06-.26-.13-.52-.2-.78q-.66-2.49-1.42-5.06l0-.16c-3.27-11-8.28-22.49-18.76-27.19-19.12-8.58-39.44-10.11-59.25-2.62-18.92,7.15-32.52,28.42-32.55,48.42l1.48,3.76c-3.92-5.56-12.48-6.73-18.24-3.11s-8.49,11.1-7.32,17.8S229,296.25,234.8,299.8s12.68,5.05,19.48,5.3A72.49,72.49,0,0,0,268,345.16c6.83,9.4,16.35,17.22,27.38,21.08.78.27,1.57.5,2.37.74v22h.2a28.79,28.79,0,0,1-5.48,12.56c-4.43,5.64-11.08,9.06-17.7,11.79-11.22,4.64-23.05,7.87-33.78,13.55-26.53,14-44.05,43.62-43.66,73.63,12.92,5.23,26.9,7.28,40.78,8.6,28.7,2.71,57.86,1.44,86.56.85a227,227,0,0,0,71.45-13.4A80.69,80.69,0,0,0,420.9,482C424.56,478.82,427.11,477.16,426,472.39Z"/><path class="cls-10" d="M421.6,459a99.46,99.46,0,0,0-29.92-49.48c-8.85-7.92-20.42-8.83-32.06-9.3-6-.24-13.47-.53-19-3.72-13.69,8.31-31.68,8.9-46.06,1.92a25.47,25.47,0,0,1-2.08,3.14c-4.43,5.64-11.08,9.05-17.71,11.79-11.22,4.64-23.05,7.87-33.78,13.56-26.52,14.05-44,43.61-43.65,73.62,12.93,5.23,26.9,7.29,40.78,8.6,28.7,2.71,57.86,1.44,86.56.85a227,227,0,0,0,71.45-13.41A80.66,80.66,0,0,0,420.9,482c3.66-3.16,6.21-4.82,5.07-9.59-1.06-4.41-3.25-8.84-4.37-13.38"/><path class="cls-8" d="M279.21,469.49c35,.33,69.86-4.81,103.67-13.7,11.63-3.05,24-7.18,31.5-16.33a101,101,0,0,0-12.68-19.52,18.32,18.32,0,0,1-2.74,2c-23.21,14-49.36,18.23-76,20.48a367.61,367.61,0,0,1-84.05-2.56q-6.66-1-13.3-2.2h0A85.2,85.2,0,0,0,207.23,461a336.2,336.2,0,0,0,72,8.54"/><path class="cls-8" d="M267.7,433.29c35,.33,69.86-4.81,103.67-13.7,7.57-2,15.44-4.44,22.09-8.42l-1.78-1.65c-8.85-7.91-20.42-8.82-32.07-9.29-2.14-.08-4.48-.19-6.85-.42-13.39,3.43-27.27,5.19-41.28,6.37-8.43.71-16.89,1.09-25.35,1.22a59.34,59.34,0,0,1-11.39,6c-11.22,4.64-23.06,7.87-33.78,13.55a80.42,80.42,0,0,0-7.14,4.3,336.48,336.48,0,0,0,33.88,2.08"/><path class="cls-18" d="M295,394.64a31.63,31.63,0,0,0,41.1-1.42l8.2,4.38a2.43,2.43,0,0,1,1,.75c.56.82,0,1.93-.53,2.75a30.67,30.67,0,0,1-14.56,11.29,52,52,0,0,1-10.79,2.42c-5.71.79-11.56,1.3-17.23.2s-11.19-4-14.41-8.77l6.17-10.1"/><path class="cls-16" d="M338.39,241.45c12.39-4.27,22.12-12,19.54-25.93-4.79-25.8-45.94-26.86-65.52-23.13-11.82,2.26-23.24,7.68-31.42,16.51-7.93,8.56-14.82,20.88-17.61,32.24-2.13,8.65.63,15.79,3.68,23.82,2.17,5.71,3.85,11.57,5.9,17.33,1.93,5.41,4.25,9.69,8.66,3.68,6.49-8.85,7.28-20.65,8.13-31.15.26-3.08.78-6.39,3-8.54s5.8-2.62,8.91-2c3.79.7,7.12,2.78,10.94,3s8.51-.45,12.51-.59c8.4-.3,22-1.33,33.29-5.24"/><path class="cls-16" d="M275.18,265.78c.95,9.23,4.27,25.18,16.29,25.88,12.35.73,12.08-19.2,10.77-26.85-.43-2.46-4.18-1.42-3.76,1,1,5.57,1,27.31-10.1,20.73-7-4.18-8.55-13.41-9.31-20.79-.25-2.47-4.15-2.5-3.89,0"/><path class="cls-16" d="M326,260.32c-.54,8.72,4.93,24.81,16.25,23.57,12.94-1.42,9.55-20.63,7.11-28.7-.73-2.39-4.49-1.37-3.76,1a46.5,46.5,0,0,1,2.13,11.63c.15,3.55-.16,11.42-5.12,12-9.42,1.19-13.14-12.71-12.72-19.57.16-2.51-3.74-2.5-3.89,0"/><path class="cls-16" d="M311.05,250.76a99.39,99.39,0,0,0,11.19,51.14c1.15,2.23,4.51.26,3.36-2A95.28,95.28,0,0,1,315,250.76c.12-2.5-3.77-2.5-3.9,0"/><path class="cls-16" d="M305.73,291.78c1.3,7.14,6.17,18.1,14.74,18.52,10.23.51,11.55-11.68,10.72-19.08-.27-2.46-4.17-2.49-3.89,0,.58,5.2.15,18.73-8.9,14.51-5.31-2.48-7.95-9.67-8.92-15-.45-2.47-4.2-1.42-3.75,1"/><path class="cls-8" d="M421.6,459c-.13-.53-.28-1.05-.42-1.57-17.83,15.61-42.49,21.3-66.12,24.66a518.3,518.3,0,0,1-140.09.75c-5.09-.67-10.45-1.57-14.89-3.93a78.81,78.81,0,0,0-2.78,21.62c12.93,5.23,26.9,7.29,40.78,8.6,28.7,2.71,57.86,1.44,86.56.85a227,227,0,0,0,71.45-13.41A80.66,80.66,0,0,0,420.9,482c3.66-3.16,6.21-4.82,5.07-9.59-1.06-4.41-3.25-8.84-4.37-13.38"/><path class="cls-16" d="M236.21,274.64l10.71,23.53c1,2.27,4.39.3,3.36-2l-10.71-23.52c-1-2.28-4.39-.3-3.36,2"/><path class="cls-16" d="M234.78,291.43q7.07-5,13.73-10.52c1.93-1.59-.84-4.33-2.76-2.75q-6.27,5.2-12.93,9.91c-2,1.43-.09,4.81,2,3.36"/><polyline class="cls-19" points="67.51 206.64 80.53 204.17 68.23 209.13"/><path class="cls-20" d="M175.23,190.08A72.81,72.81,0,1,1,101.7,118a72.8,72.8,0,0,1,73.53,72.09"/><path class="cls-21" d="M175.23,190.08A72.81,72.81,0,1,1,101.7,118a72.8,72.8,0,0,1,73.53,72.09"/><path class="cls-22" d="M175.23,190.08A72.81,72.81,0,1,1,101.7,118,72.8,72.8,0,0,1,175.23,190.08Z"/><path class="cls-23" d="M154.43,190.29a52,52,0,1,1-52.52-51.49,52,52,0,0,1,52.52,51.49"/><path class="cls-20" d="M134,190.49a31.57,31.57,0,1,1-31.88-31.25A31.56,31.56,0,0,1,134,190.49"/><path class="cls-23" d="M113.8,190.69a11.38,11.38,0,1,1-11.49-11.27,11.37,11.37,0,0,1,11.49,11.27"/><path class="cls-24" d="M31.41,223.17a34.33,34.33,0,0,1-2.8,7.22c-1.53,2.49-1.38,3-8,4.77s-9.49,1.12-11.43-1.95a7.77,7.77,0,0,1-.6-6.55"/><path class="cls-24" d="M28.94,214.78a35.17,35.17,0,0,0-6.26-4.58c-2.64-1.24-2.79-1.75-9.29.32s-8.58,4.19-8.55,7.83a7.7,7.7,0,0,0,3,5.82"/><path class="cls-24" d="M51.67,218.54l15.18-4.47c1.28-.37,2.1-2.55,1.78-3.59-.18-.6-.44-1.47-.69-2.35a2.17,2.17,0,0,1-.07-.24c0-.09-.05-.16-.07-.24-.26-.88-.51-1.75-.69-2.35-.3-1.06-2.18-2.44-3.45-2.06L48.49,207.7"/><polygon class="cls-19" points="48.44 207.56 51.71 218.68 7.04 226.79 6.5 224.92 48.44 207.56"/><path class="cls-25" d="M77.86,389.65c-11.64,0-21.12-7.53-21.12-16.8s9.48-16.8,21.12-16.8S99,363.58,99,372.85s-9.48,16.8-21.12,16.8m0-27.35C69.67,362.3,63,367,63,372.85s6.67,10.55,14.86,10.55,14.86-4.73,14.86-10.55S86.06,362.3,77.86,362.3"/><path class="cls-25" d="M158.66,372.51a16,16,0,0,0-3.8-6.66c-5.63-5.73-11.53-6.41-15.49-6-13.58,1.51-24.24,18.11-25.41,20l9.76,6.05c2.64-4.25,9.79-13,16-14.46,5.12-1.8,16-4.78,19,1"/><path class="cls-10" d="M158.66,372.51c-3-5.82-13.86-2.84-19-1,.32-.07.64-.14,1-.18,1.34-.15,3.43,0,6,2.61,10,10.2-17.83,75.5-32.23,92.73l8.81,7.37c9.91-11.86,43.57-75.44,35.41-101.49"/><path class="cls-25" d="M1.26,372.51a16.16,16.16,0,0,1,3.81-6.66c5.63-5.73,11.52-6.41,15.49-6,13.58,1.51,24.23,18.11,25.41,20l-9.76,6.05c-2.64-4.25-9.79-13-16-14.46-5.12-1.8-16-4.78-19,1"/><path class="cls-10" d="M1.26,372.51c3-5.82,13.87-2.84,19-1-.32-.07-.64-.14-1-.18-1.34-.15-3.43,0-6,2.61-10,10.2,17.84,75.5,32.24,92.73L36.68,474C26.77,462.14-6.89,398.56,1.26,372.51"/><path class="cls-25" d="M135.36,404.24c-1.3-19-25.38-34.36-40.62-34.36H64.09c-15.23,0-39.3,15.38-40.62,34.36l3,38.75h106Z"/><path class="cls-10" d="M127.09,444.14H31.74l-2.5-39.81c1.49-15.66,22.47-28.72,34.86-28.72H94.74c12.39,0,33.37,13.06,34.86,28.53Zm-93.19-2.3h91l2.37-37.66c-1.36-13.9-21.26-26.27-32.57-26.27H64.1c-11.32,0-31.22,12.37-32.57,26.45Z"/><path class="cls-10" d="M90.65,418.86H68.2A41.38,41.38,0,0,1,28.83,390c-.38.54-.76,1.08-1.11,1.64A41.41,41.41,0,0,0,68.2,424.61H90.65a41.39,41.39,0,0,0,40.46-32.92c-.34-.56-.72-1.11-1.09-1.65a41.39,41.39,0,0,1-39.37,28.82"/><path class="cls-26" d="M68.2,418.86H90.65A41.37,41.37,0,0,0,130,390c-8.22-11.89-24.11-20.17-35.27-20.17H64.1c-11.17,0-27,8.28-35.27,20.17A41.38,41.38,0,0,0,68.2,418.86"/><path class="cls-10" d="M125.08,438.4H33.76A13,13,0,0,0,21.1,449.82l-2.34,22.74a31.69,31.69,0,0,0,32.08,34.36H108a31.69,31.69,0,0,0,32.07-34.36l-2.34-22.74a13,13,0,0,0-12.66-11.42"/><rect class="cls-27" x="51.05" y="415.19" width="11.69" height="8.16"/><rect class="cls-28" x="51.05" y="423.35" width="11.69" height="4.12"/><rect class="cls-27" x="97.95" y="415.19" width="11.69" height="8.16"/><rect class="cls-28" x="97.95" y="423.35" width="11.69" height="4.12"/><path class="cls-27" d="M40.77,457.38v21.25c0,5,6.85,9,15.31,9V457.38Z"/><path class="cls-28" d="M56.08,457.38v30.27c8.45,0,15.31-4,15.31-9V457.38Z"/><path class="cls-27" d="M88.49,457.38v21.25c0,5,6.85,9,15.31,9V457.38Z"/><path class="cls-28" d="M103.8,457.38v30.27c8.45,0,15.31-4,15.31-9V457.38Z"/><path class="cls-29" d="M285.87,407.75l.43-.21A.56.56,0,0,0,285.87,407.75Z"/><path class="cls-29" d="M337.16,476.53c.46-.55.9-1.09,1.34-1.64l0,0h0c33.62-41.81,18.84-75,18.84-75L343.14,397c.25.24,12.52,36.51-19.17,70.86-36.56-17.44-41-56.89-38.1-60.11l-11.14,5.61c-.81,1.56-5.3,37.89,37,65.77h0l0,0c.93.62,1.88,1.22,2.86,1.83h0c-4.42,6.43-9.47,15-15.77,29.59l15.65-.36c2.73-9.18,6.89-15.78,12.9-23,6.27,4.33,12.67,11.21,13.6,21.58l14.08-1.63C351.72,491,344.87,482.51,337.16,476.53Z"/><path class="cls-30" d="M461.81,341.71a43.85,43.85,0,0,1-12.71-1.88V307h12.36c10.17,0,16.61,4,16.61,16.72C478.07,334.72,473.31,341.71,461.81,341.71Zm-.61-28.26h-4.1v20.86a20.06,20.06,0,0,0,5.16.66c3.7,0,7.3-1.82,7.3-11.24C469.56,316.23,467.48,313.45,461.2,313.45Z"/><path class="cls-30" d="M490.42,330.92c0,2.84,1.82,4.71,5.67,4.71a18.19,18.19,0,0,0,7-1.82l1.42,5.57a21.85,21.85,0,0,1-9.63,2.33c-7.95,0-12.56-4.92-12.56-13,0-7.49,3.6-12.86,12-12.86,7.74,0,10.83,5.52,10.83,11.75v3.29Zm3.64-9.22c-2.63,0-3.64,2.38-3.64,4.66h7.14C497.56,323.73,496.8,321.7,494.06,321.7Z"/><path class="cls-30" d="M525.35,322.66a15.77,15.77,0,0,0-5.77-1.11c-1.82,0-2.73.56-2.73,1.57,0,3.14,10,2.33,10,10.23,0,4.81-3.49,8.36-10.38,8.36a16.78,16.78,0,0,1-7.39-1.67l1.47-5.52a12.24,12.24,0,0,0,5.67,1.57c1.82,0,3-.76,3-2,0-3.65-9.83-2.58-9.83-11,0-3.9,2.89-7.14,10.13-7.14a24.12,24.12,0,0,1,6.79,1Z"/><path class="cls-30" d="M550.22,323.27a12.65,12.65,0,0,0-5.93-1.42c-2.93,0-4.86,1.73-4.86,6.89,0,5,1.67,6.89,4.91,6.89a14.8,14.8,0,0,0,6.49-1.77l1.41,5.67a19.83,19.83,0,0,1-8.66,2.18c-7.9,0-12.35-4.46-12.35-13,0-7.95,4.4-12.86,12.3-12.86a17.37,17.37,0,0,1,8.71,2Z"/><path class="cls-30" d="M564.19,341.2h-7.9V316.38h5.57l.76,3.45h.25a6,6,0,0,1,5.67-3.95,10.6,10.6,0,0,1,2.74.3l-.1,6.79a11.72,11.72,0,0,0-3.09-.41,6.94,6.94,0,0,0-3.9,1.17Z"/><path class="cls-30" d="M577,341.2V322.06l-2.94-.66v-5H585V341.2Zm-.15-35.15h8v7h-8Z"/><path class="cls-30" d="M598.62,343.89v6.93h-8.1V316.38h7l.51,2.54a7.8,7.8,0,0,1,6.17-3c5.52,0,10.18,3.95,10.18,12.81,0,8.51-5.42,13-11.09,13a6.07,6.07,0,0,1-5.67-2.94A17.37,17.37,0,0,1,598.62,343.89Zm0-10.39a4.43,4.43,0,0,0,3.65,2.33c2.18,0,4.15-1.72,4.15-7.09,0-5.62-1.82-7.09-4.1-7.09a5.72,5.72,0,0,0-3.7,1.57Z"/><path class="cls-30" d="M637.46,323.27a12.64,12.64,0,0,0-5.92-1.42c-2.94,0-4.87,1.73-4.87,6.89,0,5,1.67,6.89,4.92,6.89a14.75,14.75,0,0,0,6.48-1.77l1.42,5.67a19.87,19.87,0,0,1-8.66,2.18c-7.91,0-12.36-4.46-12.36-13,0-7.95,4.41-12.86,12.3-12.86a17.41,17.41,0,0,1,8.72,2Z"/><path class="cls-30" d="M645.71,341.2V322.06l-2.94-.66v-5h10.89V341.2Zm-.15-35.15h8v7h-8Z"/><path class="cls-30" d="M682.53,328.74c0,8.51-4.36,13-12.16,13s-12.15-4.46-12.15-13c0-7.29,4.35-12.86,12.15-12.86S682.53,321.45,682.53,328.74Zm-18.69-16.2-.71-4.56,13.62-3.35.92,5.88Zm10.43,16.2c0-5.77-1.57-7.09-3.9-7.09s-3.9,1.32-3.9,7.09c0,5.57,1.47,7.09,3.9,7.09S674.27,334.31,674.27,328.74Z"/><path class="cls-30" d="M702.42,341.2V326.56c0-3.24-1.36-4.6-3.84-4.6a8.21,8.21,0,0,0-3.5.86V341.2h-8V316.38h5.52l1.11,2.79a10,10,0,0,1,7.91-3.29c6.48,0,8.91,3.8,8.91,10.13V341.2Z"/><path class="cls-30" d="M742.73,318.41a12,12,0,0,1-.81-4.76v-7.39h8V341.2h-6.63l-.82-2.63a7.3,7.3,0,0,1-6.27,3.14c-5.53,0-10.19-3.9-10.19-12.92,0-8.51,5.07-12.91,10.79-12.91A7.34,7.34,0,0,1,742.73,318.41Zm-.81,4.36a8,8,0,0,0-3.75-1c-2.38,0-4.25,1.37-4.25,6.94,0,5.78,1.82,7.14,4.2,7.14a5.88,5.88,0,0,0,3.8-1.57Z"/><path class="cls-30" d="M762.52,330.92c0,2.84,1.83,4.71,5.68,4.71a18.24,18.24,0,0,0,7-1.82l1.41,5.57a21.76,21.76,0,0,1-9.62,2.33c-8,0-12.56-4.92-12.56-13,0-7.49,3.6-12.86,12-12.86,7.75,0,10.84,5.52,10.84,11.75v3.29Zm3.65-9.22c-2.63,0-3.65,2.38-3.65,4.66h7.15C769.67,323.73,768.9,321.7,766.17,321.7Z"/><path class="cls-30" d="M789.77,306.26V333.5c0,1.22.6,1.88,1.67,1.93l2,.15v5.67a24.44,24.44,0,0,1-4.2.46c-5.07,0-7.44-2.69-7.44-6.94V306.26Z"/><path class="cls-30" d="M816.75,343.89v6.93h-8.1V316.38h7l.51,2.54a7.8,7.8,0,0,1,6.17-3c5.53,0,10.18,3.95,10.18,12.81,0,8.51-5.42,13-11.09,13a6.07,6.07,0,0,1-5.67-2.94A17.37,17.37,0,0,1,816.75,343.89Zm0-10.39a4.43,4.43,0,0,0,3.65,2.33c2.18,0,4.15-1.72,4.15-7.09,0-5.62-1.82-7.09-4.1-7.09a5.72,5.72,0,0,0-3.7,1.57Z"/><path class="cls-30" d="M845,341.2h-7.9V316.38h5.57l.76,3.45h.25a6,6,0,0,1,5.67-3.95,10.6,10.6,0,0,1,2.74.3L852,323a11.77,11.77,0,0,0-3.09-.41,6.94,6.94,0,0,0-3.9,1.17Z"/><path class="cls-30" d="M878.43,328.74c0,8.51-4.36,13-12.16,13s-12.15-4.46-12.15-13c0-7.29,4.36-12.86,12.15-12.86S878.43,321.45,878.43,328.74Zm-8.25,0c0-5.77-1.58-7.09-3.91-7.09s-3.89,1.32-3.89,7.09c0,5.57,1.46,7.09,3.89,7.09S870.18,334.31,870.18,328.74Z"/><path class="cls-30" d="M893.77,340.44l-5.27,1.06-7.44-25.12h9l4.51,19.91h.15l4.61-19.91h7.9l-7.6,25.83c-2.12,6.79-6,9.42-11.29,9.42A14,14,0,0,1,880.7,349l2.49-5.47h.75a8.52,8.52,0,0,0,4.76,1.87c2.54,0,4.36-1.87,5-4.35Z"/><path class="cls-30" d="M916.6,330.92c0,2.84,1.83,4.71,5.68,4.71a18.19,18.19,0,0,0,7-1.82l1.41,5.57a21.76,21.76,0,0,1-9.62,2.33c-7.95,0-12.56-4.92-12.56-13,0-7.49,3.6-12.86,12-12.86,7.74,0,10.83,5.52,10.83,11.75v3.29Zm3.65-9.22c-2.63,0-3.65,2.38-3.65,4.66h7.15C923.75,323.73,923,321.7,920.25,321.7Z"/><path class="cls-30" d="M954.38,323.27a12.64,12.64,0,0,0-5.92-1.42c-2.94,0-4.87,1.73-4.87,6.89,0,5,1.67,6.89,4.92,6.89a14.75,14.75,0,0,0,6.48-1.77l1.42,5.67a19.87,19.87,0,0,1-8.66,2.18c-7.91,0-12.36-4.46-12.36-13,0-7.95,4.41-12.86,12.3-12.86a17.44,17.44,0,0,1,8.72,2Z"/><path class="cls-30" d="M977.37,339.93a15.29,15.29,0,0,1-7,1.78c-4.66,0-8.1-3-8.1-8.92V322.06h-3.55v-5.68h3.7v-4.25l7.8-2.53v6.78h6.33v5.68h-6.33v10.48a2.05,2.05,0,0,0,2.28,2.33,8.9,8.9,0,0,0,3.74-.86Z"/><path class="cls-30" d="M1002.94,328.74c0,8.51-4.35,13-12.15,13s-12.16-4.46-12.16-13c0-7.29,4.36-12.86,12.16-12.86S1002.94,321.45,1002.94,328.74Zm-8.26,0c0-5.77-1.57-7.09-3.89-7.09s-3.9,1.32-3.9,7.09c0,5.57,1.47,7.09,3.9,7.09S994.68,334.31,994.68,328.74Z"/><path class="cls-30" d="M1007,316.38h8.1v7.9H1007Zm0,16.92h8.1v7.9H1007Z"/><path class="cls-31" d="M452.91,393.25V356.2H457v10.58a13.57,13.57,0,0,1-.38,3.33,10.82,10.82,0,0,1,7.95-3.71c6.44,0,9.08,3.6,9.08,10.26v16.59h-4.19V377.36c0-4.89-1.94-7.73-6-7.73-2.74,0-4.83,1.55-6.44,3v20.62Z"/><path class="cls-31" d="M483.2,381.28c0,6.5,3.33,9.34,8.32,9.34a16.31,16.31,0,0,0,8.16-2.63l1,2.9a18.85,18.85,0,0,1-9.61,2.9c-7.19,0-12-4.78-12-13.85,0-8.33,4.08-13.54,11.27-13.54,7.41,0,10.53,6,10.53,12.57v2.31Zm7-11.76c-5,0-7,4.4-7,8.91h13.74C496.94,373.87,495.39,369.52,490.23,369.52Z"/><path class="cls-31" d="M527.61,376.66v16.59h-4.13V377.36c0-5-1.45-7.73-5.91-7.73-2.79,0-4.73,1.55-6.34,3v20.62h-4.08V366.94h2.69l.86,3.17a11,11,0,0,1,8-3.71c3.92,0,6.44,1.4,7.73,4a11.46,11.46,0,0,1,8.21-4c6.45,0,9.29,3.6,9.29,10.26v16.59H539.8V377.36c0-5-1.88-7.73-6.34-7.73a9.46,9.46,0,0,0-6.28,3A15.57,15.57,0,0,1,527.61,376.66Z"/><path class="cls-31" d="M572,380c0,8.86-4.29,13.75-11.33,13.75S549.42,389,549.42,380c0-7.73,3.65-13.64,11.22-13.64C567.94,366.4,572,372.2,572,380Zm-4.19,0c0-6.87-2.31-10.58-7.14-10.58s-7.09,3.87-7.09,10.58c0,6.45,1.88,10.69,7.09,10.69S567.78,387.08,567.78,380Z"/><path class="cls-31" d="M581.16,373.38c0,5.64,13.05,3.66,13.05,12.57,0,4.24-3.28,7.84-9.13,7.84a15.82,15.82,0,0,1-8-2.26l1.18-3a12.3,12.3,0,0,0,6.71,2.2c3.23,0,5.21-1.77,5.21-4.51,0-6.34-12.88-4-12.88-12.89,0-3.54,2.68-6.93,8.69-6.93a17.1,17.1,0,0,1,7.9,1.72l-1,3a14.17,14.17,0,0,0-6.87-1.61C582.77,369.52,581.16,371,581.16,373.38Z"/><path class="cls-31" d="M617.2,373.38c0,5.64,13,3.66,13,12.57,0,4.24-3.28,7.84-9.13,7.84a15.82,15.82,0,0,1-8-2.26l1.18-3a12.3,12.3,0,0,0,6.71,2.2c3.23,0,5.21-1.77,5.21-4.51,0-6.34-12.89-4-12.89-12.89,0-3.54,2.69-6.93,8.7-6.93a17.1,17.1,0,0,1,7.9,1.72l-1,3a14.17,14.17,0,0,0-6.87-1.61C618.81,369.52,617.2,371,617.2,373.38Z"/><path class="cls-31" d="M657.9,380c0,8.86-4.29,13.75-11.33,13.75S635.35,389,635.35,380c0-7.73,3.65-13.64,11.22-13.64C653.88,366.4,657.9,372.2,657.9,380Zm-4.19,0c0-6.87-2.3-10.58-7.14-10.58s-7.09,3.87-7.09,10.58c0,6.45,1.88,10.69,7.09,10.69S653.71,387.08,653.71,380Z"/><path class="cls-31" d="M680.62,393.25V377.36c0-5-1.56-7.73-6-7.73-2.74,0-4.84,1.55-6.45,3v20.62h-4.08V366.94h2.74l.81,3.12a11.48,11.48,0,0,1,8.27-3.66c6.17,0,8.91,3.71,8.91,10.26v16.59Zm-3.6-31-5.31-1.88a2.87,2.87,0,0,0-3.87,1.5l-2.2-1c.7-2.85,3.11-4.84,6.5-3.6l5.1,1.82a2.51,2.51,0,0,0,3.49-1.55l2.09.8C682.45,361.52,680.25,363.4,677,362.27Z"/><path class="cls-31" d="M707.64,393.25l-.7-3.38a10.37,10.37,0,0,1-8.11,3.92c-5.37,0-8.48-3.6-8.48-8.06s3.32-7.51,9.28-7.51h6.82v-2.1c0-4.56-2-6.49-6-6.49a19.51,19.51,0,0,0-7.94,1.71l-1.08-2.95a23.25,23.25,0,0,1,9.56-2c6.23,0,9.4,3.23,9.4,9.51v17.34ZM706.45,381h-6.17c-4.46,0-6,1.93-6,4.56,0,3.17,1.72,5.27,5.53,5.27a9.24,9.24,0,0,0,6.6-3.28Z"/><path class="cls-31" d="M734.76,390.08a10,10,0,0,1-7.58,3.71c-6.22,0-10.57-4.62-10.57-13.75,0-8,4-13.64,11-13.64a11.07,11.07,0,0,1,7,2.26,36.8,36.8,0,0,1-.22-4.3V356.2h4.08v37.05h-3.06Zm-.33-18.68a11.23,11.23,0,0,0-6.39-1.88c-4.94,0-7.3,3.86-7.3,10.52,0,6.5,2.1,10.69,7,10.69,2.36,0,4.51-1,6.65-3.33Z"/><path class="cls-31" d="M767.25,380c0,8.86-4.3,13.75-11.33,13.75S744.69,389,744.69,380c0-7.73,3.66-13.64,11.23-13.64C763.22,366.4,767.25,372.2,767.25,380Zm-4.19,0c0-6.87-2.31-10.58-7.14-10.58s-7.09,3.87-7.09,10.58c0,6.45,1.88,10.69,7.09,10.69S763.06,387.08,763.06,380Z"/><path class="cls-31" d="M804.9,393.25l-.59-3a11.2,11.2,0,0,1-8.16,3.54c-5.86,0-9.08-3.49-9.08-10.68V366.94h4.08v15.9c0,5.42,1.72,7.67,6,7.67a10.41,10.41,0,0,0,6.5-2.57v-21h4.13v26.31Z"/><path class="cls-31" d="M831.05,393.25V377.36c0-5-1.55-7.73-6-7.73-2.74,0-4.83,1.55-6.44,3v20.62h-4.09V366.94h2.74l.81,3.12a11.48,11.48,0,0,1,8.27-3.66c6.17,0,8.91,3.71,8.91,10.26v16.59Z"/><path class="cls-31" d="M875.2,391.48a18.76,18.76,0,0,1-8.75,2.31c-6.66,0-11.49-3.92-11.49-13.69,0-8.92,4.88-13.7,11.49-13.7a17,17,0,0,1,8.59,2.1l-1.18,2.9a14.29,14.29,0,0,0-7.2-1.72c-4.72,0-7.62,3.76-7.62,10.42,0,7.41,2.9,10.52,7.62,10.52a14.86,14.86,0,0,0,7.58-2.2Z"/><path class="cls-31" d="M896.85,393.25l-.7-3.38a10.37,10.37,0,0,1-8.11,3.92c-5.37,0-8.49-3.6-8.49-8.06s3.33-7.51,9.29-7.51h6.82v-2.1c0-4.56-2-6.49-6-6.49a19.51,19.51,0,0,0-7.94,1.71l-1.08-2.95a23.25,23.25,0,0,1,9.56-2c6.23,0,9.4,3.23,9.4,9.51v17.34ZM895.66,381h-6.17c-4.46,0-6,1.93-6,4.56,0,3.17,1.72,5.27,5.53,5.27a9.24,9.24,0,0,0,6.6-3.28Z"/><path class="cls-31" d="M927.08,376.66v16.59H923V377.36c0-5-1.45-7.73-5.91-7.73-2.79,0-4.73,1.55-6.34,3v20.62h-4.08V366.94h2.69l.86,3.17a11,11,0,0,1,8-3.71c3.92,0,6.44,1.4,7.73,4a11.46,11.46,0,0,1,8.21-4c6.45,0,9.29,3.6,9.29,10.26v16.59h-4.13V377.36c0-5-1.88-7.73-6.34-7.73a9.46,9.46,0,0,0-6.28,3A15.57,15.57,0,0,1,927.08,376.66Z"/><path class="cls-31" d="M953.45,370a11.3,11.3,0,0,1,7.84-3.55c6.71,0,10.2,4.78,10.2,13.64,0,9.29-4.61,13.75-11,13.75a10.17,10.17,0,0,1-7.62-3.38l-.86,2.84H949.8V356.2h4.08v10.2Zm.43,17.77a9.34,9.34,0,0,0,6.39,3c4.62,0,7.09-3.11,7.09-10.69,0-6.92-2-10.52-6.82-10.52a9.85,9.85,0,0,0-6.66,3Z"/><path class="cls-31" d="M979.82,393.25v-23l-2.9-.59v-2.69h6.88v26.31Zm-.37-36.67h4.35v4.29h-4.35Z"/><path class="cls-31" d="M1012.58,380c0,8.86-4.3,13.75-11.33,13.75S990,389,990,380c0-7.73,3.65-13.64,11.22-13.64C1008.55,366.4,1012.58,372.2,1012.58,380Zm-4.19,0c0-6.87-2.31-10.58-7.14-10.58s-7.09,3.87-7.09,10.58c0,6.45,1.88,10.69,7.09,10.69S1008.39,387.08,1008.39,380Z"/><path class="cls-31" d="M462,446.8l-2.68.21-8.43-26.36h4.51s4.94,16,7.19,23.89c2.31-7.94,7.15-23.89,7.15-23.89h4.18l-8.43,26c-2.73,8.38-5.47,11.06-10.52,11.06a10.55,10.55,0,0,1-5.85-2.09l1.34-2.74h.32a7.64,7.64,0,0,0,4.4,1.66c3.06,0,4.84-1.82,6.5-6.81Z"/><path class="cls-31" d="M496.72,439.71v-29.8h4v31.3c0,2.26,1,3.17,3.92,3.17h.86v2.79a11.94,11.94,0,0,1-2.58.33C498,447.5,496.72,444.65,496.72,439.71Z"/><path class="cls-31" d="M532.27,433.75c0,8.86-4.3,13.75-11.33,13.75s-11.22-4.78-11.22-13.75c0-7.73,3.65-13.64,11.22-13.64C528.24,420.11,532.27,425.91,532.27,433.75Zm-4.19,0c0-6.87-2.31-10.58-7.14-10.58s-7.09,3.87-7.09,10.58c0,6.44,1.88,10.68,7.09,10.68S528.08,440.78,528.08,433.75Z"/><path class="cls-31" d="M573.77,457.16V446.91a22.41,22.41,0,0,1,.38-3.12,10.17,10.17,0,0,1-7.63,3.71c-6.12,0-10.58-4.67-10.58-13.75,0-8,4-13.64,11-13.64a13.1,13.1,0,0,1,7.57,2.47l.76-1.93h2.57v36.51Zm0-32a10.35,10.35,0,0,0-6.33-2c-4.94,0-7.36,3.87-7.36,10.53,0,6.5,2.09,10.68,7,10.68,2.37,0,4.51-1,6.66-3.32Z"/><path class="cls-31" d="M602.45,447l-.59-3a11.2,11.2,0,0,1-8.16,3.55c-5.85,0-9.08-3.5-9.08-10.69V420.65h4.08v15.89c0,5.43,1.72,7.68,6,7.68a10.34,10.34,0,0,0,6.5-2.58v-21h4.14V447Z"/><path class="cls-31" d="M615.29,435c0,6.5,3.33,9.35,8.32,9.35a16.31,16.31,0,0,0,8.16-2.63l1,2.9a18.85,18.85,0,0,1-9.61,2.9c-7.19,0-12-4.78-12-13.86,0-8.32,4.08-13.53,11.27-13.53,7.41,0,10.53,6,10.53,12.57V435Zm7-11.76c-5,0-7,4.41-7,8.92H629C629,427.58,627.48,423.22,622.32,423.22Zm-5.9-6.65-.59-2.42,11.86-4.4.81,3.06Z"/><path class="cls-31" d="M674.57,457.16V446.91a23,23,0,0,1,.37-3.12,10.13,10.13,0,0,1-7.62,3.71c-6.12,0-10.58-4.67-10.58-13.75,0-8,4-13.64,11-13.64a13.13,13.13,0,0,1,7.57,2.47l.75-1.93h2.58v36.51Zm0-32a10.4,10.4,0,0,0-6.34-2c-4.94,0-7.36,3.87-7.36,10.53,0,6.5,2.1,10.68,7,10.68,2.36,0,4.51-1,6.66-3.32Z"/><path class="cls-31" d="M703.24,447l-.59-3a11.16,11.16,0,0,1-8.16,3.55c-5.85,0-9.07-3.5-9.07-10.69V420.65h4.08v15.89c0,5.43,1.72,7.68,6,7.68a10.39,10.39,0,0,0,6.5-2.58v-21h4.13V447Z"/><path class="cls-31" d="M716.08,435c0,6.5,3.33,9.35,8.33,9.35a16.31,16.31,0,0,0,8.16-2.63l1,2.9a18.88,18.88,0,0,1-9.61,2.9c-7.2,0-12-4.78-12-13.86,0-8.32,4.08-13.53,11.28-13.53,7.41,0,10.52,6,10.52,12.57V435Zm7-11.76c-5,0-7,4.41-7,8.92h13.75C729.83,427.58,728.27,423.22,723.12,423.22Z"/><path class="cls-31" d="M753.41,424.19a10.54,10.54,0,0,0-3.39-.48,8.41,8.41,0,0,0-5.9,2.84V447H740V420.65h2.74l.75,3.33a8.67,8.67,0,0,1,6.82-3.71,12.07,12.07,0,0,1,3.33.43Z"/><path class="cls-31" d="M760.12,435c0,6.5,3.33,9.35,8.32,9.35a16.35,16.35,0,0,0,8.17-2.63l1,2.9a18.88,18.88,0,0,1-9.61,2.9c-7.2,0-12-4.78-12-13.86,0-8.32,4.08-13.53,11.28-13.53,7.41,0,10.52,6,10.52,12.57V435Zm7-11.76c-5,0-7,4.41-7,8.92h13.75C773.87,427.58,772.31,423.22,767.16,423.22Z"/><path class="cls-31" d="M804.53,430.37V447H800.4v-15.9c0-5-1.45-7.73-5.91-7.73-2.79,0-4.72,1.56-6.33,3V447h-4.08V420.65h2.68l.86,3.16a11.07,11.07,0,0,1,8-3.7c3.92,0,6.44,1.4,7.73,4a11.47,11.47,0,0,1,8.22-4c6.44,0,9.29,3.6,9.29,10.26V447h-4.14v-15.9c0-5-1.88-7.73-6.33-7.73a9.45,9.45,0,0,0-6.29,3A15.1,15.1,0,0,1,804.53,430.37Z"/><path class="cls-31" d="M848.89,433.75c0,8.86-4.29,13.75-11.33,13.75s-11.22-4.78-11.22-13.75c0-7.73,3.65-13.64,11.22-13.64C844.87,420.11,848.89,425.91,848.89,433.75Zm-4.18,0c0-6.87-2.31-10.58-7.15-10.58s-7.08,3.87-7.08,10.58c0,6.44,1.88,10.68,7.08,10.68S844.71,440.78,844.71,433.75Z"/><path class="cls-31" d="M858.08,427.09c0,5.64,13,3.65,13,12.57,0,4.24-3.28,7.84-9.13,7.84a15.82,15.82,0,0,1-8-2.26l1.19-3a12.24,12.24,0,0,0,6.71,2.2c3.22,0,5.21-1.77,5.21-4.51,0-6.33-12.89-4-12.89-12.88,0-3.55,2.68-6.93,8.7-6.93a17.08,17.08,0,0,1,7.89,1.72l-1,3a14,14,0,0,0-6.87-1.62C859.69,423.22,858.08,424.67,858.08,427.09Z"/><path class="cls-31" d="M895.45,447v-37h4.08v10.58a13.54,13.54,0,0,1-.38,3.32,10.85,10.85,0,0,1,8-3.7c6.44,0,9.08,3.6,9.08,10.26V447H912v-15.9c0-4.88-1.94-7.73-6-7.73-2.74,0-4.83,1.56-6.44,3V447Z"/><path class="cls-31" d="M938.79,447l-.7-3.39A10.36,10.36,0,0,1,930,447.5c-5.37,0-8.48-3.6-8.48-8.06s3.33-7.52,9.29-7.52h6.82v-2.09c0-4.56-2-6.5-6-6.5a19.39,19.39,0,0,0-7.95,1.72l-1.08-2.95a23.09,23.09,0,0,1,9.56-2c6.23,0,9.4,3.22,9.4,9.5V447Zm-1.18-12.24h-6.18c-4.46,0-6,1.93-6,4.56,0,3.17,1.72,5.26,5.53,5.26a9.27,9.27,0,0,0,6.61-3.27Z"/><path class="cls-31" d="M968,445.19a18.76,18.76,0,0,1-8.75,2.31c-6.66,0-11.49-3.93-11.49-13.7,0-8.91,4.88-13.69,11.49-13.69a16.86,16.86,0,0,1,8.59,2.1l-1.18,2.89a14.29,14.29,0,0,0-7.2-1.72c-4.72,0-7.62,3.77-7.62,10.42,0,7.41,2.9,10.53,7.62,10.53a14.89,14.89,0,0,0,7.57-2.2Z"/><path class="cls-31" d="M976.6,435c0,6.5,3.33,9.35,8.32,9.35a16.31,16.31,0,0,0,8.16-2.63l1,2.9a18.88,18.88,0,0,1-9.61,2.9c-7.2,0-12-4.78-12-13.86,0-8.32,4.08-13.53,11.27-13.53,7.41,0,10.53,6,10.53,12.57V435Zm7-11.76c-5,0-7,4.41-7,8.92h13.74C990.34,427.58,988.79,423.22,983.63,423.22Z"/><path class="cls-31" d="M1013.92,424.19a10.47,10.47,0,0,0-3.38-.48,8.41,8.41,0,0,0-5.91,2.84V447h-4.08V420.65h2.74L1004,424a8.71,8.71,0,0,1,6.82-3.71,12.07,12.07,0,0,1,3.33.43Z"/><path class="cls-31" d="M466.28,477.9a10.47,10.47,0,0,0-3.38-.48,8.38,8.38,0,0,0-5.91,2.84v20.41h-4.08V474.35h2.74l.75,3.33a8.73,8.73,0,0,1,6.82-3.7,11.64,11.64,0,0,1,3.33.43Z"/><path class="cls-31" d="M473,488.69c0,6.5,3.33,9.35,8.33,9.35a16.21,16.21,0,0,0,8.16-2.64l1,2.9a18.88,18.88,0,0,1-9.61,2.9c-7.2,0-12-4.78-12-13.85,0-8.33,4.08-13.53,11.28-13.53,7.41,0,10.52,6,10.52,12.56v2.31Zm7-11.76c-5,0-7,4.4-7,8.91h13.75C486.74,481.28,485.18,476.93,480,476.93Z"/><path class="cls-31" d="M513.22,500.67l-.7-3.39a10.36,10.36,0,0,1-8.11,3.92c-5.37,0-8.48-3.59-8.48-8.05s3.33-7.52,9.29-7.52H512v-2.1c0-4.56-2-6.49-6-6.49a19.39,19.39,0,0,0-7.95,1.72l-1.08-3a23.28,23.28,0,0,1,9.56-2c6.23,0,9.4,3.22,9.4,9.5v17.35ZM512,488.42h-6.18c-4.46,0-6,1.94-6,4.57,0,3.16,1.72,5.26,5.53,5.26A9.25,9.25,0,0,0,512,495Z"/><path class="cls-31" d="M523.21,493.41v-29.8h4v31.31c0,2.26,1,3.17,3.92,3.17H532v2.79a12.14,12.14,0,0,1-2.57.32C524.44,501.2,523.21,498.35,523.21,493.41Z"/><path class="cls-31" d="M539.21,500.67v-23l-2.9-.59v-2.69h6.87v26.32ZM538.84,464h4.34v4.29h-4.34Z"/><path class="cls-31" d="M567.67,497.5a10,10,0,0,1-7.57,3.7c-6.23,0-10.58-4.62-10.58-13.74,0-8,4-13.64,11-13.64a11,11,0,0,1,7,2.25,36.69,36.69,0,0,1-.21-4.29v-8.17h4.08v37.06h-3.06Zm-.32-18.69a11.29,11.29,0,0,0-6.39-1.88c-4.94,0-7.3,3.87-7.3,10.53,0,6.49,2.09,10.68,7,10.68,2.36,0,4.51-1,6.66-3.33Z"/><path class="cls-31" d="M594.79,500.67l-.69-3.39A10.37,10.37,0,0,1,586,501.2c-5.37,0-8.49-3.59-8.49-8.05s3.33-7.52,9.29-7.52h6.82v-2.1c0-4.56-2-6.49-6-6.49a19.43,19.43,0,0,0-7.95,1.72l-1.07-3a23.24,23.24,0,0,1,9.56-2c6.23,0,9.4,3.22,9.4,9.5v17.35Zm-1.18-12.25h-6.17c-4.46,0-6,1.94-6,4.57,0,3.16,1.71,5.26,5.53,5.26a9.24,9.24,0,0,0,6.6-3.28Z"/><path class="cls-31" d="M621.91,497.5a10,10,0,0,1-7.57,3.7c-6.23,0-10.58-4.62-10.58-13.74,0-8,4-13.64,11-13.64a11.07,11.07,0,0,1,7,2.25,36.62,36.62,0,0,1-.22-4.29v-8.17h4.08v37.06h-3.06Zm-.32-18.69a11.26,11.26,0,0,0-6.39-1.88c-4.94,0-7.3,3.87-7.3,10.53,0,6.49,2.09,10.68,7,10.68,2.37,0,4.51-1,6.66-3.33Z"/><path class="cls-31" d="M632,494.65h4v6h-4Z"/><path class="cls-32" d="M459.12,175.33v-1.54h15.74v2.42c0,16.95-14.09,17.28-14.09,28.28,0,4.07,2.86,7.26,8.36,7.26a37.23,37.23,0,0,0,13.1-2.75l4.29,13.53a49.76,49.76,0,0,1-20.69,4.18c-13.64,0-23.54-7.37-23.54-19.69C442.29,190.18,459.12,186,459.12,175.33Zm16.4-7.7H458.46V150.8h17.06Z"/><path class="cls-32" d="M537.78,203.06c5.83.66,12.21.77,22.89.77v16.83a48.74,48.74,0,0,1-34.88-14.85c-26.08,0-32.68-18.92-32.68-38.84,0-19.36,6.49-37.63,32.68-37.63,26.73,0,33,18,33,37.63C558.8,180.5,551,196.68,537.78,203.06Zm-12-58.75c-11.55,0-14.3,9.9-14.3,22.55,0,14.08,3,24.32,14.3,24.32s14.52-10.13,14.52-24.32C540.31,154,537.34,144.31,525.79,144.31Z"/><path class="cls-32" d="M629.09,176.32c0,15.52-8.8,29.49-29.37,29.49s-29.38-13.42-29.38-29.49V130.44h17.38v45c0,9.35,4.29,15.63,12,15.63s11.77-6.39,11.77-15.63v-45h17.6Z"/><path class="cls-32" d="M643.39,204.71V130.44h48v14.64H660.77v14.63h22.88L682.55,175H660.77v15.18h30.59v14.53ZM652,126.37l-1.43-9.9,32.23-4.4-.22,12.76Z"/><path class="cls-32" d="M489.16,301V271.48H464.73V301H447.24V226.7h17.49v29.05h24.43V226.7h17.49V301Z"/><path class="cls-32" d="M558.24,285.35H535L531.73,301H514.35L534.7,226.7h27.07L582.12,301H561.77Zm-20.13-13.87h17.06L548.89,242H545Z"/><path class="cls-32" d="M612.81,273.9h-5.72V301H589.81V226.7h25.86c14.85,0,26.62,6.93,26.62,22.67a23.6,23.6,0,0,1-13.53,21.56l15.18,30H623.7Zm0-33.77h-5.72v20.35h5.72c8.36,0,11-4,11-11.11C623.81,242.77,620.29,240.13,612.81,240.13Z"/><path class="cls-32" d="M654,301V226.7h48v14.64H671.33V256h22.89l-1.1,15.29H671.33v15.18h30.59V301Z"/><path class="cls-32" d="M739.76,301l-7.15-35.32c-1-5.06-2.86-14.63-4.18-22.55h-.55L727,301H711.26l2.86-74.27h29s6.82,34.22,10.12,58.65h.44c4.18-24.54,12.32-58.65,12.32-58.65h28.72l3,74.27H777.61l-1.32-57.87h-.55c-1.43,8.58-3.2,17.16-4.4,22.55L763.85,301Z"/><path class="cls-32" d="M839.21,302.07c-26.08,0-32.68-18.92-32.68-38.84,0-19.36,6.49-37.63,32.68-37.63,26.73,0,33,18.05,33,37.63C872.22,283.15,865.28,302.07,839.21,302.07Zm0-61.5c-11.55,0-14.3,9.9-14.3,22.55,0,14.08,3,24.32,14.3,24.32s14.52-10.13,14.52-24.32C853.73,250.25,850.76,240.57,839.21,240.57Z"/><path class="cls-32" d="M926.45,244.53a37.14,37.14,0,0,0-17.05-3.85c-6.72,0-9.47,2.53-9.47,5.83,0,11.33,33.56,6.6,33.56,32,0,12.11-10.45,23.55-28.06,23.55a41.45,41.45,0,0,1-25-8.14L887,280.72a31.49,31.49,0,0,0,18.59,6.72c6.06,0,9.8-3.31,9.8-7.71,0-13.75-33.34-6.05-33.34-33,0-11.67,9.24-21.13,27.61-21.13a49.66,49.66,0,0,1,22.67,5Z"/><path class="cls-32" d="M967.48,276.43V278H951.75v-2.42c0-16.94,14.08-17.27,14.08-28.27,0-4.07-2.86-7.26-8.36-7.26a37.22,37.22,0,0,0-13.09,2.75l-4.3-13.54a49.79,49.79,0,0,1,20.69-4.18c13.64,0,23.54,7.38,23.54,19.7C984.31,261.58,967.48,265.76,967.48,276.43Zm-16.39,7.7h17V301h-17Z"/><path class="cls-33" d="M539,90.52h17.77V51s0-7.52.69-13.27c-5.2,6.29-14.91,9.58-21.75,10.12L533.13,31c12.45-3.14,22-8.89,28.59-17.23h16.41V90.52H595v16.27H539Z"/><rect class="cls-34" x="311.23" y="234.83" width="50.95" height="138.38"/></svg>