<svg id="Capa_1" data-name="Capa 1" xmlns="http://www.w3.org/2000/svg" viewBox="0 0 512 512"><defs><style>.cls-1{fill:#e94b4a;}.cls-2{fill:#fee3c6;}.cls-3{fill:#f4f3f4;}.cls-4{fill:#d6ae8a;}.cls-5{fill:#9b7c67;}.cls-6{fill:#fbefdc;}.cls-7{fill:#fff9f0;}.cls-8{fill:#e3b486;}.cls-9{fill:#886754;}.cls-10{fill:#ccb79c;}.cls-11{fill:#fbcc9c;}.cls-12{fill:#34bacc;}.cls-13{fill:#222b54;}.cls-14{fill:#c1d44f;}.cls-15{fill:#1db1bf;}.cls-16{fill:#0a696c;}.cls-17{fill:#f3b93f;}.cls-18{fill:#a0b61d;}.cls-19{fill:#e7334a;}.cls-19,.cls-20,.cls-21,.cls-22{stroke:#fff;stroke-miterlimit:10;}.cls-20{fill:#55b682;}.cls-21,.cls-22{fill:#615185;}.cls-21{stroke-width:0.5px;}.cls-22{stroke-width:0.75px;}</style></defs><path class="cls-1" d="M502.68,122.41c-28,16.29-52.35,31-67,40.82,0,0,0-3-3-9.95-3-7.08-9.18-18.22-21.6-34.29-2-2.61-4.2-5.35-6.57-8.22,0,0,30.94-13.69,73.72-35.92A179.46,179.46,0,0,0,365.1,3c-2.49,39.29-4.23,74.72-4.06,95.38,0,0-2.54-1.68-9.93-3-7.57-1.39-20.25-2.43-40.51-1q-4.94.35-10.48.92s6.74-39.39,12.17-94.14A178.8,178.8,0,0,0,209.45,48.91c30.39,25.91,58.19,48.94,75,61.32,0,0-2.87,1-8.38,6.14s-13.83,14.51-24.55,31.12c6.33.2,12,.31,16.85.3,0,0-1.7,2.53-3.1,9.91-1.44,7.57-2.57,20.24-1.24,40.51q.31,4.93.85,10.48s-47.77-8.51-111.21-14.54a178.58,178.58,0,0,0,40.45,99.61c29.82-26.54,56.42-50.91,71-65.9,0,0,.62,3,4.93,9.14,4.41,6.32,12.69,16,28.13,29.18q3.75,3.21,8.1,6.71s-31.31,22.43-72.5,56.44a178.51,178.51,0,0,0,98.71,29.61c2.32,0,4.61-.09,6.91-.18-7.34-33-14.25-61.91-19.42-79.39,0,0,2.91.91,10.39.18,7.66-.76,20.14-3.25,39.21-10.24,3.09-1.14,6.36-2.39,9.81-3.78,0,0,3.83,34.67,12.37,83.34a179.88,179.88,0,0,0,89.37-68.81c-32.67-13.61-61.81-25.23-79.75-31.28,0,0,2.42-1.85,6.11-8.39,3.8-6.71,8.93-18.34,14.18-38q1.28-4.77,2.56-10.2s32.65,18,79.85,39.94a179.7,179.7,0,0,0-1.44-109.75Z"/><path class="cls-2" d="M292.71,273.15c2.65-5,7.08-8.8,11.91-11.7s10.08-5,15.22-7.31c9.56-4.28,19.58-8.73,26.74-16.37,14.21-15.15,34.29-12.71,52.34-20.19a5.14,5.14,0,0,0,3.1-5c-.19-1.94-2.09-3.36-4-3.66a14.39,14.39,0,0,0-5.76.7A132.17,132.17,0,0,1,364,213.74c-2.47.08-5.56-.29-6.43-2.62-.95-2.56,1.64-5,3.88-6.5A186.88,186.88,0,0,0,395,174.72a14.37,14.37,0,0,0,3-4.54,5.13,5.13,0,0,0-.8-5.18,5.18,5.18,0,0,0-5.28-1,15,15,0,0,0-4.75,3l-27.61,22.85c-2.48,2.05-6,4.19-8.64,2.38l35.13-36.51c2.68-2.79,5.58-6.64,3.94-10.15-1.33-2.83-5.18-3.7-8.14-2.69s-5.25,3.35-7.4,5.62q-14.31,15.06-28.61,30.14c-1.11,1.17-2.71,2.44-4.16,1.74s-1.45-2.48-1.28-3.95c1.64-13.92,12.56-24.79,17.8-37.8a14,14,0,0,0,1.26-5.49,5.86,5.86,0,0,0-2.47-4.86c-2.09-1.3-5-.61-6.85,1s-3.06,3.82-4.2,6c-8,15.3-18.26,29.51-27.45,44.11a15.91,15.91,0,0,1-10,7,5.09,5.09,0,0,1-4.31-.58,4.15,4.15,0,0,1-1.26-3.4,14.82,14.82,0,0,1,.89-3.63A46.39,46.39,0,0,0,305.59,158c-.52-3.53-1.62-7.28-4.49-9.4a4.5,4.5,0,0,0-4.34-.84c-2.14.93-2.49,3.74-2.65,6.07a69,69,0,0,1-6,23.74c-2.73,6-6.35,11.71-7.46,18.19-1.72,10,2.79,20.1,2,30.19A220.67,220.67,0,0,1,251,251L284.23,283c2.78-3.08,6.53-6.17,8.48-9.82"/><path class="cls-3" d="M348.9,135l5.73,3.39a1,1,0,0,0,1.4-.37l1.79-3.17s1.27-2.61-1.63-4.86a4.75,4.75,0,0,0-5.06-.18,8,8,0,0,0-2,2.79l-.6,1a1,1,0,0,0,.35,1.4"/><path class="cls-3" d="M378.07,148.35l4.67,6.05a1.18,1.18,0,0,0,1.66.19l3.25-2.62s2.46-2.24.32-5.86a5.46,5.46,0,0,0-5.32-2.35,9.21,9.21,0,0,0-3.3,2.14l-1.06.81a1.17,1.17,0,0,0-.22,1.64"/><path class="cls-3" d="M389.19,169.06l3.3,4.28a.82.82,0,0,0,1.17.14l2.31-1.86s1.74-1.58.22-4.15a3.85,3.85,0,0,0-3.76-1.65,6.46,6.46,0,0,0-2.34,1.51l-.75.57a.83.83,0,0,0-.15,1.16"/><path class="cls-3" d="M394.46,211.78l.6,4.67a.72.72,0,0,0,.82.62l2.55-.38a2.83,2.83,0,0,0,2-3,3.36,3.36,0,0,0-2.1-2.9,5.59,5.59,0,0,0-2.42.11l-.82.11a.7.7,0,0,0-.62.8"/><path class="cls-3" d="M295.06,160.28l5.11.55c.44,0,.81-.48.82-1.18l.07-4.44s-.07-3.53-2.85-4.38c0,0-2.35-.58-3.5,2.58a14.44,14.44,0,0,0-.35,4.13l-.05,1.42c0,.68.31,1.28.75,1.32"/><path class="cls-4" d="M373,277.52c-3-4.74-4.2-10.48-4.37-16.11s.58-11.24,1.09-16.85c.94-10.43,2-21.34-1.18-31.33-6.25-19.81,5.72-36.12,8-55.52a5.14,5.14,0,0,0-2.8-5.12c-1.79-.8-3.95.17-5.16,1.7a14.36,14.36,0,0,0-2.2,5.37,132.14,132.14,0,0,1-10.3,26.62c-1.14,2.21-3,4.71-5.43,4.33-2.7-.42-3.52-3.85-3.77-6.57a187.1,187.1,0,0,0-9.62-43.91,14.18,14.18,0,0,0-2.48-4.88,4.57,4.57,0,0,0-8.33,2.3,15,15,0,0,0,.31,5.62q3.19,17.63,6.4,35.26c.58,3.17.73,7.26-2.16,8.7q-7.3-24.25-14.62-48.51c-1.12-3.7-3.06-8.11-6.92-8.4-3.12-.24-5.76,2.7-6.34,5.77s.35,6.22,1.28,9.21l12.27,39.7c.48,1.54.81,3.56-.52,4.48s-2.88.05-4.08-.82c-11.33-8.24-15.46-23.09-24.23-34a14,14,0,0,0-4.17-3.8,5.82,5.82,0,0,0-5.45-.22c-2.15,1.19-2.95,4-2.52,6.43s1.83,4.55,3.18,6.61c9.44,14.44,16.78,30.37,25,45.54a15.91,15.91,0,0,1,1.2,12.13c-.44,1.43-1.22,2.93-2.62,3.46a4.11,4.11,0,0,1-3.58-.56,14.38,14.38,0,0,1-2.73-2.56,46.53,46.53,0,0,0-17.32-11.7c-3.33-1.28-7.14-2.14-10.39-.68a4.49,4.49,0,0,0-2.86,3.36c-.24,2.33,2,4,4,5.29a69,69,0,0,1,17.76,16.86c3.88,5.3,7.09,11.26,12.2,15.4,7.86,6.39,18.89,7.41,27.3,13.06a221.83,221.83,0,0,1,6.41,39.89l44.12-13.33c-1.32-3.92-2.18-8.71-4.41-12.2"/><path class="cls-3" d="M280.11,160.89l5.76-3.33a1,1,0,0,0,.36-1.4L284.34,153s-1.65-2.38-5-.95a4.72,4.72,0,0,0-2.63,4.32,7.88,7.88,0,0,0,1.46,3.09l.58,1a1,1,0,0,0,1.39.37"/><path class="cls-3" d="M306,142l7.56-1.11a1.16,1.16,0,0,0,1-1.34l-.69-4.13s-.75-3.24-5-3.15a5.46,5.46,0,0,0-4.65,3.49,9.07,9.07,0,0,0,.25,3.93l.18,1.32a1.17,1.17,0,0,0,1.33,1"/><path class="cls-3" d="M329.5,142.43l5.35-.78a.82.82,0,0,0,.69-1l-.49-2.91s-.52-2.29-3.51-2.23a3.83,3.83,0,0,0-3.28,2.47,6.37,6.37,0,0,0,.17,2.77l.13.94a.83.83,0,0,0,.94.7"/><path class="cls-3" d="M369.32,158.76l4.37,1.76a.72.72,0,0,0,.94-.41l.92-2.41a2.82,2.82,0,0,0-1.66-3.22,3.38,3.38,0,0,0-3.56.41,5.71,5.71,0,0,0-1.09,2.17l-.31.76a.72.72,0,0,0,.39.94"/><path class="cls-3" d="M275.74,220.2l3-4.19c.25-.36,0-.94-.63-1.29l-3.83-2.24s-3.12-1.67-5.23.34c0,0-1.65,1.76.54,4.32a14.46,14.46,0,0,0,3.43,2.32l1.22.74c.58.36,1.26.36,1.51,0"/><path class="cls-5" d="M430.37,204.38c-5.63-.25-11-2.59-15.69-5.69s-8.86-6.94-13.15-10.58c-8-6.78-16.33-13.89-26.32-17.06-19.8-6.28-26.26-25.45-40.8-38.5a5.15,5.15,0,0,0-5.8-.65c-1.68,1-2.13,3.33-1.57,5.2a14.26,14.26,0,0,0,3.12,4.89A131.71,131.71,0,0,1,346,165.73c1.15,2.2,2.14,5.14.42,6.93-1.9,2-5.17.66-7.55-.7a186.42,186.42,0,0,0-41.45-17.38,14.35,14.35,0,0,0-5.42-.78,4.57,4.57,0,0,0-2.91,8.14,15.29,15.29,0,0,0,4.78,3l32.52,15c2.93,1.35,6.36,3.59,5.88,6.78L284.2,170.79c-3.68-1.22-8.4-2.16-10.86.82-2,2.43-1.1,6.27,1.08,8.52s5.29,3.28,8.27,4.25l39.54,12.79c1.53.5,3.37,1.39,3.36,3s-1.61,2.39-3,2.86c-13.26,4.53-27.79-.62-41.78.26a14,14,0,0,0-5.5,1.23,5.81,5.81,0,0,0-3.31,4.33c-.27,2.44,1.58,4.72,3.81,5.76s4.77,1.12,7.23,1.2c17.24.58,34.5,3.74,51.64,5.73a15.93,15.93,0,0,1,10.62,6c.91,1.18,1.69,2.68,1.32,4.13a4,4,0,0,1-2.52,2.6,14.64,14.64,0,0,1-3.66.77,46.41,46.41,0,0,0-19.53,7.44c-3,2-5.87,4.6-6.54,8.11a4.5,4.5,0,0,0,1.11,4.27c1.76,1.53,4.45.63,6.62-.23a68.65,68.65,0,0,1,24-4.83c6.57-.13,13.29.67,19.62-1.12,9.74-2.76,16.92-11.2,26.38-14.83a220.89,220.89,0,0,1,36.32,17.7q7.24-21.88,14.47-43.76c-4-1.18-8.38-3.23-12.52-3.41"/><path class="cls-6" d="M281.54,213.3l.59-6.64a1,1,0,0,0-.94-1.09l-3.64-.25s-2.89,0-3.67,3.56a4.73,4.73,0,0,0,2,4.64,7.91,7.91,0,0,0,3.37.59l1.16.11a1,1,0,0,0,1.11-.92"/><path class="cls-3" d="M281,181.24l3.44-6.82a1.17,1.17,0,0,0-.54-1.58l-3.77-1.8s-3.08-1.26-5.43,2.24a5.46,5.46,0,0,0,.18,5.81,9.16,9.16,0,0,0,3.35,2l1.2.61a1.16,1.16,0,0,0,1.57-.51"/><path class="cls-3" d="M294.84,162.27l2.44-4.83a.82.82,0,0,0-.38-1.11l-2.67-1.28a3.24,3.24,0,0,0-3.84,1.59,3.85,3.85,0,0,0,.13,4.11,6.51,6.51,0,0,0,2.37,1.46l.84.43a.82.82,0,0,0,1.11-.37"/><path class="cls-3" d="M331.11,139.08l3.95-2.56a.71.71,0,0,0,.2-1l-1.44-2.14a2.82,2.82,0,0,0-3.59-.49,3.37,3.37,0,0,0-1.71,3.15,5.62,5.62,0,0,0,1.14,2.13l.45.7a.72.72,0,0,0,1,.21"/><path class="cls-6" d="M327.55,251l-1.71-4.85c-.15-.42-.79-.52-1.42-.24l-4,1.85s-3.15,1.59-2.72,4.47c0,0,.49,2.37,3.84,2a14.92,14.92,0,0,0,3.87-1.47l1.31-.57c.62-.28,1-.83.87-1.24"/><path class="cls-2" d="M418,113.29c-3.61,4.32-8.73,7.16-14,9s-10.89,2.83-16.39,4c-10.23,2.25-21,4.57-29.52,10.59-17,11.93-36.16,5.45-55.36,9.1a5.14,5.14,0,0,0-4,4.22c-.22,1.94,1.36,3.71,3.18,4.4a14.21,14.21,0,0,0,5.78.48,132.07,132.07,0,0,1,28.5,1.78c2.44.43,5.39,1.42,5.76,3.87.41,2.7-2.61,4.51-5.12,5.58a187,187,0,0,0-39,22.42,14.58,14.58,0,0,0-3.91,3.84,4.58,4.58,0,0,0,4.71,7.25,15.3,15.3,0,0,0,5.27-2l31.67-16.75c2.85-1.51,6.71-2.88,8.95-.57l-41.83,28.59c-3.19,2.18-6.81,5.36-5.92,9.13.72,3,4.31,4.68,7.42,4.3s5.82-2.21,8.39-4l34.15-23.68c1.32-.92,3.14-1.84,4.42-.86s.92,2.73.45,4.13c-4.44,13.3-17.34,21.72-25.12,33.38a14,14,0,0,0-2.36,5.12,5.85,5.85,0,0,0,1.43,5.26c1.78,1.7,4.72,1.6,6.9.46s3.78-3.11,5.34-5c10.92-13.36,23.89-25.17,35.86-37.59A15.94,15.94,0,0,1,384.8,195a5.08,5.08,0,0,1,4.09,1.45,4.1,4.1,0,0,1,.54,3.58,14.62,14.62,0,0,1-1.61,3.39,46.34,46.34,0,0,0-5.93,20c-.21,3.56.11,7.46,2.49,10.12a4.49,4.49,0,0,0,4.07,1.71c2.28-.47,3.2-3.16,3.83-5.41a68.67,68.67,0,0,1,10.71-22c3.89-5.31,8.6-10.17,11-16.28,3.71-9.42,1.36-20.25,4.2-30a221.62,221.62,0,0,1,36.09-18.15l-26-38c-3.35,2.44-7.65,4.7-10.3,7.89"/><path class="cls-3" d="M334.82,237.05l-4.91-4.48a1,1,0,0,0-1.45.08l-2.4,2.73s-1.77,2.29.61,5.09a4.73,4.73,0,0,0,4.91,1.2,7.83,7.83,0,0,0,2.51-2.32l.79-.86a1,1,0,0,0-.06-1.44"/><path class="cls-3" d="M309,218.08l-3.34-6.87a1.16,1.16,0,0,0-1.58-.53l-3.72,1.9s-2.87,1.69-1.51,5.68a5.43,5.43,0,0,0,4.73,3.37,9,9,0,0,0,3.66-1.41l1.21-.58a1.16,1.16,0,0,0,.55-1.56"/><path class="cls-3" d="M302.31,195.54,300,190.67a.83.83,0,0,0-1.12-.37l-2.63,1.35s-2,1.19-1.07,4a3.86,3.86,0,0,0,3.35,2.38,6.4,6.4,0,0,0,2.59-1l.86-.41a.82.82,0,0,0,.38-1.1"/><path class="cls-3" d="M305.86,152.64l.35-4.69a.71.71,0,0,0-.67-.78L303,147a2.82,2.82,0,0,0-2.57,2.55,3.37,3.37,0,0,0,1.47,3.27,5.68,5.68,0,0,0,2.39.39l.82.06a.72.72,0,0,0,.78-.66"/><path class="cls-7" d="M392.68,223.31l-4.89-1.58c-.42-.14-.89.31-1,1l-1,4.34s-.65,3.47,1.9,4.87c0,0,2.18,1.05,3.95-1.81a14.41,14.41,0,0,0,1.18-4l.34-1.37c.16-.67,0-1.32-.46-1.45"/><path class="cls-8" d="M309.61,85.56c1.61,5.4,1.15,11.23-.24,16.69s-3.65,10.64-5.69,15.89c-3.78,9.77-7.78,20-7.5,30.45.55,20.76-15.45,33.15-23,51.16a5.14,5.14,0,0,0,1.28,5.69c1.49,1.26,3.84.92,5.43-.21a14.47,14.47,0,0,0,3.59-4.56,132.61,132.61,0,0,1,17.24-22.75c1.71-1.81,4.16-3.71,6.41-2.67,2.48,1.15,2.32,4.67,1.82,7.36a186.33,186.33,0,0,0-2.86,44.86,14.18,14.18,0,0,0,1,5.37,5.1,5.1,0,0,0,4.2,3.12,5.17,5.17,0,0,0,4.44-3,15.07,15.07,0,0,0,1.25-5.49q1.78-17.83,3.56-35.65c.32-3.21,1.31-7.19,4.48-7.78q.34,25.34.68,50.66c.06,3.87.71,8.64,4.34,10,2.93,1.09,6.28-1,7.69-3.8s1.37-6.08,1.31-9.21q-.44-20.78-.86-41.54c0-1.62.21-3.64,1.74-4.16s2.78.73,3.69,1.9c8.62,11.05,8.5,26.46,13.92,39.39a13.9,13.9,0,0,0,3,4.8,5.85,5.85,0,0,0,5.17,1.71c2.4-.54,3.95-3,4.2-5.49s-.51-4.87-1.23-7.22c-5.1-16.49-7.76-33.83-11.49-50.67a15.92,15.92,0,0,1,2.19-12c.82-1.26,2-2.48,3.47-2.61a4.08,4.08,0,0,1,3.28,1.53,14.64,14.64,0,0,1,1.93,3.21,46.48,46.48,0,0,0,13.42,16c2.85,2.15,6.27,4,9.8,3.52a4.5,4.5,0,0,0,3.68-2.45c.87-2.16-.87-4.41-2.39-6.18a68.83,68.83,0,0,1-12.43-21.1c-2.27-6.17-3.71-12.78-7.48-18.18-5.79-8.3-16.12-12.32-22.64-20.07A220.66,220.66,0,0,1,354.82,72l-46.09.65c.19,4.14-.3,9,.88,13"/><path class="cls-3" d="M366.76,223.27l-6.46,1.62a1,1,0,0,0-.73,1.25l.95,3.51s.93,2.74,4.58,2.3a4.73,4.73,0,0,0,3.72-3.42,7.86,7.86,0,0,0-.55-3.38L368,224a1,1,0,0,0-1.23-.75"/><path class="cls-3" d="M336.66,234.32l-7.57-1a1.17,1.17,0,0,0-1.32,1l-.47,4.15s-.17,3.32,3.9,4.4a5.44,5.44,0,0,0,5.42-2.07,9.08,9.08,0,0,0,.85-3.84l.19-1.33a1.16,1.16,0,0,0-1-1.31"/><path class="cls-3" d="M314.19,227.4l-5.36-.71a.82.82,0,0,0-.93.72l-.33,2.94s-.12,2.34,2.76,3.11a3.84,3.84,0,0,0,3.84-1.47,6.47,6.47,0,0,0,.6-2.72l.13-.94a.84.84,0,0,0-.71-.93"/><path class="cls-3" d="M280.41,200.73l-3.71-2.9a.73.73,0,0,0-1,.14L274.14,200a2.81,2.81,0,0,0,.71,3.55,3.35,3.35,0,0,0,3.53.58,5.59,5.59,0,0,0,1.64-1.78l.51-.65a.72.72,0,0,0-.12-1"/><path class="cls-3" d="M387.3,167.46l-4,3.21c-.35.27-.24.91.25,1.41l3.06,3.21s2.54,2.46,5.12,1.11c0,0,2.07-1.24.67-4.3a14.78,14.78,0,0,0-2.65-3.18l-1-1c-.46-.5-1.12-.69-1.46-.42"/><path class="cls-9" d="M243.41,143.74c5.29,1.94,9.68,5.8,13.22,10.18S263,163.23,266,168c5.56,8.88,11.34,18.19,19.89,24.24,17,12,17.29,32.23,27.18,49.08a5.15,5.15,0,0,0,5.33,2.38c1.89-.45,3-2.52,3.07-4.48a14.32,14.32,0,0,0-1.49-5.6A131.66,131.66,0,0,1,312,206.19c-.43-2.44-.48-5.55,1.7-6.73,2.41-1.29,5.13.95,7,3a186.82,186.82,0,0,0,34.21,29.15,14.15,14.15,0,0,0,4.92,2.39,5.11,5.11,0,0,0,5-1.49,5.17,5.17,0,0,0,.23-5.37,15.11,15.11,0,0,0-3.64-4.3L335,198.6c-2.38-2.18-5-5.36-3.55-8.24l41,29.79c3.13,2.28,7.34,4.62,10.59,2.51,2.63-1.7,3-5.63,1.56-8.43s-4-4.74-6.58-6.56l-33.78-24.2c-1.31-.94-2.79-2.35-2.3-3.88s2.26-1.79,3.74-1.82c14-.29,26.28,9,39.88,12.45a14.11,14.11,0,0,0,5.62.5,5.85,5.85,0,0,0,4.47-3.11c1-2.25-.08-5-1.88-6.66s-4.21-2.51-6.53-3.34c-16.25-5.79-31.73-14-47.45-21.15a15.86,15.86,0,0,1-8.3-8.93,5.09,5.09,0,0,1,0-4.35,4.12,4.12,0,0,1,3.19-1.71,14.61,14.61,0,0,1,3.72.38,46.32,46.32,0,0,0,20.87-1.15c3.42-1,7-2.61,8.69-5.74a4.52,4.52,0,0,0,.25-4.41c-1.22-2-4.06-2-6.39-1.79a68.62,68.62,0,0,1-24.34-2.69c-6.3-1.87-12.46-4.68-19-4.89-10.12-.33-19.53,5.52-29.64,6.11a222.26,222.26,0,0,1-29.23-27.9l-27.08,37.3c3.43,2.33,7,5.62,10.89,7.05"/><path class="cls-10" d="M387.92,180.46l-2.57,6.14a1,1,0,0,0,.56,1.34l3.39,1.34s2.75.9,4.57-2.29a4.72,4.72,0,0,0-.51-5,7.93,7.93,0,0,0-3-1.58l-1.08-.46a1,1,0,0,0-1.33.54"/><path class="cls-10" d="M378.73,211.18l-5.35,5.46a1.16,1.16,0,0,0,0,1.66l3,2.87s2.55,2.13,5.85-.5a5.42,5.42,0,0,0,1.59-5.58,9,9,0,0,0-2.56-3l-.95-.94a1.18,1.18,0,0,0-1.66,0"/><path class="cls-10" d="M359.74,225,356,228.89a.82.82,0,0,0,0,1.18l2.15,2s1.81,1.5,4.15-.35a3.84,3.84,0,0,0,1.12-3.95,6.44,6.44,0,0,0-1.82-2.11l-.67-.67a.83.83,0,0,0-1.17,0"/><path class="cls-10" d="M318.15,236.11l-4.55,1.24a.71.71,0,0,0-.49.89l.72,2.47a2.82,2.82,0,0,0,3.27,1.56,3.34,3.34,0,0,0,2.58-2.48,5.55,5.55,0,0,0-.43-2.38l-.22-.8a.71.71,0,0,0-.88-.5"/><path class="cls-10" d="M355.53,130.58l.16,5.15c0,.44.59.73,1.28.65l4.41-.54s3.49-.55,3.95-3.43c0,0,.25-2.4-3-3.11a14.7,14.7,0,0,0-4.14.22l-1.42.15c-.68.07-1.22.48-1.21.91"/><path class="cls-11" d="M255.23,199.13c5.41-1.57,11.24-1.07,16.69.36s10.62,3.73,15.86,5.8c9.74,3.85,19.91,7.91,30.39,7.71,20.76-.4,33,15.68,51,23.37a5.17,5.17,0,0,0,5.71-1.24c1.26-1.49.94-3.83-.19-5.43a14.39,14.39,0,0,0-4.53-3.63,131.67,131.67,0,0,1-22.63-17.39c-1.79-1.72-3.68-4.19-2.62-6.43,1.16-2.47,4.68-2.28,7.37-1.76a186.74,186.74,0,0,0,44.84,3.16,14.24,14.24,0,0,0,5.38-1,4.58,4.58,0,0,0,.15-8.64,15.11,15.11,0,0,0-5.49-1.29l-35.63-3.81c-3.2-.34-7.17-1.36-7.74-4.53l50.66-.33c3.88,0,8.65-.65,10-4.27,1.11-2.93-1-6.29-3.75-7.71s-6.06-1.42-9.19-1.38l-41.56.57c-1.61,0-3.63-.23-4.14-1.76s.76-2.77,1.93-3.68c11.11-8.55,26.52-8.32,39.48-13.65a14,14,0,0,0,4.82-2.92,5.87,5.87,0,0,0,1.75-5.17c-.53-2.4-3-4-5.46-4.23s-4.88.47-7.24,1.18c-16.51,5-33.87,7.53-50.74,11.14a16,16,0,0,1-12-2.27,5.07,5.07,0,0,1-2.58-3.49,4.09,4.09,0,0,1,1.55-3.27,14.48,14.48,0,0,1,3.22-1.91,46.36,46.36,0,0,0,16.12-13.31c2.16-2.83,4.07-6.24,3.59-9.77a4.51,4.51,0,0,0-2.43-3.7c-2.16-.88-4.42.84-6.19,2.35a69.2,69.2,0,0,1-21.19,12.28c-6.18,2.23-12.81,3.63-18.22,7.35-8.35,5.74-12.44,16-20.23,22.51a220.7,220.7,0,0,1-40.09-5.11q.18,23,.34,46.09c4.15-.16,9,.37,12.95-.79"/><path class="cls-3" d="M393.34,142.93l1.57,6.47a1,1,0,0,0,1.24.74l3.52-.93s2.75-.91,2.33-4.55a4.73,4.73,0,0,0-3.39-3.75,7.83,7.83,0,0,0-3.39.53l-1.13.27a1,1,0,0,0-.75,1.22"/><path class="cls-3" d="M404.17,173.11l-1.07,7.56a1.16,1.16,0,0,0,1,1.32l4.15.5s3.32.2,4.42-3.86a5.45,5.45,0,0,0-2-5.44,9,9,0,0,0-3.83-.88l-1.32-.19a1.17,1.17,0,0,0-1.33,1"/><path class="cls-3" d="M397.11,195.53l-.76,5.35a.84.84,0,0,0,.72.94l2.94.35s2.34.14,3.12-2.74a3.84,3.84,0,0,0-1.44-3.85A6.54,6.54,0,0,0,399,195l-.94-.13a.82.82,0,0,0-.93.7"/><path class="cls-3" d="M370.2,229.13l-2.92,3.69a.72.72,0,0,0,.13,1l2,1.55a2.82,2.82,0,0,0,3.56-.68,3.38,3.38,0,0,0,.61-3.53,5.69,5.69,0,0,0-1.77-1.65l-.65-.52a.71.71,0,0,0-1,.12"/><path class="cls-3" d="M337.67,122l3.18,4c.27.35.91.24,1.41-.23l3.23-3s2.48-2.52,1.15-5.11c0,0-1.22-2.08-4.29-.7a14.56,14.56,0,0,0-3.2,2.63l-1,1c-.51.46-.7,1.12-.43,1.46"/><path class="cls-1" d="M176.74,90.4A178.28,178.28,0,0,0,157,141.91c28.72,2.12,56.19,3.92,78.46,5C223.91,135.12,203.05,114.45,176.74,90.4Z"/><path class="cls-12" d="M298.22,266.18C282.78,253,274.5,243.32,270.09,237c-4.31-6.15-4.93-9.14-4.93-9.14-14.58,15-41.18,39.36-71,65.9a180.16,180.16,0,0,0,39.66,35.57c41.19-34,72.5-56.44,72.5-56.44Q302,269.4,298.22,266.18Z"/><path class="cls-13" d="M369.62,269.31c-19.07,7-31.55,9.48-39.21,10.24-7.48.73-10.39-.18-10.39-.18,5.17,17.48,12.08,46.43,19.42,79.39a178.69,178.69,0,0,0,52.36-9.89c-8.54-48.67-12.37-83.34-12.37-83.34C376,266.92,372.71,268.17,369.62,269.31Z"/><path class="cls-14" d="M421.71,202.42c-5.25,19.63-10.38,31.26-14.18,38-3.69,6.54-6.11,8.39-6.11,8.39,17.94,6.05,47.08,17.67,79.75,31.28a178.48,178.48,0,0,0,22.95-47.9c-47.2-22-79.85-39.94-79.85-39.94Q423,197.65,421.71,202.42Z"/><path class="cls-15" d="M411.16,119c12.42,16.07,18.56,27.21,21.6,34.29,2.95,6.9,3,9.95,3,9.95,14.61-9.87,38.95-24.53,67-40.82a178.71,178.71,0,0,0-24.37-47.56c-42.78,22.23-73.72,35.92-73.72,35.92C407,113.64,409.14,116.38,411.16,119Z"/><path class="cls-16" d="M310.6,94.39c20.26-1.47,32.94-.43,40.51,1,7.39,1.35,9.93,3,9.93,3-.17-20.66,1.57-56.09,4.06-95.38a177.28,177.28,0,0,0-52.81-1.83c-5.43,54.75-12.17,94.14-12.17,94.14Q305.67,94.74,310.6,94.39Z"/><path class="cls-17" d="M235.49,146.86c5.71.26,11.11.48,16.07.63,10.72-16.61,19-26,24.55-31.12s8.38-6.14,8.38-6.14c-16.85-12.38-44.65-35.41-75-61.32A180.45,180.45,0,0,0,176.74,90.4C203.05,114.45,223.91,135.12,235.49,146.86Z"/><path class="cls-18" d="M264.07,198.21c-1.33-20.27-.2-32.94,1.24-40.51,1.4-7.38,3.1-9.91,3.1-9.91-4.85,0-10.52-.1-16.85-.3l-.49.75q-2.67,4.15-5.53,8.94s-3.59-3.78-10-10.32c-22.27-1-49.74-2.83-78.46-5a180.14,180.14,0,0,0-4,37.56c0,4.95.25,9.83.65,14.68,63.44,6,111.21,14.54,111.21,14.54Q264.38,203.14,264.07,198.21Z"/><path class="cls-18" d="M245.54,157.18q2.86-4.78,5.53-8.94l.49-.75c-5-.15-10.36-.37-16.07-.63C242,153.4,245.54,157.18,245.54,157.18Z"/><path class="cls-19" d="M21.7,244c0-16.45,11.66-27.08,28.34-27.08,18.29,0,29.26,11.88,29.26,36.91,0,29.14-11.43,43.09-31,43.09-10.29,0-18.06-2.29-24-5.26l4.23-14.51c3.43,2.05,10.85,5.25,17.71,5.25,8.12,0,14.06-4.11,15.2-17.71a20,20,0,0,1-14.4,5.94C33.13,270.65,21.7,261.62,21.7,244ZM40,243.45c0,9,4.45,12.23,11.19,12.23A23.28,23.28,0,0,0,62,252.48c0-12.8-2.51-21.6-11.77-21.6C43.64,230.88,40,235.45,40,243.45Z"/><path class="cls-20" d="M15.37,336.61v-1h9.75v1.5c0,10.5-8.73,10.7-8.73,17.52,0,2.52,1.78,4.49,5.18,4.49a23.06,23.06,0,0,0,8.11-1.7l2.66,8.38a30.73,30.73,0,0,1-12.81,2.59c-8.45,0-14.58-4.57-14.58-12.2C5,345.81,15.37,343.22,15.37,336.61Zm10.16-4.77H15V321.41H25.53Z"/><path class="cls-20" d="M64.09,353.78a127.88,127.88,0,0,0,14.17.48v10.42a30.19,30.19,0,0,1-21.6-9.2c-16.15,0-20.24-11.72-20.24-24.05,0-12,4-23.3,20.24-23.3,16.56,0,20.44,11.17,20.44,23.3C77.1,339.81,72.26,349.83,64.09,353.78Zm-7.43-36.39c-7.15,0-8.86,6.14-8.86,14,0,8.72,1.84,15.06,8.86,15.06s9-6.27,9-15.06C65.66,323.39,63.81,317.39,56.66,317.39Z"/><path class="cls-20" d="M120.64,337.22c0,9.61-5.45,18.26-18.19,18.26s-18.2-8.31-18.2-18.26V308.81H95v27.87c0,5.79,2.66,9.67,7.43,9.67s7.29-4,7.29-9.67V308.81h10.9Z"/><path class="cls-20" d="M130.17,354.8v-46h10.77v46Z"/><path class="cls-20" d="M150.48,354.8v-46h29.7v9.06H161.24v9.06h14.17l-.68,9.47H161.24v9.41h18.94v9Zm5.31-48.51-.89-6.14,20-2.72-.14,7.9Z"/><path class="cls-20" d="M208.66,354.8l-12.47-35.91h-.27l1,35.91h-9.61v-46h16.56L216.7,345.6H217l-1-36.79h9.81v46Z"/><path class="cls-20" d="M234.62,354.8v-46h29.7v9.06H245.38v9.06h14.17l-.68,9.47H245.38v9.41h18.94v9Z"/><path class="cls-20" d="M298.25,319.85a23,23,0,0,0-10.56-2.39c-4.16,0-5.86,1.57-5.86,3.61,0,7,20.78,4.09,20.78,19.83,0,7.5-6.47,14.58-17.37,14.58a25.65,25.65,0,0,1-15.47-5l4-8.18a19.51,19.51,0,0,0,11.52,4.16c3.74,0,6.06-2,6.06-4.77,0-8.52-20.64-3.75-20.64-20.44,0-7.22,5.72-13.08,17.1-13.08a30.74,30.74,0,0,1,14,3.06Z"/><path class="cls-20" d="M323.67,339.61v.95h-9.75v-1.5c0-10.49,8.72-10.7,8.72-17.51,0-2.52-1.77-4.5-5.18-4.5a22.85,22.85,0,0,0-8.1,1.71l-2.66-8.38a30.73,30.73,0,0,1,12.81-2.59c8.45,0,14.58,4.56,14.58,12.19C334.09,330.41,323.67,333,323.67,339.61Zm-10.16,4.77h10.56V354.8H313.51Z"/><path class="cls-21" d="M3.35,419.3V425H.54V400.28H2.69l.44,2.11a7.17,7.17,0,0,1,5.2-2.47c4.54,0,6.8,3.23,6.8,9.23,0,6.3-3.13,9.32-7.38,9.32a6.3,6.3,0,0,1-4.81-2A16.1,16.1,0,0,1,3.35,419.3Zm0-4.84a5.94,5.94,0,0,0,4.21,1.93c3.24,0,4.77-2.11,4.77-7.24,0-4.69-1.35-7.09-4.58-7.09a6.34,6.34,0,0,0-4.4,2.08Z"/><path class="cls-21" d="M21.53,410c0,4.4,2.26,6.33,5.64,6.33a11.11,11.11,0,0,0,5.53-1.78l.69,2a12.77,12.77,0,0,1-6.51,2c-4.87,0-8.11-3.24-8.11-9.39,0-5.64,2.76-9.16,7.64-9.16s7.12,4,7.12,8.51V410Zm4.77-8c-3.38,0-4.77,3-4.77,6h9.31C30.84,405,29.79,402,26.3,402Z"/><path class="cls-21" d="M46.81,402.68a7.18,7.18,0,0,0-2.29-.33,5.72,5.72,0,0,0-4,1.93V418.1H37.76V400.28h1.85l.51,2.26A5.89,5.89,0,0,1,44.74,400a7.79,7.79,0,0,1,2.25.29Z"/><path class="cls-21" d="M52.12,404.65c0,3.81,8.84,2.47,8.84,8.51,0,2.87-2.22,5.31-6.18,5.31a10.71,10.71,0,0,1-5.38-1.53l.8-2a8.31,8.31,0,0,0,4.54,1.49c2.19,0,3.53-1.2,3.53-3.05,0-4.3-8.73-2.69-8.73-8.73,0-2.4,1.82-4.69,5.89-4.69a11.54,11.54,0,0,1,5.35,1.16l-.65,2A9.58,9.58,0,0,0,55.47,402C53.22,402,52.12,403,52.12,404.65Z"/><path class="cls-21" d="M79.69,409.15c0,6-2.9,9.32-7.67,9.32s-7.6-3.24-7.6-9.32c0-5.23,2.47-9.23,7.6-9.23C77,399.92,79.69,403.85,79.69,409.15Zm-2.83,0c0-4.65-1.57-7.16-4.84-7.16s-4.8,2.62-4.8,7.16c0,4.37,1.27,7.24,4.8,7.24S76.86,413.92,76.86,409.15Z"/><path class="cls-21" d="M95.08,418.1V407.34c0-3.39-1-5.24-4.07-5.24a6.56,6.56,0,0,0-4.37,2v14H83.88V400.28h1.85l.55,2.11a7.78,7.78,0,0,1,5.6-2.47c4.18,0,6,2.51,6,6.94V418.1Z"/><path class="cls-21" d="M113.38,418.1l-.48-2.29a7,7,0,0,1-5.49,2.66c-3.63,0-5.74-2.44-5.74-5.46s2.25-5.09,6.29-5.09h4.62V406.5c0-3.09-1.35-4.4-4-4.4a13.19,13.19,0,0,0-5.38,1.16l-.73-2a15.7,15.7,0,0,1,6.47-1.34c4.22,0,6.37,2.18,6.37,6.43V418.1Zm-.8-8.29H108.4c-3,0-4,1.31-4,3.09,0,2.15,1.16,3.56,3.74,3.56a6.28,6.28,0,0,0,4.48-2.21Z"/><path class="cls-21" d="M122,404.65c0,3.81,8.83,2.47,8.83,8.51,0,2.87-2.22,5.31-6.18,5.31a10.74,10.74,0,0,1-5.38-1.53l.8-2a8.31,8.31,0,0,0,4.54,1.49c2.19,0,3.53-1.2,3.53-3.05,0-4.3-8.73-2.69-8.73-8.73,0-2.4,1.82-4.69,5.9-4.69a11.52,11.52,0,0,1,5.34,1.16l-.65,2a9.58,9.58,0,0,0-4.66-1.09C123.13,402,122,403,122,404.65Z"/><path class="cls-21" d="M170.38,418l-1.82.15-5.71-17.86h3.06s3.34,10.84,4.87,16.18c1.56-5.38,4.83-16.18,4.83-16.18h2.84l-5.71,17.64c-1.85,5.67-3.71,7.49-7.13,7.49a7.12,7.12,0,0,1-4-1.42l.91-1.85h.22a5.17,5.17,0,0,0,3,1.13c2.07,0,3.27-1.24,4.4-4.62Z"/><path class="cls-21" d="M180.82,419.74h-1.67L188,392.17h1.67Z"/><path class="cls-21" d="M206.93,409.15c0,6-2.91,9.32-7.67,9.32s-7.6-3.24-7.6-9.32c0-5.23,2.47-9.23,7.6-9.23C204.21,399.92,206.93,403.85,206.93,409.15Zm-2.83,0c0-4.65-1.57-7.16-4.84-7.16s-4.8,2.62-4.8,7.16c0,4.37,1.27,7.24,4.8,7.24S204.1,413.92,204.1,409.15Z"/><path class="cls-21" d="M241.82,418.1V402.5l-2-.4v-1.82h4.65V418.1Zm-.26-24.84h2.95v2.91h-2.95Z"/><path class="cls-21" d="M260.55,418.1V407.34c0-3.39-1.06-5.24-4.07-5.24a6.56,6.56,0,0,0-4.37,2v14h-2.76V400.28h1.85l.55,2.11a7.78,7.78,0,0,1,5.6-2.47c4.18,0,6,2.51,6,6.94V418.1Z"/><path class="cls-21" d="M269.86,404.65c0,3.81,8.84,2.47,8.84,8.51,0,2.87-2.22,5.31-6.18,5.31a10.71,10.71,0,0,1-5.38-1.53l.8-2a8.31,8.31,0,0,0,4.54,1.49c2.18,0,3.53-1.2,3.53-3.05,0-4.3-8.73-2.69-8.73-8.73,0-2.4,1.82-4.69,5.89-4.69a11.59,11.59,0,0,1,5.35,1.16l-.66,2a9.51,9.51,0,0,0-4.65-1.09C271,402,269.86,403,269.86,404.65Z"/><path class="cls-21" d="M288.78,418.47c-2.51,0-4.59-1.28-4.59-5.46V402.28H281.5v-2h2.69V397l2.77-.87v4.11h5.2v2H287v11.06c0,1.89.69,2.8,2.36,2.8a7.69,7.69,0,0,0,2.84-.77l.55,2A8.79,8.79,0,0,1,288.78,418.47Z"/><path class="cls-21" d="M297.73,418.1V402.5l-2-.4v-1.82h4.66V418.1Zm-.26-24.84h2.95v2.91h-2.95Z"/><path class="cls-21" d="M311.26,418.47c-2.51,0-4.59-1.28-4.59-5.46V402.28H304v-2h2.69V397l2.77-.87v4.11h5.2v2h-5.2v11.06c0,1.89.69,2.8,2.36,2.8a7.69,7.69,0,0,0,2.84-.77l.54,2A8.71,8.71,0,0,1,311.26,418.47Z"/><path class="cls-21" d="M330.64,418.1l-.4-2a7.54,7.54,0,0,1-5.53,2.41c-4,0-6.14-2.37-6.14-7.24v-11h2.76v10.77c0,3.67,1.17,5.2,4,5.2a7,7,0,0,0,4.4-1.75V400.28h2.8V418.1Z"/><path class="cls-21" d="M350.32,416.9a12.67,12.67,0,0,1-5.93,1.57c-4.51,0-7.78-2.66-7.78-9.28,0-6,3.31-9.27,7.78-9.27a11.51,11.51,0,0,1,5.82,1.41l-.8,2a9.67,9.67,0,0,0-4.87-1.17c-3.2,0-5.17,2.55-5.17,7.06,0,5,2,7.13,5.17,7.13a10.13,10.13,0,0,0,5.13-1.49Z"/><path class="cls-21" d="M355.38,418.1V402.5l-2-.4v-1.82h4.65V418.1Zm-.26-24.84h2.95v2.91h-2.95Z"/><path class="cls-21" d="M377.56,409.15c0,6-2.91,9.32-7.67,9.32s-7.6-3.24-7.6-9.32c0-5.23,2.47-9.23,7.6-9.23C374.84,399.92,377.56,403.85,377.56,409.15Zm-2.83,0c0-4.65-1.57-7.16-4.84-7.16s-4.8,2.62-4.8,7.16c0,4.37,1.27,7.24,4.8,7.24S374.73,413.92,374.73,409.15Z"/><path class="cls-21" d="M393,418.1V407.34c0-3.39-1.05-5.24-4.07-5.24a6.58,6.58,0,0,0-4.37,2v14h-2.76V400.28h1.86l.54,2.11a7.78,7.78,0,0,1,5.6-2.47c4.18,0,6,2.51,6,6.94V418.1Z"/><path class="cls-21" d="M402.41,410c0,4.4,2.26,6.33,5.64,6.33a11.11,11.11,0,0,0,5.53-1.78l.69,2a12.8,12.8,0,0,1-6.51,2c-4.88,0-8.11-3.24-8.11-9.39,0-5.64,2.76-9.16,7.63-9.16,5,0,7.13,4,7.13,8.51V410Zm4.77-8c-3.39,0-4.77,3-4.77,6h9.31C411.72,405,410.67,402,407.18,402Z"/><path class="cls-21" d="M420.67,404.65c0,3.81,8.84,2.47,8.84,8.51,0,2.87-2.22,5.31-6.18,5.31a10.78,10.78,0,0,1-5.39-1.53l.8-2a8.35,8.35,0,0,0,4.55,1.49c2.18,0,3.53-1.2,3.53-3.05,0-4.3-8.73-2.69-8.73-8.73,0-2.4,1.82-4.69,5.89-4.69a11.59,11.59,0,0,1,5.35,1.16l-.66,2A9.54,9.54,0,0,0,424,402C421.76,402,420.67,403,420.67,404.65Z"/><path class="cls-21" d="M12.07,456.19v-6.95a15.08,15.08,0,0,1,.26-2.11,6.86,6.86,0,0,1-5.17,2.51C3,449.64,0,446.48,0,440.33c0-5.42,2.69-9.23,7.45-9.23a8.84,8.84,0,0,1,5.13,1.67l.51-1.31h1.75v24.73Zm0-21.64a7,7,0,0,0-4.29-1.34c-3.34,0-5,2.61-5,7.12s1.42,7.24,4.76,7.24a6,6,0,0,0,4.51-2.26Z"/><path class="cls-21" d="M31.5,449.28l-.4-2a7.61,7.61,0,0,1-5.53,2.4c-4,0-6.15-2.36-6.15-7.23v-11h2.77v10.76c0,3.68,1.16,5.2,4,5.2a7,7,0,0,0,4.4-1.74V431.46h2.8v17.82Z"/><path class="cls-21" d="M40.19,441.17c0,4.4,2.26,6.33,5.64,6.33a11,11,0,0,0,5.52-1.78l.7,2a12.77,12.77,0,0,1-6.51,2c-4.88,0-8.11-3.23-8.11-9.38,0-5.64,2.76-9.16,7.63-9.16s7.13,4,7.13,8.51v1.56Zm4.76-8c-3.38,0-4.76,3-4.76,6H49.5C49.5,436.15,48.45,433.21,45,433.21Z"/><path class="cls-21" d="M75,449.28v-15.6l-2-.4v-1.82h4.65v17.82Zm-.25-24.84h2.94v2.91H74.75Z"/><path class="cls-21" d="M93.73,449.28V438.51c0-3.38-1-5.23-4.07-5.23a6.57,6.57,0,0,0-4.36,2v14H82.53V431.46h1.86l.54,2.11a7.78,7.78,0,0,1,5.6-2.47c4.19,0,6,2.5,6,6.94v11.24Z"/><path class="cls-21" d="M107,449.64c-2.51,0-4.58-1.27-4.58-5.45V433.46H99.74v-2h2.69v-3.24l2.76-.87v4.11h5.2v2h-5.2v11.05c0,1.9.69,2.81,2.37,2.81a7.69,7.69,0,0,0,2.83-.77l.55,2A8.8,8.8,0,0,1,107,449.64Z"/><path class="cls-21" d="M116.72,441.17c0,4.4,2.26,6.33,5.64,6.33a11.11,11.11,0,0,0,5.53-1.78l.69,2a12.77,12.77,0,0,1-6.51,2c-4.87,0-8.11-3.23-8.11-9.38,0-5.64,2.76-9.16,7.64-9.16s7.12,4,7.12,8.51v1.56Zm4.77-8c-3.39,0-4.77,3-4.77,6H126C126,436.15,125,433.21,121.49,433.21Z"/><path class="cls-21" d="M142,433.86a7.18,7.18,0,0,0-2.29-.33,5.68,5.68,0,0,0-4,1.93v13.82H133V431.46h1.85l.51,2.25a5.92,5.92,0,0,1,4.62-2.51,8.21,8.21,0,0,1,2.25.29Z"/><path class="cls-21" d="M153.13,449.28H149l-5.71-17.82h3.06l4.84,16.11h.07l4.8-16.11h2.84Z"/><path class="cls-21" d="M163.21,449.28v-15.6l-2-.4v-1.82h4.65v17.82ZM163,424.44h2.94v2.91H163Z"/><path class="cls-21" d="M172.92,441.17c0,4.4,2.26,6.33,5.64,6.33a11.11,11.11,0,0,0,5.53-1.78l.69,2a12.77,12.77,0,0,1-6.51,2c-4.87,0-8.11-3.23-8.11-9.38,0-5.64,2.76-9.16,7.64-9.16s7.12,4,7.12,8.51v1.56Zm4.77-8c-3.39,0-4.77,3-4.77,6h9.31C182.23,436.15,181.18,433.21,177.69,433.21Z"/><path class="cls-21" d="M200.35,449.28V438.51c0-3.38-1.06-5.23-4.08-5.23a6.59,6.59,0,0,0-4.36,2v14h-2.76V431.46H191l.55,2.11a7.76,7.76,0,0,1,5.6-2.47c4.18,0,6,2.5,6,6.94v11.24Z"/><path class="cls-21" d="M209.81,441.17c0,4.4,2.25,6.33,5.63,6.33a11.11,11.11,0,0,0,5.53-1.78l.69,2a12.77,12.77,0,0,1-6.51,2c-4.87,0-8.11-3.23-8.11-9.38,0-5.64,2.77-9.16,7.64-9.16s7.13,4,7.13,8.51v1.56Zm4.76-8c-3.38,0-4.76,3-4.76,6h9.31C219.12,436.15,218.06,433.21,214.57,433.21Z"/><path class="cls-21" d="M237.23,449.28V438.51c0-3.38-1-5.23-4.07-5.23a6.6,6.6,0,0,0-4.37,2v14H226V431.46h1.85l.55,2.11a7.78,7.78,0,0,1,5.6-2.47c4.18,0,6,2.5,6,6.94v11.24Z"/><path class="cls-21" d="M267.82,449.17l-1.81.15-5.71-17.86h3.05s3.35,10.84,4.87,16.18c1.57-5.38,4.84-16.18,4.84-16.18h2.84l-5.71,17.64c-1.86,5.67-3.71,7.49-7.13,7.49a7.1,7.1,0,0,1-4-1.42l.91-1.85h.21a5.21,5.21,0,0,0,3,1.12c2.07,0,3.27-1.23,4.4-4.62Z"/><path class="cls-21" d="M307,449.28l-.47-2.29a7.06,7.06,0,0,1-5.49,2.65c-3.64,0-5.75-2.43-5.75-5.45s2.25-5.09,6.29-5.09h4.62v-1.42c0-3.09-1.35-4.4-4-4.4a13.19,13.19,0,0,0-5.38,1.16l-.73-2a15.71,15.71,0,0,1,6.48-1.34c4.21,0,6.36,2.18,6.36,6.43v11.75Zm-.8-8.29H302c-3,0-4,1.31-4,3.09,0,2.14,1.16,3.56,3.75,3.56a6.29,6.29,0,0,0,4.47-2.22Z"/><path class="cls-21" d="M315.66,435.82c0,3.82,8.83,2.48,8.83,8.51,0,2.88-2.21,5.31-6.18,5.31a10.74,10.74,0,0,1-5.38-1.52l.8-2a8.32,8.32,0,0,0,4.55,1.49c2.18,0,3.52-1.2,3.52-3.06,0-4.29-8.72-2.69-8.72-8.72,0-2.4,1.81-4.69,5.89-4.69a11.52,11.52,0,0,1,5.34,1.16l-.65,2a9.55,9.55,0,0,0-4.66-1.09C316.75,433.21,315.66,434.19,315.66,435.82Z"/><path class="cls-21" d="M340.43,449.28l-.4-2a7.61,7.61,0,0,1-5.53,2.4c-4,0-6.15-2.36-6.15-7.23v-11h2.77v10.76c0,3.68,1.16,5.2,4,5.2a7.06,7.06,0,0,0,4.4-1.74V431.46h2.8v17.82Z"/><path class="cls-21" d="M360.79,438v11.24H358V438.51c0-3.38-1-5.23-4-5.23a6.33,6.33,0,0,0-4.29,2v14h-2.76V431.46h1.82l.58,2.14a7.51,7.51,0,0,1,5.42-2.5c2.65,0,4.36.94,5.24,2.72a7.76,7.76,0,0,1,5.56-2.72c4.36,0,6.29,2.43,6.29,6.94v11.24h-2.8V438.51c0-3.38-1.27-5.23-4.29-5.23a6.44,6.44,0,0,0-4.26,2A10.4,10.4,0,0,1,360.79,438Z"/><path class="cls-21" d="M377.6,449.28v-15.6l-2-.4v-1.82h4.65v17.82Zm-.25-24.84h2.94v2.91h-2.94Z"/><path class="cls-21" d="M394.19,433.86a7.18,7.18,0,0,0-2.29-.33,5.68,5.68,0,0,0-4,1.93v13.82h-2.77V431.46H387l.51,2.25a5.9,5.9,0,0,1,4.61-2.51,8.41,8.41,0,0,1,2.26.29Z"/><path class="cls-21" d="M408.48,449.28,408,447a7,7,0,0,1-5.49,2.65c-3.64,0-5.75-2.43-5.75-5.45s2.26-5.09,6.29-5.09h4.62v-1.42c0-3.09-1.34-4.4-4-4.4a13.2,13.2,0,0,0-5.39,1.16l-.72-2A15.62,15.62,0,0,1,404,431.1c4.22,0,6.36,2.18,6.36,6.43v11.75Zm-.8-8.29H403.5c-3,0-4,1.31-4,3.09,0,2.14,1.17,3.56,3.75,3.56a6.27,6.27,0,0,0,4.47-2.22ZM400,428.7l-.4-1.64,8-3,.54,2.07Z"/><path class="cls-21" d="M426.31,449.28V438.51c0-3.38-1.06-5.23-4.08-5.23a6.59,6.59,0,0,0-4.36,2v14H415.1V431.46H417l.54,2.11a7.78,7.78,0,0,1,5.6-2.47c4.19,0,6,2.5,6,6.94v11.24Z"/><path class="cls-21" d="M12.29,478.31a6.73,6.73,0,0,1-5.13,2.51c-4.22,0-7.16-3.13-7.16-9.31,0-5.42,2.69-9.24,7.45-9.24a7.5,7.5,0,0,1,4.77,1.53,24.39,24.39,0,0,1-.15-2.91v-5.53h2.77v25.1H12.76Zm-.22-12.65a7.52,7.52,0,0,0-4.32-1.28c-3.35,0-4.95,2.62-4.95,7.13s1.42,7.24,4.76,7.24a6,6,0,0,0,4.51-2.26Z"/><path class="cls-21" d="M21.06,480.46v-15.6l-2-.4v-1.82h4.66v17.82Zm-.26-24.84h2.95v2.91H20.8Z"/><path class="cls-21" d="M30.63,467c0,3.82,8.83,2.47,8.83,8.51,0,2.87-2.22,5.31-6.18,5.31a10.61,10.61,0,0,1-5.38-1.53l.8-2a8.31,8.31,0,0,0,4.54,1.49c2.19,0,3.53-1.2,3.53-3.06C36.77,471.4,28,473,28,467c0-2.4,1.82-4.69,5.9-4.69a11.53,11.53,0,0,1,5.34,1.17l-.65,2A9.69,9.69,0,0,0,34,464.38C31.72,464.38,30.63,465.36,30.63,467Z"/><path class="cls-21" d="M49.54,480.82c-2.51,0-4.58-1.27-4.58-5.45V464.64h-2.7v-2H45V459.4l2.76-.87v4.11h5.2v2h-5.2v11.05c0,1.89.69,2.8,2.36,2.8a7.7,7.7,0,0,0,2.84-.76l.55,2A8.8,8.8,0,0,1,49.54,480.82Z"/><path class="cls-21" d="M58.49,480.46v-15.6l-2-.4v-1.82h4.66v17.82Zm-.26-24.84h3v2.91h-3Z"/><path class="cls-21" d="M77.22,480.46V469.69c0-3.38-1.06-5.23-4.07-5.23a6.6,6.6,0,0,0-4.37,2v14H66V462.64h1.85l.55,2.11a7.78,7.78,0,0,1,5.6-2.48c4.18,0,6,2.51,6,7v11.24Z"/><path class="cls-21" d="M90.5,480.82c-2.51,0-4.59-1.27-4.59-5.45V464.64H83.22v-2h2.69V459.4l2.77-.87v4.11h5.2v2h-5.2v11.05c0,1.89.69,2.8,2.36,2.8a7.7,7.7,0,0,0,2.84-.76l.54,2A8.71,8.71,0,0,1,90.5,480.82Z"/><path class="cls-21" d="M109.05,480.46l-.48-2.29a7,7,0,0,1-5.49,2.65c-3.63,0-5.75-2.44-5.75-5.45s2.26-5.1,6.3-5.1h4.61v-1.41c0-3.09-1.34-4.4-4-4.4a13.15,13.15,0,0,0-5.38,1.16l-.73-2a15.67,15.67,0,0,1,6.47-1.35c4.22,0,6.37,2.19,6.37,6.44v11.75Zm-.81-8.29h-4.18c-3,0-4,1.31-4,3.09,0,2.14,1.16,3.56,3.74,3.56a6.25,6.25,0,0,0,4.47-2.22Z"/><path class="cls-21" d="M117.7,467c0,3.82,8.84,2.47,8.84,8.51,0,2.87-2.22,5.31-6.18,5.31a10.61,10.61,0,0,1-5.38-1.53l.8-2a8.31,8.31,0,0,0,4.54,1.49c2.18,0,3.53-1.2,3.53-3.06,0-4.29-8.73-2.69-8.73-8.73,0-2.4,1.82-4.69,5.89-4.69a11.6,11.6,0,0,1,5.35,1.17l-.66,2a9.62,9.62,0,0,0-4.65-1.09C118.79,464.38,117.7,465.36,117.7,467Z"/><path class="cls-21" d="M147.6,465a7.18,7.18,0,0,0-2.29-.33,5.68,5.68,0,0,0-4,1.93v13.82h-2.76V462.64h1.85l.51,2.25a5.89,5.89,0,0,1,4.62-2.51,8.21,8.21,0,0,1,2.25.29Z"/><path class="cls-21" d="M153.06,472.35c0,4.4,2.25,6.33,5.64,6.33a11,11,0,0,0,5.52-1.79l.7,2a12.77,12.77,0,0,1-6.51,2c-4.88,0-8.11-3.24-8.11-9.38,0-5.64,2.76-9.17,7.63-9.17s7.13,4,7.13,8.51v1.57Zm4.76-8c-3.38,0-4.76,3-4.76,6h9.31C162.37,467.33,161.31,464.38,157.82,464.38Z"/><path class="cls-21" d="M171.32,467c0,3.82,8.84,2.47,8.84,8.51,0,2.87-2.22,5.31-6.19,5.31a10.67,10.67,0,0,1-5.38-1.53l.8-2a8.35,8.35,0,0,0,4.55,1.49c2.18,0,3.53-1.2,3.53-3.06,0-4.29-8.73-2.69-8.73-8.73,0-2.4,1.82-4.69,5.89-4.69a11.6,11.6,0,0,1,5.35,1.17l-.66,2a9.65,9.65,0,0,0-4.65-1.09C172.41,464.38,171.32,465.36,171.32,467Z"/><path class="cls-21" d="M187,481.66v5.71h-2.8V462.64h2.15l.44,2.11a7.16,7.16,0,0,1,5.2-2.48c4.54,0,6.8,3.24,6.8,9.24,0,6.29-3.13,9.31-7.39,9.31a6.29,6.29,0,0,1-4.8-2A16.47,16.47,0,0,1,187,481.66Zm0-4.84a6,6,0,0,0,4.22,1.93c3.24,0,4.77-2.11,4.77-7.24,0-4.69-1.35-7.09-4.59-7.09a6.41,6.41,0,0,0-4.4,2.07Z"/><path class="cls-21" d="M217.7,471.51c0,6-2.91,9.31-7.68,9.31s-7.6-3.24-7.6-9.31c0-5.24,2.48-9.24,7.6-9.24C215,462.27,217.7,466.2,217.7,471.51Zm-2.84,0c0-4.65-1.56-7.16-4.84-7.16s-4.8,2.61-4.8,7.16c0,4.37,1.28,7.24,4.8,7.24S214.86,476.27,214.86,471.51Z"/><path class="cls-21" d="M233.08,480.46V469.69c0-3.38-1.05-5.23-4.07-5.23a6.59,6.59,0,0,0-4.36,2v14h-2.77V462.64h1.86l.54,2.11a7.78,7.78,0,0,1,5.6-2.48c4.18,0,6,2.51,6,7v11.24Z"/><path class="cls-21" d="M242.4,467c0,3.82,8.83,2.47,8.83,8.51,0,2.87-2.21,5.31-6.18,5.31a10.64,10.64,0,0,1-5.38-1.53l.8-2a8.32,8.32,0,0,0,4.55,1.49c2.18,0,3.52-1.2,3.52-3.06,0-4.29-8.72-2.69-8.72-8.73,0-2.4,1.81-4.69,5.89-4.69a11.53,11.53,0,0,1,5.34,1.17l-.65,2a9.66,9.66,0,0,0-4.66-1.09C243.49,464.38,242.4,465.36,242.4,467Z"/><path class="cls-21" d="M266.33,480.46l-.47-2.29a7.06,7.06,0,0,1-5.5,2.65c-3.63,0-5.74-2.44-5.74-5.45s2.25-5.1,6.29-5.1h4.62v-1.41c0-3.09-1.35-4.4-4-4.4a13.19,13.19,0,0,0-5.38,1.16l-.73-2a15.69,15.69,0,0,1,6.48-1.35c4.21,0,6.36,2.19,6.36,6.44v11.75Zm-.8-8.29h-4.18c-3,0-4,1.31-4,3.09,0,2.14,1.16,3.56,3.75,3.56a6.29,6.29,0,0,0,4.47-2.22Z"/><path class="cls-21" d="M275.42,464.67a7.7,7.7,0,0,1,5.31-2.4c4.55,0,6.91,3.24,6.91,9.24,0,6.29-3.12,9.31-7.42,9.31a6.88,6.88,0,0,1-5.16-2.29l-.58,1.93H273v-25.1h2.76v6.91Zm.29,12a6.3,6.3,0,0,0,4.33,2c3.13,0,4.8-2.11,4.8-7.24,0-4.69-1.38-7.13-4.62-7.13a6.67,6.67,0,0,0-4.51,2Z"/><path class="cls-21" d="M293.28,480.46v-15.6l-2-.4v-1.82H296v17.82ZM293,455.62H296v2.91H293Z"/><path class="cls-21" d="M301,475.55V455.36h2.73v21.21c0,1.52.69,2.14,2.65,2.14h.58v1.89a8.14,8.14,0,0,1-1.74.22C301.8,480.82,301,478.89,301,475.55Z"/><path class="cls-21" d="M311.8,480.46v-15.6l-2-.4v-1.82h4.66v17.82Zm-.26-24.84h2.95v2.91h-2.95Z"/><path class="cls-21" d="M331.07,478.31a6.69,6.69,0,0,1-5.12,2.51c-4.22,0-7.17-3.13-7.17-9.31,0-5.42,2.69-9.24,7.46-9.24A7.47,7.47,0,0,1,331,463.8a24.47,24.47,0,0,1-.14-2.91v-5.53h2.76v25.1h-2.07Zm-.21-12.65a7.58,7.58,0,0,0-4.33-1.28c-3.35,0-4.95,2.62-4.95,7.13s1.42,7.24,4.77,7.24a6,6,0,0,0,4.51-2.26Z"/><path class="cls-21" d="M349.44,480.46l-.47-2.29a7,7,0,0,1-5.49,2.65c-3.64,0-5.75-2.44-5.75-5.45s2.26-5.1,6.29-5.1h4.62v-1.41c0-3.09-1.34-4.4-4-4.4a13.2,13.2,0,0,0-5.39,1.16l-.72-2a15.6,15.6,0,0,1,6.47-1.35c4.22,0,6.36,2.19,6.36,6.44v11.75Zm-.8-8.29h-4.18c-3,0-4,1.31-4,3.09,0,2.14,1.17,3.56,3.75,3.56a6.25,6.25,0,0,0,4.47-2.22Z"/><path class="cls-21" d="M367.81,478.31a6.73,6.73,0,0,1-5.13,2.51c-4.22,0-7.16-3.13-7.16-9.31,0-5.42,2.69-9.24,7.45-9.24a7.5,7.5,0,0,1,4.77,1.53,24.39,24.39,0,0,1-.15-2.91v-5.53h2.77v25.1h-2.08Zm-.22-12.65a7.52,7.52,0,0,0-4.32-1.28c-3.35,0-4.95,2.62-4.95,7.13s1.42,7.24,4.76,7.24a6,6,0,0,0,4.51-2.26Z"/><path class="cls-21" d="M377.34,472.35c0,4.4,2.26,6.33,5.64,6.33a11,11,0,0,0,5.53-1.79l.69,2a12.77,12.77,0,0,1-6.51,2c-4.88,0-8.11-3.24-8.11-9.38,0-5.64,2.76-9.17,7.64-9.17s7.12,4,7.12,8.51v1.57Zm4.77-8c-3.39,0-4.77,3-4.77,6h9.31C386.65,467.33,385.6,464.38,382.11,464.38Z"/><path class="cls-21" d="M395.6,467c0,3.82,8.84,2.47,8.84,8.51,0,2.87-2.22,5.31-6.18,5.31a10.61,10.61,0,0,1-5.38-1.53l.79-2a8.35,8.35,0,0,0,4.55,1.49c2.18,0,3.53-1.2,3.53-3.06,0-4.29-8.73-2.69-8.73-8.73,0-2.4,1.82-4.69,5.89-4.69a11.6,11.6,0,0,1,5.35,1.17l-.66,2a9.62,9.62,0,0,0-4.65-1.09C396.69,464.38,395.6,465.36,395.6,467Z"/><path class="cls-21" d="M422.59,480.35l-1.82.14-5.71-17.85h3.06s3.34,10.84,4.87,16.18c1.56-5.38,4.84-16.18,4.84-16.18h2.83L425,480.28c-1.86,5.67-3.71,7.49-7.13,7.49a7.16,7.16,0,0,1-4-1.42l.91-1.86H415a5.17,5.17,0,0,0,3,1.13c2.07,0,3.28-1.23,4.4-4.62Z"/><path class="cls-21" d="M9.6,496.22a6.9,6.9,0,0,0-2.29-.33,5.68,5.68,0,0,0-4,1.93v13.82H.54V493.82H2.4l.51,2.25a5.89,5.89,0,0,1,4.62-2.51,8.21,8.21,0,0,1,2.25.29Z"/><path class="cls-21" d="M27.53,502.69c0,6-2.91,9.31-7.67,9.31s-7.6-3.24-7.6-9.31c0-5.24,2.47-9.24,7.6-9.24C24.8,493.45,27.53,497.38,27.53,502.69Zm-2.83,0c0-4.66-1.57-7.17-4.84-7.17s-4.8,2.62-4.8,7.17c0,4.36,1.27,7.24,4.8,7.24S24.7,507.45,24.7,502.69Z"/><path class="cls-21" d="M31.86,506.73V486.54h2.73v21.2c0,1.53.69,2.15,2.66,2.15h.58v1.89a8.29,8.29,0,0,1-1.75.22C32.7,512,31.86,510.07,31.86,506.73Z"/><path class="cls-21" d="M43.47,503.53c0,4.4,2.25,6.32,5.63,6.32a11,11,0,0,0,5.53-1.78l.69,2a12.87,12.87,0,0,1-6.51,2c-4.87,0-8.11-3.24-8.11-9.38,0-5.64,2.77-9.17,7.64-9.17s7.13,4,7.13,8.51v1.57Zm4.76-8c-3.38,0-4.76,3-4.76,6h9.31C52.78,498.51,51.72,495.56,48.23,495.56Z"/><path class="cls-21" d="M61.73,498.18c0,3.82,8.83,2.47,8.83,8.51,0,2.87-2.22,5.31-6.18,5.31A10.64,10.64,0,0,1,59,510.47l.8-2a8.31,8.31,0,0,0,4.54,1.49c2.19,0,3.53-1.2,3.53-3.06,0-4.29-8.73-2.69-8.73-8.73,0-2.4,1.82-4.69,5.9-4.69a11.53,11.53,0,0,1,5.34,1.17l-.65,2a9.69,9.69,0,0,0-4.66-1.09C62.82,495.56,61.73,496.54,61.73,498.18Z"/><path class="cls-21" d="M74.09,507.56h2.73v4.08H74.09Z"/><path class="cls-22" d="M37.46,384V361.26H52.18v4.49H42.79v4.49h7l-.33,4.69H42.79v4.66h9.39V384Z"/><path class="cls-22" d="M68.31,367.51h3.14v22.94h-5.3v-5.73l.34-2.37a5,5,0,0,1-4.22,2c-3.68,0-6.75-2.6-6.75-8.61,0-5.67,3.37-8.6,7.19-8.6a6.78,6.78,0,0,1,4.69,1.69ZM66.15,372a3.75,3.75,0,0,0-2.43-.87c-1.59,0-2.9.91-2.9,4.62s1.21,4.76,2.8,4.76a3.9,3.9,0,0,0,2.53-1.05Z"/><path class="cls-22" d="M87.65,384,86.81,382a6.28,6.28,0,0,1-5.17,2.43c-4.35,0-6.17-2.36-6.17-6.92v-9.95H80.8V377.6c0,2,.84,2.73,2.5,2.73a4.84,4.84,0,0,0,2.39-.64V367.51h5.4V384Z"/><path class="cls-22" d="M96.56,384V371.29l-2-.44v-3.34h7.25V384Zm-.1-23.42h5.33v4.66H96.46Z"/><path class="cls-22" d="M111.61,385.83v4.62h-5.39V367.51h4.69l.33,1.68a5.21,5.21,0,0,1,4.12-2c3.68,0,6.78,2.63,6.78,8.54,0,5.67-3.61,8.67-7.39,8.67a4,4,0,0,1-3.78-2A11.64,11.64,0,0,1,111.61,385.83Zm0-6.92a3,3,0,0,0,2.43,1.55c1.46,0,2.77-1.14,2.77-4.72,0-3.75-1.21-4.72-2.73-4.72a3.85,3.85,0,0,0-2.47,1Z"/><path class="cls-22" d="M141.35,375.74c0,5.67-2.9,8.64-8.1,8.64s-8.1-3-8.1-8.64c0-4.86,2.9-8.57,8.1-8.57S141.35,370.88,141.35,375.74Zm-5.5,0c0-3.85-1-4.72-2.6-4.72s-2.6.87-2.6,4.72,1,4.72,2.6,4.72S135.85,379.45,135.85,375.74Z"/><path class="cls-22" d="M163.76,368.86a8,8,0,0,1-.54-3.18v-4.92h5.3V384H164.1l-.54-1.75a4.86,4.86,0,0,1-4.18,2.09c-3.68,0-6.79-2.6-6.79-8.61,0-5.67,3.38-8.6,7.19-8.6A4.87,4.87,0,0,1,163.76,368.86Zm-.54,2.9a5.31,5.31,0,0,0-2.49-.64c-1.59,0-2.84.91-2.84,4.62s1.22,4.76,2.8,4.76a3.88,3.88,0,0,0,2.53-1.05Z"/><path class="cls-22" d="M177.6,377.19c0,1.89,1.22,3.14,3.78,3.14a12.1,12.1,0,0,0,4.66-1.22l.94,3.72a14.45,14.45,0,0,1-6.41,1.55c-5.3,0-8.37-3.27-8.37-8.64,0-5,2.4-8.57,8-8.57,5.16,0,7.22,3.68,7.22,7.83v2.19Zm2.43-6.14c-1.75,0-2.43,1.59-2.43,3.1h4.76C182.36,372.4,181.85,371.05,180,371.05Z"/><path class="cls-22" d="M210.44,383.2a10.13,10.13,0,0,1-4.69,1.18c-3.1,0-5.4-2-5.4-5.94v-7.15H198v-3.78h2.46v-2.84l5.2-1.69v4.53h4.22v3.78h-4.22v7a1.36,1.36,0,0,0,1.52,1.55,5.93,5.93,0,0,0,2.5-.57Z"/><path class="cls-22" d="M218.88,384h-5.27V367.51h3.72l.5,2.29H218a4,4,0,0,1,3.78-2.63,7.16,7.16,0,0,1,1.82.2l-.06,4.52a8,8,0,0,0-2.06-.27,4.65,4.65,0,0,0-2.6.78Z"/><path class="cls-22" d="M237,384l-.67-1.89a5.65,5.65,0,0,1-4.69,2.23c-3.28,0-5.67-2.09-5.67-5.43,0-3.18,2.36-5,6.44-5h3.07v-.61c0-1.76-1.18-2.16-2.49-2.16A11.81,11.81,0,0,0,228,372.3l-1.32-3.78a17.58,17.58,0,0,1,6.75-1.35c5.1,0,7.16,2.23,7.16,6.58V384Zm-1.52-7h-2.12c-1.42,0-2.16.67-2.16,1.75a1.8,1.8,0,0,0,2,2,4.91,4.91,0,0,0,2.29-.67Z"/><path class="cls-22" d="M247.44,384h-2.81V360.76H250v5.43l-.31,2.9a5.16,5.16,0,0,1,4.12-1.92c3.68,0,6.78,2.63,6.78,8.54,0,5.67-3.61,8.67-7.39,8.67-2.56,0-3.78-.88-4.76-2.43Zm2.53-5.16a3.09,3.09,0,0,0,2.49,1.58c1.45,0,2.77-1.14,2.77-4.72,0-3.75-1.21-4.72-2.73-4.72a4,4,0,0,0-2.53,1Z"/><path class="cls-22" d="M274.61,384l-.68-1.89a5.65,5.65,0,0,1-4.69,2.23c-3.27,0-5.67-2.09-5.67-5.43,0-3.18,2.36-5,6.45-5h3.07v-.61c0-1.76-1.18-2.16-2.5-2.16a11.81,11.81,0,0,0-4.93,1.08l-1.31-3.78a17.54,17.54,0,0,1,6.75-1.35c5.09,0,7.15,2.23,7.15,6.58V384Zm-1.52-7H271c-1.42,0-2.16.67-2.16,1.75a1.8,1.8,0,0,0,2,2,5,5,0,0,0,2.3-.67Z"/><path class="cls-22" d="M288.85,384.24c0,5-2.29,6.38-5.53,6.38a10.65,10.65,0,0,1-3.24-.5l.6-4.26a4,4,0,0,0,1.45.27c.95,0,1.42-.6,1.42-1.55v-13.4l-2-.47v-3.2h7.26Zm-5.33-23.62h5.33v4.66h-5.33Z"/><path class="cls-22" d="M309.07,375.74c0,5.67-2.91,8.64-8.1,8.64s-8.1-3-8.1-8.64c0-4.86,2.9-8.57,8.1-8.57S309.07,370.88,309.07,375.74Zm-5.51,0c0-3.85-1-4.72-2.59-4.72s-2.6.87-2.6,4.72,1,4.72,2.6,4.72S303.56,379.45,303.56,375.74Z"/><path class="cls-22" d="M312.41,367.51h5.4v5.26h-5.4Zm0,11.27h5.4V384h-5.4Z"/></svg>