<svg id="Capa_1" data-name="Capa 1" xmlns="http://www.w3.org/2000/svg" viewBox="0 0 1024 512"><defs><style>.cls-1{fill:#e94b4a;}.cls-2{fill:#fee3c6;}.cls-3{fill:#f4f3f4;}.cls-4{fill:#d6ae8a;}.cls-5{fill:#9b7c67;}.cls-6{fill:#fbefdc;}.cls-7{fill:#fff9f0;}.cls-8{fill:#e3b486;}.cls-9{fill:#886754;}.cls-10{fill:#ccb79c;}.cls-11{fill:#fbcc9c;}.cls-12{fill:#34bacc;}.cls-13{fill:#222b54;}.cls-14{fill:#c1d44f;}.cls-15{fill:#1db1bf;}.cls-16{fill:#0a696c;}.cls-17{fill:#f3b93f;}.cls-18{fill:#a0b61d;}.cls-19{fill:#e7334a;}.cls-19,.cls-20,.cls-21,.cls-22{stroke:#fff;stroke-miterlimit:10;}.cls-20{fill:#55b682;}.cls-21,.cls-22{fill:#615185;}.cls-21{stroke-width:0.5px;}</style></defs><path class="cls-1" d="M436.32,184.8c-35,20.32-65.34,38.62-83.57,50.94,0,0,0-3.81-3.7-12.42-3.79-8.84-11.45-22.74-27-42.8q-3.78-4.87-8.18-10.25s38.6-17.09,92-44.82A223.88,223.88,0,0,0,264.62,35.78c-3.11,49-5.28,93.24-5.07,119,0,0-3.17-2.1-12.39-3.79-9.45-1.73-25.28-3-50.56-1.2q-6.15.45-13.08,1.15s8.41-49.16,15.19-117.48A223.12,223.12,0,0,0,70.38,93.07C108.3,125.41,143,154.14,164,169.6c0,0-3.58,1.28-10.46,7.65s-17.26,18.11-30.64,38.85c7.91.25,15,.38,21,.37,0,0-2.11,3.16-3.87,12.36-1.79,9.45-3.2,25.26-1.55,50.56q.41,6.15,1.06,13.08S80,281.85.81,274.32A222.85,222.85,0,0,0,51.29,398.63c37.21-33.11,70.41-63.53,88.6-82.23,0,0,.79,3.72,6.15,11.4,5.51,7.88,15.84,19.93,35.11,36.41q4.69,4,10.11,8.37s-39.07,28-90.48,70.45A223,223,0,0,0,224,480c2.89,0,5.76-.11,8.62-.22-9.16-41.14-17.78-77.27-24.23-99.08,0,0,3.63,1.14,13,.22,9.56-.94,25.13-4.05,48.94-12.78q5.79-2.12,12.25-4.7s4.77,43.26,15.43,104a224.58,224.58,0,0,0,111.53-85.87c-40.78-17-77.14-31.5-99.53-39,0,0,3-2.31,7.63-10.47,4.74-8.37,11.14-22.89,17.69-47.39q1.61-6,3.2-12.73s40.75,22.42,99.65,49.85a224.39,224.39,0,0,0-1.79-137Z"/><path class="cls-2" d="M174.28,372.9c3.31-6.2,8.84-11,14.86-14.59s12.58-6.24,19-9.12c11.93-5.34,24.43-10.9,33.38-20.43,17.73-18.91,42.79-15.86,65.32-25.2a6.42,6.42,0,0,0,3.86-6.18c-.23-2.42-2.61-4.18-5-4.57s-4.83.28-7.19.89a164.63,164.63,0,0,1-35.27,5.06c-3.09.11-6.94-.36-8-3.26-1.19-3.19,2-6.17,4.84-8.12a232.61,232.61,0,0,0,41.9-37.3,17.82,17.82,0,0,0,3.8-5.68c.75-2.16.59-4.8-1-6.45s-4.35-1.95-6.59-1.21a18.75,18.75,0,0,0-5.93,3.77L257.77,269c-3.1,2.56-7.47,5.23-10.79,3l43.84-45.56c3.35-3.48,7-8.29,4.92-12.66-1.65-3.54-6.46-4.62-10.16-3.37s-6.55,4.18-9.24,7L240.65,255c-1.39,1.46-3.38,3-5.19,2.17s-1.82-3.09-1.61-4.93c2.05-17.37,15.68-30.94,22.21-47.17a17.27,17.27,0,0,0,1.58-6.85,7.3,7.3,0,0,0-3.08-6.07c-2.61-1.61-6.17-.75-8.54,1.2s-3.83,4.76-5.25,7.49c-9.94,19.1-22.79,36.83-34.26,55A19.84,19.84,0,0,1,194,264.64c-1.83.4-3.93.47-5.37-.73a5.08,5.08,0,0,1-1.57-4.23,18.25,18.25,0,0,1,1.1-4.54,57.84,57.84,0,0,0,2.16-26c-.65-4.4-2-9.08-5.61-11.72-1.55-1.15-3.65-1.83-5.41-1.06-2.67,1.16-3.11,4.68-3.31,7.59a85.93,85.93,0,0,1-7.49,29.62c-3.39,7.47-7.92,14.61-9.3,22.69-2.15,12.46,3.48,25.09,2.48,37.69a276.57,276.57,0,0,1-39.49,31.35l41.47,39.86c3.47-3.84,8.15-7.69,10.58-12.26"/><path class="cls-3" d="M244.4,200.55l7.15,4.24a1.27,1.27,0,0,0,1.75-.47l2.23-4s1.59-3.24-2-6.05a5.91,5.91,0,0,0-6.31-.23,9.87,9.87,0,0,0-2.48,3.48l-.75,1.25a1.27,1.27,0,0,0,.44,1.74"/><path class="cls-3" d="M280.81,217.16l5.82,7.55a1.45,1.45,0,0,0,2.07.24l4.06-3.27s3.07-2.79.39-7.32c0,0-2.38-3.71-6.63-2.92a11.49,11.49,0,0,0-4.12,2.66l-1.33,1a1.44,1.44,0,0,0-.26,2"/><path class="cls-3" d="M294.68,243l4.12,5.34a1,1,0,0,0,1.46.17l2.88-2.31s2.17-2,.27-5.18a4.78,4.78,0,0,0-4.69-2.06,7.76,7.76,0,0,0-2.91,1.88l-.94.72a1,1,0,0,0-.19,1.44"/><path class="cls-3" d="M301.25,296.32l.76,5.83a.88.88,0,0,0,1,.77l3.18-.47s2.5-.54,2.48-3.78a4.17,4.17,0,0,0-2.62-3.61,7,7,0,0,0-3,.13l-1,.13a.9.9,0,0,0-.78,1"/><path class="cls-3" d="M177.2,232.06l6.39.68c.54.06,1-.6,1-1.47l.09-5.54s-.09-4.41-3.56-5.47c0,0-2.93-.73-4.37,3.21a18,18,0,0,0-.43,5.16l-.06,1.77c0,.86.38,1.6.92,1.66"/><path class="cls-4" d="M274.47,378.37c-3.78-5.92-5.24-13.08-5.45-20.11s.73-14,1.36-21c1.18-13,2.46-26.64-1.47-39.11-7.8-24.72,7.13-45.08,10-69.29a6.42,6.42,0,0,0-3.5-6.39c-2.22-1-4.92.22-6.43,2.13s-2.13,4.35-2.75,6.7a164.59,164.59,0,0,1-12.86,33.22c-1.42,2.76-3.71,5.88-6.77,5.41-3.37-.53-4.39-4.81-4.71-8.2a232.77,232.77,0,0,0-12-54.8,17.89,17.89,0,0,0-3.09-6.09,6.41,6.41,0,0,0-6.12-2.3c-2.28.59-3.83,2.85-4.28,5.16a18.71,18.71,0,0,0,.39,7q4,22,8,44c.72,4,.9,9.07-2.7,10.87Q213,235.29,203.85,205c-1.39-4.63-3.81-10.13-8.63-10.49-3.9-.29-7.19,3.37-7.91,7.2s.44,7.76,1.59,11.5q7.66,24.76,15.31,49.54c.6,1.92,1,4.44-.64,5.59s-3.59.07-5.09-1c-14.14-10.29-19.3-28.82-30.24-42.46a17.43,17.43,0,0,0-5.21-4.74,7.27,7.27,0,0,0-6.79-.28c-2.69,1.49-3.69,5-3.15,8s2.28,5.68,4,8.25c11.79,18,20.95,37.9,31.21,56.83a19.81,19.81,0,0,1,1.5,15.14c-.55,1.78-1.52,3.65-3.27,4.32a5.1,5.1,0,0,1-4.46-.71,17.72,17.72,0,0,1-3.41-3.18A57.93,57.93,0,0,0,157,293.94c-4.15-1.59-8.91-2.68-13-.85-1.76.79-3.38,2.28-3.57,4.2-.3,2.9,2.55,5,5,6.6a85.63,85.63,0,0,1,22.16,21c4.85,6.61,8.86,14.05,15.23,19.22,9.81,8,23.58,9.25,34.07,16.29a277.18,277.18,0,0,1,8,49.79L280,393.59c-1.65-4.9-2.72-10.87-5.51-15.22"/><path class="cls-3" d="M158.55,232.82l7.19-4.16a1.26,1.26,0,0,0,.45-1.75L163.84,223s-2.06-3-6.28-1.19a5.92,5.92,0,0,0-3.29,5.39,10,10,0,0,0,1.82,3.87l.73,1.26a1.26,1.26,0,0,0,1.73.47"/><path class="cls-3" d="M190.86,209.22l9.43-1.39a1.46,1.46,0,0,0,1.23-1.68l-.87-5.14s-.92-4-6.18-3.93c0,0-4.41.26-5.8,4.35a11.25,11.25,0,0,0,.31,4.9l.23,1.65a1.46,1.46,0,0,0,1.65,1.24"/><path class="cls-3" d="M220.19,209.78l6.68-1a1,1,0,0,0,.86-1.19l-.61-3.64s-.66-2.86-4.38-2.78a4.79,4.79,0,0,0-4.1,3.08,8,8,0,0,0,.21,3.46l.17,1.18a1,1,0,0,0,1.17.87"/><path class="cls-3" d="M269.89,230.16l5.45,2.19a.9.9,0,0,0,1.18-.51l1.14-3s.75-2.43-2.08-4a4.18,4.18,0,0,0-4.43.51,7,7,0,0,0-1.37,2.71l-.39,1a.91.91,0,0,0,.5,1.17"/><path class="cls-3" d="M153.1,306.83l3.73-5.23c.32-.44,0-1.17-.78-1.61l-4.79-2.79s-3.89-2.08-6.52.42c0,0-2.06,2.2.67,5.39a18.18,18.18,0,0,0,4.28,2.9l1.52.92c.73.45,1.58.45,1.89,0"/><path class="cls-5" d="M346.07,287.09c-7-.31-13.71-3.24-19.58-7.1s-11.06-8.66-16.42-13.21c-10-8.45-20.37-17.33-32.83-21.28-24.71-7.84-32.78-31.77-50.93-48.05a6.4,6.4,0,0,0-7.24-.81c-2.08,1.25-2.65,4.15-2,6.48s2.34,4.24,3.91,6.11a164.78,164.78,0,0,1,19.78,29.62c1.44,2.75,2.68,6.42.53,8.65-2.37,2.45-6.46.82-9.42-.87a232.77,232.77,0,0,0-51.73-21.69,17.79,17.79,0,0,0-6.76-1c-2.27.26-4.58,1.54-5.39,3.69s.12,4.77,1.75,6.47a19.07,19.07,0,0,0,6,3.72l40.59,18.77c3.65,1.68,7.94,4.47,7.34,8.45l-60-19.89c-4.58-1.52-10.47-2.7-13.54,1-2.48,3-1.38,7.82,1.34,10.62s6.61,4.1,10.32,5.31l49.34,16c1.92.62,4.21,1.73,4.2,3.74,0,1.85-2,3-3.76,3.58-16.55,5.65-34.68-.78-52.13.32a17.52,17.52,0,0,0-6.87,1.53,7.31,7.31,0,0,0-4.14,5.4c-.33,3,2,5.9,4.77,7.2s5.95,1.39,9,1.49c21.52.73,43.06,4.67,64.44,7.16A19.87,19.87,0,0,1,239.89,316c1.14,1.48,2.11,3.34,1.66,5.16a5.12,5.12,0,0,1-3.15,3.24,18.51,18.51,0,0,1-4.57,1,57.88,57.88,0,0,0-24.38,9.27c-3.69,2.49-7.31,5.75-8.16,10.12-.36,1.89-.07,4.08,1.39,5.34,2.2,1.91,5.56.78,8.27-.29a85.7,85.7,0,0,1,30-6c8.21-.16,16.6.84,24.49-1.4,12.16-3.45,21.12-14,32.92-18.5A276,276,0,0,1,343.64,346l18.06-54.61c-5-1.47-10.46-4-15.63-4.25"/><path class="cls-6" d="M160.34,298.22l.73-8.28a1.25,1.25,0,0,0-1.17-1.37l-4.54-.31s-3.61,0-4.58,4.45a5.92,5.92,0,0,0,2.52,5.79,9.83,9.83,0,0,0,4.21.73l1.45.14a1.27,1.27,0,0,0,1.38-1.15"/><path class="cls-3" d="M159.61,258.21l4.29-8.52a1.44,1.44,0,0,0-.67-2l-4.7-2.25s-3.84-1.57-6.78,2.8c0,0-2.32,3.75.23,7.25a11.43,11.43,0,0,0,4.18,2.56l1.49.76a1.45,1.45,0,0,0,2-.64"/><path class="cls-3" d="M176.94,234.54l3-6a1,1,0,0,0-.48-1.4l-3.33-1.59s-2.71-1.1-4.79,2a4.82,4.82,0,0,0,.16,5.13,8.06,8.06,0,0,0,3,1.82l1.05.54a1,1,0,0,0,1.39-.46"/><path class="cls-3" d="M222.19,205.6l4.94-3.2a.9.9,0,0,0,.25-1.25l-1.8-2.66s-1.56-2-4.48-.61A4.18,4.18,0,0,0,219,201.8a6.84,6.84,0,0,0,1.43,2.67l.55.86a.89.89,0,0,0,1.24.27"/><path class="cls-6" d="M217.76,345.24l-2.14-6.05c-.18-.52-1-.65-1.77-.29l-5,2.3s-3.93,2-3.4,5.58c0,0,.62,3,4.8,2.56A18.4,18.4,0,0,0,215,347.5l1.63-.71c.78-.35,1.27-1,1.09-1.55"/><path class="cls-2" d="M330.59,173.41c-4.5,5.39-10.88,8.94-17.51,11.27s-13.6,3.54-20.46,5c-12.77,2.8-26.14,5.69-36.84,13.21-21.21,14.89-45.13,6.8-69.08,11.36a6.43,6.43,0,0,0-5,5.26c-.27,2.42,1.7,4.63,4,5.49s4.79.72,7.22.6a164.82,164.82,0,0,1,35.56,2.23c3.05.52,6.73,1.77,7.19,4.83.52,3.37-3.26,5.62-6.39,6.95a233.15,233.15,0,0,0-48.62,28,17.91,17.91,0,0,0-4.87,4.79c-1.18,2-1.56,4.58-.34,6.52s3.86,2.79,6.21,2.53a18.91,18.91,0,0,0,6.57-2.49l39.53-20.9c3.56-1.88,8.38-3.6,11.17-.71l-52.2,35.67c-4,2.73-8.5,6.69-7.39,11.4.89,3.8,5.38,5.84,9.26,5.37s7.26-2.76,10.47-5l42.61-29.56c1.65-1.15,3.93-2.3,5.52-1.06s1.15,3.4.57,5.15c-5.54,16.59-21.65,27.1-31.35,41.65a17.44,17.44,0,0,0-2.95,6.4,7.31,7.31,0,0,0,1.79,6.56c2.22,2.11,5.89,2,8.61.57s4.71-3.89,6.66-6.27c13.62-16.67,29.81-31.41,44.75-46.91a19.89,19.89,0,0,1,14-6c1.87,0,3.94.35,5.1,1.82a5.08,5.08,0,0,1,.68,4.46,18.35,18.35,0,0,1-2,4.22,57.84,57.84,0,0,0-7.4,25c-.27,4.44.14,9.3,3.1,12.62,1.28,1.44,3.2,2.53,5.09,2.14,2.84-.59,4-3.95,4.78-6.75a85.75,85.75,0,0,1,13.36-27.48c4.85-6.62,10.73-12.69,13.74-20.32,4.63-11.76,1.69-25.27,5.24-37.4A276.48,276.48,0,0,1,375.93,211l-32.48-47.47c-4.18,3.06-9.55,5.88-12.86,9.85"/><path class="cls-3" d="M226.83,327.86l-6.13-5.6a1.27,1.27,0,0,0-1.81.1l-3,3.42s-2.22,2.86.76,6.34a5.91,5.91,0,0,0,6.13,1.51,9.88,9.88,0,0,0,3.13-2.9l1-1.07a1.28,1.28,0,0,0-.08-1.8"/><path class="cls-3" d="M194.58,304.18l-4.17-8.57a1.46,1.46,0,0,0-2-.66l-4.64,2.37s-3.58,2.11-1.88,7.09c0,0,1.57,4.12,5.9,4.21a11.3,11.3,0,0,0,4.57-1.77l1.51-.72a1.46,1.46,0,0,0,.68-1.95"/><path class="cls-3" d="M186.26,276.05,183.31,270a1,1,0,0,0-1.39-.46l-3.29,1.68s-2.53,1.49-1.33,5a4.81,4.81,0,0,0,4.18,3,7.93,7.93,0,0,0,3.23-1.25l1.07-.51a1,1,0,0,0,.48-1.38"/><path class="cls-3" d="M190.68,222.52l.45-5.86a.89.89,0,0,0-.84-1l-3.21-.18s-2.56,0-3.21,3.19a4.18,4.18,0,0,0,1.83,4.07,7.05,7.05,0,0,0,3,.48l1,.08a.88.88,0,0,0,1-.82"/><path class="cls-7" d="M299,310.71l-6.11-2c-.52-.17-1.11.39-1.3,1.23l-1.22,5.4s-.81,4.34,2.37,6.09c0,0,2.72,1.3,4.94-2.26a18.22,18.22,0,0,0,1.47-5l.42-1.72c.2-.83-.06-1.65-.57-1.81"/><path class="cls-8" d="M195.37,138.8c2,6.74,1.43,14-.3,20.83s-4.56,13.28-7.1,19.84c-4.73,12.19-9.71,24.93-9.37,38,.69,25.91-19.28,41.37-28.72,63.85a6.43,6.43,0,0,0,1.59,7.11c1.87,1.56,4.8,1.14,6.78-.27s3.24-3.6,4.49-5.69a164.26,164.26,0,0,1,21.51-28.39c2.13-2.26,5.19-4.63,8-3.33,3.1,1.43,2.89,5.82,2.27,9.18a232.93,232.93,0,0,0-3.57,56,17.92,17.92,0,0,0,1.29,6.71c1,2.07,3,3.83,5.25,3.89s4.46-1.68,5.54-3.78a19,19,0,0,0,1.57-6.85l4.44-44.5c.4-4,1.63-9,5.58-9.7q.44,31.6.86,63.22c.06,4.83.87,10.79,5.41,12.46,3.66,1.36,7.84-1.25,9.59-4.74s1.72-7.58,1.63-11.49q-.53-25.92-1.06-51.84c0-2,.26-4.55,2.16-5.19,1.75-.6,3.47.91,4.61,2.38,10.76,13.78,10.61,33,17.37,49.15a17.56,17.56,0,0,0,3.7,6,7.32,7.32,0,0,0,6.45,2.14c3-.69,4.93-3.8,5.24-6.86s-.63-6.08-1.53-9c-6.37-20.56-9.69-42.2-14.35-63.23a19.87,19.87,0,0,1,2.74-15c1-1.57,2.47-3.09,4.33-3.26a5.14,5.14,0,0,1,4.1,1.91,18.45,18.45,0,0,1,2.4,4,57.88,57.88,0,0,0,16.75,20c3.56,2.68,7.83,5,12.23,4.4,1.91-.27,3.88-1.27,4.59-3.06,1.08-2.7-1.08-5.51-3-7.71a85.94,85.94,0,0,1-15.51-26.34c-2.83-7.7-4.63-16-9.33-22.68-7.24-10.36-20.12-15.38-28.26-25.05a275.31,275.31,0,0,1,6-50.06l-57.52.82c.24,5.17-.38,11.2,1.1,16.15"/><path class="cls-3" d="M266.69,310.66l-8.06,2a1.27,1.27,0,0,0-.92,1.56l1.2,4.38s1.15,3.43,5.7,2.88a5.93,5.93,0,0,0,4.65-4.28,9.94,9.94,0,0,0-.69-4.22l-.34-1.41a1.27,1.27,0,0,0-1.54-.93"/><path class="cls-3" d="M229.13,324.45l-9.46-1.27a1.44,1.44,0,0,0-1.63,1.27l-.59,5.19s-.22,4.14,4.86,5.48c0,0,4.31,1,6.77-2.59a11.17,11.17,0,0,0,1.06-4.78l.23-1.66a1.45,1.45,0,0,0-1.24-1.64"/><path class="cls-3" d="M201.09,315.82l-6.69-.89a1,1,0,0,0-1.16.9l-.41,3.66s-.16,2.93,3.44,3.88a4.79,4.79,0,0,0,4.79-1.83,8.06,8.06,0,0,0,.75-3.38L202,317a1,1,0,0,0-.88-1.16"/><path class="cls-3" d="M158.93,282.54l-4.64-3.62a.9.9,0,0,0-1.27.17l-1.92,2.58s-1.41,2.13.89,4.43a4.16,4.16,0,0,0,4.4.72,6.89,6.89,0,0,0,2.05-2.22l.64-.8a.89.89,0,0,0-.15-1.26"/><path class="cls-3" d="M292.32,241l-5,4c-.43.35-.29,1.15.31,1.77l3.83,4s3.16,3.08,6.38,1.39c0,0,2.59-1.54.84-5.36a17.88,17.88,0,0,0-3.31-4l-1.21-1.3c-.58-.63-1.39-.86-1.82-.53"/><path class="cls-9" d="M112.76,211.41c6.6,2.43,12.08,7.25,16.5,12.71s7.9,11.61,11.63,17.58C147.82,252.78,155,264.4,165.7,272c21.16,15,21.58,40.22,33.92,61.24a6.41,6.41,0,0,0,6.65,3c2.37-.56,3.79-3.15,3.84-5.58s-.94-4.75-1.86-7a165.33,165.33,0,0,1-9.86-34.24c-.52-3.05-.59-6.93,2.13-8.4,3-1.62,6.4,1.18,8.71,3.69A233.3,233.3,0,0,0,251.92,321a18.09,18.09,0,0,0,6.15,3,6.41,6.41,0,0,0,6.26-1.87c1.46-1.85,1.33-4.58.29-6.7a18.8,18.8,0,0,0-4.55-5.36l-33-30.21c-3-2.71-6.2-6.68-4.42-10.28l51.14,37.18c3.91,2.84,9.16,5.76,13.21,3.13,3.29-2.12,3.7-7,2-10.52s-5-5.91-8.22-8.19L238.61,261c-1.64-1.17-3.49-2.93-2.86-4.84.57-1.76,2.81-2.23,4.66-2.27,17.49-.36,32.8,11.28,49.77,15.53a17.21,17.21,0,0,0,7,.63,7.26,7.26,0,0,0,5.57-3.89c1.25-2.8-.09-6.22-2.34-8.3s-5.25-3.13-8.14-4.17c-20.28-7.22-39.61-17.52-59.23-26.39a19.89,19.89,0,0,1-10.35-11.15c-.64-1.76-1-3.83,0-5.42a5.1,5.1,0,0,1,4-2.14,17.94,17.94,0,0,1,4.65.48,57.92,57.92,0,0,0,26-1.44c4.27-1.24,8.71-3.25,10.84-7.16.93-1.69,1.31-3.86.31-5.5-1.52-2.49-5.07-2.44-8-2.24a85.75,85.75,0,0,1-30.38-3.36c-7.86-2.34-15.55-5.84-23.75-6.11-12.63-.41-24.37,6.9-37,7.63A276.08,276.08,0,0,1,133,156.07L99.17,202.61c4.27,2.91,8.74,7,13.59,8.8"/><path class="cls-10" d="M293.1,257.24l-3.22,7.66a1.27,1.27,0,0,0,.7,1.67l4.23,1.67s3.43,1.12,5.72-2.85a5.93,5.93,0,0,0-.64-6.28,10,10,0,0,0-3.79-2l-1.34-.56a1.25,1.25,0,0,0-1.66.67"/><path class="cls-10" d="M281.63,295.58l-6.68,6.8a1.47,1.47,0,0,0,0,2.08l3.8,3.58s3.19,2.65,7.31-.62c0,0,3.35-2.87,2-7a11.36,11.36,0,0,0-3.2-3.71l-1.19-1.18a1.45,1.45,0,0,0-2.06,0"/><path class="cls-10" d="M257.93,312.86l-4.72,4.82a1,1,0,0,0,0,1.47l2.68,2.53s2.26,1.88,5.17-.44a4.81,4.81,0,0,0,1.41-4.93,8.19,8.19,0,0,0-2.27-2.63l-.84-.83a1,1,0,0,0-1.46,0"/><path class="cls-10" d="M206,326.68l-5.68,1.55a.9.9,0,0,0-.62,1.12l.91,3.08s.87,2.4,4.08,1.95a4.2,4.2,0,0,0,3.22-3.1,7,7,0,0,0-.55-3l-.27-1a.89.89,0,0,0-1.09-.64"/><path class="cls-10" d="M252.68,195l.2,6.42c0,.55.73.92,1.59.81l5.5-.66s4.36-.7,4.94-4.28c0,0,.31-3-3.79-3.89a18,18,0,0,0-5.17.28l-1.76.18c-.85.09-1.53.6-1.51,1.14"/><path class="cls-11" d="M127.51,280.54c6.75-2,14-1.33,20.82.44s13.25,4.66,19.79,7.24c12.16,4.81,24.86,9.88,37.93,9.63,25.91-.51,41.23,19.56,63.65,29.16a6.43,6.43,0,0,0,7.12-1.55c1.57-1.85,1.17-4.78-.23-6.77s-3.58-3.27-5.65-4.53a164.47,164.47,0,0,1-28.25-21.71c-2.24-2.14-4.6-5.22-3.27-8,1.45-3.09,5.84-2.85,9.19-2.2a233.38,233.38,0,0,0,56,3.95,18,18,0,0,0,6.72-1.25,6.4,6.4,0,0,0,3.92-5.22c.09-2.35-1.64-4.47-3.74-5.56a18.78,18.78,0,0,0-6.84-1.62l-44.47-4.75c-4-.42-9-1.69-9.66-5.65l63.23-.42c4.83,0,10.79-.8,12.5-5.32,1.38-3.66-1.2-7.85-4.68-9.63S314,245,310.08,245.05l-51.86.71c-2,0-4.54-.29-5.17-2.2-.58-1.75.94-3.46,2.41-4.59,13.86-10.67,33.09-10.39,49.27-17a17.34,17.34,0,0,0,6-3.66,7.31,7.31,0,0,0,2.18-6.44c-.67-3-3.77-5-6.82-5.29s-6.09.59-9,1.48c-20.61,6.22-42.27,9.4-63.33,13.91a19.88,19.88,0,0,1-14.94-2.84c-1.56-1-3.08-2.49-3.23-4.36a5.12,5.12,0,0,1,1.94-4.08,18.44,18.44,0,0,1,4-2.38,57.75,57.75,0,0,0,20.11-16.61c2.7-3.53,5.08-7.79,4.48-12.2-.26-1.91-1.24-3.88-3-4.61-2.7-1.1-5.52,1-7.74,2.93a85.81,85.81,0,0,1-26.44,15.32c-7.71,2.79-16,4.53-22.74,9.18-10.41,7.17-15.52,20-25.25,28.09a276.1,276.1,0,0,1-50-6.37q.22,28.76.43,57.51c5.17-.19,11.19.46,16.16-1"/><path class="cls-3" d="M299.85,210.4l2,8.08a1.26,1.26,0,0,0,1.56.92l4.39-1.16s3.44-1.13,2.91-5.68a5.9,5.9,0,0,0-4.24-4.68,9.93,9.93,0,0,0-4.22.66l-1.42.33a1.28,1.28,0,0,0-.94,1.53"/><path class="cls-3" d="M313.38,248.06,312,257.5a1.46,1.46,0,0,0,1.27,1.65l5.18.63s4.14.24,5.52-4.83c0,0,1-4.3-2.54-6.79a11.43,11.43,0,0,0-4.79-1.09l-1.65-.24a1.44,1.44,0,0,0-1.65,1.23"/><path class="cls-3" d="M304.56,276l-.94,6.68a1,1,0,0,0,.89,1.17l3.67.44s2.93.18,3.9-3.42a4.78,4.78,0,0,0-1.8-4.8,8,8,0,0,0-3.38-.77l-1.17-.17a1,1,0,0,0-1.17.87"/><path class="cls-3" d="M271,318l-3.65,4.61a.9.9,0,0,0,.16,1.27l2.56,1.94s2.13,1.42,4.44-.85a4.19,4.19,0,0,0,.76-4.41,7.12,7.12,0,0,0-2.21-2.06l-.8-.65A.9.9,0,0,0,271,318"/><path class="cls-3" d="M230.38,184.29l4,5.05c.34.43,1.14.3,1.77-.3l4-3.79s3.09-3.15,1.43-6.38c0,0-1.53-2.6-5.36-.88a18.35,18.35,0,0,0-4,3.29l-1.31,1.19c-.63.58-.87,1.4-.54,1.82"/><path class="cls-1" d="M29.56,144.85A222,222,0,0,0,5,209.13c35.85,2.65,70.12,4.89,97.92,6.17C88.42,200.66,62.38,174.86,29.56,144.85Z"/><path class="cls-12" d="M181.15,364.21c-19.27-16.48-29.6-28.53-35.11-36.41-5.36-7.68-6.15-11.4-6.15-11.4-18.19,18.7-51.39,49.12-88.6,82.23A225.12,225.12,0,0,0,100.78,443c51.41-42.46,90.48-70.45,90.48-70.45Q185.83,368.22,181.15,364.21Z"/><path class="cls-13" d="M270.26,368.11c-23.81,8.73-39.38,11.84-48.94,12.78-9.33.92-13-.22-13-.22,6.45,21.81,15.07,57.94,24.23,99.08a223,223,0,0,0,65.35-12.34c-10.66-60.74-15.43-104-15.43-104Q276,366,270.26,368.11Z"/><path class="cls-14" d="M335.26,284.64c-6.55,24.5-12.95,39-17.69,47.39-4.61,8.16-7.63,10.47-7.63,10.47,22.39,7.54,58.75,22.05,99.53,39a223.21,223.21,0,0,0,28.64-59.78c-58.9-27.43-99.65-49.85-99.65-49.85Q336.86,278.69,335.26,284.64Z"/><path class="cls-15" d="M322.09,180.52c15.51,20.06,23.17,34,27,42.8,3.69,8.61,3.7,12.42,3.7,12.42,18.23-12.32,48.6-30.62,83.57-50.94a223.14,223.14,0,0,0-30.42-59.35c-53.39,27.73-92,44.82-92,44.82Q318.32,175.64,322.09,180.52Z"/><path class="cls-16" d="M196.6,149.82c25.28-1.83,41.11-.53,50.56,1.2,9.22,1.69,12.39,3.79,12.39,3.79-.21-25.79,2-70,5.07-119a221.06,221.06,0,0,0-65.91-2.29C191.93,101.81,183.52,151,183.52,151Q190.45,150.26,196.6,149.82Z"/><path class="cls-17" d="M102.87,215.3c7.13.33,13.87.6,20,.8,13.38-20.74,23.7-32.41,30.64-38.85S164,169.6,164,169.6c-21-15.46-55.72-44.19-93.64-76.53a224.94,224.94,0,0,0-40.82,51.78C62.38,174.86,88.42,200.66,102.87,215.3Z"/><path class="cls-18" d="M138.53,279.39c-1.65-25.3-.24-41.11,1.55-50.56,1.76-9.2,3.87-12.36,3.87-12.36-6,0-13.12-.12-21-.37-.2.32-.4.6-.61.92q-3.32,5.21-6.9,11.16s-4.48-4.72-12.54-12.88C75.07,214,40.8,211.78,5,209.13A224.77,224.77,0,0,0,0,256c0,6.17.32,12.27.81,18.32,79.18,7.53,138.78,18.15,138.78,18.15Q138.93,285.54,138.53,279.39Z"/><path class="cls-18" d="M115.41,228.18q3.57-6,6.9-11.16c.21-.32.41-.6.61-.92-6.18-.2-12.92-.47-20-.8C110.93,223.46,115.41,228.18,115.41,228.18Z"/><path class="cls-19" d="M532.33,45.28c0-19.13,13.55-31.49,32.95-31.49,21.26,0,34,13.82,34,42.91,0,33.88-13.28,50.09-36,50.09-12,0-21-2.66-27.9-6.11l4.91-16.87c4,2.39,12.62,6.11,20.6,6.11,9.43,0,16.34-4.79,17.67-20.6a23.23,23.23,0,0,1-16.74,6.91C545.62,76.23,532.33,65.74,532.33,45.28Zm21.26-.67c0,10.5,5.18,14.22,13,14.22a27.07,27.07,0,0,0,12.62-3.72c0-14.88-2.92-25.11-13.68-25.11C557.84,30,553.59,35.31,553.59,44.61Z"/><path class="cls-20" d="M459.43,174.72v-1.48h15.09v2.33c0,16.26-13.51,16.57-13.51,27.13,0,3.9,2.75,7,8,7A35.79,35.79,0,0,0,481.6,207l4.12,13a47.71,47.71,0,0,1-19.85,4c-13.09,0-22.59-7.07-22.59-18.89C443.28,189,459.43,185,459.43,174.72Zm15.73-7.39H458.8V151.18h16.36Z"/><path class="cls-20" d="M534.9,201.33c5.6.63,11.72.74,22,.74v16.15A46.77,46.77,0,0,1,523.4,204c-25,0-31.36-18.16-31.36-37.27,0-18.58,6.23-36.1,31.36-36.1,25.65,0,31.67,17.31,31.67,36.1C555.07,179.69,547.57,195.2,534.9,201.33ZM523.4,145c-11.09,0-13.73,9.5-13.73,21.64,0,13.52,2.85,23.34,13.73,23.34s13.93-9.72,13.93-23.34C537.33,154.24,534.48,145,523.4,145Z"/><path class="cls-20" d="M622.51,175.67c0,14.89-8.44,28.3-28.18,28.3s-28.19-12.88-28.19-28.3v-44h16.68v43.18c0,9,4.12,15,11.51,15s11.29-6.12,11.29-15V131.65h16.89Z"/><path class="cls-20" d="M637.29,202.91V131.65H654v71.26Z"/><path class="cls-20" d="M668.74,202.91V131.65h46v14H685.42v14h22l-1,14.68H685.42V189h29.35v13.94ZM677,127.75l-1.38-9.5L706.54,114l-.21,12.25Z"/><path class="cls-20" d="M758.89,202.91l-19.32-55.63h-.42l1.58,55.63H725.85V131.65H751.5l19.84,57h.43l-1.59-57h15.21v71.26Z"/><path class="cls-20" d="M799.1,202.91V131.65h46v14H815.78v14h22l-1.06,14.68h-20.9V189h29.35v13.94Z"/><path class="cls-20" d="M897.69,148.75a35.68,35.68,0,0,0-16.36-3.69c-6.44,0-9.08,2.43-9.08,5.59,0,10.88,32.2,6.34,32.2,30.72,0,11.62-10,22.6-26.92,22.6a39.72,39.72,0,0,1-24-7.82l6.23-12.67a30.16,30.16,0,0,0,17.84,6.45c5.8,0,9.39-3.17,9.39-7.39,0-13.2-32-5.81-32-31.67,0-11.2,8.86-20.27,26.49-20.27a47.56,47.56,0,0,1,21.75,4.75Z"/><path class="cls-20" d="M937.07,179.37v1.48H922v-2.33c0-16.25,13.51-16.57,13.51-27.13,0-3.9-2.74-7-8-7a35.79,35.79,0,0,0-12.56,2.64l-4.12-13a47.66,47.66,0,0,1,19.84-4c13.1,0,22.6,7.07,22.6,18.89C953.22,165.12,937.07,169.13,937.07,179.37Zm-15.73,7.39H937.7v16.15H921.34Z"/><path class="cls-21" d="M453.84,301.76v7.55h-3.7v-32.7H453l.58,2.79a9.5,9.5,0,0,1,6.88-3.27c6,0,9,4.28,9,12.21,0,8.32-4.14,12.32-9.77,12.32a8.28,8.28,0,0,1-6.35-2.7A21.9,21.9,0,0,1,453.84,301.76Zm0-6.39a7.88,7.88,0,0,0,5.58,2.54c4.28,0,6.3-2.79,6.3-9.57,0-6.2-1.78-9.38-6.06-9.38a8.44,8.44,0,0,0-5.82,2.75Z"/><path class="cls-21" d="M477.9,289.45c0,5.82,3,8.37,7.45,8.37a14.57,14.57,0,0,0,7.31-2.36l.92,2.6a16.91,16.91,0,0,1-8.61,2.6c-6.45,0-10.73-4.29-10.73-12.41,0-7.46,3.66-12.12,10.1-12.12,6.64,0,9.43,5.33,9.43,11.25v2.07Zm6.3-10.53c-4.48,0-6.3,3.94-6.3,8h12.31C490.21,282.81,488.81,278.92,484.2,278.92Z"/><path class="cls-21" d="M511.33,279.78a9.44,9.44,0,0,0-3-.43A7.53,7.53,0,0,0,503,281.9v18.28h-3.66V276.61h2.46l.67,3a7.8,7.8,0,0,1,6.11-3.32,11,11,0,0,1,3,.38Z"/><path class="cls-21" d="M518.36,282.38c0,5.05,11.68,3.27,11.68,11.25,0,3.8-2.93,7-8.17,7a14.16,14.16,0,0,1-7.12-2l1.06-2.7a10.93,10.93,0,0,0,6,2c2.88,0,4.66-1.58,4.66-4,0-5.67-11.54-3.56-11.54-11.54,0-3.17,2.41-6.2,7.79-6.2a15.23,15.23,0,0,1,7.07,1.54l-.86,2.69a12.68,12.68,0,0,0-6.16-1.44C519.8,278.92,518.36,280.21,518.36,282.38Z"/><path class="cls-21" d="M554.82,288.34c0,7.94-3.85,12.32-10.15,12.32s-10-4.29-10-12.32c0-6.92,3.27-12.21,10-12.21C551.21,276.13,554.82,281.32,554.82,288.34Zm-3.75,0c0-6.15-2.07-9.47-6.4-9.47s-6.35,3.46-6.35,9.47c0,5.78,1.68,9.57,6.35,9.57S551.07,294.64,551.07,288.34Z"/><path class="cls-21" d="M575.17,300.18V285.94c0-4.48-1.4-6.93-5.39-6.93a8.71,8.71,0,0,0-5.77,2.7v18.47h-3.66V276.61h2.46l.72,2.79a10.3,10.3,0,0,1,7.41-3.27c5.53,0,8,3.31,8,9.18v14.87Z"/><path class="cls-21" d="M599.37,300.18l-.63-3a9.24,9.24,0,0,1-7.26,3.52c-4.81,0-7.6-3.23-7.6-7.22s3-6.73,8.32-6.73h6.11v-1.88c0-4.09-1.78-5.82-5.34-5.82a17.38,17.38,0,0,0-7.12,1.54l-1-2.65a20.91,20.91,0,0,1,8.56-1.77c5.58,0,8.42,2.88,8.42,8.51v15.54Zm-1.06-11h-5.53c-4,0-5.34,1.73-5.34,4.09,0,2.84,1.54,4.71,4.95,4.71a8.33,8.33,0,0,0,5.92-2.93Z"/><path class="cls-21" d="M610.82,282.38c0,5.05,11.69,3.27,11.69,11.25,0,3.8-2.94,7-8.18,7a14.19,14.19,0,0,1-7.12-2l1.06-2.7a10.93,10.93,0,0,0,6,2c2.89,0,4.67-1.58,4.67-4,0-5.67-11.55-3.56-11.55-11.54,0-3.17,2.41-6.2,7.8-6.2a15.28,15.28,0,0,1,7.07,1.54l-.87,2.69a12.68,12.68,0,0,0-6.16-1.44C612.26,278.92,610.82,280.21,610.82,282.38Z"/><path class="cls-21" d="M674.75,300l-2.4.19-7.55-23.61h4s4.42,14.33,6.44,21.4c2.07-7.12,6.4-21.4,6.4-21.4h3.75l-7.55,23.32c-2.45,7.51-4.9,9.91-9.43,9.91a9.49,9.49,0,0,1-5.24-1.87l1.2-2.46h.29a6.86,6.86,0,0,0,3.95,1.5c2.74,0,4.33-1.64,5.82-6.11Z"/><path class="cls-21" d="M688.56,302.34h-2.21l11.74-36.46h2.21Z"/><path class="cls-21" d="M723.1,288.34c0,7.94-3.85,12.32-10.15,12.32s-10.05-4.29-10.05-12.32c0-6.92,3.27-12.21,10.05-12.21C719.49,276.13,723.1,281.32,723.1,288.34Zm-3.75,0c0-6.15-2.07-9.47-6.4-9.47s-6.35,3.46-6.35,9.47c0,5.78,1.68,9.57,6.35,9.57S719.35,294.64,719.35,288.34Z"/><path class="cls-21" d="M769.24,300.18V279.54l-2.6-.53v-2.4h6.16v23.57Zm-.34-32.86h3.9v3.85h-3.9Z"/><path class="cls-21" d="M794,300.18V285.94c0-4.48-1.39-6.93-5.38-6.93a8.74,8.74,0,0,0-5.78,2.7v18.47H779.2V276.61h2.45l.72,2.79a10.3,10.3,0,0,1,7.41-3.27c5.53,0,8,3.31,8,9.18v14.87Z"/><path class="cls-21" d="M806.33,282.38c0,5.05,11.69,3.27,11.69,11.25,0,3.8-2.94,7-8.18,7a14.19,14.19,0,0,1-7.12-2l1.06-2.7a10.93,10.93,0,0,0,6,2c2.89,0,4.67-1.58,4.67-4,0-5.67-11.54-3.56-11.54-11.54,0-3.17,2.4-6.2,7.79-6.2a15.28,15.28,0,0,1,7.07,1.54l-.87,2.69a12.67,12.67,0,0,0-6.15-1.44C807.77,278.92,806.33,280.21,806.33,282.38Z"/><path class="cls-21" d="M831.35,300.66c-3.32,0-6.07-1.69-6.07-7.22V279.25h-3.55v-2.64h3.55v-4.28l3.66-1.16v5.44h6.88v2.64h-6.88v14.62c0,2.5.91,3.71,3.13,3.71a10.27,10.27,0,0,0,3.75-1l.72,2.69A11.44,11.44,0,0,1,831.35,300.66Z"/><path class="cls-21" d="M843.18,300.18V279.54l-2.6-.53v-2.4h6.16v23.57Zm-.34-32.86h3.9v3.85h-3.9Z"/><path class="cls-21" d="M861.07,300.66c-3.31,0-6.05-1.69-6.05-7.22V279.25h-3.57v-2.64H855v-4.28l3.65-1.16v5.44h6.88v2.64h-6.88v14.62c0,2.5.91,3.71,3.13,3.71a10.27,10.27,0,0,0,3.75-1l.72,2.69A11.45,11.45,0,0,1,861.07,300.66Z"/><path class="cls-21" d="M886.71,300.18l-.53-2.7a10,10,0,0,1-7.31,3.18c-5.24,0-8.12-3.13-8.12-9.58V276.61h3.65v14.23c0,4.86,1.54,6.88,5.34,6.88a9.3,9.3,0,0,0,5.82-2.31v-18.8h3.7v23.57Z"/><path class="cls-21" d="M912.74,298.59a16.75,16.75,0,0,1-7.84,2.07c-6,0-10.3-3.52-10.3-12.27,0-8,4.38-12.26,10.3-12.26a15.23,15.23,0,0,1,7.7,1.87l-1.06,2.6a12.78,12.78,0,0,0-6.45-1.54c-4.23,0-6.83,3.37-6.83,9.33,0,6.64,2.6,9.43,6.83,9.43a13.29,13.29,0,0,0,6.78-2Z"/><path class="cls-21" d="M919.43,300.18V279.54l-2.6-.53v-2.4H923v23.57Zm-.34-32.86H923v3.85h-3.9Z"/><path class="cls-21" d="M948.77,288.34c0,7.94-3.85,12.32-10.15,12.32s-10-4.29-10-12.32c0-6.92,3.27-12.21,10-12.21C945.16,276.13,948.77,281.32,948.77,288.34Zm-3.75,0c0-6.15-2.07-9.47-6.4-9.47s-6.35,3.46-6.35,9.47c0,5.78,1.69,9.57,6.35,9.57S945,294.64,945,288.34Z"/><path class="cls-21" d="M969.12,300.18V285.94c0-4.48-1.39-6.93-5.38-6.93a8.74,8.74,0,0,0-5.78,2.7v18.47h-3.65V276.61h2.45l.72,2.79a10.3,10.3,0,0,1,7.41-3.27c5.53,0,8,3.31,8,9.18v14.87Z"/><path class="cls-21" d="M981.63,289.45c0,5.82,3,8.37,7.46,8.37a14.6,14.6,0,0,0,7.31-2.36l.91,2.6a16.91,16.91,0,0,1-8.61,2.6c-6.44,0-10.72-4.29-10.72-12.41,0-7.46,3.65-12.12,10.1-12.12,6.64,0,9.43,5.33,9.43,11.25v2.07Zm6.3-10.53c-4.47,0-6.3,3.94-6.3,8H994C994,282.81,992.55,278.92,987.93,278.92Z"/><path class="cls-21" d="M1005.78,282.38c0,5.05,11.69,3.27,11.69,11.25,0,3.8-2.93,7-8.17,7a14.16,14.16,0,0,1-7.12-2l1.05-2.7a11,11,0,0,0,6,2c2.88,0,4.66-1.58,4.66-4,0-5.67-11.54-3.56-11.54-11.54,0-3.17,2.4-6.2,7.79-6.2a15.25,15.25,0,0,1,7.07,1.54l-.87,2.69a12.64,12.64,0,0,0-6.15-1.44C1007.23,278.92,1005.78,280.21,1005.78,282.38Z"/><path class="cls-21" d="M465.39,350.55v-9.19a20.61,20.61,0,0,1,.33-2.79,9.08,9.08,0,0,1-6.83,3.32c-5.48,0-9.47-4.18-9.47-12.31,0-7.17,3.55-12.22,9.86-12.22a11.79,11.79,0,0,1,6.78,2.21l.67-1.73H469v32.71Zm0-28.62a9.31,9.31,0,0,0-5.68-1.78c-4.43,0-6.59,3.46-6.59,9.43s1.88,9.57,6.3,9.57c2.12,0,4-.91,6-3Z"/><path class="cls-21" d="M491.07,341.41l-.52-2.69a10.05,10.05,0,0,1-7.32,3.17c-5.24,0-8.13-3.13-8.13-9.57V317.84h3.66v14.24c0,4.86,1.54,6.88,5.34,6.88a9.3,9.3,0,0,0,5.82-2.31V317.84h3.7v23.57Z"/><path class="cls-21" d="M502.57,330.68c0,5.82,3,8.37,7.46,8.37a14.61,14.61,0,0,0,7.31-2.35l.91,2.59a16.82,16.82,0,0,1-8.61,2.6c-6.44,0-10.72-4.28-10.72-12.41,0-7.45,3.65-12.12,10.1-12.12,6.64,0,9.43,5.34,9.43,11.26v2.06Zm6.3-10.53c-4.47,0-6.3,4-6.3,8h12.32C514.89,324.05,513.49,320.15,508.87,320.15Z"/><path class="cls-21" d="M548.61,341.41V320.78l-2.6-.53v-2.41h6.16v23.57Zm-.33-32.85h3.89v3.85h-3.89Z"/><path class="cls-21" d="M573.39,341.41V327.17c0-4.47-1.4-6.92-5.39-6.92a8.68,8.68,0,0,0-5.77,2.69v18.47h-3.66V317.84H561l.72,2.79a10.3,10.3,0,0,1,7.4-3.27c5.54,0,8,3.32,8,9.19v14.86Z"/><path class="cls-21" d="M591,341.89c-3.32,0-6.06-1.68-6.06-7.21V320.49h-3.56v-2.65h3.56v-4.28l3.65-1.15v5.43h6.88v2.65h-6.88v14.62c0,2.5.92,3.7,3.13,3.7a10.07,10.07,0,0,0,3.75-1l.72,2.7A11.58,11.58,0,0,1,591,341.89Z"/><path class="cls-21" d="M603.79,330.68c0,5.82,3,8.37,7.46,8.37a14.61,14.61,0,0,0,7.31-2.35l.91,2.59a16.82,16.82,0,0,1-8.61,2.6c-6.44,0-10.72-4.28-10.72-12.41,0-7.45,3.65-12.12,10.1-12.12,6.63,0,9.42,5.34,9.42,11.26v2.06Zm6.3-10.53c-4.47,0-6.3,4-6.3,8H616.1C616.1,324.05,614.71,320.15,610.09,320.15Z"/><path class="cls-21" d="M637.22,321a9.39,9.39,0,0,0-3-.44,7.53,7.53,0,0,0-5.29,2.55v18.28h-3.65V317.84h2.45l.67,3a7.83,7.83,0,0,1,6.11-3.32,10.4,10.4,0,0,1,3,.39Z"/><path class="cls-21" d="M652,341.41h-5.44L639,317.84h4l6.4,21.31h.09l6.35-21.31h3.75Z"/><path class="cls-21" d="M665.27,341.41V320.78l-2.59-.53v-2.41h6.15v23.57Zm-.33-32.85h3.89v3.85h-3.89Z"/><path class="cls-21" d="M678.12,330.68c0,5.82,3,8.37,7.45,8.37a14.57,14.57,0,0,0,7.31-2.35l.92,2.59a16.82,16.82,0,0,1-8.61,2.6c-6.45,0-10.73-4.28-10.73-12.41,0-7.45,3.66-12.12,10.1-12.12,6.64,0,9.43,5.34,9.43,11.26v2.06Zm6.3-10.53c-4.47,0-6.3,4-6.3,8h12.31C690.43,324.05,689,320.15,684.42,320.15Z"/><path class="cls-21" d="M714.39,341.41V327.17c0-4.47-1.39-6.92-5.39-6.92a8.7,8.7,0,0,0-5.77,2.69v18.47h-3.65V317.84H702l.72,2.79a10.34,10.34,0,0,1,7.41-3.27c5.53,0,8,3.32,8,9.19v14.86Z"/><path class="cls-21" d="M726.9,330.68c0,5.82,3,8.37,7.46,8.37a14.61,14.61,0,0,0,7.31-2.35l.91,2.59a16.82,16.82,0,0,1-8.61,2.6c-6.45,0-10.73-4.28-10.73-12.41,0-7.45,3.66-12.12,10.11-12.12,6.63,0,9.42,5.34,9.42,11.26v2.06Zm6.3-10.53c-4.47,0-6.3,4-6.3,8h12.31C739.21,324.05,737.82,320.15,733.2,320.15Z"/><path class="cls-21" d="M763.17,341.41V327.17c0-4.47-1.39-6.92-5.39-6.92a8.73,8.73,0,0,0-5.77,2.69v18.47h-3.65V317.84h2.45l.72,2.79a10.34,10.34,0,0,1,7.41-3.27c5.53,0,8,3.32,8,9.19v14.86Z"/><path class="cls-21" d="M803.63,341.27l-2.4.19-7.55-23.62h4s4.42,14.34,6.44,21.41c2.07-7.12,6.4-21.41,6.4-21.41h3.75l-7.55,23.33c-2.45,7.5-4.91,9.91-9.43,9.91a9.42,9.42,0,0,1-5.24-1.88l1.2-2.45h.29a6.83,6.83,0,0,0,3.95,1.49c2.74,0,4.32-1.63,5.82-6.11Z"/><path class="cls-21" d="M855.45,341.41l-.63-3a9.3,9.3,0,0,1-7.26,3.51c-4.81,0-7.6-3.22-7.6-7.21s3-6.74,8.32-6.74h6.1v-1.87c0-4.09-1.77-5.82-5.33-5.82a17.34,17.34,0,0,0-7.12,1.54l-1-2.65a20.68,20.68,0,0,1,8.56-1.78c5.58,0,8.42,2.89,8.42,8.51v15.54Zm-1.07-11h-5.53c-4,0-5.33,1.74-5.33,4.09,0,2.84,1.54,4.72,5,4.72a8.26,8.26,0,0,0,5.91-2.94Z"/><path class="cls-21" d="M866.9,323.61c0,5.05,11.68,3.28,11.68,11.26,0,3.8-2.93,7-8.17,7a14.16,14.16,0,0,1-7.12-2l1.05-2.69a11.07,11.07,0,0,0,6,2c2.88,0,4.66-1.59,4.66-4,0-5.68-11.54-3.56-11.54-11.54,0-3.18,2.4-6.21,7.79-6.21a15.25,15.25,0,0,1,7.07,1.54l-.86,2.69a12.68,12.68,0,0,0-6.16-1.44C868.34,320.15,866.9,321.45,866.9,323.61Z"/><path class="cls-21" d="M899.65,341.41l-.53-2.69a10,10,0,0,1-7.31,3.17c-5.24,0-8.13-3.13-8.13-9.57V317.84h3.66v14.24c0,4.86,1.54,6.88,5.34,6.88a9.3,9.3,0,0,0,5.82-2.31V317.84h3.7v23.57Z"/><path class="cls-21" d="M926.59,326.55v14.86h-3.7V327.17c0-4.47-1.3-6.92-5.29-6.92-2.5,0-4.23,1.39-5.68,2.69v18.47h-3.65V317.84h2.4l.77,2.84a10,10,0,0,1,7.17-3.32c3.51,0,5.77,1.25,6.93,3.61a10.25,10.25,0,0,1,7.35-3.61c5.78,0,8.32,3.22,8.32,9.19v14.86h-3.7V327.17c0-4.47-1.68-6.92-5.67-6.92a8.46,8.46,0,0,0-5.63,2.69A13.8,13.8,0,0,1,926.59,326.55Z"/><path class="cls-21" d="M948.82,341.41V320.78l-2.6-.53v-2.41h6.16v23.57Zm-.34-32.85h3.9v3.85h-3.9Z"/><path class="cls-21" d="M970.76,321a9.44,9.44,0,0,0-3-.44,7.51,7.51,0,0,0-5.29,2.55v18.28h-3.66V317.84h2.45l.68,3a7.82,7.82,0,0,1,6.1-3.32,10.5,10.5,0,0,1,3,.39Z"/><path class="cls-21" d="M989.66,341.41l-.62-3a9.31,9.31,0,0,1-7.27,3.51c-4.81,0-7.59-3.22-7.59-7.21s3-6.74,8.32-6.74h6.11v-1.87c0-4.09-1.78-5.82-5.34-5.82a17.34,17.34,0,0,0-7.12,1.54l-1-2.65a20.68,20.68,0,0,1,8.56-1.78c5.58,0,8.41,2.89,8.41,8.51v15.54Zm-1-11h-5.54c-4,0-5.34,1.74-5.34,4.09,0,2.84,1.54,4.72,5,4.72a8.31,8.31,0,0,0,5.92-2.94Zm-10.15-16.25-.53-2.17,10.63-3.94.72,2.74Z"/><path class="cls-21" d="M1013.23,341.41V327.17c0-4.47-1.39-6.92-5.38-6.92a8.68,8.68,0,0,0-5.77,2.69v18.47h-3.66V317.84h2.45l.72,2.79a10.34,10.34,0,0,1,7.41-3.27c5.53,0,8,3.32,8,9.19v14.86Z"/><path class="cls-21" d="M465.67,379.81a8.89,8.89,0,0,1-6.78,3.32c-5.58,0-9.47-4.14-9.47-12.32,0-7.16,3.55-12.21,9.86-12.21a9.89,9.89,0,0,1,6.3,2,31.61,31.61,0,0,1-.19-3.85v-7.31H469v33.19H466.3Zm-.28-16.74a10.12,10.12,0,0,0-5.73-1.68c-4.42,0-6.54,3.46-6.54,9.42s1.88,9.57,6.3,9.57c2.12,0,4-.91,6-3Z"/><path class="cls-21" d="M477.27,382.65V362l-2.6-.53v-2.4h6.16v23.57Zm-.34-32.86h3.9v3.85h-3.9Z"/><path class="cls-21" d="M489.92,364.85c0,5,11.69,3.27,11.69,11.26,0,3.79-2.93,7-8.18,7a14.19,14.19,0,0,1-7.12-2l1.06-2.7a11,11,0,0,0,6,2c2.89,0,4.67-1.58,4.67-4,0-5.67-11.54-3.55-11.54-11.54,0-3.17,2.4-6.2,7.79-6.2a15.28,15.28,0,0,1,7.07,1.54l-.87,2.69a12.64,12.64,0,0,0-6.15-1.44C491.36,361.39,489.92,362.68,489.92,364.85Z"/><path class="cls-21" d="M514.94,383.13c-3.32,0-6.06-1.69-6.06-7.22V361.72h-3.56v-2.64h3.56V354.8l3.65-1.16v5.44h6.88v2.64h-6.88v14.62c0,2.51.92,3.71,3.13,3.71a10.27,10.27,0,0,0,3.75-1l.72,2.69A11.44,11.44,0,0,1,514.94,383.13Z"/><path class="cls-21" d="M526.77,382.65V362l-2.6-.53v-2.4h6.16v23.57Zm-.34-32.86h3.9v3.85h-3.9Z"/><path class="cls-21" d="M551.54,382.65V368.41c0-4.48-1.39-6.93-5.38-6.93a8.71,8.71,0,0,0-5.77,2.7v18.47h-3.66V359.08h2.45l.72,2.79a10.3,10.3,0,0,1,7.41-3.27c5.53,0,8,3.31,8,9.18v14.87Z"/><path class="cls-21" d="M569.11,383.13c-3.32,0-6.07-1.69-6.07-7.22V361.72h-3.55v-2.64H563V354.8l3.66-1.16v5.44h6.88v2.64H566.7v14.62c0,2.51.91,3.71,3.13,3.71a10.27,10.27,0,0,0,3.75-1l.72,2.69A11.44,11.44,0,0,1,569.11,383.13Z"/><path class="cls-21" d="M593.64,382.65l-.63-3a9.27,9.27,0,0,1-7.26,3.51c-4.81,0-7.6-3.23-7.6-7.22s3-6.73,8.32-6.73h6.11V367.3c0-4.09-1.78-5.82-5.34-5.82a17.38,17.38,0,0,0-7.12,1.54l-1-2.64a20.72,20.72,0,0,1,8.56-1.78c5.58,0,8.42,2.88,8.42,8.51v15.54Zm-1.06-11h-5.53c-4,0-5.34,1.73-5.34,4.09,0,2.84,1.54,4.71,4.95,4.71a8.33,8.33,0,0,0,5.92-2.93Z"/><path class="cls-21" d="M605.09,364.85c0,5,11.69,3.27,11.69,11.26,0,3.79-2.94,7-8.18,7a14.19,14.19,0,0,1-7.12-2l1.06-2.7a10.93,10.93,0,0,0,6,2c2.89,0,4.67-1.58,4.67-4,0-5.67-11.55-3.55-11.55-11.54,0-3.17,2.41-6.2,7.79-6.2a15.3,15.3,0,0,1,7.08,1.54l-.87,2.69a12.68,12.68,0,0,0-6.16-1.44C606.53,361.39,605.09,362.68,605.09,364.85Z"/><path class="cls-21" d="M644.63,362.25a9.44,9.44,0,0,0-3-.43,7.53,7.53,0,0,0-5.29,2.55v18.28h-3.66V359.08h2.46l.67,3a7.8,7.8,0,0,1,6.11-3.32,11,11,0,0,1,3,.38Z"/><path class="cls-21" d="M651.85,371.92c0,5.82,3,8.37,7.45,8.37a14.54,14.54,0,0,0,7.31-2.36l.92,2.6a16.91,16.91,0,0,1-8.61,2.6c-6.44,0-10.73-4.28-10.73-12.41,0-7.46,3.66-12.12,10.1-12.12,6.64,0,9.43,5.33,9.43,11.25v2.07Zm6.3-10.53c-4.47,0-6.3,3.94-6.3,8h12.31C664.16,365.28,662.77,361.39,658.15,361.39Z"/><path class="cls-21" d="M676,364.85c0,5,11.69,3.27,11.69,11.26,0,3.79-2.94,7-8.18,7a14.19,14.19,0,0,1-7.12-2l1.06-2.7a11,11,0,0,0,6,2c2.89,0,4.67-1.58,4.67-4,0-5.67-11.55-3.55-11.55-11.54,0-3.17,2.41-6.2,7.8-6.2a15.28,15.28,0,0,1,7.07,1.54l-.87,2.69a12.67,12.67,0,0,0-6.15-1.44C677.44,361.39,676,362.68,676,364.85Z"/><path class="cls-21" d="M696.78,384.23v7.56h-3.7V359.08h2.84l.57,2.79a9.5,9.5,0,0,1,6.88-3.27c6,0,9,4.28,9,12.21,0,8.32-4.14,12.32-9.77,12.32a8.29,8.29,0,0,1-6.35-2.7A21.9,21.9,0,0,1,696.78,384.23Zm0-6.39a7.9,7.9,0,0,0,5.58,2.54c4.28,0,6.3-2.78,6.3-9.57,0-6.2-1.78-9.38-6.06-9.38a8.44,8.44,0,0,0-5.82,2.75Z"/><path class="cls-21" d="M737.34,370.81c0,7.94-3.85,12.32-10.15,12.32s-10.06-4.28-10.06-12.32c0-6.92,3.28-12.21,10.06-12.21C733.73,358.6,737.34,363.79,737.34,370.81Zm-3.76,0c0-6.15-2.06-9.47-6.39-9.47s-6.35,3.46-6.35,9.47c0,5.78,1.68,9.57,6.35,9.57S733.58,377.11,733.58,370.81Z"/><path class="cls-21" d="M757.69,382.65V368.41c0-4.48-1.4-6.93-5.39-6.93a8.71,8.71,0,0,0-5.77,2.7v18.47h-3.66V359.08h2.45l.73,2.79a10.26,10.26,0,0,1,7.4-3.27c5.53,0,8,3.31,8,9.18v14.87Z"/><path class="cls-21" d="M770,364.85c0,5,11.69,3.27,11.69,11.26,0,3.79-2.93,7-8.17,7a14.16,14.16,0,0,1-7.12-2l1.05-2.7a11,11,0,0,0,6,2c2.88,0,4.66-1.58,4.66-4,0-5.67-11.54-3.55-11.54-11.54,0-3.17,2.4-6.2,7.79-6.2a15.25,15.25,0,0,1,7.07,1.54l-.86,2.69a12.71,12.71,0,0,0-6.16-1.44C771.45,361.39,770,362.68,770,364.85Z"/><path class="cls-21" d="M801.65,382.65l-.62-3a9.27,9.27,0,0,1-7.26,3.51c-4.81,0-7.6-3.23-7.6-7.22s3-6.73,8.32-6.73h6.11V367.3c0-4.09-1.78-5.82-5.34-5.82a17.38,17.38,0,0,0-7.12,1.54l-1-2.64a20.72,20.72,0,0,1,8.56-1.78c5.58,0,8.42,2.88,8.42,8.51v15.54Zm-1-11h-5.53c-4,0-5.34,1.73-5.34,4.09,0,2.84,1.54,4.71,4.95,4.71a8.33,8.33,0,0,0,5.92-2.93Z"/><path class="cls-21" d="M813.68,361.77a10.12,10.12,0,0,1,7-3.17c6,0,9.14,4.28,9.14,12.21,0,8.32-4.14,12.32-9.82,12.32a9.13,9.13,0,0,1-6.83-3l-.77,2.55h-2V349.46h3.66v9.14Zm.39,15.92a8.35,8.35,0,0,0,5.72,2.69c4.14,0,6.35-2.78,6.35-9.57,0-6.2-1.83-9.42-6.11-9.42a8.79,8.79,0,0,0-6,2.64Z"/><path class="cls-21" d="M837.31,382.65V362l-2.6-.53v-2.4h6.15v23.57ZM837,349.79h3.89v3.85H837Z"/><path class="cls-21" d="M847.46,376.15V349.46h3.6v28c0,2,.92,2.84,3.51,2.84h.77v2.5a10.79,10.79,0,0,1-2.3.29C848.56,383.13,847.46,380.58,847.46,376.15Z"/><path class="cls-21" d="M861.79,382.65V362l-2.6-.53v-2.4h6.16v23.57Zm-.34-32.86h3.9v3.85h-3.9Z"/><path class="cls-21" d="M887.28,379.81a8.89,8.89,0,0,1-6.78,3.32c-5.58,0-9.47-4.14-9.47-12.32,0-7.16,3.56-12.21,9.86-12.21a9.89,9.89,0,0,1,6.3,2,33.76,33.76,0,0,1-.19-3.85v-7.31h3.65v33.19h-2.74ZM887,363.07a10.12,10.12,0,0,0-5.73-1.68c-4.42,0-6.54,3.46-6.54,9.42s1.88,9.57,6.3,9.57c2.12,0,4-.91,6-3Z"/><path class="cls-21" d="M911.58,382.65l-.63-3a9.27,9.27,0,0,1-7.26,3.51c-4.81,0-7.6-3.23-7.6-7.22s3-6.73,8.32-6.73h6.11V367.3c0-4.09-1.78-5.82-5.34-5.82a17.38,17.38,0,0,0-7.12,1.54l-1-2.64a20.76,20.76,0,0,1,8.56-1.78c5.58,0,8.42,2.88,8.42,8.51v15.54Zm-1.06-11H905c-4,0-5.34,1.73-5.34,4.09,0,2.84,1.54,4.71,5,4.71a8.31,8.31,0,0,0,5.92-2.93Z"/><path class="cls-21" d="M935.87,379.81a8.91,8.91,0,0,1-6.78,3.32c-5.58,0-9.47-4.14-9.47-12.32,0-7.16,3.55-12.21,9.86-12.21a9.89,9.89,0,0,1,6.3,2,31.61,31.61,0,0,1-.19-3.85v-7.31h3.65v33.19H936.5Zm-.28-16.74a10.12,10.12,0,0,0-5.73-1.68c-4.43,0-6.54,3.46-6.54,9.42s1.88,9.57,6.3,9.57c2.12,0,4-.91,6-3Z"/><path class="cls-21" d="M948.48,371.92c0,5.82,3,8.37,7.45,8.37a14.65,14.65,0,0,0,7.32-2.36l.91,2.6a16.94,16.94,0,0,1-8.61,2.6c-6.45,0-10.73-4.28-10.73-12.41,0-7.46,3.66-12.12,10.1-12.12,6.64,0,9.43,5.33,9.43,11.25v2.07Zm6.3-10.53c-4.47,0-6.3,3.94-6.3,8h12.31C960.79,365.28,959.4,361.39,954.78,361.39Z"/><path class="cls-21" d="M972.63,364.85c0,5,11.68,3.27,11.68,11.26,0,3.79-2.93,7-8.17,7a14.16,14.16,0,0,1-7.12-2l1.06-2.7a10.93,10.93,0,0,0,6,2c2.89,0,4.67-1.58,4.67-4,0-5.67-11.55-3.55-11.55-11.54,0-3.17,2.41-6.2,7.79-6.2a15.3,15.3,0,0,1,7.08,1.54l-.87,2.69a12.68,12.68,0,0,0-6.16-1.44C974.07,361.39,972.63,362.68,972.63,364.85Z"/><path class="cls-21" d="M1008.32,382.5l-2.4.19-7.55-23.61h4s4.42,14.33,6.44,21.4c2.07-7.12,6.4-21.4,6.4-21.4H1019l-7.55,23.32c-2.45,7.51-4.91,9.91-9.43,9.91a9.42,9.42,0,0,1-5.24-1.87L998,388h.29a6.82,6.82,0,0,0,3.94,1.5c2.75,0,4.33-1.64,5.82-6.11Z"/><path class="cls-21" d="M462.12,403.49a9.51,9.51,0,0,0-3-.44,7.55,7.55,0,0,0-5.29,2.55v18.28h-3.65V400.31h2.45l.68,3a7.76,7.76,0,0,1,6.1-3.32,10.59,10.59,0,0,1,3,.38Z"/><path class="cls-21" d="M485.83,412.05c0,7.93-3.85,12.31-10.15,12.31s-10.05-4.28-10.05-12.31c0-6.93,3.27-12.22,10.05-12.22C482.22,399.83,485.83,405,485.83,412.05Zm-3.75,0c0-6.16-2.07-9.48-6.4-9.48s-6.35,3.47-6.35,9.48c0,5.77,1.69,9.57,6.35,9.57S482.08,418.35,482.08,412.05Z"/><path class="cls-21" d="M491.56,417.39v-26.7h3.61v28c0,2,.91,2.84,3.51,2.84h.77v2.5a10.94,10.94,0,0,1-2.31.29C492.67,424.36,491.56,421.81,491.56,417.39Z"/><path class="cls-21" d="M506.9,413.15c0,5.83,3,8.37,7.46,8.37a14.61,14.61,0,0,0,7.31-2.35l.91,2.6a16.91,16.91,0,0,1-8.61,2.59c-6.44,0-10.72-4.28-10.72-12.41,0-7.45,3.65-12.12,10.1-12.12,6.64,0,9.43,5.34,9.43,11.26v2.06Zm6.3-10.53c-4.47,0-6.3,3.95-6.3,8h12.32C519.22,406.52,517.82,402.62,513.2,402.62Z"/><path class="cls-21" d="M531.05,406.09c0,5,11.69,3.27,11.69,11.25,0,3.8-2.93,7-8.18,7a14.15,14.15,0,0,1-7.11-2l1.06-2.69a11,11,0,0,0,6,2c2.88,0,4.66-1.59,4.66-4,0-5.68-11.54-3.56-11.54-11.54,0-3.18,2.4-6.21,7.79-6.21a15.25,15.25,0,0,1,7.07,1.54l-.86,2.7a12.6,12.6,0,0,0-6.16-1.45C532.5,402.62,531.05,403.92,531.05,406.09Z"/><path class="cls-21" d="M547.41,418.49H551v5.39h-3.61Z"/><path class="cls-22" d="M496.14,248V212.33h23.05v7h-14.7v7h11l-.53,7.35H504.49V241h14.7v7Z"/><path class="cls-22" d="M544.46,222.11h4.92v35.95h-8.3v-9l.53-3.7a7.92,7.92,0,0,1-6.61,3.18c-5.76,0-10.57-4.07-10.57-13.49,0-8.88,5.28-13.48,11.26-13.48,2.8,0,5.81,1,7.35,2.65Zm-3.38,7a5.85,5.85,0,0,0-3.81-1.37c-2.48,0-4.54,1.43-4.54,7.24,0,6,1.9,7.45,4.38,7.45a6.11,6.11,0,0,0,4-1.63Z"/><path class="cls-22" d="M574.76,248l-1.32-3.28a9.83,9.83,0,0,1-8.09,3.81c-6.82,0-9.67-3.7-9.67-10.84v-15.6H564v15.81c0,3.22,1.32,4.28,3.91,4.28a7.59,7.59,0,0,0,3.75-1V222.11h8.46V248Z"/><path class="cls-22" d="M588.73,248V228l-3.07-.68v-5.24H597V248Zm-.16-36.69h8.35v7.29h-8.35Z"/><path class="cls-22" d="M612.31,250.82v7.24h-8.46V222.11h7.35l.53,2.64a8.16,8.16,0,0,1,6.45-3.17c5.76,0,10.62,4.13,10.62,13.38,0,8.88-5.65,13.59-11.58,13.59a6.32,6.32,0,0,1-5.92-3.07A18,18,0,0,1,612.31,250.82Zm0-10.84a4.61,4.61,0,0,0,3.8,2.43c2.28,0,4.34-1.79,4.34-7.4,0-5.87-1.91-7.4-4.28-7.4a6,6,0,0,0-3.86,1.64Z"/><path class="cls-22" d="M658.89,235c0,8.88-4.55,13.54-12.69,13.54s-12.69-4.66-12.69-13.54c0-7.61,4.55-13.43,12.69-13.43S658.89,227.4,658.89,235Zm-8.62,0c0-6-1.64-7.4-4.07-7.4s-4.07,1.37-4.07,7.4c0,5.82,1.54,7.4,4.07,7.4S650.27,240.83,650.27,235Z"/><path class="cls-22" d="M694,224.23a12.56,12.56,0,0,1-.84-5v-7.72h8.3V248h-6.93l-.84-2.75a7.65,7.65,0,0,1-6.56,3.28c-5.76,0-10.63-4.07-10.63-13.49,0-8.88,5.29-13.48,11.27-13.48A7.63,7.63,0,0,1,694,224.23Zm-.84,4.54a8.33,8.33,0,0,0-3.91-1c-2.49,0-4.44,1.43-4.44,7.24,0,6,1.9,7.45,4.38,7.45a6.13,6.13,0,0,0,4-1.63Z"/><path class="cls-22" d="M715.69,237.29c0,3,1.9,4.91,5.92,4.91a18.94,18.94,0,0,0,7.29-1.9l1.48,5.81a22.51,22.51,0,0,1-10,2.44c-8.3,0-13.11-5.13-13.11-13.54,0-7.82,3.75-13.43,12.53-13.43,8.08,0,11.31,5.77,11.31,12.27v3.44Zm3.8-9.63c-2.75,0-3.8,2.49-3.8,4.87h7.45C723.14,229.78,722.35,227.66,719.49,227.66Z"/><path class="cls-22" d="M767.14,246.69a15.88,15.88,0,0,1-7.35,1.86c-4.87,0-8.46-3.12-8.46-9.31V228h-3.7v-5.92h3.86v-4.44l8.14-2.64v7.08h6.61V228h-6.61V239a2.14,2.14,0,0,0,2.38,2.43,9.21,9.21,0,0,0,3.91-.9Z"/><path class="cls-22" d="M780.36,248h-8.25V222.11h5.82l.79,3.6H779a6.28,6.28,0,0,1,5.92-4.13,11,11,0,0,1,2.86.32l-.11,7.08a12.66,12.66,0,0,0-3.22-.42,7.23,7.23,0,0,0-4.07,1.22Z"/><path class="cls-22" d="M808.7,248l-1.06-3a8.86,8.86,0,0,1-7.35,3.49c-5.13,0-8.88-3.28-8.88-8.51,0-5,3.7-7.78,10.1-7.78h4.81v-.95c0-2.75-1.85-3.38-3.91-3.38a18.51,18.51,0,0,0-7.72,1.69l-2.06-5.92a27.56,27.56,0,0,1,10.57-2.12c8,0,11.21,3.49,11.21,10.31V248Zm-2.38-11H803c-2.22,0-3.39,1.06-3.39,2.75a2.82,2.82,0,0,0,3.12,3.12,7.56,7.56,0,0,0,3.6-1.06Z"/><path class="cls-22" d="M825.09,248H820.7V211.54h8.36v8.51l-.48,4.55c.85-1.43,3.54-3,6.45-3,5.76,0,10.63,4.13,10.63,13.38,0,8.88-5.66,13.59-11.58,13.59-4,0-5.92-1.38-7.46-3.81Zm4-8.09a4.85,4.85,0,0,0,3.91,2.48c2.27,0,4.34-1.79,4.34-7.4,0-5.87-1.91-7.4-4.29-7.4a6.24,6.24,0,0,0-4,1.64Z"/><path class="cls-22" d="M867.66,248l-1.06-3a8.87,8.87,0,0,1-7.35,3.49c-5.13,0-8.88-3.28-8.88-8.51,0-5,3.7-7.78,10.1-7.78h4.81v-.95c0-2.75-1.85-3.38-3.91-3.38a18.51,18.51,0,0,0-7.72,1.69l-2.06-5.92a27.52,27.52,0,0,1,10.57-2.12c8,0,11.21,3.49,11.21,10.31V248Zm-2.38-11H862c-2.22,0-3.38,1.06-3.38,2.75a2.81,2.81,0,0,0,3.12,3.12,7.55,7.55,0,0,0,3.59-1.06Z"/><path class="cls-22" d="M890,248.33c0,7.88-3.6,10-8.67,10a16.54,16.54,0,0,1-5.08-.8l.95-6.66a6.51,6.51,0,0,0,2.28.43c1.48,0,2.22-1,2.22-2.44v-21l-3.07-.73v-5H890Zm-8.36-37H890v7.29h-8.36Z"/><path class="cls-22" d="M921.65,235c0,8.88-4.55,13.54-12.69,13.54s-12.69-4.66-12.69-13.54c0-7.61,4.54-13.43,12.69-13.43S921.65,227.4,921.65,235ZM913,235c0-6-1.64-7.4-4.07-7.4s-4.07,1.37-4.07,7.4c0,5.82,1.53,7.4,4.07,7.4S913,240.83,913,235Z"/><path class="cls-22" d="M926.89,222.11h8.45v8.25h-8.45Zm0,17.66h8.45V248h-8.45Z"/></svg>